<?xml version="1.0" encoding="UTF-8" standalone="no"?>
<!-- Created with Inkscape (http://www.inkscape.org/) -->

<svg
   xmlns:dc="http://purl.org/dc/elements/1.1/"
   xmlns:cc="http://creativecommons.org/ns#"
   xmlns:rdf="http://www.w3.org/1999/02/22-rdf-syntax-ns#"
   xmlns:svg="http://www.w3.org/2000/svg"
   xmlns="http://www.w3.org/2000/svg"
   xmlns:sodipodi="http://sodipodi.sourceforge.net/DTD/sodipodi-0.dtd"
   xmlns:inkscape="http://www.inkscape.org/namespaces/inkscape"
   width="125mm"
   height="88mm"
   viewBox="0 0 442.91338 311.81102"
   id="svg27585"
   version="1.1"
   inkscape:version="0.91 r13725"
   sodipodi:docname="LibreObjet-logo-template.svg">
  <defs
     id="defs27587" />
  <sodipodi:namedview
     id="base"
     pagecolor="#ffffff"
     bordercolor="#666666"
     borderopacity="1.0"
     inkscape:pageopacity="0.0"
     inkscape:pageshadow="2"
     inkscape:zoom="1.5004829"
     inkscape:cx="194.08253"
     inkscape:cy="119.78762"
     inkscape:document-units="mm"
     inkscape:current-layer="layer2"
     showgrid="false"
     showguides="true"
     inkscape:guide-bbox="true"
     inkscape:object-paths="true"
     inkscape:snap-intersection-paths="true"
     inkscape:object-nodes="true"
     inkscape:snap-smooth-nodes="true"
     inkscape:snap-midpoints="true"
     inkscape:window-width="1920"
     inkscape:window-height="1013"
     inkscape:window-x="0"
     inkscape:window-y="28"
     inkscape:window-maximized="1">
    <sodipodi:guide
       position="221.45669,188.39344"
       orientation="1,0"
       id="guide3386"
       inkscape:label=""
       inkscape:color="rgb(0,0,255)" />
  </sodipodi:namedview>
  <metadata
     id="metadata27590">
    <rdf:RDF>
      <cc:Work
         rdf:about="">
        <dc:format>image/svg+xml</dc:format>
        <dc:type
           rdf:resource="http://purl.org/dc/dcmitype/StillImage" />
        <dc:title></dc:title>
      </cc:Work>
    </rdf:RDF>
  </metadata>
  <g
     inkscape:label="Libre Objet"
     inkscape:groupmode="layer"
     id="layer1"
     transform="translate(0,-740.55118)"
     style="display:inline">
    <g
       transform="matrix(1.7676317,0,0,1.7676317,3113.8988,-752.70174)"
       style="display:inline;fill:#008000"
       id="g4271">
      <path
         transform="translate(-1899.0042,83.580248)"
         inkscape:connector-curvature="0"
         style="color:#000000;font-style:normal;font-variant:normal;font-weight:normal;font-stretch:normal;font-size:medium;line-height:normal;font-family:Sans;-inkscape-font-specification:Sans;text-indent:0;text-align:start;text-decoration:none;text-decoration-line:none;letter-spacing:normal;word-spacing:normal;text-transform:none;direction:ltr;block-progression:tb;writing-mode:lr-tb;baseline-shift:baseline;text-anchor:start;display:inline;overflow:visible;visibility:visible;fill:#008000;fill-opacity:1;stroke:none;stroke-width:10.62992096;marker:none;enable-background:accumulate"
         d="m 162.68731,847.39343 -3.13091,3.13091 3.13091,3.13091 3.13091,-3.13091 -3.13091,-3.13091 z m 171.41737,0 -3.13091,3.13091 3.13091,3.13091 3.13091,-3.13091 -3.13091,-3.13091 z m -182.30295,1.75912 0,27.71824 2.74358,0 0,-27.71824 -2.74358,0 z m 19.02757,0 0,27.71824 2.74359,0 0,-1.63001 0.19366,0.19367 2.87269,1.43634 4.21218,0 2.86464,-1.43634 2.7678,-2.76779 1.36371,-4.0831 0,-2.82427 -1.36371,-4.0831 -2.7678,-2.76779 -2.86464,-1.43634 -4.21218,0 -2.87269,1.43634 -0.19366,0.20174 0,-9.95759 -2.74359,0 z m 84.62335,0 -16.55832,5.11597 0,18.16413 15.97733,12.75765 16.55832,-5.11597 0.008,-18.16413 -15.98541,-12.75765 z m 52.30559,0 0,27.71824 2.74358,0 0,-1.63001 0.19366,0.19367 2.87269,1.43634 4.21221,0 2.86461,-1.43634 2.7678,-2.76779 1.36371,-4.0831 0,-2.82427 -1.36371,-4.0831 -2.7678,-2.76779 -2.86461,-1.43634 -4.21221,0 -2.87269,1.43634 -0.19366,0.20174 0,-9.95759 -2.74358,0 z m 57.08264,0 0,8.31951 -3.56666,0 0,2.75165 3.56666,0 0,10.74031 1.43634,4.31711 3.17933,1.58966 4.07504,0 0,-2.74358 -1.37182,0 -2.04153,0 -1.58965,-0.79886 -0.94413,-2.83235 0,-10.27229 4.76092,0 0,-2.75165 -4.76092,0 0,-8.31951 -2.74358,0 z m -109.96114,3.02601 13.83086,11.03888 0,14.84762 -13.27408,4.09923 -13.8228,-11.04695 0,-14.83955 13.26602,-4.09923 z m -93.56422,5.2935 0,19.39873 2.74358,0 0,-19.39873 -2.74358,0 z m 32.10799,0 0,19.39873 2.74358,0 0,-10.65155 1.01671,-3.05829 2.0012,-2.0012 1.88018,-0.93604 4.61567,0 0,-2.75165 -5.26122,0 -2.86461,1.43634 -1.38793,1.37986 0,-2.8162 -2.74358,0 z m 21.26275,0 -2.86461,1.43634 -2.76781,2.76779 -1.35565,3.02601 0,3.88136 1.35565,4.0831 2.76781,2.76779 2.86461,1.43634 4.22026,0 2.86463,-1.43634 3.51019,-3.5021 -1.94473,-1.94472 -3.18739,3.1874 -1.90436,0.95218 -2.88886,0 -1.91243,-0.95218 -1.99314,-1.99313 -1.00866,-3.03408 0,-0.7908 14.26663,0 0,-4.07503 -1.43635,-2.87269 -1.5009,-1.5009 -2.86463,-1.43634 -4.22026,0 z m 76.28771,0 -2.87269,1.43634 -2.75972,2.76779 -1.36374,4.0831 0,2.82427 1.36374,4.0831 2.75972,2.76779 2.87269,1.43634 4.2122,0 2.8727,-1.43634 2.75972,-2.76779 1.36371,-4.0831 0,-2.82427 -1.36371,-4.0831 -2.75972,-2.76779 -2.8727,-1.43634 -4.2122,0 z m 41.75894,0 0,21.37573 -0.93604,2.80813 -1.5816,0.7908 -2.0577,0 -1.37179,0 0,2.74358 4.07504,0 3.1793,-1.58966 1.43637,-4.31711 0,-21.81147 -2.74358,0 z m 15.31562,0 -2.86461,1.43634 -2.76778,2.76779 -1.35565,3.02601 0,3.88136 1.35565,4.0831 2.76778,2.76779 2.86461,1.43634 4.22029,0 2.86463,-1.43634 3.51016,-3.5021 -1.94473,-1.94472 -3.18738,3.1874 -1.90437,0.95218 -2.88883,0 -1.91243,-0.95218 -1.99314,-1.99313 -1.00866,-3.03408 0,-0.7908 14.26663,0 0,-4.07503 -1.43637,-2.87269 -1.50088,-1.5009 -2.86463,-1.43634 -4.22029,0 z m -170.76374,2.75165 2.92108,0 1.88018,0.93604 2.0012,2.0012 1.01674,3.05829 0,1.90437 -1.01674,3.05829 -2.0012,2.0012 -1.89629,0.94411 -2.88886,0 -1.91242,-0.95218 -1.81559,-1.82368 0,-8.35985 1.81559,-1.82368 1.89631,-0.94411 z m 38.0551,0 2.92108,0 1.88825,0.94411 0.87955,0.87956 0.93605,1.88016 0,0.6859 -10.99855,0 0.48416,-1.45249 1.99314,-1.99313 1.89632,-0.94411 z m 76.27963,0 2.92111,0 1.89628,0.94411 1.98509,1.99313 1.01671,3.03408 0,1.95279 -1.01671,3.03408 -1.98509,1.99313 -1.91242,0.95218 -2.88883,0 -1.91245,-0.95218 -1.98504,-1.99313 -1.01677,-3.03408 0,-1.95279 1.01677,-3.03408 1.98504,-1.99313 1.89631,-0.94411 z m 22.5942,0 2.92111,0 1.88017,0.93604 2.0012,2.0012 1.01672,3.05829 0,1.90437 -1.01672,3.05829 -2.0012,2.0012 -1.89631,0.94411 -2.88883,0 -1.91245,-0.95218 -1.81559,-1.82368 0,-8.35985 1.81559,-1.82368 1.89631,-0.94411 z m 34.48844,0 2.92111,0 1.88823,0.94411 0.87957,0.87956 0.93605,1.88016 0,0.6859 -10.99855,0 0.48416,-1.45249 1.99314,-1.99313 1.89629,-0.94411 z"
         id="path4273" />
      <g
         id="g4275"
         transform="translate(-2205.3811,578.07481)"
         style="display:inline;fill:#008000;fill-opacity:1">
        <path
           inkscape:connector-curvature="0"
           id="path4277"
           d="m 538.5,345.28125 a 2.1502151,2.1502151 0 0 0 -1.90625,3.3125 l 4.0625,6.625 a 2.1502151,2.1502151 0 1 0 3.65625,-2.25 l -4.0625,-6.625 a 2.1502151,2.1502151 0 0 0 -1.75,-1.0625 z"
           style="color:#000000;font-style:normal;font-variant:normal;font-weight:normal;font-stretch:normal;font-size:medium;line-height:normal;font-family:Sans;-inkscape-font-specification:Sans;text-indent:0;text-align:start;text-decoration:none;text-decoration-line:none;letter-spacing:normal;word-spacing:normal;text-transform:none;direction:ltr;block-progression:tb;writing-mode:lr-tb;baseline-shift:baseline;text-anchor:start;display:inline;overflow:visible;visibility:visible;fill:#008000;fill-opacity:1;stroke:none;stroke-width:4.30000019;marker:none;enable-background:accumulate" />
        <path
           inkscape:connector-curvature="0"
           id="path4279"
           d="m 560.28125,337.90625 a 2.1502151,2.1502151 0 0 0 -2,2.28125 l 0.5625,9.34375 a 2.1502151,2.1502151 0 1 0 4.28125,-0.25 l -0.53125,-9.34375 a 2.1502151,2.1502151 0 0 0 -2.3125,-2.03125 z"
           style="color:#000000;font-style:normal;font-variant:normal;font-weight:normal;font-stretch:normal;font-size:medium;line-height:normal;font-family:Sans;-inkscape-font-specification:Sans;text-indent:0;text-align:start;text-decoration:none;text-decoration-line:none;letter-spacing:normal;word-spacing:normal;text-transform:none;direction:ltr;block-progression:tb;writing-mode:lr-tb;baseline-shift:baseline;text-anchor:start;display:inline;overflow:visible;visibility:visible;fill:#008000;fill-opacity:1;stroke:none;stroke-width:4.30000019;marker:none;enable-background:accumulate" />
        <path
           inkscape:connector-curvature="0"
           id="path4281"
           d="m 585.8125,353.90625 a 2.1502151,2.1502151 0 0 0 -1.84375,1.15625 l -3.875,7.125 a 2.1535876,2.1535876 0 1 0 3.78125,2.0625 l 3.875,-7.125 a 2.1502151,2.1502151 0 0 0 -1.9375,-3.21875 z"
           style="color:#000000;font-style:normal;font-variant:normal;font-weight:normal;font-stretch:normal;font-size:medium;line-height:normal;font-family:Sans;-inkscape-font-specification:Sans;text-indent:0;text-align:start;text-decoration:none;text-decoration-line:none;letter-spacing:normal;word-spacing:normal;text-transform:none;direction:ltr;block-progression:tb;writing-mode:lr-tb;baseline-shift:baseline;text-anchor:start;display:inline;overflow:visible;visibility:visible;fill:#008000;fill-opacity:1;stroke:none;stroke-width:4.30000019;marker:none;enable-background:accumulate" />
        <path
           inkscape:connector-curvature="0"
           id="path4283"
           d="m 579.03125,387.28125 a 2.1502151,2.1502151 0 0 0 -1.21875,3.78125 l 6.34375,5.53125 a 2.1502151,2.1502151 0 1 0 2.8125,-3.25 L 580.625,387.8125 a 2.1502151,2.1502151 0 0 0 -1.59375,-0.53125 z"
           style="color:#000000;font-style:normal;font-variant:normal;font-weight:normal;font-stretch:normal;font-size:medium;line-height:normal;font-family:Sans;-inkscape-font-specification:Sans;text-indent:0;text-align:start;text-decoration:none;text-decoration-line:none;letter-spacing:normal;word-spacing:normal;text-transform:none;direction:ltr;block-progression:tb;writing-mode:lr-tb;baseline-shift:baseline;text-anchor:start;display:inline;overflow:visible;visibility:visible;fill:#008000;fill-opacity:1;stroke:none;stroke-width:4.30000019;marker:none;enable-background:accumulate" />
        <path
           inkscape:connector-curvature="0"
           id="path4285"
           d="m 560.46875,394.1875 a 2.1502151,2.1502151 0 0 0 -1.875,2.5625 l 1.375,7.1875 a 2.1634842,2.1634842 0 1 0 4.25,-0.8125 l -1.40625,-7.1875 a 2.1502151,2.1502151 0 0 0 -2.34375,-1.75 z"
           style="color:#000000;font-style:normal;font-variant:normal;font-weight:normal;font-stretch:normal;font-size:medium;line-height:normal;font-family:Sans;-inkscape-font-specification:Sans;text-indent:0;text-align:start;text-decoration:none;text-decoration-line:none;letter-spacing:normal;word-spacing:normal;text-transform:none;direction:ltr;block-progression:tb;writing-mode:lr-tb;baseline-shift:baseline;text-anchor:start;display:inline;overflow:visible;visibility:visible;fill:#008000;fill-opacity:1;stroke:none;stroke-width:4.30000019;marker:none;enable-background:accumulate" />
        <path
           inkscape:connector-curvature="0"
           id="path4287"
           d="m 544.96875,385.625 a 2.1502151,2.1502151 0 0 0 -1.40625,0.8125 l -5.5,6.84375 a 2.1502151,2.1502151 0 1 0 3.34375,2.6875 l 5.5,-6.8125 a 2.1502151,2.1502151 0 0 0 -1.9375,-3.53125 z"
           style="color:#000000;font-style:normal;font-variant:normal;font-weight:normal;font-stretch:normal;font-size:medium;line-height:normal;font-family:Sans;-inkscape-font-specification:Sans;text-indent:0;text-align:start;text-decoration:none;text-decoration-line:none;letter-spacing:normal;word-spacing:normal;text-transform:none;direction:ltr;block-progression:tb;writing-mode:lr-tb;baseline-shift:baseline;text-anchor:start;display:inline;overflow:visible;visibility:visible;fill:#008000;fill-opacity:1;stroke:none;stroke-width:4.30000019;marker:none;enable-background:accumulate" />
      </g>
    </g>
    <g
       style="color:#000000;font-style:normal;font-variant:normal;font-weight:bold;font-stretch:normal;font-size:22.80881882px;line-height:125%;font-family:Raleway;-inkscape-font-specification:'Raleway Bold';text-align:start;writing-mode:lr-tb;text-anchor:start;clip-rule:nonzero;display:inline;overflow:visible;visibility:visible;opacity:1;isolation:auto;mix-blend-mode:normal;color-interpolation:sRGB;color-interpolation-filters:linearRGB;solid-color:#000000;solid-opacity:1;fill:#008000;fill-opacity:1;fill-rule:nonzero;stroke:#008000;stroke-width:1.61637294;stroke-linecap:round;stroke-linejoin:round;stroke-miterlimit:4;stroke-dasharray:none;stroke-dashoffset:0;stroke-opacity:1;color-rendering:auto;image-rendering:auto;shape-rendering:auto;text-rendering:auto;enable-background:accumulate"
       id="text75230">
      <path
         d="m 26.94618,987.44888 3.322573,0 0,14.44112 -3.322573,0 0,-14.44112 z"
         style="font-size:19.00734901px;stroke:none"
         id="path3482" />
      <path
         d="m 33.479956,991.49537 3.322574,0 0,10.39463 -3.322574,0 0,-10.39463 z m 0,-4.04649 3.322574,0 0,2.71004 -3.322574,0 0,-2.71004 z"
         style="font-size:19.00734901px;stroke:none"
         id="path3484" />
      <path
         d="m 45.545168,999.74612 q 1.067307,0 1.624163,-0.7796 0.566137,-0.7796 0.566137,-2.26455 0,-1.48495 -0.566137,-2.26454 -0.556856,-0.7796 -1.624163,-0.7796 -1.067308,0 -1.642725,0.78888 -0.566137,0.7796 -0.566137,2.25526 0,1.47567 0.566137,2.26455 0.575417,0.7796 1.642725,0.7796 z m -2.208862,-6.72868 q 0.686789,-0.90953 1.522073,-1.33645 0.835284,-0.4362 1.921153,-0.4362 1.921153,0 3.155517,1.53135 1.234364,1.52207 1.234364,3.92583 0,2.40377 -1.234364,3.93513 -1.234364,1.5221 -3.155517,1.5221 -1.085869,0 -1.921153,-0.427 -0.835284,-0.4362 -1.522073,-1.3457 l 0,1.5035 -3.322574,0 0,-14.44112 3.322574,0 0,5.56856 z"
         style="font-size:19.00734901px;stroke:none"
         id="path3486" />
      <path
         d="m 61.359876,994.32605 q -0.436203,-0.20418 -0.872407,-0.29698 -0.426923,-0.1021 -0.863127,-0.1021 -1.280769,0 -1.976838,0.82601 -0.686789,0.81672 -0.686789,2.34807 l 0,4.78895 -3.322574,0 0,-10.39463 3.322574,0 0,1.70769 q 0.640384,-1.0209 1.466387,-1.48495 0.835284,-0.47332 1.9954,-0.47332 0.167057,0 0.361957,0.0186 0.194899,0.009 0.566136,0.0557 l 0.0093,3.00702 z"
         style="font-size:19.00734901px;stroke:none"
         id="path3488" />
      <path
         d="m 73.406528,996.66485 0,0.94665 -7.76814,0 q 0.120652,1.1694 0.844565,1.7541 0.723913,0.5847 2.023243,0.5847 1.048746,0 2.143896,-0.30627 1.10443,-0.31555 2.264547,-0.94666 l 0,2.56153 q -1.178678,0.4455 -2.357357,0.6682 -1.178678,0.2321 -2.357357,0.2321 -2.821403,0 -4.38988,-1.4293 -1.559197,-1.43855 -1.559197,-4.02793 0,-2.54297 1.531354,-4.00008 1.540634,-1.4571 4.232105,-1.4571 2.450166,0 3.916553,1.47566 1.475668,1.47567 1.475668,3.9444 z m -3.415383,-1.10443 q 0,-0.94666 -0.556856,-1.52207 -0.547575,-0.5847 -1.438544,-0.5847 -0.965217,0 -1.568478,0.54757 -0.60326,0.5383 -0.751755,1.5592 l 4.315633,0 z"
         style="font-size:19.00734901px;stroke:none"
         id="path3490" />
      <path
         d="m 80.859114,993.6207 q -1.104431,0 -1.689129,0.79816 -0.575418,0.78888 -0.575418,2.28311 0,1.49423 0.575418,2.29239 0.584698,0.78888 1.689129,0.78888 1.085869,0 1.661287,-0.78888 0.575418,-0.79816 0.575418,-2.29239 0,-1.49423 -0.575418,-2.28311 -0.575418,-0.79816 -1.661287,-0.79816 z m 0,-2.37591 q 2.68219,0 4.185701,1.44782 1.512792,1.44783 1.512792,4.00936 0,2.56154 -1.512792,4.00933 -1.503511,1.4479 -4.185701,1.4479 -2.69147,0 -4.213543,-1.4479 -1.512792,-1.44779 -1.512792,-4.00933 0,-2.56153 1.512792,-4.00936 1.522073,-1.44782 4.213543,-1.44782 z"
         style="font-size:19.00734901px;stroke:none"
         id="path3492" />
      <path
         d="m 94.511368,999.74612 q 1.067307,0 1.624163,-0.7796 0.566137,-0.7796 0.566137,-2.26455 0,-1.48495 -0.566137,-2.26454 -0.556856,-0.7796 -1.624163,-0.7796 -1.067308,0 -1.642725,0.78888 -0.566137,0.7796 -0.566137,2.25526 0,1.47567 0.566137,2.26455 0.575417,0.7796 1.642725,0.7796 z m -2.208862,-6.72868 q 0.686789,-0.90953 1.522073,-1.33645 0.835283,-0.4362 1.921153,-0.4362 1.921152,0 3.155516,1.53135 1.234362,1.52207 1.234362,3.92583 0,2.40377 -1.234362,3.93513 -1.234364,1.5221 -3.155516,1.5221 -1.08587,0 -1.921153,-0.427 -0.835284,-0.4362 -1.522073,-1.3457 l 0,1.5035 -3.322574,0 0,-14.44112 3.322574,0 0,5.56856 z"
         style="font-size:19.00734901px;stroke:none"
         id="path3494" />
      <path
         d="m 102.60434,991.49537 3.32257,0 0,10.20903 q 0,2.0882 -1.00234,3.1834 -1.00234,1.1044 -2.90493,1.1044 l -1.64273,0 0,-2.181 0.57542,0 q 0.94666,0 1.29933,-0.427 0.35268,-0.4269 0.35268,-1.6798 l 0,-10.20903 z m 0,-4.04649 3.32257,0 0,2.71004 -3.32257,0 0,-2.71004 z"
         style="font-size:19.00734901px;stroke:none"
         id="path3496" />
      <path
         d="m 119.5142,996.66485 0,0.94665 -7.76814,0 q 0.12065,1.1694 0.84457,1.7541 0.72391,0.5847 2.02324,0.5847 1.04875,0 2.1439,-0.30627 1.10443,-0.31555 2.26454,-0.94666 l 0,2.56153 q -1.17868,0.4455 -2.35735,0.6682 -1.17868,0.2321 -2.35736,0.2321 -2.8214,0 -4.38988,-1.4293 -1.5592,-1.43855 -1.5592,-4.02793 0,-2.54297 1.53136,-4.00008 1.54063,-1.4571 4.2321,-1.4571 2.45017,0 3.91655,1.47566 1.47567,1.47567 1.47567,3.9444 z m -3.41538,-1.10443 q 0,-0.94666 -0.55686,-1.52207 -0.54757,-0.5847 -1.43854,-0.5847 -0.96522,0 -1.56848,0.54757 -0.60326,0.5383 -0.75175,1.5592 l 4.31563,0 z"
         style="font-size:19.00734901px;stroke:none"
         id="path3498" />
      <path
         d="m 125.64889,988.54403 0,2.95134 3.42467,0 0,2.37592 -3.42467,0 0,4.40844 q 0,0.72391 0.28771,0.98378 0.28771,0.25059 1.14156,0.25059 l 1.70769,0 0,2.3759 -2.84925,0 q -1.96756,0 -2.79356,-0.8167 -0.81672,-0.826 -0.81672,-2.79357 l 0,-4.40844 -1.65201,0 0,-2.37592 1.65201,0 0,-2.95134 3.32257,0 z"
         style="font-size:19.00734901px;stroke:none"
         id="path3500" />
      <path
         d="m 131.45876,998.29829 3.34113,0 0,3.59171 -3.34113,0 0,-3.59171 z"
         style="font-size:19.00734901px;stroke:none"
         id="path3502" />
      <path
         d="m 143.30123,993.6207 q -1.10443,0 -1.68913,0.79816 -0.57542,0.78888 -0.57542,2.28311 0,1.49423 0.57542,2.29239 0.5847,0.78888 1.68913,0.78888 1.08587,0 1.66128,-0.78888 0.57542,-0.79816 0.57542,-2.29239 0,-1.49423 -0.57542,-2.28311 -0.57541,-0.79816 -1.66128,-0.79816 z m 0,-2.37591 q 2.68219,0 4.1857,1.44782 1.51279,1.44783 1.51279,4.00936 0,2.56154 -1.51279,4.00933 -1.50351,1.4479 -4.1857,1.4479 -2.69147,0 -4.21355,-1.4479 -1.51279,-1.44779 -1.51279,-4.00933 0,-2.56153 1.51279,-4.00936 1.52208,-1.44782 4.21355,-1.44782 z"
         style="font-size:19.00734901px;stroke:none"
         id="path3504" />
      <path
         d="m 159.14378,994.32605 q -0.43621,-0.20418 -0.87241,-0.29698 -0.42692,-0.1021 -0.86313,-0.1021 -1.28077,0 -1.97684,0.82601 -0.68679,0.81672 -0.68679,2.34807 l 0,4.78895 -3.32257,0 0,-10.39463 3.32257,0 0,1.70769 q 0.64039,-1.0209 1.46639,-1.48495 0.83529,-0.47332 1.9954,-0.47332 0.16706,0 0.36196,0.0186 0.1949,0.009 0.56613,0.0557 l 0.009,3.00702 z"
         style="font-size:19.00734901px;stroke:none"
         id="path3506" />
      <path
         d="m 167.88641,1000.1266 q -0.68679,0.9096 -1.51279,1.3365 -0.826,0.4269 -1.91187,0.4269 -1.90259,0 -3.14624,-1.4942 -1.24364,-1.50353 -1.24364,-3.82376 0,-2.32951 1.24364,-3.81446 1.24365,-1.49423 3.14624,-1.49423 1.08587,0 1.91187,0.42692 0.826,0.42692 1.51279,1.34574 l 0,-1.54064 3.34114,0 0,9.34593 q 0,2.5058 -1.58704,3.8237 -1.57776,1.3272 -4.58478,1.3272 -0.9745,0 -1.88403,-0.1485 -0.90953,-0.1485 -1.82834,-0.4548 l 0,-2.5894 q 0.8724,0.5012 1.70769,0.7425 0.83528,0.2506 1.67985,0.2506 1.63344,0 2.39448,-0.7146 0.76103,-0.7147 0.76103,-2.2367 l 0,-0.7147 z m -2.1903,-6.46877 q -1.03018,0 -1.6056,0.76103 -0.57542,0.76104 -0.57542,2.15318 0,1.42926 0.55686,2.17174 0.55686,0.73319 1.62416,0.73319 1.03947,0 1.61489,-0.76103 0.57541,-0.76104 0.57541,-2.1439 0,-1.39214 -0.57541,-2.15318 -0.57542,-0.76103 -1.61489,-0.76103 z"
         style="font-size:19.00734901px;stroke:none"
         id="path3508" />
      <path
         d="m 38.083298,1024.8882 q -0.983779,0.5104 -2.051086,0.7703 -1.067307,0.2598 -2.227424,0.2598 -3.461787,0 -5.48503,-1.9304 -2.023244,-1.9397 -2.023244,-5.253 0,-3.3226 2.023244,-5.253 2.023243,-1.9397 5.48503,-1.9397 1.160117,0 2.227424,0.2599 1.067307,0.2598 2.051086,0.7703 l 0,2.8678 q -0.99306,-0.6775 -1.958277,-0.9931 -0.965216,-0.3155 -2.032524,-0.3155 -1.911872,0 -3.007022,1.225 -1.09515,1.2251 -1.09515,3.3783 0,2.1439 1.09515,3.369 1.09515,1.2251 3.007022,1.2251 1.067308,0 2.032524,-0.3156 0.965217,-0.3155 1.958277,-0.993 l 0,2.8678 z"
         style="font-size:19.00734901px;stroke:none"
         id="path3510" />
      <path
         d="m 41.053196,1011.7928 9.642889,0 0,2.7007 -6.06973,0 0,2.5801 5.707773,0 0,2.7008 -5.707773,0 0,3.174 6.27391,0 0,2.7008 -9.847069,0 0,-13.8564 z"
         style="font-size:19.00734901px;stroke:none"
         id="path3512" />
      <path
         d="m 59.123172,1017.9367 q 1.122993,0 1.605602,-0.4176 0.491889,-0.4176 0.491889,-1.3736 0,-0.9466 -0.491889,-1.355 -0.482609,-0.4084 -1.605602,-0.4084 l -1.503511,0 0,3.5546 1.503511,0 z m -1.503511,2.4688 0,5.2437 -3.573159,0 0,-13.8564 5.457189,0 q 2.737875,0 4.009362,0.9188 1.280769,0.9188 1.280769,2.9049 0,1.3736 -0.668227,2.2553 -0.658946,0.8817 -1.995401,1.2993 0.733194,0.1671 1.308612,0.761 0.584699,0.5847 1.178678,1.782 l 1.939715,3.9351 -3.805182,0 -1.68913,-3.4432 q -0.510451,-1.0395 -1.039464,-1.42 -0.519732,-0.3805 -1.39214,-0.3805 l -1.011622,0 z"
         style="font-size:19.00734901px;stroke:none"
         id="path3514" />
      <path
         d="m 68.67325,1011.7928 3.9908,0 5.039547,9.5036 0,-9.5036 3.38754,0 0,13.8564 -3.990801,0 -5.039546,-9.5037 0,9.5037 -3.38754,0 0,-13.8564 z"
         style="font-size:19.00734901px;stroke:none"
         id="path3516" />
      <path
         d="m 97.536949,1014.1316 q -1.633444,0 -2.533695,1.2065 -0.90025,1.2065 -0.90025,3.3968 0,2.181 0.90025,3.3875 0.900251,1.2066 2.533695,1.2066 1.642725,0 2.542971,-1.2066 0.90025,-1.2065 0.90025,-3.3875 0,-2.1903 -0.90025,-3.3968 -0.900246,-1.2065 -2.542971,-1.2065 z m 0,-2.5894 q 3.341131,0 5.234441,1.9119 1.89331,1.9118 1.89331,5.2808 0,3.3597 -1.89331,5.2716 -1.89331,1.9118 -5.234441,1.9118 -3.331855,0 -5.234446,-1.9118 -1.89331,-1.9119 -1.89331,-5.2716 0,-3.369 1.89331,-5.2808 1.902591,-1.9119 5.234446,-1.9119 z"
         style="font-size:19.00734901px;stroke:none"
         id="path3518" />
      <path
         d="m 107.35618,1011.7928 3.57316,0 0,5.2808 5.27157,0 0,-5.2808 3.57316,0 0,13.8564 -3.57316,0 0,-5.8748 -5.27157,0 0,5.8748 -3.57316,0 0,-13.8564 z"
         style="font-size:19.00734901px;stroke:none"
         id="path3520" />
      <path
         d="m 123.28226,1011.7928 3.57316,0 0,11.1556 6.27391,0 0,2.7008 -9.84707,0 0,-13.8564 z"
         style="font-size:19.00734901px;stroke:none"
         id="path3522" />
    </g>
    <circle
       cy="788.9939"
       cx="67.854332"
       id="circle75172"
       style="color:#000000;clip-rule:nonzero;display:inline;overflow:visible;visibility:visible;opacity:1;isolation:auto;mix-blend-mode:normal;color-interpolation:sRGB;color-interpolation-filters:linearRGB;solid-color:#000000;solid-opacity:1;fill:#cccccc;fill-opacity:1;fill-rule:nonzero;stroke:none;stroke-width:1.40660584;stroke-linecap:round;stroke-linejoin:round;stroke-miterlimit:4;stroke-dasharray:none;stroke-dashoffset:0;stroke-opacity:1;color-rendering:auto;image-rendering:auto;shape-rendering:auto;text-rendering:auto;enable-background:accumulate"
       r="17.716536" />
    <circle
       cy="788.9939"
       cx="375.05905"
       id="circle75172-0"
       style="color:#000000;clip-rule:nonzero;display:inline;overflow:visible;visibility:visible;opacity:1;isolation:auto;mix-blend-mode:normal;color-interpolation:sRGB;color-interpolation-filters:linearRGB;solid-color:#000000;solid-opacity:1;fill:#cccccc;fill-opacity:1;fill-rule:nonzero;stroke:none;stroke-width:1.40660584;stroke-linecap:round;stroke-linejoin:round;stroke-miterlimit:4;stroke-dasharray:none;stroke-dashoffset:0;stroke-opacity:1;color-rendering:auto;image-rendering:auto;shape-rendering:auto;text-rendering:auto;enable-background:accumulate"
       r="17.716536" />
  </g>
  <g
     inkscape:groupmode="layer"
     id="layer2"
     inkscape:label="Calque 2"
     style="display:inline"
     transform="translate(0,92.125984)">
    <circle
       cy="-43.683266"
       cx="67.854332"
       id="circle75172-2"
       style="color:#000000;clip-rule:nonzero;display:inline;overflow:visible;visibility:visible;opacity:1;isolation:auto;mix-blend-mode:normal;color-interpolation:sRGB;color-interpolation-filters:linearRGB;solid-color:#000000;solid-opacity:1;fill:#cccccc;fill-opacity:1;fill-rule:nonzero;stroke:none;stroke-width:1.40660584;stroke-linecap:round;stroke-linejoin:round;stroke-miterlimit:4;stroke-dasharray:none;stroke-dashoffset:0;stroke-opacity:1;color-rendering:auto;image-rendering:auto;shape-rendering:auto;text-rendering:auto;enable-background:accumulate"
       r="17.716536" />
    <circle
       cy="-43.683266"
       cx="375.05905"
       id="circle75172-0-5"
       style="color:#000000;clip-rule:nonzero;display:inline;overflow:visible;visibility:visible;opacity:1;isolation:auto;mix-blend-mode:normal;color-interpolation:sRGB;color-interpolation-filters:linearRGB;solid-color:#000000;solid-opacity:1;fill:#cccccc;fill-opacity:1;fill-rule:nonzero;stroke:none;stroke-width:1.40660584;stroke-linecap:round;stroke-linejoin:round;stroke-miterlimit:4;stroke-dasharray:none;stroke-dashoffset:0;stroke-opacity:1;color-rendering:auto;image-rendering:auto;shape-rendering:auto;text-rendering:auto;enable-background:accumulate"
       r="17.716536" />
  </g>
</svg>
