<?xml version="1.0" standalone="no"?>
<!DOCTYPE svg PUBLIC "-//W3C//DTD SVG 1.1//EN" "http://www.w3.org/Graphics/SVG/1.1/DTD/svg11.dtd" >
<svg xmlns="http://www.w3.org/2000/svg">
<metadata></metadata>
<defs>
<font id="cousinebold_italic" horiz-adv-x="1229" >
<font-face units-per-em="2048" ascent="1638" descent="-410" />
<missing-glyph horiz-adv-x="500" />
<glyph unicode="&#xd;" />
<glyph unicode=" " />
<glyph unicode="!" d="M708 426h-230l147 923h294zM363 0l52 270h288l-52 -270h-288z" />
<glyph unicode="&#x22;" d="M1001 844h-199l88 641h275zM545 844h-199l88 641h273z" />
<glyph unicode="#" d="M1008 835l-132 -324h237l-29 -149h-270l-148 -362h-155l149 362h-309l-148 -362h-153l148 362h-174l29 149h206l133 324h-227l29 148h259l150 366h153l-149 -366h308l150 366h153l-149 -366h185l-29 -148h-217zM545 835l-133 -324h309l133 324h-309z" />
<glyph unicode="$" d="M533 -171h-109l33 172q-213 8 -315 101.5t-102 286.5l265 47v-11q0 -109 46.5 -158t145.5 -59l76 391q-2 2 -13.5 4.5t-15.5 2.5q-191 46 -268 122t-77 192q0 86 32.5 170t99.5 145t166 94t226 38l26 134h109l-26 -134q194 -7 284 -87.5t99 -262.5l-272 -39v7 q0 165 -149 186l-69 -352l21 -4q165 -41 237 -82t111 -101t39 -147q0 -94 -37 -185.5t-108 -155t-176 -99t-245 -41.5zM685 1175q-185 -14 -214 -160l-4 -38q0 -32 13 -53t35.5 -36t105.5 -45zM867 428q0 36 -15 59t-41 39t-60 26.5t-73 22.5l-72 -367q86 6 145 34 t87.5 78.5t28.5 107.5z" />
<glyph unicode="%" d="M131 0h-175l1195 1353h177zM451 1361q229 0 229 -220q0 -79 -23.5 -168.5t-71.5 -155.5t-114.5 -99.5t-155.5 -33.5q-233 0 -233 228q0 76 24.5 168.5t72 156.5t114 94t158.5 30zM503 1123q0 57 -21 80t-60 23q-50 0 -84.5 -36t-56.5 -118t-22 -141q0 -107 85 -107 q45 0 80.5 37.5t57 117.5t21.5 144zM971 665q230 0 230 -221q0 -114 -43 -226t-124.5 -171t-197.5 -59q-233 0 -233 228q0 76 24.5 167.5t71 155.5t113 95t159.5 31zM1024 427q0 57 -21 80t-60 23q-50 0 -84.5 -36t-56.5 -118t-22 -141q0 -107 85 -107q45 0 80.5 37.5 t57 117.5t21.5 144z" />
<glyph unicode="&#x26;" d="M372 779q-27 87 -27 179q0 113 49.5 206t148.5 143t232 50t210.5 -60t77.5 -165q0 -86 -43.5 -157t-134.5 -135t-266 -138q64 -170 156 -302q107 153 171 324l198 -27q-89 -238 -239 -435q69 -73 155 -73q56 0 96 17l-38 -196q-42 -21 -99 -21q-163 0 -278 115 q-184 -123 -383 -123q-185 0 -281 75.5t-96 218.5q0 159 103.5 291t287.5 213zM612 239q-127 182 -192 360q-88 -45 -139 -118.5t-51 -160.5q0 -76 45.5 -116.5t128.5 -40.5q103 0 208 76zM845 1102q0 42 -25.5 67.5t-78.5 25.5q-85 0 -135 -56.5t-50 -152.5q0 -66 21 -127 q157 66 212.5 120.5t55.5 122.5z" />
<glyph unicode="'" d="M773 844h-199l88 641h273z" />
<glyph unicode="(" d="M453 -425q-148 296 -148 606q0 206 58.5 449.5t169.5 447.5t291 406h281q-185 -211 -296 -414.5t-168 -437.5t-57 -439q0 -310 150 -618h-281z" />
<glyph unicode=")" d="M119 -425q189 214 299 417t166.5 437t56.5 437q0 162 -37 312t-114 306h281q149 -298 149 -604q0 -200 -56.5 -442t-167 -448.5t-296.5 -414.5h-281z" />
<glyph unicode="*" d="M836 1209l255 104l30 -197l-262 -61l145 -213l-208 -121l-97 252l-198 -252l-162 123l231 211l-238 61l106 197l219 -104l35 274h215z" />
<glyph unicode="+" d="M726 569v-408h-226v408h-399v224h399v408h226v-408h402v-224h-402z" />
<glyph unicode="," d="M82 -363l298 662h315l-440 -662h-173z" />
<glyph unicode="-" d="M299 409l47 244h580l-47 -244h-580z" />
<glyph unicode="." d="M365 0l59 305h289l-59 -305h-289z" />
<glyph unicode="/" d="M-20 -20l1113 1504h228l-1109 -1504h-232z" />
<glyph unicode="0" d="M502 -20q-191 0 -289.5 108.5t-98.5 319.5q0 155 48.5 356t132.5 337.5t202 202.5t283 66q388 0 388 -418q0 -153 -47 -351t-135 -339.5t-210 -211.5t-274 -70zM891 963q0 96 -37.5 141.5t-117.5 45.5q-115 0 -181 -90.5t-116 -312t-50 -354.5q0 -105 41 -148.5 t117 -43.5q112 0 180.5 99t116 318.5t47.5 344.5zM511 555l48 249h215l-48 -249h-215z" />
<glyph unicode="1" d="M44 0l41 209h389l173 891q-56 -83 -183.5 -138.5t-254.5 -55.5l42 214q140 0 261.5 61.5t197.5 167.5h266l-221 -1140h323l-41 -209h-993z" />
<glyph unicode="2" d="M18 0l38 195q155 235 504 475q188 129 260.5 204t72.5 153q0 56 -39.5 87.5t-118.5 31.5q-90 0 -147 -48.5t-90 -145.5l-280 16q61 195 204 298.5t354 103.5q191 0 299.5 -79t108.5 -217q0 -134 -93 -253t-270 -240q-227 -154 -306 -218.5t-120 -131.5h654l-45 -231h-986 z" />
<glyph unicode="3" d="M506 -23q-216 0 -331.5 89t-115.5 263q0 29 1 39l290 25v-17q0 -171 199 -171q77 0 137 29t93 83t33 111q0 69 -64 106.5t-185 37.5h-98l44 227h92q136 0 213.5 58t77.5 152q0 62 -44 99.5t-126 37.5q-189 0 -239 -169l-277 20q56 180 205 276.5t359 96.5 q197 0 307 -77.5t110 -216.5q0 -87 -42.5 -168.5t-126.5 -136t-200 -76.5l-1 -4q137 -17 209.5 -83.5t72.5 -172.5q0 -81 -43 -172.5t-120 -154t-186 -97t-244 -34.5z" />
<glyph unicode="4" d="M931 287l-56 -287h-268l56 287h-641l41 211l760 851h314l-166 -853h188l-40 -209h-188zM831 1105q-8 -13 -41.5 -56.5t-55.5 -71t-436 -481.5h405l90 456q30 130 38 153z" />
<glyph unicode="5" d="M492 -20q-205 0 -315 91.5t-110 264.5v16l286 23q5 -172 185 -172q84 0 148 39.5t100 114t36 149.5q0 79 -47.5 125t-137.5 46q-118 0 -209 -91h-274l197 763h847l-40 -209h-592l-87 -326q122 90 273 90q173 0 269 -91.5t96 -250.5q0 -156 -80.5 -294t-223 -213 t-321.5 -75z" />
<glyph unicode="6" d="M532 -20q-195 0 -300 119.5t-105 342.5q0 157 50.5 346t139 320.5t211.5 196.5t281 65q180 0 267.5 -79t98.5 -245l-272 -37q-5 74 -44.5 106.5t-98.5 32.5q-114 0 -199 -108.5t-126 -317.5q60 75 147.5 115t188.5 40q158 0 247.5 -86t89.5 -237q0 -107 -42.5 -218.5 t-118 -190t-181 -122t-234.5 -43.5zM820 503q0 76 -42 121.5t-128 45.5q-70 0 -128.5 -35t-90.5 -94.5t-32 -142.5q0 -89 44.5 -144t122.5 -55q72 0 129.5 40t91 113t33.5 151z" />
<glyph unicode="7" d="M524 0h-293q51 261 222 532t490 586h-700l45 231h961l-43 -223q-319 -343 -475 -605t-207 -521z" />
<glyph unicode="8" d="M506 -20q-210 0 -323.5 82t-113.5 234q0 102 45.5 189.5t129 146.5t184.5 75l1 4q-98 23 -149.5 89t-51.5 153q0 110 68 209.5t191.5 153.5t284.5 54q198 0 305 -73.5t107 -210.5t-92.5 -242t-228.5 -131l-1 -4q110 -17 172 -84.5t62 -170.5q0 -124 -72 -238t-206 -175 t-312 -61zM889 1047q0 126 -155 126q-71 0 -121 -29t-75.5 -84t-25.5 -117q0 -135 153 -135q76 0 128.5 33t74 95t21.5 111zM809 460q0 151 -186 151q-81 0 -139.5 -35.5t-89 -103t-30.5 -139.5q0 -155 183 -155q86 0 144.5 36.5t88 109t29.5 136.5z" />
<glyph unicode="9" d="M471 -20q-186 0 -276.5 80t-100.5 251l272 37q10 -147 151 -147q113 0 199.5 105t128.5 313q-53 -74 -146.5 -117t-195.5 -43q-152 0 -240.5 88.5t-88.5 246.5q0 114 41.5 223.5t120.5 189.5t189.5 121.5t241.5 41.5q396 0 396 -425q0 -159 -51 -354.5t-142 -333 t-217 -207.5t-282 -70zM883 955q0 91 -44 143t-121 52q-70 0 -128 -40t-92 -113t-34 -152q0 -83 43.5 -130t117.5 -47q108 0 183 79t75 208z" />
<glyph unicode=":" d="M365 0l59 305h289l-59 -305h-289zM517 780l59 305h289l-59 -305h-289z" />
<glyph unicode=";" d="M526 780l59 305h289l-59 -305h-289zM150 -363l298 662h315l-440 -662h-173z" />
<glyph unicode="&#x3c;" d="M101 516v322l1027 391v-228l-833 -325l833 -324v-227z" />
<glyph unicode="=" d="M101 842v223h1027v-223h-1027zM101 291v221h1027v-221h-1027z" />
<glyph unicode="&#x3e;" d="M101 125v227l832 324l-832 325v228l1027 -391v-322z" />
<glyph unicode="?" d="M667 406h-267q15 59 40.5 106t61 87.5t79.5 74t175 118.5q84 53 122.5 104t38.5 109q0 60 -48.5 99.5t-142.5 39.5q-101 0 -180.5 -58.5t-110.5 -156.5l-283 12q66 203 228 316t386 113q205 0 323 -82.5t118 -229.5q0 -124 -71 -218.5t-205 -175.5q-128 -77 -188 -134 t-76 -124zM313 0l52 270h289l-52 -270h-289z" />
<glyph unicode="@" d="M799 104q-117 0 -117 108q0 26 5 49l11 48h-6q-51 -90 -125.5 -147.5t-149.5 -57.5q-81 0 -123.5 59.5t-42.5 172.5q0 167 76.5 355.5t191.5 299t234 110.5q63 0 96.5 -40t33.5 -115v-18h5l63 151h135l-198 -507q-61 -159 -79 -219.5t-18 -88.5q0 -25 11 -31.5t28 -6.5 q65 0 129.5 109t112.5 297t48 326q0 188 -76 294t-215 106q-134 0 -254.5 -88t-214.5 -246t-152 -369.5t-58 -379.5q0 -203 83 -316.5t236 -113.5q92 0 186 35t214 123l52 -97q-140 -102 -255.5 -145.5t-231.5 -43.5q-203 0 -313 142t-110 390q0 195 69.5 438t185.5 422.5 t267.5 277t321.5 97.5q192 0 296 -131.5t104 -365.5q0 -185 -67 -408.5t-170.5 -349t-218.5 -125.5zM812 873q0 106 -81 106q-72 0 -148 -99.5t-127.5 -259.5t-51.5 -281q0 -109 62 -109q48 0 96.5 42.5t96 126.5t102 242t51.5 232z" />
<glyph unicode="A" d="M1124 0h-294l-28 330h-456l-156 -330h-295l705 1349h344zM737 1167q-16 -41 -46.5 -109t-239.5 -506h332l-34 380l-11 200z" />
<glyph unicode="B" d="M614 0h-582l262 1349h525q187 0 286 -65.5t99 -195.5q0 -143 -86 -244.5t-249 -134.5q145 -16 219.5 -81.5t74.5 -174.5q0 -80 -36 -166.5t-109.5 -152.5t-176.5 -100t-227 -34zM897 1017q0 113 -141 113h-209l-62 -319h211q164 0 196 159q5 28 5 47zM869 457 q0 66 -45 101t-132 35h-250l-72 -374h257q78 0 131.5 30t82 88t28.5 120z" />
<glyph unicode="C" d="M386 486q0 -274 209 -274q164 0 288 244l263 -52q-218 -424 -599 -424q-230 0 -347 118.5t-117 350.5q0 108 24 232q136 689 702 689q375 0 421 -389l-285 -66q-9 107 -55 165t-122 58q-117 0 -200.5 -85.5t-132.5 -254.5t-49 -312z" />
<glyph unicode="D" d="M451 0h-421l262 1349h361q546 0 546 -460q0 -155 -54 -333.5t-151.5 -303t-235.5 -188.5t-307 -64zM898 849q0 144 -73.5 208t-220.5 64h-61l-174 -893h102q319 0 409 457q18 93 18 164z" />
<glyph unicode="E" d="M32 0l262 1349h968l-44 -228h-673l-63 -324h612l-44 -228h-612l-67 -341h714l-44 -228h-1009z" />
<glyph unicode="F" d="M575 1121l-75 -384h621l-44 -228h-621l-99 -509h-295l262 1349h939l-44 -228h-644z" />
<glyph unicode="G" d="M526 -20q-216 0 -329 125.5t-113 354.5q0 161 54.5 351.5t144.5 313t219 184t297 61.5q179 0 275 -92t114 -283l-284 -54q-16 197 -147 197q-117 0 -195.5 -80.5t-127.5 -257.5t-49 -317q0 -267 202 -267q55 0 118 21.5t104 52.5l46 235h-274l42 218h544l-108 -558 q-282 -205 -533 -205z" />
<glyph unicode="H" d="M691 0l112 574h-363l-112 -574h-295l262 1349h295l-103 -531h363l103 531h295l-262 -1349h-295z" />
<glyph unicode="I" d="M314 1349h916l-44 -228h-316l-174 -893h316l-44 -228h-916l44 228h316l174 893h-316z" />
<glyph unicode="J" d="M455 -20q-190 0 -285.5 101.5t-95.5 288.5l1 32l299 43v-19q0 -104 32.5 -159.5t95.5 -55.5q73 0 127.5 59t75.5 169l132 679h-301l45 231h595l-175 -903q-43 -218 -188.5 -342t-357.5 -124z" />
<glyph unicode="K" d="M776 0l-215 557l-154 -142l-81 -415h-295l262 1349h295l-116 -599l552 599h343l-572 -579l329 -770h-348z" />
<glyph unicode="L" d="M106 0l262 1349h295l-218 -1121h616l-44 -228h-911z" />
<glyph unicode="M" d="M803 0l169 868q10 51 35 151.5t39 149.5q-108 -272 -141 -341l-215 -468h-218l-35 468q-7 100 -10 341q-28 -220 -44 -301l-169 -868h-220l262 1349h347l38 -499l2 -47q0 -43 -9 -184q51 149 85 230l233 500h335l-262 -1349h-222z" />
<glyph unicode="N" d="M643 0l-188 1010l-12 -138q-18 -164 -28 -216l-128 -656h-257l262 1349h337l192 -1037q18 239 43 365l130 672h257l-262 -1349h-346z" />
<glyph unicode="O" d="M506 -20q-213 0 -322.5 115.5t-109.5 344.5q0 164 51.5 353.5t141.5 317t218.5 193.5t290.5 66q212 0 322.5 -113t110.5 -340q0 -164 -52 -354.5t-143.5 -320t-219.5 -196t-288 -66.5zM909 892q0 246 -178 246q-107 0 -184.5 -89t-125 -267t-47.5 -316q0 -254 177 -254 q106 0 184 91.5t126 270t48 318.5z" />
<glyph unicode="P" d="M616 476h-197l-93 -476h-295l262 1349h480q223 0 338.5 -82t115.5 -241q0 -106 -44.5 -212.5t-123 -181t-191 -115.5t-252.5 -41zM924 973q0 79 -57.5 113t-170.5 34h-152l-81 -417h160q254 0 295 215q6 30 6 55z" />
<glyph unicode="Q" d="M674 0q15 -94 68.5 -140t161.5 -46q44 0 125 13l-39 -202q-133 -28 -247 -28q-163 0 -253 92t-114 304q-302 64 -302 446q0 165 51.5 354t141 316.5t217.5 194t292 66.5q212 0 322.5 -113t110.5 -340q0 -190 -65.5 -401.5t-184 -341.5t-285.5 -174zM909 892 q0 246 -178 246q-107 0 -184.5 -89t-125 -267t-47.5 -316q0 -254 177 -254q106 0 184 91.5t126 270t48 318.5z" />
<glyph unicode="R" d="M790 0l-190 515h-173l-100 -515h-295l262 1349h494q230 0 344 -78.5t114 -227.5q0 -70 -22.5 -145.5t-69.5 -138.5t-117 -109.5t-151 -68.5l236 -581h-332zM942 983q0 76 -59.5 106.5t-169.5 30.5h-168l-73 -376h176q252 0 289 193z" />
<glyph unicode="S" d="M502 -20q-235 0 -363.5 99t-134.5 288l293 37q5 -94 67 -148.5t189 -54.5q99 0 163.5 23.5t98.5 72t34 106.5q0 106 -194 157q-223 57 -303 100.5t-124 105.5t-44 148q0 89 38 172.5t118 148.5t192.5 100t243.5 35q224 0 333 -88.5t110 -274.5l-292 -29q-8 183 -197 183 q-81 0 -137 -22.5t-85 -66.5t-29 -93q0 -40 23.5 -67t64 -46.5t167.5 -53.5q169 -45 250.5 -91t120.5 -109.5t39 -142.5q0 -132 -78 -248t-223.5 -178.5t-340.5 -62.5z" />
<glyph unicode="T" d="M875 1121l-218 -1121h-295l218 1121h-406l44 228h1107l-44 -228h-406z" />
<glyph unicode="U" d="M490 -20q-199 0 -292 85.5t-93 264.5q0 88 22 198l159 821h295l-159 -818q-19 -95 -19 -164q0 -85 34 -120.5t106 -35.5q103 0 165 75.5t97 254.5l157 808h295l-156 -806q-57 -286 -206.5 -424.5t-404.5 -138.5z" />
<glyph unicode="V" d="M661 0h-299l-202 1349h308l83 -775q16 -147 22 -266q73 165 124 266l382 775h305z" />
<glyph unicode="W" d="M913 0h-248l-15 312q-5 59 -15 324q-3 -6 -281 -636h-248l51 1349h259l-46 -695q-4 -84 -36 -266q32 88 103 244l165 339h195q20 -205 31.5 -320t8.5 -217v-46l8 27q39 165 62 239l219 695h259z" />
<glyph unicode="X" d="M814 0l-207 493l-400 -493h-312l597 711l-294 638h312l180 -430l345 430h310l-552 -638l331 -711h-310z" />
<glyph unicode="Y" d="M656 0h-294l108 556l-310 793h309l190 -566l414 566h309l-618 -793z" />
<glyph unicode="Z" d="M1033 0h-1051l41 209l847 909h-595l45 231h934l-40 -205l-848 -913h712z" />
<glyph unicode="[" d="M185 -425l371 1909h602l-36 -190h-336l-297 -1528h336l-38 -191h-602z" />
<glyph unicode="\" d="M799 -20l-525 1504h228l529 -1504h-232z" />
<glyph unicode="]" d="M66 -425l38 191h336l297 1528h-336l36 190h602l-371 -1909h-602z" />
<glyph unicode="^" d="M917 514l-180 752l-470 -752h-227l565 895h322l219 -895h-229z" />
<glyph unicode="_" d="M-153 -220l19 96h1238l-19 -96h-1238z" />
<glyph unicode="`" d="M812 1184l-295 231l8 43h258l205 -243l-6 -31h-170z" />
<glyph unicode="a" d="M330 -20q-134 0 -206.5 62t-72.5 180q0 39 9 84q68 341 485 346l224 4l10 55q10 48 10 84q0 125 -117 125q-71 0 -113 -36t-67 -117l-290 14q113 321 517 321q173 0 262.5 -72.5t89.5 -213.5q0 -46 -11 -104l-76 -392q-11 -55 -11 -85q0 -37 15.5 -56t53.5 -19q32 0 63 6 l-29 -152q-26 -6 -47 -11t-41.5 -8t-43.5 -5t-53 -2q-95 0 -137 41.5t-42 122.5l2 41h-6q-86 -113 -177 -163t-201 -50zM738 501l-134 -2q-105 -2 -155 -28t-73.5 -82.5t-23.5 -114.5q0 -98 96 -98q98 0 178 78.5t102 191.5z" />
<glyph unicode="b" d="M35 0l23 96l31 140l242 1248h281l-76 -394l-37 -178h2q58 91 150 141t204 50q147 0 223 -93t76 -266q0 -133 -39.5 -280t-111.5 -257t-168 -168.5t-207 -58.5q-105 0 -174 50.5t-94 145.5h-4q-9 -48 -25.5 -104.5t-23.5 -71.5h-272zM410 399q0 -106 41.5 -166.5 t114.5 -60.5q85 0 150 71.5t103 208.5t38 254q0 206 -149 206q-99 0 -173.5 -96.5t-108.5 -268.5q-16 -83 -16 -148z" />
<glyph unicode="c" d="M515 -20q-204 0 -313 103t-109 295q0 133 46 274.5t131.5 243t204.5 154t262 52.5q190 0 296.5 -95t106.5 -261v-5l-286 -14l1 19q0 70 -36.5 116.5t-124.5 46.5q-96 0 -161 -67.5t-105 -204.5t-40 -252q0 -213 166 -213q80 0 144.5 50.5t96.5 150.5l279 -13 q-35 -109 -116 -196t-195.5 -135.5t-247.5 -48.5z" />
<glyph unicode="d" d="M712 0v8q0 22 7 81t12 87h-4q-68 -100 -154.5 -148t-199.5 -48q-143 0 -219.5 96.5t-76.5 272.5q0 130 41 280t110.5 255t164 160.5t209.5 55.5q108 0 178 -50t92 -141h2l32 178l77 397h281l-242 -1248q-12 -59 -38 -236h-272zM821 693q0 106 -42 161t-114 55 q-88 0 -153 -72.5t-102.5 -212.5t-37.5 -246q0 -206 147 -206q62 0 119.5 44.5t100.5 127.5t66 202q16 83 16 147z" />
<glyph unicode="e" d="M517 -20q-207 0 -320 104.5t-113 300.5q0 126 42.5 263.5t130.5 242.5t212 158t270 53q197 0 299 -108t102 -309q0 -88 -20 -190l-1 -8h-734q-10 -50 -10 -99q0 -107 51 -163.5t142 -56.5q77 0 139.5 32.5t93.5 96.5l260 -23q-83 -141 -225 -217.5t-319 -76.5zM701 925 q-103 0 -177.5 -69.5t-102.5 -192.5h460l4 57q0 102 -51 153.5t-133 51.5z" />
<glyph unicode="f" d="M721 892l-173 -892h-280l173 892h-256l37 190h256l16 83q34 173 160 261t330 88q160 0 322 -28l-36 -184q-147 19 -274 19q-99 0 -153.5 -41.5t-73.5 -140.5l-11 -57h443l-37 -190h-443z" />
<glyph unicode="g" d="M427 -434q-186 0 -287.5 76.5t-103.5 214.5l288 33q2 -65 41.5 -103t104.5 -38q204 0 261 288l36 174h-2q-69 -105 -164.5 -152t-202.5 -47q-141 0 -216.5 89t-75.5 258q0 129 39.5 276t109 251.5t165 158.5t211.5 54q107 0 176.5 -50t92.5 -141h5q33 139 48 174h266 l-23 -101l-31 -149l-156 -799q-45 -229 -195 -348t-387 -119zM849 692q0 99 -41 156.5t-115 57.5q-87 0 -152 -70t-101.5 -199.5t-36.5 -229.5q0 -200 152 -200q87 0 154.5 69.5t103.5 192t36 223.5z" />
<glyph unicode="h" d="M483 866q81 124 178 180t216 56q271 0 271 -267q0 -69 -16 -149l-133 -686h-280l121 621q15 77 15 128q0 69 -30 105.5t-106 36.5q-102 0 -180 -86.5t-107 -225.5l-113 -579h-281l288 1484h281l-78 -405q-13 -71 -41 -177l-9 -36h4z" />
<glyph unicode="i" d="M726 190h353l-37 -190h-1029l37 190h395l136 702h-290l37 190h571zM656 1277l40 207h281l-40 -207h-281z" />
<glyph unicode="j" d="M217 -425q-79 0 -157.5 13t-121.5 30l41 210q130 -34 256 -34q111 0 167 54t77 162l171 882h-354l37 190h636l-213 -1095q-25 -129 -100.5 -222t-189.5 -141.5t-249 -48.5zM726 1277l40 207h281l-40 -207h-281z" />
<glyph unicode="k" d="M759 0l-194 490l-137 -84l-79 -406h-281l288 1484h281l-165 -850l473 448h302l-462 -422l281 -660h-307z" />
<glyph unicode="l" d="M726 190h353l-37 -190h-1029l37 190h395l215 1104h-290l36 190h571z" />
<glyph unicode="m" d="M396 0l128 658q23 125 23 177q0 48 -14.5 68t-44.5 20q-50 0 -98 -93.5t-78 -247.5l-113 -582h-229l165 851q7 34 13.5 71.5t12 71t9.5 57.5t4 31h209l-19 -127l-9 -48h2q57 107 118 151t136 44q88 0 122 -47.5t34 -142.5v-6h2q61 106 125.5 151t148.5 45q88 0 128 -46 t40 -146q0 -75 -22 -189l-140 -721h-228l128 658q23 125 23 177q0 48 -14.5 68t-44.5 20q-51 0 -96 -80.5t-76 -241.5l-117 -601h-228z" />
<glyph unicode="n" d="M719 0l120 619q15 74 15 127q0 75 -32 110.5t-101 35.5q-101 0 -180.5 -85.5t-108.5 -226.5l-113 -580h-281l163 840q33 166 39 242h268q0 -16 -9 -88.5t-19 -126.5h4q153 236 393 236q271 0 271 -273q0 -65 -15 -143l-134 -687h-280z" />
<glyph unicode="o" d="M501 -20q-208 0 -316.5 104t-108.5 299q0 184 79.5 360t224.5 267.5t345 91.5q431 0 431 -383q0 -76 -19 -177q-52 -269 -217 -415.5t-419 -146.5zM863 715q0 101 -41 147.5t-130 46.5q-107 0 -175 -65.5t-108 -208.5t-40 -257q0 -206 166 -206q109 0 178 67t109.5 214.5 t40.5 261.5z" />
<glyph unicode="p" d="M517 1082v-8q0 -66 -19 -168h4q64 94 155 145.5t199 51.5q142 0 219 -97t77 -275q0 -181 -68.5 -367t-187 -285t-269.5 -99q-106 0 -175.5 48.5t-94.5 142.5h-2l-32 -178l-82 -418h-281l247 1271q12 59 38 236h272zM408 390q0 -105 41 -162t115 -57q88 0 152.5 72 t102.5 208.5t38 251.5q0 208 -147 208q-81 0 -152 -73.5t-110.5 -204.5t-39.5 -243z" />
<glyph unicode="q" d="M1194 1082l-23 -95l-31 -141l-247 -1271h-281l82 418l36 178h-2q-58 -91 -150 -141t-204 -50q-148 0 -223 93t-75 265q0 130 38 276.5t110 258t169 171t208 59.5q105 0 172 -50.5t96 -146.5h4q5 27 23.5 95t25.5 81h272zM819 684q0 107 -42 167t-114 60 q-85 0 -150.5 -72.5t-103 -212.5t-37.5 -250q0 -205 149 -205q98 0 172.5 95t109.5 270q16 83 16 148z" />
<glyph unicode="r" d="M1141 848q-107 19 -208 19q-155 0 -270 -117t-153 -312l-85 -438h-280l136 701q25 136 25 289l-3 92h271q6 -78 6 -127q0 -55 -4 -101h4q76 136 173 192t231 56q106 0 203 -17z" />
<glyph unicode="s" d="M511 -20q-224 0 -329 71t-114 219l255 37q5 -77 50.5 -109t173.5 -32q119 0 178.5 30t71.5 94l2 23q0 40 -39 66t-128 45q-199 41 -274 74t-115 84t-40 126q0 113 64 205.5t183 141t281 48.5q194 0 296.5 -75t104.5 -217l-254 -26q0 69 -41.5 100t-141.5 31t-155 -25.5 t-67 -85.5l-2 -21q0 -36 35.5 -60t111.5 -39l107 -26q140 -30 206 -64t101 -84.5t35 -124.5q0 -119 -68 -212.5t-194.5 -143.5t-293.5 -50z" />
<glyph unicode="t" d="M396 892h-167l37 190h181l143 282h176l-55 -282h385l-37 -190h-385l-103 -530q-11 -60 -11 -83q0 -54 36 -77.5t114 -23.5q123 0 260 27l-36 -186q-39 -6 -76.5 -12t-77 -10.5t-83 -7t-94.5 -2.5q-162 0 -246 57t-84 180q0 29 5 63t118 605z" />
<glyph unicode="u" d="M521 1082l-118 -607q-12 -63 -12 -115q0 -170 129 -170q91 0 167 89.5t101 222.5l112 580h281l-163 -840q-14 -66 -25 -142.5t-14 -99.5h-268q8 92 30 215h-5q-153 -235 -374 -235q-270 0 -270 273q0 67 15 142l133 687h281z" />
<glyph unicode="v" d="M669 0h-336l-197 1082h297l88 -622q8 -56 23 -250q59 130 122 247l338 625h294z" />
<glyph unicode="w" d="M923 0h-244l-51 471l-8 102q-5 -15 -16.5 -40.5t-271.5 -532.5h-243l27 1082h228l-35 -607q-9 -149 -25 -226l35 74l253 494h193l51 -455q7 -70 7 -113q16 78 65 226l209 607h226z" />
<glyph unicode="x" d="M769 0l-186 392l-340 -392h-299l515 559l-286 523h303l173 -354l308 354h305l-488 -520l300 -562h-305z" />
<glyph unicode="y" d="M137 -425q-107 0 -179 13l39 200l50 -5l50 -3q85 0 144 43t115 140l27 48l-240 1071h297l88 -527q2 -9 4 -26.5t4 -34t15 -143t13 -130.5l17 37l137 293l283 531h294l-669 -1139q-122 -207 -231.5 -287.5t-257.5 -80.5z" />
<glyph unicode="z" d="M33 0l39 199l702 680h-529l39 203h849l-39 -201l-698 -676h616l-40 -205h-939z" />
<glyph unicode="{" d="M530 -425q-118 0 -181 58.5t-63 163.5q0 34 8 77l63 328q7 35 7 70q0 76 -44.5 116t-146.5 43l38 195q119 5 185.5 61t88.5 170l63 328q29 147 121.5 223t231.5 76h327l-36 -190h-188q-91 0 -142 -52t-71 -157l-59 -301q-19 -97 -90 -165t-166 -87v-4q78 -20 120.5 -72.5 t42.5 -127.5q0 -29 -5 -52l-59 -301q-8 -42 -8 -76q0 -67 33.5 -100t106.5 -33h188l-38 -191h-327z" />
<glyph unicode="|" d="M483 -455v1939h262v-1939h-262z" />
<glyph unicode="}" d="M-4 -425l38 191h188q91 0 141.5 51.5t70.5 157.5l59 301q18 94 87.5 162t168.5 90v4q-77 18 -120 72t-43 128l5 52l59 301q8 34 8 77q0 132 -139 132h-188l36 190h327q118 0 182 -55t64 -162q0 -38 -9 -82l-63 -328q-8 -40 -8 -71q0 -156 192 -160l-38 -195 q-121 -2 -187 -60t-87 -169l-63 -328q-26 -137 -121 -218t-233 -81h-327z" />
<glyph unicode="~" d="M861 516q-75 0 -143 21t-138 47q-127 47 -212 47q-71 0 -134 -21t-138 -67l41 213q128 84 287 84q105 0 234 -47q129 -48 175.5 -59t87.5 -11q134 0 265 92l-42 -219q-72 -44 -134.5 -62t-148.5 -18z" />
<glyph unicode="&#xa1;" d="M522 653h230l-147 -923h-294zM867 1079l-53 -270h-288l53 270h288z" />
<glyph unicode="&#xa2;" d="M590 311q88 0 158.5 54.5t103.5 154.5l281 -12q-54 -155 -185 -255.5t-313 -121.5l-37 -191h-162l37 189q-176 17 -271 116t-95 272q0 165 71 321.5t199.5 248t302.5 109.5l36 184h162l-36 -184q165 -19 255.5 -112t90.5 -239v-6l-285 -14v8q0 88 -46 135t-132 47 q-74 0 -134.5 -34t-104.5 -101t-69 -163t-25 -177q0 -113 50.5 -171t147.5 -58z" />
<glyph unicode="&#xa3;" d="M1146 363q-63 -171 -187 -267t-276 -96h-704l40 205q110 55 163 127.5t74 179.5l15 82h-188l34 170h178l38 198q40 202 167.5 305t337.5 103q165 0 249.5 -66.5t101.5 -224.5l-242 -47q-7 77 -41 112t-100 35q-91 0 -142 -57.5t-75 -182.5l-34 -175h286l-34 -170h-286 l-15 -80q-22 -109 -77.5 -180t-163.5 -125h390q104 0 167 49.5t98 143.5z" />
<glyph unicode="&#xa4;" d="M310 905l-107 133l187 156l105 -133q114 59 232 59q122 0 207 -59l161 135l128 -158l-162 -135q26 -61 26 -135t-28 -153t-81 -148l108 -133l-189 -160l-107 135q-112 -59 -232 -59q-124 0 -209 57l-162 -137l-126 158l161 137q-24 65 -24 133q0 77 28.5 157.5 t83.5 149.5zM429 647q0 -74 49 -122t124 -48q98 0 175 76.5t77 173.5q0 74 -49 121t-122 47q-62 0 -120 -33.5t-96 -93t-38 -121.5z" />
<glyph unicode="&#xa5;" d="M840 691h276l-28 -146h-338l-32 -162h338l-28 -147h-338l-46 -236h-272l46 236h-336l28 147h336l32 162h-336l28 146h276l-256 658h289l186 -536l398 536h289z" />
<glyph unicode="&#xa6;" d="M483 676v778h262v-778h-262zM483 -455v779h262v-779h-262z" />
<glyph unicode="&#xa7;" d="M813 1485q193 0 296.5 -70t105.5 -204l-243 -25q-2 63 -52 96t-140 33q-112 0 -170.5 -29.5t-70.5 -94.5l-3 -23q0 -31 22 -55.5t67 -44t164 -47.5q153 -37 220 -72t102 -82.5t35 -115.5q0 -108 -71.5 -198t-183.5 -124q63 -31 100.5 -77.5t37.5 -119.5 q0 -108 -65.5 -204.5t-190.5 -147.5t-301 -51q-223 0 -330 69.5t-117 218.5l244 37q4 -80 58 -117.5t178 -37.5q146 0 212.5 44.5t66.5 130.5q0 38 -22 62.5t-67.5 44t-211.5 60.5q-176 45 -248 109.5t-72 155.5q0 108 70 188.5t198 119.5q-70 33 -106.5 86.5t-36.5 120.5 q0 102 65 189t182.5 131t277.5 44zM898 688q0 51 -50 84t-210 66q-112 -13 -168.5 -60t-56.5 -113q0 -31 22 -55.5t66.5 -44t170.5 -49.5q110 5 168 50.5t58 121.5z" />
<glyph unicode="&#xa8;" d="M845 1219l43 219h227l-43 -219h-227zM421 1219l43 219h224l-43 -219h-224z" />
<glyph unicode="&#xa9;" d="M628 333q-168 0 -260.5 113.5t-92.5 316.5q0 202 89 313t257 111q217 0 303 -209l-138 -43q-49 127 -163 127q-95 0 -145 -76.5t-50 -222.5q0 -142 53.5 -224t146.5 -82q113 0 171 154l129 -42q-37 -113 -114.5 -174.5t-185.5 -61.5zM1197 761q0 -227 -71 -390.5 t-203 -248t-309 -84.5t-308.5 85.5t-203 248.5t-71.5 389t71 389t203.5 248.5t308.5 85.5t308.5 -85t203.5 -247.5t71 -390.5zM1071 761q0 288 -119.5 447.5t-337.5 159.5q-215 0 -334.5 -159.5t-119.5 -447.5q0 -291 120 -449.5t334 -158.5q217 0 337 158.5t120 449.5z" />
<glyph unicode="&#xaa;" d="M465 643q-97 0 -150.5 45t-53.5 130q0 27 6 57q48 238 373 243l170 2q14 75 14 95q0 90 -97 90q-117 0 -150 -108l-217 11q40 109 143 171t248 62q139 0 211.5 -54t72.5 -154q0 -29 -6 -62l-53 -273q-8 -38 -8 -62q0 -49 45 -49l57 5l-24 -125q-73 -21 -140 -21 q-81 0 -116.5 38.5t-35.5 92.5l1 23h-3q-115 -157 -287 -157zM576 794q72 0 132 55.5t74 129.5l6 31l-106 -3q-83 -2 -121.5 -19t-57.5 -51t-19 -72q0 -71 92 -71z" />
<glyph unicode="&#xab;" d="M779 141l-185 361l13 71l328 367h238l-7 -37l-326 -366l186 -361l-7 -35h-240zM312 141l-187 361l13 71l330 367h236l-7 -37l-326 -366l186 -361l-7 -35h-238z" />
<glyph unicode="&#xac;" d="M887 141v428h-803v224h1027v-652h-224z" />
<glyph unicode="&#xae;" d="M1197 761q0 -227 -71 -390.5t-203 -248t-309 -84.5t-308.5 85.5t-203 248.5t-71.5 389t71 389t203.5 248.5t308.5 85.5t308.5 -85t203.5 -247.5t71 -390.5zM789 343l-190 329h-116v-329h-151v831h307q142 0 217.5 -63t75.5 -174q0 -102 -50.5 -167t-135.5 -84l218 -343 h-175zM781 935q0 127 -176 127h-122v-280h134q80 0 122 39t42 114zM1071 761q0 288 -119.5 447.5t-337.5 159.5q-215 0 -334.5 -159.5t-119.5 -447.5q0 -291 120 -449.5t334 -158.5q217 0 337 158.5t120 449.5z" />
<glyph unicode="&#xaf;" d="M183 1382h612l-33 -168h-612z" />
<glyph unicode="&#xb0;" d="M935 1110q0 -130 -93.5 -222.5t-227.5 -92.5q-132 0 -226 91t-94 224q0 86 42.5 159t116 114.5t161.5 41.5q135 0 228 -92.5t93 -222.5zM777 1110q0 70 -46.5 118t-116.5 48q-71 0 -118.5 -48.5t-47.5 -117.5t49 -118.5t117 -49.5q67 0 115 49t48 119z" />
<glyph unicode="&#xb1;" d="M726 707v-341h-224v341h-401v223h401v340h224v-340h402v-223h-402zM101 0v223h1027v-223h-1027z" />
<glyph unicode="&#xb2;" d="M281 563l28 142q93 139 317 264q117 66 168 115.5t51 113.5q0 75 -79 75q-99 0 -133 -115l-227 6q40 119 144 188.5t245 69.5q136 0 210.5 -50.5t74.5 -145.5q0 -180 -236 -313q-142 -80 -191.5 -115t-74.5 -73h425l-32 -162h-690z" />
<glyph unicode="&#xb3;" d="M626 551q-152 0 -232.5 54t-80.5 166q0 18 1 24l224 15l-1 -14q0 -96 114 -96q69 0 107 39.5t38 98.5q0 83 -145 83h-66l29 148h60q84 0 127.5 35.5t44.5 94.5q0 73 -89 73q-49 0 -84.5 -26.5t-50.5 -78.5l-215 14q36 113 138.5 176.5t246.5 63.5q132 0 206 -49t74 -134 q0 -83 -56 -149.5t-166 -88.5v-2q89 -11 127.5 -54t38.5 -103q0 -78 -47.5 -147t-134 -106t-208.5 -37z" />
<glyph unicode="&#xb4;" d="M492 1184l6 31l299 243h258l-8 -43l-385 -231h-170z" />
<glyph unicode="&#xb5;" d="M729 0q9 112 23 184h-3q-117 -204 -286 -204q-52 0 -90.5 24t-53.5 66h-4l-19 -115l-72 -371h-281l291 1498h281l-117 -605q-13 -71 -13 -119q0 -165 142 -165q99 0 176 85.5t103 225.5l112 578h281l-163 -840q-36 -207 -39 -242h-268z" />
<glyph unicode="&#xb6;" d="M1113 1206l-297 -1530h-156l297 1530h-195l-297 -1530h-155l186 958q-144 0 -223.5 68.5t-79.5 194.5q0 122 57 230t159 165t234 57h629l-28 -143h-131z" />
<glyph unicode="&#xb7;" d="M446 417l59 305h288l-59 -305h-288z" />
<glyph unicode="&#xb8;" d="M-1 -445q-46 0 -100 6l23 118q32 -7 82 -7q153 0 153 83q0 25 -22.5 40t-88.5 15q-38 0 -52 -2l106 192h143l-60 -102q159 -10 159 -119q0 -60 -37 -113.5t-116 -82t-190 -28.5z" />
<glyph unicode="&#xb9;" d="M279 563l28 142h236l103 530q-32 -47 -110.5 -81t-142.5 -34l30 154q74 0 150.5 39t116.5 97h204l-137 -705h220l-28 -142h-670z" />
<glyph unicode="&#xba;" d="M630 643q-151 0 -233.5 78t-82.5 218q0 93 34.5 190.5t97 167.5t150 107t194.5 37q155 0 238.5 -73.5t83.5 -215.5q0 -99 -35 -197.5t-98.5 -167.5t-153 -106.5t-195.5 -37.5zM883 1146q0 74 -32 102.5t-91 28.5q-74 0 -120.5 -42.5t-72 -130.5t-25.5 -161 q0 -139 118 -139q76 0 123.5 44t73.5 134.5t26 163.5z" />
<glyph unicode="&#xbb;" d="M54 141l7 35l326 361l-182 366l7 37h238l184 -367l-13 -71l-327 -361h-240zM523 141l7 35l326 361l-182 366l7 37h236l186 -367l-13 -71l-329 -361h-238z" />
<glyph unicode="&#xbc;" d="M322 1159q-19 -28 -56 -47.5t-84.5 -31.5t-77.5 -12l32 165q58 0 128 33t105 83h181l-148 -760h-191zM201 0h-162l1000 1349h161zM1033 162l-31 -160h-191l31 160h-341l29 149l409 452h211l-87 -450h82l-30 -151h-82zM935 606q-17 -24 -48.5 -65t-58 -75t-133.5 -153h177 l38 198q11 54 25 95z" />
<glyph unicode="&#xbd;" d="M323 1159q-19 -28 -56 -47.5t-84.5 -31.5t-77.5 -12l32 165q58 0 128 33t105 83h181l-148 -760h-191zM186 0h-162l1000 1349h161zM553 1l28 143q47 72 111.5 128t159.5 109q89 49 127.5 86.5t47.5 84.5l3 36q-2 55 -65 55q-45 0 -74.5 -26.5t-48.5 -91.5l-178 10 q41 123 123.5 180.5t205.5 57.5q114 0 169.5 -43.5t55.5 -121.5l-5 -50q-12 -62 -45.5 -108.5t-80 -83.5t-175.5 -106q-109 -60 -137 -106h350l-30 -153h-542z" />
<glyph unicode="&#xbe;" d="M311 569q-126 0 -187.5 53t-61.5 176v3l210 26q-1 -18 -1 -23q0 -98 70 -98q53 0 79 41t26 89q0 38 -27.5 55.5t-92.5 17.5h-41l25 131h37q52 0 83 14.5t47 50t16 74.5q0 52 -52 52q-44 0 -66.5 -28t-37.5 -82l-192 12q38 114 117.5 171t209.5 57q108 0 165 -42.5 t57 -118.5q0 -156 -174 -216l-1 -6q126 -29 126 -142l-5 -43q-19 -102 -105.5 -163t-223.5 -61zM277 0h-162l1000 1349h161zM1072 162l-31 -160h-191l31 160h-341l29 149l409 452h211l-87 -450h82l-30 -151h-82zM974 606q-17 -24 -48.5 -65t-58 -75t-133.5 -153h177l38 198 q11 54 25 95z" />
<glyph unicode="&#xbf;" d="M570 676h267q-25 -102 -93.5 -183.5t-179.5 -149.5q-137 -83 -190.5 -138.5t-53.5 -127.5q0 -60 48.5 -99.5t142.5 -39.5q100 0 180.5 58t111.5 157l282 -12q-64 -200 -226.5 -314.5t-387.5 -114.5q-206 0 -323.5 82.5t-117.5 227.5q0 50 15.5 104.5t48.5 104.5 t84.5 95.5t215.5 147.5q152 95 176 202zM924 1082l-52 -270h-289l52 270h289z" />
<glyph unicode="&#xc0;" d="M1124 0h-294l-28 330h-456l-156 -330h-295l705 1349h344zM737 1167q-16 -41 -46.5 -109t-239.5 -506h332l-34 380l-11 200zM766 1427l-295 231l8 43h258l205 -243l-6 -31h-170z" />
<glyph unicode="&#xc1;" d="M1124 0h-294l-28 330h-456l-156 -330h-295l705 1349h344zM737 1167q-16 -41 -46.5 -109t-239.5 -506h332l-34 380l-11 200zM632 1428l6 31l299 243h258l-8 -43l-385 -231h-170z" />
<glyph unicode="&#xc2;" d="M1124 0h-294l-28 330h-456l-156 -330h-295l705 1349h344zM737 1167q-16 -41 -46.5 -109t-239.5 -506h332l-34 380l-11 200zM1160 1455l-5 -28h-159l-177 134h-4l-237 -134h-160l5 28l307 250h229z" />
<glyph unicode="&#xc3;" d="M1124 0h-294l-28 330h-456l-156 -330h-295l705 1349h344zM737 1167q-16 -41 -46.5 -109t-239.5 -506h332l-34 380l-11 200zM952 1422q-44 0 -85 17.5t-79 39t-72 39t-64 17.5q-48 0 -74.5 -26t-45.5 -87h-137q40 153 108.5 218t171.5 65q45 0 87 -17.5t79.5 -39t70.5 -39 t62 -17.5q50 0 75.5 28t45.5 85h135q-37 -150 -107 -216.5t-171 -66.5z" />
<glyph unicode="&#xc4;" d="M1124 0h-294l-28 330h-456l-156 -330h-295l705 1349h344zM737 1167q-16 -41 -46.5 -109t-239.5 -506h332l-34 380l-11 200zM889 1445l43 219h227l-43 -219h-227zM465 1445l43 219h224l-43 -219h-224z" />
<glyph unicode="&#xc5;" d="M1124 0h-294l-28 330h-456l-156 -330h-295l705 1349h344zM737 1167q-16 -41 -46.5 -109t-239.5 -506h332l-34 380l-11 200zM760 1279q-96 0 -151.5 43.5t-55.5 118.5q0 59 35 116t101.5 89t148.5 32q95 0 151 -42t56 -119q0 -63 -37 -119.5t-102 -87.5t-146 -31z M903 1489q0 30 -25 45.5t-65 15.5q-58 0 -88.5 -27t-30.5 -56q0 -27 24 -43t67 -16q53 0 85.5 24t32.5 57z" />
<glyph unicode="&#xc6;" d="M586 387h-253l-177 -387h-261l634 1349h804l-39 -202h-309l-69 -355h297l-39 -200h-297l-76 -390h348l-39 -202h-599zM735 1152h-58l-85 -200l-169 -366h202z" />
<glyph unicode="&#xc7;" d="M386 486q0 -274 209 -274q164 0 288 244l263 -52q-218 -424 -599 -424q-230 0 -347 118.5t-117 350.5q0 108 24 232q136 689 702 689q375 0 421 -389l-285 -66q-9 107 -55 165t-122 58q-117 0 -200.5 -85.5t-132.5 -254.5t-49 -312zM353 -445q-46 0 -100 6l23 118 q32 -7 82 -7q153 0 153 83q0 25 -22.5 40t-88.5 15q-38 0 -52 -2l106 192h143l-60 -102q159 -10 159 -119q0 -60 -37 -113.5t-116 -82t-190 -28.5z" />
<glyph unicode="&#xc8;" d="M32 0l262 1349h968l-44 -228h-673l-63 -324h612l-44 -228h-612l-67 -341h714l-44 -228h-1009zM788 1428l-295 231l8 43h258l205 -243l-6 -31h-170z" />
<glyph unicode="&#xc9;" d="M32 0l262 1349h968l-44 -228h-673l-63 -324h612l-44 -228h-612l-67 -341h714l-44 -228h-1009zM630 1428l6 31l299 243h258l-8 -43l-385 -231h-170z" />
<glyph unicode="&#xca;" d="M32 0l262 1349h968l-44 -228h-673l-63 -324h612l-44 -228h-612l-67 -341h714l-44 -228h-1009zM1160 1455l-5 -28h-159l-177 134h-4l-237 -134h-160l5 28l307 250h229z" />
<glyph unicode="&#xcb;" d="M32 0l262 1349h968l-44 -228h-673l-63 -324h612l-44 -228h-612l-67 -341h714l-44 -228h-1009zM909 1445l43 219h227l-43 -219h-227zM485 1445l43 219h224l-43 -219h-224z" />
<glyph unicode="&#xcc;" d="M314 1349h916l-44 -228h-316l-174 -893h316l-44 -228h-916l44 228h316l174 893h-316zM778 1428l-295 231l8 43h258l205 -243l-6 -31h-170z" />
<glyph unicode="&#xcd;" d="M314 1349h916l-44 -228h-316l-174 -893h316l-44 -228h-916l44 228h316l174 893h-316zM642 1428l6 31l299 243h258l-8 -43l-385 -231h-170z" />
<glyph unicode="&#xce;" d="M314 1349h916l-44 -228h-316l-174 -893h316l-44 -228h-916l44 228h316l174 893h-316zM1160 1455l-5 -28h-159l-177 134h-4l-237 -134h-160l5 28l307 250h229z" />
<glyph unicode="&#xcf;" d="M314 1349h916l-44 -228h-316l-174 -893h316l-44 -228h-916l44 228h316l174 893h-316zM889 1445l43 219h227l-43 -219h-227zM465 1445l43 219h224l-43 -219h-224z" />
<glyph unicode="&#xd0;" d="M464 0h-421l110 564h-134l42 219h134l110 566h361q546 0 546 -460q0 -155 -54 -333.5t-151.5 -303t-235.5 -188.5t-307 -64zM911 849q0 144 -73.5 208t-220.5 64h-61l-66 -338h207l-42 -219h-207l-66 -336h102q319 0 409 457q18 93 18 164z" />
<glyph unicode="&#xd1;" d="M643 0l-188 1010l-12 -138q-18 -164 -28 -216l-128 -656h-257l262 1349h337l192 -1037q18 239 43 365l130 672h257l-262 -1349h-346zM952 1422q-44 0 -85 17.5t-79 39t-72 39t-64 17.5q-48 0 -74.5 -26t-45.5 -87h-137q40 153 108.5 218t171.5 65q45 0 87 -17.5t79.5 -39 t70.5 -39t62 -17.5q50 0 75.5 28t45.5 85h135q-37 -150 -107 -216.5t-171 -66.5z" />
<glyph unicode="&#xd2;" d="M506 -20q-213 0 -322.5 115.5t-109.5 344.5q0 164 51.5 353.5t141.5 317t218.5 193.5t290.5 66q212 0 322.5 -113t110.5 -340q0 -164 -52 -354.5t-143.5 -320t-219.5 -196t-288 -66.5zM909 892q0 246 -178 246q-107 0 -184.5 -89t-125 -267t-47.5 -316q0 -254 177 -254 q106 0 184 91.5t126 270t48 318.5zM773 1428l-295 231l8 43h258l205 -243l-6 -31h-170z" />
<glyph unicode="&#xd3;" d="M506 -20q-213 0 -322.5 115.5t-109.5 344.5q0 164 51.5 353.5t141.5 317t218.5 193.5t290.5 66q212 0 322.5 -113t110.5 -340q0 -164 -52 -354.5t-143.5 -320t-219.5 -196t-288 -66.5zM909 892q0 246 -178 246q-107 0 -184.5 -89t-125 -267t-47.5 -316q0 -254 177 -254 q106 0 184 91.5t126 270t48 318.5zM637 1428l6 31l299 243h258l-8 -43l-385 -231h-170z" />
<glyph unicode="&#xd4;" d="M506 -20q-213 0 -322.5 115.5t-109.5 344.5q0 164 51.5 353.5t141.5 317t218.5 193.5t290.5 66q212 0 322.5 -113t110.5 -340q0 -164 -52 -354.5t-143.5 -320t-219.5 -196t-288 -66.5zM909 892q0 246 -178 246q-107 0 -184.5 -89t-125 -267t-47.5 -316q0 -254 177 -254 q106 0 184 91.5t126 270t48 318.5zM1160 1455l-5 -28h-159l-177 134h-4l-237 -134h-160l5 28l307 250h229z" />
<glyph unicode="&#xd5;" d="M506 -20q-213 0 -322.5 115.5t-109.5 344.5q0 164 51.5 353.5t141.5 317t218.5 193.5t290.5 66q212 0 322.5 -113t110.5 -340q0 -164 -52 -354.5t-143.5 -320t-219.5 -196t-288 -66.5zM909 892q0 246 -178 246q-107 0 -184.5 -89t-125 -267t-47.5 -316q0 -254 177 -254 q106 0 184 91.5t126 270t48 318.5zM952 1422q-44 0 -85 17.5t-79 39t-72 39t-64 17.5q-48 0 -74.5 -26t-45.5 -87h-137q40 153 108.5 218t171.5 65q45 0 87 -17.5t79.5 -39t70.5 -39t62 -17.5q50 0 75.5 28t45.5 85h135q-37 -150 -107 -216.5t-171 -66.5z" />
<glyph unicode="&#xd6;" d="M506 -20q-213 0 -322.5 115.5t-109.5 344.5q0 164 51.5 353.5t141.5 317t218.5 193.5t290.5 66q212 0 322.5 -113t110.5 -340q0 -164 -52 -354.5t-143.5 -320t-219.5 -196t-288 -66.5zM909 892q0 246 -178 246q-107 0 -184.5 -89t-125 -267t-47.5 -316q0 -254 177 -254 q106 0 184 91.5t126 270t48 318.5zM892 1445l43 219h227l-43 -219h-227zM468 1445l43 219h224l-43 -219h-224z" />
<glyph unicode="&#xd7;" d="M102 326l356 358l-352 352l158 156l352 -350l352 352l158 -158l-352 -354l352 -350l-158 -160l-352 354l-356 -358z" />
<glyph unicode="&#xd8;" d="M506 -20q-215 0 -326 119l-133 -142l-100 75l165 176q-39 96 -39 231q0 159 51 350t141.5 319.5t219.5 195t291 66.5q213 0 323 -115l134 142l99 -75l-164 -173q41 -100 41 -234q0 -162 -52 -352.5t-143 -319.5t-219 -196t-289 -67zM908 872l-514 -546q41 -114 157 -114 q104 0 180.5 87.5t125 259t51.5 313.5zM374 486l513 545q-39 107 -156 107q-105 0 -181.5 -85.5t-124.5 -257t-51 -309.5z" />
<glyph unicode="&#xd9;" d="M490 -20q-199 0 -292 85.5t-93 264.5q0 88 22 198l159 821h295l-159 -818q-19 -95 -19 -164q0 -85 34 -120.5t106 -35.5q103 0 165 75.5t97 254.5l157 808h295l-156 -806q-57 -286 -206.5 -424.5t-404.5 -138.5zM762 1428l-295 231l8 43h258l205 -243l-6 -31h-170z" />
<glyph unicode="&#xda;" d="M490 -20q-199 0 -292 85.5t-93 264.5q0 88 22 198l159 821h295l-159 -818q-19 -95 -19 -164q0 -85 34 -120.5t106 -35.5q103 0 165 75.5t97 254.5l157 808h295l-156 -806q-57 -286 -206.5 -424.5t-404.5 -138.5zM625 1428l6 31l299 243h258l-8 -43l-385 -231h-170z" />
<glyph unicode="&#xdb;" d="M490 -20q-199 0 -292 85.5t-93 264.5q0 88 22 198l159 821h295l-159 -818q-19 -95 -19 -164q0 -85 34 -120.5t106 -35.5q103 0 165 75.5t97 254.5l157 808h295l-156 -806q-57 -286 -206.5 -424.5t-404.5 -138.5zM1160 1455l-5 -28h-159l-177 134h-4l-237 -134h-160l5 28 l307 250h229z" />
<glyph unicode="&#xdc;" d="M490 -20q-199 0 -292 85.5t-93 264.5q0 88 22 198l159 821h295l-159 -818q-19 -95 -19 -164q0 -85 34 -120.5t106 -35.5q103 0 165 75.5t97 254.5l157 808h295l-156 -806q-57 -286 -206.5 -424.5t-404.5 -138.5zM889 1445l43 219h227l-43 -219h-227zM465 1445l43 219h224 l-43 -219h-224z" />
<glyph unicode="&#xdd;" d="M656 0h-294l108 556l-310 793h309l190 -566l414 566h309l-618 -793zM640 1428l6 31l299 243h258l-8 -43l-385 -231h-170z" />
<glyph unicode="&#xde;" d="M592 256h-215l-50 -256h-295l262 1349h295l-45 -235h203q219 0 336 -86t117 -244q0 -139 -77 -264t-217 -194.5t-314 -69.5zM898 735q0 76 -55.5 123t-169.5 47h-170l-86 -440h178q89 0 159 36.5t107 102t37 131.5z" />
<glyph unicode="&#xdf;" d="M682 -20q-147 0 -254 43l41 206q44 -22 107 -40.5t113 -18.5q81 0 125 34.5t55 91.5l3 28q0 75 -117 161q-68 49 -103.5 103.5t-35.5 117.5q0 80 39 137t116 115q78 59 113.5 106.5t35.5 103.5q0 52 -39 82.5t-117 30.5q-212 0 -263 -268l-197 -1013h-281l196 1007 q44 231 195 354t392 123q182 0 284 -71.5t102 -199.5q0 -38 -11 -83.5t-36 -86t-58 -75t-123 -102.5q-43 -33 -59.5 -54t-16.5 -42q0 -22 22 -48t98 -88q133 -111 133 -253q0 -104 -55 -202t-158 -148.5t-246 -50.5z" />
<glyph unicode="&#xe0;" d="M330 -20q-134 0 -206.5 62t-72.5 180q0 39 9 84q68 341 485 346l224 4l10 55q10 48 10 84q0 125 -117 125q-71 0 -113 -36t-67 -117l-290 14q113 321 517 321q173 0 262.5 -72.5t89.5 -213.5q0 -46 -11 -104l-76 -392q-11 -55 -11 -85q0 -37 15.5 -56t53.5 -19q32 0 63 6 l-29 -152q-26 -6 -47 -11t-41.5 -8t-43.5 -5t-53 -2q-95 0 -137 41.5t-42 122.5l2 41h-6q-86 -113 -177 -163t-201 -50zM738 501l-134 -2q-105 -2 -155 -28t-73.5 -82.5t-23.5 -114.5q0 -98 96 -98q98 0 178 78.5t102 191.5zM698 1184l-295 231l8 43h258l205 -243l-6 -31 h-170z" />
<glyph unicode="&#xe1;" d="M330 -20q-134 0 -206.5 62t-72.5 180q0 39 9 84q68 341 485 346l224 4l10 55q10 48 10 84q0 125 -117 125q-71 0 -113 -36t-67 -117l-290 14q113 321 517 321q173 0 262.5 -72.5t89.5 -213.5q0 -46 -11 -104l-76 -392q-11 -55 -11 -85q0 -37 15.5 -56t53.5 -19q32 0 63 6 l-29 -152q-26 -6 -47 -11t-41.5 -8t-43.5 -5t-53 -2q-95 0 -137 41.5t-42 122.5l2 41h-6q-86 -113 -177 -163t-201 -50zM738 501l-134 -2q-105 -2 -155 -28t-73.5 -82.5t-23.5 -114.5q0 -98 96 -98q98 0 178 78.5t102 191.5zM569 1184l6 31l299 243h258l-8 -43l-385 -231 h-170z" />
<glyph unicode="&#xe2;" d="M330 -20q-134 0 -206.5 62t-72.5 180q0 39 9 84q68 341 485 346l224 4l10 55q10 48 10 84q0 125 -117 125q-71 0 -113 -36t-67 -117l-290 14q113 321 517 321q173 0 262.5 -72.5t89.5 -213.5q0 -46 -11 -104l-76 -392q-11 -55 -11 -85q0 -37 15.5 -56t53.5 -19q32 0 63 6 l-29 -152q-26 -6 -47 -11t-41.5 -8t-43.5 -5t-53 -2q-95 0 -137 41.5t-42 122.5l2 41h-6q-86 -113 -177 -163t-201 -50zM738 501l-134 -2q-105 -2 -155 -28t-73.5 -82.5t-23.5 -114.5q0 -98 96 -98q98 0 178 78.5t102 191.5zM1095 1211l-5 -28h-159l-177 134h-4l-237 -134 h-160l5 28l307 250h229z" />
<glyph unicode="&#xe3;" d="M330 -20q-134 0 -206.5 62t-72.5 180q0 39 9 84q68 341 485 346l224 4l10 55q10 48 10 84q0 125 -117 125q-71 0 -113 -36t-67 -117l-290 14q113 321 517 321q173 0 262.5 -72.5t89.5 -213.5q0 -46 -11 -104l-76 -392q-11 -55 -11 -85q0 -37 15.5 -56t53.5 -19q32 0 63 6 l-29 -152q-26 -6 -47 -11t-41.5 -8t-43.5 -5t-53 -2q-95 0 -137 41.5t-42 122.5l2 41h-6q-86 -113 -177 -163t-201 -50zM738 501l-134 -2q-105 -2 -155 -28t-73.5 -82.5t-23.5 -114.5q0 -98 96 -98q98 0 178 78.5t102 191.5zM898 1183q-44 0 -85 17.5t-79 39t-72 39 t-64 17.5q-48 0 -74.5 -26t-45.5 -87h-137q40 153 108.5 218t171.5 65q45 0 87 -17.5t79.5 -39t70.5 -39t62 -17.5q50 0 75.5 28t45.5 85h135q-37 -150 -107 -216.5t-171 -66.5z" />
<glyph unicode="&#xe4;" d="M330 -20q-134 0 -206.5 62t-72.5 180q0 39 9 84q68 341 485 346l224 4l10 55q10 48 10 84q0 125 -117 125q-71 0 -113 -36t-67 -117l-290 14q113 321 517 321q173 0 262.5 -72.5t89.5 -213.5q0 -46 -11 -104l-76 -392q-11 -55 -11 -85q0 -37 15.5 -56t53.5 -19q32 0 63 6 l-29 -152q-26 -6 -47 -11t-41.5 -8t-43.5 -5t-53 -2q-95 0 -137 41.5t-42 122.5l2 41h-6q-86 -113 -177 -163t-201 -50zM738 501l-134 -2q-105 -2 -155 -28t-73.5 -82.5t-23.5 -114.5q0 -98 96 -98q98 0 178 78.5t102 191.5zM829 1219l43 219h227l-43 -219h-227zM405 1219 l43 219h224l-43 -219h-224z" />
<glyph unicode="&#xe5;" d="M330 -20q-134 0 -206.5 62t-72.5 180q0 39 9 84q68 341 485 346l224 4l10 55q10 48 10 84q0 125 -117 125q-71 0 -113 -36t-67 -117l-290 14q113 321 517 321q173 0 262.5 -72.5t89.5 -213.5q0 -46 -11 -104l-76 -392q-11 -55 -11 -85q0 -37 15.5 -56t53.5 -19q32 0 63 6 l-29 -152q-26 -6 -47 -11t-41.5 -8t-43.5 -5t-53 -2q-95 0 -137 41.5t-42 122.5l2 41h-6q-86 -113 -177 -163t-201 -50zM738 501l-134 -2q-105 -2 -155 -28t-73.5 -82.5t-23.5 -114.5q0 -98 96 -98q98 0 178 78.5t102 191.5zM724 1148q-96 0 -151.5 43.5t-55.5 118.5 q0 59 35 116t101.5 89t148.5 32q95 0 151 -42t56 -119q0 -63 -37 -119.5t-102 -87.5t-146 -31zM867 1358q0 30 -25 45.5t-65 15.5q-58 0 -88.5 -27t-30.5 -56q0 -27 24 -43t67 -16q53 0 85.5 24t32.5 57z" />
<glyph unicode="&#xe6;" d="M688 484v-2q-15 -73 -15 -137q0 -87 29.5 -136t87.5 -49q60 0 99.5 38t68.5 103l169 -45q-129 -276 -368 -276q-114 0 -169.5 54.5t-67.5 177.5q-71 -116 -162.5 -174t-190.5 -58q-101 0 -153 58t-52 164q0 46 10 100q69 353 399 358l148 4q20 100 20 135q0 121 -86 121 q-93 0 -137 -147l-204 17q49 156 144 234t231 78q178 0 220 -139q111 139 273 139q252 0 252 -321q0 -49 -5.5 -103.5t-31.5 -193.5h-509zM176 244q0 -82 58 -82q78 0 149.5 85t94.5 198l11 54l-103 -3q-79 -2 -121 -34t-65.5 -97.5t-23.5 -120.5zM934 924q-40 0 -82 -32.5 t-76 -91t-52 -140.5h301q8 62 8 109q0 75 -22.5 115t-76.5 40z" />
<glyph unicode="&#xe7;" d="M515 -20q-204 0 -313 103t-109 295q0 133 46 274.5t131.5 243t204.5 154t262 52.5q190 0 296.5 -95t106.5 -261v-5l-286 -14l1 19q0 70 -36.5 116.5t-124.5 46.5q-96 0 -161 -67.5t-105 -204.5t-40 -252q0 -213 166 -213q80 0 144.5 50.5t96.5 150.5l279 -13 q-35 -109 -116 -196t-195.5 -135.5t-247.5 -48.5zM336 -445q-46 0 -100 6l23 118q32 -7 82 -7q153 0 153 83q0 25 -22.5 40t-88.5 15q-38 0 -52 -2l106 192h143l-60 -102q159 -10 159 -119q0 -60 -37 -113.5t-116 -82t-190 -28.5z" />
<glyph unicode="&#xe8;" d="M517 -20q-207 0 -320 104.5t-113 300.5q0 126 42.5 263.5t130.5 242.5t212 158t270 53q197 0 299 -108t102 -309q0 -88 -20 -190l-1 -8h-734q-10 -50 -10 -99q0 -107 51 -163.5t142 -56.5q77 0 139.5 32.5t93.5 96.5l260 -23q-83 -141 -225 -217.5t-319 -76.5zM701 925 q-103 0 -177.5 -69.5t-102.5 -192.5h460l4 57q0 102 -51 153.5t-133 51.5zM733 1184l-295 231l8 43h258l205 -243l-6 -31h-170z" />
<glyph unicode="&#xe9;" d="M517 -20q-207 0 -320 104.5t-113 300.5q0 126 42.5 263.5t130.5 242.5t212 158t270 53q197 0 299 -108t102 -309q0 -88 -20 -190l-1 -8h-734q-10 -50 -10 -99q0 -107 51 -163.5t142 -56.5q77 0 139.5 32.5t93.5 96.5l260 -23q-83 -141 -225 -217.5t-319 -76.5zM701 925 q-103 0 -177.5 -69.5t-102.5 -192.5h460l4 57q0 102 -51 153.5t-133 51.5zM603 1184l6 31l299 243h258l-8 -43l-385 -231h-170z" />
<glyph unicode="&#xea;" d="M517 -20q-207 0 -320 104.5t-113 300.5q0 126 42.5 263.5t130.5 242.5t212 158t270 53q197 0 299 -108t102 -309q0 -88 -20 -190l-1 -8h-734q-10 -50 -10 -99q0 -107 51 -163.5t142 -56.5q77 0 139.5 32.5t93.5 96.5l260 -23q-83 -141 -225 -217.5t-319 -76.5zM701 925 q-103 0 -177.5 -69.5t-102.5 -192.5h460l4 57q0 102 -51 153.5t-133 51.5zM1120 1211l-5 -28h-159l-177 134h-4l-237 -134h-160l5 28l307 250h229z" />
<glyph unicode="&#xeb;" d="M517 -20q-207 0 -320 104.5t-113 300.5q0 126 42.5 263.5t130.5 242.5t212 158t270 53q197 0 299 -108t102 -309q0 -88 -20 -190l-1 -8h-734q-10 -50 -10 -99q0 -107 51 -163.5t142 -56.5q77 0 139.5 32.5t93.5 96.5l260 -23q-83 -141 -225 -217.5t-319 -76.5zM701 925 q-103 0 -177.5 -69.5t-102.5 -192.5h460l4 57q0 102 -51 153.5t-133 51.5zM853 1219l43 219h227l-43 -219h-227zM429 1219l43 219h224l-43 -219h-224z" />
<glyph unicode="&#xec;" d="M726 190h353l-37 -190h-1029l37 190h395l136 702h-290l37 190h571zM745 1184l-295 231l8 43h258l205 -243l-6 -31h-170z" />
<glyph unicode="&#xed;" d="M726 190h353l-37 -190h-1029l37 190h395l136 702h-290l37 190h571zM596 1184l6 31l299 243h258l-8 -43l-385 -231h-170z" />
<glyph unicode="&#xee;" d="M726 190h353l-37 -190h-1029l37 190h395l136 702h-290l37 190h571zM1123 1211l-5 -28h-159l-177 134h-4l-237 -134h-160l5 28l307 250h229z" />
<glyph unicode="&#xef;" d="M726 190h353l-37 -190h-1029l37 190h395l136 702h-290l37 190h571zM886 1219l43 219h227l-43 -219h-227zM462 1219l43 219h224l-43 -219h-224z" />
<glyph unicode="&#xf0;" d="M961 1266q193 -242 193 -538q0 -148 -46.5 -296t-131 -247.5t-205 -152t-273.5 -52.5q-210 0 -324.5 97t-114.5 277q0 119 46 242.5t127.5 207.5t198 129.5t265.5 45.5q78 0 130 -20q-34 118 -98 217l-255 -102l-47 155l201 79q-74 71 -224 176h293q86 -48 142 -94 l270 109l53 -154zM843 604q0 94 -43 138t-137 44q-125 0 -195.5 -75.5t-100.5 -233.5q-13 -65 -13 -118q0 -189 176 -189q108 0 174.5 53t102.5 167.5t36 213.5z" />
<glyph unicode="&#xf1;" d="M719 0l120 619q15 74 15 127q0 75 -32 110.5t-101 35.5q-101 0 -180.5 -85.5t-108.5 -226.5l-113 -580h-281l163 840q33 166 39 242h268q0 -16 -9 -88.5t-19 -126.5h4q153 236 393 236q271 0 271 -273q0 -65 -15 -143l-134 -687h-280zM916 1183q-44 0 -85 17.5t-79 39 t-72 39t-64 17.5q-48 0 -74.5 -26t-45.5 -87h-137q40 153 108.5 218t171.5 65q45 0 87 -17.5t79.5 -39t70.5 -39t62 -17.5q50 0 75.5 28t45.5 85h135q-37 -150 -107 -216.5t-171 -66.5z" />
<glyph unicode="&#xf2;" d="M501 -20q-208 0 -316.5 104t-108.5 299q0 184 79.5 360t224.5 267.5t345 91.5q431 0 431 -383q0 -76 -19 -177q-52 -269 -217 -415.5t-419 -146.5zM863 715q0 101 -41 147.5t-130 46.5q-107 0 -175 -65.5t-108 -208.5t-40 -257q0 -206 166 -206q109 0 178 67t109.5 214.5 t40.5 261.5zM742 1184l-295 231l8 43h258l205 -243l-6 -31h-170z" />
<glyph unicode="&#xf3;" d="M501 -20q-208 0 -316.5 104t-108.5 299q0 184 79.5 360t224.5 267.5t345 91.5q431 0 431 -383q0 -76 -19 -177q-52 -269 -217 -415.5t-419 -146.5zM863 715q0 101 -41 147.5t-130 46.5q-107 0 -175 -65.5t-108 -208.5t-40 -257q0 -206 166 -206q109 0 178 67t109.5 214.5 t40.5 261.5zM593 1184l6 31l299 243h258l-8 -43l-385 -231h-170z" />
<glyph unicode="&#xf4;" d="M501 -20q-208 0 -316.5 104t-108.5 299q0 184 79.5 360t224.5 267.5t345 91.5q431 0 431 -383q0 -76 -19 -177q-52 -269 -217 -415.5t-419 -146.5zM863 715q0 101 -41 147.5t-130 46.5q-107 0 -175 -65.5t-108 -208.5t-40 -257q0 -206 166 -206q109 0 178 67t109.5 214.5 t40.5 261.5zM1113 1211l-5 -28h-159l-177 134h-4l-237 -134h-160l5 28l307 250h229z" />
<glyph unicode="&#xf5;" d="M501 -20q-208 0 -316.5 104t-108.5 299q0 184 79.5 360t224.5 267.5t345 91.5q431 0 431 -383q0 -76 -19 -177q-52 -269 -217 -415.5t-419 -146.5zM863 715q0 101 -41 147.5t-130 46.5q-107 0 -175 -65.5t-108 -208.5t-40 -257q0 -206 166 -206q109 0 178 67t109.5 214.5 t40.5 261.5zM906 1183q-44 0 -85 17.5t-79 39t-72 39t-64 17.5q-48 0 -74.5 -26t-45.5 -87h-137q40 153 108.5 218t171.5 65q45 0 87 -17.5t79.5 -39t70.5 -39t62 -17.5q50 0 75.5 28t45.5 85h135q-37 -150 -107 -216.5t-171 -66.5z" />
<glyph unicode="&#xf6;" d="M501 -20q-208 0 -316.5 104t-108.5 299q0 184 79.5 360t224.5 267.5t345 91.5q431 0 431 -383q0 -76 -19 -177q-52 -269 -217 -415.5t-419 -146.5zM863 715q0 101 -41 147.5t-130 46.5q-107 0 -175 -65.5t-108 -208.5t-40 -257q0 -206 166 -206q109 0 178 67t109.5 214.5 t40.5 261.5zM845 1219l43 219h227l-43 -219h-227zM421 1219l43 219h224l-43 -219h-224z" />
<glyph unicode="&#xf7;" d="M495 961v233h239v-233h-239zM101 569v224h1027v-224h-1027zM495 170v233h239v-233h-239z" />
<glyph unicode="&#xf8;" d="M501 -20q-200 0 -309 97l-104 -97l-81 78l116 107q-47 90 -47 217q0 185 79.5 361.5t225.5 267.5t344 91q206 0 312 -87l97 89l82 -78l-106 -98q46 -84 46 -210q0 -138 -46 -284t-130.5 -246.5t-204.5 -154t-274 -53.5zM863 698l-475 -439q38 -87 147 -87q104 0 171 60.5 t107.5 191t49.5 274.5zM369 394l472 438q-38 77 -149 77q-105 0 -172 -62.5t-107 -198t-44 -254.5z" />
<glyph unicode="&#xf9;" d="M521 1082l-118 -607q-12 -63 -12 -115q0 -170 129 -170q91 0 167 89.5t101 222.5l112 580h281l-163 -840q-14 -66 -25 -142.5t-14 -99.5h-268q8 92 30 215h-5q-153 -235 -374 -235q-270 0 -270 273q0 67 15 142l133 687h281zM718 1184l-295 231l8 43h258l205 -243l-6 -31 h-170z" />
<glyph unicode="&#xfa;" d="M521 1082l-118 -607q-12 -63 -12 -115q0 -170 129 -170q91 0 167 89.5t101 222.5l112 580h281l-163 -840q-14 -66 -25 -142.5t-14 -99.5h-268q8 92 30 215h-5q-153 -235 -374 -235q-270 0 -270 273q0 67 15 142l133 687h281zM582 1184l6 31l299 243h258l-8 -43l-385 -231 h-170z" />
<glyph unicode="&#xfb;" d="M521 1082l-118 -607q-12 -63 -12 -115q0 -170 129 -170q91 0 167 89.5t101 222.5l112 580h281l-163 -840q-14 -66 -25 -142.5t-14 -99.5h-268q8 92 30 215h-5q-153 -235 -374 -235q-270 0 -270 273q0 67 15 142l133 687h281zM1113 1211l-5 -28h-159l-177 134h-4 l-237 -134h-160l5 28l307 250h229z" />
<glyph unicode="&#xfc;" d="M521 1082l-118 -607q-12 -63 -12 -115q0 -170 129 -170q91 0 167 89.5t101 222.5l112 580h281l-163 -840q-14 -66 -25 -142.5t-14 -99.5h-268q8 92 30 215h-5q-153 -235 -374 -235q-270 0 -270 273q0 67 15 142l133 687h281zM845 1219l43 219h227l-43 -219h-227z M421 1219l43 219h224l-43 -219h-224z" />
<glyph unicode="&#xfd;" d="M137 -425q-107 0 -179 13l39 200l50 -5l50 -3q85 0 144 43t115 140l27 48l-240 1071h297l88 -527q2 -9 4 -26.5t4 -34t15 -143t13 -130.5l17 37l137 293l283 531h294l-669 -1139q-122 -207 -231.5 -287.5t-257.5 -80.5zM599 1184l6 31l299 243h258l-8 -43l-385 -231h-170 z" />
<glyph unicode="&#xfe;" d="M326 1484h281l-80 -412l-36 -168h4q149 199 359 199q144 0 219.5 -95t75.5 -268q0 -128 -40 -277.5t-110.5 -258t-167 -166.5t-213.5 -58q-98 0 -167.5 50t-98.5 142h-6q0 -16 -9.5 -71.5t-19.5 -110.5l-81 -415h-281zM863 706q0 202 -156 202q-101 0 -176.5 -96 t-111.5 -275q-15 -79 -15 -144q0 -109 42 -165t116 -56q94 0 158.5 70.5t103.5 212.5t39 251z" />
<glyph unicode="&#xff;" d="M137 -425q-107 0 -179 13l39 200l50 -5l50 -3q85 0 144 43t115 140l27 48l-240 1071h297l88 -527q2 -9 4 -26.5t4 -34t15 -143t13 -130.5l17 37l137 293l283 531h294l-669 -1139q-122 -207 -231.5 -287.5t-257.5 -80.5zM850 1219l43 219h227l-43 -219h-227zM426 1219 l43 219h224l-43 -219h-224z" />
<glyph unicode="&#x100;" d="M1124 0h-294l-28 330h-456l-156 -330h-295l705 1349h344zM737 1167q-16 -41 -46.5 -109t-239.5 -506h332l-34 380l-11 200zM523 1638h612l-32 -168h-612z" />
<glyph unicode="&#x101;" d="M330 -20q-134 0 -206.5 62t-72.5 180q0 39 9 84q68 341 485 346l224 4l10 55q10 48 10 84q0 125 -117 125q-71 0 -113 -36t-67 -117l-290 14q113 321 517 321q173 0 262.5 -72.5t89.5 -213.5q0 -46 -11 -104l-76 -392q-11 -55 -11 -85q0 -37 15.5 -56t53.5 -19q32 0 63 6 l-29 -152q-26 -6 -47 -11t-41.5 -8t-43.5 -5t-53 -2q-95 0 -137 41.5t-42 122.5l2 41h-6q-86 -113 -177 -163t-201 -50zM738 501l-134 -2q-105 -2 -155 -28t-73.5 -82.5t-23.5 -114.5q0 -98 96 -98q98 0 178 78.5t102 191.5zM462 1371h612l-32 -168h-612z" />
<glyph unicode="&#x102;" d="M1124 0h-294l-28 330h-456l-156 -330h-295l705 1349h344zM737 1167q-16 -41 -46.5 -109t-239.5 -506h332l-34 380l-11 200zM784 1427q-148 0 -224 61.5t-76 175.5q0 30 2 41h163v-10q0 -111 167 -111q88 0 138 29t76 92h164q-88 -278 -410 -278z" />
<glyph unicode="&#x103;" d="M330 -20q-134 0 -206.5 62t-72.5 180q0 39 9 84q68 341 485 346l224 4l10 55q10 48 10 84q0 125 -117 125q-71 0 -113 -36t-67 -117l-290 14q113 321 517 321q173 0 262.5 -72.5t89.5 -213.5q0 -46 -11 -104l-76 -392q-11 -55 -11 -85q0 -37 15.5 -56t53.5 -19q32 0 63 6 l-29 -152q-26 -6 -47 -11t-41.5 -8t-43.5 -5t-53 -2q-95 0 -137 41.5t-42 122.5l2 41h-6q-86 -113 -177 -163t-201 -50zM738 501l-134 -2q-105 -2 -155 -28t-73.5 -82.5t-23.5 -114.5q0 -98 96 -98q98 0 178 78.5t102 191.5zM718 1183q-148 0 -224 61.5t-76 175.5q0 30 2 41 h163v-10q0 -111 167 -111q88 0 138 29t76 92h164q-88 -278 -410 -278z" />
<glyph unicode="&#x104;" d="M1124 0h-294l-28 330h-456l-156 -330h-295l705 1349h344zM737 1167q-16 -41 -46.5 -109t-239.5 -506h332l-34 380l-11 200zM891 -414q-91 0 -146.5 39.5t-55.5 117.5q0 84 58.5 164t151.5 125h153q-79 -46 -125.5 -113.5t-46.5 -119.5q0 -26 16.5 -48t61.5 -22 q55 0 117 27l-26 -137q-69 -33 -158 -33z" />
<glyph unicode="&#x105;" d="M330 -20q-134 0 -206.5 62t-72.5 180q0 39 9 84q68 341 485 346l224 4l10 55q10 48 10 84q0 125 -117 125q-71 0 -113 -36t-67 -117l-290 14q113 321 517 321q173 0 262.5 -72.5t89.5 -213.5q0 -46 -11 -104l-76 -392q-11 -55 -11 -85q0 -37 15.5 -56t53.5 -19q32 0 63 6 l-29 -152q-26 -6 -47 -11t-41.5 -8t-43.5 -5t-53 -2q-95 0 -137 41.5t-42 122.5l2 41h-6q-86 -113 -177 -163t-201 -50zM738 501l-134 -2q-105 -2 -155 -28t-73.5 -82.5t-23.5 -114.5q0 -98 96 -98q98 0 178 78.5t102 191.5zM832 -425q-91 0 -146.5 39.5t-55.5 117.5 q0 84 58.5 164t151.5 125h153q-79 -46 -125.5 -113.5t-46.5 -119.5q0 -26 16.5 -48t61.5 -22q55 0 117 27l-26 -137q-69 -33 -158 -33z" />
<glyph unicode="&#x106;" d="M386 486q0 -274 209 -274q164 0 288 244l263 -52q-218 -424 -599 -424q-230 0 -347 118.5t-117 350.5q0 108 24 232q136 689 702 689q375 0 421 -389l-285 -66q-9 107 -55 165t-122 58q-117 0 -200.5 -85.5t-132.5 -254.5t-49 -312zM671 1428l6 31l299 243h258l-8 -43 l-385 -231h-170z" />
<glyph unicode="&#x107;" d="M515 -20q-204 0 -313 103t-109 295q0 133 46 274.5t131.5 243t204.5 154t262 52.5q190 0 296.5 -95t106.5 -261v-5l-286 -14l1 19q0 70 -36.5 116.5t-124.5 46.5q-96 0 -161 -67.5t-105 -204.5t-40 -252q0 -213 166 -213q80 0 144.5 50.5t96.5 150.5l279 -13 q-35 -109 -116 -196t-195.5 -135.5t-247.5 -48.5zM594 1184l6 31l299 243h258l-8 -43l-385 -231h-170z" />
<glyph unicode="&#x108;" d="M386 486q0 -274 209 -274q164 0 288 244l263 -52q-218 -424 -599 -424q-230 0 -347 118.5t-117 350.5q0 108 24 232q136 689 702 689q375 0 421 -389l-285 -66q-9 107 -55 165t-122 58q-117 0 -200.5 -85.5t-132.5 -254.5t-49 -312zM1180 1455l-5 -28h-159l-177 134h-4 l-237 -134h-160l5 28l307 250h229z" />
<glyph unicode="&#x109;" d="M515 -20q-204 0 -313 103t-109 295q0 133 46 274.5t131.5 243t204.5 154t262 52.5q190 0 296.5 -95t106.5 -261v-5l-286 -14l1 19q0 70 -36.5 116.5t-124.5 46.5q-96 0 -161 -67.5t-105 -204.5t-40 -252q0 -213 166 -213q80 0 144.5 50.5t96.5 150.5l279 -13 q-35 -109 -116 -196t-195.5 -135.5t-247.5 -48.5zM1113 1211l-5 -28h-159l-177 134h-4l-237 -134h-160l5 28l307 250h229z" />
<glyph unicode="&#x10a;" d="M386 486q0 -274 209 -274q164 0 288 244l263 -52q-218 -424 -599 -424q-230 0 -347 118.5t-117 350.5q0 108 24 232q136 689 702 689q375 0 421 -389l-285 -66q-9 107 -55 165t-122 58q-117 0 -200.5 -85.5t-132.5 -254.5t-49 -312zM675 1421l41 207h281l-41 -207h-281z " />
<glyph unicode="&#x10b;" d="M515 -20q-204 0 -313 103t-109 295q0 133 46 274.5t131.5 243t204.5 154t262 52.5q190 0 296.5 -95t106.5 -261v-5l-286 -14l1 19q0 70 -36.5 116.5t-124.5 46.5q-96 0 -161 -67.5t-105 -204.5t-40 -252q0 -213 166 -213q80 0 144.5 50.5t96.5 150.5l279 -13 q-35 -109 -116 -196t-195.5 -135.5t-247.5 -48.5zM635 1267l41 207h281l-41 -207h-281z" />
<glyph unicode="&#x10c;" d="M386 486q0 -274 209 -274q164 0 288 244l263 -52q-218 -424 -599 -424q-230 0 -347 118.5t-117 350.5q0 108 24 232q136 689 702 689q375 0 421 -389l-285 -66q-9 107 -55 165t-122 58q-117 0 -200.5 -85.5t-132.5 -254.5t-49 -312zM922 1427h-229l-210 249l6 29h160 l185 -134h4l229 134h159l-6 -29z" />
<glyph unicode="&#x10d;" d="M515 -20q-204 0 -313 103t-109 295q0 133 46 274.5t131.5 243t204.5 154t262 52.5q190 0 296.5 -95t106.5 -261v-5l-286 -14l1 19q0 70 -36.5 116.5t-124.5 46.5q-96 0 -161 -67.5t-105 -204.5t-40 -252q0 -213 166 -213q80 0 144.5 50.5t96.5 150.5l279 -13 q-35 -109 -116 -196t-195.5 -135.5t-247.5 -48.5zM854 1183h-229l-210 249l6 29h160l185 -134h4l229 134h159l-6 -29z" />
<glyph unicode="&#x10e;" d="M451 0h-421l262 1349h361q546 0 546 -460q0 -155 -54 -333.5t-151.5 -303t-235.5 -188.5t-307 -64zM898 849q0 144 -73.5 208t-220.5 64h-61l-174 -893h102q319 0 409 457q18 93 18 164zM875 1427h-229l-210 249l6 29h160l185 -134h4l229 134h159l-6 -29z" />
<glyph unicode="&#x10f;" d="M535 0v8q0 22 7 81t12 87h-4q-67 -98 -139.5 -147t-164.5 -49q-113 0 -176 92.5t-63 261.5q0 180 64.5 370t170 293t233.5 103q173 0 220 -191h2l32 178l77 397h271l-242 -1248q-12 -59 -38 -236h-262zM647 715q0 90 -29 142t-80 52q-65 0 -121.5 -82t-90.5 -227 t-34 -244q0 -92 26.5 -138t73.5 -46q45 0 91 44.5t84 127.5t61 202q19 98 19 169zM1085 1129l7 33l91 322h231l-7 -37l-183 -318h-139z" />
<glyph unicode="&#x110;" d="M464 0h-421l110 564h-134l42 219h134l110 566h361q546 0 546 -460q0 -155 -54 -333.5t-151.5 -303t-235.5 -188.5t-307 -64zM911 849q0 144 -73.5 208t-220.5 64h-61l-66 -338h207l-42 -219h-207l-66 -336h102q319 0 409 457q18 93 18 164z" />
<glyph unicode="&#x111;" d="M1333 1180h-133l-183 -944q-12 -59 -38 -236h-272v8q0 22 7 81t12 87h-4q-68 -100 -154.5 -148t-199.5 -48q-144 0 -221.5 93t-77.5 265q0 124 40 271.5t108.5 249.5t162.5 155.5t211 53.5q108 0 177.5 -49.5t91.5 -141.5h2l57 303h-282l33 169h282l26 135h281l-26 -135 h133zM813 672q0 100 -41 152.5t-119 52.5q-91 0 -153 -67.5t-98.5 -202t-36.5 -239.5q0 -196 149 -196q102 0 176.5 95.5t106.5 262.5q16 80 16 142z" />
<glyph unicode="&#x112;" d="M32 0l262 1349h968l-44 -228h-673l-63 -324h612l-44 -228h-612l-67 -341h714l-44 -228h-1009zM539 1638h612l-32 -168h-612z" />
<glyph unicode="&#x113;" d="M517 -20q-207 0 -320 104.5t-113 300.5q0 126 42.5 263.5t130.5 242.5t212 158t270 53q197 0 299 -108t102 -309q0 -88 -20 -190l-1 -8h-734q-10 -50 -10 -99q0 -107 51 -163.5t142 -56.5q77 0 139.5 32.5t93.5 96.5l260 -23q-83 -141 -225 -217.5t-319 -76.5zM701 925 q-103 0 -177.5 -69.5t-102.5 -192.5h460l4 57q0 102 -51 153.5t-133 51.5zM471 1371h612l-32 -168h-612z" />
<glyph unicode="&#x114;" d="M32 0l262 1349h968l-44 -228h-673l-63 -324h612l-44 -228h-612l-67 -341h714l-44 -228h-1009zM784 1427q-148 0 -224 61.5t-76 175.5q0 30 2 41h163v-10q0 -111 167 -111q88 0 138 29t76 92h164q-88 -278 -410 -278z" />
<glyph unicode="&#x115;" d="M517 -20q-207 0 -320 104.5t-113 300.5q0 126 42.5 263.5t130.5 242.5t212 158t270 53q197 0 299 -108t102 -309q0 -88 -20 -190l-1 -8h-734q-10 -50 -10 -99q0 -107 51 -163.5t142 -56.5q77 0 139.5 32.5t93.5 96.5l260 -23q-83 -141 -225 -217.5t-319 -76.5zM701 925 q-103 0 -177.5 -69.5t-102.5 -192.5h460l4 57q0 102 -51 153.5t-133 51.5zM741 1183q-148 0 -224 61.5t-76 175.5q0 30 2 41h163v-10q0 -111 167 -111q88 0 138 29t76 92h164q-88 -278 -410 -278z" />
<glyph unicode="&#x116;" d="M32 0l262 1349h968l-44 -228h-673l-63 -324h612l-44 -228h-612l-67 -341h714l-44 -228h-1009zM645 1421l41 207h281l-41 -207h-281z" />
<glyph unicode="&#x117;" d="M517 -20q-207 0 -320 104.5t-113 300.5q0 126 42.5 263.5t130.5 242.5t212 158t270 53q197 0 299 -108t102 -309q0 -88 -20 -190l-1 -8h-734q-10 -50 -10 -99q0 -107 51 -163.5t142 -56.5q77 0 139.5 32.5t93.5 96.5l260 -23q-83 -141 -225 -217.5t-319 -76.5zM701 925 q-103 0 -177.5 -69.5t-102.5 -192.5h460l4 57q0 102 -51 153.5t-133 51.5zM618 1273l41 207h281l-41 -207h-281z" />
<glyph unicode="&#x118;" d="M32 0l262 1349h968l-44 -228h-673l-63 -324h612l-44 -228h-612l-67 -341h714l-44 -228h-1009zM800 -425q-91 0 -146.5 39.5t-55.5 117.5q0 84 58.5 164t151.5 125h153q-79 -46 -125.5 -113.5t-46.5 -119.5q0 -26 16.5 -48t61.5 -22q55 0 117 27l-26 -137 q-69 -33 -158 -33z" />
<glyph unicode="&#x119;" d="M517 -20q-207 0 -320 104.5t-113 300.5q0 126 42.5 263.5t130.5 242.5t212 158t270 53q197 0 299 -108t102 -309q0 -88 -20 -190l-1 -8h-734q-10 -50 -10 -99q0 -107 51 -163.5t142 -56.5q77 0 139.5 32.5t93.5 96.5l260 -23q-83 -141 -225 -217.5t-319 -76.5zM701 925 q-103 0 -177.5 -69.5t-102.5 -192.5h460l4 57q0 102 -51 153.5t-133 51.5zM531 -425q-91 0 -146.5 39.5t-55.5 117.5q0 84 58.5 164t151.5 125h153q-79 -46 -125.5 -113.5t-46.5 -119.5q0 -26 16.5 -48t61.5 -22q55 0 117 27l-26 -137q-69 -33 -158 -33z" />
<glyph unicode="&#x11a;" d="M32 0l262 1349h968l-44 -228h-673l-63 -324h612l-44 -228h-612l-67 -341h714l-44 -228h-1009zM916 1427h-229l-210 249l6 29h160l185 -134h4l229 134h159l-6 -29z" />
<glyph unicode="&#x11b;" d="M517 -20q-207 0 -320 104.5t-113 300.5q0 126 42.5 263.5t130.5 242.5t212 158t270 53q197 0 299 -108t102 -309q0 -88 -20 -190l-1 -8h-734q-10 -50 -10 -99q0 -107 51 -163.5t142 -56.5q77 0 139.5 32.5t93.5 96.5l260 -23q-83 -141 -225 -217.5t-319 -76.5zM701 925 q-103 0 -177.5 -69.5t-102.5 -192.5h460l4 57q0 102 -51 153.5t-133 51.5zM851 1183h-229l-210 249l6 29h160l185 -134h4l229 134h159l-6 -29z" />
<glyph unicode="&#x11c;" d="M526 -20q-216 0 -329 125.5t-113 354.5q0 161 54.5 351.5t144.5 313t219 184t297 61.5q179 0 275 -92t114 -283l-284 -54q-16 197 -147 197q-117 0 -195.5 -80.5t-127.5 -257.5t-49 -317q0 -267 202 -267q55 0 118 21.5t104 52.5l46 235h-274l42 218h544l-108 -558 q-282 -205 -533 -205zM1160 1455l-5 -28h-159l-177 134h-4l-237 -134h-160l5 28l307 250h229z" />
<glyph unicode="&#x11d;" d="M427 -434q-186 0 -287.5 76.5t-103.5 214.5l288 33q2 -65 41.5 -103t104.5 -38q204 0 261 288l36 174h-2q-69 -105 -164.5 -152t-202.5 -47q-141 0 -216.5 89t-75.5 258q0 129 39.5 276t109 251.5t165 158.5t211.5 54q107 0 176.5 -50t92.5 -141h5q33 139 48 174h266 l-23 -101l-31 -149l-156 -799q-45 -229 -195 -348t-387 -119zM849 692q0 99 -41 156.5t-115 57.5q-87 0 -152 -70t-101.5 -199.5t-36.5 -229.5q0 -200 152 -200q87 0 154.5 69.5t103.5 192t36 223.5zM1104 1211l-5 -28h-159l-177 134h-4l-237 -134h-160l5 28l307 250h229z " />
<glyph unicode="&#x11e;" d="M526 -20q-216 0 -329 125.5t-113 354.5q0 161 54.5 351.5t144.5 313t219 184t297 61.5q179 0 275 -92t114 -283l-284 -54q-16 197 -147 197q-117 0 -195.5 -80.5t-127.5 -257.5t-49 -317q0 -267 202 -267q55 0 118 21.5t104 52.5l46 235h-274l42 218h544l-108 -558 q-282 -205 -533 -205zM787 1427q-148 0 -224 61.5t-76 175.5q0 30 2 41h163v-10q0 -111 167 -111q88 0 138 29t76 92h164q-88 -278 -410 -278z" />
<glyph unicode="&#x11f;" d="M427 -434q-186 0 -287.5 76.5t-103.5 214.5l288 33q2 -65 41.5 -103t104.5 -38q204 0 261 288l36 174h-2q-69 -105 -164.5 -152t-202.5 -47q-141 0 -216.5 89t-75.5 258q0 129 39.5 276t109 251.5t165 158.5t211.5 54q107 0 176.5 -50t92.5 -141h5q33 139 48 174h266 l-23 -101l-31 -149l-156 -799q-45 -229 -195 -348t-387 -119zM849 692q0 99 -41 156.5t-115 57.5q-87 0 -152 -70t-101.5 -199.5t-36.5 -229.5q0 -200 152 -200q87 0 154.5 69.5t103.5 192t36 223.5zM728 1183q-148 0 -224 61.5t-76 175.5q0 30 2 41h163v-10 q0 -111 167 -111q88 0 138 29t76 92h164q-88 -278 -410 -278z" />
<glyph unicode="&#x120;" d="M526 -20q-216 0 -329 125.5t-113 354.5q0 161 54.5 351.5t144.5 313t219 184t297 61.5q179 0 275 -92t114 -283l-284 -54q-16 197 -147 197q-117 0 -195.5 -80.5t-127.5 -257.5t-49 -317q0 -267 202 -267q55 0 118 21.5t104 52.5l46 235h-274l42 218h544l-108 -558 q-282 -205 -533 -205zM655 1421l41 207h281l-41 -207h-281z" />
<glyph unicode="&#x121;" d="M427 -434q-186 0 -287.5 76.5t-103.5 214.5l288 33q2 -65 41.5 -103t104.5 -38q204 0 261 288l36 174h-2q-69 -105 -164.5 -152t-202.5 -47q-141 0 -216.5 89t-75.5 258q0 129 39.5 276t109 251.5t165 158.5t211.5 54q107 0 176.5 -50t92.5 -141h5q33 139 48 174h266 l-23 -101l-31 -149l-156 -799q-45 -229 -195 -348t-387 -119zM849 692q0 99 -41 156.5t-115 57.5q-87 0 -152 -70t-101.5 -199.5t-36.5 -229.5q0 -200 152 -200q87 0 154.5 69.5t103.5 192t36 223.5zM606 1267l41 207h281l-41 -207h-281z" />
<glyph unicode="&#x122;" d="M526 -20q-216 0 -329 125.5t-113 354.5q0 161 54.5 351.5t144.5 313t219 184t297 61.5q179 0 275 -92t114 -283l-284 -54q-16 197 -147 197q-117 0 -195.5 -80.5t-127.5 -257.5t-49 -317q0 -267 202 -267q55 0 118 21.5t104 52.5l46 235h-274l42 218h544l-108 -558 q-282 -205 -533 -205zM242 -453l6 33l152 322h257l-7 -37l-243 -318h-165z" />
<glyph unicode="&#x123;" d="M427 -434q-186 0 -287.5 76.5t-103.5 214.5l288 33q2 -65 41.5 -103t104.5 -38q204 0 261 288l36 174h-2q-69 -105 -164.5 -152t-202.5 -47q-141 0 -216.5 89t-75.5 258q0 129 39.5 276t109 251.5t165 158.5t211.5 54q107 0 176.5 -50t92.5 -141h5q33 139 48 174h266 l-23 -101l-31 -149l-156 -799q-45 -229 -195 -348t-387 -119zM849 692q0 99 -41 156.5t-115 57.5q-87 0 -152 -70t-101.5 -199.5t-36.5 -229.5q0 -200 152 -200q87 0 154.5 69.5t103.5 192t36 223.5zM989 1566l-6 -33l-152 -322h-257l8 37l242 318h165z" />
<glyph unicode="&#x124;" d="M691 0l112 574h-363l-112 -574h-295l262 1349h295l-103 -531h363l103 531h295l-262 -1349h-295zM1159 1455l-5 -28h-159l-177 134h-4l-237 -134h-160l5 28l307 250h229z" />
<glyph unicode="&#x125;" d="M483 866q81 124 178 180t216 56q271 0 271 -267q0 -69 -16 -149l-133 -686h-280l121 621q15 77 15 128q0 69 -30 105.5t-106 36.5q-102 0 -180 -86.5t-107 -225.5l-113 -579h-281l262 1349h281l-52 -270q-13 -71 -41 -177l-9 -36h4zM1161 1455l-6 -28h-159l-177 134h-4 l-237 -134h-160l6 28l306 250h229z" />
<glyph unicode="&#x126;" d="M691 0l112 574h-363l-112 -574h-295l195 1004h-136l33 168h136l34 177h295l-34 -177h363l34 177h295l-34 -177h135l-33 -168h-135l-195 -1004h-295zM850 818l36 186h-363l-36 -186h363z" />
<glyph unicode="&#x127;" d="M476 826q153 236 393 236q272 0 272 -268q0 -70 -16 -148l-126 -646h-280l113 581q15 72 15 128q0 68 -30 105t-106 37q-102 0 -180 -86.5t-107 -225.5l-105 -539h-281l229 1180h-134l33 169h134l26 135h281l-26 -135h300l-33 -169h-300q-14 -72 -28 -146.5t-48 -207.5h4 z" />
<glyph unicode="&#x128;" d="M314 1349h916l-44 -228h-316l-174 -893h316l-44 -228h-916l44 228h316l174 893h-316zM952 1422q-44 0 -85 17.5t-79 39t-72 39t-64 17.5q-48 0 -74.5 -26t-45.5 -87h-137q40 153 108.5 218t171.5 65q45 0 87 -17.5t79.5 -39t70.5 -39t62 -17.5q50 0 75.5 28t45.5 85h135 q-37 -150 -107 -216.5t-171 -66.5z" />
<glyph unicode="&#x129;" d="M726 190h353l-37 -190h-1029l37 190h395l136 702h-290l37 190h571zM907 1183q-44 0 -85 17.5t-79 39t-72 39t-64 17.5q-48 0 -74.5 -26t-45.5 -87h-137q40 153 108.5 218t171.5 65q45 0 87 -17.5t79.5 -39t70.5 -39t62 -17.5q50 0 75.5 28t45.5 85h135 q-37 -150 -107 -216.5t-171 -66.5z" />
<glyph unicode="&#x12a;" d="M314 1349h916l-44 -228h-316l-174 -893h316l-44 -228h-916l44 228h316l174 893h-316zM523 1638h612l-32 -168h-612z" />
<glyph unicode="&#x12b;" d="M726 190h353l-37 -190h-1029l37 190h395l136 702h-290l37 190h571zM477 1371h612l-32 -168h-612z" />
<glyph unicode="&#x12c;" d="M314 1349h916l-44 -228h-316l-174 -893h316l-44 -228h-916l44 228h316l174 893h-316zM784 1427q-148 0 -224 61.5t-76 175.5q0 30 2 41h163v-10q0 -111 167 -111q88 0 138 29t76 92h164q-88 -278 -410 -278z" />
<glyph unicode="&#x12d;" d="M726 190h353l-37 -190h-1029l37 190h395l136 702h-290l37 190h571zM757 1183q-148 0 -224 61.5t-76 175.5q0 30 2 41h163v-10q0 -111 167 -111q88 0 138 29t76 92h164q-88 -278 -410 -278z" />
<glyph unicode="&#x12e;" d="M314 1349h916l-44 -228h-316l-174 -893h316l-44 -228h-916l44 228h316l174 893h-316zM482 -425q-91 0 -146.5 39.5t-55.5 117.5q0 84 58.5 164t151.5 125h153q-79 -46 -125.5 -113.5t-46.5 -119.5q0 -26 16.5 -48t61.5 -22q55 0 117 27l-26 -137q-69 -33 -158 -33z" />
<glyph unicode="&#x12f;" d="M726 190h353l-37 -190h-1029l37 190h395l136 702h-290l37 190h571zM656 1277l40 207h281l-40 -207h-281zM525 -425q-91 0 -146.5 39.5t-55.5 117.5q0 84 58.5 164t151.5 125h153q-79 -46 -125.5 -113.5t-46.5 -119.5q0 -26 16.5 -48t61.5 -22q55 0 117 27l-26 -137 q-69 -33 -158 -33z" />
<glyph unicode="&#x130;" d="M314 1349h916l-44 -228h-316l-174 -893h316l-44 -228h-916l44 228h316l174 893h-316zM645 1421l41 207h281l-41 -207h-281z" />
<glyph unicode="&#x131;" d="M726 190h353l-37 -190h-1029l37 190h395l136 702h-290l37 190h571z" />
<glyph unicode="&#x132;" d="M230 1349h284l-262 -1349h-284zM675 -20q-155 0 -227 69.5t-72 218.5q0 43 6 92l271 38l-4 -69q0 -60 17 -89t61 -29q46 0 73 47t48 156l137 704h-254l45 231h540l-175 -903q-91 -466 -466 -466z" />
<glyph unicode="&#x133;" d="M346 0h-281l210 1082h281zM313 1277l40 207h281l-40 -207h-281zM406 -425q-79 0 -157.5 13t-121.5 30l41 210q130 -34 256 -34q111 0 167 54t77 162l208 1072h282l-213 -1095q-25 -129 -100.5 -222t-189.5 -141.5t-249 -48.5zM915 1277l40 207h281l-40 -207h-281z" />
<glyph unicode="&#x134;" d="M455 -20q-190 0 -285.5 101.5t-95.5 288.5l1 32l299 43v-19q0 -104 32.5 -159.5t95.5 -55.5q73 0 127.5 59t75.5 169l132 679h-301l45 231h595l-175 -903q-43 -218 -188.5 -342t-357.5 -124zM1280 1455l-5 -28h-159l-177 134h-4l-237 -134h-160l5 28l307 250h229z" />
<glyph unicode="&#x135;" d="M217 -425q-79 0 -157.5 13t-121.5 30l41 210q130 -34 256 -34q111 0 167 54t77 162l171 882h-354l37 190h636l-213 -1095q-25 -129 -100.5 -222t-189.5 -141.5t-249 -48.5zM1155 1211l-5 -28h-159l-177 134h-4l-237 -134h-160l5 28l307 250h229z" />
<glyph unicode="&#x136;" d="M776 0l-215 557l-154 -142l-81 -415h-295l262 1349h295l-116 -599l552 599h343l-572 -579l329 -770h-348zM242 -453l6 33l152 322h257l-7 -37l-243 -318h-165z" />
<glyph unicode="&#x137;" d="M759 0l-194 490l-137 -84l-79 -406h-281l288 1484h281l-165 -850l473 448h302l-462 -422l281 -660h-307zM242 -453l6 33l152 322h257l-7 -37l-243 -318h-165z" />
<glyph unicode="&#x138;" d="M759 0l-198 470l-137 -84l-75 -386h-281l210 1082h281l-91 -468l477 468h302l-466 -442l285 -640h-307z" />
<glyph unicode="&#x139;" d="M106 0l262 1349h295l-218 -1121h616l-44 -228h-911zM442 1429l6 31l299 243h258l-8 -43l-385 -231h-170z" />
<glyph unicode="&#x13a;" d="M726 190h353l-37 -190h-1029l37 190h395l188 969h-290l37 190h571zM669 1431l6 31l299 243h258l-8 -43l-385 -231h-170z" />
<glyph unicode="&#x13b;" d="M106 0l262 1349h295l-218 -1121h616l-44 -228h-911zM252 -453l6 33l152 322h257l-7 -37l-243 -318h-165z" />
<glyph unicode="&#x13c;" d="M726 190h353l-37 -190h-1029l37 190h395l215 1104h-290l36 190h571zM242 -453l6 33l152 322h257l-7 -37l-243 -318h-165z" />
<glyph unicode="&#x13d;" d="M106 0l262 1349h295l-218 -1121h616l-44 -228h-911zM843 994l6 33l152 322h257l-7 -37l-243 -318h-165z" />
<glyph unicode="&#x13e;" d="M677 190h353l-37 -190h-1029l37 190h395l215 1104h-290l36 190h571zM969 1129l7 33l151 322h257l-7 -37l-243 -318h-165z" />
<glyph unicode="&#x13f;" d="M106 0l262 1349h295l-218 -1121h616l-44 -228h-911zM668 583l41 207h281l-41 -207h-281z" />
<glyph unicode="&#x140;" d="M726 190h353l-37 -190h-1029l37 190h395l215 1104h-290l36 190h571zM898 583l41 207h281l-41 -207h-281z" />
<glyph unicode="&#x141;" d="M378 1349h295l-105 -539l271 128l57 -181l-372 -177l-69 -352h616l-44 -228h-911l83 426l-137 -64l-61 181l243 114z" />
<glyph unicode="&#x142;" d="M874 950l234 121l53 -155l-327 -168l-108 -558h353l-37 -190h-1029l37 190h395l77 397l-218 -112l-55 154l312 160l99 505h-290l36 190h571z" />
<glyph unicode="&#x143;" d="M643 0l-188 1010l-12 -138q-18 -164 -28 -216l-128 -656h-257l262 1349h337l192 -1037q18 239 43 365l130 672h257l-262 -1349h-346zM662 1429l6 31l299 243h258l-8 -43l-385 -231h-170z" />
<glyph unicode="&#x144;" d="M719 0l120 619q15 74 15 127q0 75 -32 110.5t-101 35.5q-101 0 -180.5 -85.5t-108.5 -226.5l-113 -580h-281l163 840q33 166 39 242h268q0 -16 -9 -88.5t-19 -126.5h4q153 236 393 236q271 0 271 -273q0 -65 -15 -143l-134 -687h-280zM629 1184l6 31l299 243h258l-8 -43 l-385 -231h-170z" />
<glyph unicode="&#x145;" d="M643 0l-188 1010l-12 -138q-18 -164 -28 -216l-128 -656h-257l262 1349h337l192 -1037q18 239 43 365l130 672h257l-262 -1349h-346zM211 -453l6 33l152 322h257l-7 -37l-243 -318h-165z" />
<glyph unicode="&#x146;" d="M719 0l120 619q15 74 15 127q0 75 -32 110.5t-101 35.5q-101 0 -180.5 -85.5t-108.5 -226.5l-113 -580h-281l163 840q33 166 39 242h268q0 -16 -9 -88.5t-19 -126.5h4q153 236 393 236q271 0 271 -273q0 -65 -15 -143l-134 -687h-280zM215 -453l6 33l152 322h257l-7 -37 l-243 -318h-165z" />
<glyph unicode="&#x147;" d="M643 0l-188 1010l-12 -138q-18 -164 -28 -216l-128 -656h-257l262 1349h337l192 -1037q18 239 43 365l130 672h257l-262 -1349h-346zM900 1427h-229l-210 249l6 29h160l185 -134h4l229 134h159l-6 -29z" />
<glyph unicode="&#x148;" d="M719 0l120 619q15 74 15 127q0 75 -32 110.5t-101 35.5q-101 0 -180.5 -85.5t-108.5 -226.5l-113 -580h-281l163 840q33 166 39 242h268q0 -16 -9 -88.5t-19 -126.5h4q153 236 393 236q271 0 271 -273q0 -65 -15 -143l-134 -687h-280zM858 1183h-229l-210 249l6 29h160 l185 -134h4l229 134h159l-6 -29z" />
<glyph unicode="&#x149;" d="M800 0l120 619q15 77 15 131q0 142 -113 142q-90 0 -165.5 -88.5t-103.5 -223.5l-113 -580h-281l163 840q33 166 39 242h268q0 -16 -9 -88.5t-19 -126.5h4q154 236 373 236q251 0 251 -271q0 -65 -15 -145l-134 -687h-280zM88 995l7 33l151 322h257l-7 -37l-243 -318 h-165z" />
<glyph unicode="&#x14a;" d="M665 -20q-123 0 -187.5 60t-76.5 194l223 68q5 -58 20 -79t49 -21q48 0 78.5 61t60.5 212l73 373q20 100 20 160q0 76 -31 104t-94 28t-141 -62.5t-135.5 -161t-78.5 -207.5l-138 -709h-295l201 1032l57 317h288q-5 -52 -15.5 -119.5t-22.5 -131.5h4q77 123 193.5 197 t227.5 74q137 0 206.5 -71t69.5 -227q0 -89 -22 -202l-71 -367q-52 -265 -165.5 -393.5t-297.5 -128.5z" />
<glyph unicode="&#x14b;" d="M854 746q0 75 -32 110.5t-101 35.5q-101 0 -180.5 -85.5t-108.5 -226.5l-113 -580h-281l163 840q33 166 39 242h268q0 -16 -9 -88.5t-19 -126.5h4q153 236 393 236q271 0 271 -273q0 -65 -15 -143l-159 -815q-26 -139 -113.5 -218t-231.5 -79q-100 0 -168 9l39 198l50 -4 q73 0 105.5 32t51.5 130l132 679q15 74 15 127z" />
<glyph unicode="&#x14c;" d="M506 -20q-213 0 -322.5 115.5t-109.5 344.5q0 164 51.5 353.5t141.5 317t218.5 193.5t290.5 66q212 0 322.5 -113t110.5 -340q0 -164 -52 -354.5t-143.5 -320t-219.5 -196t-288 -66.5zM909 892q0 246 -178 246q-107 0 -184.5 -89t-125 -267t-47.5 -316q0 -254 177 -254 q106 0 184 91.5t126 270t48 318.5zM523 1638h612l-32 -168h-612z" />
<glyph unicode="&#x14d;" d="M501 -20q-208 0 -316.5 104t-108.5 299q0 184 79.5 360t224.5 267.5t345 91.5q431 0 431 -383q0 -76 -19 -177q-52 -269 -217 -415.5t-419 -146.5zM863 715q0 101 -41 147.5t-130 46.5q-107 0 -175 -65.5t-108 -208.5t-40 -257q0 -206 166 -206q109 0 178 67t109.5 214.5 t40.5 261.5zM471 1371h612l-32 -168h-612z" />
<glyph unicode="&#x14e;" d="M506 -20q-213 0 -322.5 115.5t-109.5 344.5q0 164 51.5 353.5t141.5 317t218.5 193.5t290.5 66q212 0 322.5 -113t110.5 -340q0 -164 -52 -354.5t-143.5 -320t-219.5 -196t-288 -66.5zM909 892q0 246 -178 246q-107 0 -184.5 -89t-125 -267t-47.5 -316q0 -254 177 -254 q106 0 184 91.5t126 270t48 318.5zM784 1427q-148 0 -224 61.5t-76 175.5q0 30 2 41h163v-10q0 -111 167 -111q88 0 138 29t76 92h164q-88 -278 -410 -278z" />
<glyph unicode="&#x14f;" d="M501 -20q-208 0 -316.5 104t-108.5 299q0 184 79.5 360t224.5 267.5t345 91.5q431 0 431 -383q0 -76 -19 -177q-52 -269 -217 -415.5t-419 -146.5zM863 715q0 101 -41 147.5t-130 46.5q-107 0 -175 -65.5t-108 -208.5t-40 -257q0 -206 166 -206q109 0 178 67t109.5 214.5 t40.5 261.5zM737 1183q-148 0 -224 61.5t-76 175.5q0 30 2 41h163v-10q0 -111 167 -111q88 0 138 29t76 92h164q-88 -278 -410 -278z" />
<glyph unicode="&#x150;" d="M506 -20q-213 0 -322.5 115.5t-109.5 344.5q0 164 51.5 353.5t141.5 317t218.5 193.5t290.5 66q212 0 322.5 -113t110.5 -340q0 -164 -52 -354.5t-143.5 -320t-219.5 -196t-288 -66.5zM909 892q0 246 -178 246q-107 0 -184.5 -89t-125 -267t-47.5 -316q0 -254 177 -254 q106 0 184 91.5t126 270t48 318.5zM615 1426h-142l6 34l273 245h235l-8 -43zM1021 1426h-142l6 34l273 245h235l-8 -43z" />
<glyph unicode="&#x151;" d="M501 -20q-208 0 -316.5 104t-108.5 299q0 184 79.5 360t224.5 267.5t345 91.5q431 0 431 -383q0 -76 -19 -177q-52 -269 -217 -415.5t-419 -146.5zM863 715q0 101 -41 147.5t-130 46.5q-107 0 -175 -65.5t-108 -208.5t-40 -257q0 -206 166 -206q109 0 178 67t109.5 214.5 t40.5 261.5zM587 1182h-142l6 34l273 245h235l-8 -43zM993 1182h-142l6 34l273 245h235l-8 -43z" />
<glyph unicode="&#x152;" d="M494 0l-79 -5q-199 0 -293.5 101t-94.5 310q0 158 48.5 361t129 332t197.5 192.5t279 63.5q39 0 88 -6h558l-39 -202h-313l-69 -355h287l-39 -200h-287l-76 -390h354l-39 -202h-612zM454 190q55 0 85 6l186 957q-36 6 -82 6q-112 0 -184.5 -94t-120.5 -295t-48 -339 q0 -241 164 -241z" />
<glyph unicode="&#x153;" d="M721 484q-16 -82 -16 -145q0 -169 103 -169q51 0 83.5 33t59.5 98l169 -45q-123 -276 -347 -276q-182 0 -227 183q-118 -183 -302 -183q-115 0 -178.5 80.5t-63.5 246.5q0 127 38 292.5t99 276.5t143.5 168.5t186.5 57.5q187 0 232 -177q119 177 293 177q236 0 236 -315 q0 -115 -29 -260l-8 -43h-472zM548 751q0 163 -102 163q-69 0 -117 -81t-83.5 -249t-35.5 -266q0 -150 85 -150q78 0 131.5 85.5t87.5 245t34 252.5zM948 914q-136 0 -191 -254h264q11 86 11 129q0 69 -20 97t-64 28z" />
<glyph unicode="&#x154;" d="M790 0l-190 515h-173l-100 -515h-295l262 1349h494q230 0 344 -78.5t114 -227.5q0 -70 -22.5 -145.5t-69.5 -138.5t-117 -109.5t-151 -68.5l236 -581h-332zM942 983q0 76 -59.5 106.5t-169.5 30.5h-168l-73 -376h176q252 0 289 193zM612 1429l6 31l299 243h258l-8 -43 l-385 -231h-170z" />
<glyph unicode="&#x155;" d="M1141 848q-107 19 -208 19q-155 0 -270 -117t-153 -312l-85 -438h-280l136 701q25 136 25 289l-3 92h271q6 -78 6 -127q0 -55 -4 -101h4q76 136 173 192t231 56q106 0 203 -17zM581 1184l6 31l299 243h258l-8 -43l-385 -231h-170z" />
<glyph unicode="&#x156;" d="M790 0l-190 515h-173l-100 -515h-295l262 1349h494q230 0 344 -78.5t114 -227.5q0 -70 -22.5 -145.5t-69.5 -138.5t-117 -109.5t-151 -68.5l236 -581h-332zM942 983q0 76 -59.5 106.5t-169.5 30.5h-168l-73 -376h176q252 0 289 193zM239 -453l6 33l152 322h257l-7 -37 l-243 -318h-165z" />
<glyph unicode="&#x157;" d="M1141 848q-107 19 -208 19q-155 0 -270 -117t-153 -312l-85 -438h-280l136 701q25 136 25 289l-3 92h271q6 -78 6 -127q0 -55 -4 -101h4q76 136 173 192t231 56q106 0 203 -17zM-30 -453l6 33l152 322h257l-7 -37l-243 -318h-165z" />
<glyph unicode="&#x158;" d="M790 0l-190 515h-173l-100 -515h-295l262 1349h494q230 0 344 -78.5t114 -227.5q0 -70 -22.5 -145.5t-69.5 -138.5t-117 -109.5t-151 -68.5l236 -581h-332zM942 983q0 76 -59.5 106.5t-169.5 30.5h-168l-73 -376h176q252 0 289 193zM885 1427h-229l-210 249l6 29h160 l185 -134h4l229 134h159l-6 -29z" />
<glyph unicode="&#x159;" d="M1141 848q-107 19 -208 19q-155 0 -270 -117t-153 -312l-85 -438h-280l136 701q25 136 25 289l-3 92h271q6 -78 6 -127q0 -55 -4 -101h4q76 136 173 192t231 56q106 0 203 -17zM878 1183h-229l-210 249l6 29h160l185 -134h4l229 134h159l-6 -29z" />
<glyph unicode="&#x15a;" d="M502 -20q-235 0 -363.5 99t-134.5 288l293 37q5 -94 67 -148.5t189 -54.5q99 0 163.5 23.5t98.5 72t34 106.5q0 106 -194 157q-223 57 -303 100.5t-124 105.5t-44 148q0 89 38 172.5t118 148.5t192.5 100t243.5 35q224 0 333 -88.5t110 -274.5l-292 -29q-8 183 -197 183 q-81 0 -137 -22.5t-85 -66.5t-29 -93q0 -40 23.5 -67t64 -46.5t167.5 -53.5q169 -45 250.5 -91t120.5 -109.5t39 -142.5q0 -132 -78 -248t-223.5 -178.5t-340.5 -62.5zM660 1429l6 31l299 243h258l-8 -43l-385 -231h-170z" />
<glyph unicode="&#x15b;" d="M511 -20q-224 0 -329 71t-114 219l255 37q5 -77 50.5 -109t173.5 -32q119 0 178.5 30t71.5 94l2 23q0 40 -39 66t-128 45q-199 41 -274 74t-115 84t-40 126q0 113 64 205.5t183 141t281 48.5q194 0 296.5 -75t104.5 -217l-254 -26q0 69 -41.5 100t-141.5 31t-155 -25.5 t-67 -85.5l-2 -21q0 -36 35.5 -60t111.5 -39l107 -26q140 -30 206 -64t101 -84.5t35 -124.5q0 -119 -68 -212.5t-194.5 -143.5t-293.5 -50zM578 1184l6 31l299 243h258l-8 -43l-385 -231h-170z" />
<glyph unicode="&#x15c;" d="M502 -20q-235 0 -363.5 99t-134.5 288l293 37q5 -94 67 -148.5t189 -54.5q99 0 163.5 23.5t98.5 72t34 106.5q0 106 -194 157q-223 57 -303 100.5t-124 105.5t-44 148q0 89 38 172.5t118 148.5t192.5 100t243.5 35q224 0 333 -88.5t110 -274.5l-292 -29q-8 183 -197 183 q-81 0 -137 -22.5t-85 -66.5t-29 -93q0 -40 23.5 -67t64 -46.5t167.5 -53.5q169 -45 250.5 -91t120.5 -109.5t39 -142.5q0 -132 -78 -248t-223.5 -178.5t-340.5 -62.5zM1164 1455l-5 -28h-159l-177 134h-4l-237 -134h-160l5 28l307 250h229z" />
<glyph unicode="&#x15d;" d="M511 -20q-224 0 -329 71t-114 219l255 37q5 -77 50.5 -109t173.5 -32q119 0 178.5 30t71.5 94l2 23q0 40 -39 66t-128 45q-199 41 -274 74t-115 84t-40 126q0 113 64 205.5t183 141t281 48.5q194 0 296.5 -75t104.5 -217l-254 -26q0 69 -41.5 100t-141.5 31t-155 -25.5 t-67 -85.5l-2 -21q0 -36 35.5 -60t111.5 -39l107 -26q140 -30 206 -64t101 -84.5t35 -124.5q0 -119 -68 -212.5t-194.5 -143.5t-293.5 -50zM1128 1211l-5 -28h-159l-177 134h-4l-237 -134h-160l5 28l307 250h229z" />
<glyph unicode="&#x15e;" d="M502 -20q-235 0 -363.5 99t-134.5 288l293 37q5 -94 67 -148.5t189 -54.5q99 0 163.5 23.5t98.5 72t34 106.5q0 106 -194 157q-223 57 -303 100.5t-124 105.5t-44 148q0 89 38 172.5t118 148.5t192.5 100t243.5 35q224 0 333 -88.5t110 -274.5l-292 -29q-8 183 -197 183 q-81 0 -137 -22.5t-85 -66.5t-29 -93q0 -40 23.5 -67t64 -46.5t167.5 -53.5q169 -45 250.5 -91t120.5 -109.5t39 -142.5q0 -132 -78 -248t-223.5 -178.5t-340.5 -62.5zM331 -445q-46 0 -100 6l23 118q32 -7 82 -7q153 0 153 83q0 25 -22.5 40t-88.5 15q-38 0 -52 -2l106 192 h143l-60 -102q159 -10 159 -119q0 -60 -37 -113.5t-116 -82t-190 -28.5z" />
<glyph unicode="&#x15f;" d="M511 -20q-224 0 -329 71t-114 219l255 37q5 -77 50.5 -109t173.5 -32q119 0 178.5 30t71.5 94l2 23q0 40 -39 66t-128 45q-199 41 -274 74t-115 84t-40 126q0 113 64 205.5t183 141t281 48.5q194 0 296.5 -75t104.5 -217l-254 -26q0 69 -41.5 100t-141.5 31t-155 -25.5 t-67 -85.5l-2 -21q0 -36 35.5 -60t111.5 -39l107 -26q140 -30 206 -64t101 -84.5t35 -124.5q0 -119 -68 -212.5t-194.5 -143.5t-293.5 -50zM341 -445q-46 0 -100 6l23 118q32 -7 82 -7q153 0 153 83q0 25 -22.5 40t-88.5 15q-38 0 -52 -2l106 192h143l-60 -102 q159 -10 159 -119q0 -60 -37 -113.5t-116 -82t-190 -28.5z" />
<glyph unicode="&#x160;" d="M502 -20q-235 0 -363.5 99t-134.5 288l293 37q5 -94 67 -148.5t189 -54.5q99 0 163.5 23.5t98.5 72t34 106.5q0 106 -194 157q-223 57 -303 100.5t-124 105.5t-44 148q0 89 38 172.5t118 148.5t192.5 100t243.5 35q224 0 333 -88.5t110 -274.5l-292 -29q-8 183 -197 183 q-81 0 -137 -22.5t-85 -66.5t-29 -93q0 -40 23.5 -67t64 -46.5t167.5 -53.5q169 -45 250.5 -91t120.5 -109.5t39 -142.5q0 -132 -78 -248t-223.5 -178.5t-340.5 -62.5zM905 1427h-229l-210 249l6 29h160l185 -134h4l229 134h159l-6 -29z" />
<glyph unicode="&#x161;" d="M511 -20q-224 0 -329 71t-114 219l255 37q5 -77 50.5 -109t173.5 -32q119 0 178.5 30t71.5 94l2 23q0 40 -39 66t-128 45q-199 41 -274 74t-115 84t-40 126q0 113 64 205.5t183 141t281 48.5q194 0 296.5 -75t104.5 -217l-254 -26q0 69 -41.5 100t-141.5 31t-155 -25.5 t-67 -85.5l-2 -21q0 -36 35.5 -60t111.5 -39l107 -26q140 -30 206 -64t101 -84.5t35 -124.5q0 -119 -68 -212.5t-194.5 -143.5t-293.5 -50zM863 1183h-229l-210 249l6 29h160l185 -134h4l229 134h159l-6 -29z" />
<glyph unicode="&#x162;" d="M875 1121l-218 -1121h-295l218 1121h-406l44 228h1107l-44 -228h-406zM202 -453l6 33l152 322h257l-7 -37l-243 -318h-165z" />
<glyph unicode="&#x163;" d="M396 892h-167l37 190h181l143 282h176l-55 -282h385l-37 -190h-385l-103 -530q-11 -60 -11 -83q0 -54 36 -77.5t114 -23.5q123 0 260 27l-36 -186q-39 -6 -76.5 -12t-77 -10.5t-83 -7t-94.5 -2.5q-162 0 -246 57t-84 180q0 29 5 63t118 605zM247 -453l6 33l152 322h257 l-7 -37l-243 -318h-165z" />
<glyph unicode="&#x164;" d="M875 1121l-218 -1121h-295l218 1121h-406l44 228h1107l-44 -228h-406zM905 1427h-229l-210 249l6 29h160l185 -134h4l229 134h159l-6 -29z" />
<glyph unicode="&#x165;" d="M287 892h-167l37 190h181l143 282h176l-55 -282h385l-37 -190h-385l-103 -530q-11 -60 -11 -83q0 -54 36 -77.5t114 -23.5q123 0 260 27l-36 -186q-39 -6 -76.5 -12t-77 -10.5t-83 -7t-94.5 -2.5q-162 0 -246 57t-84 180q0 29 5 63t118 605zM999 1129l7 33l151 322h257 l-7 -37l-243 -318h-165z" />
<glyph unicode="&#x166;" d="M875 1121l-67 -345h228l-37 -190h-228l-114 -586h-295l114 586h-227l37 190h227l67 345h-405l44 228h1106l-44 -228h-406z" />
<glyph unicode="&#x167;" d="M331 492h-165l37 190h165l40 210h-165l37 190h181l143 282h176l-55 -282h385l-37 -190h-385l-40 -210h385l-37 -190h-385l-26 -130q-11 -60 -11 -83q0 -54 36 -77.5t114 -23.5q123 0 260 27l-36 -186q-39 -6 -76.5 -12t-77 -10.5t-83 -7t-94.5 -2.5q-162 0 -246 57 t-84 180q0 39 13 112z" />
<glyph unicode="&#x168;" d="M490 -20q-199 0 -292 85.5t-93 264.5q0 88 22 198l159 821h295l-159 -818q-19 -95 -19 -164q0 -85 34 -120.5t106 -35.5q103 0 165 75.5t97 254.5l157 808h295l-156 -806q-57 -286 -206.5 -424.5t-404.5 -138.5zM952 1422q-44 0 -85 17.5t-79 39t-72 39t-64 17.5 q-48 0 -74.5 -26t-45.5 -87h-137q40 153 108.5 218t171.5 65q45 0 87 -17.5t79.5 -39t70.5 -39t62 -17.5q50 0 75.5 28t45.5 85h135q-37 -150 -107 -216.5t-171 -66.5z" />
<glyph unicode="&#x169;" d="M521 1082l-118 -607q-12 -63 -12 -115q0 -170 129 -170q91 0 167 89.5t101 222.5l112 580h281l-163 -840q-14 -66 -25 -142.5t-14 -99.5h-268q8 92 30 215h-5q-153 -235 -374 -235q-270 0 -270 273q0 67 15 142l133 687h281zM907 1183q-44 0 -85 17.5t-79 39t-72 39 t-64 17.5q-48 0 -74.5 -26t-45.5 -87h-137q40 153 108.5 218t171.5 65q45 0 87 -17.5t79.5 -39t70.5 -39t62 -17.5q50 0 75.5 28t45.5 85h135q-37 -150 -107 -216.5t-171 -66.5z" />
<glyph unicode="&#x16a;" d="M490 -20q-199 0 -292 85.5t-93 264.5q0 88 22 198l159 821h295l-159 -818q-19 -95 -19 -164q0 -85 34 -120.5t106 -35.5q103 0 165 75.5t97 254.5l157 808h295l-156 -806q-57 -286 -206.5 -424.5t-404.5 -138.5zM523 1638h612l-32 -168h-612z" />
<glyph unicode="&#x16b;" d="M521 1082l-118 -607q-12 -63 -12 -115q0 -170 129 -170q91 0 167 89.5t101 222.5l112 580h281l-163 -840q-14 -66 -25 -142.5t-14 -99.5h-268q8 92 30 215h-5q-153 -235 -374 -235q-270 0 -270 273q0 67 15 142l133 687h281zM471 1371h612l-32 -168h-612z" />
<glyph unicode="&#x16c;" d="M490 -20q-199 0 -292 85.5t-93 264.5q0 88 22 198l159 821h295l-159 -818q-19 -95 -19 -164q0 -85 34 -120.5t106 -35.5q103 0 165 75.5t97 254.5l157 808h295l-156 -806q-57 -286 -206.5 -424.5t-404.5 -138.5zM784 1427q-148 0 -224 61.5t-76 175.5q0 30 2 41h163v-10 q0 -111 167 -111q88 0 138 29t76 92h164q-88 -278 -410 -278z" />
<glyph unicode="&#x16d;" d="M521 1082l-118 -607q-12 -63 -12 -115q0 -170 129 -170q91 0 167 89.5t101 222.5l112 580h281l-163 -840q-14 -66 -25 -142.5t-14 -99.5h-268q8 92 30 215h-5q-153 -235 -374 -235q-270 0 -270 273q0 67 15 142l133 687h281zM737 1183q-148 0 -224 61.5t-76 175.5 q0 30 2 41h163v-10q0 -111 167 -111q88 0 138 29t76 92h164q-88 -278 -410 -278z" />
<glyph unicode="&#x16e;" d="M490 -20q-199 0 -292 85.5t-93 264.5q0 88 22 198l159 821h295l-159 -818q-19 -95 -19 -164q0 -85 34 -120.5t106 -35.5q103 0 165 75.5t97 254.5l157 808h295l-156 -806q-57 -286 -206.5 -424.5t-404.5 -138.5zM763 1306q-96 0 -151.5 43.5t-55.5 118.5q0 59 35 116 t101.5 89t148.5 32q95 0 151 -42t56 -119q0 -63 -37 -119.5t-102 -87.5t-146 -31zM906 1516q0 30 -25 45.5t-65 15.5q-58 0 -88.5 -27t-30.5 -56q0 -27 24 -43t67 -16q53 0 85.5 24t32.5 57z" />
<glyph unicode="&#x16f;" d="M521 1082l-118 -607q-12 -63 -12 -115q0 -170 129 -170q91 0 167 89.5t101 222.5l112 580h281l-163 -840q-14 -66 -25 -142.5t-14 -99.5h-268q8 92 30 215h-5q-153 -235 -374 -235q-270 0 -270 273q0 67 15 142l133 687h281zM732 1148q-96 0 -151.5 43.5t-55.5 118.5 q0 59 35 116t101.5 89t148.5 32q95 0 151 -42t56 -119q0 -63 -37 -119.5t-102 -87.5t-146 -31zM875 1358q0 30 -25 45.5t-65 15.5q-58 0 -88.5 -27t-30.5 -56q0 -27 24 -43t67 -16q53 0 85.5 24t32.5 57z" />
<glyph unicode="&#x170;" d="M490 -20q-199 0 -292 85.5t-93 264.5q0 88 22 198l159 821h295l-159 -818q-19 -95 -19 -164q0 -85 34 -120.5t106 -35.5q103 0 165 75.5t97 254.5l157 808h295l-156 -806q-57 -286 -206.5 -424.5t-404.5 -138.5zM578 1426h-142l6 34l273 245h235l-8 -43zM984 1426h-142 l6 34l273 245h235l-8 -43z" />
<glyph unicode="&#x171;" d="M521 1082l-118 -607q-12 -63 -12 -115q0 -170 129 -170q91 0 167 89.5t101 222.5l112 580h281l-163 -840q-14 -66 -25 -142.5t-14 -99.5h-268q8 92 30 215h-5q-153 -235 -374 -235q-270 0 -270 273q0 67 15 142l133 687h281zM528 1182h-142l6 34l273 245h235l-8 -43z M934 1182h-142l6 34l273 245h235l-8 -43z" />
<glyph unicode="&#x172;" d="M490 -20q-199 0 -292 85.5t-93 264.5q0 88 22 198l159 821h295l-159 -818q-19 -95 -19 -164q0 -85 34 -120.5t106 -35.5q103 0 165 75.5t97 254.5l157 808h295l-156 -806q-57 -286 -206.5 -424.5t-404.5 -138.5zM528 -425q-91 0 -146.5 39.5t-55.5 117.5q0 84 58.5 164 t151.5 125h153q-79 -46 -125.5 -113.5t-46.5 -119.5q0 -26 16.5 -48t61.5 -22q55 0 117 27l-26 -137q-69 -33 -158 -33z" />
<glyph unicode="&#x173;" d="M521 1082l-118 -607q-12 -63 -12 -115q0 -170 129 -170q91 0 167 89.5t101 222.5l112 580h281l-163 -840q-14 -66 -25 -142.5t-14 -99.5h-268q8 92 30 215h-5q-153 -235 -374 -235q-270 0 -270 273q0 67 15 142l133 687h281zM758 -425q-91 0 -146.5 39.5t-55.5 117.5 q0 84 58.5 164t151.5 125h153q-79 -46 -125.5 -113.5t-46.5 -119.5q0 -26 16.5 -48t61.5 -22q55 0 117 27l-26 -137q-69 -33 -158 -33z" />
<glyph unicode="&#x174;" d="M913 0h-248l-15 312q-5 59 -15 324q-3 -6 -281 -636h-248l51 1349h259l-46 -695q-4 -84 -36 -266q32 88 103 244l165 339h195q20 -205 31.5 -320t8.5 -217v-46l8 27q39 165 62 239l219 695h259zM1160 1455l-5 -28h-159l-177 134h-4l-237 -134h-160l5 28l307 250h229z" />
<glyph unicode="&#x175;" d="M923 0h-244l-51 471l-8 102q-5 -15 -16.5 -40.5t-271.5 -532.5h-243l27 1082h228l-35 -607q-9 -149 -25 -226l35 74l253 494h193l51 -455q7 -70 7 -113q16 78 65 226l209 607h226zM1113 1211l-5 -28h-159l-177 134h-4l-237 -134h-160l5 28l307 250h229z" />
<glyph unicode="&#x176;" d="M656 0h-294l108 556l-310 793h309l190 -566l414 566h309l-618 -793zM1160 1455l-5 -28h-159l-177 134h-4l-237 -134h-160l5 28l307 250h229z" />
<glyph unicode="&#x177;" d="M137 -425q-107 0 -179 13l39 200l50 -5l50 -3q85 0 144 43t115 140l27 48l-240 1071h297l88 -527q2 -9 4 -26.5t4 -34t15 -143t13 -130.5l17 37l137 293l283 531h294l-669 -1139q-122 -207 -231.5 -287.5t-257.5 -80.5zM1113 1211l-5 -28h-159l-177 134h-4l-237 -134 h-160l5 28l307 250h229z" />
<glyph unicode="&#x178;" d="M656 0h-294l108 556l-310 793h309l190 -566l414 566h309l-618 -793zM889 1445l43 219h227l-43 -219h-227zM465 1445l43 219h224l-43 -219h-224z" />
<glyph unicode="&#x179;" d="M1033 0h-1051l41 209l847 909h-595l45 231h934l-40 -205l-848 -913h712zM642 1429l6 31l299 243h258l-8 -43l-385 -231h-170z" />
<glyph unicode="&#x17a;" d="M33 0l39 199l702 680h-529l39 203h849l-39 -201l-698 -676h616l-40 -205h-939zM577 1184l6 31l299 243h258l-8 -43l-385 -231h-170z" />
<glyph unicode="&#x17b;" d="M1033 0h-1051l41 209l847 909h-595l45 231h934l-40 -205l-848 -913h712zM658 1421l41 207h281l-41 -207h-281z" />
<glyph unicode="&#x17c;" d="M33 0l39 199l702 680h-529l39 203h849l-39 -201l-698 -676h616l-40 -205h-939zM612 1267l41 207h281l-41 -207h-281z" />
<glyph unicode="&#x17d;" d="M1033 0h-1051l41 209l847 909h-595l45 231h934l-40 -205l-848 -913h712zM915 1427h-229l-210 249l6 29h160l185 -134h4l229 134h159l-6 -29z" />
<glyph unicode="&#x17e;" d="M33 0l39 199l702 680h-529l39 203h849l-39 -201l-698 -676h616l-40 -205h-939zM859 1183h-229l-210 249l6 29h160l185 -134h4l229 134h159l-6 -29z" />
<glyph unicode="&#x17f;" d="M984 1514q160 0 322 -28l-36 -184q-147 19 -274 19q-99 0 -153.5 -41.5t-73.5 -140.5l-221 -1139h-280l226 1165q34 173 160 261t330 88z" />
<glyph unicode="&#x180;" d="M171 1345h133l27 139h281l-27 -139h305l-33 -170h-305q-41 -214 -66 -321h4q71 112 162 160t203 48q143 0 219 -95t76 -280q0 -206 -64 -369.5t-182 -250.5t-276 -87q-217 0 -267 194h-5q-8 -44 -24.5 -103.5t-23.5 -70.5h-273q26 90 56 247l180 928h-133zM854 654 q0 112 -38.5 162.5t-116.5 50.5q-146 0 -221 -123.5t-75 -350.5q0 -111 38.5 -166t119.5 -55q144 0 218.5 123.5t74.5 358.5z" />
<glyph unicode="&#x181;" d="M1150 441q0 -136 -69.5 -235.5t-194 -152.5t-285.5 -53h-402l221 1135h-28q-42 0 -65.5 -42t-23.5 -107q0 -45 10 -95l-218 -17l-3 95q0 186 96 283t274 97h345q188 0 286.5 -70.5t98.5 -205.5q0 -142 -86.5 -236.5t-249.5 -127.5q146 -16 220 -86t74 -182zM856 449 q0 71 -45 107.5t-131 36.5h-70l-73 -374h77q117 0 179.5 59t62.5 171zM884 1009q0 121 -141 121h-29l-62 -319h31q99 0 150 52t51 146z" />
<glyph unicode="&#x182;" d="M295 1349h917l-44 -228h-622l-55 -280h238q200 0 310 -85t110 -246q0 -145 -76 -262t-216 -182.5t-323 -65.5h-502l2 3zM843 459q0 77 -60 120.5t-182 43.5h-152l-78 -404h158q156 0 235 62.5t79 177.5z" />
<glyph unicode="&#x183;" d="M35 0q8 34 23.5 95.5t30.5 140.5l243 1248h836l-41 -213h-556l-35 -181l-37 -178h2q58 91 150 141t204 50q144 0 221.5 -103t77.5 -292q0 -199 -68 -367.5t-189 -264.5t-269 -96q-105 0 -174 50.5t-94 145.5h-4q-9 -49 -26.5 -108t-22.5 -68h-272zM410 426 q0 -118 41.5 -186t114.5 -68q131 0 211 141.5t80 362.5q0 236 -149 236q-85 0 -156 -63.5t-106.5 -171.5t-35.5 -251z" />
<glyph unicode="&#x184;" d="M1149 510q0 -145 -76 -262t-216 -182.5t-323 -65.5h-502l183 943l-109 143l7 36l401 227h75l-99 -508h239q200 0 310 -85t110 -246zM843 459q0 77 -60 120.5t-182 43.5h-153l-78 -404h159q156 0 235 62.5t79 177.5z" />
<glyph unicode="&#x185;" d="M35 0l23 96l31 140l167 861l-115 143l7 36l389 208h76l-77 -394l-37 -178h2q58 91 150 141t204 50q146 0 222.5 -95t76.5 -280q0 -201 -69 -375t-189.5 -273.5t-267.5 -99.5q-105 0 -174 50.5t-94 145.5h-4q-9 -49 -26.5 -108t-22.5 -68h-272zM410 406q0 -234 156 -234 q129 0 210 149.5t81 374.5q0 113 -36 164.5t-113 51.5q-79 0 -147.5 -62t-109.5 -176.5t-41 -267.5z" />
<glyph unicode="&#x186;" d="M922 864q0 274 -209 274q-164 0 -288 -244l-263 52q218 424 599 424q230 0 347 -118.5t117 -350.5q0 -108 -24 -232q-136 -689 -702 -689q-375 0 -421 389l285 66q9 -107 55 -165t122 -58q117 0 200.5 85.5t132.5 254.5t49 312z" />
<glyph unicode="&#x187;" d="M386 486q0 -274 209 -274q164 0 288 244l263 -52q-218 -424 -599 -424q-230 0 -347 118.5t-117 350.5q0 107 24 232q137 689 702 689q99 0 175 -28q26 124 65 184.5t100.5 90t153.5 29.5q91 0 138 -17l-40 -204q-26 12 -64 12t-58 -25t-38 -116l-37 -192q19 -59 26 -123 l-285 -66q-9 107 -55 165t-122 58q-117 0 -200.5 -85.5t-132.5 -254.5t-49 -312z" />
<glyph unicode="&#x188;" d="M515 -20q-204 0 -313 103t-109 295q0 133 46 274.5t131.5 243t204.5 154t262 52.5q122 0 208 -39v1q32 131 124 197.5t234 66.5q75 0 149 -17l-39 -201q-55 12 -86 12q-52 0 -88 -30t-52 -111l-47 -240l-286 -14l1 19q0 70 -36.5 116.5t-124.5 46.5q-96 0 -161 -67.5 t-105 -204.5t-40 -252q0 -213 166 -213q80 0 144.5 50.5t96.5 150.5l279 -13q-35 -110 -116 -197t-195.5 -135t-247.5 -48z" />
<glyph unicode="&#x189;" d="M464 0h-421l110 564h-134l42 219h134l110 566h361q546 0 546 -460q0 -155 -54 -333.5t-151.5 -303t-235.5 -188.5t-307 -64zM911 849q0 144 -73.5 208t-220.5 64h-61l-66 -338h207l-42 -219h-207l-66 -336h102q319 0 409 457q18 93 18 164z" />
<glyph unicode="&#x18a;" d="M1251 870q0 -258 -82 -456.5t-235.5 -306t-353.5 -107.5h-381l221 1135h-28q-42 0 -65.5 -42t-23.5 -107q0 -45 10 -95l-218 -17l-3 95q0 186 96 283t274 97h321q468 0 468 -479zM952 846q0 144 -53.5 209.5t-165.5 65.5h-21l-173 -893h62q106 0 183.5 72t122.5 218 t45 328z" />
<glyph unicode="&#x18b;" d="M987 0h-502q-208 0 -327 95t-119 263q0 223 152 353t426 130h238l54 280h-522l44 228h817l-261 -1346v-3zM341 384q0 -165 235 -165h158l78 404h-152q-157 0 -238 -64.5t-81 -174.5z" />
<glyph unicode="&#x18c;" d="M712 0v8q0 66 19 168h-4q-74 -107 -161 -151.5t-193 -44.5q-144 0 -220 99t-76 285q0 202 68 375t185.5 267t271.5 94q106 0 175.5 -48.5t94.5 -142.5h2l13 74l55 288h-461l41 213h743l-243 -1248q-15 -77 -38 -236h-272zM821 686q0 223 -156 223q-132 0 -212.5 -144 t-80.5 -377q0 -116 37.5 -166t109.5 -50q77 0 147 63t112.5 178.5t42.5 272.5z" />
<glyph unicode="&#x18d;" d="M1179 678q0 -174 -66.5 -317t-192.5 -234.5t-292 -117.5l298 -253l-35 -180h-923l39 203h538l-357 299q-63 52 -97.5 142t-34.5 207q0 195 82.5 349.5t235 240t352.5 85.5q219 0 336 -109.5t117 -314.5zM884 668q0 241 -192 241q-162 0 -251 -123.5t-89 -343.5 q0 -127 50.5 -188.5t137.5 -61.5q165 0 254.5 124t89.5 352z" />
<glyph unicode="&#x18e;" d="M1249 1349l-262 -1349h-968l44 228h673l63 324h-612l45 228h612l66 341h-714l44 228h1009z" />
<glyph unicode="&#x18f;" d="M552 212q208 0 305 343h-478q-5 -48 -5 -90q0 -105 39 -179t139 -74zM718 1138q-82 0 -142.5 -49t-116.5 -152l-250 73q102 193 230.5 276.5t319.5 83.5q216 0 331 -135.5t115 -386.5q0 -257 -84.5 -454.5t-243.5 -305.5t-373 -108q-209 0 -321 129t-112 367 q0 192 42 278l14 36h776q6 48 6 89q0 105 -43.5 182t-147.5 77z" />
<glyph unicode="&#x190;" d="M486 -20q-216 0 -333 87.5t-117 248.5q0 159 97.5 256t287.5 124q-118 30 -173.5 91t-55.5 154q0 192 157.5 310t412.5 118q213 0 325 -89t141 -294l-280 -61q-11 92 -36 136.5t-70 67.5t-117 23q-250 0 -250 -217q0 -75 58 -105.5t188 -30.5h59l-44 -227h-59 q-138 0 -210.5 -19t-104.5 -61.5t-32 -131.5q0 -152 211 -152q112 0 195.5 54.5t159.5 188.5l246 -93q-107 -199 -264 -288.5t-392 -89.5z" />
<glyph unicode="&#x191;" d="M575 1121l-75 -384h621l-44 -228h-621l-105 -541q-39 -200 -133.5 -296.5t-260.5 -96.5q-57 0 -141 20l43 220q24 -5 37 -9t35 -4q54 0 80 33t43 123l270 1391h939l-44 -228h-644z" />
<glyph unicode="&#x192;" d="M1186 1158q-29 10 -76.5 16t-74.5 6q-80 0 -120.5 -27t-67.5 -100l-41 -107h302l-73 -190h-303l-462 -1181h-281l462 1181h-208l74 190h208l53 135q56 150 166.5 219.5t287.5 69.5q72 0 140.5 -12t94.5 -23z" />
<glyph unicode="&#x193;" d="M526 -20q-216 0 -329 125.5t-113 354.5q0 161 54.5 351.5t144.5 313t219 184t297 61.5q111 0 189 -35q34 164 107 229.5t208 65.5q87 0 134 -17l-39 -204q-29 12 -62 12q-38 0 -56.5 -24.5t-36.5 -116.5l-55 -285l-284 -54q-16 197 -147 197q-118 0 -196 -81t-127 -257.5 t-49 -316.5q0 -267 202 -267q55 0 118 21.5t104 52.5l46 235h-274l42 218h544l-108 -558q-282 -205 -533 -205z" />
<glyph unicode="&#x194;" d="M160 1349h301l150 -816l461 816h312l-669 -1079q54 -152 72 -234.5t18 -139.5q0 -150 -100 -235.5t-273 -85.5q-126 0 -196.5 58.5t-70.5 165.5q0 66 37 149t105.5 174.5t108.5 147.5zM573 -84q0 49 -14 96.5t-26 82.5q-60 -79 -78.5 -110t-31 -63t-12.5 -66 q0 -69 62 -69q41 0 70.5 30.5t29.5 98.5z" />
<glyph unicode="&#x195;" d="M719 -20q-125 0 -189 74t-65 221q0 78 20 181t54 266q15 64 15 102q0 28 -11.5 47.5t-47.5 19.5q-63 0 -109.5 -82.5t-73.5 -229.5l-113 -579h-229l288 1484h230l-79 -405q-9 -50 -47 -213h3q72 141 126.5 188.5t124.5 47.5q164 0 164 -214q0 -81 -23 -202 q-56 -292 -61 -329.5t-6 -67.5q0 -50 16.5 -74t53.5 -24q52 0 86 54.5t62 202.5l123 634h229l-122 -626q-45 -231 -153.5 -353.5t-265.5 -122.5z" />
<glyph unicode="&#x196;" d="M314 1349h916l-44 -228h-316l-174 -893h316l-44 -228h-916l44 228h316l174 893h-316z" />
<glyph unicode="&#x197;" d="M314 1349h916l-44 -228h-316l-63 -324h242l-44 -228h-242l-67 -341h316l-44 -228h-916l44 228h316l67 341h-243l44 228h243l63 324h-316z" />
<glyph unicode="&#x198;" d="M776 0l-215 557l-154 -142l-81 -415h-295l190 980q76 390 408 390q73 0 157 -20l-42 -220q-65 13 -93 13q-51 0 -82 -26t-45 -98l-52 -269l552 599h343l-572 -579l329 -770h-348z" />
<glyph unicode="&#x199;" d="M759 0l-194 490l-137 -84l-79 -406h-281l234 1203q27 138 129 214t256 76q94 0 179 -17l-39 -201q-19 5 -57.5 8.5t-54.5 3.5q-52 0 -89.5 -30t-53.5 -111l-99 -512l472 448h302l-462 -422l281 -660h-307z" />
<glyph unicode="&#x19a;" d="M850 826h225l-37 -187h-225l-87 -449h353l-37 -190h-1029l37 190h395l87 449h-223l37 187h223l91 468h-290l36 190h571z" />
<glyph unicode="&#x19b;" d="M227 1159l308 121l-43 204h298l19 -96l196 78l40 -173l-202 -80l233 -1213h-294l-110 797l-411 -797h-297l616 1071l-8 35l-304 -120z" />
<glyph unicode="&#x19c;" d="M885 1349l-180 -925q-24 -121 -24 -182q0 -45 14 -64t43 -19q49 0 94 92t75 249l165 849h236l-217 -1118q-7 -34 -13.5 -71.5t-12 -71t-9.5 -57.5t-4 -31h-209l11 73l17 102h-2q-100 -195 -254 -195q-88 0 -123.5 47.5t-35.5 143.5v5h-2q-62 -108 -125 -152t-146 -44 q-87 0 -127.5 45.5t-40.5 147.5q0 76 22 188l192 988h235l-180 -925q-26 -131 -26 -187q0 -42 13 -60t42 -18q51 0 94.5 80.5t74.5 241.5l169 868h234z" />
<glyph unicode="&#x19d;" d="M643 0l-188 1010l-13 -138q-18 -169 -28 -216l-139 -714q-41 -211 -117.5 -289t-228.5 -78q-75 0 -161 20l45 230q62 -13 92 -13q55 0 79 34.5t40 121.5l268 1381h337l191 -1037q18 235 43 365l131 672h257l-262 -1349h-346z" />
<glyph unicode="&#x19e;" d="M636 -424l203 1043q14 73 14 125q0 80 -32 114t-100 34q-102 0 -182.5 -88t-106.5 -224l-113 -580h-281l163 840q33 166 39 242h268q0 -16 -9 -88.5t-19 -126.5h4q80 123 177 179.5t216 56.5q134 0 202.5 -68t68.5 -203q0 -66 -15 -145l-216 -1111h-281z" />
<glyph unicode="&#x19f;" d="M506 -20q-213 0 -322.5 115.5t-109.5 344.5q0 164 51.5 353.5t141.5 317t218.5 193.5t290.5 66q212 0 322.5 -113.5t110.5 -339.5q0 -164 -52 -354.5t-143.5 -320t-219.5 -196t-288 -66.5zM551 212q214 0 311 368h-481q-7 -54 -7 -114q0 -254 177 -254zM731 1138 q-205 0 -301 -325h475l4 79q0 246 -178 246z" />
<glyph unicode="&#x1a0;" d="M490 -20q-205 0 -310.5 115.5t-105.5 344.5q0 163 48.5 350t136 317t211 196.5t280.5 66.5q394 0 416 -404q89 71 111 183h-92l50 260h214l-41 -210q-24 -124 -87 -221.5t-158 -155.5q-26 -262 -114.5 -454.5t-230.5 -290t-328 -97.5zM872 892q0 246 -166 246 q-99 0 -171 -88.5t-116.5 -265t-44.5 -318.5q0 -254 165 -254q98 0 170.5 91t117.5 268.5t45 320.5z" />
<glyph unicode="&#x1a1;" d="M1097 719q0 -53 -8 -111q95 64 125 214h-100l50 260h213l-41 -210q-61 -314 -273 -403q-61 -236 -211 -362.5t-374 -126.5q-196 0 -299 103.5t-103 299.5q0 138 44.5 279.5t124 239t191 149t254.5 51.5q407 0 407 -383zM805 715q0 101 -36.5 147.5t-114.5 46.5 q-96 0 -156 -67t-94.5 -207t-34.5 -257q0 -206 147 -206q98 0 158 67t95.5 217.5t35.5 258.5z" />
<glyph unicode="&#x1a2;" d="M413 -19q-177 0 -270 121.5t-93 357.5q0 263 81.5 471.5t222.5 323t319 114.5q125 0 221 -66l340 60h76l-344 -1769h-230l295 1519h-102l-197 -1015l-13 -19q-155 -98 -306 -98zM705 1137q-28 25 -76 25q-91 0 -167.5 -93.5t-120.5 -252.5t-44 -322q0 -145 41 -226 t115 -81q38 0 70 16z" />
<glyph unicode="&#x1a3;" d="M758 -403l247 1272h-112l-155 -796q-71 -43 -156 -67.5t-166 -24.5q-188 0 -290 102.5t-102 309.5q0 339 160 523.5t456 184.5q149 0 259 -68l298 60h74l-290 -1496h-223zM679 908q-24 9 -72 9q-175 0 -259.5 -124.5t-84.5 -381.5q0 -122 45 -184t142 -62q49 0 88 11z " />
<glyph unicode="&#x1a4;" d="M1263 1010q0 -155 -73 -277t-209.5 -189.5t-319.5 -67.5h-75l-93 -476h-285l221 1135h-37q-42 0 -65.5 -42t-23.5 -107q0 -45 10 -95l-218 -17l-3 95q0 181 99 280.5t281 99.5h347q219 0 331.5 -86t112.5 -253zM960 966q0 82 -53.5 118t-165.5 36h-30l-81 -417h38 q146 0 219 64.5t73 198.5z" />
<glyph unicode="&#x1a5;" d="M702 1277q-132 0 -158 -131l-47 -240h5q64 94 155 145.5t199 51.5q145 0 220.5 -100t75.5 -285q0 -204 -68.5 -377.5t-187 -267t-269.5 -93.5q-108 0 -178 50t-92 141h-2l-13 -74l-101 -522h-281l316 1628q27 138 131 214t257 76q102 0 191 -17l-41 -211q-19 5 -57.5 8.5 t-54.5 3.5zM408 396q0 -225 156 -225q129 0 211 144.5t82 379.5q0 115 -37.5 165.5t-109.5 50.5q-80 0 -153.5 -72t-111 -185.5t-37.5 -257.5z" />
<glyph unicode="&#x1a6;" d="M728 -310l-187 659h-146l-68 -349h-295l262 1349h295l-32 -166h199q230 0 344 -84t114 -240q0 -170 -103.5 -289.5t-290.5 -163.5l227 -716h-319zM910 809q0 73 -54 109t-176 36h-168l-73 -376h176q295 0 295 231z" />
<glyph unicode="&#x1a7;" d="M27 325q0 93 31.5 166t89 128t156 100t297.5 93q62 15 121.5 30.5t106 39.5t75 60t28.5 92q0 64 -50.5 95.5t-140.5 31.5q-189 0 -269 -183l-280 29q73 186 216 274.5t367 88.5q204 0 324.5 -85.5t120.5 -234.5q0 -88 -29.5 -157t-84 -122t-148 -97.5t-265.5 -87.5 l-129 -32q-126 -30 -187.5 -82t-61.5 -130q0 -72 56 -106.5t173 -34.5q127 0 210.5 54.5t125.5 148.5l277 -37q-79 -189 -246 -288t-402 -99q-227 0 -354.5 91t-127.5 254z" />
<glyph unicode="&#x1a8;" d="M75 265q0 82 27 145t80.5 109t143.5 80.5t352 87.5q103 20 143 50.5t40 86.5q0 50 -45.5 71t-135.5 21q-101 0 -154.5 -32t-78.5 -99l-244 26q56 141 187 216.5t326 75.5q199 0 300 -73t101 -201q0 -93 -36.5 -162.5t-111.5 -116t-196 -78t-231 -50.5q-112 -21 -161 -56 t-49 -97q0 -51 46.5 -77t157.5 -26q127 0 185.5 31.5t94.5 109.5l239 -37q-66 -148 -198 -219t-357 -71q-199 0 -312 74.5t-113 210.5z" />
<glyph unicode="&#x1a9;" d="M-5 0l45 234l551 477l-362 405l45 233h979l-47 -244h-642l297 -327l-26 -134l-472 -400h736l-47 -244h-1057z" />
<glyph unicode="&#x1aa;" d="M326 1244q0 110 77.5 178t200.5 68q272 0 272 -261q0 -54 -13 -123l-228 -1174q-6 -29 -6 -50q0 -91 97 -91q18 0 58.5 4t58.5 8l-41 -211q-71 -17 -186 -17q-276 0 -276 229q0 45 11 100l233 1201q-46 -22 -99 -22q-73 0 -116 42t-43 119zM449 1270q0 -32 20 -51.5 t52 -19.5q43 0 74 29t31 74q0 32 -19.5 51.5t-51.5 19.5q-44 0 -75 -30t-31 -73z" />
<glyph unicode="&#x1ab;" d="M396 892h-167l37 190h181l143 282h176l-55 -282h385l-37 -190h-385l-103 -530q-12 -62 -12 -86q0 -51 36 -74.5t114 -23.5q124 0 261 27l-61 -312q-28 -143 -119.5 -223t-247.5 -80q-79 0 -163 20l39 201q69 -15 107 -15q52 0 90.5 30t54.5 111l10 52l-77 -2 q-165 0 -247.5 57.5t-82.5 179.5q0 47 13 112z" />
<glyph unicode="&#x1ac;" d="M459 1121q-82 0 -119 -33.5t-37 -101.5q0 -45 10 -95l-218 -17l-3 95q0 178 102 279t279 101h853l-45 -228h-406l-218 -1121h-295l218 1121h-121z" />
<glyph unicode="&#x1ad;" d="M396 892h-167l37 190h164l14 71q25 125 78.5 194.5t145 107.5t227.5 38q63 0 118.5 -4t199.5 -28l-37 -186q-125 27 -249 27q-65 0 -105.5 -16t-63.5 -47t-34 -93l-13 -64h385l-37 -190h-385l-103 -530q-12 -62 -12 -86q0 -51 36 -74.5t114 -23.5q123 0 260 27l-36 -186 q-146 -23 -207 -27.5t-123 -4.5q-165 0 -247.5 57.5t-82.5 179.5q0 47 13 112z" />
<glyph unicode="&#x1ae;" d="M875 1121l-226 -1163q-7 -36 -7 -62q0 -49 23 -71.5t72 -22.5q29 0 97 13l-43 -220q-94 -20 -169 -20q-170 0 -226.5 75.5t-56.5 177.5q0 57 14 127l227 1166h-406l44 228h1107l-44 -228h-406z" />
<glyph unicode="&#x1af;" d="M460 -20q-189 0 -273 79t-84 250q0 93 24 219l160 821h294l-159 -818q-22 -116 -22 -182q0 -74 27 -106t86 -32q89 0 143.5 78t88.5 252l157 808h295l-87 -449q85 19 139.5 84.5t73.5 164.5h-102l51 260h214l-41 -210q-36 -183 -123.5 -293.5t-237.5 -141.5l-43 -221 q-56 -290 -194 -426.5t-387 -136.5z" />
<glyph unicode="&#x1b0;" d="M521 1082l-118 -607q-19 -99 -19 -154q0 -69 27 -100t79 -31q84 0 146 84t91 228l113 580h281l-101 -520q88 16 149 84.5t83 175.5h-101l50 260h212l-41 -210q-37 -188 -128.5 -298.5t-248.5 -139.5q-54 -278 -62 -334.5t-14 -99.5h-268q3 37 11.5 97t18.5 118h-5 q-78 -120 -158.5 -177.5t-185.5 -57.5q-245 0 -245 237q0 76 20 178l134 687h280z" />
<glyph unicode="&#x1b1;" d="M549 206q97 0 178 62t127 175t46 259q0 190 -119 343l59 304h495l-44 -228h-112q-62 0 -176 11q85 -80 130 -195.5t45 -254.5q0 -198 -85 -355.5t-244.5 -252.5t-343.5 -95q-130 0 -232 56t-159.5 161.5t-57.5 243.5q0 202 101.5 378t297.5 314q-114 -11 -176 -11h-116 l44 228h495l-59 -304q-160 -137 -227.5 -263.5t-67.5 -298.5q0 -131 53 -204t148 -73z" />
<glyph unicode="&#x1b2;" d="M533 211q167 0 258.5 82t134 252.5t42.5 435.5q0 84 -28.5 122t-93.5 38q-44 0 -114 -13l43 220q94 20 236 20q260 0 260 -324q0 -540 -191.5 -802t-600.5 -262q-206 0 -304 90t-98 271q0 82 20 187l160 821h294l-159 -818q-16 -84 -16 -144q0 -90 37.5 -133t119.5 -43z " />
<glyph unicode="&#x1b3;" d="M566 0h-294l98 506l-210 843h309l100 -566l211 369q74 128 141 173t167 45q85 0 150.5 -33t122.5 -96l-145 -185q-57 62 -116 62q-42 0 -75.5 -26t-65.5 -81l-295 -505z" />
<glyph unicode="&#x1b4;" d="M1366 1493q128 0 232 -74l-133 -196q-49 36 -103 36q-76 0 -132 -106l-643 -1208q-107 -199 -222.5 -284.5t-269.5 -85.5q-102 0 -174 13l39 200q53 -8 95 -8q89 0 145.5 41.5t113.5 141.5l27 48l-220 1071h288l105 -744l12 -97l100 232l44 98l338 657q71 137 159 201 t199 64z" />
<glyph unicode="&#x1b5;" d="M1033 0h-1051l41 209l371 399h-303l38 197h449l292 313h-595l45 231h934l-40 -205l-315 -339h255l-38 -197h-400l-350 -377h712z" />
<glyph unicode="&#x1b6;" d="M33 0l39 199l265 257h-219l34 177h368l254 246h-529l39 203h849l-39 -201l-256 -248h222l-34 -177h-371l-259 -251h616l-40 -205h-939z" />
<glyph unicode="&#x1b7;" d="M433 -414q-222 0 -353 95t-167 280l278 101q28 -132 89 -188t163 -56q381 0 381 407q0 85 -38 137.5t-109.5 77t-204.5 24.5h-128l45 231l499 423h-690l45 231h1050l-40 -205l-565 -467q204 -9 318 -120.5t114 -304.5q0 -317 -181 -491.5t-506 -174.5z" />
<glyph unicode="&#x1b8;" d="M482 -414q-242 0 -381.5 122t-139.5 332q0 295 161 459t471 178l-383 467l40 205h1050l-45 -231h-690l335 -423l-45 -231h-128q-179 0 -277 -41.5t-148.5 -130.5t-50.5 -231q0 -123 62 -183t191 -60q99 0 181 53.5t167 190.5l238 -101q-122 -208 -264.5 -291.5 t-343.5 -83.5z" />
<glyph unicode="&#x1b9;" d="M487 -241q193 0 252 201l274 -13q-60 -188 -197.5 -284.5t-340.5 -96.5q-214 0 -342.5 107.5t-128.5 286.5q0 159 66.5 279t185 190t273.5 84l-291 374l38 195h902l-40 -203h-565l267 -356l-37 -189h-102q-202 0 -307.5 -96.5t-105.5 -277.5q0 -201 199 -201z" />
<glyph unicode="&#x1ba;" d="M990 -99q-65 -156 -223.5 -245.5t-377.5 -89.5q-177 0 -284.5 72.5t-107.5 198.5q0 100 50.5 172t149.5 118t329 94q127 26 185.5 61t58.5 88q0 36 -24.5 55.5t-76 28t-202.5 8.5h-102l28 144l356 273h-538l40 203h902l-32 -163l-403 -295q182 -5 262 -58.5t80 -163.5 q0 -98 -53 -170t-152.5 -119t-335.5 -100q-131 -29 -190.5 -64t-59.5 -84q0 -48 48.5 -77t139.5 -29q98 0 168.5 46t97.5 134z" />
<glyph unicode="&#x1bb;" d="M18 0l38 195q115 175 333 348h-266l37 191h491q140 100 191 162.5t51 124.5q0 58 -39.5 91.5t-118.5 33.5q-90 0 -147 -48.5t-90 -145.5l-280 16q61 195 204 298.5t354 103.5q192 0 300 -83t108 -225q0 -84 -40 -163t-131 -165h104l-37 -191h-315q-161 -109 -211.5 -149 t-91.5 -80.5t-67 -82.5h654l-45 -231h-986z" />
<glyph unicode="&#x1bc;" d="M268 1350h981l-45 -229h-531l-44 -226h36q221 0 334.5 -87.5t113.5 -256.5q0 -272 -163 -421.5t-464 -149.5q-198 0 -309 92t-111 262l1 30l284 13q7 -174 187 -174q145 0 213 75.5t68 228.5q0 91 -53 133.5t-169 42.5h-285l87 450h-174z" />
<glyph unicode="&#x1bd;" d="M245 1082h912l-39 -203h-507l-36 -184h80q207 0 317.5 -74.5t110.5 -219.5q0 -124 -67.5 -219.5t-195.5 -148.5t-304 -53q-199 0 -313.5 90t-119.5 244l274 18q4 -160 207 -160q118 0 181.5 51t63.5 146q0 68 -53 104.5t-175 36.5h-288l72 369h-159z" />
<glyph unicode="&#x1be;" d="M231 892h-137l37 190h151l137 254h176l-49 -254h205l-37 -190h-205q-17 -90 -17 -101q0 -27 14 -47t50.5 -37t168.5 -48q141 -33 206.5 -68.5t100.5 -88t35 -129.5q0 -182 -151.5 -287.5t-404.5 -105.5q-223 0 -328.5 70t-114.5 220l254 37q5 -78 52 -109.5t173 -31.5 q134 0 193 35t59 107q0 44 -40.5 71t-134.5 47q-182 36 -263 73.5t-117.5 94t-36.5 134.5q0 37 8 80z" />
<glyph unicode="&#x1bf;" d="M1187 760q0 -233 -96 -404t-297 -311t-531 -264l-40 -206h-281l293 1507h265q-5 -82 -20 -164h4q68 91 161.5 139t207.5 48q159 0 246.5 -92t87.5 -253zM894 716q0 194 -176 194q-111 0 -190 -87t-107 -228l-116 -595q303 142 446 317.5t143 398.5z" />
<glyph unicode="&#x1c0;" d="M492 0v1484h245v-1484h-245z" />
<glyph unicode="&#x1c1;" d="M279 0v1484h240v-1484h-240zM710 0v1484h240v-1484h-240z" />
<glyph unicode="&#x1c2;" d="M98 1083h394v401h245v-401h394v-209h-394v-266h394v-209h-394v-399h-245v399h-394v209h394v266h-394v209z" />
<glyph unicode="&#x1c3;" d="M708 426h-230l147 923h294zM363 0l52 270h288l-52 -270h-288z" />
<glyph unicode="&#x1c4;" d="M584 932q0 -263 -68.5 -481t-182.5 -334.5t-256 -116.5h-252l262 1349h220q277 0 277 -417zM363 922q0 102 -22.5 150.5t-70.5 48.5h-1l-174 -893h24q33 0 75.5 32.5t80 112t63 213.5t25.5 336zM1016 0h-612l40 204l510 914h-293l45 231h550l-38 -199l-512 -919h355z M1109 1427h-229l-210 249l6 29h160l185 -134h4l229 134h159l-6 -29z" />
<glyph unicode="&#x1c5;" d="M586 942q0 -260 -65.5 -482.5t-178 -341t-255.5 -118.5h-262l262 1349h231q268 0 268 -407zM362 923q0 101 -22 149.5t-70 48.5h-1l-174 -893h23q48 0 95 51t80 140t51 216t18 288zM432 0l38 194l414 685h-258l39 203h505l-38 -196l-410 -681h304l-40 -205h-554z M1061 1183h-229l-210 249l6 29h160l185 -134h4l229 134h159l-6 -29z" />
<glyph unicode="&#x1c6;" d="M191 0l7 54q-65 -74 -156 -74q-77 0 -115 71.5t-38 230.5q0 232 52 423t139.5 293t195.5 102q81 0 111 -66l8 53l77 397h204l-243 -1248q-28 -147 -41 -236h-201zM322 780q0 70 -7.5 99.5t-33.5 29.5q-46 0 -87 -82t-69.5 -239t-28.5 -294q0 -72 10 -97t29 -25 q44 0 85.5 89t71.5 252t30 267zM444 0l38 193l435 686h-281l40 203h502l-38 -194l-434 -683h327l-40 -205h-549zM1105 1183h-229l-210 249l6 29h160l185 -134h4l229 134h159l-6 -29z" />
<glyph unicode="&#x1c7;" d="M-25 0l262 1349h237l-218 -1121h309l-44 -228h-546zM637 228q34 -17 79 -17q84 0 131 60.5t68 167.5l177 910h215l-176 -903q-47 -241 -150.5 -351.5t-282.5 -110.5q-83 0 -107 4z" />
<glyph unicode="&#x1c8;" d="M607 -425q-110 0 -172 32l42 218q69 -31 153 -31q59 0 101 58t61 158l171 882h-212l37 190h441l-213 -1095q-39 -201 -143.5 -306.5t-265.5 -105.5zM1039 1277l40 207h228l-40 -207h-228zM-25 0l262 1349h237l-218 -1121h309l-44 -228h-546z" />
<glyph unicode="&#x1c9;" d="M404 190h212l-37 -190h-678l37 190h237l215 1104h-174l36 190h403zM1054 1277l40 207h229l-40 -207h-229zM622 -425q-110 0 -172 32l42 218q69 -31 153 -31q59 0 101 58t61 158l171 882h-212l37 190h441l-213 -1095q-39 -201 -143.5 -306.5t-265.5 -105.5z" />
<glyph unicode="&#x1ca;" d="M298 0l16 738l-143 -738h-196l262 1349h237l-17 -768l149 768h195l-262 -1349h-241zM637 228q34 -17 79 -17q84 0 131 60.5t68 167.5l177 910h215l-176 -903q-47 -241 -150.5 -351.5t-282.5 -110.5q-83 0 -107 4z" />
<glyph unicode="&#x1cb;" d="M589 -425q-59 0 -116.5 14.5t-91.5 36.5l42 217q49 -21 104.5 -35t87.5 -14q55 0 88.5 53t55.5 163l171 882h-130l37 190h373l-213 -1095q-37 -192 -147.5 -302t-260.5 -110zM1005 1277l40 207h243l-40 -207h-243zM347 0l16 738l-143 -738h-196l262 1349h237l-17 -768 l149 768h195l-262 -1349h-241z" />
<glyph unicode="&#x1cc;" d="M400 0l120 619q23 119 23 184q0 89 -51 89q-54 0 -104 -89.5t-75 -222.5l-113 -580h-242l163 840q36 182 41 242h235l-11 -91q91 112 222 112q188 0 188 -241q-1 -77 -20 -175l-134 -687h-242zM607 -425q-110 0 -172 32l42 218q69 -31 153 -31q59 0 101 58t61 158 l171 882h-142l37 190h371l-213 -1095q-39 -201 -143.5 -306.5t-265.5 -105.5zM1039 1277l40 207h228l-40 -207h-228z" />
<glyph unicode="&#x1cd;" d="M1124 0h-294l-28 330h-456l-156 -330h-295l705 1349h344zM737 1167q-16 -41 -46.5 -109t-239.5 -506h332l-34 380l-11 200zM906 1427h-229l-210 249l6 29h160l185 -134h4l229 134h159l-6 -29z" />
<glyph unicode="&#x1ce;" d="M330 -20q-134 0 -206.5 62t-72.5 180q0 39 9 84q68 341 485 346l224 4l10 55q10 48 10 84q0 125 -117 125q-71 0 -113 -36t-67 -117l-290 14q113 321 517 321q173 0 262.5 -72.5t89.5 -213.5q0 -46 -11 -104l-76 -392q-11 -55 -11 -85q0 -37 15.5 -56t53.5 -19q32 0 63 6 l-29 -152q-26 -6 -47 -11t-41.5 -8t-43.5 -5t-53 -2q-95 0 -137 41.5t-42 122.5l2 41h-6q-86 -113 -177 -163t-201 -50zM738 501l-134 -2q-105 -2 -155 -28t-73.5 -82.5t-23.5 -114.5q0 -98 96 -98q98 0 178 78.5t102 191.5zM858 1183h-229l-210 249l6 29h160l185 -134h4 l229 134h159l-6 -29z" />
<glyph unicode="&#x1cf;" d="M314 1349h916l-44 -228h-316l-174 -893h316l-44 -228h-916l44 228h316l174 893h-316zM906 1427h-229l-210 249l6 29h160l185 -134h4l229 134h159l-6 -29z" />
<glyph unicode="&#x1d0;" d="M726 190h353l-37 -190h-1029l37 190h395l136 702h-290l37 190h571zM880 1181h-229l-210 249l6 29h160l185 -134h4l229 134h159l-6 -29z" />
<glyph unicode="&#x1d1;" d="M506 -20q-213 0 -322.5 115.5t-109.5 344.5q0 164 51.5 353.5t141.5 317t218.5 193.5t290.5 66q212 0 322.5 -113t110.5 -340q0 -164 -52 -354.5t-143.5 -320t-219.5 -196t-288 -66.5zM909 892q0 246 -178 246q-107 0 -184.5 -89t-125 -267t-47.5 -316q0 -254 177 -254 q106 0 184 91.5t126 270t48 318.5zM906 1427h-229l-210 249l6 29h160l185 -134h4l229 134h159l-6 -29z" />
<glyph unicode="&#x1d2;" d="M501 -20q-208 0 -316.5 104t-108.5 299q0 184 79.5 360t224.5 267.5t345 91.5q431 0 431 -383q0 -76 -19 -177q-52 -269 -217 -415.5t-419 -146.5zM863 715q0 101 -41 147.5t-130 46.5q-107 0 -175 -65.5t-108 -208.5t-40 -257q0 -206 166 -206q109 0 178 67t109.5 214.5 t40.5 261.5zM858 1183h-229l-210 249l6 29h160l185 -134h4l229 134h159l-6 -29z" />
<glyph unicode="&#x1d3;" d="M490 -20q-199 0 -292 85.5t-93 264.5q0 88 22 198l159 821h295l-159 -818q-19 -95 -19 -164q0 -85 34 -120.5t106 -35.5q103 0 165 75.5t97 254.5l157 808h295l-156 -806q-57 -286 -206.5 -424.5t-404.5 -138.5zM906 1427h-229l-210 249l6 29h160l185 -134h4l229 134h159 l-6 -29z" />
<glyph unicode="&#x1d4;" d="M521 1082l-118 -607q-12 -63 -12 -115q0 -170 129 -170q91 0 167 89.5t101 222.5l112 580h281l-163 -840q-14 -66 -25 -142.5t-14 -99.5h-268q8 92 30 215h-5q-153 -235 -374 -235q-270 0 -270 273q0 67 15 142l133 687h281zM849 1183h-229l-210 249l6 29h160l185 -134h4 l229 134h159l-6 -29z" />
<glyph unicode="&#x1d5;" d="M490 -20q-199 0 -292 85.5t-93 264.5q0 88 22 198l159 821h295l-159 -818q-19 -95 -19 -164q0 -85 34 -120.5t106 -35.5q103 0 165 75.5t97 254.5l157 808h295l-156 -806q-57 -286 -206.5 -424.5t-404.5 -138.5zM1057 1466h-160l30 152h160zM691 1466h-160l30 152h160z M560 1835h612l-27 -138h-612z" />
<glyph unicode="&#x1d6;" d="M522 1690h612l-33 -168h-612zM521 1082l-118 -607q-12 -63 -12 -115q0 -170 129 -170q91 0 167 89.5t101 222.5l112 580h281l-163 -840q-14 -66 -25 -142.5t-14 -99.5h-268q8 92 30 215h-5q-153 -235 -374 -235q-270 0 -270 273q0 67 15 142l133 687h281zM836 1219 l43 219h227l-43 -219h-227zM412 1219l43 219h224l-43 -219h-224z" />
<glyph unicode="&#x1d7;" d="M490 -20q-199 0 -292 85.5t-93 264.5q0 88 22 198l159 821h295l-159 -818q-19 -95 -19 -164q0 -85 34 -120.5t106 -35.5q103 0 165 75.5t97 254.5l157 808h295l-156 -806q-57 -286 -206.5 -424.5t-404.5 -138.5zM1134 1835l-3 -16l-261 -153h-150l3 14l165 155h246z M1052 1466h-160l30 152h160zM686 1466h-160l30 152h160z" />
<glyph unicode="&#x1d8;" d="M521 1082l-118 -607q-12 -63 -12 -115q0 -170 129 -170q91 0 167 89.5t101 222.5l112 580h281l-163 -840q-14 -66 -25 -142.5t-14 -99.5h-268q8 92 30 215h-5q-153 -235 -374 -235q-270 0 -270 273q0 67 15 142l133 687h281zM845 1219l43 219h227l-43 -219h-227z M421 1219l43 219h224l-43 -219h-224zM668 1489l6 31l299 243h258l-8 -43l-385 -231h-170z" />
<glyph unicode="&#x1d9;" d="M490 -20q-199 0 -292 85.5t-93 264.5q0 88 22 198l159 821h295l-159 -818q-19 -95 -19 -164q0 -85 34 -120.5t106 -35.5q103 0 165 75.5t97 254.5l157 808h295l-156 -806q-57 -286 -206.5 -424.5t-404.5 -138.5zM1057 1466h-160l30 152h160zM691 1466h-160l30 152h160z M1017 1835h155l-2 -10l-236 -143h-195l-182 141l3 12h155l138 -67z" />
<glyph unicode="&#x1da;" d="M521 1082l-118 -607q-12 -63 -12 -115q0 -170 129 -170q91 0 167 89.5t101 222.5l112 580h281l-163 -840q-14 -66 -25 -142.5t-14 -99.5h-268q8 92 30 215h-5q-153 -235 -374 -235q-270 0 -270 273q0 67 15 142l133 687h281zM845 1219l43 219h227l-43 -219h-227z M421 1219l43 219h224l-43 -219h-224zM902 1477h-229l-210 249l6 29h160l185 -134h4l229 134h159l-6 -29z" />
<glyph unicode="&#x1db;" d="M490 -20q-199 0 -292 85.5t-93 264.5q0 88 22 198l159 821h295l-159 -818q-19 -95 -19 -164q0 -85 34 -120.5t106 -35.5q103 0 165 75.5t97 254.5l157 808h295l-156 -806q-57 -286 -206.5 -424.5t-404.5 -138.5zM844 1835l105 -155l-3 -14h-150l-201 153l3 16h246z M566 1618h160l-30 -152h-160zM932 1618h160l-30 -152h-160z" />
<glyph unicode="&#x1dc;" d="M521 1082l-118 -607q-12 -63 -12 -115q0 -170 129 -170q91 0 167 89.5t101 222.5l112 580h281l-163 -840q-14 -66 -25 -142.5t-14 -99.5h-268q8 92 30 215h-5q-153 -235 -374 -235q-270 0 -270 273q0 67 15 142l133 687h281zM845 1219l43 219h227l-43 -219h-227z M421 1219l43 219h224l-43 -219h-224zM734 1478l-295 231l8 43h258l205 -243l-6 -31h-170z" />
<glyph unicode="&#x1dd;" d="M710 1102q207 0 320 -104.5t113 -300.5q0 -126 -42.5 -263.5t-130.5 -242.5t-212 -158t-270 -53q-197 0 -299 108t-102 309q0 88 20 190l1 8h734q10 50 10 99q0 107 -51 163.5t-142 56.5q-77 0 -139.5 -32.5t-93.5 -96.5l-260 23q83 141 225 217.5t319 76.5zM526 157 q103 0 177.5 69.5t102.5 192.5h-460l-4 -57q0 -102 51 -153.5t133 -51.5z" />
<glyph unicode="&#x1de;" d="M1124 0h-294l-28 330h-456l-156 -330h-295l705 1349h344zM737 1167q-16 -41 -46.5 -109t-239.5 -506h332l-34 380l-11 200zM1057 1466h-160l30 152h160zM691 1466h-160l30 152h160zM560 1835h612l-27 -138h-612z" />
<glyph unicode="&#x1df;" d="M508 1690h612l-33 -168h-612zM330 -20q-134 0 -206.5 62t-72.5 180q0 39 9 84q68 341 485 346l224 4l10 55q10 48 10 84q0 125 -117 125q-71 0 -113 -36t-67 -117l-290 14q113 321 517 321q173 0 262.5 -72.5t89.5 -213.5q0 -46 -11 -104l-76 -392q-11 -55 -11 -85 q0 -37 15.5 -56t53.5 -19q32 0 63 6l-29 -152q-26 -6 -47 -11t-41.5 -8t-43.5 -5t-53 -2q-95 0 -137 41.5t-42 122.5l2 41h-6q-86 -113 -177 -163t-201 -50zM738 501l-134 -2q-105 -2 -155 -28t-73.5 -82.5t-23.5 -114.5q0 -98 96 -98q98 0 178 78.5t102 191.5zM829 1219 l43 219h227l-43 -219h-227zM405 1219l43 219h224l-43 -219h-224z" />
<glyph unicode="&#x1e0;" d="M1124 0h-294l-28 330h-456l-156 -330h-295l705 1349h344zM737 1167q-16 -41 -46.5 -109t-239.5 -506h332l-34 380l-11 200zM873 1466h-160l30 152h160zM560 1835h612l-27 -138h-612z" />
<glyph unicode="&#x1e1;" d="M512 1690h612l-33 -168h-612zM330 -20q-134 0 -206.5 62t-72.5 180q0 39 9 84q68 341 485 346l224 4l10 55q10 48 10 84q0 125 -117 125q-71 0 -113 -36t-67 -117l-290 14q113 321 517 321q173 0 262.5 -72.5t89.5 -213.5q0 -46 -11 -104l-76 -392q-11 -55 -11 -85 q0 -37 15.5 -56t53.5 -19q32 0 63 6l-29 -152q-26 -6 -47 -11t-41.5 -8t-43.5 -5t-53 -2q-95 0 -137 41.5t-42 122.5l2 41h-6q-86 -113 -177 -163t-201 -50zM738 501l-134 -2q-105 -2 -155 -28t-73.5 -82.5t-23.5 -114.5q0 -98 96 -98q98 0 178 78.5t102 191.5zM600 1212 l41 207h281l-41 -207h-281z" />
<glyph unicode="&#x1e2;" d="M673 1645h612l-33 -168h-612zM586 387h-253l-177 -387h-261l634 1349h804l-39 -202h-309l-69 -355h297l-39 -200h-297l-76 -390h348l-39 -202h-599zM735 1152h-58l-85 -200l-169 -366h202z" />
<glyph unicode="&#x1e3;" d="M487 1382h612l-33 -168h-612zM688 484v-2q-15 -73 -15 -137q0 -87 29.5 -136t87.5 -49q60 0 99.5 38t68.5 103l169 -45q-129 -276 -368 -276q-114 0 -169.5 54.5t-67.5 177.5q-71 -116 -162.5 -174t-190.5 -58q-101 0 -153 58t-52 164q0 46 10 100q69 353 399 358l148 4 q20 100 20 135q0 121 -86 121q-93 0 -137 -147l-204 17q49 156 144 234t231 78q178 0 220 -139q111 139 273 139q252 0 252 -321q0 -49 -5.5 -103.5t-31.5 -193.5h-509zM176 244q0 -82 58 -82q78 0 149.5 85t94.5 198l11 54l-103 -3q-79 -2 -121 -34t-65.5 -97.5 t-23.5 -120.5zM934 924q-40 0 -82 -32.5t-76 -91t-52 -140.5h301q8 62 8 109q0 75 -22.5 115t-76.5 40z" />
<glyph unicode="&#x1e4;" d="M1110 449h91l-29 -148h-91l-22 -116q-282 -205 -533 -205q-216 0 -329 125.5t-113 354.5q0 161 54.5 351.5t144.5 313t219 184t297 61.5q179 0 275 -92t114 -283l-284 -54q-16 197 -147 197q-118 0 -196 -81t-127 -257.5t-49 -316.5q0 -267 202 -267q55 0 118 21.5 t104 52.5l2 11h-276l29 148h276l15 76h-274l42 218h544z" />
<glyph unicode="&#x1e5;" d="M-68 0h791l44 211h-2q-65 -77 -160 -118t-199 -41q-143 0 -219.5 89.5t-76.5 259.5q0 198 68.5 362t186 250t266.5 86q105 0 174.5 -49t95.5 -142h5q8 43 22.5 96.5t24.5 77.5h266l-54 -250l-163 -832h85l-18 -93h-96q-66 -168 -204.5 -254.5t-341.5 -86.5 q-395 0 -398 255l288 33q2 -54 38 -79.5t115 -25.5q149 0 221 158h-777zM849 687q0 219 -156 219q-125 0 -205.5 -131.5t-80.5 -333.5q0 -194 156 -194q75 0 141.5 54.5t105.5 152.5t39 233z" />
<glyph unicode="&#x1e6;" d="M526 -20q-216 0 -329 125.5t-113 354.5q0 161 54.5 351.5t144.5 313t219 184t297 61.5q179 0 275 -92t114 -283l-284 -54q-16 197 -147 197q-117 0 -195.5 -80.5t-127.5 -257.5t-49 -317q0 -267 202 -267q55 0 118 21.5t104 52.5l46 235h-274l42 218h544l-108 -558 q-282 -205 -533 -205zM906 1427h-229l-210 249l6 29h160l185 -134h4l229 134h159l-6 -29z" />
<glyph unicode="&#x1e7;" d="M427 -434q-186 0 -287.5 76.5t-103.5 214.5l288 33q2 -65 41.5 -103t104.5 -38q204 0 261 288l36 174h-2q-69 -105 -164.5 -152t-202.5 -47q-141 0 -216.5 89t-75.5 258q0 129 39.5 276t109 251.5t165 158.5t211.5 54q107 0 176.5 -50t92.5 -141h5q33 139 48 174h266 l-23 -101l-31 -149l-156 -799q-45 -229 -195 -348t-387 -119zM849 692q0 99 -41 156.5t-115 57.5q-87 0 -152 -70t-101.5 -199.5t-36.5 -229.5q0 -200 152 -200q87 0 154.5 69.5t103.5 192t36 223.5zM849 1183h-229l-210 249l6 29h160l185 -134h4l229 134h159l-6 -29z" />
<glyph unicode="&#x1e8;" d="M776 0l-215 557l-154 -142l-81 -415h-295l262 1349h295l-116 -599l552 599h343l-572 -579l329 -770h-348zM906 1426h-229l-210 249l6 29h160l185 -134h4l229 134h159l-6 -29z" />
<glyph unicode="&#x1e9;" d="M759 0l-194 490l-137 -84l-79 -406h-281l262 1349h281l-139 -715l473 448h302l-462 -422l281 -660h-307zM925 1427h-229l-209 249l5 29h160l185 -134h4l229 134h159l-5 -29z" />
<glyph unicode="&#x1ea;" d="M506 -20q-213 0 -322.5 115.5t-109.5 344.5q0 164 51.5 353.5t141.5 317t218.5 193.5t290.5 66q212 0 322.5 -113t110.5 -340q0 -164 -52 -354.5t-143.5 -320t-219.5 -196t-288 -66.5zM909 892q0 246 -178 246q-107 0 -184.5 -89t-125 -267t-47.5 -316q0 -254 177 -254 q106 0 184 91.5t126 270t48 318.5zM569 -425q-91 0 -146.5 39.5t-55.5 117.5q0 84 58.5 164t151.5 125h153q-79 -46 -125.5 -113.5t-46.5 -119.5q0 -26 16.5 -48t61.5 -22q55 0 117 27l-26 -137q-69 -33 -158 -33z" />
<glyph unicode="&#x1eb;" d="M501 -20q-208 0 -316.5 104t-108.5 299q0 184 79.5 360t224.5 267.5t345 91.5q431 0 431 -383q0 -76 -19 -177q-52 -269 -217 -415.5t-419 -146.5zM863 715q0 101 -41 147.5t-130 46.5q-107 0 -175 -65.5t-108 -208.5t-40 -257q0 -206 166 -206q109 0 178 67t109.5 214.5 t40.5 261.5zM569 -425q-91 0 -146.5 39.5t-55.5 117.5q0 84 58.5 164t151.5 125h153q-79 -46 -125.5 -113.5t-46.5 -119.5q0 -26 16.5 -48t61.5 -22q55 0 117 27l-26 -137q-69 -33 -158 -33z" />
<glyph unicode="&#x1ec;" d="M506 -20q-213 0 -322.5 115.5t-109.5 344.5q0 164 51.5 353.5t141.5 317t218.5 193.5t290.5 66q212 0 322.5 -113t110.5 -340q0 -164 -52 -354.5t-143.5 -320t-219.5 -196t-288 -66.5zM909 892q0 246 -178 246q-107 0 -184.5 -89t-125 -267t-47.5 -316q0 -254 177 -254 q106 0 184 91.5t126 270t48 318.5zM569 -425q-91 0 -146.5 39.5t-55.5 117.5q0 84 58.5 164t151.5 125h153q-79 -46 -125.5 -113.5t-46.5 -119.5q0 -26 16.5 -48t61.5 -22q55 0 117 27l-26 -137q-69 -33 -158 -33zM503 1638h612l-32 -168h-612z" />
<glyph unicode="&#x1ed;" d="M501 -20q-208 0 -316.5 104t-108.5 299q0 184 79.5 360t224.5 267.5t345 91.5q431 0 431 -383q0 -76 -19 -177q-52 -269 -217 -415.5t-419 -146.5zM863 715q0 101 -41 147.5t-130 46.5q-107 0 -175 -65.5t-108 -208.5t-40 -257q0 -206 166 -206q109 0 178 67t109.5 214.5 t40.5 261.5zM569 -425q-91 0 -146.5 39.5t-55.5 117.5q0 84 58.5 164t151.5 125h153q-79 -46 -125.5 -113.5t-46.5 -119.5q0 -26 16.5 -48t61.5 -22q55 0 117 27l-26 -137q-69 -33 -158 -33zM471 1371h612l-32 -168h-612z" />
<glyph unicode="&#x1ee;" d="M329 -414q-222 0 -353 95t-167 280l278 101q28 -132 89 -188t163 -56q381 0 381 407q0 85 -38 137.5t-109.5 77t-204.5 24.5h-128l45 231l499 423h-690l45 231h1050l-40 -205l-565 -467q204 -9 318 -120.5t114 -304.5q0 -317 -181 -491.5t-506 -174.5zM809 1427h-229 l-210 249l6 29h160l185 -134h4l229 134h159l-6 -29z" />
<glyph unicode="&#x1ef;" d="M445 -232q162 0 232.5 85t70.5 273q0 110 -72.5 163.5t-226.5 53.5h-102l37 189l406 347h-568l40 203h902l-38 -195l-434 -365q164 -17 255.5 -111.5t91.5 -247.5q0 -170 -78 -304.5t-221.5 -209t-329.5 -74.5q-200 0 -312 92.5t-112 259.5l1 29l279 13l-1 -19 q0 -84 49 -133t131 -49zM865 1183h-229l-210 249l6 29h160l185 -134h4l229 134h159l-6 -29z" />
<glyph unicode="&#x1f0;" d="M217 -425q-79 0 -157.5 13t-121.5 30l41 210q130 -34 256 -34q111 0 167 54t77 162l171 882h-354l37 190h636l-213 -1095q-25 -129 -100.5 -222t-189.5 -141.5t-249 -48.5zM962 1183h-229l-210 249l6 29h160l185 -134h4l229 134h159l-6 -29z" />
<glyph unicode="&#x1f1;" d="M688 932q0 -263 -68.5 -481t-182.5 -334.5t-256 -116.5h-252l262 1349h220q277 0 277 -417zM467 922q0 102 -22.5 150.5t-70.5 48.5h-1l-174 -893h24q33 0 75.5 32.5t80 112t63 213.5t25.5 336zM1120 0h-612l40 204l510 914h-293l45 231h550l-38 -199l-512 -919h355z" />
<glyph unicode="&#x1f2;" d="M690 942q0 -260 -65.5 -482.5t-178 -341t-255.5 -118.5h-262l262 1349h231q268 0 268 -407zM466 923q0 101 -22 149.5t-70 48.5h-1l-174 -893h23q48 0 95 51t80 140t51 216t18 288zM536 0l38 194l414 685h-258l39 203h505l-38 -196l-410 -681h304l-40 -205h-554z" />
<glyph unicode="&#x1f3;" d="M295 0l7 54q-65 -74 -156 -74q-77 0 -115 71.5t-38 230.5q0 232 52 423t139.5 293t195.5 102q81 0 111 -66l8 53l77 397h204l-243 -1248q-28 -147 -41 -236h-201zM426 780q0 70 -7.5 99.5t-33.5 29.5q-46 0 -87 -82t-69.5 -239t-28.5 -294q0 -72 10 -97t29 -25 q44 0 85.5 89t71.5 252t30 267zM548 0l38 193l435 686h-281l40 203h502l-38 -194l-434 -683h327l-40 -205h-549z" />
<glyph unicode="&#x1f4;" d="M526 -20q-216 0 -329 125.5t-113 354.5q0 161 54.5 351.5t144.5 313t219 184t297 61.5q179 0 275 -92t114 -283l-284 -54q-16 197 -147 197q-117 0 -195.5 -80.5t-127.5 -257.5t-49 -317q0 -267 202 -267q55 0 118 21.5t104 52.5l46 235h-274l42 218h544l-108 -558 q-282 -205 -533 -205zM624 1428l6 31l299 243h258l-8 -43l-385 -231h-170z" />
<glyph unicode="&#x1f5;" d="M427 -434q-186 0 -287.5 76.5t-103.5 214.5l288 33q2 -65 41.5 -103t104.5 -38q204 0 261 288l36 174h-2q-69 -105 -164.5 -152t-202.5 -47q-141 0 -216.5 89t-75.5 258q0 129 39.5 276t109 251.5t165 158.5t211.5 54q107 0 176.5 -50t92.5 -141h5q33 139 48 174h266 l-23 -101l-31 -149l-156 -799q-45 -229 -195 -348t-387 -119zM849 692q0 99 -41 156.5t-115 57.5q-87 0 -152 -70t-101.5 -199.5t-36.5 -229.5q0 -200 152 -200q87 0 154.5 69.5t103.5 192t36 223.5zM609 1184l6 31l299 243h258l-8 -43l-385 -231h-170z" />
<glyph unicode="&#x1f6;" d="M713 283q0 -91 55 -91q46 0 75.5 55t57.5 201l117 604h242l-116 -596q-36 -183 -88 -283.5t-131 -146t-205 -45.5q-133 0 -190.5 54.5t-57.5 179.5q0 45 7 106.5t45 252.5h-187l-112 -574h-241l262 1349h241l-103 -531h187l103 531h235l-175 -901q-21 -110 -21 -165z" />
<glyph unicode="&#x1f7;" d="M1221 959q0 -164 -36 -293.5t-101.5 -234t-160.5 -190.5t-220 -163.5t-406 -210.5l-45 -231h-291l333 1713h272l-32 -166q82 99 167 143t199 44q150 0 235.5 -113.5t85.5 -297.5zM921 931q0 103 -36 155t-115 52q-103 0 -179.5 -78t-102.5 -208l-142 -732 q184 103 263 161t136.5 121.5t96 139.5t59 170.5t20.5 218.5z" />
<glyph unicode="&#x1f8;" d="M643 0l-188 1010l-12 -138q-18 -164 -28 -216l-128 -656h-257l262 1349h337l192 -1037q18 239 43 365l130 672h257l-262 -1349h-346zM777 1429l-295 231l8 43h258l205 -243l-6 -31h-170z" />
<glyph unicode="&#x1f9;" d="M719 0l120 619q15 74 15 127q0 75 -32 110.5t-101 35.5q-101 0 -180.5 -85.5t-108.5 -226.5l-113 -580h-281l163 840q33 166 39 242h268q0 -16 -9 -88.5t-19 -126.5h4q153 236 393 236q271 0 271 -273q0 -65 -15 -143l-134 -687h-280zM726 1184l-295 231l8 43h258 l205 -243l-6 -31h-170z" />
<glyph unicode="&#x1fa;" d="M915 1091l209 -1091h-294l-37 263h-466l-137 -263h-295l633 1090q-28 38 -28 90q0 58 34.5 115t100.5 89.5t149 32.5q97 0 152.5 -43.5t55.5 -118.5q0 -92 -77 -164zM703 992q-20 -45 -53.5 -113t-206.5 -394h321l-42 307q-19 147 -19 200zM689 1459l6 31l273 215h258 l-8 -43l-379 -203h-150zM850 1228q0 30 -25 45.5t-65 15.5q-58 0 -88.5 -27t-30.5 -56q0 -27 24 -43t67 -16q37 0 65 12t40.5 31.5t12.5 37.5z" />
<glyph unicode="&#x1fb;" d="M330 -20q-134 0 -206.5 62t-72.5 180q0 39 9 84q68 341 485 346l224 4l10 55q10 48 10 84q0 125 -117 125q-71 0 -113 -36t-67 -117l-290 14q113 321 517 321q173 0 262.5 -72.5t89.5 -213.5q0 -46 -11 -104l-76 -392q-11 -55 -11 -85q0 -37 15.5 -56t53.5 -19q32 0 63 6 l-29 -152q-26 -6 -47 -11t-41.5 -8t-43.5 -5t-53 -2q-95 0 -137 41.5t-42 122.5l2 41h-6q-86 -113 -177 -163t-201 -50zM738 501l-134 -2q-105 -2 -155 -28t-73.5 -82.5t-23.5 -114.5q0 -98 96 -98q98 0 178 78.5t102 191.5zM694 1001q-96 0 -151.5 43.5t-55.5 118.5 q0 59 35 116t101.5 89t148.5 32q95 0 151 -42t56 -119q0 -63 -37 -119.5t-102 -87.5t-146 -31zM837 1211q0 30 -25 45.5t-65 15.5q-58 0 -88.5 -27t-30.5 -56q0 -27 24 -43t67 -16q53 0 85.5 24t32.5 57zM656 1431l6 31l299 243h258l-8 -43l-385 -231h-170z" />
<glyph unicode="&#x1fc;" d="M586 387h-253l-177 -387h-261l634 1349h804l-39 -202h-309l-69 -355h297l-39 -200h-297l-76 -390h348l-39 -202h-599zM735 1152h-58l-85 -200l-169 -366h202zM785 1429l6 31l299 243h258l-8 -43l-385 -231h-170z" />
<glyph unicode="&#x1fd;" d="M688 484v-2q-15 -73 -15 -137q0 -87 29.5 -136t87.5 -49q60 0 99.5 38t68.5 103l169 -45q-129 -276 -368 -276q-114 0 -169.5 54.5t-67.5 177.5q-71 -116 -162.5 -174t-190.5 -58q-101 0 -153 58t-52 164q0 46 10 100q69 353 399 358l148 4q20 100 20 135q0 121 -86 121 q-93 0 -137 -147l-204 17q49 156 144 234t231 78q178 0 220 -139q111 139 273 139q252 0 252 -321q0 -49 -5.5 -103.5t-31.5 -193.5h-509zM176 244q0 -82 58 -82q78 0 149.5 85t94.5 198l11 54l-103 -3q-79 -2 -121 -34t-65.5 -97.5t-23.5 -120.5zM934 924q-40 0 -82 -32.5 t-76 -91t-52 -140.5h301q8 62 8 109q0 75 -22.5 115t-76.5 40zM602 1184l6 31l299 243h258l-8 -43l-385 -231h-170z" />
<glyph unicode="&#x1fe;" d="M506 -20q-215 0 -326 119l-133 -142l-100 75l165 176q-39 96 -39 231q0 159 51 350t141.5 319.5t219.5 195t291 66.5q213 0 323 -115l134 142l99 -75l-164 -173q41 -100 41 -234q0 -162 -52 -352.5t-143 -319.5t-219 -196t-289 -67zM908 872l-514 -546q41 -114 157 -114 q104 0 180.5 87.5t125 259t51.5 313.5zM374 486l513 545q-39 107 -156 107q-105 0 -181.5 -85.5t-124.5 -257t-51 -309.5zM640 1429l6 31l299 243h258l-8 -43l-385 -231h-170z" />
<glyph unicode="&#x1ff;" d="M501 -20q-200 0 -309 97l-104 -97l-81 78l116 107q-47 90 -47 217q0 185 79.5 361.5t225.5 267.5t344 91q206 0 312 -87l97 89l82 -78l-106 -98q46 -84 46 -210q0 -138 -46 -284t-130.5 -246.5t-204.5 -154t-274 -53.5zM863 698l-475 -439q38 -87 147 -87q104 0 171 60.5 t107.5 191t49.5 274.5zM369 394l472 438q-38 77 -149 77q-105 0 -172 -62.5t-107 -198t-44 -254.5zM592 1184l6 31l299 243h258l-8 -43l-385 -231h-170z" />
<glyph unicode="&#x200;" d="M1124 0h-294l-28 330h-456l-156 -330h-295l705 1349h344zM737 1167q-16 -41 -46.5 -109t-239.5 -506h332l-34 380l-11 200zM650 1682l8 43h235l174 -266l-7 -34h-142zM244 1682l8 43h235l174 -266l-7 -34h-142z" />
<glyph unicode="&#x201;" d="M330 -20q-134 0 -206.5 62t-72.5 180q0 39 9 84q68 341 485 346l224 4l10 55q10 48 10 84q0 125 -117 125q-71 0 -113 -36t-67 -117l-290 14q113 321 517 321q173 0 262.5 -72.5t89.5 -213.5q0 -46 -11 -104l-76 -392q-11 -55 -11 -85q0 -37 15.5 -56t53.5 -19q32 0 63 6 l-29 -152q-26 -6 -47 -11t-41.5 -8t-43.5 -5t-53 -2q-95 0 -137 41.5t-42 122.5l2 41h-6q-86 -113 -177 -163t-201 -50zM738 501l-134 -2q-105 -2 -155 -28t-73.5 -82.5t-23.5 -114.5q0 -98 96 -98q98 0 178 78.5t102 191.5zM632 1441l8 43h235l174 -266l-7 -34h-142z M226 1441l8 43h235l174 -266l-7 -34h-142z" />
<glyph unicode="&#x202;" d="M1124 0h-294l-28 330h-456l-156 -330h-295l705 1349h344zM737 1167q-16 -41 -46.5 -109t-239.5 -506h332l-34 380l-11 200zM799 1558q-68 0 -126.5 -40.5t-86.5 -115.5h-157q45 143 150 223t249 80q134 0 208 -70t74 -204l-1 -29h-157v3q0 73 -42 113t-111 40z" />
<glyph unicode="&#x203;" d="M330 -20q-134 0 -206.5 62t-72.5 180q0 39 9 84q68 341 485 346l224 4l10 55q10 48 10 84q0 125 -117 125q-71 0 -113 -36t-67 -117l-290 14q113 321 517 321q173 0 262.5 -72.5t89.5 -213.5q0 -46 -11 -104l-76 -392q-11 -55 -11 -85q0 -37 15.5 -56t53.5 -19q32 0 63 6 l-29 -152q-26 -6 -47 -11t-41.5 -8t-43.5 -5t-53 -2q-95 0 -137 41.5t-42 122.5l2 41h-6q-86 -113 -177 -163t-201 -50zM738 501l-134 -2q-105 -2 -155 -28t-73.5 -82.5t-23.5 -114.5q0 -98 96 -98q98 0 178 78.5t102 191.5zM750 1344q-68 0 -126.5 -40.5t-86.5 -115.5h-157 q45 143 150 223t249 80q134 0 208 -70t74 -204l-1 -29h-157v3q0 73 -42 113t-111 40z" />
<glyph unicode="&#x204;" d="M32 0l262 1349h968l-44 -228h-673l-63 -324h612l-44 -228h-612l-67 -341h714l-44 -228h-1009zM692 1682l8 43h235l174 -266l-7 -34h-142zM286 1682l8 43h235l174 -266l-7 -34h-142z" />
<glyph unicode="&#x205;" d="M517 -20q-207 0 -320 104.5t-113 300.5q0 126 42.5 263.5t130.5 242.5t212 158t270 53q197 0 299 -108t102 -309q0 -88 -20 -190l-1 -8h-734q-10 -50 -10 -99q0 -107 51 -163.5t142 -56.5q77 0 139.5 32.5t93.5 96.5l260 -23q-83 -141 -225 -217.5t-319 -76.5zM701 925 q-103 0 -177.5 -69.5t-102.5 -192.5h460l4 57q0 102 -51 153.5t-133 51.5zM662 1441l8 43h235l174 -266l-7 -34h-142zM256 1441l8 43h235l174 -266l-7 -34h-142z" />
<glyph unicode="&#x206;" d="M32 0l262 1349h968l-44 -228h-673l-63 -324h612l-44 -228h-612l-67 -341h714l-44 -228h-1009zM790 1558q-68 0 -126.5 -40.5t-86.5 -115.5h-157q45 143 150 223t249 80q134 0 208 -70t74 -204l-1 -29h-157v3q0 73 -42 113t-111 40z" />
<glyph unicode="&#x207;" d="M517 -20q-207 0 -320 104.5t-113 300.5q0 126 42.5 263.5t130.5 242.5t212 158t270 53q197 0 299 -108t102 -309q0 -88 -20 -190l-1 -8h-734q-10 -50 -10 -99q0 -107 51 -163.5t142 -56.5q77 0 139.5 32.5t93.5 96.5l260 -23q-83 -141 -225 -217.5t-319 -76.5zM701 925 q-103 0 -177.5 -69.5t-102.5 -192.5h460l4 57q0 102 -51 153.5t-133 51.5zM774 1340q-68 0 -126.5 -40.5t-86.5 -115.5h-157q45 143 150 223t249 80q134 0 208 -70t74 -204l-1 -29h-157v3q0 73 -42 113t-111 40z" />
<glyph unicode="&#x208;" d="M314 1349h916l-44 -228h-316l-174 -893h316l-44 -228h-916l44 228h316l174 893h-316zM651 1682l8 43h235l174 -266l-7 -34h-142zM245 1682l8 43h235l174 -266l-7 -34h-142z" />
<glyph unicode="&#x209;" d="M726 190h353l-37 -190h-1029l37 190h395l136 702h-290l37 190h571zM651 1441l8 43h235l174 -266l-7 -34h-142zM245 1441l8 43h235l174 -266l-7 -34h-142z" />
<glyph unicode="&#x20a;" d="M314 1349h916l-44 -228h-316l-174 -893h316l-44 -228h-916l44 228h316l174 893h-316zM803 1558q-68 0 -126.5 -40.5t-86.5 -115.5h-157q45 143 150 223t249 80q134 0 208 -70t74 -204l-1 -29h-157v3q0 73 -42 113t-111 40z" />
<glyph unicode="&#x20b;" d="M726 190h353l-37 -190h-1029l37 190h395l136 702h-290l37 190h571zM790 1340q-68 0 -126.5 -40.5t-86.5 -115.5h-157q45 143 150 223t249 80q134 0 208 -70t74 -204l-1 -29h-157v3q0 73 -42 113t-111 40z" />
<glyph unicode="&#x20c;" d="M506 -20q-213 0 -322.5 115.5t-109.5 344.5q0 164 51.5 353.5t141.5 317t218.5 193.5t290.5 66q212 0 322.5 -113t110.5 -340q0 -164 -52 -354.5t-143.5 -320t-219.5 -196t-288 -66.5zM909 892q0 246 -178 246q-107 0 -184.5 -89t-125 -267t-47.5 -316q0 -254 177 -254 q106 0 184 91.5t126 270t48 318.5zM658 1682l8 43h235l174 -266l-7 -34h-142zM252 1682l8 43h235l174 -266l-7 -34h-142z" />
<glyph unicode="&#x20d;" d="M501 -20q-208 0 -316.5 104t-108.5 299q0 184 79.5 360t224.5 267.5t345 91.5q431 0 431 -383q0 -76 -19 -177q-52 -269 -217 -415.5t-419 -146.5zM863 715q0 101 -41 147.5t-130 46.5q-107 0 -175 -65.5t-108 -208.5t-40 -257q0 -206 166 -206q109 0 178 67t109.5 214.5 t40.5 261.5zM632 1441l8 43h235l174 -266l-7 -34h-142zM226 1441l8 43h235l174 -266l-7 -34h-142z" />
<glyph unicode="&#x20e;" d="M506 -20q-213 0 -322.5 115.5t-109.5 344.5q0 164 51.5 353.5t141.5 317t218.5 193.5t290.5 66q212 0 322.5 -113t110.5 -340q0 -164 -52 -354.5t-143.5 -320t-219.5 -196t-288 -66.5zM909 892q0 246 -178 246q-107 0 -184.5 -89t-125 -267t-47.5 -316q0 -254 177 -254 q106 0 184 91.5t126 270t48 318.5zM802 1558q-68 0 -126.5 -40.5t-86.5 -115.5h-157q45 143 150 223t249 80q134 0 208 -70t74 -204l-1 -29h-157v3q0 73 -42 113t-111 40z" />
<glyph unicode="&#x20f;" d="M501 -20q-208 0 -316.5 104t-108.5 299q0 184 79.5 360t224.5 267.5t345 91.5q431 0 431 -383q0 -76 -19 -177q-52 -269 -217 -415.5t-419 -146.5zM863 715q0 101 -41 147.5t-130 46.5q-107 0 -175 -65.5t-108 -208.5t-40 -257q0 -206 166 -206q109 0 178 67t109.5 214.5 t40.5 261.5zM770 1344q-68 0 -126.5 -40.5t-86.5 -115.5h-157q45 143 150 223t249 80q134 0 208 -70t74 -204l-1 -29h-157v3q0 73 -42 113t-111 40z" />
<glyph unicode="&#x210;" d="M790 0l-190 515h-173l-100 -515h-295l262 1349h494q230 0 344 -78.5t114 -227.5q0 -70 -22.5 -145.5t-69.5 -138.5t-117 -109.5t-151 -68.5l236 -581h-332zM942 983q0 76 -59.5 106.5t-169.5 30.5h-168l-73 -376h176q252 0 289 193zM658 1682l8 43h235l174 -266l-7 -34 h-142zM252 1682l8 43h235l174 -266l-7 -34h-142z" />
<glyph unicode="&#x211;" d="M1141 848q-107 19 -208 19q-155 0 -270 -117t-153 -312l-85 -438h-280l136 701q25 136 25 289l-3 92h271q6 -78 6 -127q0 -55 -4 -101h4q76 136 173 192t231 56q106 0 203 -17zM632 1441l8 43h235l174 -266l-7 -34h-142zM226 1441l8 43h235l174 -266l-7 -34h-142z" />
<glyph unicode="&#x212;" d="M790 0l-190 515h-173l-100 -515h-295l262 1349h494q230 0 344 -78.5t114 -227.5q0 -70 -22.5 -145.5t-69.5 -138.5t-117 -109.5t-151 -68.5l236 -581h-332zM942 983q0 76 -59.5 106.5t-169.5 30.5h-168l-73 -376h176q252 0 289 193zM770 1558q-68 0 -126.5 -40.5 t-86.5 -115.5h-157q45 143 150 223t249 80q134 0 208 -70t74 -204l-1 -29h-157v3q0 73 -42 113t-111 40z" />
<glyph unicode="&#x213;" d="M1141 848q-107 19 -208 19q-155 0 -270 -117t-153 -312l-85 -438h-280l136 701q25 136 25 289l-3 92h271q6 -78 6 -127q0 -55 -4 -101h4q76 136 173 192t231 56q106 0 203 -17zM804 1340q-68 0 -126.5 -40.5t-86.5 -115.5h-157q45 143 150 223t249 80q134 0 208 -70 t74 -204l-1 -29h-157v3q0 73 -42 113t-111 40z" />
<glyph unicode="&#x214;" d="M490 -20q-199 0 -292 85.5t-93 264.5q0 88 22 198l159 821h295l-159 -818q-19 -95 -19 -164q0 -85 34 -120.5t106 -35.5q103 0 165 75.5t97 254.5l157 808h295l-156 -806q-57 -286 -206.5 -424.5t-404.5 -138.5zM676 1682l8 43h235l174 -266l-7 -34h-142zM270 1682l8 43 h235l174 -266l-7 -34h-142z" />
<glyph unicode="&#x215;" d="M521 1082l-118 -607q-12 -63 -12 -115q0 -170 129 -170q91 0 167 89.5t101 222.5l112 580h281l-163 -840q-14 -66 -25 -142.5t-14 -99.5h-268q8 92 30 215h-5q-153 -235 -374 -235q-270 0 -270 273q0 67 15 142l133 687h281zM642 1441l8 43h235l174 -266l-7 -34h-142z M236 1441l8 43h235l174 -266l-7 -34h-142z" />
<glyph unicode="&#x216;" d="M490 -20q-199 0 -292 85.5t-93 264.5q0 88 22 198l159 821h295l-159 -818q-19 -95 -19 -164q0 -85 34 -120.5t106 -35.5q103 0 165 75.5t97 254.5l157 808h295l-156 -806q-57 -286 -206.5 -424.5t-404.5 -138.5zM803 1558q-68 0 -126.5 -40.5t-86.5 -115.5h-157 q45 143 150 223t249 80q134 0 208 -70t74 -204l-1 -29h-157v3q0 73 -42 113t-111 40z" />
<glyph unicode="&#x217;" d="M521 1082l-118 -607q-12 -63 -12 -115q0 -170 129 -170q91 0 167 89.5t101 222.5l112 580h281l-163 -840q-14 -66 -25 -142.5t-14 -99.5h-268q8 92 30 215h-5q-153 -235 -374 -235q-270 0 -270 273q0 67 15 142l133 687h281zM757 1344q-68 0 -126.5 -40.5t-86.5 -115.5 h-157q45 143 150 223t249 80q134 0 208 -70t74 -204l-1 -29h-157v3q0 73 -42 113t-111 40z" />
<glyph unicode="&#x218;" d="M502 -20q-235 0 -363.5 99t-134.5 288l293 37q5 -94 67 -148.5t189 -54.5q99 0 163.5 23.5t98.5 72t34 106.5q0 106 -194 157q-223 57 -303 100.5t-124 105.5t-44 148q0 89 38 172.5t118 148.5t192.5 100t243.5 35q224 0 333 -88.5t110 -274.5l-292 -29q-8 183 -197 183 q-81 0 -137 -22.5t-85 -66.5t-29 -93q0 -40 23.5 -67t64 -46.5t167.5 -53.5q169 -45 250.5 -91t120.5 -109.5t39 -142.5q0 -132 -78 -248t-223.5 -178.5t-340.5 -62.5zM449 -455h-137q112 100 127 170h-108l40 207h245l-24 -126q-14 -70 -45 -127t-98 -124z" />
<glyph unicode="&#x219;" d="M511 -20q-224 0 -329 71t-114 219l255 37q5 -77 50.5 -109t173.5 -32q119 0 178.5 30t71.5 94l2 23q0 40 -39 66t-128 45q-199 41 -274 74t-115 84t-40 126q0 113 64 205.5t183 141t281 48.5q194 0 296.5 -75t104.5 -217l-254 -26q0 69 -41.5 100t-141.5 31t-155 -25.5 t-67 -85.5l-2 -21q0 -36 35.5 -60t111.5 -39l107 -26q140 -30 206 -64t101 -84.5t35 -124.5q0 -119 -68 -212.5t-194.5 -143.5t-293.5 -50zM449 -455h-137q112 100 127 170h-108l40 207h245l-24 -126q-14 -70 -45 -127t-98 -124z" />
<glyph unicode="&#x21a;" d="M875 1121l-218 -1121h-295l218 1121h-406l44 228h1107l-44 -228h-406zM449 -455h-137q112 100 127 170h-108l40 207h245l-24 -126q-14 -70 -45 -127t-98 -124z" />
<glyph unicode="&#x21b;" d="M396 892h-167l37 190h181l143 282h176l-55 -282h385l-37 -190h-385l-103 -530q-11 -60 -11 -83q0 -54 36 -77.5t114 -23.5q123 0 260 27l-36 -186q-39 -6 -76.5 -12t-77 -10.5t-83 -7t-94.5 -2.5q-162 0 -246 57t-84 180q0 29 5 63t118 605zM529 -455h-137 q112 100 127 170h-108l40 207h245l-24 -126q-14 -70 -45 -127t-98 -124z" />
<glyph unicode="&#x21c;" d="M1103 410q0 -151 -68 -271t-192 -214t-328.5 -172t-556.5 -148l46 237q277 60 415.5 113t220 113t126.5 137t45 173q0 97 -27 139q-171 -87 -692 -222l44 224q191 52 345 102.5t255 96.5t140.5 99.5t39.5 152.5q0 77 -55 123t-164 46q-187 0 -342 -159l-172 143 q243 247 578 247q219 0 342 -92t123 -249q0 -75 -15 -127t-42 -91.5t-64 -72t-80 -67.5q78 -98 78 -261z" />
<glyph unicode="&#x21d;" d="M863 772q0 70 -47 108t-127 38q-85 0 -151 -44.5t-102 -126.5l-219 54q53 142 192.5 221.5t327.5 79.5q190 0 295.5 -78.5t105.5 -221.5q0 -112 -41 -190t-153 -157q83 -68 83 -221q0 -141 -63 -253.5t-192.5 -195t-315 -133.5t-471.5 -83l42 217q360 30 537.5 138.5 t177.5 290.5q0 36 -7 69t-18 48q-181 -68 -611 -140l42 214q156 25 258.5 46t214 58t155.5 68t65.5 76t21.5 118z" />
<glyph unicode="&#x21e;" d="M691 0l112 574h-363l-112 -574h-295l262 1349h295l-103 -531h363l103 531h295l-262 -1349h-295zM892 1427h-229l-210 249l6 29h160l185 -134h4l229 134h159l-6 -29z" />
<glyph unicode="&#x21f;" d="M483 866q81 124 178 180t216 56q133 0 202 -66t69 -194q0 -73 -16 -156l-133 -686h-280l121 621q16 82 16 132q0 72 -34.5 105t-102.5 33q-104 0 -183.5 -90t-103.5 -222l-113 -579h-281l262 1349h281l-52 -270q-13 -71 -41 -177l-9 -36h4zM932 1427h-229l-209 249l5 29 h160l185 -134h4l229 134h159l-5 -29z" />
<glyph unicode="&#x220;" d="M865 970q0 89 -32 129t-93 40q-109 0 -215 -124l-197 -1015h-295l262 1349h295l-20 -104q81 70 160.5 97.5t142.5 27.5q304 0 304 -314q0 -76 -18 -168l-255 -1313h-296l232 1192q25 126 25 203z" />
<glyph unicode="&#x221;" d="M705 141q78 51 169 51q100 0 157 -63t57 -174q0 -113 -45.5 -199.5t-126 -133.5t-177.5 -47q-148 0 -245 131q-33 -42 -60.5 -71.5t-41.5 -49.5l-132 117l193 230h-1v10q0 64 28 233q-43 -91 -111.5 -143t-146.5 -52q-102 0 -156 94t-54 266q0 210 59.5 390.5t159 276 t223.5 95.5q75 0 117 -45.5t54 -151.5l15 94l94 485h232zM577 710q0 97 -23.5 149t-67.5 52q-68 0 -119.5 -74t-81.5 -218t-30 -252q0 -195 86 -195q60 0 115.5 69t88 190.5t32.5 278.5zM881 -89q0 39 -16 58t-42 19q-32 0 -73.5 -25.5t-72.5 -69.5q0 -51 30.5 -86.5 t73.5 -35.5t71.5 39t28.5 101z" />
<glyph unicode="&#x222;" d="M472 979q0 -69 51 -105t149 -36q275 0 275 260q0 133 -139 133l39 198q190 0 291.5 -78.5t101.5 -225.5q0 -136 -76 -235t-230 -147v-4q99 -22 156 -88t57 -180q0 -150 -76 -261t-221 -170.5t-343 -59.5q-226 0 -352.5 89t-126.5 256q0 162 91 270.5t251 141.5l1 4 q-95 30 -139.5 93.5t-44.5 144.5q0 174 141 276t379 102l-39 -199q-196 0 -196 -179zM858 468q0 85 -58 129t-172 44q-146 0 -226 -73t-80 -209q0 -181 226 -181q152 0 231 72.5t79 217.5z" />
<glyph unicode="&#x223;" d="M507 -20q-229 0 -357 91t-128 254q0 158 93.5 266.5t251.5 137.5l1 4q-83 34 -132.5 99.5t-49.5 160.5q0 276 376 420l78 -144q-77 -53 -107.5 -88.5t-45.5 -79.5t-15 -107q0 -86 53.5 -128.5t150.5 -42.5q132 0 207 72.5t75 204.5q0 96 -82 169l134 144 q110 -48 172 -128t62 -182q0 -127 -80 -223t-224 -147l-1 -4q100 -20 157 -89t57 -181q0 -140 -78.5 -250t-224 -169.5t-343.5 -59.5zM544 168q152 0 235.5 75t83.5 215q0 88 -59 133t-169 45q-151 0 -234 -71t-83 -208q0 -94 57.5 -141.5t168.5 -47.5z" />
<glyph unicode="&#x224;" d="M-18 0l41 209l847 909h-595l45 231h934l-40 -205l-848 -913h423q134 0 210 -59.5t76 -166.5q0 -50 -23.5 -124t-69.5 -158l-220 33q22 39 41 80t19 78q0 86 -115 86h-725z" />
<glyph unicode="&#x225;" d="M33 0l39 199l702 680h-529l39 203h849l-39 -201l-698 -676h354q291 0 291 -202q0 -91 -86 -280l-214 33q22 39 41 80t19 78q0 86 -115 86h-653z" />
<glyph unicode="&#x226;" d="M1124 0h-294l-28 330h-456l-156 -330h-295l705 1349h344zM737 1167q-16 -41 -46.5 -109t-239.5 -506h332l-34 380l-11 200zM644 1438l41 207h281l-41 -207h-281z" />
<glyph unicode="&#x227;" d="M330 -20q-134 0 -206.5 62t-72.5 180q0 39 9 84q68 341 485 346l224 4l10 55q10 48 10 84q0 125 -117 125q-71 0 -113 -36t-67 -117l-290 14q113 321 517 321q173 0 262.5 -72.5t89.5 -213.5q0 -46 -11 -104l-76 -392q-11 -55 -11 -85q0 -37 15.5 -56t53.5 -19q32 0 63 6 l-29 -152q-26 -6 -47 -11t-41.5 -8t-43.5 -5t-53 -2q-95 0 -137 41.5t-42 122.5l2 41h-6q-86 -113 -177 -163t-201 -50zM738 501l-134 -2q-105 -2 -155 -28t-73.5 -82.5t-23.5 -114.5q0 -98 96 -98q98 0 178 78.5t102 191.5zM596 1267l41 207h281l-41 -207h-281z" />
<glyph unicode="&#x228;" d="M32 0l262 1349h968l-44 -228h-673l-63 -324h612l-44 -228h-612l-67 -341h714l-44 -228h-1009zM435 -445q-46 0 -100 6l23 118q32 -7 82 -7q153 0 153 83q0 25 -22.5 40t-88.5 15q-38 0 -52 -2l106 192h143l-60 -102q159 -10 159 -119q0 -60 -37 -113.5t-116 -82 t-190 -28.5z" />
<glyph unicode="&#x229;" d="M517 -20q-207 0 -320 104.5t-113 300.5q0 126 42.5 263.5t130.5 242.5t212 158t270 53q197 0 299 -108t102 -309q0 -88 -20 -190l-1 -8h-734q-10 -50 -10 -99q0 -107 51 -163.5t142 -56.5q77 0 139.5 32.5t93.5 96.5l260 -23q-83 -141 -225 -217.5t-319 -76.5zM701 925 q-103 0 -177.5 -69.5t-102.5 -192.5h460l4 57q0 102 -51 153.5t-133 51.5zM369 -445q-46 0 -100 6l23 118q32 -7 82 -7q153 0 153 83q0 25 -22.5 40t-88.5 15q-38 0 -52 -2l106 192h143l-60 -102q159 -10 159 -119q0 -60 -37 -113.5t-116 -82t-190 -28.5z" />
<glyph unicode="&#x22a;" d="M506 -20q-213 0 -322.5 115.5t-109.5 344.5q0 164 51.5 353.5t141.5 317t218.5 193.5t290.5 66q212 0 322.5 -113t110.5 -340q0 -164 -52 -354.5t-143.5 -320t-219.5 -196t-288 -66.5zM909 892q0 246 -178 246q-107 0 -184.5 -89t-125 -267t-47.5 -316q0 -254 177 -254 q106 0 184 91.5t126 270t48 318.5zM1057 1466h-160l30 152h160zM691 1466h-160l30 152h160zM560 1835h612l-27 -138h-612z" />
<glyph unicode="&#x22b;" d="M527 1690h612l-33 -168h-612zM501 -20q-208 0 -316.5 104t-108.5 299q0 184 79.5 360t224.5 267.5t345 91.5q431 0 431 -383q0 -76 -19 -177q-52 -269 -217 -415.5t-419 -146.5zM863 715q0 101 -41 147.5t-130 46.5q-107 0 -175 -65.5t-108 -208.5t-40 -257 q0 -206 166 -206q109 0 178 67t109.5 214.5t40.5 261.5zM845 1219l43 219h227l-43 -219h-227zM421 1219l43 219h224l-43 -219h-224z" />
<glyph unicode="&#x22c;" d="M506 -20q-213 0 -322.5 115.5t-109.5 344.5q0 164 51.5 353.5t141.5 317t218.5 193.5t290.5 66q212 0 322.5 -113t110.5 -340q0 -164 -52 -354.5t-143.5 -320t-219.5 -196t-288 -66.5zM909 892q0 246 -178 246q-107 0 -184.5 -89t-125 -267t-47.5 -316q0 -254 177 -254 q106 0 184 91.5t126 270t48 318.5zM560 1835h612l-27 -138h-612zM920 1461q-52 0 -128 38q-77 37 -113 37q-45 0 -71 -17.5t-42 -57.5h-91q27 80 55 116.5t70.5 57t105.5 20.5q36 0 68.5 -11.5t62 -26t56.5 -26t53 -11.5q48 0 73 19t39 56h92q-29 -84 -57 -119.5t-69 -55 t-104 -19.5z" />
<glyph unicode="&#x22d;" d="M535 1690h612l-33 -168h-612zM501 -20q-208 0 -316.5 104t-108.5 299q0 184 79.5 360t224.5 267.5t345 91.5q431 0 431 -383q0 -76 -19 -177q-52 -269 -217 -415.5t-419 -146.5zM863 715q0 101 -41 147.5t-130 46.5q-107 0 -175 -65.5t-108 -208.5t-40 -257 q0 -206 166 -206q109 0 178 67t109.5 214.5t40.5 261.5zM902 1177q-40 0 -76.5 17.5t-70.5 38t-64.5 38t-57.5 17.5q-36 0 -61 -22.5t-49 -88.5h-124q30 108 61 157t78 78t115 29q41 0 78.5 -17t71.5 -38t64 -38t56 -17q44 0 67.5 29t42.5 81h122q-25 -100 -56.5 -152 t-79 -82t-117.5 -30z" />
<glyph unicode="&#x22e;" d="M506 -20q-213 0 -322.5 115.5t-109.5 344.5q0 164 51.5 353.5t141.5 317t218.5 193.5t290.5 66q212 0 322.5 -113t110.5 -340q0 -164 -52 -354.5t-143.5 -320t-219.5 -196t-288 -66.5zM909 892q0 246 -178 246q-107 0 -184.5 -89t-125 -267t-47.5 -316q0 -254 177 -254 q106 0 184 91.5t126 270t48 318.5zM615 1477l41 207h281l-41 -207h-281z" />
<glyph unicode="&#x22f;" d="M501 -20q-208 0 -316.5 104t-108.5 299q0 184 79.5 360t224.5 267.5t345 91.5q431 0 431 -383q0 -76 -19 -177q-52 -269 -217 -415.5t-419 -146.5zM863 715q0 101 -41 147.5t-130 46.5q-107 0 -175 -65.5t-108 -208.5t-40 -257q0 -206 166 -206q109 0 178 67t109.5 214.5 t40.5 261.5zM615 1267l41 207h281l-41 -207h-281z" />
<glyph unicode="&#x230;" d="M506 -20q-213 0 -322.5 115.5t-109.5 344.5q0 164 51.5 353.5t141.5 317t218.5 193.5t290.5 66q212 0 322.5 -113t110.5 -340q0 -164 -52 -354.5t-143.5 -320t-219.5 -196t-288 -66.5zM909 892q0 246 -178 246q-107 0 -184.5 -89t-125 -267t-47.5 -316q0 -254 177 -254 q106 0 184 91.5t126 270t48 318.5zM873 1466h-160l30 152h160zM560 1835h612l-27 -138h-612z" />
<glyph unicode="&#x231;" d="M527 1690h612l-33 -168h-612zM501 -20q-208 0 -316.5 104t-108.5 299q0 184 79.5 360t224.5 267.5t345 91.5q431 0 431 -383q0 -76 -19 -177q-52 -269 -217 -415.5t-419 -146.5zM863 715q0 101 -41 147.5t-130 46.5q-107 0 -175 -65.5t-108 -208.5t-40 -257 q0 -206 166 -206q109 0 178 67t109.5 214.5t40.5 261.5zM615 1212l41 207h281l-41 -207h-281z" />
<glyph unicode="&#x232;" d="M472 1645h612l-33 -168h-612zM656 0h-294l108 556l-310 793h309l190 -566l414 566h309l-618 -793z" />
<glyph unicode="&#x233;" d="M482 1382h612l-33 -168h-612zM137 -425q-107 0 -179 13l39 200l50 -5l50 -3q85 0 144 43t115 140l27 48l-240 1071h297l88 -527q2 -9 4 -26.5t4 -34t15 -143t13 -130.5l17 37l137 293l283 531h294l-669 -1139q-122 -207 -231.5 -287.5t-257.5 -80.5z" />
<glyph unicode="&#x234;" d="M708 1484l-267 -1373q130 81 274 81q143 0 223 -67t80 -186q0 -109 -57.5 -191.5t-160.5 -127.5t-227 -45q-102 0 -187.5 32t-167.5 108l-138 -134l-139 151q17 20 86 85.5t126 114.5q-5 29 -5 59q0 67 16 142l263 1351h281zM777 -101q0 46 -34 67.5t-84 21.5 q-57 0 -122 -25t-111 -70q5 -51 61 -86.5t129 -35.5t117 35t44 93z" />
<glyph unicode="&#x235;" d="M533 304l59 303q18 96 18 156q0 129 -76 129q-62 0 -116 -89t-79 -223l-113 -580h-233l163 840q21 103 42 242h223l-30 -195q38 90 113 153t151 63q98 0 149.5 -63.5t52.5 -188.5q-1 -76 -18 -164l-106 -541q68 46 153 46q100 0 157 -63t57 -174q0 -112 -46 -199 t-125.5 -134t-176.5 -47q-75 0 -126.5 26.5t-94.5 89.5l-93 -119l-147 122l117 148l74 90h-2l-1 29q0 79 20 172l33 171h1zM893 -89q0 77 -57 77q-61 0 -133 -95h1q2 -55 26.5 -88.5t61.5 -33.5q42 0 71.5 38t29.5 102z" />
<glyph unicode="&#x236;" d="M580 541q72 46 135.5 63.5t143.5 17.5q133 0 206.5 -67.5t73.5 -184.5q0 -108 -57 -191t-153.5 -128.5t-210.5 -45.5q-80 0 -139.5 14t-106 39t-114.5 87l-138 -134l-139 151q17 20 86 85.5t126 114.5q-4 29 -4 59q0 32 4 65t77 406h-137l37 190h151l143 282h176 l-55 -282h405l-37 -190h-405zM897 329q0 42 -29.5 65.5t-71.5 23.5q-133 0 -230 -95q7 -57 57 -89.5t128 -32.5q63 0 104.5 36t41.5 92z" />
<glyph unicode="&#x237;" d="M217 -425q-79 0 -157.5 13t-121.5 30l41 210q130 -34 256 -34q111 0 167 54t77 162l171 882h-354l37 190h636l-213 -1095q-25 -129 -100.5 -222t-189.5 -141.5t-249 -48.5z" />
<glyph unicode="&#x238;" d="M1233 759q0 -202 -56 -389.5t-149.5 -288.5t-209.5 -101q-78 0 -127 50t-61 144h-1l-34 -174h-175l35 176h-2q-101 -196 -275 -196q-88 0 -134.5 89.5t-46.5 252.5q0 207 56.5 395.5t149 286.5t207.5 98q77 0 123.5 -49t57.5 -142h1l111 573h186q-104 -537 -116 -590h2 q106 208 273 208q90 0 137.5 -90.5t47.5 -252.5zM542 707q0 204 -95 204q-67 0 -119.5 -69t-84 -207t-31.5 -266q0 -197 90 -197q62 0 117.5 66.5t89 189.5t33.5 279zM1019 713q0 194 -93 194q-66 0 -122.5 -67t-88 -186.5t-31.5 -274.5q0 -207 98 -207q66 0 118 66.5 t85.5 203.5t33.5 271z" />
<glyph unicode="&#x239;" d="M1231 748q0 -200 -55.5 -386.5t-145.5 -284t-200 -97.5q-168 0 -192 208h-2q-13 -76 -112 -590h-188l113 573h-1q-99 -191 -256 -191q-92 0 -143 88.5t-51 259.5q0 197 56 387t145 288.5t197 98.5q175 0 198 -196h2l35 176h175l-34 -174h1q50 95 118 144.5t145 49.5 q94 0 144.5 -92.5t50.5 -261.5zM540 697q0 101 -24.5 157t-70.5 56q-65 0 -116.5 -70t-84 -207.5t-32.5 -265.5q0 -196 92 -196q65 0 119.5 66t85.5 185.5t31 274.5zM1019 711q0 199 -94 199q-66 0 -121 -65t-87 -183t-32 -278q0 -101 25.5 -155t72.5 -54q109 0 170 143 t66 393z" />
<glyph unicode="&#x23a;" d="M961 1222l192 262h163l-330 -450l138 -1034h-294l-28 330h-334l-324 -441h-163l82 111h-168l705 1349h344zM737 1167l-15 -35q-14 -35 -38 -88.5t-233 -491.5h17l280 381q-11 132 -11 234zM767 736l-136 -184h152z" />
<glyph unicode="&#x23b;" d="M1134 1236q78 -97 95 -255l-285 -66l-7 53l-502 -682q53 -74 160 -74q163 0 287 244l263 -52q-108 -214 -259.5 -319t-338.5 -105q-176 0 -286 69l-117 -160h-163l184 250q-41 56 -62 148.5t-21 202.5q0 419 189.5 649.5t537.5 230.5q129 0 223 -50l121 164h163zM386 523 v-43l1 -38l483 658q-41 38 -102 38q-116 0 -202.5 -76.5t-133 -217.5t-46.5 -321z" />
<glyph unicode="&#x23c;" d="M515 -20q-115 0 -202 33l-299 -438h-163l348 510q-54 52 -80.5 137t-26.5 184q0 207 79 366t225.5 244.5t340.5 85.5q79 0 144 -17l272 399h163l-310 -455q134 -97 134 -283v-5l-286 -14v13q0 22 -6 58l-402 -590q39 -36 108 -36q80 0 144 50.5t96 150.5l280 -13 q-35 -110 -116 -197t-195.5 -135t-247.5 -48zM388 363l367 537q-27 9 -62 9q-144 0 -224.5 -134t-80.5 -362v-50z" />
<glyph unicode="&#x23d;" d="M106 0l115 593h-127l39 203h127l108 553h295l-108 -553h366l-39 -203h-366l-71 -365h616l-44 -228h-911z" />
<glyph unicode="&#x23e;" d="M1095 1121l-286 -336l-152 -785h-295l65 338l-383 -449h-163l594 696l104 536h-406l45 228h910l115 135h163l-115 -135h34l-45 -228h-185zM857 1032l75 89h-58z" />
<glyph unicode="&#x23f;" d="M57 170l192 151q42 -70 117.5 -112.5t181.5 -42.5q136 0 194.5 35.5t58.5 106.5q0 44 -41.5 71t-134.5 47q-181 36 -259.5 70t-120 89.5t-41.5 135.5q0 178 140.5 280t387.5 102q194 0 296.5 -75t104.5 -217l-254 -26q0 67 -41 99t-142 32q-114 0 -169 -30t-55 -98 q0 -39 34.5 -63.5t119.5 -42.5q212 -46 288 -82t115.5 -91t39.5 -136q0 -180 -151 -286.5t-406 -106.5h-19l-19 1l43 -65q50 -76 88 -105.5t95 -29.5q18 0 58.5 4t58.5 8l-39 -201q-89 -17 -155 -17q-78 0 -135 27t-102 74t-83 110.5t-79 137.5q-56 101 -139 205 q-17 20 -28 41z" />
<glyph unicode="&#x240;" d="M33 0l39 199l702 680h-529l39 203h849l-39 -201l-698 -676q63 -14 117 -65.5t117 -155.5q60 -100 109 -142.5t106 -42.5q40 0 100 12l-42 -219q-89 -17 -155 -17q-61 0 -109 21.5t-88 59.5t-102 132q-69 105 -102.5 138.5t-72 53.5t-87.5 20h-154z" />
<glyph unicode="&#x241;" d="M561 546q132 0 226 51.5t145 146.5t51 217q0 112 -64 174.5t-195 62.5q-126 0 -214 -54.5t-145 -176.5l-246 71q95 188 261.5 290t388.5 102q244 0 379 -117t135 -324q0 -150 -73.5 -290.5t-204.5 -237t-299 -129.5l-65 -332h-295l109 559q55 -13 106 -13z" />
<glyph unicode="&#x242;" d="M1078 765q0 -178 -98.5 -298t-282.5 -173l-57 -294h-281l83 428q138 5 206 39t102 105t34 188q0 149 -120 149q-66 0 -118 -49.5t-78 -132.5l-274 14q37 162 172 261.5t326 99.5q181 0 283.5 -89.5t102.5 -247.5z" />
<glyph unicode="&#x243;" d="M-4 520h137l161 829h525q188 0 286.5 -70.5t98.5 -205.5q0 -142 -86.5 -237t-248.5 -127q145 -16 219.5 -86t74.5 -182q0 -136 -69.5 -235.5t-194 -152.5t-285.5 -53h-582l63 324h-137zM869 449q0 71 -45 107.5t-132 36.5h-250l-14 -73h173l-38 -196h-173l-20 -105h257 q117 0 179.5 59t62.5 171zM897 1009q0 121 -141 121h-209l-62 -319h211q99 0 150 52t51 146z" />
<glyph unicode="&#x244;" d="M74 818h109l104 531h295l-104 -531h381l104 531h295l-104 -531h109l-39 -203h-109l-14 -72q-55 -284 -204.5 -423.5t-405.5 -139.5q-200 0 -292.5 87t-92.5 264q0 86 21 197l17 87h-109zM543 211q106 0 168.5 79t94.5 251l14 74h-381q-25 -133 -30 -173t-5 -76 q0 -84 32.5 -119.5t106.5 -35.5z" />
<glyph unicode="&#x245;" d="M-85 0l705 1349h304l180 -1349h-304l-80 865q-6 84 -6 149q0 33 1 41q-14 -42 -34 -88.5t-30 -70t-431 -896.5h-305z" />
<glyph unicode="&#x246;" d="M313 0l-74 -110h-163l74 110h-118l262 1349h777l92 135h163l-92 -135h28l-44 -228h-140l-221 -324h237l-44 -228h-348l-233 -341h616l-44 -228h-728zM482 797h212l221 324h-370zM397 361l142 208h-101z" />
<glyph unicode="&#x247;" d="M517 -20q-133 0 -228 43l-305 -448h-163l359 526q-96 104 -96 284q0 126 42.5 263.5t130.5 242.5t212 158t270 53q62 0 115 -12l269 394h163l-303 -445q157 -104 157 -354q0 -88 -20 -190l-1 -8h-513l-180 -263q50 -56 142 -56q77 0 139.5 32.5t93.5 96.5l260 -23 q-80 -139 -223 -216.5t-321 -77.5zM701 925q-103 0 -177.5 -69.5t-102.5 -192.5h142l176 259zM885 720q0 76 -32 129l-127 -186h155zM375 387l68 100h-58q-10 -50 -10 -99v-1z" />
<glyph unicode="&#x248;" d="M455 -20q-198 0 -289.5 105t-91.5 286l1 31l300 43v-24q0 -100 32 -155t95 -55q73 0 128 59t76 169l46 236h-241l39 203h241l47 240h-301l45 231h595l-92 -471h90l-39 -203h-90l-45 -229q-43 -218 -188.5 -342t-357.5 -124z" />
<glyph unicode="&#x249;" d="M887 658h121l-39 -203h-121l-91 -468q-25 -129 -100.5 -222t-189.5 -141.5t-249 -48.5q-78 0 -157.5 12.5t-122.5 30.5l41 210q130 -34 256 -34q111 0 167 54t77 162l86 445h-121l39 203h122l46 234h-354l37 190h636zM726 1277l41 207h281l-41 -207h-281z" />
<glyph unicode="&#x24a;" d="M929 -425q-250 0 -250 241q0 58 15 132l17 87q-106 -55 -230 -55q-203 0 -305.5 126.5t-102.5 357.5q0 247 92.5 458.5t252.5 329.5t363 118q169 0 276 -99l142 78h48l-268 -1381q-7 -37 -7 -63q0 -93 91 -93q30 0 100 13l-44 -230q-37 -8 -94 -14t-96 -6zM523 200 q131 0 224 98l146 751q-49 89 -166 89q-97 0 -177 -88.5t-129.5 -251.5t-49.5 -323q0 -275 152 -275z" />
<glyph unicode="&#x24b;" d="M1195 1082q-8 -34 -23.5 -95.5t-30.5 -140.5l-171 -879q-7 -37 -7 -63q0 -92 91 -92q30 0 100 13l-45 -230q-92 -20 -189 -20q-123 0 -190 50t-68 143q0 26 6 57l62 346h-2q-58 -91 -150 -141t-204 -50q-149 0 -223.5 96t-74.5 279q0 201 69 375t189.5 273.5t267.5 99.5 q209 0 267 -197h4q7 36 25 99t25 77h272zM819 677q0 234 -156 234q-129 0 -210 -149.5t-81 -374.5q0 -110 35.5 -163t113.5 -53q79 0 148.5 63t109.5 177t40 266z" />
<glyph unicode="&#x24c;" d="M40 744h137l117 605h494q230 0 344 -84t114 -240q0 -161 -94 -277.5t-266 -166.5l236 -581h-332l-190 515h-173l-100 -515h-295l100 515h-137zM942 975q0 80 -60 112.5t-169 32.5h-168l-73 -376h176q294 0 294 231z" />
<glyph unicode="&#x24d;" d="M1141 848q-107 19 -208 19q-125 0 -226.5 -78t-159.5 -221h143l-39 -203h-155l-71 -365h-280l71 365h-116l39 203h116l26 133q24 124 24 282l-2 99h271l6 -107q0 -72 -4 -121h4q76 136 173 192t231 56q106 0 203 -17z" />
<glyph unicode="&#x24e;" d="M1271 1208h87l-39 -203h-206l-349 -449l-108 -556h-294l108 556l-176 449h-204l39 203h85l-54 141h302l46 -141h454l104 141h316zM652 783l162 222h-237z" />
<glyph unicode="&#x24f;" d="M1116 778h112l-39 -203h-192l-371 -632q-122 -207 -231.5 -287.5t-257.5 -80.5q-107 0 -179 13l39 200l50 -5l50 -3q61 0 105 20t83 63t98 148l-126 564h-203l39 203h118l-68 304h297l50 -304h349l162 304h294zM564 221q110 242 166 354h-206q7 -36 15 -102t25 -252z" />
<glyph unicode="&#x250;" d="M900 1102q134 0 206 -66.5t72 -190.5q0 -198 -125 -304t-368 -111l-223 -4q-21 -105 -21 -139q0 -125 117 -125q71 0 113 36t67 117l290 -14q-118 -321 -517 -321q-201 0 -277 84.5t-76 199.5q0 49 11 106l77 392q10 56 10 86q0 40 -17 57t-51 17q-33 0 -63 -6l29 152 q26 6 47 11t41.5 8t43.5 5t53 2q106 0 142.5 -47t36.5 -120l-2 -38h6q80 108 172 160.5t206 52.5zM491 581l135 2q107 2 155.5 23t72.5 67t24 125q0 108 -96 108q-98 0 -178 -78.5t-102 -191.5z" />
<glyph unicode="&#x251;" d="M877 911q6 31 23 93.5t26 77.5h266q-21 -80 -55 -250l-116 -596q-10 -54 -37 -236h-272v8q0 61 20 168h-4q-125 -196 -366 -196q-138 0 -212.5 94t-74.5 279q0 213 68 388.5t186 268t271 92.5q110 0 179.5 -49t93.5 -142h4zM822 693q0 107 -36.5 162.5t-120.5 55.5 q-137 0 -215.5 -143t-78.5 -385q0 -113 37 -162t112 -49q81 0 151 63.5t110.5 181.5t40.5 276z" />
<glyph unicode="&#x252;" d="M500 911q58 93 147 142t200 49q149 0 227.5 -95.5t78.5 -282.5q0 -203 -65.5 -379t-179 -270.5t-259.5 -94.5q-241 0 -290 196h-4q-8 -41 -24.5 -102t-23.5 -74h-272l24 96q15 61 30 140q70 359 109.5 562t48.5 284h266l1 -10q0 -26 -6 -79.5t-12 -81.5h4zM409 399 q0 -113 37.5 -170t118.5 -57q88 0 153.5 64.5t102.5 189t37 275.5q0 108 -35 159t-115 51q-85 0 -153 -61.5t-107 -177.5t-39 -273z" />
<glyph unicode="&#x253;" d="M665 1493q28 0 92.5 -5t97.5 -12l-41 -211q-18 5 -56.5 8.5t-56.5 3.5q-130 0 -153 -125l-49 -240h2q58 91 150 141t204 50q146 0 222.5 -95t76.5 -280q0 -201 -69 -375t-189.5 -273.5t-267.5 -99.5q-105 0 -174 50.5t-94 145.5h-4q-9 -49 -26.5 -108t-22.5 -68h-272 l24 96q15 61 30 140l188 967q27 138 131 214t257 76zM410 406q0 -234 156 -234q129 0 210 149.5t81 374.5q0 113 -36 164.5t-113 51.5q-79 0 -147.5 -62t-109.5 -176.5t-41 -267.5z" />
<glyph unicode="&#x254;" d="M718 1102q204 0 313 -103t109 -295q0 -133 -46 -274.5t-131.5 -243t-204.5 -154t-262 -52.5q-192 0 -297.5 96t-105.5 265l286 14l-1 -19q0 -70 36.5 -116.5t124.5 -46.5q96 0 161 67.5t105 204.5t40 252q0 213 -166 213q-80 0 -144.5 -50.5t-96.5 -150.5l-279 13 q35 109 116 196t195.5 135.5t247.5 48.5z" />
<glyph unicode="&#x255;" d="M-50 89q92 104 165 172q-20 64 -20 165q0 199 79.5 354t226.5 238.5t336 83.5q190 0 296.5 -95t106.5 -260v-6l-286 -14v15q0 73 -36.5 120t-124.5 47q-113 0 -182.5 -93t-104.5 -270l-12 -70q192 115 358 115q155 0 237 -58.5t82 -167.5q0 -173 -145.5 -279t-387.5 -106 q-192 0 -312 107q-32 -32 -137 -149zM815 301q0 84 -145 84q-107 0 -253 -118q48 -95 187 -95q105 0 158 34t53 95z" />
<glyph unicode="&#x256;" d="M731 176h-4q-74 -107 -161 -151.5t-193 -44.5q-144 0 -220 99t-76 285q0 202 68 375t185.5 267t271.5 94q106 0 175.5 -48.5t94.5 -142.5h2l32 178l77 397h282l-305 -1568q-5 -22 -5 -39q0 -86 109 -86q46 0 108 12l-41 -211q-89 -17 -196 -17q-136 0 -200.5 57 t-64.5 175q0 52 12 116zM821 686q0 223 -156 223q-132 0 -212.5 -144t-80.5 -377q0 -116 37.5 -166t109.5 -50q77 0 147 63t112.5 178.5t42.5 272.5z" />
<glyph unicode="&#x257;" d="M712 0v8q0 66 19 168h-4q-74 -107 -161 -151.5t-193 -44.5q-144 0 -220 99t-76 285q0 202 68 375t185.5 267t271.5 94q106 0 175.5 -48.5t94.5 -142.5h2l13 74q43 271 88 350t122.5 119.5t189.5 40.5q77 0 160 -17l-41 -211q-55 12 -83 12q-54 0 -81.5 -26.5t-40.5 -94.5 l-179 -920q-15 -77 -38 -236h-272zM821 686q0 223 -156 223q-132 0 -212.5 -144t-80.5 -377q0 -116 37.5 -166t109.5 -50q77 0 147 63t112.5 178.5t42.5 272.5z" />
<glyph unicode="&#x258;" d="M494 -20q-177 0 -290 77t-140 217l269 23q7 -66 58 -97.5t125 -31.5q113 0 196 86.5t111 232.5h-734l2 8q67 297 226.5 452t390.5 155q209 0 323.5 -112t114.5 -317q0 -210 -80.5 -367.5t-229.5 -241.5t-342 -84zM678 925q-99 0 -175.5 -71t-106.5 -191h460q6 37 6 68 q0 92 -48.5 143t-135.5 51z" />
<glyph unicode="&#x259;" d="M710 1102q207 0 320 -104.5t113 -300.5q0 -126 -42.5 -263.5t-130.5 -242.5t-212 -158t-270 -53q-197 0 -299 108t-102 309q0 88 20 190l1 8h734q10 50 10 99q0 107 -51 163.5t-142 56.5q-77 0 -139.5 -32.5t-93.5 -96.5l-260 23q83 141 225 217.5t319 76.5zM526 157 q103 0 177.5 69.5t102.5 192.5h-460l-4 -57q0 -102 51 -153.5t133 -51.5z" />
<glyph unicode="&#x25a;" d="M524 1102q139 0 216.5 -85.5t80.5 -259.5l182 38l-5 -163q0 -60 16 -84.5t48 -24.5q52 0 121 43l17 -180q-105 -56 -204 -56q-97 0 -143.5 53.5t-50.5 176.5l-5 -24q-56 -270 -183.5 -413t-310.5 -143q-134 0 -206 89.5t-72 257.5q0 131 34 268l510 101l3 81 q0 69 -23.5 108t-70.5 39q-81 0 -140 -139l-226 23q147 294 412 294zM342 167q70 0 119.5 81t82.5 252l-281 -65q-10 -69 -10 -120q0 -54 16.5 -101t72.5 -47z" />
<glyph unicode="&#x25b;" d="M558 168q187 0 370 157l136 -140q-126 -107 -261 -156t-281 -49q-210 0 -327 73t-117 198q0 124 110 209.5t274 97.5l1 2q-111 10 -180.5 72.5t-69.5 147.5q0 143 145.5 232.5t387.5 89.5q156 0 272.5 -49t170.5 -140l-206 -123q-32 60 -101 96.5t-155 36.5 q-116 0 -181.5 -38t-65.5 -101q0 -132 381 -132l-35 -177q-219 0 -336 -47t-117 -136q0 -59 48.5 -91.5t136.5 -32.5z" />
<glyph unicode="&#x25c;" d="M527 168q108 0 174 44t66 118q0 70 -101.5 107.5t-288.5 37.5l35 177q221 0 330 40.5t109 123.5q0 48 -51.5 77.5t-149.5 29.5q-87 0 -169.5 -36.5t-137.5 -96.5l-158 123q189 189 496 189q206 0 323.5 -70.5t117.5 -185.5q0 -109 -101 -191t-247 -95v-2 q128 -11 204.5 -74t76.5 -154q0 -103 -68 -182.5t-194.5 -123.5t-293.5 -44q-309 0 -472 205l190 140q60 -78 139.5 -117.5t170.5 -39.5z" />
<glyph unicode="&#x25d;" d="M315 -20q-153 0 -232 80t-85 228l236 44q2 -164 116 -164q74 0 115.5 46.5t41.5 134.5q0 65 -46 93.5t-160 28.5l34 177q145 0 201 43t56 143q0 89 -89 89q-125 0 -166 -144l-218 22q48 143 161 222t272 79q114 0 187 -42.5t97 -115.5l155 30l-5 -137q0 -133 89 -133 q58 0 133 43l25 -180q-44 -22 -114 -39.5t-131 -17.5q-88 0 -139 48t-62 136q-68 -94 -208 -127v-2q90 -11 143 -69t53 -147q0 -105 -56 -190t-159.5 -132t-244.5 -47z" />
<glyph unicode="&#x25e;" d="M717 923q-163 0 -258 -134t-95 -355q0 -127 51.5 -196.5t147.5 -69.5q94 0 150 50.5t56 130.5q0 63 -43 90t-157 27l36 182q136 0 190 40.5t54 130.5q0 49 -34.5 76.5t-97.5 27.5zM748 1102q166 0 270.5 -68.5t104.5 -178.5q0 -229 -281 -290q103 -11 160 -64.5 t57 -142.5q0 -106 -66 -192.5t-188.5 -136t-280.5 -49.5q-213 0 -329.5 117.5t-116.5 324.5q0 196 81.5 351t234 242t354.5 87z" />
<glyph unicode="&#x25f;" d="M507 190l174 892h280l-174 -892h256l-36 -190h-257l-16 -83q-34 -174 -160.5 -261.5t-328.5 -87.5q-162 0 -322 28l36 184q147 -19 274 -19q99 0 153.5 41.5t72.5 140.5l11 57h-442l36 190h443z" />
<glyph unicode="&#x260;" d="M426 -434q-184 0 -286 75.5t-104 215.5l287 33q3 -65 42.5 -103t104.5 -38q204 0 261 288l36 174h-2q-66 -99 -160 -149t-207 -50q-150 0 -221 95t-71 267q0 204 66 373t184.5 260.5t273.5 91.5q105 0 174.5 -49t95.5 -142h6l57 295q57 290 351 290q77 0 160 -17 l-41 -211q-55 12 -83 12q-55 0 -82.5 -27t-40.5 -94l-218 -1123q-44 -227 -194.5 -347t-388.5 -120zM848 687q0 219 -155 219q-127 0 -208.5 -136.5t-81.5 -356.5q0 -106 37 -156t115 -50t145.5 57.5t107.5 164.5t40 258z" />
<glyph unicode="&#x261;" d="M427 -434q-186 0 -287.5 76.5t-103.5 214.5l288 33q2 -65 41.5 -103t104.5 -38q204 0 261 288l36 174h-2q-69 -105 -164.5 -152t-202.5 -47q-141 0 -216.5 89t-75.5 258q0 129 39.5 276t109 251.5t165 158.5t211.5 54q107 0 176.5 -50t92.5 -141h5q33 139 48 174h266 l-23 -101l-31 -149l-156 -799q-45 -229 -195 -348t-387 -119zM849 692q0 99 -41 156.5t-115 57.5q-87 0 -152 -70t-101.5 -199.5t-36.5 -229.5q0 -200 152 -200q87 0 154.5 69.5t103.5 192t36 223.5z" />
<glyph unicode="&#x262;" d="M794 357h-182l41 209h451l-88 -454q-110 -58 -178 -81.5t-144 -37t-167 -13.5q-452 0 -452 400q0 207 82.5 373t232 257.5t339.5 91.5q186 0 289 -83.5t114 -252.5l-276 -38q-9 87 -47 125t-117 38q-148 0 -233.5 -131t-85.5 -359q0 -217 206 -217q56 0 92 7.5t98 36.5z " />
<glyph unicode="&#x263;" d="M738 271q57 -161 74 -235t17 -123q0 -98 -46 -176t-134 -123.5t-215 -45.5q-134 0 -209 65t-75 182q0 124 141 320l87 120l-220 827h292l141 -615l390 615h299zM577 -88q0 92 -42 213q-80 -112 -109.5 -176t-29.5 -107q0 -82 68 -82q53 0 83 41t30 111z" />
<glyph unicode="&#x264;" d="M547 172q43 0 73 31t30 85q0 65 -46 177q-73 -88 -99 -137.5t-26 -84.5q0 -32 18 -51.5t50 -19.5zM509 -20q-130 0 -199 50t-69 148q0 55 20.5 108.5t58.5 113.5t151 206l-51 171q-27 88 -113 88q-81 0 -179 -71l-33 198q145 110 292 110q90 0 144 -38t83 -122l47 -136 l97 136q115 160 309 160q71 0 136 -28.5t114 -81.5l-109 -198q-29 29 -69.5 50t-83.5 21q-40 0 -75.5 -19.5t-71.5 -68.5l-122 -162q53 -142 70 -213t17 -122q0 -149 -92.5 -224.5t-271.5 -75.5z" />
<glyph unicode="&#x265;" d="M746 216q-81 -124 -178 -180t-216 -56q-271 0 -271 260q0 73 16 156l133 686h280l-121 -621q-16 -82 -16 -132q0 -72 34.5 -105t102.5 -33q102 0 180 86.5t107 225.5l113 579h281l-288 -1484h-282l79 405q13 71 41 177l9 36h-4z" />
<glyph unicode="&#x266;" d="M479 866h4q81 124 178 180t216 56q133 0 202 -66t69 -194q0 -73 -16 -156l-133 -686h-280l121 621q16 82 16 132q0 72 -34.5 105t-102.5 33q-104 0 -183.5 -90t-103.5 -222l-113 -579h-281l234 1204q27 137 130.5 213t257.5 76q28 0 92.5 -5t97.5 -12l-41 -211 q-18 5 -56.5 8.5t-56.5 3.5q-130 0 -153 -125q-5 -26 -15 -79t-49 -207z" />
<glyph unicode="&#x267;" d="M479 866h4q81 124 178 180t216 56q133 0 202 -66t69 -194q0 -73 -16 -156l-148 -765q-34 -173 -128.5 -259.5t-260.5 -86.5q-49 0 -108 6t-80 11l41 211q55 -12 102 -12q129 0 152 124l138 706q16 82 16 132q0 72 -34.5 105t-102.5 33q-104 0 -183.5 -90t-103.5 -222 l-113 -579h-281l234 1204q27 137 130.5 213t257.5 76q28 0 92.5 -5t97.5 -12l-41 -211q-18 5 -56.5 8.5t-56.5 3.5q-130 0 -153 -125q-5 -26 -15 -79t-49 -207z" />
<glyph unicode="&#x268;" d="M817 658h222l-40 -203h-222l-51 -265h353l-37 -190h-1029l37 190h395l51 265h-222l40 203h222l45 234h-290l37 190h571zM656 1277l40 207h281l-40 -207h-281z" />
<glyph unicode="&#x269;" d="M663 -20q-155 0 -232 59.5t-78 185.5q0 67 16 144l102 523h-284l37 190h564l-136 -699q-11 -58 -11 -88q0 -45 23.5 -64t75.5 -19q83 0 186 23l-42 -216q-74 -26 -120.5 -32.5t-100.5 -6.5z" />
<glyph unicode="&#x26a;" d="M262 1082h916l-44 -228h-316l-122 -626h316l-44 -228h-916l44 228h316l122 626h-316z" />
<glyph unicode="&#x26b;" d="M840 779q40 1 61 24t32 79h127q-20 -107 -50.5 -160t-80 -81.5t-122.5 -31.5l-81 -419h353l-37 -190h-1029l37 190h395l105 541q-40 -2 -60 -24t-30 -78h-129q27 141 88 203t164 69l77 393h-290l36 190h571z" />
<glyph unicode="&#x26c;" d="M818 664h119l-34 -177h-119l-58 -297h353l-37 -190h-1029l37 190h395l58 298h-18q-101 0 -162.5 58.5t-61.5 154.5q0 129 92.5 217t227.5 88h23l56 288h-290l36 190h571zM537 664l32 164h-18q-114 0 -114 -98q0 -66 82 -66h18z" />
<glyph unicode="&#x26d;" d="M668 -123q0 -86 110 -86q47 0 107 12l-41 -211q-29 -6 -89.5 -11.5t-105.5 -5.5q-137 0 -202.5 58.5t-65.5 175.5q0 51 12 114l266 1371h-289l37 190h571l-305 -1568q-5 -22 -5 -39z" />
<glyph unicode="&#x26e;" d="M25 0l289 1484h281l-78 -402h712l-38 -195l-368 -366q132 -22 207 -115t75 -236q0 -175 -76.5 -311.5t-218 -210.5t-326.5 -74q-187 0 -310.5 72.5t-148.5 192.5l269 60q24 -69 77 -104t127 -35q156 0 235.5 89.5t79.5 279.5q0 113 -70.5 163t-215.5 50h-25l37 189 l346 348h-408l-171 -879h-281z" />
<glyph unicode="&#x26f;" d="M833 1082l-128 -658q-23 -115 -23 -177q0 -48 14.5 -68t44.5 -20q50 0 98 93.5t78 247.5l113 582h229l-165 -851q-7 -34 -13.5 -71.5t-12 -71t-9.5 -57.5t-4 -31h-209l11 73l17 102h-2q-100 -195 -254 -195q-88 0 -122 47.5t-34 142.5v6h-2q-61 -106 -125.5 -151 t-148.5 -45q-87 0 -127.5 45.5t-40.5 147.5q0 76 22 188l140 721h228l-128 -658q-23 -115 -23 -177q0 -48 14.5 -68t44.5 -20q51 0 96 80.5t76 241.5l117 601h228z" />
<glyph unicode="&#x270;" d="M833 1082l-128 -658q-23 -115 -23 -177q0 -48 14.5 -68t44.5 -20q50 0 98 93.5t78 247.5l113 582h229l-293 -1507h-209l117 600h-2q-100 -195 -254 -195q-88 0 -122 47.5t-34 142.5v6h-2q-61 -106 -125.5 -151t-148.5 -45q-87 0 -127.5 45.5t-40.5 147.5q0 76 22 188 l140 721h228l-128 -658q-23 -115 -23 -177q0 -48 14.5 -68t44.5 -20q51 0 96 80.5t76 241.5l117 601h228z" />
<glyph unicode="&#x271;" d="M396 0l128 658q23 115 23 177q0 48 -14 68t-45 20q-50 0 -98 -93.5t-78 -247.5l-113 -582h-229l165 851q7 34 13.5 71.5t12 71t9.5 57.5t4 31h209l-19 -127l-9 -48h2q57 106 117.5 150.5t136.5 44.5q88 0 122 -47.5t34 -142.5v-6h2q61 106 125.5 151t148.5 45 q87 0 127.5 -45.5t40.5 -144.5q0 -76 -22 -191l-159 -817q-32 -167 -114.5 -248t-219.5 -81q-49 0 -108 6t-80 11l37 191q55 -12 102 -12q128 0 154 125l148 762q23 115 23 177q0 48 -14 68t-45 20q-51 0 -96 -80.5t-76 -241.5l-117 -601h-228z" />
<glyph unicode="&#x272;" d="M241 1082h268q0 -21 -9.5 -89t-19.5 -126h4q81 124 178 180t216 56q270 0 270 -271q0 -66 -15 -145l-134 -687h-279l120 619q15 73 15 126q0 78 -32 112.5t-101 34.5q-105 0 -185 -90t-105 -222l-129 -665q-34 -173 -129.5 -256.5t-259.5 -83.5q-47 0 -103.5 5.5 t-85.5 11.5l41 211q48 -12 103 -12q127 0 153 125l180 924q15 74 25 142.5t14 99.5z" />
<glyph unicode="&#x273;" d="M854 745q0 78 -32 112.5t-101 34.5q-102 0 -182.5 -88t-106.5 -224l-113 -580h-281l163 840q33 166 39 242h268q0 -16 -9 -88.5t-19 -126.5h4q80 123 177 179.5t216 56.5q134 0 202.5 -68t68.5 -203q0 -66 -15 -145l-150 -771q-5 -22 -5 -39q0 -86 109 -86q46 0 108 12 l-41 -211q-89 -17 -196 -17q-136 0 -201 57.5t-65 174.5q0 52 12 116l135 696q15 73 15 126z" />
<glyph unicode="&#x274;" d="M989 0h-270l-300 759q-15 -131 -31 -206l-107 -553h-250l210 1082h296l277 -747q21 165 32 217l103 530h250z" />
<glyph unicode="&#x275;" d="M1156 687q0 -211 -77.5 -371.5t-225 -248t-352.5 -87.5q-203 0 -314 111.5t-111 319.5q0 206 80 365.5t225 242.5t344 83q210 0 320.5 -104t110.5 -311zM692 909q-109 0 -177 -66.5t-107 -210.5h450q5 44 5 81q0 84 -33 140t-138 56zM536 172q106 0 173.5 62.5 t108.5 199.5h-446l-3 -61q0 -91 37 -146t130 -55z" />
<glyph unicode="&#x276;" d="M520 53q-100 -73 -214 -73q-134 0 -206 100.5t-72 287.5q0 207 63 379.5t175.5 263.5t262.5 91q112 0 181 -67l10 47h575l-40 -203h-343l-43 -223h303l-40 -203h-303l-48 -248h343l-40 -205h-575zM637 695q0 214 -116 214q-75 0 -131 -66.5t-84 -187.5t-28 -291 q0 -192 92 -192q120 0 193.5 147t73.5 376z" />
<glyph unicode="&#x277;" d="M686 906q-108 0 -198.5 -74t-142 -206.5t-51.5 -301.5q0 -152 42 -152q38 0 80.5 79t70.5 219l31 157h228l-31 -157q-19 -98 -19 -166q0 -58 14 -95t40 -37q32 0 68.5 69t64 179.5t27.5 192.5q0 140 -59.5 216.5t-164.5 76.5zM723 1102q218 0 336.5 -117.5t118.5 -338.5 q0 -185 -58.5 -339t-160.5 -240.5t-221 -86.5q-98 0 -141 62t-44 176h-3q-45 -115 -111.5 -176.5t-165.5 -61.5q-110 0 -174 98.5t-64 271.5q0 353 182.5 552.5t505.5 199.5z" />
<glyph unicode="&#x278;" d="M1156 686q0 -288 -144 -474.5t-399 -223.5l-80 -413h-213l80 412q-154 22 -239 132.5t-85 290.5q0 183 63 328t184.5 238t291.5 118l76 390h213l-76 -389q163 -22 245.5 -125.5t82.5 -283.5zM891 673q0 192 -99 237l-143 -736q114 48 178 180.5t64 318.5zM341 416 q0 -191 95 -242l142 732q-114 -49 -175.5 -179t-61.5 -311z" />
<glyph unicode="&#x279;" d="M88 234q107 -19 208 -19q155 0 270 117t153 312l85 438h280l-136 -701q-24 -125 -24 -316l2 -65h-271l-5 108q0 71 3 120h-4q-76 -136 -173 -192t-231 -56q-106 0 -203 17z" />
<glyph unicode="&#x27a;" d="M88 234q107 -19 208 -19q155 0 270 117t153 312l163 840h280l-214 -1103q-24 -125 -24 -316l2 -65h-271l-5 108q0 71 3 120h-4q-76 -136 -173 -192t-231 -56q-106 0 -203 17z" />
<glyph unicode="&#x27b;" d="M88 234q107 -19 208 -19q155 0 270 117t153 312l85 438h280l-227 -1169l-4 -36q0 -86 109 -86q47 0 107 12l-41 -211q-29 -6 -89.5 -11.5t-105.5 -5.5q-131 0 -192 54t-61 169q0 54 13 123l60 307h-4q-76 -136 -173 -192t-231 -56q-106 0 -203 17z" />
<glyph unicode="&#x27c;" d="M1140 848q-107 19 -208 19q-156 0 -270 -117.5t-152 -311.5l-168 -863h-280l219 1126q24 124 24 282l-2 99h271q5 -55 5 -107q0 -79 -3 -121h4q71 131 168 189.5t236 58.5q103 0 203 -17z" />
<glyph unicode="&#x27d;" d="M1141 848q-107 19 -208 19q-155 0 -270 -117t-153 -312l-101 -522q-5 -22 -5 -39q0 -86 110 -86q47 0 107 12l-41 -211q-29 -6 -89.5 -11.5t-105.5 -5.5q-136 0 -201.5 57.5t-65.5 174.5q0 52 12 116l151 778q24 124 24 282l-2 99h271l6 -107q0 -72 -4 -121h4 q76 136 173 192t231 56q106 0 203 -17z" />
<glyph unicode="&#x27e;" d="M1140 845q-80 23 -221 23q-327 0 -387 -313l-108 -555h-281l108 554q53 274 221.5 411t469.5 137q155 0 244 -25z" />
<glyph unicode="&#x27f;" d="M505 1102q301 0 398 -115.5t97 -273.5q0 -73 -17 -159l-190 -979h-280l190 980q10 51 10 93q0 93 -58.5 156.5t-217.5 63.5q-140 0 -230 -23l44 232q100 25 254 25z" />
<glyph unicode="&#x280;" d="M400 435l-85 -435h-282l210 1082h487q420 0 420 -258q0 -138 -76.5 -229.5t-217.5 -123.5l230 -471h-310l-187 435h-189zM431 607h208q115 0 168.5 48t53.5 131q0 121 -180 121h-192z" />
<glyph unicode="&#x281;" d="M830 647l84 435h282l-210 -1082h-487q-420 0 -420 258q0 140 78.5 231t216.5 122l-231 471h310l188 -435h189zM798 475h-208q-114 0 -167.5 -48.5t-53.5 -130.5q0 -121 179 -121h192z" />
<glyph unicode="&#x282;" d="M324 307q5 -77 50.5 -109t173.5 -32q136 0 194.5 35.5t58.5 106.5q0 44 -40.5 71t-134.5 47q-183 36 -261.5 70.5t-119.5 90t-41 134.5q0 177 140.5 279.5t388.5 102.5q195 0 296.5 -76t103.5 -216l-254 -26q0 67 -41 99t-142 32q-114 0 -168.5 -30t-54.5 -98 q0 -39 33.5 -63t119.5 -43q212 -46 288 -82t115.5 -91t39.5 -136q0 -180 -151 -286.5t-406 -106.5q-148 0 -236 46q-28 -139 -28 -155q0 -86 109 -86q46 0 108 12l-40 -205q-89 -17 -169 -17q-136 0 -201 57.5t-65 174.5q0 52 12 116l67 347z" />
<glyph unicode="&#x283;" d="M187 -425q-42 0 -87 7t-64 14l41 213q53 -21 123 -21q47 0 78 19t51 56t37 122l218 1126q39 199 151 290t306 91q89 0 151 -19l-42 -215q-36 21 -115 21q-72 0 -114.5 -46.5t-60.5 -148.5l-219 -1128q-39 -201 -150 -291t-304 -90z" />
<glyph unicode="&#x284;" d="M194 190h211l179 921q39 199 151 290t306 91q89 0 151 -19l-42 -215q-36 21 -115 21q-72 0 -114.5 -46.5t-60.5 -148.5l-174 -894h155l-36 -190h-155l-9 -44q-42 -204 -153 -292.5t-301 -88.5q-42 0 -87 7t-64 14l41 213q53 -21 123 -21q47 0 78 19t51 56t40 137h-211z " />
<glyph unicode="&#x285;" d="M671 -425q-160 0 -239.5 62t-79.5 194q0 58 13 125l143 737q10 56 10 89q0 106 -109 106q-72 0 -118 -21l42 215q69 19 153 19q161 0 241 -62t80 -194q0 -58 -13 -125l-142 -735q-13 -67 -13 -100q0 -51 25 -74t76 -23q66 0 126 21l-41 -213q-68 -21 -154 -21z" />
<glyph unicode="&#x286;" d="M1220 1492q89 0 151 -19l-42 -215q-36 21 -115 21q-73 0 -114.5 -46.5t-59.5 -148.5l-185 -951q-18 -83 -32.5 -123.5t-34.5 -77.5q43 -57 84 -119t50 -81l-198 -151q-20 35 -43 67t-43 67q-113 -77 -210.5 -108.5t-199.5 -31.5q-149 0 -236.5 68.5t-87.5 189.5 q0 100 51.5 182.5t147 129.5t223.5 47q144 0 244 -81l194 1000q39 201 150.5 291t305.5 90zM143 -139q0 -42 32.5 -66t86.5 -24q74 0 142.5 35.5t94.5 86.5q-29 45 -83.5 70t-112.5 25q-73 0 -116.5 -35.5t-43.5 -91.5z" />
<glyph unicode="&#x287;" d="M888 472h167l-37 -190h-181l-143 -282h-176l55 282h-385l37 190h385l103 530q12 62 12 86q0 98 -150 98q-124 0 -261 -27l37 186q146 23 207 27.5t123 4.5q165 0 246.5 -57.5t81.5 -178.5q0 -23 -4 -57t-117 -612z" />
<glyph unicode="&#x288;" d="M397 892h-167l37 190h181l143 282h176l-55 -282h385l-37 -190h-385l-183 -941q-12 -62 -12 -86q0 -51 36 -74.5t114 -23.5q123 0 260 27l-36 -186q-146 -23 -207 -27.5t-123 -4.5q-165 0 -247.5 57.5t-82.5 179.5q0 47 13 112z" />
<glyph unicode="&#x289;" d="M521 1082l-80 -409h379l80 409h281l-80 -409h120l-34 -177h-120q-63 -329 -74.5 -398.5t-13.5 -97.5h-268q9 102 29 215h-5q-153 -235 -373 -235q-132 0 -201.5 69t-69.5 202q0 67 15 144l20 101h-107l34 177h107l80 409h281zM520 190q87 0 162.5 85t103.5 221h-379 q-16 -84 -16 -136q0 -84 33 -127t96 -43z" />
<glyph unicode="&#x28a;" d="M1222 879h-97q-76 0 -76 -54q0 -20 12 -53t27 -76t27 -94.5t12 -106.5q0 -150 -78 -265.5t-223 -182.5t-323 -67q-208 0 -326.5 99t-118.5 272q0 69 17.5 126.5t44 105.5t57.5 87t57.5 70.5t44 56.5t17.5 44q0 38 -58 38h-98l39 203h202q80 0 126.5 -44t46.5 -117 q0 -46 -23 -98t-80 -141q-104 -160 -104 -289q0 -101 51.5 -161t145.5 -60q134 0 220 99t86 252q0 61 -20 172q-20 105 -20 149q0 103 71 170.5t179 67.5h201z" />
<glyph unicode="&#x28b;" d="M884 1102q127 0 196 -77.5t69 -222.5q0 -234 -85.5 -428t-234.5 -294t-346 -100t-291 75.5t-94 230.5q0 66 16 147l126 649h281l-121 -622q-13 -68 -13 -119q0 -154 153 -154q93 0 165.5 69t117.5 207t45 278q0 73 -27.5 110.5t-75.5 37.5q-19 0 -58 -3.5t-60 -8.5 l41 208q39 7 102.5 12t93.5 5z" />
<glyph unicode="&#x28c;" d="M1088 0h-294l-95 625q-13 77 -27 247l-26 -56l-93 -194l-330 -622h-297l617 1082h336z" />
<glyph unicode="&#x28d;" d="M1113 0h-226l27 607q9 153 22 224q-6 -17 -22.5 -53t-255.5 -513h-193l-57 454l-10 114q-11 -60 -63 -226l-201 -607h-228l393 1082h243l58 -467l8 -106l47 102l235 471h243z" />
<glyph unicode="&#x28e;" d="M1092 1507q107 0 179 -13l-38 -200q-53 8 -101 8q-59 0 -102 -18.5t-80 -58.5t-104 -154l240 -1071h-297l-88 527q-11 62 -36 334l-16 -36l-91 -196l-47 -98l-283 -531h-294l670 1139q124 210 233 289t255 79z" />
<glyph unicode="&#x28f;" d="M370 0l85 440l-297 642h297l182 -428l349 428h294l-544 -642l-85 -440h-281z" />
<glyph unicode="&#x290;" d="M950 -129q0 -86 109 -86q46 0 108 12l-40 -205q-89 -17 -170 -17q-136 0 -200.5 57t-64.5 175q0 52 12 116l15 77h-686l39 199l702 680h-529l39 203h849l-39 -201l-698 -676h616l-57 -295q-5 -22 -5 -39z" />
<glyph unicode="&#x291;" d="M221 -96l52 71l20 25h-330l39 199l622 680h-449l39 203h729l-39 -201l-618 -676h175q164 198 270.5 276t218.5 78q109 0 165 -56t56 -153q0 -167 -110.5 -258.5t-308.5 -91.5h-221q-73 -98 -143 -203zM951 304q0 27 -15 41.5t-38 14.5q-25 0 -54.5 -21.5t-132.5 -133.5 h112q58 0 93 25.5t35 73.5z" />
<glyph unicode="&#x292;" d="M445 -232q162 0 232.5 85t70.5 273q0 110 -72.5 163.5t-226.5 53.5h-102l37 189l406 347h-568l40 203h902l-38 -195l-434 -365q164 -17 255.5 -111.5t91.5 -247.5q0 -170 -78 -304.5t-221.5 -209t-329.5 -74.5q-200 0 -312 92.5t-112 259.5l1 29l279 13l-1 -19 q0 -84 49 -133t131 -49z" />
<glyph unicode="&#x293;" d="M786 -413q-17 50 -42 104q-174 -116 -368 -116q-180 0 -283.5 74t-103.5 200q0 159 119.5 249.5t333.5 90.5q166 0 318 -128q7 39 7 72q0 104 -74.5 157t-233.5 53h-112l37 189l406 347h-568l40 203h902l-38 -195l-434 -365q164 -17 255.5 -111.5t91.5 -247.5 q0 -90 -29.5 -159.5t-78.5 -136.5q29 -46 77 -144zM232 -128q0 -48 47.5 -77.5t124.5 -29.5q150 0 243 84q-112 133 -245 133q-81 0 -125.5 -29t-44.5 -81z" />
<glyph unicode="&#x294;" d="M356 0l109 563q42 -12 73 -15t63 -3q145 0 232.5 107t87.5 288q0 198 -201 198q-86 0 -161 -55.5t-104 -140.5l-258 67q59 161 215.5 261t353.5 100q209 0 326 -108.5t117 -308.5q0 -153 -65 -287t-182.5 -222t-257.5 -110l-65 -334h-283z" />
<glyph unicode="&#x295;" d="M400 0l65 334q-141 24 -223.5 136t-82.5 273q0 184 80.5 327.5t228.5 221.5t338 78q130 0 227.5 -45t149.5 -127t52 -184v-5l-284 -67v11q0 79 -52.5 132t-136.5 53q-152 0 -230.5 -90.5t-78.5 -269.5q0 -119 53.5 -176t143.5 -57q33 0 65 3t78 15l-110 -563h-283z" />
<glyph unicode="&#x296;" d="M887 1349l-64 -333q141 -24 223.5 -136t82.5 -273q0 -184 -80.5 -327.5t-228.5 -221.5t-338 -78q-130 0 -227.5 45t-149.5 127t-52 184v5l284 67v-11q0 -79 52.5 -132t136.5 -53q152 0 230.5 90.5t78.5 269.5q0 119 -53.5 176t-143.5 57q-33 0 -65 -3t-78 -15l109 562 h283z" />
<glyph unicode="&#x297;" d="M737 1102q190 0 296.5 -94t106.5 -261v-6l-285 -14v15q0 73 -36.5 120t-124.5 47q-115 0 -186 -80.5t-105 -252.5l-90 -465q-16 -82 -16 -142q0 -202 179 -202q80 0 144 50.5t96 150.5l280 -13q-35 -110 -116 -197t-195.5 -135t-247.5 -48q-203 0 -310.5 101.5 t-107.5 294.5q0 74 16 159l78 405q52 269 215 418t409 149z" />
<glyph unicode="&#x298;" d="M532 -20q-213 0 -322.5 115.5t-109.5 344.5q0 164 51.5 353.5t141.5 317t218.5 193.5t290.5 66q212 0 322.5 -113t110.5 -340q0 -164 -52 -354.5t-143.5 -320t-219.5 -196t-288 -66.5zM935 892q0 246 -178 246q-107 0 -184.5 -89t-125 -267t-47.5 -316q0 -254 177 -254 q106 0 184 91.5t126 270t48 318.5zM497 538l59 305h289l-59 -305h-289z" />
<glyph unicode="&#x299;" d="M248 1082h572q169 0 259 -57t90 -172q0 -106 -62 -181.5t-172 -109.5q87 -23 130 -78.5t43 -134.5q0 -107 -59 -185.5t-161.5 -121t-230.5 -42.5h-619zM438 641h210q98 0 141 15t68.5 47t25.5 90q0 38 -20 59.5t-56 30.5t-111 9h-210zM348 180h221q133 0 192 43t59 128 q0 56 -42.5 82.5t-154.5 26.5h-221z" />
<glyph unicode="&#x29a;" d="M659 923q-86 0 -134.5 -43.5t-48.5 -117.5q0 -60 42 -87t147 -27l-36 -182q-151 0 -204.5 -40t-53.5 -138q0 -54 39 -87t110 -33q98 0 177.5 60.5t123.5 171.5t44 257q0 132 -53 199t-153 67zM698 1102q217 0 334.5 -115.5t117.5 -323.5q0 -196 -83 -353t-235 -243.5 t-346 -86.5q-191 0 -298.5 77.5t-107.5 208.5q0 127 86 206.5t230 92.5q-185 43 -185 206q0 94 63.5 170t177 118.5t246.5 42.5z" />
<glyph unicode="&#x29b;" d="M794 357h-182l41 209h451l-88 -454q-110 -58 -178 -81.5t-144 -37t-167 -13.5q-452 0 -452 400q0 207 82.5 373t232 257.5t339.5 91.5q120 0 204 -35q77 261 357 261q76 0 148 -17l-39 -201q-55 12 -85 12q-52 0 -88 -30t-52 -111l-42 -215l-276 -38q-9 87 -47 125 t-117 38q-148 0 -233.5 -131t-85.5 -359q0 -217 206 -217q56 0 92 7.5t98 36.5z" />
<glyph unicode="&#x29c;" d="M521 1082l-83 -428h399l83 428h280l-210 -1082h-280l90 463h-399l-90 -463h-282l210 1082h282z" />
<glyph unicode="&#x29d;" d="M799 205h156l-40 -205h-156q-35 -211 -160.5 -318t-323.5 -107q-140 0 -222 70t-82 192q0 177 117 272.5t327 95.5h102l134 687h-354l37 190h636zM727 1277l40 207h281l-40 -207h-281zM298 -227q78 0 115.5 42.5t53.5 126.5l11 58h-114q-81 0 -124.5 -35t-43.5 -102 q0 -39 25 -64.5t77 -25.5z" />
<glyph unicode="&#x29e;" d="M470 1082l194 -490l137 84l79 406h281l-288 -1484h-281l165 850l-473 -448h-302l462 422l-281 660h307z" />
<glyph unicode="&#x29f;" d="M928 0h-817l210 1082h281l-170 -877h536z" />
<glyph unicode="&#x2a0;" d="M893 -425h-280q69 354 117 596h-2q-58 -91 -150 -141t-204 -50q-149 0 -223.5 96t-74.5 279q0 201 69 375t189.5 273.5t267.5 99.5q209 0 267 -197h4l59 301q27 137 128 211.5t254 74.5q75 0 149 -17l-39 -201q-55 12 -86 12q-51 0 -87 -29t-51 -107zM819 677 q0 234 -156 234q-129 0 -210 -149.5t-81 -374.5q0 -110 35.5 -163t113.5 -53q79 0 148.5 63t109.5 177t40 266z" />
<glyph unicode="&#x2a1;" d="M77 290h335l53 273q42 -12 73 -15t63 -3q145 0 232.5 107t87.5 288q0 198 -201 198q-86 0 -161 -55.5t-104 -140.5l-258 67q59 161 215.5 261t353.5 100q209 0 326 -108.5t117 -308.5q0 -153 -65 -287t-182.5 -222t-257.5 -110l-9 -44h334l-36 -186h-334l-20 -104h-283 l20 104h-335z" />
<glyph unicode="&#x2a2;" d="M1038 104h-335l-20 -104h-283l20 104h-334l36 186h334l9 44q-140 23 -223.5 135.5t-83.5 273.5q0 184 80.5 327.5t228.5 221.5t338 78q130 0 227.5 -45t149.5 -127t52 -184v-5l-284 -67v11q0 79 -52.5 132t-136.5 53q-153 0 -230.5 -91.5t-77.5 -268.5q0 -120 53 -176.5 t144 -56.5q34 0 66 3t76 15l-53 -273h335z" />
<glyph unicode="&#x2a3;" d="M364 0l10 84q-78 -104 -195 -104q-76 0 -117.5 85.5t-41.5 244.5q0 196 54.5 391t141.5 298t193 103q101 0 141 -93l93 475h196l-79 -402h502l-38 -197l-468 -680h363l-40 -205h-715zM491 775q0 69 -19 102.5t-45 33.5q-55 0 -102 -74.5t-74.5 -211.5t-27.5 -312 q0 -141 60 -141q50 0 99 81t79 219t30 303zM721 879l-117 -601l411 601h-294z" />
<glyph unicode="&#x2a4;" d="M355 0l7 54q-65 -74 -156 -74q-77 0 -115 71.5t-38 230.5q0 232 52 423t139.5 293t195.5 102q81 0 111 -66l8 53l77 397h204l-79 -402h482l-37 -191l-266 -370q74 -22 117.5 -104.5t43.5 -210.5q0 -177 -55.5 -322.5t-156.5 -227.5t-230 -82q-123 0 -198 72t-81 191 l205 70q11 -79 34 -113t60 -34q97 0 150.5 109.5t53.5 293.5q0 94 -35.5 136.5t-105.5 42.5h-36l36 185l251 352h-271l-125 -643q-28 -147 -41 -236h-201zM486 780q0 70 -7.5 99.5t-33.5 29.5q-46 0 -87 -82t-69.5 -239t-28.5 -294q0 -72 10 -97t29 -25q44 0 85.5 89 t71.5 252t30 267z" />
<glyph unicode="&#x2a5;" d="M711 0h-368l10 84q-78 -104 -195 -104q-76 0 -117.5 85.5t-41.5 244.5q0 196 54.5 391t141.5 298t193 103q101 0 141 -93l93 475h196l-79 -402h502l-38 -197l-468 -680h75q87 174 164.5 264t147.5 90q54 0 82.5 -49t28.5 -133q0 -179 -76.5 -278t-228.5 -99h-63l-96 -215 l-141 42zM470 775q0 69 -19 102.5t-45 33.5q-55 0 -102 -74.5t-74.5 -211.5t-27.5 -312q0 -141 60 -141q50 0 99 81t79 219t30 303zM700 879l-117 -601l411 601h-294zM1087 326q0 34 -11 34q-19 0 -44.5 -40.5t-66.5 -114.5h18q50 0 77 26.5t27 94.5z" />
<glyph unicode="&#x2a6;" d="M473 1082h316q70 21 145 21q138 0 210.5 -68.5t72.5 -201.5v-21l-205 -28l1 22q0 55 -26.5 82.5t-88.5 27.5q-82 0 -120.5 -32.5t-38.5 -101.5q0 -48 32 -75t84 -43q147 -45 186 -69t63 -57t34.5 -70t10.5 -86q0 -184 -104 -283t-310 -99h-496q-94 0 -124.5 54t-30.5 118 q0 44 11 100l121 620h-99l37 190h109l113 254h146zM780 205q83 0 118 31t35 89q0 41 -29.5 71t-108.5 55l-54 17q-126 39 -173.5 98.5t-47.5 151.5q0 76 47 174h-131l-106 -544q-8 -42 -8 -71q0 -72 60 -72h398z" />
<glyph unicode="&#x2a7;" d="M372 -18q-124 0 -169 56.5t-45 133.5q0 37 8 82l124 638h-137l37 190h151l138 254h176l-50 -254h193q34 167 90 247t147.5 121.5t224.5 41.5q89 0 151 -19l-41 -215q-38 21 -115 21q-72 0 -114.5 -46.5t-60.5 -148.5l-220 -1128q-39 -201 -150 -291t-304 -90q-42 0 -87 7 t-64 14l42 213q53 -21 123 -21q48 0 80 19.5t51.5 57.5t37.5 143q-100 -26 -217 -26zM556 196q36 0 72 8l133 688h-193l-105 -542q-6 -32 -6 -57q0 -37 18 -67t81 -30z" />
<glyph unicode="&#x2a8;" d="M249 -20q-85 0 -132.5 53t-47.5 143q0 36 8 78l124 638h-113l37 190h123l110 254h161l-50 -254h141l-37 -190h-141l-107 -552q-10 -47 -10 -77q0 -54 27 -54t64.5 23.5t67.5 67.5q-7 32 -7 78q0 208 62 374.5t176.5 258t265.5 91.5q273 0 273 -360l-238 -16 q0 109 -18.5 146t-58.5 37q-70 0 -129 -118.5t-77 -288.5q123 89 226 89q109 0 167 -55t58 -157q0 -176 -113 -287.5t-296 -111.5q-67 0 -126 29t-102 83q-114 -112 -288 -112zM954 311q0 74 -74 74q-56 0 -161 -118q26 -95 103 -95q64 0 98 37t34 102z" />
<glyph unicode="&#x2a9;" d="M789 1082q-4 -49 -16 -123q53 76 111 110t127 34q92 0 140.5 -62t48.5 -182q0 -79 -18 -172l-149 -764q-35 -179 -108 -263.5t-189 -84.5q-29 0 -74 7t-66 14l42 216q58 -21 84 -21q62 0 88 125l134 691q19 98 19 162q0 123 -69 123q-58 0 -110.5 -88.5t-77.5 -223.5 l-113 -580h-223l173 892h-88l-173 -892h-222l173 892h-103l37 190h103l22 113q29 147 97.5 218t182.5 71q61 0 133 -20l-37 -186q-47 18 -69 18q-39 0 -58 -32t-32 -97l-17 -85h297z" />
<glyph unicode="&#x2aa;" d="M-19 0l288 1484h249l-231 -1189q59 -59 159.5 -94t209.5 -35q118 0 177 33.5t59 111.5q0 49 -33.5 80t-141.5 66q-105 33 -156.5 68t-81.5 84.5t-30 118.5q0 171 121 273t324 102q152 0 235 -74.5t87 -217.5l-228 -26q-4 71 -30.5 101t-99.5 30q-78 0 -119 -35t-41 -98 q0 -43 33.5 -72.5t139.5 -66.5q122 -43 170 -78.5t75.5 -86t27.5 -121.5q0 -182 -132 -280t-378 -98q-238 0 -389 99l-15 -79h-249z" />
<glyph unicode="&#x2ab;" d="M30 0l288 1484h229l-78 -402h736l-39 -201l-619 -676h528l-40 -205h-1005zM430 879l-133 -682l616 682h-483z" />
<glyph unicode="&#x2ac;" d="M1009 790h-199l-40 387q-3 30 -3 94l1 54l-42 -103l-22 -47l-191 -385h-199l-42 694h177l11 -503l36 91l16 36l185 376h201l38 -376q3 -25 3 -80v-47l211 503h174zM855 0h-199l-39 387q-3 30 -3 94v54l-42 -103l-22 -47l-191 -385h-199l-42 694h177l11 -503 q37 102 51 127l186 376h202l38 -376l2 -38v-89l211 503h174z" />
<glyph unicode="&#x2ad;" d="M1144 997h-238l51 265h-406l-51 -265h-238l94 487h882zM950 0h-238l52 265h-406l-52 -265h-238l95 487h882z" />
<glyph unicode="&#x2ae;" d="M787 153q-59 -89 -132.5 -130.5t-180.5 -41.5q-119 0 -180.5 64.5t-61.5 187.5q0 76 16 164l63 325q5 28 5 49q0 105 -115 105q-50 0 -117 -16l-34 -8l41 212q120 29 208 29q138 0 207 -72t69 -209q0 -65 -16 -149q-43 -224 -47.5 -261.5t-4.5 -66.5q0 -143 107 -143 q81 0 144 83.5t93 228.5l113 578h262l-293 -1507h-262l79 405z" />
<glyph unicode="&#x2af;" d="M910 -425q-122 0 -184 71.5t-62 206.5q0 65 16 149l21 108q-56 -74 -119 -101.5t-141 -27.5q-104 0 -158.5 64.5t-54.5 187.5q0 76 17 164l63 325q7 35 7 60q0 94 -83 94q-14 0 -39 -4.5t-102 -24.5l42 215q113 31 187 31q236 0 236 -268q0 -70 -18 -162 q-44 -229 -49 -270t-5 -69q0 -132 82 -132q64 0 120 85t85 227l113 578h242l-206 -1056q-13 -64 -13 -107q0 -127 87 -127q49 0 132 31l-42 -217q-97 -31 -174 -31z" />
<glyph unicode="&#x2b0;" d="M635 1536q-67 -352 -81 -414h2q54 77 115.5 110.5t138.5 33.5q103 0 155.5 -51.5t52.5 -148.5q0 -18 -4 -51t-96 -525h-190l80 419q18 78 18 117q0 91 -104 91q-69 0 -127 -58t-73 -142l-80 -427h-192l194 1046h191z" />
<glyph unicode="&#x2b1;" d="M554 1122h2q54 77 115.5 110.5t138.5 33.5q103 0 155.5 -51.5t52.5 -148.5q0 -18 -4 -51t-96 -525h-190l80 419q18 78 18 117q0 91 -104 91q-69 0 -127 -58t-73 -142l-80 -427h-192l166 856q18 93 87 141.5t185 48.5q56 0 101 -12l-26 -142q-36 9 -58 9q-97 0 -116 -100z " />
<glyph unicode="&#x2b2;" d="M689 1390l27 146h191l-27 -146h-191zM460 191q-70 0 -113 13l24 133l40 -3q47 0 68 26.5t32 87.5l152 805h191l-160 -853q-21 -103 -80.5 -156t-153.5 -53z" />
<glyph unicode="&#x2b3;" d="M960 1091q-50 10 -78 10q-165 0 -212 -249l-69 -362h-191l109 585q6 28 29 177h182l-20 -155h2q49 91 96.5 130t112.5 39q37 0 70 -9z" />
<glyph unicode="&#x2b4;" d="M374 652q50 -10 78 -10q165 0 212 249l69 362h191l-109 -585q-6 -28 -29 -177h-182l20 155h-2q-46 -88 -95 -128.5t-114 -40.5q-37 0 -70 9z" />
<glyph unicode="&#x2b5;" d="M584 646h-3q-47 -88 -97.5 -129t-118.5 -41q-43 0 -70 10l31 165q50 -10 78 -10q164 0 212 249l69 363h191l-153 -822l-3 -31q0 -28 16.5 -42.5t56.5 -14.5t74 8l-28 -149q-70 -12 -125 -12q-88 0 -133 38t-45 126q0 20 2.5 43t45.5 249z" />
<glyph unicode="&#x2b6;" d="M683 947l243 306h211l-282 -332q56 -18 89.5 -66.5t33.5 -110.5q0 -125 -84.5 -189t-271.5 -64h-345l144 762h191l-57 -306h128zM491 614h130q85 0 123.5 30.5t38.5 90.5q0 39 -27 64.5t-84 25.5h-141z" />
<glyph unicode="&#x2b7;" d="M952 491h-202l-29 465q-4 50 -4 132v30l-22 -60l-42 -104l-206 -463h-202l-47 762h176l9 -448v-135q9 28 38.5 100t215.5 483h205l28 -448l4 -135l52 135l182 448h181z" />
<glyph unicode="&#x2b8;" d="M358 190q-62 0 -118 13l26 138q39 -6 59 -6q36 0 64 13.5t56 44.5t74 114l-145 746h198l49 -351q6 -37 14.5 -131.5t8.5 -103.5l106 233l177 353h204l-445 -803q-75 -120 -119.5 -167t-94 -70t-114.5 -23z" />
<glyph unicode="&#x2b9;" d="M894 844h-199l88 641h273z" />
<glyph unicode="&#x2ba;" d="M1121 844h-199l88 641h275zM665 844h-199l88 641h273z" />
<glyph unicode="&#x2bb;" d="M526 831l38 195q24 124 68.5 215.5t113.5 167.5h183q-78 -78 -129 -163t-63 -154h127l-51 -261h-287z" />
<glyph unicode="&#x2bc;" d="M929 1409l-38 -195q-24 -124 -68.5 -215.5t-113.5 -167.5h-183q163 168 193 317h-127l50 261h287z" />
<glyph unicode="&#x2bd;" d="M925 1409l-51 -261h-127q-6 -32 -6 -65q0 -126 75 -252h-183q-51 99 -51 217q0 74 18 166l38 195h287z" />
<glyph unicode="&#x2be;" d="M759 1355q0 64 -88 64l23 118q91 0 143 -42.5t52 -118.5q0 -106 -74.5 -169.5t-197.5 -63.5l23 116q61 0 90 27.5t29 68.5z" />
<glyph unicode="&#x2bf;" d="M846 1143q-91 0 -143 41.5t-52 118.5q0 107 75 170.5t197 63.5l-23 -118q-62 0 -90.5 -26t-28.5 -68q0 -66 88 -66z" />
<glyph unicode="&#x2c0;" d="M459 490l79 409q41 -13 92 -13q89 0 147.5 76t58.5 199q0 60 -33.5 94.5t-95.5 34.5q-115 0 -162 -134l-176 46q42 114 130.5 179.5t224.5 65.5q149 0 228 -76.5t79 -222.5q0 -163 -92 -273t-239 -132l-48 -253h-193z" />
<glyph unicode="&#x2c1;" d="M504 490l51 253q-88 15 -142 89t-54 180q0 195 111.5 315t301.5 120q130 0 205.5 -62t86.5 -183l-193 -46q-5 71 -35.5 102.5t-83.5 31.5q-93 0 -143 -68t-50 -189q0 -69 30.5 -108t90.5 -39q50 0 98 13l-82 -409h-192z" />
<glyph unicode="&#x2c2;" d="M165 516v322l1027 391v-228l-833 -325l833 -324v-227z" />
<glyph unicode="&#x2c3;" d="M90 125v227l832 324l-832 325v228l1027 -391v-322z" />
<glyph unicode="&#x2c4;" d="M1101 206h-227l-162 832l-487 -832h-228l591 1027h322z" />
<glyph unicode="&#x2c5;" d="M710 206h-322l-191 1027h228l163 -832l486 832h227z" />
<glyph unicode="&#x2c6;" d="M1113 1211l-5 -28h-159l-177 134h-4l-237 -134h-160l5 28l307 250h229z" />
<glyph unicode="&#x2c7;" d="M858 1183h-229l-210 249l6 29h160l185 -134h4l229 134h159l-6 -29z" />
<glyph unicode="&#x2c8;" d="M802 1125h-148l70 359h148z" />
<glyph unicode="&#x2c9;" d="M469 1371h612l-32 -168h-612z" />
<glyph unicode="&#x2ca;" d="M528 1202l5 27l222 255h258l-8 -38l-328 -244h-149z" />
<glyph unicode="&#x2cb;" d="M809 1202l-234 244l7 38h258l123 -255l-5 -27h-149z" />
<glyph unicode="&#x2cc;" d="M500 -425h-148l70 359h148z" />
<glyph unicode="&#x2cd;" d="M172 -159h612l-33 -168h-612z" />
<glyph unicode="&#x2ce;" d="M497 -404l-234 244l7 38h258l123 -255l-5 -27h-149z" />
<glyph unicode="&#x2cf;" d="M215 -404l5 27l222 255h258l-8 -38l-328 -244h-149z" />
<glyph unicode="&#x2d0;" d="M874 1082l-154 -300h-118l-38 300h310zM664 0h-310l154 300h118z" />
<glyph unicode="&#x2d1;" d="M874 1082l-154 -300h-118l-38 300h310z" />
<glyph unicode="&#x2d2;" d="M556 311q0 64 -88 64l23 118q91 0 143 -42.5t52 -118.5q0 -106 -74.5 -169.5t-197.5 -63.5l23 116q61 0 90 27.5t29 68.5z" />
<glyph unicode="&#x2d3;" d="M643 99q-91 0 -143 41.5t-52 118.5q0 107 75 170.5t197 63.5l-23 -118q-62 0 -90.5 -26t-28.5 -68q0 -66 88 -66z" />
<glyph unicode="&#x2d4;" d="M726 174h-365l24 124h121l44 224h124l-44 -224h120z" />
<glyph unicode="&#x2d5;" d="M769 398h-120l-44 -224h-124l44 224h-121l24 124h365z" />
<glyph unicode="&#x2d6;" d="M746 278h-120l-20 -104h-124l20 104h-121l24 124h121l23 120h124l-23 -120h120z" />
<glyph unicode="&#x2d7;" d="M236 250l44 224h644l-44 -224h-644z" />
<glyph unicode="&#x2d8;" d="M737 1183q-148 0 -224 61.5t-76 175.5q0 30 2 41h163v-10q0 -111 167 -111q88 0 138 29t76 92h164q-88 -278 -410 -278z" />
<glyph unicode="&#x2d9;" d="M615 1267l41 207h281l-41 -207h-281z" />
<glyph unicode="&#x2da;" d="M732 1148q-96 0 -151.5 43.5t-55.5 118.5q0 59 35 116t101.5 89t148.5 32q95 0 151 -42t56 -119q0 -63 -37 -119.5t-102 -87.5t-146 -31zM875 1358q0 30 -25 45.5t-65 15.5q-58 0 -88.5 -27t-30.5 -56q0 -27 24 -43t67 -16q53 0 85.5 24t32.5 57z" />
<glyph unicode="&#x2db;" d="M469 -425q-91 0 -146.5 39.5t-55.5 117.5q0 84 58.5 164t151.5 125h153q-79 -46 -125.5 -113.5t-46.5 -119.5q0 -26 16.5 -48t61.5 -22q55 0 117 27l-26 -137q-69 -33 -158 -33z" />
<glyph unicode="&#x2dc;" d="M906 1183q-44 0 -85 17.5t-79 39t-72 39t-64 17.5q-48 0 -74.5 -26t-45.5 -87h-137q40 153 108.5 218t171.5 65q45 0 87 -17.5t79.5 -39t70.5 -39t62 -17.5q50 0 75.5 28t45.5 85h135q-37 -150 -107 -216.5t-171 -66.5z" />
<glyph unicode="&#x2dd;" d="M267 1182h-142l6 34l273 245h235l-8 -43zM673 1182h-142l6 34l273 245h235l-8 -43z" />
<glyph unicode="&#x2de;" d="M331 770l290 55l1 -137q0 -76 22.5 -105.5t85.5 -29.5q42 0 77.5 11.5t77.5 31.5l34 -180q-136 -56 -265 -56q-122 0 -178.5 49t-61.5 146l-2 35l-78 -16z" />
<glyph unicode="&#x2df;" d="M351 927l282 243l-186 239l125 107l186 -238l279 239l84 -108l-280 -240l187 -238l-126 -109l-186 241l-282 -244z" />
<glyph unicode="&#x2e0;" d="M747 681q63 -189 63 -267q0 -101 -70 -162.5t-186 -61.5q-99 0 -153 48t-54 132q0 60 35 128.5t121 171.5l-150 583h202l95 -434l266 434h200zM565 322q42 0 57 29t15 78q0 64 -30 151q-96 -124 -96 -197q0 -29 15.5 -45t38.5 -16z" />
<glyph unicode="&#x2e1;" d="M499 490l196 1046h191l-197 -1046h-190z" />
<glyph unicode="&#x2e2;" d="M967 726q0 -126 -89.5 -188t-252.5 -62q-137 0 -216 50t-107 155l171 26q14 -51 51 -75.5t114 -24.5q151 0 151 96q0 35 -25.5 54t-126.5 43q-129 29 -187.5 84.5t-58.5 147.5q0 112 84 172.5t245 60.5q137 0 207.5 -48.5t86.5 -154.5l-171 -21q-23 93 -136 93 q-139 0 -139 -85q0 -33 30 -53.5t143 -46.5q122 -29 174 -82t52 -141z" />
<glyph unicode="&#x2e3;" d="M767 490l-126 270l-223 -270h-204l345 396l-190 366h199l118 -244l201 244h209l-328 -370l200 -392h-201z" />
<glyph unicode="&#x2e4;" d="M504 490l51 253q-88 15 -142 89t-54 180q0 195 111.5 315t301.5 120q130 0 205.5 -62t86.5 -183l-193 -46q-5 71 -35.5 102.5t-83.5 31.5q-93 0 -143 -68t-50 -189q0 -69 30.5 -108t90.5 -39q50 0 98 13l-82 -409h-192z" />
<glyph unicode="&#x2e5;" d="M856 0h-179v1313h-305v171h484v-1484z" />
<glyph unicode="&#x2e6;" d="M856 0h-179v976h-305v171h305v337h179v-1484z" />
<glyph unicode="&#x2e7;" d="M856 0h-179v646h-305v171h305v667h179v-1484z" />
<glyph unicode="&#x2e8;" d="M856 0h-179v321h-305v171h305v992h179v-1484z" />
<glyph unicode="&#x2e9;" d="M856 0h-484v171h305v1313h179v-1484z" />
<glyph unicode="&#x2ea;" d="M858 0h-487v880h117v-766h370v-114z" />
<glyph unicode="&#x2eb;" d="M858 383h-370v-383h-117v880h117v-383h370v-114z" />
<glyph unicode="&#x2ec;" d="M750 -527h-229l-210 249l6 29h160l185 -134h4l229 134h159l-6 -29z" />
<glyph unicode="&#x2ed;" d="M1092 1426h-612l27 138h612zM1047 1194h-612l27 138h612z" />
<glyph unicode="&#x2ee;" d="M943 831h-184q165 170 195 318h-127l50 260h287l-37 -192q-22 -114 -63.5 -205.5t-120.5 -180.5zM472 831h-182q164 174 193 318h-127l50 260h287l-37 -192q-23 -121 -65 -211.5t-119 -174.5z" />
<glyph unicode="&#x2ef;" d="M138 -357l-121 289h127l48 -158l110 158h127l-233 -289h-58z" />
<glyph unicode="&#x2f0;" d="M252 -68l121 -289h-127l-48 158l-110 -158h-127l233 289h58z" />
<glyph unicode="&#x2f1;" d="M379 -13l-25 -127l-173 -79l142 -79l-24 -127l-255 177l11 58z" />
<glyph unicode="&#x2f2;" d="M9 -425l25 127l173 79l-143 79l25 127l255 -177l-12 -58z" />
<glyph unicode="&#x2f3;" d="M386 -201q0 -93 -70 -158.5t-162 -65.5q-71 0 -115 45t-44 114q0 91 70 157.5t163 66.5q70 0 114 -45t44 -114zM286 -215q0 34 -20.5 55t-56.5 21q-49 0 -80 -32.5t-31 -81.5q0 -34 19 -55.5t55 -21.5q47 0 80.5 32.5t33.5 82.5z" />
<glyph unicode="&#x2f4;" d="M279 195l-234 244l7 38h258l123 -255l-5 -27h-149z" />
<glyph unicode="&#x2f5;" d="M149 195l-234 244l7 38h258l123 -255l-5 -27h-149zM519 195l-234 244l7 38h258l123 -255l-5 -27h-149z" />
<glyph unicode="&#x2f6;" d="M238 195l5 27l222 255h258l-8 -38l-328 -244h-149zM-132 195l5 27l222 255h258l-8 -38l-328 -244h-149z" />
<glyph unicode="&#x2f7;" d="M314 -371q-40 0 -76.5 17.5t-70.5 38t-64.5 38t-57.5 17.5q-36 0 -61 -22.5t-49 -88.5h-124q30 108 61 157t78 78t115 29q41 0 78.5 -17t71.5 -38t64 -38t56 -17q44 0 67.5 29t42.5 81h122q-25 -100 -56.5 -152t-79 -82t-117.5 -30z" />
<glyph unicode="&#x2f8;" d="M325 1202l55 282h288l-55 -282h-288zM179 450l55 281h288l-55 -281h-288z" />
<glyph unicode="&#x2f9;" d="M353 1484h349l-22 -113h-233l-43 -219h-116z" />
<glyph unicode="&#x2fa;" d="M636 1152h-116l43 219h-233l22 113h349z" />
<glyph unicode="&#x2fb;" d="M50 -75h116l-43 -219h233l-22 -113h-349z" />
<glyph unicode="&#x2fc;" d="M334 -407h-349l22 113h233l43 219h116z" />
<glyph unicode="&#x2fd;" d="M596 -425h-754l74 381h162l-43 -222h429l43 222h163z" />
<glyph unicode="&#x2fe;" d="M596 -425h-754l74 381h162l-43 -222h592z" />
<glyph unicode="&#x2ff;" d="M483 -186h-419l120 -239h-117l-142 283l3 14l252 283h117l-213 -239h419z" />
<glyph unicode="&#x300;" horiz-adv-x="0" d="M-73 1572l-234 244l7 38h258l123 -255l-5 -27h-149z" />
<glyph unicode="&#x301;" horiz-adv-x="0" d="M-214 1572l5 27l222 255h258l-8 -38l-328 -244h-149z" />
<glyph unicode="&#x302;" horiz-adv-x="0" d="M874 1211l-5 -28h-159l-177 134h-4l-237 -134h-160l5 28l307 250h229z" />
<glyph unicode="&#x303;" horiz-adv-x="0" d="M-227 1571q-40 0 -76.5 17.5t-70.5 38t-64.5 38t-57.5 17.5q-36 0 -61 -22.5t-49 -88.5h-124q30 108 61 157t78 78t115 29q41 0 78.5 -17t71.5 -38t64 -38t56 -17q44 0 67.5 29t42.5 81h122q-25 -100 -56.5 -152t-79 -82t-117.5 -30z" />
<glyph unicode="&#x304;" horiz-adv-x="0" d="M-123 1484h612l-33 -168h-612z" />
<glyph unicode="&#x305;" horiz-adv-x="0" d="M-394 1600l15 78h1177l-15 -78h-1177z" />
<glyph unicode="&#x306;" horiz-adv-x="0" d="M124 1193q-136 0 -214 76t-78 201l3 46h163q0 -77 44.5 -121.5t114.5 -44.5q72 0 133 44t89 122h164q-48 -150 -157.5 -236.5t-261.5 -86.5z" />
<glyph unicode="&#x307;" horiz-adv-x="0" d="M0 1267l40 207h281l-40 -207h-281z" />
<glyph unicode="&#x308;" horiz-adv-x="0" d="M250 1265l43 219h217l-43 -219h-217zM-184 1265l43 219h214l-43 -219h-214z" />
<glyph unicode="&#x309;" horiz-adv-x="0" d="M-21 1625q0 55 -135 55q-50 0 -110 -8l9 102q21 4 73 7.5t96 3.5q127 0 194.5 -34.5t67.5 -97.5q0 -60 -52 -102t-158 -50l-12 -60h-150l23 120q154 0 154 64z" />
<glyph unicode="&#x30a;" horiz-adv-x="0" d="M351 1375q0 -93 -70 -158.5t-162 -65.5q-71 0 -115 45t-44 114q0 91 70 157.5t163 66.5q70 0 114 -45t44 -114zM251 1361q0 34 -20 55t-57 21q-49 0 -80 -32.5t-31 -81.5q0 -34 19 -55.5t55 -21.5q47 0 80.5 32.5t33.5 82.5z" />
<glyph unicode="&#x30b;" horiz-adv-x="0" d="M-201 1184h-142l7 34l276 266h235l-8 -43zM205 1184h-142l7 34l276 266h235l-8 -43z" />
<glyph unicode="&#x30c;" horiz-adv-x="0" d="M667 1183h-229l-210 249l6 29h160l185 -134h4l229 134h159l-6 -29z" />
<glyph unicode="&#x30d;" horiz-adv-x="0" d="M188 1125h-148l70 359h148z" />
<glyph unicode="&#x30e;" horiz-adv-x="0" d="M58 1125h-144l70 359h144zM314 1125h-144l70 359h144z" />
<glyph unicode="&#x30f;" horiz-adv-x="0" d="M113 1441l8 43h235l174 -266l-7 -34h-142zM-293 1441l8 43h235l174 -266l-7 -34h-142z" />
<glyph unicode="&#x310;" horiz-adv-x="0" d="M52 1504l40 207h276l-40 -207h-276zM125 1180q-135 0 -210.5 72.5t-75.5 195.5l3 48h163q1 -78 41.5 -117t109.5 -39q72 0 126.5 39t83.5 117h164q-49 -153 -153 -234.5t-252 -81.5z" />
</font>
</defs>
</svg>
