<?xml version="1.0" encoding="UTF-8" standalone="no"?>
<!-- Generator: Adobe Illustrator 15.0.0, SVG Export Plug-In . SVG Version: 6.00 Build 0)  -->

<svg
   xmlns:dc="http://purl.org/dc/elements/1.1/"
   xmlns:cc="http://creativecommons.org/ns#"
   xmlns:rdf="http://www.w3.org/1999/02/22-rdf-syntax-ns#"
   xmlns:svg="http://www.w3.org/2000/svg"
   xmlns="http://www.w3.org/2000/svg"
   xmlns:sodipodi="http://sodipodi.sourceforge.net/DTD/sodipodi-0.dtd"
   xmlns:inkscape="http://www.inkscape.org/namespaces/inkscape"
   version="1.1"
   x="0px"
   y="0px"
   width="7086.609px"
   height="4251.97px"
   viewBox="0 0 7086.609 4251.97"
   enable-background="new 0 0 7086.609 4251.97"
   xml:space="preserve"
   id="svg2"
   inkscape:version="0.91 r"
   sodipodi:docname="clips-profil.svg"><metadata
     id="metadata20"><rdf:RDF><cc:Work
         rdf:about=""><dc:format>image/svg+xml</dc:format><dc:type
           rdf:resource="http://purl.org/dc/dcmitype/StillImage" /><dc:title></dc:title></cc:Work></rdf:RDF></metadata><defs
     id="defs18" /><sodipodi:namedview
     pagecolor="#ffffff"
     bordercolor="#666666"
     borderopacity="1"
     objecttolerance="10"
     gridtolerance="10"
     guidetolerance="10"
     inkscape:pageopacity="0"
     inkscape:pageshadow="2"
     inkscape:window-width="640"
     inkscape:window-height="480"
     id="namedview16"
     showgrid="false"
     inkscape:zoom="8"
     inkscape:cx="3270.255"
     inkscape:cy="1642.7209"
     inkscape:current-layer="Default" /><g
     id="Default"><path
       style="fill:#008000"
       d="M 3232.5801 2584.6719 C 3225.4831 2584.6719 3219.4802 2589.9211 3218.5332 2596.9551 C 3218.4192 2597.8051 3219.0815 2598.5625 3219.9395 2598.5625 L 3222.8672 2598.5625 C 3223.6712 2598.5625 3224.0492 2598.2654 3224.2422 2597.4844 C 3225.6622 2591.7394 3233.83 2591.7394 3235.25 2597.4844 C 3235.443 2598.2654 3235.823 2598.5625 3236.627 2598.5625 L 3239.9688 2598.5625 L 3239.9688 2598.5605 C 3240.3275 2598.5605 3240.5987 2598.4971 3240.8105 2598.3496 C 3240.8105 2598.3496 3240.8125 2598.3477 3240.8125 2598.3477 C 3241.0242 2598.1994 3241.1774 2597.9679 3241.3008 2597.6309 C 3241.3008 2597.6309 3241.3008 2597.6289 3241.3008 2597.6289 C 3242.6598 2593.9069 3248.1738 2594.8807 3248.1738 2598.8438 C 3248.1738 2602.8067 3242.6598 2603.7806 3241.3008 2600.0586 C 3241.239 2599.8896 3241.17 2599.7479 3241.0898 2599.6289 C 3241.0096 2599.5099 3240.9166 2599.414 3240.8105 2599.3398 C 3240.7045 2599.2657 3240.5846 2599.2122 3240.4453 2599.1777 C 3240.306 2599.1433 3240.1487 2599.1289 3239.9688 2599.1289 L 3236.627 2599.1289 C 3235.823 2599.1289 3235.443 2599.4251 3235.25 2600.2051 C 3233.83 2605.9501 3225.6622 2605.9501 3224.2422 2600.2051 C 3224.0492 2599.4251 3223.6712 2599.1289 3222.8672 2599.1289 L 3219.9395 2599.1289 C 3219.0815 2599.1289 3218.4192 2599.8844 3218.5332 2600.7344 C 3219.4792 2607.7684 3225.4821 2613.0176 3232.5801 2613.0176 L 3317.7461 2613.0176 C 3325.5731 2613.0176 3331.9199 2606.6727 3331.9199 2598.8457 C 3331.9199 2591.0187 3325.5731 2584.6719 3317.7461 2584.6719 L 3232.5801 2584.6719 z M 3232.5801 2587.5059 L 3236.1934 2587.5059 C 3237.0424 2587.5059 3237.4289 2587.8262 3237.5859 2588.6602 C 3237.9299 2590.4912 3238.5527 2592.1305 3239.5117 2593.7285 C 3240.3767 2595.1695 3238.0776 2596.4501 3237.3086 2594.9551 C 3234.5896 2589.6671 3227.4235 2588.7316 3223.4375 2593.1426 C 3223.1865 2593.4216 3222.7863 2593.1188 3222.9863 2592.8008 C 3225.0623 2589.5058 3228.6841 2587.5059 3232.5801 2587.5059 z M 3242.0156 2587.5059 L 3317.7461 2587.5059 C 3324.0081 2587.5059 3329.0859 2592.5817 3329.0859 2598.8438 C 3329.0859 2605.1057 3324.0081 2610.1836 3317.7461 2610.1836 L 3242.0156 2610.1836 C 3241.0716 2610.1836 3240.3913 2609.2761 3240.6543 2608.3691 C 3240.9193 2607.4571 3241.2753 2606.6034 3241.7363 2605.7734 C 3242.1073 2605.1064 3242.5294 2604.9142 3243.2754 2605.0762 C 3247.2504 2605.9382 3251.0059 2602.9108 3251.0059 2598.8438 C 3251.0059 2594.7766 3247.2504 2591.7493 3243.2754 2592.6113 C 3242.5294 2592.7733 3242.1073 2592.5811 3241.7363 2591.9141 C 3241.2743 2591.0841 3240.9193 2590.2304 3240.6543 2589.3184 C 3240.3913 2588.4114 3241.0716 2587.5059 3242.0156 2587.5059 z M 3238.2168 2602.0723 C 3238.3348 2602.0591 3238.4545 2602.0635 3238.5723 2602.084 C 3239.3575 2602.2206 3240.0523 2603.0584 3239.5117 2603.959 C 3238.5527 2605.557 3237.9299 2607.1963 3237.5859 2609.0273 C 3237.4289 2609.8613 3237.0424 2610.1836 3236.1934 2610.1836 L 3232.5801 2610.1836 C 3228.6841 2610.1836 3225.0623 2608.1827 3222.9863 2604.8867 C 3222.7863 2604.5697 3223.1865 2604.2679 3223.4375 2604.5469 C 3227.4235 2608.9579 3234.5896 2608.0204 3237.3086 2602.7324 C 3237.5249 2602.3123 3237.8627 2602.1118 3238.2168 2602.0723 z "
       id="path4192" /></g><g
     id="Viewport_Boundary" /></svg>