<?xml version="1.0" encoding="UTF-8" standalone="no"?>
<!-- Generator: Adobe Illustrator 15.0.0, SVG Export Plug-In . SVG Version: 6.00 Build 0)  -->

<svg
   xmlns:dc="http://purl.org/dc/elements/1.1/"
   xmlns:cc="http://creativecommons.org/ns#"
   xmlns:rdf="http://www.w3.org/1999/02/22-rdf-syntax-ns#"
   xmlns:svg="http://www.w3.org/2000/svg"
   xmlns="http://www.w3.org/2000/svg"
   xmlns:sodipodi="http://sodipodi.sourceforge.net/DTD/sodipodi-0.dtd"
   xmlns:inkscape="http://www.inkscape.org/namespaces/inkscape"
   version="1.1"
   x="0px"
   y="0px"
   width="35mm"
   height="10mm"
   viewBox="0 0 124.01575 35.433069"
   enable-background="new 0 0 7086.609 4251.97"
   xml:space="preserve"
   id="svg2"
   inkscape:version="0.91 r13725"
   sodipodi:docname="clips-profil.svg"><metadata
     id="metadata20"><rdf:RDF><cc:Work
         rdf:about=""><dc:format>image/svg+xml</dc:format><dc:type
           rdf:resource="http://purl.org/dc/dcmitype/StillImage" /><dc:title></dc:title></cc:Work></rdf:RDF></metadata><defs
     id="defs18" /><sodipodi:namedview
     pagecolor="#ffffff"
     bordercolor="#666666"
     borderopacity="1"
     objecttolerance="10"
     gridtolerance="10"
     guidetolerance="10"
     inkscape:pageopacity="0"
     inkscape:pageshadow="2"
     inkscape:window-width="1890"
     inkscape:window-height="1061"
     id="namedview16"
     showgrid="false"
     inkscape:zoom="9.2828228"
     inkscape:cx="65.551181"
     inkscape:cy="35.089854"
     inkscape:current-layer="Default"
     units="mm"
     height="10mm"
     inkscape:window-x="0"
     inkscape:window-y="0"
     inkscape:window-maximized="1" /><g
     id="Default"
     transform="translate(0,-4216.5371)"><path
       style="fill:#008000"
       d="m 19.36982,4220.0779 c -7.097,0 -13.0999004,5.2492 -14.0469004,12.2832 -0.114,0.85 0.5483,1.6074 1.4063,1.6074 l 2.9277,0 c 0.8040004,0 1.1820004,-0.2971 1.3750004,-1.0781 1.42,-5.745 9.5878,-5.745 11.0078,0 0.193,0.781 0.573,1.0781 1.377,1.0781 l 3.3418,0 0,0 c 0.3587,0 0.6299,-0.063 0.8417,-0.2109 0,0 0,0 0,0 0.2117,-0.1483 0.3649,-0.3798 0.4883,-0.7168 0,0 0,0 0,0 1.359,-3.722 6.873,-2.7482 6.873,1.2149 0,3.9629 -5.514,4.9368 -6.873,1.2148 -0.062,-0.169 -0.1308,-0.3107 -0.211,-0.4297 -0.08,-0.119 -0.1732,-0.2149 -0.2793,-0.2891 -0.106,-0.074 -0.2259,-0.1276 -0.3652,-0.1621 -0.1393,-0.034 -0.2966,-0.049 -0.4765,-0.049 l -3.3418,0 c -0.804,0 -1.184,0.2962 -1.377,1.0762 -1.42,5.745 -9.5878,5.745 -11.0078,0 -0.193,-0.78 -0.571,-1.0762 -1.3750004,-1.0762 l -2.9277,0 c -0.858,0 -1.5203,0.7555 -1.4063,1.6055 0.946,7.034 6.9489004,12.2832 14.0469004,12.2832 l 85.166,0 c 7.827,0 14.1738,-6.3449 14.1738,-14.1719 0,-7.827 -6.3468,-14.1738 -14.1738,-14.1738 l -85.166,0 z m 0,2.834 3.6133,0 c 0.849,0 1.2355,0.3203 1.3925,1.1543 0.344,1.831 0.9668,3.4703 1.9258,5.0683 0.865,1.441 -1.4341,2.7216 -2.2031,1.2266 -2.719,-5.288 -9.8851,-6.2235 -13.8711,-1.8125 -0.2510004,0.279 -0.6512004,-0.024 -0.4512004,-0.3418 2.0760004,-3.295 5.6978004,-5.2949 9.5938004,-5.2949 z m 9.4355,0 75.7305,0 c 6.262,0 11.3398,5.0758 11.3398,11.3379 0,6.2619 -5.0778,11.3398 -11.3398,11.3398 l -75.7305,0 c -0.944,0 -1.6243,-0.9075 -1.3613,-1.8145 0.265,-0.912 0.621,-1.7657 1.082,-2.5957 0.371,-0.667 0.7931,-0.8592 1.5391,-0.6972 3.975,0.862 7.7305,-2.1654 7.7305,-6.2324 0,-4.0672 -3.7555,-7.0945 -7.7305,-6.2325 -0.746,0.162 -1.1681,-0.03 -1.5391,-0.6972 -0.462,-0.83 -0.817,-1.6837 -1.082,-2.5957 -0.263,-0.907 0.4173,-1.8125 1.3613,-1.8125 z m -3.7988,14.5664 c 0.118,-0.013 0.2377,-0.01 0.3555,0.012 0.7852,0.1366 1.48,0.9744 0.9394,1.875 -0.959,1.598 -1.5818,3.2373 -1.9258,5.0683 -0.157,0.834 -0.5435,1.1563 -1.3925,1.1563 l -3.6133,0 c -3.896,0 -7.5178,-2.0009 -9.5938004,-5.2969 -0.2,-0.317 0.2002,-0.6188 0.4512004,-0.3398 3.986,4.411 11.1521,3.4735 13.8711,-1.8145 0.2163,-0.4201 0.5541,-0.6206 0.9082,-0.6601 z"
       id="path4192"
       inkscape:connector-curvature="0" /></g><g
     id="Viewport_Boundary"
     transform="translate(0,-4216.5371)" /></svg>