<?xml version="1.0" standalone="no"?>
<!DOCTYPE svg PUBLIC "-//W3C//DTD SVG 20010904//EN"
 "http://www.w3.org/TR/2001/REC-SVG-20010904/DTD/svg10.dtd">
<svg version="1.0" xmlns="http://www.w3.org/2000/svg"
 width="700.000000pt" height="700.000000pt" viewBox="0 0 700.000000 700.000000"
 preserveAspectRatio="xMidYMid meet">
<metadata>
Created by potrace 1.11, written by Peter Selinger 2001-2013
</metadata>
<g transform="translate(0.000000,700.000000) scale(0.100000,-0.100000)"
fill="#000000" stroke="none">
<path d="M1740 5794 c-707 -187 -936 -251 -970 -272 -99 -61 -139 -182 -98
-297 13 -36 566 -901 614 -962 l34 -41 0 -936 0 -936 923 -736 c507 -405 927
-741 934 -746 7 -6 346 94 977 289 l966 298 0 895 0 895 648 447 c356 245 661
461 678 480 51 54 68 95 67 168 0 71 -17 117 -60 167 -33 37 -2019 1418 -2072
1440 -54 23 -148 20 -200 -6 -24 -13 -221 -160 -438 -327 -218 -168 -399 -302
-403 -297 -4 4 -90 136 -190 293 -227 354 -242 374 -304 405 -94 47 -87 48
-1106 -221z m1048 -540 c90 -140 165 -260 168 -267 3 -8 -196 -74 -641 -211
-355 -110 -647 -197 -648 -195 -23 30 -356 558 -359 568 -2 11 146 54 647 187
358 95 655 173 660 173 6 0 83 -114 173 -255z m2300 -394 c407 -282 739 -517
736 -521 -6 -10 -859 -598 -877 -605 -18 -7 -1402 1095 -1390 1107 4 4 172
134 372 288 l364 281 28 -18 c14 -9 360 -249 767 -532z m-1110 -779 c620 -495
782 -629 782 -647 0 -12 9 -43 20 -69 19 -45 20 -69 20 -860 l0 -814 -47 -14
c-27 -8 -372 -115 -768 -237 -396 -122 -723 -223 -726 -224 -4 0 -370 289
-813 643 l-806 645 2 865 3 866 765 237 c421 130 770 236 776 235 6 -1 362
-283 792 -626z"/>
</g>
</svg>
