  0
SECTION
  2
HEADER
  9
$ACADVER
  1
AC1018
  9
$ACADMAINTVER
 70
     0
  9
$DWGCODEPAGE
  3
ANSI_1252
  9
$INSBASE
 10
0.0
 20
0.0
 30
0.0
  9
$EXTMIN
 10
1.000000000000000E+20
 20
1.000000000000000E+20
 30
1.000000000000000E+20
  9
$EXTMAX
 10
-1.000000000000000E+20
 20
-1.000000000000000E+20
 30
-1.000000000000000E+20
  9
$LIMMIN
 10
0.0
 20
0.0
  9
$LIMMAX
 10
12.0
 20
9.0
  9
$ORTHOMODE
 70
     0
  9
$REGENMODE
 70
     1
  9
$FILLMODE
 70
     1
  9
$QTEXTMODE
 70
     0
  9
$MIRRTEXT
 70
     1
  9
$LTSCALE
 40
1.0
  9
$ATTMODE
 70
     1
  9
$TEXTSIZE
 40
0.2
  9
$TRACEWID
 40
0.05
  9
$TEXTSTYLE
  7
Standard
  9
$CLAYER
  8
0
  9
$CELTYPE
  6
ByLayer
  9
$CECOLOR
 62
   256
  9
$CELTSCALE
 40
1.0
  9
$DISPSILH
 70
     0
  9
$DIMSCALE
 40
1.0
  9
$DIMASZ
 40
0.18
  9
$DIMEXO
 40
0.0625
  9
$DIMDLI
 40
0.38
  9
$DIMRND
 40
0.0
  9
$DIMDLE
 40
0.0
  9
$DIMEXE
 40
0.18
  9
$DIMTP
 40
0.0
  9
$DIMTM
 40
0.0
  9
$DIMTXT
 40
0.18
  9
$DIMCEN
 40
0.09
  9
$DIMTSZ
 40
0.0
  9
$DIMTOL
 70
     0
  9
$DIMLIM
 70
     0
  9
$DIMTIH
 70
     1
  9
$DIMTOH
 70
     1
  9
$DIMSE1
 70
     0
  9
$DIMSE2
 70
     0
  9
$DIMTAD
 70
     0
  9
$DIMZIN
 70
     0
  9
$DIMBLK
  1

  9
$DIMASO
 70
     1
  9
$DIMSHO
 70
     1
  9
$DIMPOST
  1

  9
$DIMAPOST
  1

  9
$DIMALT
 70
     0
  9
$DIMALTD
 70
     2
  9
$DIMALTF
 40
25.4
  9
$DIMLFAC
 40
1.0
  9
$DIMTOFL
 70
     0
  9
$DIMTVP
 40
0.0
  9
$DIMTIX
 70
     0
  9
$DIMSOXD
 70
     0
  9
$DIMSAH
 70
     0
  9
$DIMBLK1
  1

  9
$DIMBLK2
  1

  9
$DIMSTYLE
  2
Standard
  9
$DIMCLRD
 70
     0
  9
$DIMCLRE
 70
     0
  9
$DIMCLRT
 70
     0
  9
$DIMTFAC
 40
1.0
  9
$DIMGAP
 40
0.09
  9
$DIMJUST
 70
     0
  9
$DIMSD1
 70
     0
  9
$DIMSD2
 70
     0
  9
$DIMTOLJ
 70
     1
  9
$DIMTZIN
 70
     0
  9
$DIMALTZ
 70
     0
  9
$DIMALTTZ
 70
     0
  9
$DIMUPT
 70
     0
  9
$DIMDEC
 70
     4
  9
$DIMTDEC
 70
     4
  9
$DIMALTU
 70
     2
  9
$DIMALTTD
 70
     2
  9
$DIMTXSTY
  7
Standard
  9
$DIMAUNIT
 70
     0
  9
$DIMADEC
 70
     0
  9
$DIMALTRND
 40
0.0
  9
$DIMAZIN
 70
     0
  9
$DIMDSEP
 70
    46
  9
$DIMATFIT
 70
     3
  9
$DIMFRAC
 70
     0
  9
$DIMLDRBLK
  1

  9
$DIMLUNIT
 70
     2
  9
$DIMLWD
 70
    -2
  9
$DIMLWE
 70
    -2
  9
$DIMTMOVE
 70
     0
  9
$LUNITS
 70
     2
  9
$LUPREC
 70
     4
  9
$SKETCHINC
 40
0.1
  9
$FILLETRAD
 40
0.5
  9
$AUNITS
 70
     0
  9
$AUPREC
 70
     0
  9
$MENU
  1
.
  9
$ELEVATION
 40
0.0
  9
$PELEVATION
 40
0.0
  9
$THICKNESS
 40
0.0
  9
$LIMCHECK
 70
     0
  9
$CHAMFERA
 40
0.5
  9
$CHAMFERB
 40
0.5
  9
$CHAMFERC
 40
1.0
  9
$CHAMFERD
 40
0.0
  9
$SKPOLY
 70
     0
  9
$TDCREATE
 40
2457369.47506713
  9
$TDUCREATE
 40
2457369.433400463
  9
$TDUPDATE
 40
2457369.475067141
  9
$TDUUPDATE
 40
2457369.433400474
  9
$TDINDWG
 40
0.0000000116
  9
$TDUSRTIMER
 40
0.0000000116
  9
$USRTIMER
 70
     1
  9
$ANGBASE
 50
0.0
  9
$ANGDIR
 70
     0
  9
$PDMODE
 70
     0
  9
$PDSIZE
 40
0.0
  9
$PLINEWID
 40
0.0
  9
$SPLFRAME
 70
     0
  9
$SPLINETYPE
 70
     6
  9
$SPLINESEGS
 70
     8
  9
$HANDSEED
  5
2F2
  9
$SURFTAB1
 70
     6
  9
$SURFTAB2
 70
     6
  9
$SURFTYPE
 70
     6
  9
$SURFU
 70
     6
  9
$SURFV
 70
     6
  9
$UCSBASE
  2

  9
$UCSNAME
  2

  9
$UCSORG
 10
0.0
 20
0.0
 30
0.0
  9
$UCSXDIR
 10
1.0
 20
0.0
 30
0.0
  9
$UCSYDIR
 10
0.0
 20
1.0
 30
0.0
  9
$UCSORTHOREF
  2

  9
$UCSORTHOVIEW
 70
     0
  9
$UCSORGTOP
 10
0.0
 20
0.0
 30
0.0
  9
$UCSORGBOTTOM
 10
0.0
 20
0.0
 30
0.0
  9
$UCSORGLEFT
 10
0.0
 20
0.0
 30
0.0
  9
$UCSORGRIGHT
 10
0.0
 20
0.0
 30
0.0
  9
$UCSORGFRONT
 10
0.0
 20
0.0
 30
0.0
  9
$UCSORGBACK
 10
0.0
 20
0.0
 30
0.0
  9
$PUCSBASE
  2

  9
$PUCSNAME
  2

  9
$PUCSORG
 10
0.0
 20
0.0
 30
0.0
  9
$PUCSXDIR
 10
1.0
 20
0.0
 30
0.0
  9
$PUCSYDIR
 10
0.0
 20
1.0
 30
0.0
  9
$PUCSORTHOREF
  2

  9
$PUCSORTHOVIEW
 70
     0
  9
$PUCSORGTOP
 10
0.0
 20
0.0
 30
0.0
  9
$PUCSORGBOTTOM
 10
0.0
 20
0.0
 30
0.0
  9
$PUCSORGLEFT
 10
0.0
 20
0.0
 30
0.0
  9
$PUCSORGRIGHT
 10
0.0
 20
0.0
 30
0.0
  9
$PUCSORGFRONT
 10
0.0
 20
0.0
 30
0.0
  9
$PUCSORGBACK
 10
0.0
 20
0.0
 30
0.0
  9
$USERI1
 70
     0
  9
$USERI2
 70
     0
  9
$USERI3
 70
     0
  9
$USERI4
 70
     0
  9
$USERI5
 70
     0
  9
$USERR1
 40
0.0
  9
$USERR2
 40
0.0
  9
$USERR3
 40
0.0
  9
$USERR4
 40
0.0
  9
$USERR5
 40
0.0
  9
$WORLDVIEW
 70
     1
  9
$SHADEDGE
 70
     3
  9
$SHADEDIF
 70
    70
  9
$TILEMODE
 70
     1
  9
$MAXACTVP
 70
    64
  9
$PINSBASE
 10
0.0
 20
0.0
 30
0.0
  9
$PLIMCHECK
 70
     0
  9
$PEXTMIN
 10
1.000000000000000E+20
 20
1.000000000000000E+20
 30
1.000000000000000E+20
  9
$PEXTMAX
 10
-1.000000000000000E+20
 20
-1.000000000000000E+20
 30
-1.000000000000000E+20
  9
$PLIMMIN
 10
0.0
 20
0.0
  9
$PLIMMAX
 10
12.0
 20
9.0
  9
$UNITMODE
 70
     0
  9
$VISRETAIN
 70
     1
  9
$PLINEGEN
 70
     0
  9
$PSLTSCALE
 70
     1
  9
$TREEDEPTH
 70
  3020
  9
$CMLSTYLE
  2
Standard
  9
$CMLJUST
 70
     0
  9
$CMLSCALE
 40
1.0
  9
$PROXYGRAPHICS
 70
     1
  9
$MEASUREMENT
 70
     0
  9
$CELWEIGHT
370
    -1
  9
$ENDCAPS
280
     0
  9
$JOINSTYLE
280
     0
  9
$LWDISPLAY
290
     0
  9
$INSUNITS
 70
     1
  9
$HYPERLINKBASE
  1

  9
$STYLESHEET
  1

  9
$XEDIT
290
     1
  9
$CEPSNTYPE
380
     0
  9
$PSTYLEMODE
290
     1
  9
$FINGERPRINTGUID
  2
{851200F3-54D7-4C5B-8831-76BD991AAEF5}
  9
$VERSIONGUID
  2
{FAEB1C32-E019-11D5-929B-00C0DF256EC4}
  9
$EXTNAMES
290
     1
  9
$PSVPSCALE
 40
0.0
  9
$OLESTARTUP
290
     0
  9
$SORTENTS
280
   127
  9
$INDEXCTL
280
     0
  9
$HIDETEXT
280
     1
  9
$XCLIPFRAME
290
     0
  9
$HALOGAP
280
     0
  9
$OBSCOLOR
 70
   257
  9
$OBSLTYPE
280
     0
  9
$INTERSECTIONDISPLAY
280
     0
  9
$INTERSECTIONCOLOR
 70
   257
  9
$DIMASSOC
280
     2
  9
$PROJECTNAME
  1

  0
ENDSEC
  0
SECTION
  2
CLASSES
  0
CLASS
  1
ACDBDICTIONARYWDFLT
  2
AcDbDictionaryWithDefault
  3
ObjectDBX Classes
 90
        0
 91
        4
280
     0
281
     0
  0
CLASS
  1
VISUALSTYLE
  2
AcDbVisualStyle
  3
ObjectDBX Classes
 90
     4095
 91
        4
280
     0
281
     0
  0
CLASS
  1
MATERIAL
  2
AcDbMaterial
  3
ObjectDBX Classes
 90
     1153
 91
        4
280
     0
281
     0
  0
CLASS
  1
SCALE
  2
AcDbScale
  3
ObjectDBX Classes
 90
     1153
 91
        4
280
     0
281
     0
  0
CLASS
  1
DICTIONARYVAR
  2
AcDbDictionaryVar
  3
ObjectDBX Classes
 90
        0
 91
        4
280
     0
281
     0
  0
ENDSEC
  0
SECTION
  2
TABLES
  0
TABLE
  2
VPORT
  5
8
330
0
100
AcDbSymbolTable
 70
     1
  0
VPORT
  5
29
330
8
100
AcDbSymbolTableRecord
100
AcDbViewportTableRecord
  2
*Active
 70
     0
 10
0.0
 20
0.0
 11
1.0
 21
1.0
 12
0.0
 22
0.0
 13
0.0
 23
0.0
 14
0.5
 24
0.5
 15
0.5
 25
0.5
 16
0.0
 26
0.0
 36
1.0
 17
0.0
 27
0.0
 37
-1000.0
 40
922.5851612784242
 41
2.096280087527352
 42
50.0
 43
4805.057488644457
 44
16083.03312418672
 50
0.0
 51
0.0
 71
     0
 72
   100
 73
     1
 74
     3
 75
     0
 76
     0
 77
     0
 78
     0
281
     0
 65
     1
110
0.0
120
0.0
130
0.0
111
1.0
121
0.0
131
0.0
112
0.0
122
1.0
132
0.0
 79
     0
146
0.0
  0
ENDTAB
  0
TABLE
  2
LTYPE
  5
5
330
0
100
AcDbSymbolTable
 70
     1
  0
LTYPE
  5
14
330
5
100
AcDbSymbolTableRecord
100
AcDbLinetypeTableRecord
  2
ByBlock
 70
     0
  3

 72
    65
 73
     0
 40
0.0
  0
LTYPE
  5
15
330
5
100
AcDbSymbolTableRecord
100
AcDbLinetypeTableRecord
  2
ByLayer
 70
     0
  3

 72
    65
 73
     0
 40
0.0
  0
LTYPE
  5
16
330
5
100
AcDbSymbolTableRecord
100
AcDbLinetypeTableRecord
  2
Continuous
 70
     0
  3
Solid line
 72
    65
 73
     0
 40
0.0
  0
ENDTAB
  0
TABLE
  2
LAYER
  5
2
330
0
100
AcDbSymbolTable
 70
     3
  0
LAYER
  5
10
330
2
100
AcDbSymbolTableRecord
100
AcDbLayerTableRecord
  2
0
 70
     0
 62
     7
  6
Continuous
370
    -3
390
F
  0
LAYER
  5
3F
330
2
100
AcDbSymbolTableRecord
100
AcDbLayerTableRecord
  2
ProfileEdges
 70
     0
 62
     7
  6
Continuous
370
    -3
390
F
  0
LAYER
  5
40
330
2
100
AcDbSymbolTableRecord
100
AcDbLayerTableRecord
  2
SectionCutEdges
 70
     0
 62
     7
  6
Continuous
370
    -3
390
F
  0
ENDTAB
  0
TABLE
  2
STYLE
  5
3
330
0
100
AcDbSymbolTable
 70
     2
  0
STYLE
  5
11
330
3
100
AcDbSymbolTableRecord
100
AcDbTextStyleTableRecord
  2
Standard
 70
     0
 40
0.0
 41
1.0
 50
0.0
 71
     0
 42
0.2
  3
txt
  4

  0
STYLE
  5
298
330
3
100
AcDbSymbolTableRecord
100
AcDbTextStyleTableRecord
  2
Tahoma
 70
     0
 40
0.2
 41
1.0
 50
0.0
 71
     0
 42
0.2
  3
Tahoma
  4

1001
ACAD
1000
Tahoma
1071
       34
  0
ENDTAB
  0
TABLE
  2
VIEW
  5
6
330
0
100
AcDbSymbolTable
 70
     0
  0
ENDTAB
  0
TABLE
  2
UCS
  5
7
330
0
100
AcDbSymbolTable
 70
     0
  0
ENDTAB
  0
TABLE
  2
APPID
  5
9
330
0
100
AcDbSymbolTable
 70
     1
  0
APPID
  5
12
330
9
100
AcDbSymbolTableRecord
100
AcDbRegAppTableRecord
  2
ACAD
 70
     0
  0
ENDTAB
  0
TABLE
  2
DIMSTYLE
  5
A
330
0
100
AcDbSymbolTable
 70
     1
100
AcDbDimStyleTable
  0
DIMSTYLE
105
27
330
A
100
AcDbSymbolTableRecord
100
AcDbDimStyleTableRecord
  2
Standard
 70
     0
340
11
  0
ENDTAB
  0
TABLE
  2
BLOCK_RECORD
  5
1
330
0
100
AcDbSymbolTable
 70
     1
  0
BLOCK_RECORD
  5
1F
330
1
100
AcDbSymbolTableRecord
100
AcDbBlockTableRecord
  2
*Model_Space
340
22
  0
BLOCK_RECORD
  5
1B
330
1
100
AcDbSymbolTableRecord
100
AcDbBlockTableRecord
  2
*Paper_Space
340
1E
  0
BLOCK_RECORD
  5
23
330
1
100
AcDbSymbolTableRecord
100
AcDbBlockTableRecord
  2
*Paper_Space0
340
26
  0
ENDTAB
  0
ENDSEC
  0
SECTION
  2
BLOCKS
  0
BLOCK
  5
20
330
1F
100
AcDbEntity
  8
0
100
AcDbBlockBegin
  2
*Model_Space
 70
     0
 10
0.0
 20
0.0
 30
0.0
  3
*Model_Space
  1

  0
ENDBLK
  5
21
330
1F
100
AcDbEntity
  8
0
100
AcDbBlockEnd
  0
BLOCK
  5
1C
330
1B
100
AcDbEntity
 67
     1
  8
0
100
AcDbBlockBegin
  2
*Paper_Space
 70
     0
 10
0.0
 20
0.0
 30
0.0
  3
*Paper_Space
  1

  0
ENDBLK
  5
1D
330
1B
100
AcDbEntity
 67
     1
  8
0
100
AcDbBlockEnd
  0
BLOCK
  5
24
330
23
100
AcDbEntity
  8
0
100
AcDbBlockBegin
  2
*Paper_Space0
 70
     0
 10
0.0
 20
0.0
 30
0.0
  3
*Paper_Space0
  1

  0
ENDBLK
  5
25
330
23
100
AcDbEntity
  8
0
100
AcDbBlockEnd
  0
ENDSEC
  0
SECTION
  2
ENTITIES
  0
LINE
  5
41
330
1F
100
AcDbEntity
  8
0
100
AcDbLine
 10
-229.1037625213001
 20
-123.3602362154534
 30
0.0
 11
-86.69732442686943
 21
-34.85550133319525
 31
0.0
  0
LINE
  5
42
330
1F
100
AcDbEntity
  8
0
100
AcDbLine
 10
-90.58259079205688
 20
-23.40349212059452
 30
0.0
 11
51.82384730241761
 21
65.10124276077912
 31
0.0
  0
LINE
  5
43
330
1F
100
AcDbEntity
  8
0
100
AcDbLine
 10
-90.58259079205688
 20
-23.40349212059452
 30
0.0
 11
-76.06115892604298
 21
-28.24518918437072
 31
0.0
  0
LINE
  5
44
330
1F
100
AcDbEntity
  8
0
100
AcDbLine
 10
-101.2187562928833
 20
-30.01380426941905
 30
0.0
 11
-86.69732442686943
 21
-34.85550133319525
 31
0.0
  0
LINE
  5
45
330
1F
100
AcDbEntity
  8
0
100
AcDbLine
 10
-76.06115892604298
 20
-28.24518918437072
 30
0.0
 11
66.34527916841938
 21
60.25954569700643
 31
0.0
  0
LINE
  5
46
330
1F
100
AcDbEntity
  8
0
100
AcDbLine
 10
66.34527916841938
 20
60.25954569700643
 30
0.0
 11
52.03188296503486
 21
-70.9536294083005
 31
0.0
  0
LINE
  5
47
330
1F
100
AcDbEntity
  8
0
100
AcDbLine
 10
-229.1037625213001
 20
-123.3602362154534
 30
0.0
 11
-200.2348648626842
 21
-352.1223151874217
 31
0.0
  0
LINE
  5
48
330
1F
100
AcDbEntity
  8
0
100
AcDbLine
 10
-243.625194387302
 20
-118.5185391516807
 30
0.0
 11
-214.7562967286841
 21
-347.28061812365
 31
0.0
  0
LINE
  5
49
330
1F
100
AcDbEntity
  8
0
100
AcDbLine
 10
-229.1037625213001
 20
-123.3602362154534
 30
0.0
 11
-243.625194387302
 21
-118.5185391516807
 31
0.0
  0
LINE
  5
4A
330
1F
100
AcDbEntity
  8
0
100
AcDbLine
 10
66.34527916841938
 20
60.25954569700643
 30
0.0
 11
51.82384730241761
 21
65.10124276077912
 31
0.0
  0
LINE
  5
4B
330
1F
100
AcDbEntity
  8
0
100
AcDbLine
 10
13.07221704394408
 20
-223.9375454524918
 30
0.0
 11
-196.76733256896
 21
-354.3515488832266
 31
0.0
  0
LINE
  5
4C
330
1F
100
AcDbEntity
  8
0
100
AcDbLine
 10
-200.2348648626842
 20
-352.1223151874217
 30
0.0
 11
-200.1182327514118
 21
-352.7356821494684
 31
0.0
  0
LINE
  5
4D
330
1F
100
AcDbEntity
  8
0
100
AcDbLine
 10
-214.6396646174114
 20
-347.8939850856966
 30
0.0
 11
-214.7562967286841
 21
-347.28061812365
 31
0.0
  0
LINE
  5
4E
330
1F
100
AcDbEntity
  8
0
100
AcDbLine
 10
-197.705430374237
 20
-354.7199888332665
 30
0.0
 11
-197.2358330936419
 21
-354.5887412986239
 31
0.0
  0
LINE
  5
4F
330
1F
100
AcDbEntity
  8
0
100
AcDbLine
 10
-198.1645613671951
 20
-354.7420597372653
 30
0.0
 11
-197.705430374237
 21
-354.7199888332665
 31
0.0
  0
LINE
  5
50
330
1F
100
AcDbEntity
  8
0
100
AcDbLine
 10
-199.3690489537668
 20
-354.161233297684
 30
0.0
 11
-199.0067392643885
 21
-354.4591994904562
 31
0.0
  0
LINE
  5
51
330
1F
100
AcDbEntity
  8
0
100
AcDbLine
 10
-213.5281711303886
 20
-349.6175024266846
 30
0.0
 11
-213.8904808197667
 21
-349.3195362339122
 31
0.0
  0
LINE
  5
52
330
1F
100
AcDbEntity
  8
0
100
AcDbLine
 10
-213.1233526096992
 20
-349.8127134879438
 30
0.0
 11
-198.6019207436995
 21
-354.6544105517156
 31
0.0
  0
LINE
  5
53
330
1F
100
AcDbEntity
  8
0
100
AcDbLine
 10
-199.0067392643885
 20
-354.4591994904562
 30
0.0
 11
-198.6019207436995
 21
-354.6544105517156
 31
0.0
  0
LINE
  5
54
330
1F
100
AcDbEntity
  8
0
100
AcDbLine
 10
-213.1233526096992
 20
-349.8127134879438
 30
0.0
 11
-213.5281711303886
 21
-349.6175024266846
 31
0.0
  0
LINE
  5
55
330
1F
100
AcDbEntity
  8
0
100
AcDbLine
 10
-199.6799285448464
 20
-353.7678488899573
 30
0.0
 11
-199.3690489537668
 21
-354.161233297684
 31
0.0
  0
LINE
  5
56
330
1F
100
AcDbEntity
  8
0
100
AcDbLine
 10
-213.8904808197667
 20
-349.3195362339122
 30
0.0
 11
-214.2013604108463
 21
-348.9261518261856
 31
0.0
  0
LINE
  5
57
330
1F
100
AcDbEntity
  8
0
100
AcDbLine
 10
-197.2358330936419
 20
-354.5887412986239
 30
0.0
 11
-196.76733256896
 21
-354.3515488832266
 31
0.0
  0
LINE
  5
58
330
1F
100
AcDbEntity
  8
0
100
AcDbLine
 10
-198.6019207436995
 20
-354.6544105517156
 30
0.0
 11
-198.1645613671951
 21
-354.7420597372653
 31
0.0
  0
LINE
  5
59
330
1F
100
AcDbEntity
  8
0
100
AcDbLine
 10
-214.2013604108463
 20
-348.9261518261856
 30
0.0
 11
-214.4531550163427
 21
-348.4470356331913
 31
0.0
  0
LINE
  5
5A
330
1F
100
AcDbEntity
  8
0
100
AcDbLine
 10
-199.931723150343
 20
-353.2887326969632
 30
0.0
 11
-199.6799285448464
 21
-353.7678488899573
 31
0.0
  0
LINE
  5
5B
330
1F
100
AcDbEntity
  8
0
100
AcDbLine
 10
-214.4531550163427
 20
-348.4470356331913
 30
0.0
 11
-214.6396646174114
 21
-347.8939850856966
 31
0.0
  0
LINE
  5
5C
330
1F
100
AcDbEntity
  8
0
100
AcDbLine
 10
-200.1182327514118
 20
-352.7356821494684
 30
0.0
 11
-199.931723150343
 21
-353.2887326969632
 31
0.0
  0
LINE
  5
5D
330
1F
100
AcDbEntity
  8
0
100
AcDbLine
 10
-203.5925894262166
 20
-103.653342173112
 30
0.0
 11
-204.3142889796404
 21
-103.9968750289783
 31
0.0
  0
LINE
  5
5E
330
1F
100
AcDbEntity
  8
0
100
AcDbLine
 10
-204.3142889796404
 20
-103.9968750289783
 30
0.0
 11
-205.2067195864687
 21
-104.2436736542952
 31
0.0
  0
LINE
  5
5F
330
1F
100
AcDbEntity
  8
0
100
AcDbLine
 10
-205.2067195864687
 20
-104.2436736542952
 30
0.0
 11
-206.2090635756548
 21
-104.3769191306018
 31
0.0
  0
LINE
  5
60
330
1F
100
AcDbEntity
  8
0
100
AcDbLine
 10
-206.2090635756548
 20
-104.3769191306018
 30
0.0
 11
-207.2530128607879
 21
-104.3875309988878
 31
0.0
  0
LINE
  5
61
330
1F
100
AcDbEntity
  8
0
100
AcDbLine
 10
-207.2530128607879
 20
-104.3875309988878
 30
0.0
 11
-208.2674240232955
 21
-104.2747860778645
 31
0.0
  0
LINE
  5
62
330
1F
100
AcDbEntity
  8
0
100
AcDbLine
 10
-208.2674240232955
 20
-104.2747860778645
 30
0.0
 11
-209.1831666188442
 21
-104.0463677475804
 31
0.0
  0
LINE
  5
63
330
1F
100
AcDbEntity
  8
0
100
AcDbLine
 10
-209.1831666188442
 20
-104.0463677475804
 30
0.0
 11
-209.9378343028858
 21
-103.7178423397656
 31
0.0
  0
LINE
  5
64
330
1F
100
AcDbEntity
  8
0
100
AcDbLine
 10
-209.9378343028858
 20
-103.7178423397656
 30
0.0
 11
-210.4799977198995
 21
-103.3115983180487
 31
0.0
  0
LINE
  5
65
330
1F
100
AcDbEntity
  8
0
100
AcDbLine
 10
-210.4799977198995
 20
-103.3115983180487
 30
0.0
 11
-210.7727093289834
 21
-102.8553205411592
 31
0.0
  0
LINE
  5
66
330
1F
100
AcDbEntity
  8
0
100
AcDbLine
 10
-210.7727093289834
 20
-102.8553205411592
 30
0.0
 11
-210.7960213177051
 21
-102.380103585558
 31
0.0
  0
LINE
  5
67
330
1F
100
AcDbEntity
  8
0
100
AcDbLine
 10
-210.7960213177051
 20
-102.380103585558
 30
0.0
 11
-210.5483450125593
 21
-101.9183327014362
 31
0.0
  0
LINE
  5
68
330
1F
100
AcDbEntity
  8
0
100
AcDbLine
 10
-210.5483450125593
 20
-101.9183327014362
 30
0.0
 11
-210.0465591444393
 21
-101.5014768114336
 31
0.0
  0
LINE
  5
69
330
1F
100
AcDbEntity
  8
0
100
AcDbLine
 10
-210.0465591444393
 20
-101.5014768114336
 30
0.0
 11
-209.3248595910144
 21
-101.1579439555677
 31
0.0
  0
LINE
  5
6A
330
1F
100
AcDbEntity
  8
0
100
AcDbLine
 10
-209.3248595910144
 20
-101.1579439555677
 30
0.0
 11
-208.4324289841863
 21
-100.9111453302509
 31
0.0
  0
LINE
  5
6B
330
1F
100
AcDbEntity
  8
0
100
AcDbLine
 10
-208.4324289841863
 20
-100.9111453302509
 30
0.0
 11
-207.4300849950011
 21
-100.7778998539438
 31
0.0
  0
LINE
  5
6C
330
1F
100
AcDbEntity
  8
0
100
AcDbLine
 10
-207.4300849950011
 20
-100.7778998539438
 30
0.0
 11
-206.386135709867
 21
-100.7672879856583
 31
0.0
  0
LINE
  5
6D
330
1F
100
AcDbEntity
  8
0
100
AcDbLine
 10
-206.386135709867
 20
-100.7672879856583
 30
0.0
 11
-205.3717245473592
 21
-100.8800329066815
 31
0.0
  0
LINE
  5
6E
330
1F
100
AcDbEntity
  8
0
100
AcDbLine
 10
-205.3717245473592
 20
-100.8800329066815
 30
0.0
 11
-204.4559819518095
 21
-101.1084512369654
 31
0.0
  0
LINE
  5
6F
330
1F
100
AcDbEntity
  8
0
100
AcDbLine
 10
-204.4559819518095
 20
-101.1084512369654
 30
0.0
 11
-203.701314267769
 21
-101.4369766447803
 31
0.0
  0
LINE
  5
70
330
1F
100
AcDbEntity
  8
0
100
AcDbLine
 10
-203.701314267769
 20
-101.4369766447803
 30
0.0
 11
-203.1591508507555
 21
-101.8432206664973
 31
0.0
  0
LINE
  5
71
330
1F
100
AcDbEntity
  8
0
100
AcDbLine
 10
-203.1591508507555
 20
-101.8432206664973
 30
0.0
 11
-202.8664392416725
 21
-102.2994984433864
 31
0.0
  0
LINE
  5
72
330
1F
100
AcDbEntity
  8
0
100
AcDbLine
 10
-202.8664392416725
 20
-102.2994984433864
 30
0.0
 11
-202.8431272529499
 21
-102.7747153989881
 31
0.0
  0
LINE
  5
73
330
1F
100
AcDbEntity
  8
0
100
AcDbLine
 10
-202.8431272529499
 20
-102.7747153989881
 30
0.0
 11
-203.0908035580955
 21
-103.2364862831097
 31
0.0
  0
LINE
  5
74
330
1F
100
AcDbEntity
  8
0
100
AcDbLine
 10
-203.0908035580955
 20
-103.2364862831097
 30
0.0
 11
-203.5925894262166
 21
-103.653342173112
 31
0.0
  0
LINE
  5
75
330
1F
100
AcDbEntity
  8
0
100
AcDbLine
 10
-146.1169112485249
 20
-67.51971727168736
 30
0.0
 11
-147.1192552377103
 21
-67.65296274799402
 31
0.0
  0
LINE
  5
76
330
1F
100
AcDbEntity
  8
0
100
AcDbLine
 10
-148.3402766570573
 20
-64.05394347133596
 30
0.0
 11
-147.2963273719231
 21
-64.04333160305046
 31
0.0
  0
LINE
  5
77
330
1F
100
AcDbEntity
  8
0
100
AcDbLine
 10
-147.2963273719231
 20
-64.04333160305046
 30
0.0
 11
-146.2819162094152
 21
-64.15607652407353
 31
0.0
  0
LINE
  5
78
330
1F
100
AcDbEntity
  8
0
100
AcDbLine
 10
-149.1776156853518
 20
-67.55082969525671
 30
0.0
 11
-150.0933582809008
 21
-67.32241136497238
 31
0.0
  0
LINE
  5
79
330
1F
100
AcDbEntity
  8
0
100
AcDbLine
 10
-146.2819162094152
 20
-64.15607652407353
 30
0.0
 11
-145.3661736138661
 21
-64.38449485435727
 31
0.0
  0
LINE
  5
7A
330
1F
100
AcDbEntity
  8
0
100
AcDbLine
 10
-150.0933582809008
 20
-67.32241136497238
 30
0.0
 11
-150.8480259649418
 21
-66.99388595715776
 31
0.0
  0
LINE
  5
7B
330
1F
100
AcDbEntity
  8
0
100
AcDbLine
 10
-150.8480259649418
 20
-66.99388595715776
 30
0.0
 11
-151.3901893819555
 21
-66.58764193544084
 31
0.0
  0
LINE
  5
7C
330
1F
100
AcDbEntity
  8
0
100
AcDbLine
 10
-151.3901893819555
 20
-66.58764193544084
 30
0.0
 11
-151.682900991039
 21
-66.13136415855155
 31
0.0
  0
LINE
  5
7D
330
1F
100
AcDbEntity
  8
0
100
AcDbLine
 10
-151.682900991039
 20
-66.13136415855155
 30
0.0
 11
-151.7062129797611
 21
-65.65614720295007
 31
0.0
  0
LINE
  5
7E
330
1F
100
AcDbEntity
  8
0
100
AcDbLine
 10
-151.7062129797611
 20
-65.65614720295007
 30
0.0
 11
-151.4585366746153
 21
-65.1943763188283
 31
0.0
  0
LINE
  5
7F
330
1F
100
AcDbEntity
  8
0
100
AcDbLine
 10
-144.5027810882717
 20
-66.92938579050457
 30
0.0
 11
-145.2244806416966
 21
-67.27291864637056
 31
0.0
  0
LINE
  5
80
330
1F
100
AcDbEntity
  8
0
100
AcDbLine
 10
-143.7766309037286
 20
-65.57554206077849
 30
0.0
 11
-143.7533189150061
 21
-66.05075901638025
 31
0.0
  0
LINE
  5
81
330
1F
100
AcDbEntity
  8
0
100
AcDbLine
 10
-143.7533189150061
 20
-66.05075901638025
 30
0.0
 11
-144.0009952201517
 21
-66.51252990050195
 31
0.0
  0
LINE
  5
82
330
1F
100
AcDbEntity
  8
0
100
AcDbLine
 10
-144.0009952201517
 20
-66.51252990050195
 30
0.0
 11
-144.5027810882717
 21
-66.92938579050457
 31
0.0
  0
LINE
  5
83
330
1F
100
AcDbEntity
  8
0
100
AcDbLine
 10
-148.163204522844
 20
-67.66357461627993
 30
0.0
 11
-149.1776156853518
 21
-67.55082969525671
 31
0.0
  0
LINE
  5
84
330
1F
100
AcDbEntity
  8
0
100
AcDbLine
 10
-151.4585366746153
 20
-65.1943763188283
 30
0.0
 11
-150.9567508064941
 21
-64.77752042882605
 31
0.0
  0
LINE
  5
85
330
1F
100
AcDbEntity
  8
0
100
AcDbLine
 10
-150.9567508064941
 20
-64.77752042882605
 30
0.0
 11
-150.2350512530704
 21
-64.43398757295972
 31
0.0
  0
LINE
  5
86
330
1F
100
AcDbEntity
  8
0
100
AcDbLine
 10
-150.2350512530704
 20
-64.43398757295972
 30
0.0
 11
-149.3426206462423
 21
-64.18718894764295
 31
0.0
  0
LINE
  5
87
330
1F
100
AcDbEntity
  8
0
100
AcDbLine
 10
-145.2244806416966
 20
-67.27291864637056
 30
0.0
 11
-146.1169112485249
 21
-67.51971727168736
 31
0.0
  0
LINE
  5
88
330
1F
100
AcDbEntity
  8
0
100
AcDbLine
 10
-147.1192552377103
 20
-67.65296274799402
 30
0.0
 11
-148.163204522844
 21
-67.66357461627993
 31
0.0
  0
LINE
  5
89
330
1F
100
AcDbEntity
  8
0
100
AcDbLine
 10
-149.3426206462423
 20
-64.18718894764295
 30
0.0
 11
-148.3402766570573
 21
-64.05394347133596
 31
0.0
  0
LINE
  5
8A
330
1F
100
AcDbEntity
  8
0
100
AcDbLine
 10
-145.3661736138661
 20
-64.38449485435727
 30
0.0
 11
-144.6115059298252
 21
-64.71302026217259
 31
0.0
  0
LINE
  5
8B
330
1F
100
AcDbEntity
  8
0
100
AcDbLine
 10
-144.6115059298252
 20
-64.71302026217259
 30
0.0
 11
-144.0693425128115
 21
-65.11926428388936
 31
0.0
  0
LINE
  5
8C
330
1F
100
AcDbEntity
  8
0
100
AcDbLine
 10
-144.0693425128115
 20
-65.11926428388936
 30
0.0
 11
-143.7766309037286
 21
-65.57554206077849
 31
0.0
  0
LINE
  5
8D
330
1F
100
AcDbEntity
  8
0
100
AcDbLine
 10
-27.04486396648825
 20
6.174994116834339
 30
0.0
 11
-27.937294573316
 21
5.928195491517252
 31
0.0
  0
LINE
  5
8E
330
1F
100
AcDbEntity
  8
0
100
AcDbLine
 10
-28.93963856250112
 20
5.794950015210775
 30
0.0
 11
-29.9835878476354
 21
5.784338146925108
 31
0.0
  0
LINE
  5
8F
330
1F
100
AcDbEntity
  8
0
100
AcDbLine
 10
-31.16300397103374
 20
9.26072381556207
 30
0.0
 11
-30.16065998184724
 21
9.393969291868277
 31
0.0
  0
LINE
  5
90
330
1F
100
AcDbEntity
  8
0
100
AcDbLine
 10
-29.11671069671392
 20
9.404581160154372
 30
0.0
 11
-28.10229953420609
 21
9.291836239131294
 31
0.0
  0
LINE
  5
91
330
1F
100
AcDbEntity
  8
0
100
AcDbLine
 10
-30.99799901014343
 20
5.897083067948141
 30
0.0
 11
-31.91374160569169
 21
6.125501398232448
 31
0.0
  0
LINE
  5
92
330
1F
100
AcDbEntity
  8
0
100
AcDbLine
 10
-27.937294573316
 20
5.928195491517252
 30
0.0
 11
-28.93963856250112
 21
5.794950015210775
 31
0.0
  0
LINE
  5
93
330
1F
100
AcDbEntity
  8
0
100
AcDbLine
 10
-25.57370223979776
 20
7.397153746824635
 30
0.0
 11
-25.82137854494278
 21
6.935382862702697
 31
0.0
  0
LINE
  5
94
330
1F
100
AcDbEntity
  8
0
100
AcDbLine
 10
-25.82137854494278
 20
6.935382862702697
 30
0.0
 11
-26.3231644130622
 21
6.51852697269984
 31
0.0
  0
LINE
  5
95
330
1F
100
AcDbEntity
  8
0
100
AcDbLine
 10
-27.18655693865698
 20
9.063417908847528
 30
0.0
 11
-26.43188925461628
 21
8.73489250103209
 31
0.0
  0
LINE
  5
96
330
1F
100
AcDbEntity
  8
0
100
AcDbLine
 10
-29.9835878476354
 20
5.784338146925108
 30
0.0
 11
-30.99799901014343
 21
5.897083067948141
 31
0.0
  0
LINE
  5
97
330
1F
100
AcDbEntity
  8
0
100
AcDbLine
 10
-33.27891999940675
 20
8.253536444376739
 30
0.0
 11
-32.77713413128441
 21
8.67039233437858
 31
0.0
  0
LINE
  5
98
330
1F
100
AcDbEntity
  8
0
100
AcDbLine
 10
-32.77713413128441
 20
8.67039233437858
 30
0.0
 11
-32.05543457786128
 21
9.013925190245095
 31
0.0
  0
LINE
  5
99
330
1F
100
AcDbEntity
  8
0
100
AcDbLine
 10
-32.05543457786128
 20
9.013925190245095
 30
0.0
 11
-31.16300397103374
 21
9.26072381556207
 31
0.0
  0
LINE
  5
9A
330
1F
100
AcDbEntity
  8
0
100
AcDbLine
 10
-26.43188925461628
 20
8.73489250103209
 30
0.0
 11
-25.88972583760238
 21
8.328648479315465
 31
0.0
  0
LINE
  5
9B
330
1F
100
AcDbEntity
  8
0
100
AcDbLine
 10
-30.16065998184724
 20
9.393969291868277
 30
0.0
 11
-29.11671069671392
 21
9.404581160154372
 31
0.0
  0
LINE
  5
9C
330
1F
100
AcDbEntity
  8
0
100
AcDbLine
 10
-28.10229953420609
 20
9.291836239131294
 30
0.0
 11
-27.18655693865698
 21
9.063417908847528
 31
0.0
  0
LINE
  5
9D
330
1F
100
AcDbEntity
  8
0
100
AcDbLine
 10
-31.91374160569169
 20
6.125501398232448
 30
0.0
 11
-32.66840928973325
 21
6.454026806047231
 31
0.0
  0
LINE
  5
9E
330
1F
100
AcDbEntity
  8
0
100
AcDbLine
 10
-32.66840928973325
 20
6.454026806047231
 30
0.0
 11
-33.21057270674693
 21
6.860270827764105
 31
0.0
  0
LINE
  5
9F
330
1F
100
AcDbEntity
  8
0
100
AcDbLine
 10
-33.21057270674693
 20
6.860270827764105
 30
0.0
 11
-33.50328431583008
 21
7.316548604653158
 31
0.0
  0
LINE
  5
A0
330
1F
100
AcDbEntity
  8
0
100
AcDbLine
 10
-33.50328431583008
 20
7.316548604653158
 30
0.0
 11
-33.52659630455197
 21
7.791765560254754
 31
0.0
  0
LINE
  5
A1
330
1F
100
AcDbEntity
  8
0
100
AcDbLine
 10
-33.52659630455197
 20
7.791765560254754
 30
0.0
 11
-33.27891999940675
 21
8.253536444376739
 31
0.0
  0
LINE
  5
A2
330
1F
100
AcDbEntity
  8
0
100
AcDbLine
 10
-26.3231644130622
 20
6.51852697269984
 30
0.0
 11
-27.04486396648825
 21
6.174994116834339
 31
0.0
  0
LINE
  5
A3
330
1F
100
AcDbEntity
  8
0
100
AcDbLine
 10
-25.59701422851828
 20
7.872370702425894
 30
0.0
 11
-25.57370223979776
 21
7.397153746824635
 31
0.0
  0
LINE
  5
A4
330
1F
100
AcDbEntity
  8
0
100
AcDbLine
 10
-25.88972583760238
 20
8.328648479315465
 30
0.0
 11
-25.59701422851828
 21
7.872370702425894
 31
0.0
  0
LINE
  5
A5
330
1F
100
AcDbEntity
  8
0
100
AcDbLine
 10
30.15016977544482
 20
42.51890639789607
 30
0.0
 11
29.10622049031054
 21
42.50829452961037
 31
0.0
  0
LINE
  5
A6
330
1F
100
AcDbEntity
  8
0
100
AcDbLine
 10
27.9268043669122
 20
45.98468019824734
 30
0.0
 11
28.92914835609908
 21
46.11792567455321
 31
0.0
  0
LINE
  5
A7
330
1F
100
AcDbEntity
  8
0
100
AcDbLine
 10
29.9730976412332
 20
46.12853754283923
 30
0.0
 11
30.98750880373985
 21
46.01579262181659
 31
0.0
  0
LINE
  5
A8
330
1F
100
AcDbEntity
  8
0
100
AcDbLine
 10
28.0918093278023
 20
42.6210394506333
 30
0.0
 11
27.17606673225425
 21
42.8494577809177
 31
0.0
  0
LINE
  5
A9
330
1F
100
AcDbEntity
  8
0
100
AcDbLine
 10
31.1525137646309
 20
42.65215187420203
 30
0.0
 11
30.15016977544482
 21
42.51890639789607
 31
0.0
  0
LINE
  5
AA
330
1F
100
AcDbEntity
  8
0
100
AcDbLine
 10
33.51610609814796
 20
44.12111012950982
 30
0.0
 11
33.26842979300294
 21
43.65933924538785
 31
0.0
  0
LINE
  5
AB
330
1F
100
AcDbEntity
  8
0
100
AcDbLine
 10
33.26842979300294
 20
43.65933924538785
 30
0.0
 11
32.76664392488411
 21
43.24248335538479
 31
0.0
  0
LINE
  5
AC
330
1F
100
AcDbEntity
  8
0
100
AcDbLine
 10
31.90325139928896
 20
45.78737429153284
 30
0.0
 11
32.65791908332945
 21
45.45884888371722
 31
0.0
  0
LINE
  5
AD
330
1F
100
AcDbEntity
  8
0
100
AcDbLine
 10
26.4213990482127
 20
43.1779831887325
 30
0.0
 11
25.87923563119901
 21
43.58422721044942
 31
0.0
  0
LINE
  5
AE
330
1F
100
AcDbEntity
  8
0
100
AcDbLine
 10
25.87923563119901
 20
43.58422721044942
 30
0.0
 11
25.58652402211565
 21
44.04050498733834
 31
0.0
  0
LINE
  5
AF
330
1F
100
AcDbEntity
  8
0
100
AcDbLine
 10
25.58652402211565
 20
44.04050498733834
 30
0.0
 11
25.56321203339513
 21
44.51572194293966
 31
0.0
  0
LINE
  5
B0
330
1F
100
AcDbEntity
  8
0
100
AcDbLine
 10
25.56321203339513
 20
44.51572194293966
 30
0.0
 11
25.8108883385392
 21
44.97749282706205
 31
0.0
  0
LINE
  5
B1
330
1F
100
AcDbEntity
  8
0
100
AcDbLine
 10
32.04494437145748
 20
42.89895049951949
 30
0.0
 11
31.1525137646309
 21
42.65215187420203
 31
0.0
  0
LINE
  5
B2
330
1F
100
AcDbEntity
  8
0
100
AcDbLine
 10
28.92914835609908
 20
46.11792567455321
 30
0.0
 11
29.9730976412332
 21
46.12853754283923
 31
0.0
  0
LINE
  5
B3
330
1F
100
AcDbEntity
  8
0
100
AcDbLine
 10
30.98750880373985
 20
46.01579262181659
 30
0.0
 11
31.90325139928896
 21
45.78737429153284
 31
0.0
  0
LINE
  5
B4
330
1F
100
AcDbEntity
  8
0
100
AcDbLine
 10
27.17606673225425
 20
42.8494577809177
 30
0.0
 11
26.4213990482127
 21
43.1779831887325
 31
0.0
  0
LINE
  5
B5
330
1F
100
AcDbEntity
  8
0
100
AcDbLine
 10
32.76664392488411
 20
43.24248335538479
 30
0.0
 11
32.04494437145748
 21
42.89895049951949
 31
0.0
  0
LINE
  5
B6
330
1F
100
AcDbEntity
  8
0
100
AcDbLine
 10
33.49279410942825
 20
44.59632708511101
 30
0.0
 11
33.51610609814796
 21
44.12111012950982
 31
0.0
  0
LINE
  5
B7
330
1F
100
AcDbEntity
  8
0
100
AcDbLine
 10
33.20008250034473
 20
45.05260486200037
 30
0.0
 11
33.49279410942825
 21
44.59632708511101
 31
0.0
  0
LINE
  5
B8
330
1F
100
AcDbEntity
  8
0
100
AcDbLine
 10
29.10622049031054
 20
42.50829452961037
 30
0.0
 11
28.0918093278023
 21
42.6210394506333
 31
0.0
  0
LINE
  5
B9
330
1F
100
AcDbEntity
  8
0
100
AcDbLine
 10
25.8108883385392
 20
44.97749282706205
 30
0.0
 11
26.31267420666211
 21
45.39434871706369
 31
0.0
  0
LINE
  5
BA
330
1F
100
AcDbEntity
  8
0
100
AcDbLine
 10
26.31267420666211
 20
45.39434871706369
 30
0.0
 11
27.03437376008467
 21
45.73788157293043
 31
0.0
  0
LINE
  5
BB
330
1F
100
AcDbEntity
  8
0
100
AcDbLine
 10
27.03437376008467
 20
45.73788157293043
 30
0.0
 11
27.9268043669122
 21
45.98468019824734
 31
0.0
  0
LINE
  5
BC
330
1F
100
AcDbEntity
  8
0
100
AcDbLine
 10
32.65791908332945
 20
45.45884888371722
 30
0.0
 11
33.20008250034473
 21
45.05260486200037
 31
0.0
  0
LINE
  5
BD
330
1F
100
AcDbEntity
  8
0
100
AcDbLine
 10
-242.3993438790231
 20
17.05825051730785
 30
0.0
 11
-223.7117735086186
 21
-106.1424692278039
 31
0.0
  0
LINE
  5
BE
330
1F
100
AcDbEntity
  8
0
100
AcDbLine
 10
-242.3993438790231
 20
17.05825051730785
 30
0.0
 11
-231.7631783781943
 21
23.66856266616679
 31
0.0
  0
LINE
  5
BF
330
1F
100
AcDbEntity
  8
0
100
AcDbLine
 10
483.6722494211063
 20
-225.0266026717642
 30
0.0
 11
494.3084149219384
 21
-218.4162905229066
 31
0.0
  0
LINE
  5
C0
330
1F
100
AcDbEntity
  8
0
100
AcDbLine
 10
459.4787527275008
 20
-368.3929374690907
 30
0.0
 11
483.6722494211063
 21
-225.0266026717642
 31
0.0
  0
LINE
  5
C1
330
1F
100
AcDbEntity
  8
0
100
AcDbLine
 10
470.1149182283294
 20
-361.7826253202343
 30
0.0
 11
494.3084149219384
 21
-218.4162905229066
 31
0.0
  0
LINE
  5
C2
330
1F
100
AcDbEntity
  8
0
100
AcDbLine
 10
470.1149182283294
 20
-361.7826253202343
 30
0.0
 11
469.955681776328
 21
-362.4153862369328
 31
0.0
  0
LINE
  5
C3
330
1F
100
AcDbEntity
  8
0
100
AcDbLine
 10
455.3842098685375
 20
-371.3580520246288
 30
0.0
 11
456.0253455216155
 21
-371.4112134450313
 31
0.0
  0
LINE
  5
C4
330
1F
100
AcDbEntity
  8
0
100
AcDbLine
 10
456.6521916750808
 20
-371.3569386020505
 30
0.0
 11
457.2493132962493
 21
-371.1965639224475
 31
0.0
  0
LINE
  5
C5
330
1F
100
AcDbEntity
  8
0
100
AcDbLine
 10
469.955681776328
 20
-362.4153862369328
 30
0.0
 11
469.701042408027
 21
-362.999450188077
 31
0.0
  0
LINE
  5
C6
330
1F
100
AcDbEntity
  8
0
100
AcDbLine
 10
456.0253455216155
 20
-371.4112134450313
 30
0.0
 11
456.6521916750808
 21
-371.3569386020505
 31
0.0
  0
LINE
  5
C7
330
1F
100
AcDbEntity
  8
0
100
AcDbLine
 10
468.9328299344897
 20
-363.9655140256577
 30
0.0
 11
468.4381727699042
 21
-364.3237262142312
 31
0.0
  0
LINE
  5
C8
330
1F
100
AcDbEntity
  8
0
100
AcDbLine
 10
468.4381727699042
 20
-364.3237262142312
 30
0.0
 11
457.8020072690756
 21
-370.9340383630877
 31
0.0
  0
LINE
  5
C9
330
1F
100
AcDbEntity
  8
0
100
AcDbLine
 10
457.2493132962493
 20
-371.1965639224475
 30
0.0
 11
457.8020072690756
 21
-370.9340383630877
 31
0.0
  0
LINE
  5
CA
330
1F
100
AcDbEntity
  8
0
100
AcDbLine
 10
458.2966644336619
 20
-370.5758261745144
 30
0.0
 11
458.7211046889439
 21
-370.1307477296487
 31
0.0
  0
LINE
  5
CB
330
1F
100
AcDbEntity
  8
0
100
AcDbLine
 10
459.3195162754996
 20
-369.0256983857892
 30
0.0
 11
459.4787527275008
 21
-368.3929374690907
 31
0.0
  0
LINE
  5
CC
330
1F
100
AcDbEntity
  8
0
100
AcDbLine
 10
469.3572701897726
 20
-363.5204355807921
 30
0.0
 11
468.9328299344897
 21
-363.9655140256577
 31
0.0
  0
LINE
  5
CD
330
1F
100
AcDbEntity
  8
0
100
AcDbLine
 10
459.0648769071991
 20
-369.6097623369337
 30
0.0
 11
459.3195162754996
 21
-369.0256983857892
 31
0.0
  0
LINE
  5
CE
330
1F
100
AcDbEntity
  8
0
100
AcDbLine
 10
469.701042408027
 20
-362.999450188077
 30
0.0
 11
469.3572701897726
 21
-363.5204355807921
 31
0.0
  0
LINE
  5
CF
330
1F
100
AcDbEntity
  8
0
100
AcDbLine
 10
454.7445716034291
 20
-371.1987633514448
 30
0.0
 11
455.3842098685375
 21
-371.3580520246288
 31
0.0
  0
LINE
  5
D0
330
1F
100
AcDbEntity
  8
0
100
AcDbLine
 10
457.8020072690756
 20
-370.9340383630877
 30
0.0
 11
458.2966644336619
 21
-370.5758261745144
 31
0.0
  0
LINE
  5
D1
330
1F
100
AcDbEntity
  8
0
100
AcDbLine
 10
458.7211046889439
 20
-370.1307477296487
 30
0.0
 11
459.0648769071991
 21
-369.6097623369337
 31
0.0
  0
LINE
  5
D2
330
1F
100
AcDbEntity
  8
0
100
AcDbLine
 10
-195.1310956908518
 20
5.247983919202742
 30
0.0
 11
-196.1334396800382
 21
5.11473844289658
 31
0.0
  0
LINE
  5
D3
330
1F
100
AcDbEntity
  8
0
100
AcDbLine
 10
-199.1075427232298
 20
5.445289825920847
 30
0.0
 11
-199.8622104072713
 21
5.773815233735767
 31
0.0
  0
LINE
  5
D4
330
1F
100
AcDbEntity
  8
0
100
AcDbLine
 10
-200.4043738242848
 20
6.180059255452528
 30
0.0
 11
-200.6970854333678
 21
6.636337032340949
 31
0.0
  0
LINE
  5
D5
330
1F
100
AcDbEntity
  8
0
100
AcDbLine
 10
-194.2386650840246
 20
5.494782544518453
 30
0.0
 11
-195.1310956908518
 21
5.247983919202742
 31
0.0
  0
LINE
  5
D6
330
1F
100
AcDbEntity
  8
0
100
AcDbLine
 10
-192.7675033573351
 20
6.716942174505004
 30
0.0
 11
-193.0151796624798
 21
6.255171290384102
 31
0.0
  0
LINE
  5
D7
330
1F
100
AcDbEntity
  8
0
100
AcDbLine
 10
-200.7203974220896
 20
7.111553987940988
 30
0.0
 11
-200.4727211169458
 21
7.573324872062003
 31
0.0
  0
LINE
  5
D8
330
1F
100
AcDbEntity
  8
0
100
AcDbLine
 10
-196.3105118142527
 20
8.724369587833568
 30
0.0
 11
-195.2961006517455
 21
8.611624666809723
 31
0.0
  0
LINE
  5
D9
330
1F
100
AcDbEntity
  8
0
100
AcDbLine
 10
-199.249235695401
 20
8.333713617927584
 30
0.0
 11
-198.3568050885729
 21
8.580512243243318
 31
0.0
  0
LINE
  5
DA
330
1F
100
AcDbEntity
  8
0
100
AcDbLine
 10
-198.1918001276798
 20
5.216871495636518
 30
0.0
 11
-199.1075427232298
 21
5.445289825920847
 31
0.0
  0
LINE
  5
DB
330
1F
100
AcDbEntity
  8
0
100
AcDbLine
 10
-192.7908153460572
 20
7.192159130104908
 30
0.0
 11
-192.7675033573351
 21
6.716942174505004
 31
0.0
  0
LINE
  5
DC
330
1F
100
AcDbEntity
  8
0
100
AcDbLine
 10
-193.0151796624798
 20
6.255171290384102
 30
0.0
 11
-193.5169655305997
 21
5.838315400382894
 31
0.0
  0
LINE
  5
DD
330
1F
100
AcDbEntity
  8
0
100
AcDbLine
 10
-193.5169655305997
 20
5.838315400382894
 30
0.0
 11
-194.2386650840246
 21
5.494782544518453
 31
0.0
  0
LINE
  5
DE
330
1F
100
AcDbEntity
  8
0
100
AcDbLine
 10
-196.1334396800382
 20
5.11473844289658
 30
0.0
 11
-197.1773889651721
 21
5.104126574612493
 31
0.0
  0
LINE
  5
DF
330
1F
100
AcDbEntity
  8
0
100
AcDbLine
 10
-197.1773889651721
 20
5.104126574612493
 30
0.0
 11
-198.1918001276798
 21
5.216871495636518
 31
0.0
  0
LINE
  5
E0
330
1F
100
AcDbEntity
  8
0
100
AcDbLine
 10
-199.8622104072713
 20
5.773815233735767
 30
0.0
 11
-200.4043738242848
 21
6.180059255452528
 31
0.0
  0
LINE
  5
E1
330
1F
100
AcDbEntity
  8
0
100
AcDbLine
 10
-200.6970854333678
 20
6.636337032340949
 30
0.0
 11
-200.7203974220896
 21
7.111553987940988
 31
0.0
  0
LINE
  5
E2
330
1F
100
AcDbEntity
  8
0
100
AcDbLine
 10
-200.4727211169458
 20
7.573324872062003
 30
0.0
 11
-199.9709352488252
 21
7.990180762063031
 31
0.0
  0
LINE
  5
E3
330
1F
100
AcDbEntity
  8
0
100
AcDbLine
 10
-199.9709352488252
 20
7.990180762063031
 30
0.0
 11
-199.249235695401
 21
8.333713617927584
 31
0.0
  0
LINE
  5
E4
330
1F
100
AcDbEntity
  8
0
100
AcDbLine
 10
-198.3568050885729
 20
8.580512243243318
 30
0.0
 11
-197.3544610993868
 21
8.713757719549323
 31
0.0
  0
LINE
  5
E5
330
1F
100
AcDbEntity
  8
0
100
AcDbLine
 10
-197.3544610993868
 20
8.713757719549323
 30
0.0
 11
-196.3105118142527
 21
8.724369587833568
 31
0.0
  0
LINE
  5
E6
330
1F
100
AcDbEntity
  8
0
100
AcDbLine
 10
-195.2961006517455
 20
8.611624666809723
 30
0.0
 11
-194.3803580561958
 21
8.383206336525236
 31
0.0
  0
LINE
  5
E7
330
1F
100
AcDbEntity
  8
0
100
AcDbLine
 10
-194.3803580561958
 20
8.383206336525236
 30
0.0
 11
-193.625690372154
 21
8.054680928710406
 31
0.0
  0
LINE
  5
E8
330
1F
100
AcDbEntity
  8
0
100
AcDbLine
 10
-193.625690372154
 20
8.054680928710406
 30
0.0
 11
-193.08352695514
 21
7.648436906993532
 31
0.0
  0
LINE
  5
E9
330
1F
100
AcDbEntity
  8
0
100
AcDbLine
 10
-193.08352695514
 20
7.648436906993532
 30
0.0
 11
-192.7908153460572
 21
7.192159130104908
 31
0.0
  0
LINE
  5
EA
330
1F
100
AcDbEntity
  8
0
100
AcDbLine
 10
-114.6214791739533
 20
-18.28669235419037
 30
0.0
 11
-113.7057365784034
 21
-18.51511068447422
 31
0.0
  0
LINE
  5
EB
330
1F
100
AcDbEntity
  8
0
100
AcDbLine
 10
-116.6798396215943
 20
-18.18455930145151
 30
0.0
 11
-115.6358903364602
 21
-18.17394743316686
 31
0.0
  0
LINE
  5
EC
330
1F
100
AcDbEntity
  8
0
100
AcDbLine
 10
-117.6821836107805
 20
-18.31780477775779
 30
0.0
 11
-116.6798396215943
 21
-18.18455930145151
 31
0.0
  0
LINE
  5
ED
330
1F
100
AcDbEntity
  8
0
100
AcDbLine
 10
-119.2963137710327
 20
-18.90813625893828
 30
0.0
 11
-118.5746142176085
 21
-18.56460340307366
 31
0.0
  0
LINE
  5
EE
330
1F
100
AcDbEntity
  8
0
100
AcDbLine
 10
-119.7980996391534
 20
-19.32499214893919
 30
0.0
 11
-119.2963137710327
 21
-18.90813625893828
 31
0.0
  0
LINE
  5
EF
330
1F
100
AcDbEntity
  8
0
100
AcDbLine
 10
-120.0224639555753
 20
-20.26197998865964
 30
0.0
 11
-120.0457759442972
 21
-19.78676303305994
 31
0.0
  0
LINE
  5
F0
330
1F
100
AcDbEntity
  8
0
100
AcDbLine
 10
-119.1875889294791
 20
-21.12450178726401
 30
0.0
 11
-119.7297523464923
 21
-20.71825776554763
 31
0.0
  0
LINE
  5
F1
330
1F
100
AcDbEntity
  8
0
100
AcDbLine
 10
-116.5027674873796
 20
-21.79419044638563
 30
0.0
 11
-117.5171786498874
 21
-21.6814455253621
 31
0.0
  0
LINE
  5
F2
330
1F
100
AcDbEntity
  8
0
100
AcDbLine
 10
-115.4588182022457
 20
-21.78357857810116
 30
0.0
 11
-116.5027674873796
 21
-21.79419044638563
 31
0.0
  0
LINE
  5
F3
330
1F
100
AcDbEntity
  8
0
100
AcDbLine
 10
-112.8423440528073
 20
-21.0600016206144
 30
0.0
 11
-113.5640436062323
 21
-21.40353447647884
 31
0.0
  0
LINE
  5
F4
330
1F
100
AcDbEntity
  8
0
100
AcDbLine
 10
-112.3405581846873
 20
-20.6431457306133
 30
0.0
 11
-112.8423440528073
 21
-21.0600016206144
 31
0.0
  0
LINE
  5
F5
330
1F
100
AcDbEntity
  8
0
100
AcDbLine
 10
-118.4329212454374
 20
-21.4530271950783
 30
0.0
 11
-119.1875889294791
 21
-21.12450178726401
 31
0.0
  0
LINE
  5
F6
330
1F
100
AcDbEntity
  8
0
100
AcDbLine
 10
-112.9510688943616
 20
-18.84363609228851
 30
0.0
 11
-112.4089054773476
 21
-19.24988011400487
 31
0.0
  0
LINE
  5
F7
330
1F
100
AcDbEntity
  8
0
100
AcDbLine
 10
-114.4564742130594
 20
-21.65033310179475
 30
0.0
 11
-115.4588182022457
 21
-21.78357857810116
 31
0.0
  0
LINE
  5
F8
330
1F
100
AcDbEntity
  8
0
100
AcDbLine
 10
-112.1161938682648
 20
-19.70615789089304
 30
0.0
 11
-112.0928818795427
 21
-20.18137484649265
 31
0.0
  0
LINE
  5
F9
330
1F
100
AcDbEntity
  8
0
100
AcDbLine
 10
-112.4089054773476
 20
-19.24988011400487
 30
0.0
 11
-112.1161938682648
 21
-19.70615789089304
 31
0.0
  0
LINE
  5
FA
330
1F
100
AcDbEntity
  8
0
100
AcDbLine
 10
-113.7057365784034
 20
-18.51511068447422
 30
0.0
 11
-112.9510688943616
 21
-18.84363609228851
 31
0.0
  0
LINE
  5
FB
330
1F
100
AcDbEntity
  8
0
100
AcDbLine
 10
-115.6358903364602
 20
-18.17394743316686
 30
0.0
 11
-114.6214791739533
 21
-18.28669235419037
 31
0.0
  0
LINE
  5
FC
330
1F
100
AcDbEntity
  8
0
100
AcDbLine
 10
-118.5746142176085
 20
-18.56460340307366
 30
0.0
 11
-117.6821836107805
 21
-18.31780477775779
 31
0.0
  0
LINE
  5
FD
330
1F
100
AcDbEntity
  8
0
100
AcDbLine
 10
-120.0457759442972
 20
-19.78676303305994
 30
0.0
 11
-119.7980996391534
 21
-19.32499214893919
 31
0.0
  0
LINE
  5
FE
330
1F
100
AcDbEntity
  8
0
100
AcDbLine
 10
-119.7297523464923
 20
-20.71825776554763
 30
0.0
 11
-120.0224639555753
 21
-20.26197998865964
 31
0.0
  0
LINE
  5
FF
330
1F
100
AcDbEntity
  8
0
100
AcDbLine
 10
-117.5171786498874
 20
-21.6814455253621
 30
0.0
 11
-118.4329212454374
 21
-21.4530271950783
 31
0.0
  0
LINE
  5
100
330
1F
100
AcDbEntity
  8
0
100
AcDbLine
 10
-113.5640436062323
 20
-21.40353447647884
 30
0.0
 11
-114.4564742130594
 21
-21.65033310179475
 31
0.0
  0
LINE
  5
101
330
1F
100
AcDbEntity
  8
0
100
AcDbLine
 10
-112.0928818795427
 20
-20.18137484649265
 30
0.0
 11
-112.3405581846873
 21
-20.6431457306133
 31
0.0
  0
LINE
  5
102
330
1F
100
AcDbEntity
  8
0
100
AcDbLine
 10
8.895738348424418
 20
-60.05363342240651
 30
0.0
 11
8.919050337146537
 21
-60.52885037800574
 31
0.0
  0
LINE
  5
103
330
1F
100
AcDbEntity
  8
0
100
AcDbLine
 10
8.603026739341697
 20
-59.59735564551877
 30
0.0
 11
8.895738348424418
 21
-60.05363342240651
 31
0.0
  0
LINE
  5
104
330
1F
100
AcDbEntity
  8
0
100
AcDbLine
 10
4.332092595094869
 20
-58.53203483296777
 30
0.0
 11
5.37604188022895
 21
-58.52142296468276
 31
0.0
  0
LINE
  5
105
330
1F
100
AcDbEntity
  8
0
100
AcDbLine
 10
2.437317999080756
 20
-58.91207893459038
 30
0.0
 11
3.329748605908676
 21
-58.66528030927432
 31
0.0
  0
LINE
  5
106
330
1F
100
AcDbEntity
  8
0
100
AcDbLine
 10
0.9661562723919719
 20
-60.13423856457633
 30
0.0
 11
1.213832577535825
 21
-59.67246768045581
 31
0.0
  0
LINE
  5
107
330
1F
100
AcDbEntity
  8
0
100
AcDbLine
 10
1.282179870196856
 20
-61.06573329706321
 30
0.0
 11
0.9894682611139558
 21
-60.60945552017566
 31
0.0
  0
LINE
  5
108
330
1F
100
AcDbEntity
  8
0
100
AcDbLine
 10
3.494753566801778
 20
-62.02892105687616
 30
0.0
 11
2.579010971251919
 21
-61.80050272659287
 31
0.0
  0
LINE
  5
109
330
1F
100
AcDbEntity
  8
0
100
AcDbLine
 10
7.447888610457031
 20
-61.75101000799163
 30
0.0
 11
6.555458003629833
 21
-61.99780863330769
 31
0.0
  0
LINE
  5
10A
330
1F
100
AcDbEntity
  8
0
100
AcDbLine
 10
8.919050337146537
 20
-60.52885037800574
 30
0.0
 11
8.671374032001916
 21
-60.99062126212615
 31
0.0
  0
LINE
  5
10B
330
1F
100
AcDbEntity
  8
0
100
AcDbLine
 10
6.390453042735919
 20
-58.6341678857058
 30
0.0
 11
7.306195638285867
 21
-58.86258621598913
 31
0.0
  0
LINE
  5
10C
330
1F
100
AcDbEntity
  8
0
100
AcDbLine
 10
5.553114014443414
 20
-62.13105410961438
 30
0.0
 11
4.509164729309648
 21
-62.14166597789926
 31
0.0
  0
LINE
  5
10D
330
1F
100
AcDbEntity
  8
0
100
AcDbLine
 10
8.169588163881912
 20
-61.40747715212712
 30
0.0
 11
7.447888610457031
 21
-61.75101000799163
 31
0.0
  0
LINE
  5
10E
330
1F
100
AcDbEntity
  8
0
100
AcDbLine
 10
8.671374032001916
 20
-60.99062126212615
 30
0.0
 11
8.169588163881912
 21
-61.40747715212712
 31
0.0
  0
LINE
  5
10F
330
1F
100
AcDbEntity
  8
0
100
AcDbLine
 10
2.579010971251919
 20
-61.80050272659287
 30
0.0
 11
1.82434328721012
 21
-61.47197731877912
 31
0.0
  0
LINE
  5
110
330
1F
100
AcDbEntity
  8
0
100
AcDbLine
 10
8.060863322327622
 20
-59.19111162380288
 30
0.0
 11
8.603026739341697
 21
-59.59735564551877
 31
0.0
  0
LINE
  5
111
330
1F
100
AcDbEntity
  8
0
100
AcDbLine
 10
6.555458003629833
 20
-61.99780863330769
 30
0.0
 11
5.553114014443414
 21
-62.13105410961438
 31
0.0
  0
LINE
  5
112
330
1F
100
AcDbEntity
  8
0
100
AcDbLine
 10
7.306195638285867
 20
-58.86258621598913
 30
0.0
 11
8.060863322327622
 21
-59.19111162380288
 31
0.0
  0
LINE
  5
113
330
1F
100
AcDbEntity
  8
0
100
AcDbLine
 10
5.37604188022895
 20
-58.52142296468276
 30
0.0
 11
6.390453042735919
 21
-58.6341678857058
 31
0.0
  0
LINE
  5
114
330
1F
100
AcDbEntity
  8
0
100
AcDbLine
 10
3.329748605908676
 20
-58.66528030927432
 30
0.0
 11
4.332092595094869
 21
-58.53203483296777
 31
0.0
  0
LINE
  5
115
330
1F
100
AcDbEntity
  8
0
100
AcDbLine
 10
1.715618445656417
 20
-59.25561179045503
 30
0.0
 11
2.437317999080756
 21
-58.91207893459038
 31
0.0
  0
LINE
  5
116
330
1F
100
AcDbEntity
  8
0
100
AcDbLine
 10
1.213832577535825
 20
-59.67246768045581
 30
0.0
 11
1.715618445656417
 21
-59.25561179045503
 31
0.0
  0
LINE
  5
117
330
1F
100
AcDbEntity
  8
0
100
AcDbLine
 10
0.9894682611139558
 20
-60.60945552017566
 30
0.0
 11
0.9661562723919719
 21
-60.13423856457633
 31
0.0
  0
LINE
  5
118
330
1F
100
AcDbEntity
  8
0
100
AcDbLine
 10
1.82434328721012
 20
-61.47197731877912
 30
0.0
 11
1.282179870196856
 21
-61.06573329706321
 31
0.0
  0
LINE
  5
119
330
1F
100
AcDbEntity
  8
0
100
AcDbLine
 10
4.509164729309648
 20
-62.14166597789926
 30
0.0
 11
3.494753566801778
 21
-62.02892105687616
 31
0.0
  0
LINE
  5
11A
330
1F
100
AcDbEntity
  8
0
100
AcDbLine
 10
129.9076705651125
 20
-100.4011089539151
 30
0.0
 11
129.9309825538346
 21
-100.876325909514
 31
0.0
  0
LINE
  5
11B
330
1F
100
AcDbEntity
  8
0
100
AcDbLine
 10
125.3440248117829
 20
-98.87951036447915
 30
0.0
 11
126.3879740969168
 21
-98.86889849619388
 31
0.0
  0
LINE
  5
11C
330
1F
100
AcDbEntity
  8
0
100
AcDbLine
 10
129.6149589560295
 20
-99.94483117702792
 30
0.0
 11
129.9076705651125
 21
-100.4011089539151
 31
0.0
  0
LINE
  5
11D
330
1F
100
AcDbEntity
  8
0
100
AcDbLine
 10
128.3181278549739
 20
-99.21006174749914
 30
0.0
 11
129.0727955390157
 21
-99.53858715531238
 31
0.0
  0
LINE
  5
11E
330
1F
100
AcDbEntity
  8
0
100
AcDbLine
 10
126.3879740969168
 20
-98.86889849619388
 30
0.0
 11
127.402385259424
 21
-98.98164341721633
 31
0.0
  0
LINE
  5
11F
330
1F
100
AcDbEntity
  8
0
100
AcDbLine
 10
124.3416808225965
 20
-99.01275584078613
 30
0.0
 11
125.3440248117829
 21
-98.87951036447915
 31
0.0
  0
LINE
  5
120
330
1F
100
AcDbEntity
  8
0
100
AcDbLine
 10
122.001400477802
 20
-100.9569310516868
 30
0.0
 11
121.9780884890798
 21
-100.481714096088
 31
0.0
  0
LINE
  5
121
330
1F
100
AcDbEntity
  8
0
100
AcDbLine
 10
122.8362755038982
 20
-101.8194528502893
 30
0.0
 11
122.2941120868847
 21
-101.413208828574
 31
0.0
  0
LINE
  5
122
330
1F
100
AcDbEntity
  8
0
100
AcDbLine
 10
125.5210969459975
 20
-102.4891415094081
 30
0.0
 11
124.5066857834898
 21
-102.3763965883853
 31
0.0
  0
LINE
  5
123
330
1F
100
AcDbEntity
  8
0
100
AcDbLine
 10
121.9780884890798
 20
-100.481714096088
 30
0.0
 11
122.2257647942239
 21
-100.0199432119676
 31
0.0
  0
LINE
  5
124
330
1F
100
AcDbEntity
  8
0
100
AcDbLine
 10
123.4492502157688
 20
-99.2595544661022
 30
0.0
 11
124.3416808225965
 21
-99.01275584078613
 31
0.0
  0
LINE
  5
125
330
1F
100
AcDbEntity
  8
0
100
AcDbLine
 10
122.2941120868847
 20
-101.413208828574
 30
0.0
 11
122.001400477802
 21
-100.9569310516868
 31
0.0
  0
LINE
  5
126
330
1F
100
AcDbEntity
  8
0
100
AcDbLine
 10
124.5066857834898
 20
-102.3763965883853
 30
0.0
 11
123.59094318794
 21
-102.1479782581026
 31
0.0
  0
LINE
  5
127
330
1F
100
AcDbEntity
  8
0
100
AcDbLine
 10
128.4598208271451
 20
-102.0984855394995
 30
0.0
 11
127.5673902203179
 21
-102.3452841648157
 31
0.0
  0
LINE
  5
128
330
1F
100
AcDbEntity
  8
0
100
AcDbLine
 10
129.9309825538346
 20
-100.876325909514
 30
0.0
 11
129.68330624869
 21
-101.3380967936341
 31
0.0
  0
LINE
  5
129
330
1F
100
AcDbEntity
  8
0
100
AcDbLine
 10
127.402385259424
 20
-98.98164341721633
 30
0.0
 11
128.3181278549739
 21
-99.21006174749914
 31
0.0
  0
LINE
  5
12A
330
1F
100
AcDbEntity
  8
0
100
AcDbLine
 10
126.5650462311315
 20
-102.4785296411227
 30
0.0
 11
125.5210969459975
 21
-102.4891415094081
 31
0.0
  0
LINE
  5
12B
330
1F
100
AcDbEntity
  8
0
100
AcDbLine
 10
122.2257647942239
 20
-100.0199432119676
 30
0.0
 11
122.7275506623445
 21
-99.6030873219669
 31
0.0
  0
LINE
  5
12C
330
1F
100
AcDbEntity
  8
0
100
AcDbLine
 10
129.18152038057
 20
-101.754952683635
 30
0.0
 11
128.4598208271451
 21
-102.0984855394995
 31
0.0
  0
LINE
  5
12D
330
1F
100
AcDbEntity
  8
0
100
AcDbLine
 10
122.7275506623445
 20
-99.6030873219669
 30
0.0
 11
123.4492502157688
 21
-99.2595544661022
 31
0.0
  0
LINE
  5
12E
330
1F
100
AcDbEntity
  8
0
100
AcDbLine
 10
129.68330624869
 20
-101.3380967936341
 30
0.0
 11
129.18152038057
 21
-101.754952683635
 31
0.0
  0
LINE
  5
12F
330
1F
100
AcDbEntity
  8
0
100
AcDbLine
 10
123.59094318794
 20
-102.1479782581026
 30
0.0
 11
122.8362755038982
 21
-101.8194528502893
 31
0.0
  0
LINE
  5
130
330
1F
100
AcDbEntity
  8
0
100
AcDbLine
 10
129.0727955390157
 20
-99.53858715531238
 30
0.0
 11
129.6149589560295
 21
-99.94483117702792
 31
0.0
  0
LINE
  5
131
330
1F
100
AcDbEntity
  8
0
100
AcDbLine
 10
127.5673902203179
 20
-102.3452841648157
 30
0.0
 11
126.5650462311315
 21
-102.4785296411227
 31
0.0
  0
LINE
  5
132
330
1F
100
AcDbEntity
  8
0
100
AcDbLine
 10
451.0166137661496
 20
-206.803329831536
 30
0.0
 11
451.7712814501912
 21
-207.131855239351
 31
0.0
  0
LINE
  5
133
330
1F
100
AcDbEntity
  8
0
100
AcDbLine
 10
446.2894290991156
 20
-209.7412463421404
 30
0.0
 11
445.5347614150738
 21
-209.4127209343256
 31
0.0
  0
LINE
  5
134
330
1F
100
AcDbEntity
  8
0
100
AcDbLine
 10
447.040166733772
 20
-206.6060239248182
 30
0.0
 11
448.0425107229586
 21
-206.4727784485119
 31
0.0
  0
LINE
  5
135
330
1F
100
AcDbEntity
  8
0
100
AcDbLine
 10
446.1477361269443
 20
-206.8528225501338
 30
0.0
 11
447.040166733772
 21
-206.6060239248182
 31
0.0
  0
LINE
  5
136
330
1F
100
AcDbEntity
  8
0
100
AcDbLine
 10
444.6765744002553
 20
-208.0749821801205
 30
0.0
 11
444.9242507053993
 21
-207.6132112959994
 31
0.0
  0
LINE
  5
137
330
1F
100
AcDbEntity
  8
0
100
AcDbLine
 10
452.3134448672052
 20
-207.5380992610679
 30
0.0
 11
452.6061564762882
 21
-207.9943770379564
 31
0.0
  0
LINE
  5
138
330
1F
100
AcDbEntity
  8
0
100
AcDbLine
 10
451.1583067383206
 20
-209.6917536235429
 30
0.0
 11
450.2658761314934
 21
-209.9385522488587
 31
0.0
  0
LINE
  5
139
330
1F
100
AcDbEntity
  8
0
100
AcDbLine
 10
452.6294684650101
 20
-208.4695939935564
 30
0.0
 11
452.3817921598655
 21
-208.9313648776773
 31
0.0
  0
LINE
  5
13A
330
1F
100
AcDbEntity
  8
0
100
AcDbLine
 10
448.2195828571732
 20
-210.082409593449
 30
0.0
 11
447.2051716946653
 21
-209.9696646724249
 31
0.0
  0
LINE
  5
13B
330
1F
100
AcDbEntity
  8
0
100
AcDbLine
 10
371.2053848139518
 20
-182.4499037466643
 30
0.0
 11
370.4836852605268
 21
-182.7934366025288
 31
0.0
  0
LINE
  5
13C
330
1F
100
AcDbEntity
  8
0
100
AcDbLine
 10
371.7071706820718
 20
-182.033047856663
 30
0.0
 11
371.2053848139518
 21
-182.4499037466643
 31
0.0
  0
LINE
  5
13D
330
1F
100
AcDbEntity
  8
0
100
AcDbLine
 10
371.9315349984942
 20
-181.0960600169416
 30
0.0
 11
371.9548469872162
 21
-181.571276972542
 31
0.0
  0
LINE
  5
13E
330
1F
100
AcDbEntity
  8
0
100
AcDbLine
 10
250.6268911727199
 20
-140.2923067085449
 30
0.0
 11
250.9196027818029
 21
-140.7485844854342
 31
0.0
  0
LINE
  5
13F
330
1F
100
AcDbEntity
  8
0
100
AcDbLine
 10
447.2051716946653
 20
-209.9696646724249
 30
0.0
 11
446.2894290991156
 21
-209.7412463421404
 31
0.0
  0
LINE
  5
140
330
1F
100
AcDbEntity
  8
0
100
AcDbLine
 10
449.2635321423073
 20
-210.0717977251647
 30
0.0
 11
448.2195828571732
 21
-210.082409593449
 31
0.0
  0
LINE
  5
141
330
1F
100
AcDbEntity
  8
0
100
AcDbLine
 10
450.2658761314934
 20
-209.9385522488587
 30
0.0
 11
449.2635321423073
 21
-210.0717977251647
 31
0.0
  0
LINE
  5
142
330
1F
100
AcDbEntity
  8
0
100
AcDbLine
 10
451.8800062917457
 20
-209.3482207676784
 30
0.0
 11
451.1583067383206
 21
-209.6917536235429
 31
0.0
  0
LINE
  5
143
330
1F
100
AcDbEntity
  8
0
100
AcDbLine
 10
452.3817921598655
 20
-208.9313648776773
 30
0.0
 11
451.8800062917457
 21
-209.3482207676784
 31
0.0
  0
LINE
  5
144
330
1F
100
AcDbEntity
  8
0
100
AcDbLine
 10
452.6061564762882
 20
-207.9943770379564
 30
0.0
 11
452.6294684650101
 21
-208.4695939935564
 31
0.0
  0
LINE
  5
145
330
1F
100
AcDbEntity
  8
0
100
AcDbLine
 10
451.7712814501912
 20
-207.131855239351
 30
0.0
 11
452.3134448672052
 21
-207.5380992610679
 31
0.0
  0
LINE
  5
146
330
1F
100
AcDbEntity
  8
0
100
AcDbLine
 10
449.0864600080925
 20
-206.4621665802278
 30
0.0
 11
450.1008711705997
 21
-206.5749115012517
 31
0.0
  0
LINE
  5
147
330
1F
100
AcDbEntity
  8
0
100
AcDbLine
 10
448.0425107229586
 20
-206.4727784485119
 30
0.0
 11
449.0864600080925
 21
-206.4621665802278
 31
0.0
  0
LINE
  5
148
330
1F
100
AcDbEntity
  8
0
100
AcDbLine
 10
450.1008711705997
 20
-206.5749115012517
 30
0.0
 11
451.0166137661496
 21
-206.803329831536
 31
0.0
  0
LINE
  5
149
330
1F
100
AcDbEntity
  8
0
100
AcDbLine
 10
444.6998863889777
 20
-208.5501991357202
 30
0.0
 11
444.6765744002553
 21
-208.0749821801205
 31
0.0
  0
LINE
  5
14A
330
1F
100
AcDbEntity
  8
0
100
AcDbLine
 10
444.9925979980604
 20
-209.0064769126088
 30
0.0
 11
444.6998863889777
 21
-208.5501991357202
 31
0.0
  0
LINE
  5
14B
330
1F
100
AcDbEntity
  8
0
100
AcDbLine
 10
445.5347614150738
 20
-209.4127209343256
 30
0.0
 11
444.9925979980604
 21
-209.0064769126088
 31
0.0
  0
LINE
  5
14C
330
1F
100
AcDbEntity
  8
0
100
AcDbLine
 10
445.4260365735199
 20
-207.1963554059984
 30
0.0
 11
446.1477361269443
 21
-206.8528225501338
 31
0.0
  0
LINE
  5
14D
330
1F
100
AcDbEntity
  8
0
100
AcDbLine
 10
444.9242507053993
 20
-207.6132112959994
 30
0.0
 11
445.4260365735199
 21
-207.1963554059984
 31
0.0
  0
LINE
  5
14E
330
1F
100
AcDbEntity
  8
0
100
AcDbLine
 10
247.5769784478219
 20
-142.826005172643
 30
0.0
 11
246.5330291626879
 21
-142.8366170409265
 31
0.0
  0
LINE
  5
14F
330
1F
100
AcDbEntity
  8
0
100
AcDbLine
 10
249.4717530438355
 20
-142.445961071022
 30
0.0
 11
248.5793224370081
 21
-142.6927596963376
 31
0.0
  0
LINE
  5
150
330
1F
100
AcDbEntity
  8
0
100
AcDbLine
 10
250.9429147705248
 20
-141.223801441035
 30
0.0
 11
250.6952384653804
 21
-141.6855723251562
 31
0.0
  0
LINE
  5
151
330
1F
100
AcDbEntity
  8
0
100
AcDbLine
 10
243.0133326944922
 20
-141.3044065831931
 30
0.0
 11
242.99002070577
 21
-140.8291896275925
 31
0.0
  0
LINE
  5
152
330
1F
100
AcDbEntity
  8
0
100
AcDbLine
 10
243.3060443035749
 20
-141.7606843600826
 30
0.0
 11
243.0133326944922
 21
-141.3044065831931
 31
0.0
  0
LINE
  5
153
330
1F
100
AcDbEntity
  8
0
100
AcDbLine
 10
366.5305502168714
 20
-183.0713476514095
 30
0.0
 11
365.6148076213217
 21
-182.8429293211246
 31
0.0
  0
LINE
  5
154
330
1F
100
AcDbEntity
  8
0
100
AcDbLine
 10
368.5889106645133
 20
-183.1734807041501
 30
0.0
 11
367.5449613793792
 21
-183.1840925724341
 31
0.0
  0
LINE
  5
155
330
1F
100
AcDbEntity
  8
0
100
AcDbLine
 10
369.5912546536995
 20
-183.0402352278445
 30
0.0
 11
368.5889106645133
 21
-183.1734807041501
 31
0.0
  0
LINE
  5
156
330
1F
100
AcDbEntity
  8
0
100
AcDbLine
 10
250.1934525972604
 20
-142.1024282151577
 30
0.0
 11
249.4717530438355
 21
-142.445961071022
 31
0.0
  0
LINE
  5
157
330
1F
100
AcDbEntity
  8
0
100
AcDbLine
 10
250.6952384653804
 20
-141.6855723251562
 30
0.0
 11
250.1934525972604
 21
-142.1024282151577
 31
0.0
  0
LINE
  5
158
330
1F
100
AcDbEntity
  8
0
100
AcDbLine
 10
250.9196027818029
 20
-140.7485844854342
 30
0.0
 11
250.9429147705248
 21
-141.223801441035
 31
0.0
  0
LINE
  5
159
330
1F
100
AcDbEntity
  8
0
100
AcDbLine
 10
248.4143174761142
 20
-139.3291189487257
 30
0.0
 11
249.3300600716641
 21
-139.5575372790111
 31
0.0
  0
LINE
  5
15A
330
1F
100
AcDbEntity
  8
0
100
AcDbLine
 10
244.461182432459
 20
-139.6070299976051
 30
0.0
 11
245.3536130392867
 21
-139.3602313722899
 31
0.0
  0
LINE
  5
15B
330
1F
100
AcDbEntity
  8
0
100
AcDbLine
 10
242.99002070577
 20
-140.8291896275925
 30
0.0
 11
243.2376970109141
 21
-140.3674187434709
 31
0.0
  0
LINE
  5
15C
330
1F
100
AcDbEntity
  8
0
100
AcDbLine
 10
245.5186180001801
 20
-142.7238721199015
 30
0.0
 11
244.6028754046301
 21
-142.4954537896162
 31
0.0
  0
LINE
  5
15D
330
1F
100
AcDbEntity
  8
0
100
AcDbLine
 10
371.0966599723973
 20
-180.2335382183353
 30
0.0
 11
371.6388233894113
 21
-180.6397822400527
 31
0.0
  0
LINE
  5
15E
330
1F
100
AcDbEntity
  8
0
100
AcDbLine
 10
368.4118385302986
 20
-179.5638495592106
 30
0.0
 11
369.4262496928058
 21
-179.6765944802349
 31
0.0
  0
LINE
  5
15F
330
1F
100
AcDbEntity
  8
0
100
AcDbLine
 10
367.3678892451647
 20
-179.5744614274944
 30
0.0
 11
368.4118385302986
 21
-179.5638495592106
 31
0.0
  0
LINE
  5
160
330
1F
100
AcDbEntity
  8
0
100
AcDbLine
 10
364.7514150957263
 20
-180.2980383849802
 30
0.0
 11
365.4731146491505
 21
-179.9545055291157
 31
0.0
  0
LINE
  5
161
330
1F
100
AcDbEntity
  8
0
100
AcDbLine
 10
364.2496292276056
 20
-180.7148942749813
 30
0.0
 11
364.7514150957263
 21
-180.2980383849802
 31
0.0
  0
LINE
  5
162
330
1F
100
AcDbEntity
  8
0
100
AcDbLine
 10
370.3419922883557
 20
-179.9050128105198
 30
0.0
 11
371.0966599723973
 21
-180.2335382183353
 31
0.0
  0
LINE
  5
163
330
1F
100
AcDbEntity
  8
0
100
AcDbLine
 10
364.8601399372799
 20
-182.5144039133092
 30
0.0
 11
364.3179765202665
 21
-182.108159891592
 31
0.0
  0
LINE
  5
164
330
1F
100
AcDbEntity
  8
0
100
AcDbLine
 10
246.3559570284731
 20
-139.2269858959843
 30
0.0
 11
247.399906313607
 21
-139.2163740277009
 31
0.0
  0
LINE
  5
165
330
1F
100
AcDbEntity
  8
0
100
AcDbLine
 10
243.7394828790347
 20
-139.9505628534696
 30
0.0
 11
244.461182432459
 21
-139.6070299976051
 31
0.0
  0
LINE
  5
166
330
1F
100
AcDbEntity
  8
0
100
AcDbLine
 10
243.2376970109141
 20
-140.3674187434709
 30
0.0
 11
243.7394828790347
 21
-139.9505628534696
 31
0.0
  0
LINE
  5
167
330
1F
100
AcDbEntity
  8
0
100
AcDbLine
 10
249.3300600716641
 20
-139.5575372790111
 30
0.0
 11
250.0847277557059
 21
-139.886062686827
 31
0.0
  0
LINE
  5
168
330
1F
100
AcDbEntity
  8
0
100
AcDbLine
 10
243.8482077205884
 20
-142.1669283818003
 30
0.0
 11
243.3060443035749
 21
-141.7606843600826
 31
0.0
  0
LINE
  5
169
330
1F
100
AcDbEntity
  8
0
100
AcDbLine
 10
245.3536130392867
 20
-139.3602313722899
 30
0.0
 11
246.3559570284731
 21
-139.2269858959843
 31
0.0
  0
LINE
  5
16A
330
1F
100
AcDbEntity
  8
0
100
AcDbLine
 10
244.6028754046301
 20
-142.4954537896162
 30
0.0
 11
243.8482077205884
 21
-142.1669283818003
 31
0.0
  0
LINE
  5
16B
330
1F
100
AcDbEntity
  8
0
100
AcDbLine
 10
246.5330291626879
 20
-142.8366170409265
 30
0.0
 11
245.5186180001801
 21
-142.7238721199015
 31
0.0
  0
LINE
  5
16C
330
1F
100
AcDbEntity
  8
0
100
AcDbLine
 10
248.5793224370081
 20
-142.6927596963376
 30
0.0
 11
247.5769784478219
 21
-142.826005172643
 31
0.0
  0
LINE
  5
16D
330
1F
100
AcDbEntity
  8
0
100
AcDbLine
 10
250.0847277557059
 20
-139.886062686827
 30
0.0
 11
250.6268911727199
 21
-140.2923067085449
 31
0.0
  0
LINE
  5
16E
330
1F
100
AcDbEntity
  8
0
100
AcDbLine
 10
247.399906313607
 20
-139.2163740277009
 30
0.0
 11
248.4143174761142
 21
-139.3291189487257
 31
0.0
  0
LINE
  5
16F
330
1F
100
AcDbEntity
  8
0
100
AcDbLine
 10
366.3655452559782
 20
-179.7077069038002
 30
0.0
 11
367.3678892451647
 21
-179.5744614274944
 31
0.0
  0
LINE
  5
170
330
1F
100
AcDbEntity
  8
0
100
AcDbLine
 10
364.0252649111837
 20
-181.6518821147029
 30
0.0
 11
364.0019529224616
 21
-181.1766651591027
 31
0.0
  0
LINE
  5
171
330
1F
100
AcDbEntity
  8
0
100
AcDbLine
 10
364.3179765202665
 20
-182.108159891592
 30
0.0
 11
364.0252649111837
 21
-181.6518821147029
 31
0.0
  0
LINE
  5
172
330
1F
100
AcDbEntity
  8
0
100
AcDbLine
 10
365.6148076213217
 20
-182.8429293211246
 30
0.0
 11
364.8601399372799
 21
-182.5144039133092
 31
0.0
  0
LINE
  5
173
330
1F
100
AcDbEntity
  8
0
100
AcDbLine
 10
367.5449613793792
 20
-183.1840925724341
 30
0.0
 11
366.5305502168714
 21
-183.0713476514095
 31
0.0
  0
LINE
  5
174
330
1F
100
AcDbEntity
  8
0
100
AcDbLine
 10
370.4836852605268
 20
-182.7934366025288
 30
0.0
 11
369.5912546536995
 21
-183.0402352278445
 31
0.0
  0
LINE
  5
175
330
1F
100
AcDbEntity
  8
0
100
AcDbLine
 10
371.9548469872162
 20
-181.571276972542
 30
0.0
 11
371.7071706820718
 21
-182.033047856663
 31
0.0
  0
LINE
  5
176
330
1F
100
AcDbEntity
  8
0
100
AcDbLine
 10
371.6388233894113
 20
-180.6397822400527
 30
0.0
 11
371.9315349984942
 21
-181.0960600169416
 31
0.0
  0
LINE
  5
177
330
1F
100
AcDbEntity
  8
0
100
AcDbLine
 10
369.4262496928058
 20
-179.6765944802349
 30
0.0
 11
370.3419922883557
 21
-179.9050128105198
 31
0.0
  0
LINE
  5
178
330
1F
100
AcDbEntity
  8
0
100
AcDbLine
 10
365.4731146491505
 20
-179.9545055291157
 30
0.0
 11
366.3655452559782
 21
-179.7077069038002
 31
0.0
  0
LINE
  5
179
330
1F
100
AcDbEntity
  8
0
100
AcDbLine
 10
364.0019529224616
 20
-181.1766651591027
 30
0.0
 11
364.2496292276056
 21
-180.7148942749813
 31
0.0
  0
LINE
  5
17A
330
1F
100
AcDbEntity
  8
0
100
AcDbLine
 10
-415.7131583535228
 20
254.7283940915173
 30
0.0
 11
342.6282835377239
 21
1.884214094513066
 31
0.0
  0
LINE
  5
17B
330
1F
100
AcDbEntity
  8
0
100
AcDbLine
 10
-415.7131583535228
 20
270.755300930871
 30
0.0
 11
342.6282835377239
 21
17.91112093386673
 31
0.0
  0
LINE
  5
17C
330
1F
100
AcDbEntity
  8
0
100
AcDbLine
 10
349.6165050285121
 20
2.375496062591774
 30
0.0
 11
668.7014700534091
 21
200.6848605283195
 31
0.0
  0
LINE
  5
17D
330
1F
100
AcDbEntity
  8
0
100
AcDbLine
 10
349.6165050285121
 20
18.40240290194549
 30
0.0
 11
668.7014700534091
 21
216.7117673676732
 31
0.0
  0
LINE
  5
17E
330
1F
100
AcDbEntity
  8
0
100
AcDbLine
 10
-115.3314173339866
 20
461.2925806392121
 30
0.0
 11
-416.7923990105143
 21
273.9364146010457
 31
0.0
  0
LINE
  5
17F
330
1F
100
AcDbEntity
  8
0
100
AcDbLine
 10
667.6222293964174
 20
219.8928810378478
 30
0.0
 11
-56.39442097686971
 21
461.2925806392121
 31
0.0
  0
LINE
  5
180
330
1F
100
AcDbEntity
  8
0
100
AcDbLine
 10
-416.8150467525178
 20
271.2607727028883
 30
0.0
 11
-416.3077982364555
 21
270.9882987647029
 31
0.0
  0
LINE
  5
181
330
1F
100
AcDbEntity
  8
0
100
AcDbLine
 10
-417.5198685305588
 20
271.8965052121101
 30
0.0
 11
-417.2224137597834
 21
271.5660135327803
 31
0.0
  0
LINE
  5
182
330
1F
100
AcDbEntity
  8
0
100
AcDbLine
 10
-417.7586308212314
 20
272.6002685311252
 30
0.0
 11
-417.7000867411933
 21
272.2441099388941
 31
0.0
  0
LINE
  5
183
330
1F
100
AcDbEntity
  8
0
100
AcDbLine
 10
349.1046589775667
 20
18.13171642428845
 30
0.0
 11
348.5060924288879
 21
17.90081143784124
 31
0.0
  0
LINE
  5
184
330
1F
100
AcDbEntity
  8
0
100
AcDbLine
 10
348.5060924288879
 20
17.90081143784124
 30
0.0
 11
347.8355440774351
 21
17.7153735896997
 31
0.0
  0
LINE
  5
185
330
1F
100
AcDbEntity
  8
0
100
AcDbLine
 10
-417.7586308212314
 20
272.6002685311252
 30
0.0
 11
-417.7586308212314
 21
256.5733616917715
 31
0.0
  0
LINE
  5
186
330
1F
100
AcDbEntity
  8
0
100
AcDbLine
 10
-417.7000867411933
 20
256.2172030995403
 30
0.0
 11
-417.7586308212314
 21
256.5733616917715
 31
0.0
  0
LINE
  5
187
330
1F
100
AcDbEntity
  8
0
100
AcDbLine
 10
-417.5198685305588
 20
255.8695983727563
 30
0.0
 11
-417.7000867411933
 21
256.2172030995403
 31
0.0
  0
LINE
  5
188
330
1F
100
AcDbEntity
  8
0
100
AcDbLine
 10
-417.7000867411933
 20
272.2441099388941
 30
0.0
 11
-417.5198685305588
 21
271.8965052121101
 31
0.0
  0
LINE
  5
189
330
1F
100
AcDbEntity
  8
0
100
AcDbLine
 10
347.8355440774351
 20
1.688466750345944
 30
0.0
 11
348.5060924288879
 21
1.873904598487525
 31
0.0
  0
LINE
  5
18A
330
1F
100
AcDbEntity
  8
0
100
AcDbLine
 10
346.3459123417147
 20
17.49793170508715
 30
0.0
 11
345.5635086345799
 21
17.47128180946546
 31
0.0
  0
LINE
  5
18B
330
1F
100
AcDbEntity
  8
0
100
AcDbLine
 10
345.5635086345799
 20
1.444374970111745
 30
0.0
 11
346.3459123417147
 21
1.471024865733437
 31
0.0
  0
LINE
  5
18C
330
1F
100
AcDbEntity
  8
0
100
AcDbLine
 10
345.5635086345799
 20
17.47128180946546
 30
0.0
 11
344.7815793035638
 21
17.50067549712628
 31
0.0
  0
LINE
  5
18D
330
1F
100
AcDbEntity
  8
0
100
AcDbLine
 10
344.7815793035638
 20
1.473768657772518
 30
0.0
 11
345.5635086345799
 21
1.444374970111745
 31
0.0
  0
LINE
  5
18E
330
1F
100
AcDbEntity
  8
0
100
AcDbLine
 10
344.7815793035638
 20
17.50067549712628
 30
0.0
 11
344.0193780438698
 21
17.58538899792805
 31
0.0
  0
LINE
  5
18F
330
1F
100
AcDbEntity
  8
0
100
AcDbLine
 10
344.0193780438698
 20
1.558482158574289
 30
0.0
 11
344.7815793035638
 21
1.473768657772518
 31
0.0
  0
LINE
  5
190
330
1F
100
AcDbEntity
  8
0
100
AcDbLine
 10
344.0193780438698
 20
17.58538899792805
 30
0.0
 11
343.2956727801119
 21
17.72333638433287
 31
0.0
  0
LINE
  5
191
330
1F
100
AcDbEntity
  8
0
100
AcDbLine
 10
343.2956727801119
 20
1.696429544979156
 30
0.0
 11
344.0193780438698
 21
1.558482158574289
 31
0.0
  0
LINE
  5
192
330
1F
100
AcDbEntity
  8
0
100
AcDbLine
 10
343.2956727801119
 20
17.72333638433287
 30
0.0
 11
342.6282835377239
 21
17.91112093386673
 31
0.0
  0
LINE
  5
193
330
1F
100
AcDbEntity
  8
0
100
AcDbLine
 10
342.6282835377239
 20
1.884214094513066
 30
0.0
 11
343.2956727801119
 21
1.696429544979156
 31
0.0
  0
LINE
  5
194
330
1F
100
AcDbEntity
  8
0
100
AcDbLine
 10
668.2168692793504
 20
219.6598832040161
 30
0.0
 11
667.6222293964174
 21
219.8928810378478
 31
0.0
  0
LINE
  5
195
330
1F
100
AcDbEntity
  8
0
100
AcDbLine
 10
668.7014700534091
 20
216.7117673676732
 30
0.0
 11
669.1139922581307
 21
217.0155701371027
 31
0.0
  0
LINE
  5
196
330
1F
100
AcDbEntity
  8
0
100
AcDbLine
 10
669.1139922581307
 20
200.988663297749
 30
0.0
 11
668.7014700534091
 21
200.6848605283195
 31
0.0
  0
LINE
  5
197
330
1F
100
AcDbEntity
  8
0
100
AcDbLine
 10
669.1139922581307
 20
217.0155701371027
 30
0.0
 11
669.4170329508644
 21
217.3450085658576
 31
0.0
  0
LINE
  5
198
330
1F
100
AcDbEntity
  8
0
100
AcDbLine
 10
669.4170329508644
 20
201.3181017265038
 30
0.0
 11
669.1139922581307
 21
200.988663297749
 31
0.0
  0
LINE
  5
199
330
1F
100
AcDbEntity
  8
0
100
AcDbLine
 10
669.4170329508644
 20
217.3450085658576
 30
0.0
 11
669.6031302640203
 21
217.6919707864789
 31
0.0
  0
LINE
  5
19A
330
1F
100
AcDbEntity
  8
0
100
AcDbLine
 10
669.6031302640203
 20
201.6650639471252
 30
0.0
 11
669.4170329508644
 21
201.3181017265038
 31
0.0
  0
LINE
  5
19B
330
1F
100
AcDbEntity
  8
0
100
AcDbLine
 10
669.6031302640203
 20
217.6919707864789
 30
0.0
 11
669.667701864126
 21
218.0479134375936
 31
0.0
  0
LINE
  5
19C
330
1F
100
AcDbEntity
  8
0
100
AcDbLine
 10
669.667701864126
 20
218.0479134375936
 30
0.0
 11
669.667701864126
 21
202.0210065982399
 31
0.0
  0
LINE
  5
19D
330
1F
100
AcDbEntity
  8
0
100
AcDbLine
 10
669.667701864126
 20
202.0210065982399
 30
0.0
 11
669.6031302640203
 21
201.6650639471252
 31
0.0
  0
LINE
  5
19E
330
1F
100
AcDbEntity
  8
0
100
AcDbLine
 10
669.667701864126
 20
218.0479134375936
 30
0.0
 11
669.6091577840887
 21
218.4040720298247
 31
0.0
  0
LINE
  5
19F
330
1F
100
AcDbEntity
  8
0
100
AcDbLine
 10
669.6091577840887
 20
218.4040720298247
 30
0.0
 11
669.4289395734538
 21
218.7516767566085
 31
0.0
  0
LINE
  5
1A0
330
1F
100
AcDbEntity
  8
0
100
AcDbLine
 10
669.4289395734538
 20
218.7516767566085
 30
0.0
 11
669.1314848026784
 21
219.0821684359383
 31
0.0
  0
LINE
  5
1A1
330
1F
100
AcDbEntity
  8
0
100
AcDbLine
 10
669.1314848026784
 20
219.0821684359383
 30
0.0
 11
668.7241177954135
 21
219.3874092658301
 31
0.0
  0
LINE
  5
1A2
330
1F
100
AcDbEntity
  8
0
100
AcDbLine
 10
668.7241177954135
 20
219.3874092658301
 30
0.0
 11
668.2168692793504
 21
219.6598832040161
 31
0.0
  0
LINE
  5
1A3
330
1F
100
AcDbEntity
  8
0
100
AcDbLine
 10
-416.3077982364555
 20
270.9882987647029
 30
0.0
 11
-415.7131583535228
 21
270.755300930871
 31
0.0
  0
LINE
  5
1A4
330
1F
100
AcDbEntity
  8
0
100
AcDbLine
 10
-415.7131583535228
 20
254.7283940915173
 30
0.0
 11
-416.3077982364555
 21
254.9613919253492
 31
0.0
  0
LINE
  5
1A5
330
1F
100
AcDbEntity
  8
0
100
AcDbLine
 10
-417.5079619079697
 20
273.3031734028613
 30
0.0
 11
-417.6940592211254
 21
272.95621118224
 31
0.0
  0
LINE
  5
1A6
330
1F
100
AcDbEntity
  8
0
100
AcDbLine
 10
-416.3077982364555
 20
254.9613919253492
 30
0.0
 11
-416.8150467525178
 21
255.2338658635346
 31
0.0
  0
LINE
  5
1A7
330
1F
100
AcDbEntity
  8
0
100
AcDbLine
 10
-416.7923990105143
 20
273.9364146010457
 30
0.0
 11
-417.2049212152353
 21
273.632611831616
 31
0.0
  0
LINE
  5
1A8
330
1F
100
AcDbEntity
  8
0
100
AcDbLine
 10
-417.2049212152353
 20
273.632611831616
 30
0.0
 11
-417.5079619079697
 21
273.3031734028613
 31
0.0
  0
LINE
  5
1A9
330
1F
100
AcDbEntity
  8
0
100
AcDbLine
 10
-417.6940592211254
 20
272.95621118224
 30
0.0
 11
-417.7586308212314
 21
272.6002685311252
 31
0.0
  0
LINE
  5
1AA
330
1F
100
AcDbEntity
  8
0
100
AcDbLine
 10
349.1046589775667
 20
2.104809584934694
 30
0.0
 11
349.6165050285121
 21
2.375496062591774
 31
0.0
  0
LINE
  5
1AB
330
1F
100
AcDbEntity
  8
0
100
AcDbLine
 10
349.6165050285121
 20
18.40240290194549
 30
0.0
 11
349.1046589775667
 21
18.13171642428845
 31
0.0
  0
LINE
  5
1AC
330
1F
100
AcDbEntity
  8
0
100
AcDbLine
 10
-417.2224137597834
 20
271.5660135327803
 30
0.0
 11
-416.8150467525178
 21
271.2607727028883
 31
0.0
  0
LINE
  5
1AD
330
1F
100
AcDbEntity
  8
0
100
AcDbLine
 10
-416.8150467525178
 20
255.2338658635346
 30
0.0
 11
-417.2224137597834
 21
255.5391066934265
 31
0.0
  0
LINE
  5
1AE
330
1F
100
AcDbEntity
  8
0
100
AcDbLine
 10
348.5060924288879
 20
1.873904598487525
 30
0.0
 11
349.1046589775667
 21
2.104809584934694
 31
0.0
  0
LINE
  5
1AF
330
1F
100
AcDbEntity
  8
0
100
AcDbLine
 10
347.8355440774351
 20
17.7153735896997
 30
0.0
 11
347.1095250490458
 21
17.5799689751169
 31
0.0
  0
LINE
  5
1B0
330
1F
100
AcDbEntity
  8
0
100
AcDbLine
 10
347.1095250490458
 20
1.553062135763146
 30
0.0
 11
347.8355440774351
 21
1.688466750345944
 31
0.0
  0
LINE
  5
1B1
330
1F
100
AcDbEntity
  8
0
100
AcDbLine
 10
347.1095250490458
 20
17.5799689751169
 30
0.0
 11
346.3459123417147
 21
17.49793170508715
 31
0.0
  0
LINE
  5
1B2
330
1F
100
AcDbEntity
  8
0
100
AcDbLine
 10
346.3459123417147
 20
1.471024865733437
 30
0.0
 11
347.1095250490458
 21
1.553062135763146
 31
0.0
  0
LINE
  5
1B3
330
1F
100
AcDbEntity
  8
0
100
AcDbLine
 10
-417.2224137597834
 20
255.5391066934265
 30
0.0
 11
-417.5198685305588
 21
255.8695983727563
 31
0.0
  0
LINE
  5
1B4
330
1F
100
AcDbEntity
  8
0
100
AcDbLine
 10
185.5637918744399
 20
-261.6175857031735
 30
0.0
 11
327.9702299688586
 21
-173.1128508209118
 31
0.0
  0
LINE
  5
1B5
330
1F
100
AcDbEntity
  8
0
100
AcDbLine
 10
200.0852237404419
 20
-266.4592827669462
 30
0.0
 11
342.4916618348724
 21
-177.954547884688
 31
0.0
  0
LINE
  5
1B6
330
1F
100
AcDbEntity
  8
0
100
AcDbLine
 10
338.6063954696851
 20
-166.5025386720873
 30
0.0
 11
481.0128335641596
 21
-77.99780379071366
 31
0.0
  0
LINE
  5
1B7
330
1F
100
AcDbEntity
  8
0
100
AcDbLine
 10
338.6063954696851
 20
-166.5025386720873
 30
0.0
 11
353.127827335699
 21
-171.3442357358635
 31
0.0
  0
LINE
  5
1B8
330
1F
100
AcDbEntity
  8
0
100
AcDbLine
 10
327.9702299688586
 20
-173.1128508209118
 30
0.0
 11
342.4916618348724
 21
-177.954547884688
 31
0.0
  0
LINE
  5
1B9
330
1F
100
AcDbEntity
  8
0
100
AcDbLine
 10
353.127827335699
 20
-171.3442357358635
 30
0.0
 11
495.5342654301614
 21
-82.83950085448635
 31
0.0
  0
LINE
  5
1BA
330
1F
100
AcDbEntity
  8
0
100
AcDbLine
 10
495.5342654301614
 20
-82.83950085448635
 30
0.0
 11
481.2208692267524
 21
-214.0526759600177
 31
0.0
  0
LINE
  5
1BB
330
1F
100
AcDbEntity
  8
0
100
AcDbLine
 10
200.0852237404419
 20
-266.4592827669462
 30
0.0
 11
224.6724392529145
 21
-461.2925806392121
 31
0.0
  0
LINE
  5
1BC
330
1F
100
AcDbEntity
  8
0
100
AcDbLine
 10
200.0852237404419
 20
-266.4592827669462
 30
0.0
 11
185.5637918744399
 21
-261.6175857031735
 31
0.0
  0
LINE
  5
1BD
330
1F
100
AcDbEntity
  8
0
100
AcDbLine
 10
495.5342654301614
 20
-82.83950085448635
 30
0.0
 11
481.0128335641596
 21
-77.99780379071366
 31
0.0
  0
LINE
  5
1BE
330
1F
100
AcDbEntity
  8
0
100
AcDbLine
 10
442.2612033054334
 20
-367.0365920041415
 30
0.0
 11
290.6008471841908
 21
-461.2925806392121
 31
0.0
  0
LINE
  5
1BF
330
1F
100
AcDbEntity
  8
0
100
AcDbLine
 10
225.5963968355253
 20
-246.7523887246047
 30
0.0
 11
224.8746972821016
 21
-247.095921580471
 31
0.0
  0
LINE
  5
1C0
330
1F
100
AcDbEntity
  8
0
100
AcDbLine
 10
224.8746972821016
 20
-247.095921580471
 30
0.0
 11
223.9822666752733
 21
-247.3427202057879
 31
0.0
  0
LINE
  5
1C1
330
1F
100
AcDbEntity
  8
0
100
AcDbLine
 10
223.9822666752733
 20
-247.3427202057879
 30
0.0
 11
222.9799226860871
 21
-247.4759656820945
 31
0.0
  0
LINE
  5
1C2
330
1F
100
AcDbEntity
  8
0
100
AcDbLine
 10
222.9799226860871
 20
-247.4759656820945
 30
0.0
 11
221.935973400954
 21
-247.4865775503806
 31
0.0
  0
LINE
  5
1C3
330
1F
100
AcDbEntity
  8
0
100
AcDbLine
 10
221.935973400954
 20
-247.4865775503806
 30
0.0
 11
220.9215622384464
 21
-247.3738326293573
 31
0.0
  0
LINE
  5
1C4
330
1F
100
AcDbEntity
  8
0
100
AcDbLine
 10
220.9215622384464
 20
-247.3738326293573
 30
0.0
 11
220.0058196428977
 21
-247.1454142990732
 31
0.0
  0
LINE
  5
1C5
330
1F
100
AcDbEntity
  8
0
100
AcDbLine
 10
220.0058196428977
 20
-247.1454142990732
 30
0.0
 11
219.2511519588562
 21
-246.8168888912584
 31
0.0
  0
LINE
  5
1C6
330
1F
100
AcDbEntity
  8
0
100
AcDbLine
 10
219.2511519588562
 20
-246.8168888912584
 30
0.0
 11
218.7089885418425
 21
-246.4106448695415
 31
0.0
  0
LINE
  5
1C7
330
1F
100
AcDbEntity
  8
0
100
AcDbLine
 10
218.7089885418425
 20
-246.4106448695415
 30
0.0
 11
218.4162769327586
 21
-245.9543670926519
 31
0.0
  0
LINE
  5
1C8
330
1F
100
AcDbEntity
  8
0
100
AcDbLine
 10
218.4162769327586
 20
-245.9543670926519
 30
0.0
 11
218.3929649440368
 21
-245.4791501370508
 31
0.0
  0
LINE
  5
1C9
330
1F
100
AcDbEntity
  8
0
100
AcDbLine
 10
218.3929649440368
 20
-245.4791501370508
 30
0.0
 11
218.6406412491827
 21
-245.017379252929
 31
0.0
  0
LINE
  5
1CA
330
1F
100
AcDbEntity
  8
0
100
AcDbLine
 10
218.6406412491827
 20
-245.017379252929
 30
0.0
 11
219.1424271173027
 21
-244.6005233629264
 31
0.0
  0
LINE
  5
1CB
330
1F
100
AcDbEntity
  8
0
100
AcDbLine
 10
219.1424271173027
 20
-244.6005233629264
 30
0.0
 11
219.8641266707276
 21
-244.2569905070605
 31
0.0
  0
LINE
  5
1CC
330
1F
100
AcDbEntity
  8
0
100
AcDbLine
 10
219.8641266707276
 20
-244.2569905070605
 30
0.0
 11
220.7565572775557
 21
-244.0101918817437
 31
0.0
  0
LINE
  5
1CD
330
1F
100
AcDbEntity
  8
0
100
AcDbLine
 10
220.7565572775557
 20
-244.0101918817437
 30
0.0
 11
221.7589012667408
 21
-243.8769464054366
 31
0.0
  0
LINE
  5
1CE
330
1F
100
AcDbEntity
  8
0
100
AcDbLine
 10
221.7589012667408
 20
-243.8769464054366
 30
0.0
 11
222.8028505518749
 21
-243.8663345371511
 31
0.0
  0
LINE
  5
1CF
330
1F
100
AcDbEntity
  8
0
100
AcDbLine
 10
222.8028505518749
 20
-243.8663345371511
 30
0.0
 11
223.8172617143827
 21
-243.9790794581743
 31
0.0
  0
LINE
  5
1D0
330
1F
100
AcDbEntity
  8
0
100
AcDbLine
 10
223.8172617143827
 20
-243.9790794581743
 30
0.0
 11
224.7330043099324
 21
-244.2074977884582
 31
0.0
  0
LINE
  5
1D1
330
1F
100
AcDbEntity
  8
0
100
AcDbLine
 10
224.7330043099324
 20
-244.2074977884582
 30
0.0
 11
225.487671993973
 21
-244.5360231962731
 31
0.0
  0
LINE
  5
1D2
330
1F
100
AcDbEntity
  8
0
100
AcDbLine
 10
225.487671993973
 20
-244.5360231962731
 30
0.0
 11
226.0298354109865
 21
-244.9422672179901
 31
0.0
  0
LINE
  5
1D3
330
1F
100
AcDbEntity
  8
0
100
AcDbLine
 10
226.0298354109865
 20
-244.9422672179901
 30
0.0
 11
226.3225470200694
 21
-245.3985449948792
 31
0.0
  0
LINE
  5
1D4
330
1F
100
AcDbEntity
  8
0
100
AcDbLine
 10
226.3225470200694
 20
-245.3985449948792
 30
0.0
 11
226.3458590087921
 21
-245.8737619504809
 31
0.0
  0
LINE
  5
1D5
330
1F
100
AcDbEntity
  8
0
100
AcDbLine
 10
226.3458590087921
 20
-245.8737619504809
 30
0.0
 11
226.0981827036464
 21
-246.3355328346024
 31
0.0
  0
LINE
  5
1D6
330
1F
100
AcDbEntity
  8
0
100
AcDbLine
 10
226.0981827036464
 20
-246.3355328346024
 30
0.0
 11
225.5963968355253
 21
-246.7523887246047
 31
0.0
  0
LINE
  5
1D7
330
1F
100
AcDbEntity
  8
0
100
AcDbLine
 10
283.072075013217
 20
-210.6187638231801
 30
0.0
 11
282.0697310240317
 21
-210.7520092994868
 31
0.0
  0
LINE
  5
1D8
330
1F
100
AcDbEntity
  8
0
100
AcDbLine
 10
280.8487096046846
 20
-207.1529900228287
 30
0.0
 11
281.8926588898188
 21
-207.1423781545433
 31
0.0
  0
LINE
  5
1D9
330
1F
100
AcDbEntity
  8
0
100
AcDbLine
 10
281.8926588898188
 20
-207.1423781545433
 30
0.0
 11
282.9070700523267
 21
-207.2551230755663
 31
0.0
  0
LINE
  5
1DA
330
1F
100
AcDbEntity
  8
0
100
AcDbLine
 10
280.0113705763902
 20
-210.6498762467495
 30
0.0
 11
279.0956279808411
 21
-210.4214579164652
 31
0.0
  0
LINE
  5
1DB
330
1F
100
AcDbEntity
  8
0
100
AcDbLine
 10
282.9070700523267
 20
-207.2551230755663
 30
0.0
 11
283.8228126478758
 21
-207.48354140585
 31
0.0
  0
LINE
  5
1DC
330
1F
100
AcDbEntity
  8
0
100
AcDbLine
 10
279.0956279808411
 20
-210.4214579164652
 30
0.0
 11
278.3409602968001
 21
-210.0929325086505
 31
0.0
  0
LINE
  5
1DD
330
1F
100
AcDbEntity
  8
0
100
AcDbLine
 10
278.3409602968001
 20
-210.0929325086505
 30
0.0
 11
277.7987968797864
 21
-209.6866884869336
 31
0.0
  0
LINE
  5
1DE
330
1F
100
AcDbEntity
  8
0
100
AcDbLine
 10
277.7987968797864
 20
-209.6866884869336
 30
0.0
 11
277.506085270703
 21
-209.2304107100443
 31
0.0
  0
LINE
  5
1DF
330
1F
100
AcDbEntity
  8
0
100
AcDbLine
 10
277.506085270703
 20
-209.2304107100443
 30
0.0
 11
277.4827732819809
 21
-208.7551937544428
 31
0.0
  0
LINE
  5
1E0
330
1F
100
AcDbEntity
  8
0
100
AcDbLine
 10
277.4827732819809
 20
-208.7551937544428
 30
0.0
 11
277.7304495871267
 21
-208.2934228703211
 31
0.0
  0
LINE
  5
1E1
330
1F
100
AcDbEntity
  8
0
100
AcDbLine
 10
284.6862051734702
 20
-210.0284323419974
 30
0.0
 11
283.9645056200453
 21
-210.3719651978633
 31
0.0
  0
LINE
  5
1E2
330
1F
100
AcDbEntity
  8
0
100
AcDbLine
 10
285.4123553580134
 20
-208.6745886122713
 30
0.0
 11
285.4356673467359
 21
-209.149805567873
 31
0.0
  0
LINE
  5
1E3
330
1F
100
AcDbEntity
  8
0
100
AcDbLine
 10
285.4356673467359
 20
-209.149805567873
 30
0.0
 11
285.1879910415902
 21
-209.6115764519948
 31
0.0
  0
LINE
  5
1E4
330
1F
100
AcDbEntity
  8
0
100
AcDbLine
 10
285.1879910415902
 20
-209.6115764519948
 30
0.0
 11
284.6862051734702
 21
-210.0284323419974
 31
0.0
  0
LINE
  5
1E5
330
1F
100
AcDbEntity
  8
0
100
AcDbLine
 10
281.025781738898
 20
-210.7626211677727
 30
0.0
 11
280.0113705763902
 21
-210.6498762467495
 31
0.0
  0
LINE
  5
1E6
330
1F
100
AcDbEntity
  8
0
100
AcDbLine
 10
277.7304495871267
 20
-208.2934228703211
 30
0.0
 11
278.2322354552478
 21
-207.8765669803188
 31
0.0
  0
LINE
  5
1E7
330
1F
100
AcDbEntity
  8
0
100
AcDbLine
 10
278.2322354552478
 20
-207.8765669803188
 30
0.0
 11
278.9539350086715
 21
-207.5330341244525
 31
0.0
  0
LINE
  5
1E8
330
1F
100
AcDbEntity
  8
0
100
AcDbLine
 10
278.9539350086715
 20
-207.5330341244525
 30
0.0
 11
279.8463656154997
 21
-207.2862354991357
 31
0.0
  0
LINE
  5
1E9
330
1F
100
AcDbEntity
  8
0
100
AcDbLine
 10
283.9645056200453
 20
-210.3719651978633
 30
0.0
 11
283.072075013217
 21
-210.6187638231801
 31
0.0
  0
LINE
  5
1EA
330
1F
100
AcDbEntity
  8
0
100
AcDbLine
 10
282.0697310240317
 20
-210.7520092994868
 30
0.0
 11
281.025781738898
 21
-210.7626211677727
 31
0.0
  0
LINE
  5
1EB
330
1F
100
AcDbEntity
  8
0
100
AcDbLine
 10
279.8463656154997
 20
-207.2862354991357
 30
0.0
 11
280.8487096046846
 21
-207.1529900228287
 31
0.0
  0
LINE
  5
1EC
330
1F
100
AcDbEntity
  8
0
100
AcDbLine
 10
283.8228126478758
 20
-207.48354140585
 30
0.0
 11
284.5774803319167
 21
-207.8120668136654
 31
0.0
  0
LINE
  5
1ED
330
1F
100
AcDbEntity
  8
0
100
AcDbLine
 10
284.5774803319167
 20
-207.8120668136654
 30
0.0
 11
285.1196437489305
 21
-208.2183108353821
 31
0.0
  0
LINE
  5
1EE
330
1F
100
AcDbEntity
  8
0
100
AcDbLine
 10
285.1196437489305
 20
-208.2183108353821
 30
0.0
 11
285.4123553580134
 21
-208.6745886122713
 31
0.0
  0
LINE
  5
1EF
330
1F
100
AcDbEntity
  8
0
100
AcDbLine
 10
402.1441222952537
 20
-136.9240524346584
 30
0.0
 11
401.2516916884259
 21
-137.1708510599755
 31
0.0
  0
LINE
  5
1F0
330
1F
100
AcDbEntity
  8
0
100
AcDbLine
 10
400.2493476992408
 20
-137.304096536282
 30
0.0
 11
399.2053984141065
 21
-137.3147084045677
 31
0.0
  0
LINE
  5
1F1
330
1F
100
AcDbEntity
  8
0
100
AcDbLine
 10
398.0259822907082
 20
-133.8383227359307
 30
0.0
 11
399.0283262798947
 21
-133.7050772596245
 31
0.0
  0
LINE
  5
1F2
330
1F
100
AcDbEntity
  8
0
100
AcDbLine
 10
400.072275565028
 20
-133.6944653913384
 30
0.0
 11
401.0866867275358
 21
-133.8072103123615
 31
0.0
  0
LINE
  5
1F3
330
1F
100
AcDbEntity
  8
0
100
AcDbLine
 10
398.1909872515985
 20
-137.2019634835446
 30
0.0
 11
397.2752446560502
 21
-136.9735451532603
 31
0.0
  0
LINE
  5
1F4
330
1F
100
AcDbEntity
  8
0
100
AcDbLine
 10
401.2516916884259
 20
-137.1708510599755
 30
0.0
 11
400.2493476992408
 21
-137.304096536282
 31
0.0
  0
LINE
  5
1F5
330
1F
100
AcDbEntity
  8
0
100
AcDbLine
 10
403.6152840219441
 20
-135.7018928046681
 30
0.0
 11
403.3676077167992
 21
-136.1636636887901
 31
0.0
  0
LINE
  5
1F6
330
1F
100
AcDbEntity
  8
0
100
AcDbLine
 10
403.3676077167992
 20
-136.1636636887901
 30
0.0
 11
402.8658218486797
 21
-136.5805195787929
 31
0.0
  0
LINE
  5
1F7
330
1F
100
AcDbEntity
  8
0
100
AcDbLine
 10
402.0024293230849
 20
-134.0356286426452
 30
0.0
 11
402.7570970071257
 21
-134.3641540504607
 31
0.0
  0
LINE
  5
1F8
330
1F
100
AcDbEntity
  8
0
100
AcDbLine
 10
399.2053984141065
 20
-137.3147084045677
 30
0.0
 11
398.1909872515985
 21
-137.2019634835446
 31
0.0
  0
LINE
  5
1F9
330
1F
100
AcDbEntity
  8
0
100
AcDbLine
 10
395.9100662623352
 20
-134.845510107116
 30
0.0
 11
396.4118521304575
 21
-134.4286542171142
 31
0.0
  0
LINE
  5
1FA
330
1F
100
AcDbEntity
  8
0
100
AcDbLine
 10
396.4118521304575
 20
-134.4286542171142
 30
0.0
 11
397.1335516838806
 21
-134.0851213612477
 31
0.0
  0
LINE
  5
1FB
330
1F
100
AcDbEntity
  8
0
100
AcDbLine
 10
397.1335516838806
 20
-134.0851213612477
 30
0.0
 11
398.0259822907082
 21
-133.8383227359307
 31
0.0
  0
LINE
  5
1FC
330
1F
100
AcDbEntity
  8
0
100
AcDbLine
 10
402.7570970071257
 20
-134.3641540504607
 30
0.0
 11
403.2992604241396
 21
-134.7703980721773
 31
0.0
  0
LINE
  5
1FD
330
1F
100
AcDbEntity
  8
0
100
AcDbLine
 10
399.0283262798947
 20
-133.7050772596245
 30
0.0
 11
400.072275565028
 21
-133.6944653913384
 31
0.0
  0
LINE
  5
1FE
330
1F
100
AcDbEntity
  8
0
100
AcDbLine
 10
401.0866867275358
 20
-133.8072103123615
 30
0.0
 11
402.0024293230849
 21
-134.0356286426452
 31
0.0
  0
LINE
  5
1FF
330
1F
100
AcDbEntity
  8
0
100
AcDbLine
 10
397.2752446560502
 20
-136.9735451532603
 30
0.0
 11
396.5205769720087
 21
-136.6450197454455
 31
0.0
  0
LINE
  5
200
330
1F
100
AcDbEntity
  8
0
100
AcDbLine
 10
396.5205769720087
 20
-136.6450197454455
 30
0.0
 11
395.978413554995
 21
-136.2387757237287
 31
0.0
  0
LINE
  5
201
330
1F
100
AcDbEntity
  8
0
100
AcDbLine
 10
395.978413554995
 20
-136.2387757237287
 30
0.0
 11
395.6857019459119
 21
-135.7824979468396
 31
0.0
  0
LINE
  5
202
330
1F
100
AcDbEntity
  8
0
100
AcDbLine
 10
395.6857019459119
 20
-135.7824979468396
 30
0.0
 11
395.66238995719
 21
-135.307280991238
 31
0.0
  0
LINE
  5
203
330
1F
100
AcDbEntity
  8
0
100
AcDbLine
 10
395.66238995719
 20
-135.307280991238
 30
0.0
 11
395.9100662623352
 21
-134.845510107116
 31
0.0
  0
LINE
  5
204
330
1F
100
AcDbEntity
  8
0
100
AcDbLine
 10
402.8658218486797
 20
-136.5805195787929
 30
0.0
 11
402.1441222952537
 21
-136.9240524346584
 31
0.0
  0
LINE
  5
205
330
1F
100
AcDbEntity
  8
0
100
AcDbLine
 10
403.5919720332237
 20
-135.2266758490669
 30
0.0
 11
403.6152840219441
 21
-135.7018928046681
 31
0.0
  0
LINE
  5
206
330
1F
100
AcDbEntity
  8
0
100
AcDbLine
 10
403.2992604241396
 20
-134.7703980721773
 30
0.0
 11
403.5919720332237
 21
-135.2266758490669
 31
0.0
  0
LINE
  5
207
330
1F
100
AcDbEntity
  8
0
100
AcDbLine
 10
459.3391560371867
 20
-100.5801401535967
 30
0.0
 11
458.2952067520525
 21
-100.5907520218824
 31
0.0
  0
LINE
  5
208
330
1F
100
AcDbEntity
  8
0
100
AcDbLine
 10
457.1157906286541
 20
-97.11436635324543
 30
0.0
 11
458.1181346178411
 21
-96.98112087693956
 31
0.0
  0
LINE
  5
209
330
1F
100
AcDbEntity
  8
0
100
AcDbLine
 10
459.1620839029752
 20
-96.97050900865354
 30
0.0
 11
460.1764950654818
 21
-97.08325392967619
 31
0.0
  0
LINE
  5
20A
330
1F
100
AcDbEntity
  8
0
100
AcDbLine
 10
457.2807955895443
 20
-100.4780071008595
 30
0.0
 11
456.3650529939962
 21
-100.2495887705751
 31
0.0
  0
LINE
  5
20B
330
1F
100
AcDbEntity
  8
0
100
AcDbLine
 10
460.3415000263728
 20
-100.4468946772907
 30
0.0
 11
459.3391560371867
 21
-100.5801401535967
 31
0.0
  0
LINE
  5
20C
330
1F
100
AcDbEntity
  8
0
100
AcDbLine
 10
462.7050923598899
 20
-98.97793642198296
 30
0.0
 11
462.4574160547448
 21
-99.43970730610492
 31
0.0
  0
LINE
  5
20D
330
1F
100
AcDbEntity
  8
0
100
AcDbLine
 10
462.4574160547448
 20
-99.43970730610492
 30
0.0
 11
461.9556301866261
 21
-99.85656319610797
 31
0.0
  0
LINE
  5
20E
330
1F
100
AcDbEntity
  8
0
100
AcDbLine
 10
461.0922376610309
 20
-97.31167225995992
 30
0.0
 11
461.8469053450714
 21
-97.64019766777554
 31
0.0
  0
LINE
  5
20F
330
1F
100
AcDbEntity
  8
0
100
AcDbLine
 10
455.6103853099547
 20
-99.92106336276026
 30
0.0
 11
455.0682218929409
 21
-99.51481934104335
 31
0.0
  0
LINE
  5
210
330
1F
100
AcDbEntity
  8
0
100
AcDbLine
 10
455.0682218929409
 20
-99.51481934104335
 30
0.0
 11
454.7755102838576
 21
-99.05854156415444
 31
0.0
  0
LINE
  5
211
330
1F
100
AcDbEntity
  8
0
100
AcDbLine
 10
454.7755102838576
 20
-99.05854156415444
 30
0.0
 11
454.752198295137
 21
-98.58332460855311
 31
0.0
  0
LINE
  5
212
330
1F
100
AcDbEntity
  8
0
100
AcDbLine
 10
454.752198295137
 20
-98.58332460855311
 30
0.0
 11
454.9998746002811
 21
-98.12155372443071
 31
0.0
  0
LINE
  5
213
330
1F
100
AcDbEntity
  8
0
100
AcDbLine
 10
461.2339306331994
 20
-100.2000960519733
 30
0.0
 11
460.3415000263728
 21
-100.4468946772907
 31
0.0
  0
LINE
  5
214
330
1F
100
AcDbEntity
  8
0
100
AcDbLine
 10
458.1181346178411
 20
-96.98112087693956
 30
0.0
 11
459.1620839029752
 21
-96.97050900865354
 31
0.0
  0
LINE
  5
215
330
1F
100
AcDbEntity
  8
0
100
AcDbLine
 10
460.1764950654818
 20
-97.08325392967619
 30
0.0
 11
461.0922376610309
 21
-97.31167225995992
 31
0.0
  0
LINE
  5
216
330
1F
100
AcDbEntity
  8
0
100
AcDbLine
 10
456.3650529939962
 20
-100.2495887705751
 30
0.0
 11
455.6103853099547
 21
-99.92106336276026
 31
0.0
  0
LINE
  5
217
330
1F
100
AcDbEntity
  8
0
100
AcDbLine
 10
461.9556301866261
 20
-99.85656319610797
 30
0.0
 11
461.2339306331994
 21
-100.2000960519733
 31
0.0
  0
LINE
  5
218
330
1F
100
AcDbEntity
  8
0
100
AcDbLine
 10
462.6817803711702
 20
-98.50271946638176
 30
0.0
 11
462.7050923598899
 21
-98.97793642198296
 31
0.0
  0
LINE
  5
219
330
1F
100
AcDbEntity
  8
0
100
AcDbLine
 10
462.3890687620867
 20
-98.0464416894924
 30
0.0
 11
462.6817803711702
 21
-98.50271946638176
 31
0.0
  0
LINE
  5
21A
330
1F
100
AcDbEntity
  8
0
100
AcDbLine
 10
458.2952067520525
 20
-100.5907520218824
 30
0.0
 11
457.2807955895443
 21
-100.4780071008595
 31
0.0
  0
LINE
  5
21B
330
1F
100
AcDbEntity
  8
0
100
AcDbLine
 10
454.9998746002811
 20
-98.12155372443071
 30
0.0
 11
455.5016604684041
 21
-97.70469783442908
 31
0.0
  0
LINE
  5
21C
330
1F
100
AcDbEntity
  8
0
100
AcDbLine
 10
455.5016604684041
 20
-97.70469783442908
 30
0.0
 11
456.2233600218266
 21
-97.36116497856234
 31
0.0
  0
LINE
  5
21D
330
1F
100
AcDbEntity
  8
0
100
AcDbLine
 10
456.2233600218266
 20
-97.36116497856234
 30
0.0
 11
457.1157906286541
 21
-97.11436635324543
 31
0.0
  0
LINE
  5
21E
330
1F
100
AcDbEntity
  8
0
100
AcDbLine
 10
461.8469053450714
 20
-97.64019766777554
 30
0.0
 11
462.3890687620867
 21
-98.0464416894924
 31
0.0
  0
LINE
  5
21F
330
1F
100
AcDbEntity
  8
0
100
AcDbLine
 10
-966.9984513180857
 20
441.0446891264601
 30
0.0
 11
-934.4190631859263
 21
461.2925806392121
 31
0.0
  0
LINE
  5
220
330
1F
100
AcDbEntity
  8
0
100
AcDbLine
 10
-966.9984513180857
 20
457.0715959658139
 30
0.0
 11
-960.2067763484756
 21
461.2925806392121
 31
0.0
  0
LINE
  5
221
330
1F
100
AcDbEntity
  8
0
100
AcDbLine
 10
-243.625194387302
 20
-118.5185391516807
 30
0.0
 11
-223.7117735086186
 21
-106.1424692278039
 31
0.0
  0
LINE
  5
222
330
1F
100
AcDbEntity
  8
0
100
AcDbLine
 10
-223.7117735086186
 20
-106.1424692278039
 30
0.0
 11
-101.2187562928833
 21
-30.01380426941905
 31
0.0
  0
LINE
  5
223
330
1F
100
AcDbEntity
  8
0
100
AcDbLine
 10
188.1763968224623
 20
-282.3203138263459
 30
0.0
 11
13.07221704394408
 21
-223.9375454524918
 31
0.0
  0
LINE
  5
224
330
1F
100
AcDbEntity
  8
0
100
AcDbLine
 10
13.07221704394408
 20
-223.9375454524918
 30
0.0
 11
-86.6973244269395
 21
-190.6726511602607
 31
0.0
  0
LINE
  5
225
330
1F
100
AcDbEntity
  8
0
100
AcDbLine
 10
454.7445716034291
 20
-371.1987633514448
 30
0.0
 11
442.2612033054334
 21
-367.0365920041415
 31
0.0
  0
LINE
  5
226
330
1F
100
AcDbEntity
  8
0
100
AcDbLine
 10
442.2612033054334
 20
-367.0365920041415
 30
0.0
 11
342.4916618348216
 21
-333.7716977120108
 31
0.0
  0
LINE
  5
227
330
1F
100
AcDbEntity
  8
0
100
AcDbLine
 10
185.5637918744399
 20
-261.6175857031735
 30
0.0
 11
188.1763968224623
 21
-282.3203138263459
 31
0.0
  0
LINE
  5
228
330
1F
100
AcDbEntity
  8
0
100
AcDbLine
 10
188.1763968224623
 20
-282.3203138263459
 30
0.0
 11
210.7620110010456
 21
-461.2925806392121
 31
0.0
  0
LINE
  5
229
330
1F
100
AcDbEntity
  8
0
100
AcDbLine
 10
52.03188296503486
 20
-70.9536294083005
 30
0.0
 11
338.6063954696851
 21
-166.5025386720873
 31
0.0
  0
LINE
  5
22A
330
1F
100
AcDbEntity
  8
0
100
AcDbLine
 10
-242.3993438790231
 20
17.05825051730785
 30
0.0
 11
-101.2187562928833
 21
-30.01380426941905
 31
0.0
  0
LINE
  5
22B
330
1F
100
AcDbEntity
  8
0
100
AcDbLine
 10
342.4916618348724
 20
-177.954547884688
 30
0.0
 11
483.6722494211063
 21
-225.0266026717642
 31
0.0
  0
LINE
  5
22C
330
1F
100
AcDbEntity
  8
0
100
AcDbLine
 10
-231.7631783781943
 20
23.66856266616679
 30
0.0
 11
-90.58259079205688
 21
-23.40349212059452
 31
0.0
  0
LINE
  5
22D
330
1F
100
AcDbEntity
  8
0
100
AcDbLine
 10
353.127827335699
 20
-171.3442357358635
 30
0.0
 11
481.2208692267524
 21
-214.0526759600177
 31
0.0
  0
LINE
  5
22E
330
1F
100
AcDbEntity
  8
0
100
AcDbLine
 10
481.2208692267524
 20
-214.0526759600177
 30
0.0
 11
494.3084149219384
 21
-218.4162905229066
 31
0.0
  0
LINE
  5
22F
330
1F
100
AcDbEntity
  8
0
100
AcDbLine
 10
-86.69732442686943
 20
-34.85550133319525
 30
0.0
 11
327.9702299688586
 21
-173.1128508209118
 31
0.0
  0
LINE
  5
230
330
1F
100
AcDbEntity
  8
0
100
AcDbLine
 10
-76.06115892604298
 20
-28.24518918437072
 30
0.0
 11
52.03188296503486
 21
-70.9536294083005
 31
0.0
  0
LINE
  5
231
330
1F
100
AcDbEntity
  8
0
100
AcDbLine
 10
-86.69732442686943
 20
-34.85550133319525
 30
0.0
 11
-86.6973244269395
 21
-190.6726511602607
 31
0.0
  0
LINE
  5
232
330
1F
100
AcDbEntity
  8
0
100
AcDbLine
 10
342.4916618348216
 20
-333.7716977120108
 30
0.0
 11
342.4916618348724
 21
-177.954547884688
 31
0.0
  0
LINE
  5
233
330
1F
100
AcDbEntity
  8
0
100
AcDbLine
 10
808.8254253157537
 20
322.8334947617873
 30
0.0
 11
966.9984513180857
 21
253.9768854601298
 31
0.0
  0
LINE
  5
234
330
1F
100
AcDbEntity
  8
0
100
AcDbLine
 10
640.041008263014
 20
461.2925806392121
 30
0.0
 11
654.8510148839551
 21
438.2067969291956
 31
0.0
  0
LINE
  5
235
330
1F
100
AcDbEntity
  8
0
100
AcDbLine
 10
654.8510148839551
 20
438.2067969291956
 30
0.0
 11
808.8254253157537
 21
322.8334947617873
 31
0.0
  0
LINE
  5
236
330
1F
100
AcDbEntity
  8
0
100
AcDbLine
 10
222.3694119765832
 20
100.3266549434965
 30
0.0
 11
281.4592203145178
 21
137.0506113260418
 31
0.0
  0
LINE
  5
237
330
1F
100
AcDbEntity
  8
0
100
AcDbLine
 10
253.7878251476297
 20
146.2767340642271
 30
0.0
 11
281.4592203145178
 21
137.0506113260418
 31
0.0
  0
LINE
  5
238
330
1F
100
AcDbEntity
  8
0
100
AcDbLine
 10
246.9664677383581
 20
204.9766154528871
 30
0.0
 11
230.1849621703881
 21
194.5470118402431
 31
0.0
  0
LINE
  5
239
330
1F
100
AcDbEntity
  8
0
100
AcDbLine
 10
399.6388369904539
 20
210.4985240911571
 30
0.0
 11
427.3102321573421
 21
201.2724013529719
 31
0.0
  0
LINE
  5
23A
330
1F
100
AcDbEntity
  8
0
100
AcDbLine
 10
263.7479733063282
 20
215.4062190655312
 30
0.0
 11
246.9664677383581
 21
204.9766154528871
 31
0.0
  0
LINE
  5
23B
330
1F
100
AcDbEntity
  8
0
100
AcDbLine
 10
4.942603304946958
 20
285.6715665157396
 30
0.0
 11
125.9545355216433
 21
245.3240909843079
 31
0.0
  0
LINE
  5
23C
330
1F
100
AcDbEntity
  8
0
100
AcDbLine
 10
448.6530214327493
 20
137.7308229006002
 30
0.0
 11
431.8715158647793
 21
127.3012192879562
 31
0.0
  0
LINE
  5
23D
330
1F
100
AcDbEntity
  8
0
100
AcDbLine
 10
-88.63995760930996
 20
316.8736142600677
 30
0.0
 11
4.942603304946958
 21
285.6715665157396
 31
0.0
  0
LINE
  5
23E
330
1F
100
AcDbEntity
  8
0
100
AcDbLine
 10
281.4592203145178
 20
137.0506113260418
 30
0.0
 11
309.1306154814062
 21
127.8244885878566
 31
0.0
  0
LINE
  5
23F
330
1F
100
AcDbEntity
  8
0
100
AcDbLine
 10
431.057250161459
 20
256.4486032118537
 30
0.0
 11
458.7286453283443
 21
247.2224804736694
 31
0.0
  0
LINE
  5
240
330
1F
100
AcDbEntity
  8
0
100
AcDbLine
 10
142.7360410896133
 20
255.7536945969519
 30
0.0
 11
125.9545355216433
 21
245.3240909843079
 31
0.0
  0
LINE
  5
241
330
1F
100
AcDbEntity
  8
0
100
AcDbLine
 10
194.698016809695
 20
109.5527776816818
 30
0.0
 11
222.3694119765832
 21
100.3266549434965
 31
0.0
  0
LINE
  5
242
330
1F
100
AcDbEntity
  8
0
100
AcDbLine
 10
-116.0693289117591
 20
326.0190420471664
 30
0.0
 11
-132.8508344797291
 21
315.5894384345224
 31
0.0
  0
LINE
  5
243
330
1F
100
AcDbEntity
  8
0
100
AcDbLine
 10
-196.7439503895439
 20
352.9173590681286
 30
0.0
 11
-213.5254559575139
 21
342.4877554554845
 31
0.0
  0
LINE
  5
244
330
1F
100
AcDbEntity
  8
0
100
AcDbLine
 10
-99.28782334378909
 20
336.4486456598104
 30
0.0
 11
-116.0693289117591
 21
326.0190420471664
 31
0.0
  0
LINE
  5
245
330
1F
100
AcDbEntity
  8
0
100
AcDbLine
 10
-206.8195742851583
 20
243.4257014949896
 30
0.0
 11
-179.1481791182701
 21
234.1995787568044
 31
0.0
  0
LINE
  5
246
330
1F
100
AcDbEntity
  8
0
100
AcDbLine
 10
-88.63995760930996
 20
316.8736142600677
 30
0.0
 11
-29.55014927134964
 21
353.5975706426228
 31
0.0
  0
LINE
  5
247
330
1F
100
AcDbEntity
  8
0
100
AcDbLine
 10
-147.7297659472338
 20
280.1496578775285
 30
0.0
 11
-120.0583707803456
 21
270.9235351393433
 31
0.0
  0
LINE
  5
248
330
1F
100
AcDbEntity
  8
0
100
AcDbLine
 10
222.3694119765832
 20
100.3266549434965
 30
0.0
 11
250.0408071434714
 21
91.10053220531127
 31
0.0
  0
LINE
  5
249
330
1F
100
AcDbEntity
  8
0
100
AcDbLine
 10
-147.7297659472338
 20
280.1496578775285
 30
0.0
 11
-88.63995760930996
 21
316.8736142600677
 31
0.0
  0
LINE
  5
24A
330
1F
100
AcDbEntity
  8
0
100
AcDbLine
 10
-196.7439503895439
 20
352.9173590681286
 30
0.0
 11
-116.0693289117591
 21
326.0190420471664
 31
0.0
  0
LINE
  5
24B
330
1F
100
AcDbEntity
  8
0
100
AcDbLine
 10
246.9664677383581
 20
204.9766154528871
 30
0.0
 11
340.5490286525637
 21
173.774567708645
 31
0.0
  0
LINE
  5
24C
330
1F
100
AcDbEntity
  8
0
100
AcDbLine
 10
-206.8195742851583
 20
243.4257014949896
 30
0.0
 11
-147.7297659472338
 21
280.1496578775285
 31
0.0
  0
LINE
  5
24D
330
1F
100
AcDbEntity
  8
0
100
AcDbLine
 10
399.6388369904539
 20
210.4985240911571
 30
0.0
 11
458.7286453283443
 21
247.2224804736694
 31
0.0
  0
LINE
  5
24E
330
1F
100
AcDbEntity
  8
0
100
AcDbLine
 10
-57.22154443823786
 20
362.823693380808
 30
0.0
 11
-29.55014927134964
 21
353.5975706426228
 31
0.0
  0
LINE
  5
24F
330
1F
100
AcDbEntity
  8
0
100
AcDbLine
 10
-179.9624448215739
 20
363.3469626807727
 30
0.0
 11
-196.7439503895439
 21
352.9173590681286
 31
0.0
  0
LINE
  5
250
330
1F
100
AcDbEntity
  8
0
100
AcDbLine
 10
-116.0693289117591
 20
326.0190420471664
 30
0.0
 11
-88.63995760930996
 21
316.8736142600677
 31
0.0
  0
LINE
  5
251
330
1F
100
AcDbEntity
  8
0
100
AcDbLine
 10
-29.55014927134964
 20
353.5975706426228
 30
0.0
 11
-1.878754104461404
 21
344.3714479044375
 31
0.0
  0
LINE
  5
252
330
1F
100
AcDbEntity
  8
0
100
AcDbLine
 10
-234.4909694520466
 20
252.6518242331748
 30
0.0
 11
-206.8195742851583
 21
243.4257014949896
 31
0.0
  0
LINE
  5
253
330
1F
100
AcDbEntity
  8
0
100
AcDbLine
 10
371.9674418235657
 20
219.7246468293424
 30
0.0
 11
399.6388369904539
 21
210.4985240911571
 31
0.0
  0
LINE
  5
254
330
1F
100
AcDbEntity
  8
0
100
AcDbLine
 10
340.5490286525637
 20
173.774567708645
 30
0.0
 11
399.6388369904539
 21
210.4985240911571
 31
0.0
  0
LINE
  5
255
330
1F
100
AcDbEntity
  8
0
100
AcDbLine
 10
4.942603304946958
 20
285.6715665157396
 30
0.0
 11
-11.83890226302307
 21
275.2419629030956
 31
0.0
  0
LINE
  5
256
330
1F
100
AcDbEntity
  8
0
100
AcDbLine
 10
340.5490286525637
 20
173.774567708645
 30
0.0
 11
367.9783999550605
 21
164.6291399214581
 31
0.0
  0
LINE
  5
257
330
1F
100
AcDbEntity
  8
0
100
AcDbLine
 10
-29.55014927134964
 20
353.5975706426228
 30
0.0
 11
29.53965906657888
 21
390.3215270251703
 31
0.0
  0
LINE
  5
258
330
1F
100
AcDbEntity
  8
0
100
AcDbLine
 10
125.9545355216433
 20
245.3240909843079
 30
0.0
 11
109.1730299536733
 21
234.8944873716639
 31
0.0
  0
LINE
  5
259
330
1F
100
AcDbEntity
  8
0
100
AcDbLine
 10
21.72410887291696
 20
296.1011701283836
 30
0.0
 11
4.942603304946958
 21
285.6715665157396
 31
0.0
  0
LINE
  5
25A
330
1F
100
AcDbEntity
  8
0
100
AcDbLine
 10
125.9545355216433
 20
245.3240909843079
 30
0.0
 11
246.9664677383581
 21
204.9766154528871
 31
0.0
  0
LINE
  5
25B
330
1F
100
AcDbEntity
  8
0
100
AcDbLine
 10
458.7286453283443
 20
247.2224804736694
 30
0.0
 11
486.4000404952355
 21
237.9963577354831
 31
0.0
  0
LINE
  5
25C
330
1F
100
AcDbEntity
  8
0
100
AcDbLine
 10
29.53965906657888
 20
390.3215270251703
 30
0.0
 11
57.21105423346712
 21
381.0954042869851
 31
0.0
  0
LINE
  5
25D
330
1F
100
AcDbEntity
  8
0
100
AcDbLine
 10
1.868263899690664
 20
399.5476497633556
 30
0.0
 11
29.53965906657888
 21
390.3215270251703
 31
0.0
  0
LINE
  5
25E
330
1F
100
AcDbEntity
  8
0
100
AcDbLine
 10
281.4592203145178
 20
137.0506113260418
 30
0.0
 11
340.5490286525637
 21
173.774567708645
 31
0.0
  0
LINE
  5
25F
330
1F
100
AcDbEntity
  8
0
100
AcDbLine
 10
-175.4011611141221
 20
289.3757806157138
 30
0.0
 11
-147.7297659472338
 21
280.1496578775285
 31
0.0
  0
LINE
  5
260
330
1F
100
AcDbEntity
  8
0
100
AcDbLine
 10
465.4345270007194
 20
148.1604265132443
 30
0.0
 11
448.6530214327493
 21
137.7308229006002
 31
0.0
  0
LINE
  5
261
330
1F
100
AcDbEntity
  8
0
100
AcDbLine
 10
367.9783999550605
 20
164.6291399214581
 30
0.0
 11
448.6530214327493
 21
137.7308229006002
 31
0.0
  0
LINE
  5
262
330
1F
100
AcDbEntity
  8
0
100
AcDbLine
 10
367.9783999550605
 20
164.6291399214581
 30
0.0
 11
351.1968943870905
 21
154.1995363088141
 31
0.0
  0
LINE
  5
263
330
1F
100
AcDbEntity
  8
0
100
AcDbLine
 10
384.7599055230305
 20
175.0587435341021
 30
0.0
 11
367.9783999550605
 21
164.6291399214581
 31
0.0
  0
LINE
  5
264
330
1F
100
AcDbEntity
  8
0
 62
   250
420
  4144959
100
AcDbLine
 10
-237.9931263463615
 20
-120.3963682492803
 30
0.0
 11
-270.9680993357827
 21
-109.4019407455669
 31
0.0
  0
LINE
  5
265
330
1F
100
AcDbEntity
  8
0
 62
   250
420
  4144959
100
AcDbLine
 10
-208.4482221773877
 20
-102.0343900579368
 30
0.0
 11
-241.4231951668212
 21
-91.03996255421963
 31
0.0
  0
LINE
  5
266
330
1F
100
AcDbEntity
  8
0
 62
   250
420
  4144959
100
AcDbLine
 10
-267.7108035516608
 20
-110.4879796141406
 30
0.0
 11
-265.0510669325428
 21
-108.834969487058
 31
0.0
  0
LINE
  5
267
330
1F
100
AcDbEntity
  8
0
 62
   250
420
  4144959
100
AcDbLine
 10
-240.8256360018188
 20
-93.77901154987593
 30
0.0
 11
-238.1658993826986
 21
-92.12600142279332
 31
0.0
  0
LINE
  5
268
330
1F
100
AcDbEntity
  8
0
 62
   250
420
  4144959
100
AcDbLine
 10
-208.4482221773877
 20
-102.0343900579854
 30
0.0
 11
-241.4231951668024
 21
-91.039962554268
 31
0.0
  0
LINE
  5
269
330
1F
100
AcDbEntity
  8
0
 62
   250
420
  4144959
100
AcDbLine
 10
-149.358413839443
 20
-65.3104336754438
 30
0.0
 11
-182.3333868288577
 21
-54.31600617172607
 31
0.0
  0
LINE
  5
26A
330
1F
100
AcDbEntity
  8
0
 62
   250
420
  4144959
100
AcDbLine
 10
-238.1658993826813
 20
-92.12600142284222
 30
0.0
 11
-225.2759789785823
 21
-84.11499431336864
 31
0.0
  0
LINE
  5
26B
330
1F
100
AcDbEntity
  8
0
 62
   250
420
  4144959
100
AcDbLine
 10
-191.9660114488369
 20
-63.41305214991881
 30
0.0
 11
-179.0760910447365
 21
-55.40204504030031
 31
0.0
  0
LINE
  5
26C
330
1F
100
AcDbEntity
  8
0
 62
   250
420
  4144959
100
AcDbLine
 10
57.4559153433584
 20
63.22341366317951
 30
0.0
 11
30.47621057303302
 21
72.21891483505665
 31
0.0
  0
LINE
  5
26D
330
1F
100
AcDbEntity
  8
0
 62
   250
420
  4144959
100
AcDbLine
 10
27.91101117371394
 20
44.86143547213902
 30
0.0
 11
0.9313064040779864
 21
53.85693664378623
 31
0.0
  0
LINE
  5
26E
330
1F
100
AcDbEntity
  8
0
 62
   250
420
  4144959
100
AcDbLine
 10
33.73350635715493
 20
71.13287596648296
 30
0.0
 11
31.07376973803904
 21
69.47986583941533
 31
0.0
  0
LINE
  5
26F
330
1F
100
AcDbEntity
  8
0
 62
   250
420
  4144959
100
AcDbLine
 10
6.848338807314343
 20
54.42390790235255
 30
0.0
 11
4.188602188200622
 21
52.77089777521218
 31
0.0
  0
LINE
  5
270
330
1F
100
AcDbEntity
  8
0
 62
   250
420
  4144959
100
AcDbLine
 10
-235.8883644031085
 20
21.10478464911095
 30
0.0
 11
-213.5239846874981
 21
35.00411057858531
 31
0.0
  0
LINE
  5
271
330
1F
100
AcDbEntity
  8
0
 62
   250
420
  4144959
100
AcDbLine
 10
-195.5510536642122
 20
7.655626138607039
 30
0.0
 11
-173.1866739485938
 21
21.55495206808645
 31
0.0
  0
LINE
  5
272
330
1F
100
AcDbEntity
  8
0
 62
   250
420
  4144959
100
AcDbLine
 10
-215.9097781384982
 20
33.52135446383807
 30
0.0
 11
-207.8538382344077
 21
30.83536447748329
 31
0.0
  0
LINE
  5
273
330
1F
100
AcDbEntity
  8
0
 62
   250
420
  4144959
100
AcDbLine
 10
-183.6284073036837
 20
22.75818593969328
 30
0.0
 11
-175.5724673995939
 21
20.07219595333885
 31
0.0
  0
LINE
  5
274
330
1F
100
AcDbEntity
  8
0
 62
   250
420
  4144959
100
AcDbLine
 10
-195.5510536642122
 20
7.65562613859657
 30
0.0
 11
-173.1866739485938
 21
21.55495206807598
 31
0.0
  0
LINE
  5
275
330
1F
100
AcDbEntity
  8
0
 62
   250
420
  4144959
100
AcDbLine
 10
-114.8764321864195
 20
-19.24269088241108
 30
0.0
 11
-92.51205247078526
 21
-5.343364952921919
 31
0.0
  0
LINE
  5
276
330
1F
100
AcDbEntity
  8
0
 62
   250
420
  4144959
100
AcDbLine
 10
-175.5724673995939
 20
20.07219595332839
 30
0.0
 11
-151.8901404255645
 21
12.17609768756082
 31
0.0
  0
LINE
  5
277
330
1F
100
AcDbEntity
  8
0
 62
   250
420
  4144959
100
AcDbLine
 10
-118.5801728958184
 20
1.069977198098957
 30
0.0
 11
-94.89784592178535
 21
-6.826121067669336
 31
0.0
  0
LINE
  5
278
330
1F
100
AcDbEntity
  8
0
 62
   250
420
  4144959
100
AcDbLine
 10
6.13550003026952
 20
-59.59016641391741
 30
0.0
 11
28.49987974592759
 21
-45.69084048441687
 31
0.0
  0
LINE
  5
279
330
1F
100
AcDbEntity
  8
0
 62
   250
420
  4144959
100
AcDbLine
 10
-114.8764321864195
 20
-19.24269088255582
 30
0.0
 11
-92.51205247078526
 21
-5.343364953070086
 31
0.0
  0
LINE
  5
27A
330
1F
100
AcDbEntity
  8
0
 62
   250
420
  4144959
100
AcDbLine
 10
26.1140862949275
 20
-47.17359659916394
 30
0.0
 11
-17.73689604855623
 21
-32.55291907820108
 31
0.0
  0
LINE
  5
27B
330
1F
100
AcDbEntity
  8
0
 62
   250
420
  4144959
100
AcDbLine
 10
-51.04686357830233
 20
-21.44679858878055
 30
0.0
 11
-94.89784592178535
 21
-6.826121067817148
 31
0.0
  0
LINE
  5
27C
330
1F
100
AcDbEntity
  8
0
 62
   250
420
  4144959
100
AcDbLine
 10
6.13550003026952
 20
-59.59016641391741
 30
0.0
 11
28.49987974592759
 21
-45.69084048441687
 31
0.0
  0
LINE
  5
27D
330
1F
100
AcDbEntity
  8
0
 62
   250
420
  4144959
100
AcDbLine
 10
127.1474322469571
 20
-99.93764194527881
 30
0.0
 11
149.511811962639
 21
-86.03831601576348
 31
0.0
  0
LINE
  5
27E
330
1F
100
AcDbEntity
  8
0
 62
   250
420
  4144959
100
AcDbLine
 10
26.1140862949275
 20
-47.17359659916394
 30
0.0
 11
69.96506863840908
 21
-61.79427412012697
 31
0.0
  0
LINE
  5
27F
330
1F
100
AcDbEntity
  8
0
 62
   250
420
  4144959
100
AcDbLine
 10
103.2750361681559
 20
-72.9003946095475
 30
0.0
 11
147.1260185116389
 21
-87.52107213051053
 31
0.0
  0
LINE
  5
280
330
1F
100
AcDbEntity
  8
0
 62
   250
420
  4144959
100
AcDbLine
 10
-195.5510536640433
 20
353.6587371255025
 30
0.0
 11
-163.7930940112512
 21
373.396115835858
 31
0.0
  0
LINE
  5
281
330
1F
100
AcDbEntity
  8
0
 62
   250
420
  4144959
100
AcDbLine
 10
-114.8764321862585
 20
326.7604201045401
 30
0.0
 11
-83.11847253344341
 21
346.4977988149099
 31
0.0
  0
LINE
  5
282
330
1F
100
AcDbEntity
  8
0
 62
   250
420
  4144959
100
AcDbLine
 10
-166.1788874622513
 20
371.9133597211106
 30
0.0
 11
-142.4965604882219
 21
364.0172614553578
 31
0.0
  0
LINE
  5
283
330
1F
100
AcDbEntity
  8
0
 62
   250
420
  4144959
100
AcDbLine
 10
-109.1865929584751
 20
352.9111409659166
 30
0.0
 11
-85.50426598444349
 21
345.0150427001627
 31
0.0
  0
LINE
  5
284
330
1F
100
AcDbEntity
  8
0
 62
   250
420
  4144959
100
AcDbLine
 10
-114.8764321862585
 20
326.7604201045401
 30
0.0
 11
-83.11847253344341
 21
346.4977988149099
 31
0.0
  0
LINE
  5
285
330
1F
100
AcDbEntity
  8
0
 62
   250
420
  4144959
100
AcDbLine
 10
6.135500030447832
 20
286.4129445731132
 30
0.0
 11
37.89345968326944
 21
306.1503232834874
 31
0.0
  0
LINE
  5
286
330
1F
100
AcDbEntity
  8
0
 62
   250
420
  4144959
100
AcDbLine
 10
-85.50426598444349
 20
345.0150427001627
 30
0.0
 11
-41.65328364096192
 21
330.3943651791726
 31
0.0
  0
LINE
  5
287
330
1F
100
AcDbEntity
  8
0
 62
   250
420
  4144959
100
AcDbLine
 10
-8.343316111215819
 20
319.2882446897313
 30
0.0
 11
35.50766623226937
 21
304.6675671687401
 31
0.0
  0
LINE
  5
288
330
1F
100
AcDbEntity
  8
0
 62
   250
420
  4144959
100
AcDbLine
 10
6.135500030447832
 20
286.4129445731132
 30
0.0
 11
58.01677340553562
 21
318.6568403326312
 31
0.0
  0
LINE
  5
289
330
1F
100
AcDbEntity
  8
0
 62
   250
420
  4144959
100
AcDbLine
 10
127.1474322471434
 20
246.0654690416818
 30
0.0
 11
179.028705622247
 21
278.309364801209
 31
0.0
  0
LINE
  5
28A
330
1F
100
AcDbEntity
  8
0
 62
   250
420
  4144959
100
AcDbLine
 10
55.63097995453626
 20
317.1740842178838
 30
0.0
 11
99.48196229801783
 21
302.5534066968939
 31
0.0
  0
LINE
  5
28B
330
1F
100
AcDbEntity
  8
0
 62
   250
420
  4144959
100
AcDbLine
 10
132.7919298277639
 20
291.4472862074524
 30
0.0
 11
176.6429121712477
 21
276.8266086864618
 31
0.0
  0
LINE
  5
28C
330
1F
100
AcDbEntity
  8
0
 62
   250
420
  4144959
100
AcDbLine
 10
-230.2966592468002
 20
-124.1016142728301
 30
0.0
 11
-259.8187328520904
 21
-142.4494034077559
 31
0.0
  0
LINE
  5
28D
330
1F
100
AcDbEntity
  8
0
 62
   250
420
  4144959
100
AcDbLine
 10
-208.0124710108276
 20
-103.3187875495985
 30
0.0
 11
-267.0794487850814
 21
-140.0285548758727
 31
0.0
  0
LINE
  5
28E
330
1F
100
AcDbEntity
  8
0
 62
   250
420
  4144959
100
AcDbLine
 10
-264.6936553340814
 20
-138.5457987611195
 30
0.0
 11
-277.7228384705675
 21
-134.2016432868251
 31
0.0
  0
LINE
  5
28F
330
1F
100
AcDbEntity
  8
0
 62
   250
420
  4144959
100
AcDbLine
 10
-257.4329394010903
 20
-140.9666472930028
 30
0.0
 11
-264.6936553340814
 21
-138.5457987611195
 31
0.0
  0
LINE
  5
290
330
1F
100
AcDbEntity
  8
0
 62
   250
420
  4144959
100
AcDbLine
 10
449.8459181582498
 20
138.472200957974
 30
0.0
 11
481.6038778110425
 21
158.2095796683296
 31
0.0
  0
LINE
  5
291
330
1F
100
AcDbEntity
  8
0
 62
   250
420
  4144959
100
AcDbLine
 10
510.3518842664604
 20
118.2984631921831
 30
0.0
 11
542.1098439193875
 21
138.0358419026223
 31
0.0
  0
LINE
  5
292
330
1F
100
AcDbEntity
  8
0
 62
   250
420
  4144959
100
AcDbLine
 10
479.2180843600418
 20
156.7268235535824
 30
0.0
 11
497.3583519488511
 21
150.6785439396169
 31
0.0
  0
LINE
  5
293
330
1F
100
AcDbEntity
  8
0
 62
   250
420
  4144959
100
AcDbLine
 10
521.5837828795758
 20
142.6013654018408
 30
0.0
 11
539.7240504683866
 21
136.5530857878749
 31
0.0
  0
LINE
  5
294
330
1F
100
AcDbEntity
  8
0
 62
   250
420
  4144959
100
AcDbLine
 10
-208.4482221772188
 20
243.9687209292761
 30
0.0
 11
-440.1563339858802
 21
321.2242212785293
 31
0.0
  0
LINE
  5
295
330
1F
100
AcDbEntity
  8
0
 62
   250
420
  4144959
100
AcDbLine
 10
-417.3418062455834
 20
271.2983203651571
 30
0.0
 11
-484.4736902393279
 21
293.6812539916133
 31
0.0
  0
LINE
  5
296
330
1F
100
AcDbEntity
  8
0
 62
   250
420
  4144959
100
AcDbLine
 10
-436.8990382017583
 20
320.1381824099565
 30
0.0
 11
-446.9450008631216
 21
313.8946777350594
 31
0.0
  0
LINE
  5
297
330
1F
100
AcDbEntity
  8
0
 62
   250
420
  4144959
100
AcDbLine
 10
-471.1704317938463
 20
298.8387197979371
 30
0.0
 11
-481.216394455206
 21
292.5952151230406
 31
0.0
  0
MTEXT
  5
2BB
330
1F
100
AcDbEntity
  8
0
 62
   250
420
  4144959
100
AcDbMText
 10
-263.0322810216479
 20
-107.5627706137248
 30
0.0
 40
12.51156019051564
 41
0.0
 71
     7
 72
     1
  1
50
  7
Tahoma
 73
     1
 44
1.0
  0
MTEXT
  5
2BC
330
1F
100
AcDbEntity
  8
0
 62
   250
420
  4144959
100
AcDbMText
 10
-222.7524965899676
 20
-80.0198033268682
 30
0.0
 40
12.51156019050232
 41
0.0
 71
     7
 72
     1
  1
100
  7
Tahoma
 73
     1
 44
1.0
  0
MTEXT
  5
2BD
330
1F
100
AcDbEntity
  8
0
 62
   250
420
  4144959
100
AcDbMText
 10
8.867124718206398
 20
55.69610677565636
 30
0.0
 40
12.51156019050223
 41
0.0
 71
     7
 72
     1
  1
50
  7
Tahoma
 73
     1
 44
1.0
  0
MTEXT
  5
2BE
330
1F
100
AcDbEntity
  8
0
 62
   250
420
  4144959
100
AcDbMText
 10
-205.8350523235149
 20
20.54099511333062
 30
0.0
 40
12.51156019051564
 41
0.0
 71
     7
 72
     1
  1
50
  7
Tahoma
 73
     1
 44
1.0
  0
MTEXT
  5
2BF
330
1F
100
AcDbEntity
  8
0
 62
   250
420
  4144959
100
AcDbMText
 10
-149.3666580369455
 20
0.3672573475713225
 30
0.0
 40
12.51156019051564
 41
0.0
 71
     7
 72
     1
  1
100
  7
Tahoma
 73
     1
 44
1.0
  0
MTEXT
  5
2C0
330
1F
100
AcDbEntity
  8
0
 62
   250
420
  4144959
100
AcDbMText
 10
-48.52338118968476
 20
-33.25563892874874
 30
0.0
 40
12.51156019051564
 41
0.0
 71
     7
 72
     1
  1
150
  7
Tahoma
 73
     1
 44
1.0
  0
MTEXT
  5
2C1
330
1F
100
AcDbEntity
  8
0
 62
   250
420
  4144959
100
AcDbMText
 10
72.48855102702737
 20
-73.60311446009536
 30
0.0
 40
12.51156019051564
 41
0.0
 71
     7
 72
     1
  1
150
  7
Tahoma
 73
     1
 44
1.0
  0
MTEXT
  5
2C2
330
1F
100
AcDbEntity
  8
0
 62
   250
420
  4144959
100
AcDbMText
 10
-139.9730780996036
 20
352.2084211153788
 30
0.0
 40
12.51156019051564
 41
0.0
 71
     7
 72
     1
  1
100
  7
Tahoma
 73
     1
 44
1.0
  0
MTEXT
  5
2C3
330
1F
100
AcDbEntity
  8
0
 62
   250
420
  4144959
100
AcDbMText
 10
-39.12980125234362
 20
318.5855248391936
 30
0.0
 40
12.51156019051564
 41
0.0
 71
     7
 72
     1
  1
150
  7
Tahoma
 73
     1
 44
1.0
  0
MTEXT
  5
2C4
330
1F
100
AcDbEntity
  8
0
 62
   250
420
  4144959
100
AcDbMText
 10
102.0054446866354
 20
290.7445663569151
 30
0.0
 40
12.51156019051564
 41
0.0
 71
     7
 72
     1
  1
150
  7
Tahoma
 73
     1
 44
1.0
  0
MTEXT
  5
2C5
330
1F
100
AcDbEntity
  8
0
 62
   250
420
  4144959
100
AcDbMText
 10
-289.8355539359306
 20
-140.457423382083
 30
0.0
 40
12.51156019051564
 41
0.0
 71
     7
 72
     1
  1
9
  7
Tahoma
 73
     1
 44
1.0
  0
MTEXT
  5
2C6
330
1F
100
AcDbEntity
  8
0
 62
   250
420
  4144959
100
AcDbMText
 10
499.377137859746
 20
140.3841745754709
 30
0.0
 40
12.51156019051564
 41
0.0
 71
     7
 72
     1
  1
75
  7
Tahoma
 73
     1
 44
1.0
  0
MTEXT
  5
2C7
330
1F
100
AcDbEntity
  8
0
 62
   250
420
  4144959
100
AcDbMText
 10
-469.1516458829507
 20
300.1109186712405
 30
0.0
 40
12.51156019051564
 41
0.0
 71
     7
 72
     1
  1
75
  7
Tahoma
 73
     1
 44
1.0
  0
ENDSEC
  0
SECTION
  2
OBJECTS
  0
DICTIONARY
  5
C
330
0
100
AcDbDictionary
281
     1
  3
ACAD_GROUP
350
D
  3
ACAD_LAYOUT
350
1A
  3
ACAD_MATERIAL
350
3B
  3
ACAD_MLEADERSTYLE
350
2F1
  3
ACAD_MLINESTYLE
350
17
  3
ACAD_PLOTSETTINGS
350
19
  3
ACAD_PLOTSTYLENAME
350
E
  3
ACAD_SCALELIST
350
299
  3
ACAD_TABLESTYLE
350
2F0
  3
ACAD_VISUALSTYLE
350
2A
  3
AcDbVariableDictionary
350
2C8
  0
DICTIONARY
  5
D
102
{ACAD_REACTORS
330
C
102
}
330
C
100
AcDbDictionary
281
     1
  0
DICTIONARY
  5
1A
102
{ACAD_REACTORS
330
C
102
}
330
C
100
AcDbDictionary
281
     1
  3
Layout1
350
1E
  3
Layout2
350
26
  3
Model
350
22
  0
DICTIONARY
  5
3B
102
{ACAD_REACTORS
330
C
102
}
330
C
100
AcDbDictionary
281
     1
  3
ByBlock
350
3D
  3
ByLayer
350
3C
  3
Global
350
3E
  0
DICTIONARY
  5
2F1
102
{ACAD_REACTORS
330
C
102
}
330
C
100
AcDbDictionary
281
     1
  0
DICTIONARY
  5
17
102
{ACAD_REACTORS
330
C
102
}
330
C
100
AcDbDictionary
281
     1
  3
Standard
350
18
  0
DICTIONARY
  5
19
102
{ACAD_REACTORS
330
C
102
}
330
C
100
AcDbDictionary
281
     1
  0
ACDBDICTIONARYWDFLT
  5
E
102
{ACAD_REACTORS
330
C
102
}
330
C
100
AcDbDictionary
281
     1
  3
Normal
350
F
100
AcDbDictionaryWithDefault
340
F
  0
DICTIONARY
  5
299
102
{ACAD_REACTORS
330
C
102
}
330
C
100
AcDbDictionary
281
     1
  3
A0
350
29A
  3
A1
350
29B
  3
A2
350
29C
  3
A3
350
29D
  3
A4
350
29E
  3
A5
350
29F
  3
A6
350
2A0
  3
A7
350
2A1
  3
A8
350
2A2
  3
A9
350
2A3
  3
B0
350
2A4
  3
B1
350
2A5
  3
B2
350
2A6
  3
B3
350
2A7
  3
B4
350
2A8
  3
B5
350
2A9
  3
B6
350
2AA
  3
B7
350
2AB
  3
B8
350
2AC
  3
B9
350
2AD
  3
C0
350
2AE
  3
C1
350
2AF
  3
C2
350
2B0
  3
C3
350
2B1
  3
C4
350
2B2
  3
C5
350
2B3
  3
C6
350
2B4
  3
C7
350
2B5
  3
C8
350
2B6
  3
C9
350
2B7
  3
D0
350
2B8
  3
D1
350
2B9
  3
D2
350
2BA
  0
DICTIONARY
  5
2F0
102
{ACAD_REACTORS
330
C
102
}
330
C
100
AcDbDictionary
281
     1
  0
DICTIONARY
  5
2A
102
{ACAD_REACTORS
330
C
102
}
330
C
100
AcDbDictionary
281
     1
  3
2dWireframe
350
2F
  3
3D Hidden
350
31
  3
3dWireframe
350
30
  3
Basic
350
32
  3
Brighten
350
36
  3
ColorChange
350
3A
  3
Conceptual
350
34
  3
Dim
350
35
  3
Facepattern
350
39
  3
Flat
350
2B
  3
FlatWithEdges
350
2C
  3
Gouraud
350
2D
  3
GouraudWithEdges
350
2E
  3
Linepattern
350
38
  3
Realistic
350
33
  3
Thicken
350
37
  0
DICTIONARY
  5
2C8
102
{ACAD_REACTORS
330
C
102
}
330
C
100
AcDbDictionary
281
     1
  3
CANNOSCALE
350
2C9
  0
LAYOUT
  5
1E
102
{ACAD_REACTORS
330
1A
102
}
330
1A
100
AcDbPlotSettings
  1

  2
none_device
  4

  6

 40
0.0
 41
0.0
 42
0.0
 43
0.0
 44
0.0
 45
0.0
 46
0.0
 47
0.0
 48
0.0
 49
0.0
140
0.0
141
0.0
142
1.0
143
1.0
 70
   688
 72
     0
 73
     0
 74
     5
  7

 75
    16
 76
     0
 77
     2
 78
   300
147
1.0
148
0.0
149
0.0
100
AcDbLayout
  1
Layout1
 70
     1
 71
     1
 10
0.0
 20
0.0
 11
12.0
 21
9.0
 12
0.0
 22
0.0
 32
0.0
 14
1.000000000000000E+20
 24
1.000000000000000E+20
 34
1.000000000000000E+20
 15
-1.000000000000000E+20
 25
-1.000000000000000E+20
 35
-1.000000000000000E+20
146
0.0
 13
0.0
 23
0.0
 33
0.0
 16
1.0
 26
0.0
 36
0.0
 17
0.0
 27
1.0
 37
0.0
 76
     0
330
1B
  0
LAYOUT
  5
26
102
{ACAD_REACTORS
330
1A
102
}
330
1A
100
AcDbPlotSettings
  1

  2
none_device
  4

  6

 40
0.0
 41
0.0
 42
0.0
 43
0.0
 44
0.0
 45
0.0
 46
0.0
 47
0.0
 48
0.0
 49
0.0
140
0.0
141
0.0
142
1.0
143
1.0
 70
   688
 72
     0
 73
     0
 74
     5
  7

 75
    16
 76
     0
 77
     2
 78
   300
147
1.0
148
0.0
149
0.0
100
AcDbLayout
  1
Layout2
 70
     1
 71
     2
 10
0.0
 20
0.0
 11
0.0
 21
0.0
 12
0.0
 22
0.0
 32
0.0
 14
0.0
 24
0.0
 34
0.0
 15
0.0
 25
0.0
 35
0.0
146
0.0
 13
0.0
 23
0.0
 33
0.0
 16
1.0
 26
0.0
 36
0.0
 17
0.0
 27
1.0
 37
0.0
 76
     0
330
23
  0
LAYOUT
  5
22
102
{ACAD_REACTORS
330
1A
102
}
330
1A
100
AcDbPlotSettings
  1

  2
none_device
  4

  6

 40
0.0
 41
0.0
 42
0.0
 43
0.0
 44
0.0
 45
0.0
 46
0.0
 47
0.0
 48
0.0
 49
0.0
140
0.0
141
0.0
142
1.0
143
1.0
 70
  1712
 72
     0
 73
     0
 74
     0
  7

 75
     0
 76
     0
 77
     2
 78
   300
147
1.0
148
0.0
149
0.0
100
AcDbLayout
  1
Model
 70
     1
 71
     0
 10
0.0
 20
0.0
 11
12.0
 21
9.0
 12
0.0
 22
0.0
 32
0.0
 14
1.000000000000000E+20
 24
1.000000000000000E+20
 34
1.000000000000000E+20
 15
-1.000000000000000E+20
 25
-1.000000000000000E+20
 35
-1.000000000000000E+20
146
0.0
 13
0.0
 23
0.0
 33
0.0
 16
1.0
 26
0.0
 36
0.0
 17
0.0
 27
1.0
 37
0.0
 76
     0
330
1F
331
29
  0
MATERIAL
  5
3D
102
{ACAD_REACTORS
330
3B
102
}
102
{ACAD_XDICTIONARY
360
2EC
102
}
330
3B
100
AcDbMaterial
  1
ByBlock
  0
MATERIAL
  5
3C
102
{ACAD_REACTORS
330
3B
102
}
102
{ACAD_XDICTIONARY
360
2EA
102
}
330
3B
100
AcDbMaterial
  1
ByLayer
  0
MATERIAL
  5
3E
102
{ACAD_REACTORS
330
3B
102
}
102
{ACAD_XDICTIONARY
360
2EE
102
}
330
3B
100
AcDbMaterial
  1
Global
  0
MLINESTYLE
  5
18
102
{ACAD_REACTORS
330
17
102
}
330
17
100
AcDbMlineStyle
  2
Standard
 70
     0
  3

 62
   256
 51
90.0
 52
90.0
 71
     2
 49
0.5
 62
   256
  6
BYLAYER
 49
-0.5
 62
   256
  6
BYLAYER
  0
ACDBPLACEHOLDER
  5
F
102
{ACAD_REACTORS
330
E
102
}
330
E
  0
SCALE
  5
29A
102
{ACAD_REACTORS
330
299
102
}
330
299
100
AcDbScale
 70
     0
300
1:1
140
1.0
141
1.0
290
     1
  0
SCALE
  5
29B
102
{ACAD_REACTORS
330
299
102
}
330
299
100
AcDbScale
 70
     0
300
1:2
140
1.0
141
2.0
290
     0
  0
SCALE
  5
29C
102
{ACAD_REACTORS
330
299
102
}
330
299
100
AcDbScale
 70
     0
300
1:4
140
1.0
141
4.0
290
     0
  0
SCALE
  5
29D
102
{ACAD_REACTORS
330
299
102
}
330
299
100
AcDbScale
 70
     0
300
1:5
140
1.0
141
5.0
290
     0
  0
SCALE
  5
29E
102
{ACAD_REACTORS
330
299
102
}
330
299
100
AcDbScale
 70
     0
300
1:8
140
1.0
141
8.0
290
     0
  0
SCALE
  5
29F
102
{ACAD_REACTORS
330
299
102
}
330
299
100
AcDbScale
 70
     0
300
1:10
140
1.0
141
10.0
290
     0
  0
SCALE
  5
2A0
102
{ACAD_REACTORS
330
299
102
}
330
299
100
AcDbScale
 70
     0
300
1:16
140
1.0
141
16.0
290
     0
  0
SCALE
  5
2A1
102
{ACAD_REACTORS
330
299
102
}
330
299
100
AcDbScale
 70
     0
300
1:20
140
1.0
141
20.0
290
     0
  0
SCALE
  5
2A2
102
{ACAD_REACTORS
330
299
102
}
330
299
100
AcDbScale
 70
     0
300
1:30
140
1.0
141
30.0
290
     0
  0
SCALE
  5
2A3
102
{ACAD_REACTORS
330
299
102
}
330
299
100
AcDbScale
 70
     0
300
1:40
140
1.0
141
40.0
290
     0
  0
SCALE
  5
2A4
102
{ACAD_REACTORS
330
299
102
}
330
299
100
AcDbScale
 70
     0
300
1:50
140
1.0
141
50.0
290
     0
  0
SCALE
  5
2A5
102
{ACAD_REACTORS
330
299
102
}
330
299
100
AcDbScale
 70
     0
300
1:100
140
1.0
141
100.0
290
     0
  0
SCALE
  5
2A6
102
{ACAD_REACTORS
330
299
102
}
330
299
100
AcDbScale
 70
     0
300
2:1
140
2.0
141
1.0
290
     0
  0
SCALE
  5
2A7
102
{ACAD_REACTORS
330
299
102
}
330
299
100
AcDbScale
 70
     0
300
4:1
140
4.0
141
1.0
290
     0
  0
SCALE
  5
2A8
102
{ACAD_REACTORS
330
299
102
}
330
299
100
AcDbScale
 70
     0
300
8:1
140
8.0
141
1.0
290
     0
  0
SCALE
  5
2A9
102
{ACAD_REACTORS
330
299
102
}
330
299
100
AcDbScale
 70
     0
300
10:1
140
10.0
141
1.0
290
     0
  0
SCALE
  5
2AA
102
{ACAD_REACTORS
330
299
102
}
330
299
100
AcDbScale
 70
     0
300
100:1
140
100.0
141
1.0
290
     0
  0
SCALE
  5
2AB
102
{ACAD_REACTORS
330
299
102
}
330
299
100
AcDbScale
 70
     0
300
1/128" = 1'-0"
140
0.0078125
141
12.0
290
     0
  0
SCALE
  5
2AC
102
{ACAD_REACTORS
330
299
102
}
330
299
100
AcDbScale
 70
     0
300
1/64" = 1'-0"
140
0.015625
141
12.0
290
     0
  0
SCALE
  5
2AD
102
{ACAD_REACTORS
330
299
102
}
330
299
100
AcDbScale
 70
     0
300
1/32" = 1'-0"
140
0.03125
141
12.0
290
     0
  0
SCALE
  5
2AE
102
{ACAD_REACTORS
330
299
102
}
330
299
100
AcDbScale
 70
     0
300
1/16" = 1'-0"
140
0.0625
141
12.0
290
     0
  0
SCALE
  5
2AF
102
{ACAD_REACTORS
330
299
102
}
330
299
100
AcDbScale
 70
     0
300
3/32" = 1'-0"
140
0.09375
141
12.0
290
     0
  0
SCALE
  5
2B0
102
{ACAD_REACTORS
330
299
102
}
330
299
100
AcDbScale
 70
     0
300
1/8" = 1'-0"
140
0.125
141
12.0
290
     0
  0
SCALE
  5
2B1
102
{ACAD_REACTORS
330
299
102
}
330
299
100
AcDbScale
 70
     0
300
3/16" = 1'-0"
140
0.1875
141
12.0
290
     0
  0
SCALE
  5
2B2
102
{ACAD_REACTORS
330
299
102
}
330
299
100
AcDbScale
 70
     0
300
1/4" = 1'-0"
140
0.25
141
12.0
290
     0
  0
SCALE
  5
2B3
102
{ACAD_REACTORS
330
299
102
}
330
299
100
AcDbScale
 70
     0
300
3/8" = 1'-0"
140
0.375
141
12.0
290
     0
  0
SCALE
  5
2B4
102
{ACAD_REACTORS
330
299
102
}
330
299
100
AcDbScale
 70
     0
300
1/2" = 1'-0"
140
0.5
141
12.0
290
     0
  0
SCALE
  5
2B5
102
{ACAD_REACTORS
330
299
102
}
330
299
100
AcDbScale
 70
     0
300
3/4" = 1'-0"
140
0.75
141
12.0
290
     0
  0
SCALE
  5
2B6
102
{ACAD_REACTORS
330
299
102
}
330
299
100
AcDbScale
 70
     0
300
1" = 1'-0"
140
1.0
141
12.0
290
     0
  0
SCALE
  5
2B7
102
{ACAD_REACTORS
330
299
102
}
330
299
100
AcDbScale
 70
     0
300
1-1/2" = 1'-0"
140
1.5
141
12.0
290
     0
  0
SCALE
  5
2B8
102
{ACAD_REACTORS
330
299
102
}
330
299
100
AcDbScale
 70
     0
300
3" = 1'-0"
140
3.0
141
12.0
290
     0
  0
SCALE
  5
2B9
102
{ACAD_REACTORS
330
299
102
}
330
299
100
AcDbScale
 70
     0
300
6" = 1'-0"
140
6.0
141
12.0
290
     0
  0
SCALE
  5
2BA
102
{ACAD_REACTORS
330
299
102
}
330
299
100
AcDbScale
 70
     0
300
1'-0" = 1'-0"
140
12.0
141
12.0
290
     0
  0
VISUALSTYLE
  5
2F
102
{ACAD_REACTORS
330
2A
102
}
102
{ACAD_XDICTIONARY
360
2D2
102
}
330
2A
100
AcDbVisualStyle
  2
2dWireframe
 70
     4
 71
     0
 72
     2
 73
     0
 90
        0
 40
-0.6
 41
-30.0
 62
     5
 63
     7
421
 16777215
 74
     1
 91
        4
 64
     7
 65
   257
 75
     1
175
     1
 42
1.0
 92
        0
 66
   257
 43
1.0
 76
     1
 77
     6
 78
     2
 67
     7
 79
     5
170
     0
171
     0
290
     0
174
     0
 93
        1
 44
0.0
173
     0
291
     0
 45
0.0
1001
ACAD
1000
AcDbSavedByObjectVersion
1070
     0
  0
VISUALSTYLE
  5
31
102
{ACAD_REACTORS
330
2A
102
}
102
{ACAD_XDICTIONARY
360
2D6
102
}
330
2A
100
AcDbVisualStyle
  2
3D Hidden
 70
     6
 71
     1
 72
     2
 73
     2
 90
        0
 40
-0.6
 41
-30.0
 62
     5
 63
     7
421
 16777215
 74
     2
 91
        2
 64
     7
 65
   257
 75
     2
175
     1
 42
40.0
 92
        0
 66
   257
 43
1.0
 76
     1
 77
     6
 78
     2
 67
     7
 79
     3
170
     0
171
     0
290
     0
174
     0
 93
        1
 44
0.0
173
     0
291
     0
 45
0.0
1001
ACAD
1000
AcDbSavedByObjectVersion
1070
     0
  0
VISUALSTYLE
  5
30
102
{ACAD_REACTORS
330
2A
102
}
102
{ACAD_XDICTIONARY
360
2D4
102
}
330
2A
100
AcDbVisualStyle
  2
3dWireframe
 70
     5
 71
     0
 72
     2
 73
     0
 90
        0
 40
-0.6
 41
-30.0
 62
     5
 63
     7
421
 16777215
 74
     1
 91
        4
 64
     7
 65
   257
 75
     1
175
     1
 42
1.0
 92
        0
 66
   257
 43
1.0
 76
     1
 77
     6
 78
     2
 67
     7
 79
     5
170
     0
171
     0
290
     0
174
     0
 93
        1
 44
0.0
173
     0
291
     0
 45
0.0
1001
ACAD
1000
AcDbSavedByObjectVersion
1070
     0
  0
VISUALSTYLE
  5
32
102
{ACAD_REACTORS
330
2A
102
}
102
{ACAD_XDICTIONARY
360
2D8
102
}
330
2A
100
AcDbVisualStyle
  2
Basic
 70
     7
 71
     1
 72
     0
 73
     1
 90
        0
 40
-0.6
 41
-30.0
 62
     5
 63
     7
421
 16777215
 74
     0
 91
        4
 64
     7
 65
   257
 75
     1
175
     1
 42
1.0
 92
        8
 66
     7
 43
1.0
 76
     1
 77
     6
 78
     2
 67
     7
 79
     5
170
     0
171
     0
290
     0
174
     0
 93
        1
 44
0.0
173
     0
291
     1
 45
0.0
1001
ACAD
1000
AcDbSavedByObjectVersion
1070
     0
  0
VISUALSTYLE
  5
36
102
{ACAD_REACTORS
330
2A
102
}
102
{ACAD_XDICTIONARY
360
2E0
102
}
330
2A
100
AcDbVisualStyle
  2
Brighten
 70
    12
 71
     2
 72
     2
 73
     0
 90
        0
 40
-0.6
 41
-30.0
 62
     5
 63
     7
421
 16777215
 74
     1
 91
        4
 64
     7
 65
   257
 75
     1
175
     1
 42
1.0
 92
        8
 66
     7
 43
1.0
 76
     1
 77
     6
 78
     2
 67
     7
 79
     5
170
     0
171
     0
290
     0
174
     0
 93
        1
 44
50.0
173
     0
291
     1
 45
0.0
1001
ACAD
1000
AcDbSavedByObjectVersion
1070
     0
  0
VISUALSTYLE
  5
3A
102
{ACAD_REACTORS
330
2A
102
}
102
{ACAD_XDICTIONARY
360
2E8
102
}
330
2A
100
AcDbVisualStyle
  2
ColorChange
 70
    16
 71
     2
 72
     2
 73
     3
 90
        0
 40
-0.6
 41
-30.0
 62
     5
 63
     8
421
  8421504
 74
     1
 91
        4
 64
     7
 65
   257
 75
     1
175
     1
 42
1.0
 92
        8
 66
     8
424
  8421504
 43
1.0
 76
     1
 77
     6
 78
     2
 67
     7
 79
     5
170
     0
171
     0
290
     0
174
     0
 93
        1
 44
0.0
173
     0
291
     1
 45
0.0
1001
ACAD
1000
AcDbSavedByObjectVersion
1070
     0
  0
VISUALSTYLE
  5
34
102
{ACAD_REACTORS
330
2A
102
}
102
{ACAD_XDICTIONARY
360
2DC
102
}
330
2A
100
AcDbVisualStyle
  2
Conceptual
 70
     9
 71
     3
 72
     2
 73
     0
 90
        0
 40
-0.6
 41
-30.0
 62
     5
 63
     7
421
 16777215
 74
     2
 91
        2
 64
     7
 65
   257
 75
     1
175
     1
 42
40.0
 92
        8
 66
     7
 43
1.0
 76
     1
 77
     6
 78
     2
 67
     7
 79
     3
170
     0
171
     0
290
     0
174
     0
 93
        1
 44
0.0
173
     0
291
     0
 45
0.0
1001
ACAD
1000
AcDbSavedByObjectVersion
1070
     0
  0
VISUALSTYLE
  5
35
102
{ACAD_REACTORS
330
2A
102
}
102
{ACAD_XDICTIONARY
360
2DE
102
}
330
2A
100
AcDbVisualStyle
  2
Dim
 70
    11
 71
     2
 72
     2
 73
     0
 90
        0
 40
-0.6
 41
-30.0
 62
     5
 63
     7
421
 16777215
 74
     1
 91
        4
 64
     7
 65
   257
 75
     1
175
     1
 42
1.0
 92
        8
 66
     7
 43
1.0
 76
     1
 77
     6
 78
     2
 67
     7
 79
     5
170
     0
171
     0
290
     0
174
     0
 93
        1
 44
-50.0
173
     0
291
     1
 45
0.0
1001
ACAD
1000
AcDbSavedByObjectVersion
1070
     0
  0
VISUALSTYLE
  5
39
102
{ACAD_REACTORS
330
2A
102
}
102
{ACAD_XDICTIONARY
360
2E6
102
}
330
2A
100
AcDbVisualStyle
  2
Facepattern
 70
    15
 71
     2
 72
     2
 73
     0
 90
        0
 40
-0.6
 41
-30.0
 62
     5
 63
     7
421
 16777215
 74
     1
 91
        4
 64
     7
 65
   257
 75
     1
175
     1
 42
1.0
 92
        8
 66
     7
 43
1.0
 76
     1
 77
     6
 78
     2
 67
     7
 79
     5
170
     0
171
     0
290
     0
174
     0
 93
        1
 44
0.0
173
     0
291
     1
 45
0.0
1001
ACAD
1000
AcDbSavedByObjectVersion
1070
     0
  0
VISUALSTYLE
  5
2B
102
{ACAD_REACTORS
330
2A
102
}
102
{ACAD_XDICTIONARY
360
2CA
102
}
330
2A
100
AcDbVisualStyle
  2
Flat
 70
     0
 71
     2
 72
     1
 73
     1
 90
        2
 40
-0.6
 41
30.0
 62
     5
 63
     7
421
 16777215
 74
     0
 91
        4
 64
     7
 65
   257
 75
     1
175
     1
 42
1.0
 92
        8
 66
     7
 43
1.0
 76
     1
 77
     6
 78
     2
 67
     7
 79
     5
170
     0
171
     0
290
     0
174
     0
 93
       13
 44
0.0
173
     0
291
     1
 45
0.0
1001
ACAD
1000
AcDbSavedByObjectVersion
1070
     0
  0
VISUALSTYLE
  5
2C
102
{ACAD_REACTORS
330
2A
102
}
102
{ACAD_XDICTIONARY
360
2CC
102
}
330
2A
100
AcDbVisualStyle
  2
FlatWithEdges
 70
     1
 71
     2
 72
     1
 73
     1
 90
        2
 40
-0.6
 41
30.0
 62
     5
 63
     7
421
 16777215
 74
     1
 91
        4
 64
     7
 65
   257
 75
     1
175
     1
 42
1.0
 92
        0
 66
   257
 43
1.0
 76
     1
 77
     6
 78
     2
 67
     7
 79
     5
170
     0
171
     0
290
     0
174
     0
 93
       13
 44
0.0
173
     0
291
     1
 45
0.0
1001
ACAD
1000
AcDbSavedByObjectVersion
1070
     0
  0
VISUALSTYLE
  5
2D
102
{ACAD_REACTORS
330
2A
102
}
102
{ACAD_XDICTIONARY
360
2CE
102
}
330
2A
100
AcDbVisualStyle
  2
Gouraud
 70
     2
 71
     2
 72
     2
 73
     1
 90
        2
 40
-0.6
 41
30.0
 62
     5
 63
     7
421
 16777215
 74
     0
 91
        4
 64
     7
 65
   257
 75
     1
175
     1
 42
1.0
 92
        0
 66
     7
 43
1.0
 76
     1
 77
     6
 78
     2
 67
     7
 79
     5
170
     0
171
     0
290
     0
174
     0
 93
       13
 44
0.0
173
     0
291
     1
 45
0.0
1001
ACAD
1000
AcDbSavedByObjectVersion
1070
     0
  0
VISUALSTYLE
  5
2E
102
{ACAD_REACTORS
330
2A
102
}
102
{ACAD_XDICTIONARY
360
2D0
102
}
330
2A
100
AcDbVisualStyle
  2
GouraudWithEdges
 70
     3
 71
     2
 72
     2
 73
     1
 90
        2
 40
-0.6
 41
30.0
 62
     5
 63
     7
421
 16777215
 74
     1
 91
        4
 64
     7
 65
   257
 75
     1
175
     1
 42
1.0
 92
        0
 66
   257
 43
1.0
 76
     1
 77
     6
 78
     2
 67
     7
 79
     5
170
     0
171
     0
290
     0
174
     0
 93
       13
 44
0.0
173
     0
291
     1
 45
0.0
1001
ACAD
1000
AcDbSavedByObjectVersion
1070
     0
  0
VISUALSTYLE
  5
38
102
{ACAD_REACTORS
330
2A
102
}
102
{ACAD_XDICTIONARY
360
2E4
102
}
330
2A
100
AcDbVisualStyle
  2
Linepattern
 70
    14
 71
     2
 72
     2
 73
     0
 90
        0
 40
-0.6
 41
-30.0
 62
     5
 63
     7
421
 16777215
 74
     1
 91
        4
 64
     7
 65
   257
 75
     7
175
     7
 42
1.0
 92
        8
 66
     7
 43
1.0
 76
     1
 77
     6
 78
     2
 67
     7
 79
     5
170
     0
171
     0
290
     0
174
     0
 93
        1
 44
0.0
173
     0
291
     1
 45
0.0
1001
ACAD
1000
AcDbSavedByObjectVersion
1070
     0
  0
VISUALSTYLE
  5
33
102
{ACAD_REACTORS
330
2A
102
}
102
{ACAD_XDICTIONARY
360
2DA
102
}
330
2A
100
AcDbVisualStyle
  2
Realistic
 70
     8
 71
     2
 72
     2
 73
     0
 90
        0
 40
-0.6
 41
-30.0
 62
     5
 63
     7
421
 16777215
 74
     1
 91
        0
 64
     7
 65
   257
 75
     1
175
     1
 42
1.0
 92
        8
 66
     8
424
  7895160
 43
1.0
 76
     1
 77
     6
 78
     2
 67
     7
 79
     5
170
     0
171
     0
290
     0
174
     0
 93
       13
 44
0.0
173
     0
291
     0
 45
0.0
1001
ACAD
1000
AcDbSavedByObjectVersion
1070
     0
  0
VISUALSTYLE
  5
37
102
{ACAD_REACTORS
330
2A
102
}
102
{ACAD_XDICTIONARY
360
2E2
102
}
330
2A
100
AcDbVisualStyle
  2
Thicken
 70
    13
 71
     2
 72
     2
 73
     0
 90
        0
 40
-0.6
 41
-30.0
 62
     5
 63
     7
421
 16777215
 74
     1
 91
        4
 64
     7
 65
   257
 75
     1
175
     1
 42
1.0
 92
       12
 66
     7
 43
1.0
 76
     1
 77
     6
 78
     2
 67
     7
 79
     5
170
     0
171
     0
290
     0
174
     0
 93
        1
 44
0.0
173
     0
291
     1
 45
0.0
1001
ACAD
1000
AcDbSavedByObjectVersion
1070
     0
  0
DICTIONARYVAR
  5
2C9
102
{ACAD_REACTORS
330
2C8
102
}
330
2C8
100
DictionaryVariables
280
     0
  1
1:1
  0
DICTIONARY
  5
2EC
330
3D
100
AcDbDictionary
280
     1
281
     1
  3
ACAD_XREC_ROUNDTRIP
360
2ED
  0
DICTIONARY
  5
2EA
330
3C
100
AcDbDictionary
280
     1
281
     1
  3
ACAD_XREC_ROUNDTRIP
360
2EB
  0
DICTIONARY
  5
2EE
330
3E
100
AcDbDictionary
280
     1
281
     1
  3
ACAD_XREC_ROUNDTRIP
360
2EF
  0
DICTIONARY
  5
2D2
330
2F
100
AcDbDictionary
280
     1
281
     1
  3
ACAD_XREC_ROUNDTRIP
360
2D3
  0
DICTIONARY
  5
2D6
330
31
100
AcDbDictionary
280
     1
281
     1
  3
ACAD_XREC_ROUNDTRIP
360
2D7
  0
DICTIONARY
  5
2D4
330
30
100
AcDbDictionary
280
     1
281
     1
  3
ACAD_XREC_ROUNDTRIP
360
2D5
  0
DICTIONARY
  5
2D8
330
32
100
AcDbDictionary
280
     1
281
     1
  3
ACAD_XREC_ROUNDTRIP
360
2D9
  0
DICTIONARY
  5
2E0
330
36
100
AcDbDictionary
280
     1
281
     1
  3
ACAD_XREC_ROUNDTRIP
360
2E1
  0
DICTIONARY
  5
2E8
330
3A
100
AcDbDictionary
280
     1
281
     1
  3
ACAD_XREC_ROUNDTRIP
360
2E9
  0
DICTIONARY
  5
2DC
330
34
100
AcDbDictionary
280
     1
281
     1
  3
ACAD_XREC_ROUNDTRIP
360
2DD
  0
DICTIONARY
  5
2DE
330
35
100
AcDbDictionary
280
     1
281
     1
  3
ACAD_XREC_ROUNDTRIP
360
2DF
  0
DICTIONARY
  5
2E6
330
39
100
AcDbDictionary
280
     1
281
     1
  3
ACAD_XREC_ROUNDTRIP
360
2E7
  0
DICTIONARY
  5
2CA
330
2B
100
AcDbDictionary
280
     1
281
     1
  3
ACAD_XREC_ROUNDTRIP
360
2CB
  0
DICTIONARY
  5
2CC
330
2C
100
AcDbDictionary
280
     1
281
     1
  3
ACAD_XREC_ROUNDTRIP
360
2CD
  0
DICTIONARY
  5
2CE
330
2D
100
AcDbDictionary
280
     1
281
     1
  3
ACAD_XREC_ROUNDTRIP
360
2CF
  0
DICTIONARY
  5
2D0
330
2E
100
AcDbDictionary
280
     1
281
     1
  3
ACAD_XREC_ROUNDTRIP
360
2D1
  0
DICTIONARY
  5
2E4
330
38
100
AcDbDictionary
280
     1
281
     1
  3
ACAD_XREC_ROUNDTRIP
360
2E5
  0
DICTIONARY
  5
2DA
330
33
100
AcDbDictionary
280
     1
281
     1
  3
ACAD_XREC_ROUNDTRIP
360
2DB
  0
DICTIONARY
  5
2E2
330
37
100
AcDbDictionary
280
     1
281
     1
  3
ACAD_XREC_ROUNDTRIP
360
2E3
  0
XRECORD
  5
2ED
102
{ACAD_REACTORS
330
2EC
102
}
330
2EC
100
AcDbXrecord
280
     1
102
MATERIAL
148
0.0
149
0.0
149
0.0
 93
        0
 94
      127
282
     0
 72
     1
 77
     1
171
     1
175
     1
179
     1
273
     0
  0
XRECORD
  5
2EB
102
{ACAD_REACTORS
330
2EA
102
}
330
2EA
100
AcDbXrecord
280
     1
102
MATERIAL
148
0.0
149
0.0
149
0.0
 93
        0
 94
      127
282
     0
 72
     1
 77
     1
171
     1
175
     1
179
     1
273
     0
  0
XRECORD
  5
2EF
102
{ACAD_REACTORS
330
2EE
102
}
330
2EE
100
AcDbXrecord
280
     1
102
MATERIAL
148
0.0
149
0.0
149
0.0
 93
        0
 94
      127
282
     0
 72
     1
 77
     1
171
     1
175
     1
179
     1
273
     0
  0
XRECORD
  5
2D3
102
{ACAD_REACTORS
330
2D2
102
}
330
2D2
100
AcDbXrecord
280
     1
102
RTVSPropertyOp0
 70
     1
102
RTVSPropertyOp1
 70
     1
102
RTVSPropertyOp2
 70
     1
102
RTVSPropertyOp3
 70
     1
102
RTVSPropertyOp4
 70
     1
102
RTVSPropertyOp5
 70
     1
102
RTVSPropertyOp6
 70
     1
102
RTVSPropertyOp7
 70
     1
102
RTVSPropertyOp8
 70
     1
102
RTVSPropertyOp9
 70
     1
102
RTVSPropertyOp10
 70
     1
102
RTVSPropertyOp11
 70
     1
102
RTVSPropertyOp12
 70
     1
102
RTVSPropertyOp13
 70
     1
102
RTVSPropertyOp14
 70
     1
102
RTVSPropertyOp15
 70
     1
102
RTVSPropertyOp16
 70
     1
102
RTVSPropertyOp17
 70
     1
102
RTVSPropertyOp18
 70
     1
102
RTVSPropertyOp19
 70
     1
102
RTVSPropertyOp20
 70
     1
102
RTVSPropertyOp21
 70
     1
102
RTVSPropertyOp22
 70
     1
102
RTVSPropertyOp23
 70
     1
102
RTVSPropertyOp24
 70
     1
102
RTVSPropertyOp25
 70
     1
102
RTVSPropertyOp26
 70
     1
102
RTVSPropertyOp27
 70
     1
  0
XRECORD
  5
2D7
102
{ACAD_REACTORS
330
2D6
102
}
330
2D6
100
AcDbXrecord
280
     1
102
RTVSPropertyOp0
 70
     1
102
RTVSPropertyOp1
 70
     1
102
RTVSPropertyOp2
 70
     1
102
RTVSPropertyOp3
 70
     1
102
RTVSPropertyOp4
 70
     1
102
RTVSPropertyOp5
 70
     1
102
RTVSPropertyOp6
 70
     1
102
RTVSPropertyOp7
 70
     1
102
RTVSPropertyOp8
 70
     1
102
RTVSPropertyOp9
 70
     1
102
RTVSPropertyOp10
 70
     1
102
RTVSPropertyOp11
 70
     1
102
RTVSPropertyOp12
 70
     1
102
RTVSPropertyOp13
 70
     1
102
RTVSPropertyOp14
 70
     1
102
RTVSPropertyOp15
 70
     1
102
RTVSPropertyOp16
 70
     1
102
RTVSPropertyOp17
 70
     1
102
RTVSPropertyOp18
 70
     1
102
RTVSPropertyOp19
 70
     1
102
RTVSPropertyOp20
 70
     1
102
RTVSPropertyOp21
 70
     1
102
RTVSPropertyOp22
 70
     1
102
RTVSPropertyOp23
 70
     1
102
RTVSPropertyOp24
 70
     1
102
RTVSPropertyOp25
 70
     1
102
RTVSPropertyOp26
 70
     1
102
RTVSPropertyOp27
 70
     1
  0
XRECORD
  5
2D5
102
{ACAD_REACTORS
330
2D4
102
}
330
2D4
100
AcDbXrecord
280
     1
102
RTVSPropertyOp0
 70
     1
102
RTVSPropertyOp1
 70
     1
102
RTVSPropertyOp2
 70
     1
102
RTVSPropertyOp3
 70
     1
102
RTVSPropertyOp4
 70
     1
102
RTVSPropertyOp5
 70
     1
102
RTVSPropertyOp6
 70
     1
102
RTVSPropertyOp7
 70
     1
102
RTVSPropertyOp8
 70
     1
102
RTVSPropertyOp9
 70
     1
102
RTVSPropertyOp10
 70
     1
102
RTVSPropertyOp11
 70
     1
102
RTVSPropertyOp12
 70
     1
102
RTVSPropertyOp13
 70
     1
102
RTVSPropertyOp14
 70
     1
102
RTVSPropertyOp15
 70
     1
102
RTVSPropertyOp16
 70
     1
102
RTVSPropertyOp17
 70
     1
102
RTVSPropertyOp18
 70
     1
102
RTVSPropertyOp19
 70
     1
102
RTVSPropertyOp20
 70
     1
102
RTVSPropertyOp21
 70
     1
102
RTVSPropertyOp22
 70
     1
102
RTVSPropertyOp23
 70
     1
102
RTVSPropertyOp24
 70
     1
102
RTVSPropertyOp25
 70
     1
102
RTVSPropertyOp26
 70
     1
102
RTVSPropertyOp27
 70
     1
  0
XRECORD
  5
2D9
102
{ACAD_REACTORS
330
2D8
102
}
330
2D8
100
AcDbXrecord
280
     1
102
RTVSPropertyOp0
 70
     1
102
RTVSPropertyOp1
 70
     1
102
RTVSPropertyOp2
 70
     1
102
RTVSPropertyOp3
 70
     1
102
RTVSPropertyOp4
 70
     1
102
RTVSPropertyOp5
 70
     1
102
RTVSPropertyOp6
 70
     1
102
RTVSPropertyOp7
 70
     1
102
RTVSPropertyOp8
 70
     1
102
RTVSPropertyOp9
 70
     1
102
RTVSPropertyOp10
 70
     1
102
RTVSPropertyOp11
 70
     1
102
RTVSPropertyOp12
 70
     1
102
RTVSPropertyOp13
 70
     1
102
RTVSPropertyOp14
 70
     1
102
RTVSPropertyOp15
 70
     1
102
RTVSPropertyOp16
 70
     1
102
RTVSPropertyOp17
 70
     1
102
RTVSPropertyOp18
 70
     1
102
RTVSPropertyOp19
 70
     1
102
RTVSPropertyOp20
 70
     1
102
RTVSPropertyOp21
 70
     1
102
RTVSPropertyOp22
 70
     1
102
RTVSPropertyOp23
 70
     1
102
RTVSPropertyOp24
 70
     1
102
RTVSPropertyOp25
 70
     1
102
RTVSPropertyOp26
 70
     1
102
RTVSPropertyOp27
 70
     1
  0
XRECORD
  5
2E1
102
{ACAD_REACTORS
330
2E0
102
}
330
2E0
100
AcDbXrecord
280
     1
102
RTVSPropertyOp0
 70
     1
102
RTVSPropertyOp1
 70
     1
102
RTVSPropertyOp2
 70
     1
102
RTVSPropertyOp3
 70
     1
102
RTVSPropertyOp4
 70
     1
102
RTVSPropertyOp5
 70
     1
102
RTVSPropertyOp6
 70
     1
102
RTVSPropertyOp7
 70
     1
102
RTVSPropertyOp8
 70
     1
102
RTVSPropertyOp9
 70
     1
102
RTVSPropertyOp10
 70
     1
102
RTVSPropertyOp11
 70
     1
102
RTVSPropertyOp12
 70
     1
102
RTVSPropertyOp13
 70
     1
102
RTVSPropertyOp14
 70
     1
102
RTVSPropertyOp15
 70
     1
102
RTVSPropertyOp16
 70
     1
102
RTVSPropertyOp17
 70
     1
102
RTVSPropertyOp18
 70
     1
102
RTVSPropertyOp19
 70
     1
102
RTVSPropertyOp20
 70
     1
102
RTVSPropertyOp21
 70
     1
102
RTVSPropertyOp22
 70
     1
102
RTVSPropertyOp23
 70
     1
102
RTVSPropertyOp24
 70
     1
102
RTVSPropertyOp25
 70
     1
102
RTVSPropertyOp26
 70
     1
102
RTVSPropertyOp27
 70
     1
  0
XRECORD
  5
2E9
102
{ACAD_REACTORS
330
2E8
102
}
330
2E8
100
AcDbXrecord
280
     1
102
RTVSPropertyOp0
 70
     1
102
RTVSPropertyOp1
 70
     1
102
RTVSPropertyOp2
 70
     1
102
RTVSPropertyOp3
 70
     1
102
RTVSPropertyOp4
 70
     1
102
RTVSPropertyOp5
 70
     1
102
RTVSPropertyOp6
 70
     1
102
RTVSPropertyOp7
 70
     1
102
RTVSPropertyOp8
 70
     1
102
RTVSPropertyOp9
 70
     1
102
RTVSPropertyOp10
 70
     1
102
RTVSPropertyOp11
 70
     1
102
RTVSPropertyOp12
 70
     1
102
RTVSPropertyOp13
 70
     1
102
RTVSPropertyOp14
 70
     1
102
RTVSPropertyOp15
 70
     1
102
RTVSPropertyOp16
 70
     1
102
RTVSPropertyOp17
 70
     1
102
RTVSPropertyOp18
 70
     1
102
RTVSPropertyOp19
 70
     1
102
RTVSPropertyOp20
 70
     1
102
RTVSPropertyOp21
 70
     1
102
RTVSPropertyOp22
 70
     1
102
RTVSPropertyOp23
 70
     1
102
RTVSPropertyOp24
 70
     1
102
RTVSPropertyOp25
 70
     1
102
RTVSPropertyOp26
 70
     1
102
RTVSPropertyOp27
 70
     1
  0
XRECORD
  5
2DD
102
{ACAD_REACTORS
330
2DC
102
}
330
2DC
100
AcDbXrecord
280
     1
102
RTVSPropertyOp0
 70
     1
102
RTVSPropertyOp1
 70
     1
102
RTVSPropertyOp2
 70
     1
102
RTVSPropertyOp3
 70
     1
102
RTVSPropertyOp4
 70
     1
102
RTVSPropertyOp5
 70
     1
102
RTVSPropertyOp6
 70
     1
102
RTVSPropertyOp7
 70
     1
102
RTVSPropertyOp8
 70
     1
102
RTVSPropertyOp9
 70
     1
102
RTVSPropertyOp10
 70
     1
102
RTVSPropertyOp11
 70
     1
102
RTVSPropertyOp12
 70
     1
102
RTVSPropertyOp13
 70
     1
102
RTVSPropertyOp14
 70
     1
102
RTVSPropertyOp15
 70
     1
102
RTVSPropertyOp16
 70
     1
102
RTVSPropertyOp17
 70
     1
102
RTVSPropertyOp18
 70
     1
102
RTVSPropertyOp19
 70
     1
102
RTVSPropertyOp20
 70
     1
102
RTVSPropertyOp21
 70
     1
102
RTVSPropertyOp22
 70
     1
102
RTVSPropertyOp23
 70
     1
102
RTVSPropertyOp24
 70
     1
102
RTVSPropertyOp25
 70
     1
102
RTVSPropertyOp26
 70
     1
102
RTVSPropertyOp27
 70
     1
  0
XRECORD
  5
2DF
102
{ACAD_REACTORS
330
2DE
102
}
330
2DE
100
AcDbXrecord
280
     1
102
RTVSPropertyOp0
 70
     1
102
RTVSPropertyOp1
 70
     1
102
RTVSPropertyOp2
 70
     1
102
RTVSPropertyOp3
 70
     1
102
RTVSPropertyOp4
 70
     1
102
RTVSPropertyOp5
 70
     1
102
RTVSPropertyOp6
 70
     1
102
RTVSPropertyOp7
 70
     1
102
RTVSPropertyOp8
 70
     1
102
RTVSPropertyOp9
 70
     1
102
RTVSPropertyOp10
 70
     1
102
RTVSPropertyOp11
 70
     1
102
RTVSPropertyOp12
 70
     1
102
RTVSPropertyOp13
 70
     1
102
RTVSPropertyOp14
 70
     1
102
RTVSPropertyOp15
 70
     1
102
RTVSPropertyOp16
 70
     1
102
RTVSPropertyOp17
 70
     1
102
RTVSPropertyOp18
 70
     1
102
RTVSPropertyOp19
 70
     1
102
RTVSPropertyOp20
 70
     1
102
RTVSPropertyOp21
 70
     1
102
RTVSPropertyOp22
 70
     1
102
RTVSPropertyOp23
 70
     1
102
RTVSPropertyOp24
 70
     1
102
RTVSPropertyOp25
 70
     1
102
RTVSPropertyOp26
 70
     1
102
RTVSPropertyOp27
 70
     1
  0
XRECORD
  5
2E7
102
{ACAD_REACTORS
330
2E6
102
}
330
2E6
100
AcDbXrecord
280
     1
102
RTVSPropertyOp0
 70
     1
102
RTVSPropertyOp1
 70
     1
102
RTVSPropertyOp2
 70
     1
102
RTVSPropertyOp3
 70
     1
102
RTVSPropertyOp4
 70
     1
102
RTVSPropertyOp5
 70
     1
102
RTVSPropertyOp6
 70
     1
102
RTVSPropertyOp7
 70
     1
102
RTVSPropertyOp8
 70
     1
102
RTVSPropertyOp9
 70
     1
102
RTVSPropertyOp10
 70
     1
102
RTVSPropertyOp11
 70
     1
102
RTVSPropertyOp12
 70
     1
102
RTVSPropertyOp13
 70
     1
102
RTVSPropertyOp14
 70
     1
102
RTVSPropertyOp15
 70
     1
102
RTVSPropertyOp16
 70
     1
102
RTVSPropertyOp17
 70
     1
102
RTVSPropertyOp18
 70
     1
102
RTVSPropertyOp19
 70
     1
102
RTVSPropertyOp20
 70
     1
102
RTVSPropertyOp21
 70
     1
102
RTVSPropertyOp22
 70
     1
102
RTVSPropertyOp23
 70
     1
102
RTVSPropertyOp24
 70
     1
102
RTVSPropertyOp25
 70
     1
102
RTVSPropertyOp26
 70
     1
102
RTVSPropertyOp27
 70
     1
  0
XRECORD
  5
2CB
102
{ACAD_REACTORS
330
2CA
102
}
330
2CA
100
AcDbXrecord
280
     1
102
RTVSPropertyOp0
 70
     1
102
RTVSPropertyOp1
 70
     1
102
RTVSPropertyOp2
 70
     1
102
RTVSPropertyOp3
 70
     1
102
RTVSPropertyOp4
 70
     1
102
RTVSPropertyOp5
 70
     1
102
RTVSPropertyOp6
 70
     1
102
RTVSPropertyOp7
 70
     1
102
RTVSPropertyOp8
 70
     1
102
RTVSPropertyOp9
 70
     1
102
RTVSPropertyOp10
 70
     1
102
RTVSPropertyOp11
 70
     1
102
RTVSPropertyOp12
 70
     1
102
RTVSPropertyOp13
 70
     1
102
RTVSPropertyOp14
 70
     1
102
RTVSPropertyOp15
 70
     1
102
RTVSPropertyOp16
 70
     1
102
RTVSPropertyOp17
 70
     1
102
RTVSPropertyOp18
 70
     1
102
RTVSPropertyOp19
 70
     1
102
RTVSPropertyOp20
 70
     1
102
RTVSPropertyOp21
 70
     1
102
RTVSPropertyOp22
 70
     1
102
RTVSPropertyOp23
 70
     1
102
RTVSPropertyOp24
 70
     1
102
RTVSPropertyOp25
 70
     1
102
RTVSPropertyOp26
 70
     1
102
RTVSPropertyOp27
 70
     1
  0
XRECORD
  5
2CD
102
{ACAD_REACTORS
330
2CC
102
}
330
2CC
100
AcDbXrecord
280
     1
102
RTVSPropertyOp0
 70
     1
102
RTVSPropertyOp1
 70
     1
102
RTVSPropertyOp2
 70
     1
102
RTVSPropertyOp3
 70
     1
102
RTVSPropertyOp4
 70
     1
102
RTVSPropertyOp5
 70
     1
102
RTVSPropertyOp6
 70
     1
102
RTVSPropertyOp7
 70
     1
102
RTVSPropertyOp8
 70
     1
102
RTVSPropertyOp9
 70
     1
102
RTVSPropertyOp10
 70
     1
102
RTVSPropertyOp11
 70
     1
102
RTVSPropertyOp12
 70
     1
102
RTVSPropertyOp13
 70
     1
102
RTVSPropertyOp14
 70
     1
102
RTVSPropertyOp15
 70
     1
102
RTVSPropertyOp16
 70
     1
102
RTVSPropertyOp17
 70
     1
102
RTVSPropertyOp18
 70
     1
102
RTVSPropertyOp19
 70
     1
102
RTVSPropertyOp20
 70
     1
102
RTVSPropertyOp21
 70
     1
102
RTVSPropertyOp22
 70
     1
102
RTVSPropertyOp23
 70
     1
102
RTVSPropertyOp24
 70
     1
102
RTVSPropertyOp25
 70
     1
102
RTVSPropertyOp26
 70
     1
102
RTVSPropertyOp27
 70
     1
  0
XRECORD
  5
2CF
102
{ACAD_REACTORS
330
2CE
102
}
330
2CE
100
AcDbXrecord
280
     1
102
RTVSPropertyOp0
 70
     1
102
RTVSPropertyOp1
 70
     1
102
RTVSPropertyOp2
 70
     1
102
RTVSPropertyOp3
 70
     1
102
RTVSPropertyOp4
 70
     1
102
RTVSPropertyOp5
 70
     1
102
RTVSPropertyOp6
 70
     1
102
RTVSPropertyOp7
 70
     1
102
RTVSPropertyOp8
 70
     1
102
RTVSPropertyOp9
 70
     1
102
RTVSPropertyOp10
 70
     1
102
RTVSPropertyOp11
 70
     1
102
RTVSPropertyOp12
 70
     1
102
RTVSPropertyOp13
 70
     1
102
RTVSPropertyOp14
 70
     1
102
RTVSPropertyOp15
 70
     1
102
RTVSPropertyOp16
 70
     1
102
RTVSPropertyOp17
 70
     1
102
RTVSPropertyOp18
 70
     1
102
RTVSPropertyOp19
 70
     1
102
RTVSPropertyOp20
 70
     1
102
RTVSPropertyOp21
 70
     1
102
RTVSPropertyOp22
 70
     1
102
RTVSPropertyOp23
 70
     1
102
RTVSPropertyOp24
 70
     1
102
RTVSPropertyOp25
 70
     1
102
RTVSPropertyOp26
 70
     1
102
RTVSPropertyOp27
 70
     1
  0
XRECORD
  5
2D1
102
{ACAD_REACTORS
330
2D0
102
}
330
2D0
100
AcDbXrecord
280
     1
102
RTVSPropertyOp0
 70
     1
102
RTVSPropertyOp1
 70
     1
102
RTVSPropertyOp2
 70
     1
102
RTVSPropertyOp3
 70
     1
102
RTVSPropertyOp4
 70
     1
102
RTVSPropertyOp5
 70
     1
102
RTVSPropertyOp6
 70
     1
102
RTVSPropertyOp7
 70
     1
102
RTVSPropertyOp8
 70
     1
102
RTVSPropertyOp9
 70
     1
102
RTVSPropertyOp10
 70
     1
102
RTVSPropertyOp11
 70
     1
102
RTVSPropertyOp12
 70
     1
102
RTVSPropertyOp13
 70
     1
102
RTVSPropertyOp14
 70
     1
102
RTVSPropertyOp15
 70
     1
102
RTVSPropertyOp16
 70
     1
102
RTVSPropertyOp17
 70
     1
102
RTVSPropertyOp18
 70
     1
102
RTVSPropertyOp19
 70
     1
102
RTVSPropertyOp20
 70
     1
102
RTVSPropertyOp21
 70
     1
102
RTVSPropertyOp22
 70
     1
102
RTVSPropertyOp23
 70
     1
102
RTVSPropertyOp24
 70
     1
102
RTVSPropertyOp25
 70
     1
102
RTVSPropertyOp26
 70
     1
102
RTVSPropertyOp27
 70
     1
  0
XRECORD
  5
2E5
102
{ACAD_REACTORS
330
2E4
102
}
330
2E4
100
AcDbXrecord
280
     1
102
RTVSPropertyOp0
 70
     1
102
RTVSPropertyOp1
 70
     1
102
RTVSPropertyOp2
 70
     1
102
RTVSPropertyOp3
 70
     1
102
RTVSPropertyOp4
 70
     1
102
RTVSPropertyOp5
 70
     1
102
RTVSPropertyOp6
 70
     1
102
RTVSPropertyOp7
 70
     1
102
RTVSPropertyOp8
 70
     1
102
RTVSPropertyOp9
 70
     1
102
RTVSPropertyOp10
 70
     1
102
RTVSPropertyOp11
 70
     1
102
RTVSPropertyOp12
 70
     1
102
RTVSPropertyOp13
 70
     1
102
RTVSPropertyOp14
 70
     1
102
RTVSPropertyOp15
 70
     1
102
RTVSPropertyOp16
 70
     1
102
RTVSPropertyOp17
 70
     1
102
RTVSPropertyOp18
 70
     1
102
RTVSPropertyOp19
 70
     1
102
RTVSPropertyOp20
 70
     1
102
RTVSPropertyOp21
 70
     1
102
RTVSPropertyOp22
 70
     1
102
RTVSPropertyOp23
 70
     1
102
RTVSPropertyOp24
 70
     1
102
RTVSPropertyOp25
 70
     1
102
RTVSPropertyOp26
 70
     1
102
RTVSPropertyOp27
 70
     1
  0
XRECORD
  5
2DB
102
{ACAD_REACTORS
330
2DA
102
}
330
2DA
100
AcDbXrecord
280
     1
102
RTVSPropertyOp0
 70
     1
102
RTVSPropertyOp1
 70
     1
102
RTVSPropertyOp2
 70
     1
102
RTVSPropertyOp3
 70
     1
102
RTVSPropertyOp4
 70
     1
102
RTVSPropertyOp5
 70
     1
102
RTVSPropertyOp6
 70
     1
102
RTVSPropertyOp7
 70
     1
102
RTVSPropertyOp8
 70
     1
102
RTVSPropertyOp9
 70
     1
102
RTVSPropertyOp10
 70
     1
102
RTVSPropertyOp11
 70
     1
102
RTVSPropertyOp12
 70
     1
102
RTVSPropertyOp13
 70
     1
102
RTVSPropertyOp14
 70
     1
102
RTVSPropertyOp15
 70
     1
102
RTVSPropertyOp16
 70
     1
102
RTVSPropertyOp17
 70
     1
102
RTVSPropertyOp18
 70
     1
102
RTVSPropertyOp19
 70
     1
102
RTVSPropertyOp20
 70
     1
102
RTVSPropertyOp21
 70
     1
102
RTVSPropertyOp22
 70
     1
102
RTVSPropertyOp23
 70
     1
102
RTVSPropertyOp24
 70
     1
102
RTVSPropertyOp25
 70
     1
102
RTVSPropertyOp26
 70
     1
102
RTVSPropertyOp27
 70
     1
  0
XRECORD
  5
2E3
102
{ACAD_REACTORS
330
2E2
102
}
330
2E2
100
AcDbXrecord
280
     1
102
RTVSPropertyOp0
 70
     1
102
RTVSPropertyOp1
 70
     1
102
RTVSPropertyOp2
 70
     1
102
RTVSPropertyOp3
 70
     1
102
RTVSPropertyOp4
 70
     1
102
RTVSPropertyOp5
 70
     1
102
RTVSPropertyOp6
 70
     1
102
RTVSPropertyOp7
 70
     1
102
RTVSPropertyOp8
 70
     1
102
RTVSPropertyOp9
 70
     1
102
RTVSPropertyOp10
 70
     1
102
RTVSPropertyOp11
 70
     1
102
RTVSPropertyOp12
 70
     1
102
RTVSPropertyOp13
 70
     1
102
RTVSPropertyOp14
 70
     1
102
RTVSPropertyOp15
 70
     1
102
RTVSPropertyOp16
 70
     1
102
RTVSPropertyOp17
 70
     1
102
RTVSPropertyOp18
 70
     1
102
RTVSPropertyOp19
 70
     1
102
RTVSPropertyOp20
 70
     1
102
RTVSPropertyOp21
 70
     1
102
RTVSPropertyOp22
 70
     1
102
RTVSPropertyOp23
 70
     1
102
RTVSPropertyOp24
 70
     1
102
RTVSPropertyOp25
 70
     1
102
RTVSPropertyOp26
 70
     1
102
RTVSPropertyOp27
 70
     1
  0
ENDSEC
  0
EOF
