999
DXF created by Inkscape
  0
SECTION
  2
HEADER
  9
$ACADVER
  1
AC1014
  9
$HANDSEED
  5
FFFF
  9
$MEASUREMENT
 70
     1
  0
ENDSEC
  0
SECTION
  2
TABLES
  0
TABLE
  2
VPORT
  5
8
330
0
100
AcDbSymbolTable
 70
     4
  0
VPORT
  5
2E
330
8
100
AcDbSymbolTableRecord
100
AcDbViewportTableRecord
  2
*ACTIVE
 70
     0
 10
0.0
 20
0.0
 11
1.0
 21
1.0
 12
210.0
 22
148.5
 13
0.0
 23
0.0
 14
10.0
 24
10.0
 15
10.0
 25
10.0
 16
0.0
 26
0.0
 36
1.0
 17
0.0
 27
0.0
 37
0.0
 40
341.0
 41
1.24
 42
50.0
 43
0.0
 44
0.0
 50
0.0
 51
0.0
 71
     0
 72
   100
 73
     1
 74
     3
 75
     0
 76
     0
 77
     0
 78
     0
  0
ENDTAB
  0
TABLE
  2
LTYPE
  5
5
330
0
100
AcDbSymbolTable
 70
     1
  0
LTYPE
  5
14
330
5
100
AcDbSymbolTableRecord
100
AcDbLinetypeTableRecord
  2
BYBLOCK
 70
     0
  3

 72
    65
 73
     0
 40
0.0
  0
LTYPE
  5
15
330
5
100
AcDbSymbolTableRecord
100
AcDbLinetypeTableRecord
  2
BYLAYER
 70
     0
  3

 72
    65
 73
     0
 40
0.0
  0
LTYPE
  5
16
330
5
100
AcDbSymbolTableRecord
100
AcDbLinetypeTableRecord
  2
CONTINUOUS
 70
     0
  3
Solid line
 72
    65
 73
     0
 40
0.0
  0
ENDTAB
  0
TABLE
  2
LAYER
  5
2
330
0
100
AcDbSymbolTable
 70
1
  0
LAYER
  5
10
330
2
100
AcDbSymbolTableRecord
100
AcDbLayerTableRecord
  2
0
 70
     0
 62
     7
  6
CONTINUOUS
  0
ENDTAB
  0
TABLE
  2
STYLE
  5
3
330
0
100
AcDbSymbolTable
 70
     1
  0
STYLE
  5
11
330
3
100
AcDbSymbolTableRecord
100
AcDbTextStyleTableRecord
  2
STANDARD
 70
     0
 40
0.0
 41
1.0
 50
0.0
 71
     0
 42
2.5
  3
txt
  4

  0
ENDTAB
  0
TABLE
  2
VIEW
  5
6
330
0
100
AcDbSymbolTable
 70
     0
  0
ENDTAB
  0
TABLE
  2
UCS
  5
7
330
0
100
AcDbSymbolTable
 70
     0
  0
ENDTAB
  0
TABLE
  2
APPID
  5
9
330
0
100
AcDbSymbolTable
 70
     2
  0
APPID
  5
12
330
9
100
AcDbSymbolTableRecord
100
AcDbRegAppTableRecord
  2
ACAD
 70
     0
  0
ENDTAB
  0
TABLE
  2
DIMSTYLE
  5
A
330
0
100
AcDbSymbolTable
 70
     1
  0
DIMSTYLE
105
27
330
A
100
AcDbSymbolTableRecord
100
AcDbDimStyleTableRecord
  2
ISO-25
 70
     0
  3

  4

  5

  6

  7

 40
1.0
 41
2.5
 42
0.625
 43
3.75
 44
1.25
 45
0.0
 46
0.0
 47
0.0
 48
0.0
140
2.5
141
2.5
142
0.0
143
0.03937007874016
144
1.0
145
0.0
146
1.0
147
0.625
 71
     0
 72
     0
 73
     0
 74
     0
 75
     0
 76
     0
 77
     1
 78
     8
170
     0
171
     3
172
     1
173
     0
174
     0
175
     0
176
     0
177
     0
178
     0
270
     2
271
     2
272
     2
273
     2
274
     3
340
11
275
     0
280
     0
281
     0
282
     0
283
     0
284
     8
285
     0
286
     0
287
     3
288
     0
  0
ENDTAB
  0
TABLE
  2
BLOCK_RECORD
  5
1
330
0
100
AcDbSymbolTable
 70
     1
  0
BLOCK_RECORD
  5
1F
330
1
100
AcDbSymbolTableRecord
100
AcDbBlockTableRecord
  2
*MODEL_SPACE
  0
BLOCK_RECORD
  5
1B
330
1
100
AcDbSymbolTableRecord
100
AcDbBlockTableRecord
  2
*PAPER_SPACE
  0
ENDTAB
  0
ENDSEC
  0
SECTION
  2
BLOCKS
  0
BLOCK
  5
20
330
1F
100
AcDbEntity
  8
0
100
AcDbBlockBegin
  2
*MODEL_SPACE
 70
     0
 10
0.0
 20
0.0
 30
0.0
  3
*MODEL_SPACE
  1

  0
ENDBLK
  5
21
330
1F
100
AcDbEntity
  8
0
100
AcDbBlockEnd
  0
BLOCK
  5
1C
330
1B
100
AcDbEntity
 67
     1
  8
0
100
AcDbBlockBegin
  2
*PAPER_SPACE
  1

  0
ENDBLK
  5
1D
330
1B
100
AcDbEntity
 67
     1
  8
0
100
AcDbBlockEnd
  0
ENDSEC
  0
SECTION
  2
ENTITIES
  0
SPLINE
  5
100
100
AcDbEntity
  8
0
 62
7
100
AcDbSpline
 70
8
 71
3
 72
8
 73
4
 74
0
 40
0
 40
0
 40
0
 40
0
 40
1
 40
1
 40
1
 40
1
 10
247.083529
 20
331.356699
 30
0.0
 10
245.012441
 20
331.356699
 30
0.0
 10
243.335251
 20
333.033889
 30
0.0
 10
243.335251
 20
335.104949
 30
0.0
  0
SPLINE
  5
101
100
AcDbEntity
  8
0
 62
7
100
AcDbSpline
 70
8
 71
3
 72
8
 73
4
 74
0
 40
0
 40
0
 40
0
 40
0
 40
1
 40
1
 40
1
 40
1
 10
243.335251
 20
335.104949
 30
0.0
 10
243.335251
 20
337.176037
 30
0.0
 10
245.012441
 20
338.853227
 30
0.0
 10
247.083529
 20
338.853227
 30
0.0
  0
SPLINE
  5
102
100
AcDbEntity
  8
0
 62
7
100
AcDbSpline
 70
8
 71
3
 72
8
 73
4
 74
0
 40
0
 40
0
 40
0
 40
0
 40
1
 40
1
 40
1
 40
1
 10
247.083529
 20
338.853227
 30
0.0
 10
249.154589
 20
338.853227
 30
0.0
 10
250.831779
 20
337.176037
 30
0.0
 10
250.831779
 20
335.104949
 30
0.0
  0
SPLINE
  5
103
100
AcDbEntity
  8
0
 62
7
100
AcDbSpline
 70
8
 71
3
 72
8
 73
4
 74
0
 40
0
 40
0
 40
0
 40
0
 40
1
 40
1
 40
1
 40
1
 10
250.831779
 20
335.104949
 30
0.0
 10
250.831779
 20
333.033889
 30
0.0
 10
249.154589
 20
331.356699
 30
0.0
 10
247.083529
 20
331.356699
 30
0.0
  0
LWPOLYLINE
  5
104
100
AcDbEntity
  8
0
 62
7
100
AcDbPolyline
 90
26
 70
0
 10
265.057557
 20
306.547605
 30
0.0
 10
265.057557
 20
349.436560
 30
0.0
 10
243.008946
 20
349.454058
 30
0.0
 10
243.000197
 20
360.460725
 30
0.0
 10
287.000386
 20
360.451976
 30
0.0
 10
287.009134
 20
349.454143
 30
0.0
 10
287.009134
 20
349.436645
 30
0.0
 10
339.061496
 20
349.436645
 30
0.0
 10
339.061496
 20
559.480520
 30
0.0
 10
265.048723
 20
559.480520
 30
0.0
 10
265.048723
 20
581.458576
 30
0.0
 10
265.004612
 20
581.458576
 30
0.0
 10
265.004612
 20
581.449827
 30
0.0
 10
243.000112
 20
581.458576
 30
0.0
 10
243.008861
 20
592.456409
 30
0.0
 10
265.004556
 20
592.456409
 30
0.0
 10
265.048639
 20
592.456409
 30
0.0
 10
265.057388
 20
679.389689
 30
0.0
 10
265.048639
 20
679.398438
 30
0.0
 10
228.042250
 20
679.398438
 30
0.0
 10
228.042250
 20
657.393910
 30
0.0
 10
217.044417
 20
657.393910
 30
0.0
 10
217.044417
 20
679.389604
 30
0.0
 10
67.598984
 20
420.547797
 30
0.0
 10
265.057501
 20
306.547661
 30
0.0
 10
265.057557
 20
306.547605
 30
0.0
  0
LWPOLYLINE
  5
105
100
AcDbEntity
  8
0
 62
7
100
AcDbPolyline
 90
2
 70
0
 10
247.083529
 20
331.356699
 30
0.0
 10
247.083529
 20
331.356699
 30
0.0
  0
SPLINE
  5
106
100
AcDbEntity
  8
0
 62
7
100
AcDbSpline
 70
8
 71
3
 72
8
 73
4
 74
0
 40
0
 40
0
 40
0
 40
0
 40
1
 40
1
 40
1
 40
1
 10
180.629001
 20
450.480935
 30
0.0
 10
178.557942
 20
450.480935
 30
0.0
 10
176.880751
 20
452.158131
 30
0.0
 10
176.880751
 20
454.229199
 30
0.0
  0
SPLINE
  5
107
100
AcDbEntity
  8
0
 62
7
100
AcDbSpline
 70
8
 71
3
 72
8
 73
4
 74
0
 40
0
 40
0
 40
0
 40
0
 40
1
 40
1
 40
1
 40
1
 10
176.880751
 20
454.229199
 30
0.0
 10
176.880751
 20
456.300267
 30
0.0
 10
178.557942
 20
457.977463
 30
0.0
 10
180.629001
 20
457.977463
 30
0.0
  0
SPLINE
  5
108
100
AcDbEntity
  8
0
 62
7
100
AcDbSpline
 70
8
 71
3
 72
8
 73
4
 74
0
 40
0
 40
0
 40
0
 40
0
 40
1
 40
1
 40
1
 40
1
 10
180.629001
 20
457.977463
 30
0.0
 10
182.700061
 20
457.977463
 30
0.0
 10
184.377279
 20
456.300267
 30
0.0
 10
184.377279
 20
454.229199
 30
0.0
  0
SPLINE
  5
109
100
AcDbEntity
  8
0
 62
7
100
AcDbSpline
 70
8
 71
3
 72
8
 73
4
 74
0
 40
0
 40
0
 40
0
 40
0
 40
1
 40
1
 40
1
 40
1
 10
184.377279
 20
454.229199
 30
0.0
 10
184.377279
 20
452.158131
 30
0.0
 10
182.700061
 20
450.480935
 30
0.0
 10
180.629001
 20
450.480935
 30
0.0
  0
LWPOLYLINE
  5
10a
100
AcDbEntity
  8
0
 62
7
100
AcDbPolyline
 90
7
 70
0
 10
202.007335
 20
386.460588
 30
0.0
 10
191.000668
 20
386.460588
 30
0.0
 10
191.009417
 20
430.460796
 30
0.0
 10
202.007278
 20
430.451991
 30
0.0
 10
202.007278
 20
386.460602
 30
0.0
 10
202.007278
 20
386.460588
 30
0.0
 10
202.007335
 20
386.460588
 30
0.0
  0
LWPOLYLINE
  5
10b
100
AcDbEntity
  8
0
 62
7
100
AcDbPolyline
 90
2
 70
0
 10
180.629001
 20
450.480935
 30
0.0
 10
180.629001
 20
450.480935
 30
0.0
  0
SPLINE
  5
10c
100
AcDbEntity
  8
0
 62
7
100
AcDbSpline
 70
8
 71
3
 72
8
 73
4
 74
0
 40
0
 40
0
 40
0
 40
0
 40
1
 40
1
 40
1
 40
1
 10
180.637835
 20
579.756339
 30
0.0
 10
178.566747
 20
579.756339
 30
0.0
 10
176.889557
 20
581.433557
 30
0.0
 10
176.889557
 20
583.504617
 30
0.0
  0
SPLINE
  5
10d
100
AcDbEntity
  8
0
 62
7
100
AcDbSpline
 70
8
 71
3
 72
8
 73
4
 74
0
 40
0
 40
0
 40
0
 40
0
 40
1
 40
1
 40
1
 40
1
 10
176.889557
 20
583.504617
 30
0.0
 10
176.889557
 20
585.575676
 30
0.0
 10
178.566747
 20
587.252894
 30
0.0
 10
180.637835
 20
587.252894
 30
0.0
  0
SPLINE
  5
10e
100
AcDbEntity
  8
0
 62
7
100
AcDbSpline
 70
8
 71
3
 72
8
 73
4
 74
0
 40
0
 40
0
 40
0
 40
0
 40
1
 40
1
 40
1
 40
1
 10
180.637835
 20
587.252894
 30
0.0
 10
182.708894
 20
587.252894
 30
0.0
 10
184.386085
 20
585.575676
 30
0.0
 10
184.386085
 20
583.504617
 30
0.0
  0
SPLINE
  5
10f
100
AcDbEntity
  8
0
 62
7
100
AcDbSpline
 70
8
 71
3
 72
8
 73
4
 74
0
 40
0
 40
0
 40
0
 40
0
 40
1
 40
1
 40
1
 40
1
 10
184.386085
 20
583.504617
 30
0.0
 10
184.386085
 20
581.433557
 30
0.0
 10
182.708894
 20
579.756339
 30
0.0
 10
180.637835
 20
579.756339
 30
0.0
  0
LWPOLYLINE
  5
110
100
AcDbEntity
  8
0
 62
7
100
AcDbPolyline
 90
7
 70
0
 10
202.007335
 20
478.456213
 30
0.0
 10
191.000668
 20
478.456213
 30
0.0
 10
191.000668
 20
522.456421
 30
0.0
 10
201.998529
 20
522.456421
 30
0.0
 10
202.007278
 20
478.456213
 30
0.0
 10
202.007278
 20
478.456213
 30
0.0
 10
202.007335
 20
478.456213
 30
0.0
  0
LWPOLYLINE
  5
111
100
AcDbEntity
  8
0
 62
7
100
AcDbPolyline
 90
2
 70
0
 10
180.637835
 20
579.756339
 30
0.0
 10
180.637835
 20
579.756339
 30
0.0
  0
LWPOLYLINE
  5
112
100
AcDbEntity
  8
0
 62
7
100
AcDbPolyline
 90
6
 70
0
 10
228.007057
 20
581.449672
 30
0.0
 10
217.000390
 20
581.449672
 30
0.0
 10
217.000390
 20
592.456339
 30
0.0
 10
228.007057
 20
592.456339
 30
0.0
 10
228.007057
 20
581.449672
 30
0.0
 10
228.007057
 20
581.449672
 30
0.0
  0
LWPOLYLINE
  5
113
100
AcDbEntity
  8
0
 62
7
100
AcDbPolyline
 90
6
 70
0
 10
228.007057
 20
607.458227
 30
0.0
 10
217.000390
 20
607.458227
 30
0.0
 10
217.000390
 20
629.453910
 30
0.0
 10
228.007057
 20
629.453910
 30
0.0
 10
228.007057
 20
607.458227
 30
0.0
 10
228.007057
 20
607.458227
 30
0.0
  0
SPLINE
  5
114
100
AcDbEntity
  8
0
 62
7
100
AcDbSpline
 70
8
 71
3
 72
8
 73
4
 74
0
 40
0
 40
0
 40
0
 40
0
 40
1
 40
1
 40
1
 40
1
 10
98.872240
 20
874.643279
 30
0.0
 10
100.943308
 20
874.643279
 30
0.0
 10
102.620504
 20
872.966089
 30
0.0
 10
102.620504
 20
870.895001
 30
0.0
  0
SPLINE
  5
115
100
AcDbEntity
  8
0
 62
7
100
AcDbSpline
 70
8
 71
3
 72
8
 73
4
 74
0
 40
0
 40
0
 40
0
 40
0
 40
1
 40
1
 40
1
 40
1
 10
102.620504
 20
870.895001
 30
0.0
 10
102.620504
 20
868.823942
 30
0.0
 10
100.943308
 20
867.146752
 30
0.0
 10
98.872240
 20
867.146752
 30
0.0
  0
SPLINE
  5
116
100
AcDbEntity
  8
0
 62
7
100
AcDbSpline
 70
8
 71
3
 72
8
 73
4
 74
0
 40
0
 40
0
 40
0
 40
0
 40
1
 40
1
 40
1
 40
1
 10
98.872240
 20
867.146752
 30
0.0
 10
96.801172
 20
867.146752
 30
0.0
 10
95.123976
 20
868.823942
 30
0.0
 10
95.123976
 20
870.895001
 30
0.0
  0
SPLINE
  5
117
100
AcDbEntity
  8
0
 62
7
100
AcDbSpline
 70
8
 71
3
 72
8
 73
4
 74
0
 40
0
 40
0
 40
0
 40
0
 40
1
 40
1
 40
1
 40
1
 10
95.123976
 20
870.895001
 30
0.0
 10
95.123976
 20
872.966089
 30
0.0
 10
96.801172
 20
874.643279
 30
0.0
 10
98.872240
 20
874.643279
 30
0.0
  0
LWPOLYLINE
  5
118
100
AcDbEntity
  8
0
 62
7
100
AcDbPolyline
 90
26
 70
0
 10
80.898213
 20
899.452354
 30
0.0
 10
80.898213
 20
856.563418
 30
0.0
 10
102.946810
 20
856.545779
 30
0.0
 10
102.955615
 20
845.539113
 30
0.0
 10
58.955435
 20
845.547918
 30
0.0
 10
58.946629
 20
856.545765
 30
0.0
 10
58.946629
 20
856.563404
 30
0.0
 10
6.894268
 20
856.563404
 30
0.0
 10
6.894268
 20
646.519515
 30
0.0
 10
80.907046
 20
646.519515
 30
0.0
 10
80.907046
 20
624.541460
 30
0.0
 10
80.951143
 20
624.541460
 30
0.0
 10
80.951143
 20
624.550209
 30
0.0
 10
102.955657
 20
624.541460
 30
0.0
 10
102.946852
 20
613.543625
 30
0.0
 10
80.951157
 20
613.543625
 30
0.0
 10
80.907060
 20
613.543625
 30
0.0
 10
80.898255
 20
526.610349
 30
0.0
 10
80.907060
 20
526.601600
 30
0.0
 10
117.913449
 20
526.601600
 30
0.0
 10
117.913449
 20
548.606128
 30
0.0
 10
128.911296
 20
548.606128
 30
0.0
 10
128.911296
 20
526.610433
 30
0.0
 10
278.356743
 20
785.452224
 30
0.0
 10
80.898227
 20
899.452326
 30
0.0
 10
80.898213
 20
899.452354
 30
0.0
  0
LWPOLYLINE
  5
119
100
AcDbEntity
  8
0
 62
7
100
AcDbPolyline
 90
2
 70
0
 10
98.872240
 20
874.643279
 30
0.0
 10
98.872240
 20
874.643279
 30
0.0
  0
SPLINE
  5
11a
100
AcDbEntity
  8
0
 62
7
100
AcDbSpline
 70
8
 71
3
 72
8
 73
4
 74
0
 40
0
 40
0
 40
0
 40
0
 40
1
 40
1
 40
1
 40
1
 10
165.326754
 20
755.519043
 30
0.0
 10
167.397822
 20
755.519043
 30
0.0
 10
169.075018
 20
753.841847
 30
0.0
 10
169.075018
 20
751.770779
 30
0.0
  0
SPLINE
  5
11b
100
AcDbEntity
  8
0
 62
7
100
AcDbSpline
 70
8
 71
3
 72
8
 73
4
 74
0
 40
0
 40
0
 40
0
 40
0
 40
1
 40
1
 40
1
 40
1
 10
169.075018
 20
751.770779
 30
0.0
 10
169.075018
 20
749.699711
 30
0.0
 10
167.397822
 20
748.022515
 30
0.0
 10
165.326754
 20
748.022515
 30
0.0
  0
SPLINE
  5
11c
100
AcDbEntity
  8
0
 62
7
100
AcDbSpline
 70
8
 71
3
 72
8
 73
4
 74
0
 40
0
 40
0
 40
0
 40
0
 40
1
 40
1
 40
1
 40
1
 10
165.326754
 20
748.022515
 30
0.0
 10
163.255686
 20
748.022515
 30
0.0
 10
161.578490
 20
749.699711
 30
0.0
 10
161.578490
 20
751.770779
 30
0.0
  0
SPLINE
  5
11d
100
AcDbEntity
  8
0
 62
7
100
AcDbSpline
 70
8
 71
3
 72
8
 73
4
 74
0
 40
0
 40
0
 40
0
 40
0
 40
1
 40
1
 40
1
 40
1
 10
161.578490
 20
751.770779
 30
0.0
 10
161.578490
 20
753.841847
 30
0.0
 10
163.255686
 20
755.519043
 30
0.0
 10
165.326754
 20
755.519043
 30
0.0
  0
LWPOLYLINE
  5
11e
100
AcDbEntity
  8
0
 62
7
100
AcDbPolyline
 90
7
 70
0
 10
143.948421
 20
819.539390
 30
0.0
 10
154.955088
 20
819.539390
 30
0.0
 10
154.946282
 20
775.539182
 30
0.0
 10
143.948435
 20
775.547987
 30
0.0
 10
143.948435
 20
819.539376
 30
0.0
 10
143.948421
 20
819.539390
 30
0.0
 10
143.948421
 20
819.539390
 30
0.0
  0
LWPOLYLINE
  5
11f
100
AcDbEntity
  8
0
 62
7
100
AcDbPolyline
 90
2
 70
0
 10
165.326754
 20
755.519043
 30
0.0
 10
165.326754
 20
755.519043
 30
0.0
  0
SPLINE
  5
120
100
AcDbEntity
  8
0
 62
7
100
AcDbSpline
 70
8
 71
3
 72
8
 73
4
 74
0
 40
0
 40
0
 40
0
 40
0
 40
1
 40
1
 40
1
 40
1
 10
165.317935
 20
626.243641
 30
0.0
 10
167.389003
 20
626.243641
 30
0.0
 10
169.066199
 20
624.566422
 30
0.0
 10
169.066199
 20
622.495363
 30
0.0
  0
SPLINE
  5
121
100
AcDbEntity
  8
0
 62
7
100
AcDbSpline
 70
8
 71
3
 72
8
 73
4
 74
0
 40
0
 40
0
 40
0
 40
0
 40
1
 40
1
 40
1
 40
1
 10
169.066199
 20
622.495363
 30
0.0
 10
169.066199
 20
620.424303
 30
0.0
 10
167.389003
 20
618.747085
 30
0.0
 10
165.317935
 20
618.747085
 30
0.0
  0
SPLINE
  5
122
100
AcDbEntity
  8
0
 62
7
100
AcDbSpline
 70
8
 71
3
 72
8
 73
4
 74
0
 40
0
 40
0
 40
0
 40
0
 40
1
 40
1
 40
1
 40
1
 10
165.317935
 20
618.747085
 30
0.0
 10
163.246867
 20
618.747085
 30
0.0
 10
161.569671
 20
620.424303
 30
0.0
 10
161.569671
 20
622.495363
 30
0.0
  0
SPLINE
  5
123
100
AcDbEntity
  8
0
 62
7
100
AcDbSpline
 70
8
 71
3
 72
8
 73
4
 74
0
 40
0
 40
0
 40
0
 40
0
 40
1
 40
1
 40
1
 40
1
 10
161.569671
 20
622.495363
 30
0.0
 10
161.569671
 20
624.566422
 30
0.0
 10
163.246867
 20
626.243641
 30
0.0
 10
165.317935
 20
626.243641
 30
0.0
  0
LWPOLYLINE
  5
124
100
AcDbEntity
  8
0
 62
7
100
AcDbPolyline
 90
7
 70
0
 10
143.948421
 20
727.543765
 30
0.0
 10
154.955088
 20
727.543765
 30
0.0
 10
154.955088
 20
683.543557
 30
0.0
 10
143.957240
 20
683.543557
 30
0.0
 10
143.948435
 20
727.543765
 30
0.0
 10
143.948421
 20
727.543765
 30
0.0
 10
143.948421
 20
727.543765
 30
0.0
  0
LWPOLYLINE
  5
125
100
AcDbEntity
  8
0
 62
7
100
AcDbPolyline
 90
2
 70
0
 10
165.317935
 20
626.243641
 30
0.0
 10
165.317935
 20
626.243641
 30
0.0
  0
LWPOLYLINE
  5
126
100
AcDbEntity
  8
0
 62
7
100
AcDbPolyline
 90
6
 70
0
 10
117.948699
 20
624.550307
 30
0.0
 10
128.955365
 20
624.550307
 30
0.0
 10
128.955365
 20
613.543639
 30
0.0
 10
117.948699
 20
613.543639
 30
0.0
 10
117.948699
 20
624.550307
 30
0.0
 10
117.948699
 20
624.550307
 30
0.0
  0
LWPOLYLINE
  5
127
100
AcDbEntity
  8
0
 62
7
100
AcDbPolyline
 90
6
 70
0
 10
117.948699
 20
598.541750
 30
0.0
 10
128.955365
 20
598.541750
 30
0.0
 10
128.955365
 20
576.546055
 30
0.0
 10
117.948699
 20
576.546055
 30
0.0
 10
117.948699
 20
598.541750
 30
0.0
 10
117.948699
 20
598.541750
 30
0.0
  0
LWPOLYLINE
  5
128
100
AcDbEntity
  8
0
 62
7
100
AcDbPolyline
 90
22
 70
0
 10
339.123330
 20
851.456946
 30
0.0
 10
339.123330
 20
862.454779
 30
0.0
 10
350.147636
 20
862.454779
 30
0.0
 10
350.147636
 20
877.456668
 30
0.0
 10
339.123330
 20
877.456668
 30
0.0
 10
339.123330
 20
899.452354
 30
0.0
 10
593.105692
 20
899.452354
 30
0.0
 10
593.105692
 20
877.456668
 30
0.0
 10
582.090191
 20
877.456668
 30
0.0
 10
582.090191
 20
862.454779
 30
0.0
 10
593.105692
 20
862.454779
 30
0.0
 10
593.105692
 20
851.456946
 30
0.0
 10
541.123886
 20
851.456946
 30
0.0
 10
541.123886
 20
862.454779
 30
0.0
 10
497.123692
 20
862.454779
 30
0.0
 10
497.123692
 20
851.456946
 30
0.0
 10
435.114164
 20
851.456946
 30
0.0
 10
435.114164
 20
862.454779
 30
0.0
 10
391.113970
 20
862.454779
 30
0.0
 10
391.113970
 20
851.456946
 30
0.0
 10
339.123330
 20
851.456946
 30
0.0
 10
339.123330
 20
851.456946
 30
0.0
  0
LWPOLYLINE
  5
129
100
AcDbEntity
  8
0
 62
7
100
AcDbPolyline
 90
28
 70
0
 10
339.123330
 20
653.460362
 30
0.0
 10
339.123330
 20
764.514820
 30
0.0
 10
339.123330
 20
786.519348
 30
0.0
 10
350.147636
 20
786.519348
 30
0.0
 10
350.147636
 20
814.459348
 30
0.0
 10
339.123330
 20
814.459348
 30
0.0
 10
339.123330
 20
836.455043
 30
0.0
 10
350.147636
 20
836.455043
 30
0.0
 10
350.147636
 20
851.456932
 30
0.0
 10
391.113970
 20
851.456932
 30
0.0
 10
391.113970
 20
862.463587
 30
0.0
 10
435.114164
 20
862.463587
 30
0.0
 10
435.114164
 20
851.456932
 30
0.0
 10
497.123692
 20
851.456932
 30
0.0
 10
497.123692
 20
862.463587
 30
0.0
 10
541.123886
 20
862.463587
 30
0.0
 10
541.123886
 20
851.456932
 30
0.0
 10
582.090191
 20
851.456932
 30
0.0
 10
582.090191
 20
836.455043
 30
0.0
 10
593.105692
 20
836.455043
 30
0.0
 10
593.105692
 20
814.459348
 30
0.0
 10
582.090191
 20
814.459348
 30
0.0
 10
582.090191
 20
786.519348
 30
0.0
 10
593.105692
 20
786.519348
 30
0.0
 10
593.105692
 20
764.514820
 30
0.0
 10
593.105692
 20
653.460362
 30
0.0
 10
339.123330
 20
653.460362
 30
0.0
 10
339.123330
 20
653.460362
 30
0.0
  0
LWPOLYLINE
  5
12a
100
AcDbEntity
  8
0
 62
7
100
AcDbPolyline
 90
26
 70
0
 10
593.043941
 20
402.529534
 30
0.0
 10
582.072552
 20
402.529534
 30
0.0
 10
582.072552
 20
454.608367
 30
0.0
 10
582.019636
 20
454.608367
 30
0.0
 10
541.053302
 20
454.608367
 30
0.0
 10
541.053302
 20
443.460590
 30
0.0
 10
497.053108
 20
443.460590
 30
0.0
 10
497.053108
 20
454.608367
 30
0.0
 10
435.043580
 20
454.608367
 30
0.0
 10
435.043580
 20
443.460590
 30
0.0
 10
391.043386
 20
443.460590
 30
0.0
 10
391.043386
 20
443.619340
 30
0.0
 10
391.043386
 20
454.608367
 30
0.0
 10
350.077052
 20
454.608367
 30
0.0
 10
350.050523
 20
454.590870
 30
0.0
 10
350.050523
 20
402.529675
 30
0.0
 10
339.061496
 20
402.529675
 30
0.0
 10
339.061496
 20
358.529484
 30
0.0
 10
350.200440
 20
358.529484
 30
0.0
 10
350.200440
 20
306.547661
 30
0.0
 10
581.904884
 20
306.547661
 30
0.0
 10
581.904884
 20
358.529484
 30
0.0
 10
593.043857
 20
358.529484
 30
0.0
 10
593.043857
 20
402.529675
 30
0.0
 10
593.043857
 20
402.529534
 30
0.0
 10
593.043941
 20
402.529534
 30
0.0
  0
LWPOLYLINE
  5
12b
100
AcDbEntity
  8
0
 62
7
100
AcDbPolyline
 90
33
 70
0
 10
350.129997
 20
653.460367
 30
0.0
 10
350.129997
 20
616.612757
 30
0.0
 10
339.105692
 20
616.612757
 30
0.0
 10
339.105692
 20
572.621368
 30
0.0
 10
350.129997
 20
572.621368
 30
0.0
 10
350.129997
 20
524.617117
 30
0.0
 10
339.105692
 20
524.617117
 30
0.0
 10
339.105692
 20
480.616923
 30
0.0
 10
350.129997
 20
480.616923
 30
0.0
 10
350.129997
 20
454.608367
 30
0.0
 10
391.096331
 20
454.608367
 30
0.0
 10
391.096331
 20
443.460590
 30
0.0
 10
435.096525
 20
443.460590
 30
0.0
 10
435.096525
 20
454.608367
 30
0.0
 10
497.106053
 20
454.608367
 30
0.0
 10
497.106053
 20
443.460590
 30
0.0
 10
541.106247
 20
443.460590
 30
0.0
 10
541.106247
 20
443.619340
 30
0.0
 10
541.106247
 20
454.608367
 30
0.0
 10
582.072552
 20
454.608367
 30
0.0
 10
582.072552
 20
480.616923
 30
0.0
 10
593.105692
 20
480.616923
 30
0.0
 10
593.105692
 20
524.617117
 30
0.0
 10
593.088194
 20
524.617117
 30
0.0
 10
582.072694
 20
524.617117
 30
0.0
 10
582.072694
 20
572.621368
 30
0.0
 10
593.088194
 20
572.621368
 30
0.0
 10
593.105692
 20
572.621368
 30
0.0
 10
593.105692
 20
616.612757
 30
0.0
 10
582.072552
 20
616.612757
 30
0.0
 10
582.072552
 20
653.460367
 30
0.0
 10
350.129997
 20
653.460367
 30
0.0
 10
350.129997
 20
653.460367
 30
0.0
  0
ENDSEC
  0
SECTION
  2
OBJECTS
  0
DICTIONARY
  5
C
330
0
100
AcDbDictionary
  3
ACAD_GROUP
350
D
  3
ACAD_MLINESTYLE
350
17
  0
DICTIONARY
  5
D
330
C
100
AcDbDictionary
  0
DICTIONARY
  5
1A
330
C
100
AcDbDictionary
  0
DICTIONARY
  5
17
330
C
100
AcDbDictionary
  3
STANDARD
350
18
  0
DICTIONARY
  5
19
330
C
100
AcDbDictionary
  0
ENDSEC
  0
EOF
