<?xml version="1.0" encoding="ascii"?>
<svg xmlns="http://www.w3.org/2000/svg" xmlns:inkscape="http://www.inkscape.org/namespaces/inkscape" height="1024" version="1.1" width="1024">
  <g id="RenderLayer_Contour" inkscape:groupmode="lineset" inkscape:label="RenderLayer_Contour">
    <g id="fills" inkscape:groupmode="layer" inkscape:label="fills">
      <path d=" M 552.837, 807.071 566.683, 807.119 591.951, 796.268 591.469, 756.405 547.191, 735.917 514.796, 749.829 515.277, 789.691 552.837, 807.071 z" fill="rgb(226, 226, 226)" fill-opacity="1.0" fill-rule="evenodd" stroke="none"/>
      <path d=" M 201.385, 772.086 554.388, 935.427 568.233, 935.475 593.502, 924.624 593.396, 915.854 226.957, 746.296 201.688, 757.147 201.279, 763.316 201.385, 772.086 z" fill="rgb(226, 226, 226)" fill-opacity="1.0" fill-rule="evenodd" stroke="none"/>
      <path d=" M 398.475, 735.644 430.870, 721.733 430.389, 681.870 386.111, 661.382 353.715, 675.294 354.197, 715.156 398.475, 735.644 z" fill="rgb(226, 226, 226)" fill-opacity="1.0" fill-rule="evenodd" stroke="none"/>
      <path d=" M 199.834, 643.729 237.394, 661.109 269.790, 647.197 269.308, 607.335 225.030, 586.847 199.762, 597.698 199.353, 603.867 199.834, 643.729 z" fill="rgb(226, 226, 226)" fill-opacity="1.0" fill-rule="evenodd" stroke="none"/>
      <path d=" M 193.950, 156.613 546.953, 319.954 560.798, 320.002 600.644, 302.891 600.538, 294.121 234.099, 124.563 194.253, 141.674 193.843, 147.843 193.950, 156.613 z" fill="rgb(226, 226, 226)" fill-opacity="1.0" fill-rule="evenodd" stroke="none"/>
      <path d=" M 710.592, 576.228 710.592, 576.228 710.592, 576.228 z" fill="rgb(226, 226, 226)" fill-opacity="1.0" fill-rule="evenodd" stroke="none"/>
      <path d=" M 614.412, 296.978 646.808, 283.067 646.702, 274.297 280.263, 104.739 247.867, 118.650 247.973, 127.420 614.412, 296.978 z" fill="rgb(226, 226, 226)" fill-opacity="1.0" fill-rule="evenodd" stroke="none"/>
      <path d=" M 784.489, 223.942 816.884, 210.031 816.778, 201.261 450.339, 31.702 417.944, 45.614 418.050, 54.384 784.489, 223.942 z" fill="rgb(226, 226, 226)" fill-opacity="1.0" fill-rule="evenodd" stroke="none"/>
      <path d=" M 570.025, 453.381 570.130, 462.151 614.409, 482.639 633.902, 474.268 740.824, 523.743 731.105, 527.916 731.211, 536.686 775.489, 557.174 794.983, 548.803 849.776, 574.157 875.045, 563.306 875.454, 557.137 875.348, 548.367 875.348, 548.367 874.866, 508.506 874.866, 508.505 874.760, 499.736 874.760, 499.735 874.654, 490.966 521.651, 327.625 507.806, 327.577 467.960, 344.688 468.066, 353.458 408.944, 378.846 409.050, 387.616 453.328, 408.104 483.225, 395.266 483.231, 395.829 483.231, 395.829 483.337, 404.599 579.743, 449.208 570.025, 453.381 z M 559.905, 402.406 559.905, 402.406 559.826, 395.917 629.146, 427.993 621.914, 431.099 559.905, 402.406 z  M 720.985, 476.941 720.985, 476.941 720.907, 470.452 790.227, 502.528 782.994, 505.634 720.985, 476.941 z" fill="rgb(226, 226, 226)" fill-opacity="1.0" fill-rule="evenodd" stroke="none"/>
      <path d=" M 352.165, 546.937 352.271, 555.707 396.549, 576.195 448.438, 553.912 555.359, 603.387 513.245, 621.472 513.351, 630.242 550.911, 647.622 564.756, 647.670 609.518, 628.447 664.312, 653.802 711.286, 633.630 711.180, 624.860 711.180, 624.860 711.180, 624.860 710.698, 584.998 710.698, 584.998 710.698, 584.998 710.592, 576.228 710.592, 576.228 710.486, 567.458 344.047, 397.900 297.074, 418.072 297.180, 426.841 198.211, 469.342 197.802, 475.511 197.908, 484.280 235.468, 501.660 297.760, 474.910 297.767, 475.473 297.767, 475.473 297.767, 475.473 297.873, 484.243 394.279, 528.852 352.165, 546.937 z M 389.018, 475.790 389.018, 475.790 388.940, 469.301 458.260, 501.377 451.027, 504.482 389.018, 475.790 z  M 550.099, 550.325 550.021, 543.836 619.341, 575.912 612.108, 579.018 550.099, 550.325 550.099, 550.325 z" fill="rgb(226, 226, 226)" fill-opacity="1.0" fill-rule="evenodd" stroke="none"/>
    </g>
    <g id="strokes" inkscape:groupmode="layer" inkscape:label="strokes">
      <path d=" M 394.279, 528.852 352.165, 546.937 352.271, 555.707 396.549, 576.195 448.438, 553.912 " fill="none" stroke="rgb(0, 0, 0)" stroke-linecap="butt" stroke-linejoin="mitter" stroke-opacity="1.0" stroke-width="3.0"/>
      <path d=" M 579.743, 449.208 570.025, 453.381 570.130, 462.151 614.409, 482.639 633.902, 474.268 " fill="none" stroke="rgb(0, 0, 0)" stroke-linecap="butt" stroke-linejoin="mitter" stroke-opacity="1.0" stroke-width="3.0"/>
      <path d=" M 468.066, 353.458 408.944, 378.846 409.050, 387.616 453.328, 408.104 483.225, 395.266 " fill="none" stroke="rgb(0, 0, 0)" stroke-linecap="butt" stroke-linejoin="mitter" stroke-opacity="1.0" stroke-width="3.0"/>
      <path d=" M 297.180, 426.841 205.294, 466.300 198.211, 469.342 197.802, 475.511 197.908, 484.280 235.468, 501.660 297.760, 474.910 " fill="none" stroke="rgb(0, 0, 0)" stroke-linecap="butt" stroke-linejoin="mitter" stroke-opacity="1.0" stroke-width="3.0"/>
      <path d=" M 555.359, 603.387 513.245, 621.472 513.351, 630.242 550.911, 647.622 564.756, 647.670 609.518, 628.447 " fill="none" stroke="rgb(0, 0, 0)" stroke-linecap="butt" stroke-linejoin="mitter" stroke-opacity="1.0" stroke-width="3.0"/>
      <path d=" M 710.698, 584.998 710.698, 584.998 710.592, 576.228 710.592, 576.228 " fill="none" stroke="rgb(0, 0, 0)" stroke-linecap="butt" stroke-linejoin="mitter" stroke-opacity="1.0" stroke-width="3.0"/>
      <path d=" M 740.824, 523.743 731.105, 527.916 731.211, 536.686 775.489, 557.174 794.983, 548.803 " fill="none" stroke="rgb(0, 0, 0)" stroke-linecap="butt" stroke-linejoin="mitter" stroke-opacity="1.0" stroke-width="3.0"/>
      <path d=" M 874.866, 508.506 874.866, 508.505 874.760, 499.736 874.760, 499.735 " fill="none" stroke="rgb(0, 0, 0)" stroke-linecap="butt" stroke-linejoin="mitter" stroke-opacity="1.0" stroke-width="3.0"/>
      <path d=" M 784.489, 223.942 816.884, 210.031 816.778, 201.261 726.023, 159.267 635.268, 117.273 544.513, 75.279 450.339, 31.702 417.944, 45.614 418.050, 54.384 508.805, 96.378 599.560, 138.372 690.315, 180.366 784.489, 223.942 " fill="none" stroke="rgb(0, 0, 0)" stroke-linecap="butt" stroke-linejoin="mitter" stroke-opacity="1.0" stroke-width="3.0"/>
      <path d=" M 614.412, 296.978 646.808, 283.067 646.702, 274.297 555.947, 232.303 465.192, 190.309 374.436, 148.315 280.263, 104.739 247.867, 118.650 247.973, 127.420 338.728, 169.414 429.483, 211.408 520.239, 253.402 614.412, 296.978 " fill="none" stroke="rgb(0, 0, 0)" stroke-linecap="butt" stroke-linejoin="mitter" stroke-opacity="1.0" stroke-width="3.0"/>
      <path d=" M 874.760, 499.735 874.654, 490.966 783.899, 448.972 693.144, 406.978 602.389, 364.983 521.651, 327.625 507.806, 327.577 467.960, 344.688 468.066, 353.458 " fill="none" stroke="rgb(0, 0, 0)" stroke-linecap="butt" stroke-linejoin="mitter" stroke-opacity="1.0" stroke-width="3.0"/>
      <path d=" M 710.592, 576.228 710.592, 576.228 710.592, 576.228 710.486, 567.458 619.731, 525.464 528.976, 483.470 438.221, 441.476 344.047, 397.900 297.074, 418.072 297.180, 426.841 " fill="none" stroke="rgb(0, 0, 0)" stroke-linecap="butt" stroke-linejoin="mitter" stroke-opacity="1.0" stroke-width="3.0"/>
      <path d=" M 193.950, 156.613 284.705, 198.607 375.460, 240.601 466.215, 282.595 546.953, 319.954 560.798, 320.002 600.644, 302.891 600.538, 294.121 509.783, 252.127 419.028, 210.133 328.273, 168.139 234.099, 124.563 194.253, 141.674 193.843, 147.843 193.950, 156.613 " fill="none" stroke="rgb(0, 0, 0)" stroke-linecap="butt" stroke-linejoin="mitter" stroke-opacity="1.0" stroke-width="3.0"/>
      <path d=" M 483.225, 395.266 483.231, 395.829 483.231, 395.829 " fill="none" stroke="rgb(0, 0, 0)" stroke-linecap="butt" stroke-linejoin="mitter" stroke-opacity="1.0" stroke-width="3.0"/>
      <path d=" M 559.905, 402.406 559.905, 402.406 559.826, 395.917 " fill="none" stroke="rgb(0, 0, 0)" stroke-linecap="butt" stroke-linejoin="mitter" stroke-opacity="1.0" stroke-width="3.0"/>
      <path d=" M 199.834, 643.729 237.394, 661.109 269.790, 647.197 269.308, 607.335 225.030, 586.847 199.762, 597.698 199.353, 603.867 199.834, 643.729 " fill="none" stroke="rgb(0, 0, 0)" stroke-linecap="butt" stroke-linejoin="mitter" stroke-opacity="1.0" stroke-width="3.0"/>
      <path d=" M 297.760, 474.910 297.767, 475.473 297.767, 475.473 " fill="none" stroke="rgb(0, 0, 0)" stroke-linecap="butt" stroke-linejoin="mitter" stroke-opacity="1.0" stroke-width="3.0"/>
      <path d=" M 389.018, 475.790 389.018, 475.790 388.940, 469.301 " fill="none" stroke="rgb(0, 0, 0)" stroke-linecap="butt" stroke-linejoin="mitter" stroke-opacity="1.0" stroke-width="3.0"/>
      <path d=" M 550.099, 550.325 550.099, 550.325 550.021, 543.836 " fill="none" stroke="rgb(0, 0, 0)" stroke-linecap="butt" stroke-linejoin="mitter" stroke-opacity="1.0" stroke-width="3.0"/>
      <path d=" M 398.475, 735.644 430.870, 721.733 430.389, 681.870 386.111, 661.382 353.715, 675.294 354.197, 715.156 398.475, 735.644 " fill="none" stroke="rgb(0, 0, 0)" stroke-linecap="butt" stroke-linejoin="mitter" stroke-opacity="1.0" stroke-width="3.0"/>
      <path d=" M 720.985, 476.941 720.985, 476.941 720.907, 470.452 " fill="none" stroke="rgb(0, 0, 0)" stroke-linecap="butt" stroke-linejoin="mitter" stroke-opacity="1.0" stroke-width="3.0"/>
      <path d=" M 483.231, 395.829 483.337, 404.599 574.093, 446.593 579.743, 449.208 " fill="none" stroke="rgb(0, 0, 0)" stroke-linecap="butt" stroke-linejoin="mitter" stroke-opacity="1.0" stroke-width="3.0"/>
      <path d=" M 794.983, 548.803 849.776, 574.157 875.045, 563.306 875.454, 557.137 875.348, 548.367 875.348, 548.367 " fill="none" stroke="rgb(0, 0, 0)" stroke-linecap="butt" stroke-linejoin="mitter" stroke-opacity="1.0" stroke-width="3.0"/>
      <path d=" M 609.518, 628.447 664.312, 653.802 711.286, 633.630 711.180, 624.860 711.180, 624.860 " fill="none" stroke="rgb(0, 0, 0)" stroke-linecap="butt" stroke-linejoin="mitter" stroke-opacity="1.0" stroke-width="3.0"/>
      <path d=" M 297.767, 475.473 297.767, 475.473 297.873, 484.243 388.628, 526.237 394.279, 528.852 " fill="none" stroke="rgb(0, 0, 0)" stroke-linecap="butt" stroke-linejoin="mitter" stroke-opacity="1.0" stroke-width="3.0"/>
      <path d=" M 201.385, 772.086 292.140, 814.080 382.895, 856.074 473.651, 898.068 554.388, 935.427 568.233, 935.475 593.502, 924.624 593.396, 915.854 502.641, 873.860 411.886, 831.866 321.130, 789.872 226.957, 746.296 201.688, 757.147 201.279, 763.316 201.385, 772.086 " fill="none" stroke="rgb(0, 0, 0)" stroke-linecap="butt" stroke-linejoin="mitter" stroke-opacity="1.0" stroke-width="3.0"/>
      <path d=" M 552.837, 807.071 566.683, 807.119 591.951, 796.268 591.469, 756.405 547.191, 735.917 514.796, 749.829 515.277, 789.691 552.837, 807.071 " fill="none" stroke="rgb(0, 0, 0)" stroke-linecap="butt" stroke-linejoin="mitter" stroke-opacity="1.0" stroke-width="3.0"/>
      <path d=" M 711.180, 624.860 711.180, 624.860 710.698, 584.998 710.698, 584.998 " fill="none" stroke="rgb(0, 0, 0)" stroke-linecap="butt" stroke-linejoin="mitter" stroke-opacity="1.0" stroke-width="3.0"/>
      <path d=" M 458.260, 501.377 451.027, 504.482 " fill="none" stroke="rgb(0, 0, 0)" stroke-linecap="butt" stroke-linejoin="mitter" stroke-opacity="1.0" stroke-width="3.0"/>
      <path d=" M 550.021, 543.836 619.341, 575.912 " fill="none" stroke="rgb(0, 0, 0)" stroke-linecap="butt" stroke-linejoin="mitter" stroke-opacity="1.0" stroke-width="3.0"/>
      <path d=" M 388.940, 469.301 458.260, 501.377 " fill="none" stroke="rgb(0, 0, 0)" stroke-linecap="butt" stroke-linejoin="mitter" stroke-opacity="1.0" stroke-width="3.0"/>
      <path d=" M 448.438, 553.912 539.193, 595.907 555.359, 603.387 " fill="none" stroke="rgb(0, 0, 0)" stroke-linecap="butt" stroke-linejoin="mitter" stroke-opacity="1.0" stroke-width="3.0"/>
      <path d=" M 619.341, 575.912 612.108, 579.018 " fill="none" stroke="rgb(0, 0, 0)" stroke-linecap="butt" stroke-linejoin="mitter" stroke-opacity="1.0" stroke-width="3.0"/>
      <path d=" M 629.146, 427.993 621.914, 431.099 " fill="none" stroke="rgb(0, 0, 0)" stroke-linecap="butt" stroke-linejoin="mitter" stroke-opacity="1.0" stroke-width="3.0"/>
      <path d=" M 451.027, 504.482 389.018, 475.790 " fill="none" stroke="rgb(0, 0, 0)" stroke-linecap="butt" stroke-linejoin="mitter" stroke-opacity="1.0" stroke-width="3.0"/>
      <path d=" M 612.108, 579.018 550.099, 550.325 " fill="none" stroke="rgb(0, 0, 0)" stroke-linecap="butt" stroke-linejoin="mitter" stroke-opacity="1.0" stroke-width="3.0"/>
      <path d=" M 720.907, 470.452 790.227, 502.528 " fill="none" stroke="rgb(0, 0, 0)" stroke-linecap="butt" stroke-linejoin="mitter" stroke-opacity="1.0" stroke-width="3.0"/>
      <path d=" M 559.826, 395.917 629.146, 427.993 " fill="none" stroke="rgb(0, 0, 0)" stroke-linecap="butt" stroke-linejoin="mitter" stroke-opacity="1.0" stroke-width="3.0"/>
      <path d=" M 790.227, 502.528 782.994, 505.634 " fill="none" stroke="rgb(0, 0, 0)" stroke-linecap="butt" stroke-linejoin="mitter" stroke-opacity="1.0" stroke-width="3.0"/>
      <path d=" M 633.902, 474.268 724.657, 516.262 740.824, 523.743 " fill="none" stroke="rgb(0, 0, 0)" stroke-linecap="butt" stroke-linejoin="mitter" stroke-opacity="1.0" stroke-width="3.0"/>
      <path d=" M 875.348, 548.367 874.866, 508.506 " fill="none" stroke="rgb(0, 0, 0)" stroke-linecap="butt" stroke-linejoin="mitter" stroke-opacity="1.0" stroke-width="3.0"/>
      <path d=" M 621.914, 431.099 559.905, 402.406 " fill="none" stroke="rgb(0, 0, 0)" stroke-linecap="butt" stroke-linejoin="mitter" stroke-opacity="1.0" stroke-width="3.0"/>
      <path d=" M 782.994, 505.634 720.985, 476.941 " fill="none" stroke="rgb(0, 0, 0)" stroke-linecap="butt" stroke-linejoin="mitter" stroke-opacity="1.0" stroke-width="3.0"/>
    </g>
  </g>
  <g id="RenderLayer_InLine" inkscape:groupmode="lineset" inkscape:label="RenderLayer_InLine">
    <g id="strokes" inkscape:groupmode="layer" inkscape:label="strokes">
      <path d=" M 396.443, 567.426 396.549, 576.195 " fill="none" stroke="rgb(0, 0, 0)" stroke-linecap="butt" stroke-linejoin="mitter" stroke-opacity="1.0" stroke-width="1.2000000476837158"/>
      <path d=" M 502.538, 521.865 495.305, 524.971 486.117, 528.917 476.928, 532.863 467.740, 536.808 458.735, 540.675 449.546, 544.621 440.358, 548.567 438.557, 549.340 429.368, 553.286 420.180, 557.232 410.991, 561.178 401.803, 565.124 396.443, 567.426 387.367, 563.226 378.292, 559.027 369.216, 554.827 360.141, 550.628 352.165, 546.937 " fill="none" stroke="rgb(0, 0, 0)" stroke-linecap="butt" stroke-linejoin="mitter" stroke-opacity="1.0" stroke-width="1.2000000476837158"/>
      <path d=" M 614.303, 473.870 614.409, 482.639 " fill="none" stroke="rgb(0, 0, 0)" stroke-linecap="butt" stroke-linejoin="mitter" stroke-opacity="1.0" stroke-width="1.2000000476837158"/>
      <path d=" M 673.424, 448.481 666.192, 451.587 657.003, 455.533 647.815, 459.479 644.199, 461.031 635.011, 464.977 625.822, 468.923 624.021, 469.696 614.833, 473.642 614.303, 473.870 605.227, 469.670 596.152, 465.471 587.076, 461.271 578.001, 457.072 570.025, 453.381 " fill="none" stroke="rgb(0, 0, 0)" stroke-linecap="butt" stroke-linejoin="mitter" stroke-opacity="1.0" stroke-width="1.2000000476837158"/>
      <path d=" M 453.222, 399.335 453.328, 408.104 " fill="none" stroke="rgb(0, 0, 0)" stroke-linecap="butt" stroke-linejoin="mitter" stroke-opacity="1.0" stroke-width="1.2000000476837158"/>
      <path d=" M 512.344, 373.946 503.155, 377.892 493.967, 381.838 484.778, 385.783 483.119, 386.496 473.930, 390.442 464.741, 394.388 455.553, 398.334 453.222, 399.335 444.147, 395.135 435.071, 390.936 425.995, 386.736 416.920, 382.537 408.944, 378.846 " fill="none" stroke="rgb(0, 0, 0)" stroke-linecap="butt" stroke-linejoin="mitter" stroke-opacity="1.0" stroke-width="1.2000000476837158"/>
      <path d=" M 235.362, 492.890 235.468, 501.660 " fill="none" stroke="rgb(0, 0, 0)" stroke-linecap="butt" stroke-linejoin="mitter" stroke-opacity="1.0" stroke-width="1.2000000476837158"/>
      <path d=" M 341.457, 447.330 332.269, 451.276 323.080, 455.222 313.892, 459.167 304.703, 463.113 297.654, 466.140 288.466, 470.086 279.277, 474.032 270.088, 477.978 260.900, 481.924 251.711, 485.870 242.523, 489.815 235.362, 492.890 226.287, 488.691 217.211, 484.492 208.136, 480.292 199.060, 476.093 197.802, 475.511 " fill="none" stroke="rgb(0, 0, 0)" stroke-linecap="butt" stroke-linejoin="mitter" stroke-opacity="1.0" stroke-width="1.2000000476837158"/>
      <path d=" M 710.592, 576.228 710.592, 576.228 701.403, 580.174 700.817, 580.426 691.629, 584.372 682.440, 588.317 673.251, 592.263 664.063, 596.209 663.619, 596.400 656.386, 599.506 647.197, 603.452 638.009, 607.398 628.820, 611.343 619.815, 615.210 610.627, 619.156 601.438, 623.102 599.638, 623.875 590.449, 627.821 581.260, 631.767 572.072, 635.713 564.650, 638.900 554.650, 638.865 550.805, 638.852 541.730, 634.653 532.654, 630.453 523.579, 626.254 514.503, 622.054 513.245, 621.472 " fill="none" stroke="rgb(0, 0, 0)" stroke-linecap="butt" stroke-linejoin="mitter" stroke-opacity="1.0" stroke-width="1.2000000476837158"/>
      <path d=" M 874.760, 499.736 874.352, 505.905 871.704, 507.042 862.515, 510.988 858.120, 512.875 848.931, 516.821 839.742, 520.767 834.505, 523.016 827.272, 526.122 818.084, 530.068 808.895, 534.014 805.280, 535.566 796.091, 539.512 786.903, 543.458 785.102, 544.231 775.913, 548.177 775.383, 548.405 " fill="none" stroke="rgb(0, 0, 0)" stroke-linecap="butt" stroke-linejoin="mitter" stroke-opacity="1.0" stroke-width="1.2000000476837158"/>
      <path d=" M 731.105, 527.916 740.181, 532.116 749.256, 536.315 758.332, 540.515 767.407, 544.714 775.383, 548.405 775.489, 557.174 " fill="none" stroke="rgb(0, 0, 0)" stroke-linecap="butt" stroke-linejoin="mitter" stroke-opacity="1.0" stroke-width="1.2000000476837158"/>
      <path d=" M 794.983, 548.803 804.171, 544.857 804.758, 544.606 805.386, 544.336 814.574, 540.390 823.763, 536.444 827.378, 534.892 836.567, 530.946 837.153, 530.694 837.781, 530.424 846.970, 526.478 849.189, 525.525 858.377, 521.580 867.566, 517.634 874.457, 514.674 874.473, 514.439 874.866, 508.506 " fill="none" stroke="rgb(0, 0, 0)" stroke-linecap="butt" stroke-linejoin="mitter" stroke-opacity="1.0" stroke-width="1.2000000476837158"/>
      <path d=" M 417.944, 45.614 427.019, 49.813 436.095, 54.013 445.170, 58.212 454.246, 62.412 463.321, 66.611 472.397, 70.811 481.472, 75.010 490.548, 79.209 499.623, 83.409 508.699, 87.608 517.774, 91.808 526.850, 96.007 535.925, 100.206 545.001, 104.406 554.076, 108.605 563.152, 112.805 572.227, 117.004 581.303, 121.204 590.378, 125.403 599.454, 129.602 608.529, 133.802 617.605, 138.001 626.680, 142.201 635.756, 146.400 644.831, 150.599 653.907, 154.799 662.982, 158.998 672.058, 163.198 681.133, 167.397 690.209, 171.596 699.285, 175.796 708.360, 179.995 717.436, 184.195 726.511, 188.394 735.587, 192.594 744.662, 196.793 753.738, 200.992 762.813, 205.192 771.889, 209.391 784.383, 215.172 " fill="none" stroke="rgb(0, 0, 0)" stroke-linecap="butt" stroke-linejoin="mitter" stroke-opacity="1.0" stroke-width="1.2000000476837158"/>
      <path d=" M 784.489, 223.942 784.383, 215.172 793.571, 211.227 802.760, 207.281 811.948, 203.335 816.778, 201.261 " fill="none" stroke="rgb(0, 0, 0)" stroke-linecap="butt" stroke-linejoin="mitter" stroke-opacity="1.0" stroke-width="1.2000000476837158"/>
      <path d=" M 247.867, 118.650 256.943, 122.850 266.018, 127.049 275.094, 131.248 284.169, 135.448 293.245, 139.647 302.320, 143.847 311.396, 148.046 320.471, 152.246 329.547, 156.445 338.622, 160.644 347.698, 164.844 356.773, 169.043 365.849, 173.243 374.924, 177.442 384.000, 181.641 393.075, 185.841 402.151, 190.040 411.226, 194.240 420.302, 198.439 429.377, 202.639 438.453, 206.838 447.528, 211.037 456.604, 215.237 465.679, 219.436 474.755, 223.636 483.830, 227.835 492.906, 232.034 501.982, 236.234 511.057, 240.433 520.133, 244.633 529.208, 248.832 538.284, 253.031 547.359, 257.231 556.435, 261.430 565.510, 265.630 574.586, 269.829 583.661, 274.029 592.737, 278.228 601.812, 282.427 614.306, 288.209 " fill="none" stroke="rgb(0, 0, 0)" stroke-linecap="butt" stroke-linejoin="mitter" stroke-opacity="1.0" stroke-width="1.2000000476837158"/>
      <path d=" M 614.412, 296.978 614.306, 288.209 623.495, 284.263 632.683, 280.317 641.872, 276.371 646.702, 274.297 " fill="none" stroke="rgb(0, 0, 0)" stroke-linecap="butt" stroke-linejoin="mitter" stroke-opacity="1.0" stroke-width="1.2000000476837158"/>
      <path d=" M 468.066, 353.458 468.066, 353.458 477.141, 357.657 477.947, 358.030 482.802, 360.276 491.877, 364.476 500.953, 368.675 510.028, 372.874 512.344, 373.946 521.419, 378.145 522.225, 378.518 527.080, 380.764 536.155, 384.964 545.231, 389.163 554.306, 393.363 559.826, 395.917 " fill="none" stroke="rgb(0, 0, 0)" stroke-linecap="butt" stroke-linejoin="mitter" stroke-opacity="1.0" stroke-width="1.2000000476837158"/>
      <path d=" M 790.227, 502.528 799.302, 506.727 800.108, 507.100 804.963, 509.346 814.038, 513.546 823.114, 517.745 832.189, 521.945 834.505, 523.016 834.505, 523.016 837.675, 521.655 839.308, 520.953 848.497, 517.008 857.685, 513.062 858.120, 512.875 867.308, 508.929 871.704, 507.042 871.704, 507.042 874.351, 505.905 874.760, 499.736 874.760, 499.735 " fill="none" stroke="rgb(0, 0, 0)" stroke-linecap="butt" stroke-linejoin="mitter" stroke-opacity="1.0" stroke-width="1.2000000476837158"/>
      <path d=" M 834.399, 514.246 843.587, 510.300 852.776, 506.355 861.823, 502.470 871.011, 498.524 871.598, 498.272 874.246, 497.135 874.654, 490.966 " fill="none" stroke="rgb(0, 0, 0)" stroke-linecap="butt" stroke-linejoin="mitter" stroke-opacity="1.0" stroke-width="1.2000000476837158"/>
      <path d=" M 467.960, 344.688 477.035, 348.887 477.841, 349.260 486.916, 353.459 487.722, 353.832 496.797, 358.031 505.873, 362.231 514.948, 366.430 524.024, 370.630 532.000, 374.320 541.075, 378.520 550.151, 382.719 559.226, 386.919 559.721, 387.147 568.796, 391.347 577.872, 395.546 586.947, 399.746 596.023, 403.945 605.098, 408.144 614.174, 412.344 623.249, 416.543 632.325, 420.743 638.921, 423.795 647.997, 427.994 648.802, 428.367 657.878, 432.566 666.953, 436.766 676.029, 440.965 685.104, 445.165 693.080, 448.855 702.156, 453.055 711.231, 457.254 720.307, 461.454 720.801, 461.682 729.877, 465.882 738.952, 470.081 748.028, 474.281 757.103, 478.480 766.179, 482.679 775.254, 486.879 784.330, 491.078 793.405, 495.278 800.002, 498.330 809.077, 502.529 809.883, 502.902 818.958, 507.102 828.034, 511.301 834.399, 514.246 834.505, 523.016 " fill="none" stroke="rgb(0, 0, 0)" stroke-linecap="butt" stroke-linejoin="mitter" stroke-opacity="1.0" stroke-width="1.2000000476837158"/>
      <path d=" M 619.341, 575.912 628.416, 580.111 629.221, 580.484 629.221, 580.484 638.297, 584.683 647.372, 588.883 656.448, 593.082 663.619, 596.400 663.619, 596.400 666.789, 595.039 675.977, 591.093 685.166, 587.147 694.355, 583.201 700.817, 580.426 700.817, 580.426 710.006, 576.480 710.592, 576.228 " fill="none" stroke="rgb(0, 0, 0)" stroke-linecap="butt" stroke-linejoin="mitter" stroke-opacity="1.0" stroke-width="1.2000000476837158"/>
      <path d=" M 297.180, 426.841 297.180, 426.842 306.255, 431.041 307.060, 431.414 307.060, 431.414 316.136, 435.613 325.211, 439.812 334.287, 444.012 341.457, 447.330 344.662, 448.813 351.338, 451.902 351.338, 451.902 360.414, 456.101 369.489, 460.301 378.565, 464.500 387.640, 468.700 388.940, 469.301 " fill="none" stroke="rgb(0, 0, 0)" stroke-linecap="butt" stroke-linejoin="mitter" stroke-opacity="1.0" stroke-width="1.2000000476837158"/>
      <path d=" M 297.074, 418.072 306.149, 422.271 306.954, 422.644 316.030, 426.843 316.835, 427.216 325.911, 431.415 334.986, 435.615 344.062, 439.814 353.137, 444.014 361.113, 447.704 370.189, 451.904 379.264, 456.103 388.340, 460.302 388.834, 460.531 397.910, 464.731 406.985, 468.930 416.061, 473.129 425.136, 477.329 434.212, 481.528 443.287, 485.728 452.363, 489.927 461.438, 494.127 468.035, 497.179 477.110, 501.378 477.916, 501.751 486.991, 505.950 496.067, 510.150 505.142, 514.349 514.218, 518.549 522.194, 522.239 531.269, 526.439 540.345, 530.638 549.420, 534.838 549.915, 535.066 558.990, 539.266 568.066, 543.465 577.141, 547.665 586.217, 551.864 595.292, 556.063 604.368, 560.263 613.443, 564.462 622.519, 568.662 629.115, 571.714 638.191, 575.913 638.996, 576.286 648.072, 580.485 657.147, 584.685 663.513, 587.630 " fill="none" stroke="rgb(0, 0, 0)" stroke-linecap="butt" stroke-linejoin="mitter" stroke-opacity="1.0" stroke-width="1.2000000476837158"/>
      <path d=" M 663.619, 596.400 663.513, 587.630 672.701, 583.684 681.890, 579.739 690.936, 575.854 700.125, 571.908 700.711, 571.656 709.900, 567.710 710.486, 567.458 " fill="none" stroke="rgb(0, 0, 0)" stroke-linecap="butt" stroke-linejoin="mitter" stroke-opacity="1.0" stroke-width="1.2000000476837158"/>
      <path d=" M 193.843, 147.843 202.919, 152.043 211.995, 156.242 221.070, 160.441 230.146, 164.641 239.221, 168.840 248.297, 173.040 257.372, 177.239 266.448, 181.438 275.523, 185.638 284.599, 189.837 293.674, 194.037 302.750, 198.236 311.825, 202.436 320.901, 206.635 329.976, 210.834 339.052, 215.034 348.127, 219.233 357.203, 223.433 366.278, 227.632 375.354, 231.831 384.429, 236.031 393.505, 240.230 402.580, 244.430 411.656, 248.629 420.731, 252.828 429.807, 257.028 438.882, 261.227 447.958, 265.427 457.033, 269.626 466.109, 273.826 475.184, 278.025 484.260, 282.224 493.335, 286.424 502.411, 290.623 511.486, 294.823 520.562, 299.022 529.637, 303.221 538.713, 307.421 546.847, 311.184 556.846, 311.219 560.692, 311.232 569.880, 307.287 579.069, 303.341 588.257, 299.395 597.446, 295.449 600.538, 294.121 " fill="none" stroke="rgb(0, 0, 0)" stroke-linecap="butt" stroke-linejoin="mitter" stroke-opacity="1.0" stroke-width="1.2000000476837158"/>
      <path d=" M 199.353, 603.867 208.428, 608.067 217.504, 612.266 226.579, 616.465 235.655, 620.665 236.913, 621.247 " fill="none" stroke="rgb(0, 0, 0)" stroke-linecap="butt" stroke-linejoin="mitter" stroke-opacity="1.0" stroke-width="1.2000000476837158"/>
      <path d=" M 237.394, 661.109 237.274, 651.110 237.153, 641.111 237.032, 631.111 236.913, 621.247 246.101, 617.301 255.290, 613.355 264.479, 609.409 269.308, 607.335 " fill="none" stroke="rgb(0, 0, 0)" stroke-linecap="butt" stroke-linejoin="mitter" stroke-opacity="1.0" stroke-width="1.2000000476837158"/>
      <path d=" M 297.767, 475.473 306.843, 479.673 307.648, 480.046 316.723, 484.245 325.799, 488.444 334.355, 492.404 342.046, 495.961 342.047, 495.961 351.235, 492.015 360.424, 488.069 369.613, 484.123 378.801, 480.177 379.244, 479.987 388.432, 476.042 389.018, 475.790 " fill="none" stroke="rgb(0, 0, 0)" stroke-linecap="butt" stroke-linejoin="mitter" stroke-opacity="1.0" stroke-width="1.2000000476837158"/>
      <path d=" M 342.045, 495.962 341.924, 485.962 341.803, 475.963 341.683, 465.964 341.570, 456.663 341.563, 456.099 341.563, 456.099 350.752, 452.154 351.338, 451.902 " fill="none" stroke="rgb(0, 0, 0)" stroke-linecap="butt" stroke-linejoin="mitter" stroke-opacity="1.0" stroke-width="1.2000000476837158"/>
      <path d=" M 458.841, 549.445 458.848, 550.008 467.923, 554.208 476.999, 558.407 486.074, 562.607 495.150, 566.806 503.126, 570.497 512.314, 566.551 521.503, 562.605 530.691, 558.659 539.880, 554.713 540.324, 554.523 549.513, 550.577 550.099, 550.325 " fill="none" stroke="rgb(0, 0, 0)" stroke-linecap="butt" stroke-linejoin="mitter" stroke-opacity="1.0" stroke-width="1.2000000476837158"/>
      <path d=" M 503.126, 570.497 503.005, 560.498 502.884, 550.498 502.763, 540.499 502.644, 530.635 502.644, 530.635 505.186, 529.543 512.419, 526.437 " fill="none" stroke="rgb(0, 0, 0)" stroke-linecap="butt" stroke-linejoin="mitter" stroke-opacity="1.0" stroke-width="1.2000000476837158"/>
      <path d=" M 353.715, 675.294 362.791, 679.493 371.866, 683.692 380.942, 687.892 390.017, 692.091 397.993, 695.782 " fill="none" stroke="rgb(0, 0, 0)" stroke-linecap="butt" stroke-linejoin="mitter" stroke-opacity="1.0" stroke-width="1.2000000476837158"/>
      <path d=" M 398.475, 735.644 398.354, 725.645 398.233, 715.646 398.113, 705.646 397.993, 695.782 407.182, 691.836 416.371, 687.890 425.559, 683.944 430.389, 681.870 " fill="none" stroke="rgb(0, 0, 0)" stroke-linecap="butt" stroke-linejoin="mitter" stroke-opacity="1.0" stroke-width="1.2000000476837158"/>
      <path d=" M 644.305, 469.801 644.312, 470.364 644.312, 470.364 653.387, 474.564 662.463, 478.763 671.538, 482.963 680.614, 487.162 688.590, 490.853 688.590, 490.853 697.779, 486.907 706.967, 482.961 711.211, 481.139 720.399, 477.193 720.985, 476.941 " fill="none" stroke="rgb(0, 0, 0)" stroke-linecap="butt" stroke-linejoin="mitter" stroke-opacity="1.0" stroke-width="1.2000000476837158"/>
      <path d=" M 869.854, 556.720 874.939, 554.537 875.348, 548.367 " fill="none" stroke="rgb(0, 0, 0)" stroke-linecap="butt" stroke-linejoin="mitter" stroke-opacity="1.0" stroke-width="1.2000000476837158"/>
      <path d=" M 849.776, 574.157 849.670, 565.388 849.670, 565.388 840.595, 561.188 831.519, 556.989 822.444, 552.789 813.368, 548.590 805.392, 544.899 804.758, 544.606 " fill="none" stroke="rgb(0, 0, 0)" stroke-linecap="butt" stroke-linejoin="mitter" stroke-opacity="1.0" stroke-width="1.2000000476837158"/>
      <path d=" M 805.386, 544.336 805.392, 544.899 805.392, 544.899 814.468, 549.099 823.543, 553.298 832.619, 557.498 841.694, 561.697 849.670, 565.388 849.670, 565.388 858.859, 561.442 868.048, 557.496 869.854, 556.720 872.291, 555.674 874.939, 554.537 875.348, 548.367 875.348, 548.367 " fill="none" stroke="rgb(0, 0, 0)" stroke-linecap="butt" stroke-linejoin="mitter" stroke-opacity="1.0" stroke-width="1.2000000476837158"/>
      <path d=" M 849.189, 525.525 858.377, 521.580 867.566, 517.634 874.457, 514.674 874.473, 514.439 874.866, 508.505 " fill="none" stroke="rgb(0, 0, 0)" stroke-linecap="butt" stroke-linejoin="mitter" stroke-opacity="1.0" stroke-width="1.2000000476837158"/>
      <path d=" M 849.670, 565.388 849.550, 555.388 849.429, 545.389 849.319, 536.324 849.198, 526.324 849.189, 525.525 849.189, 525.525 " fill="none" stroke="rgb(0, 0, 0)" stroke-linecap="butt" stroke-linejoin="mitter" stroke-opacity="1.0" stroke-width="1.2000000476837158"/>
      <path d=" M 297.767, 475.473 306.842, 479.673 315.918, 483.872 324.994, 488.072 334.355, 492.404 342.045, 495.962 351.121, 500.161 360.196, 504.361 369.272, 508.560 378.347, 512.759 387.423, 516.959 396.498, 521.158 404.054, 524.654 " fill="none" stroke="rgb(0, 0, 0)" stroke-linecap="butt" stroke-linejoin="mitter" stroke-opacity="1.0" stroke-width="1.2000000476837158"/>
      <path d=" M 664.206, 645.032 664.206, 645.032 " fill="none" stroke="rgb(0, 0, 0)" stroke-linecap="butt" stroke-linejoin="mitter" stroke-opacity="1.0" stroke-width="1.2000000476837158"/>
      <path d=" M 619.293, 624.250 628.369, 628.449 637.444, 632.649 646.520, 636.848 655.595, 641.047 664.206, 645.032 664.312, 653.802 " fill="none" stroke="rgb(0, 0, 0)" stroke-linecap="butt" stroke-linejoin="mitter" stroke-opacity="1.0" stroke-width="1.2000000476837158"/>
      <path d=" M 201.279, 763.316 210.355, 767.515 219.430, 771.715 228.506, 775.914 237.581, 780.114 246.657, 784.313 255.732, 788.513 264.808, 792.712 273.883, 796.911 282.959, 801.111 292.034, 805.310 301.110, 809.510 310.185, 813.709 319.261, 817.908 328.336, 822.108 337.412, 826.307 346.487, 830.507 355.563, 834.706 364.638, 838.906 373.714, 843.105 382.789, 847.304 391.865, 851.504 400.940, 855.703 410.016, 859.903 419.091, 864.102 428.167, 868.301 437.242, 872.501 446.318, 876.700 455.393, 880.900 464.469, 885.099 473.544, 889.298 482.620, 893.498 491.695, 897.697 500.771, 901.897 509.847, 906.096 518.922, 910.296 527.998, 914.495 537.073, 918.694 546.149, 922.894 554.282, 926.657 564.282, 926.692 568.127, 926.705 577.316, 922.760 586.504, 918.814 593.396, 915.854 " fill="none" stroke="rgb(0, 0, 0)" stroke-linecap="butt" stroke-linejoin="mitter" stroke-opacity="1.0" stroke-width="1.2000000476837158"/>
      <path d=" M 514.796, 749.829 523.871, 754.028 532.947, 758.227 542.022, 762.427 551.098, 766.626 552.356, 767.208 562.356, 767.243 566.201, 767.256 575.390, 763.311 584.578, 759.365 591.469, 756.405 " fill="none" stroke="rgb(0, 0, 0)" stroke-linecap="butt" stroke-linejoin="mitter" stroke-opacity="1.0" stroke-width="1.2000000476837158"/>
      <path d=" M 619.921, 623.980 619.928, 624.544 629.004, 628.743 638.079, 632.942 647.155, 637.142 656.230, 641.341 664.206, 645.032 664.206, 645.032 673.395, 641.086 682.583, 637.140 690.439, 633.767 699.627, 629.821 701.405, 629.058 710.593, 625.112 711.180, 624.860 " fill="none" stroke="rgb(0, 0, 0)" stroke-linecap="butt" stroke-linejoin="mitter" stroke-opacity="1.0" stroke-width="1.2000000476837158"/>
      <path d=" M 664.206, 645.032 664.085, 635.033 663.964, 625.033 663.844, 615.034 663.724, 605.170 663.724, 605.170 666.267, 604.078 675.455, 600.132 679.204, 598.522 688.393, 594.576 697.582, 590.630 706.770, 586.684 710.698, 584.998 " fill="none" stroke="rgb(0, 0, 0)" stroke-linecap="butt" stroke-linejoin="mitter" stroke-opacity="1.0" stroke-width="1.2000000476837158"/>
      <path d=" M 297.760, 474.910 306.949, 470.964 316.137, 467.018 325.326, 463.072 334.514, 459.127 341.563, 456.099 344.734, 454.738 351.338, 451.902 " fill="none" stroke="rgb(0, 0, 0)" stroke-linecap="butt" stroke-linejoin="mitter" stroke-opacity="1.0" stroke-width="1.2000000476837158"/>
      <path d=" M 451.027, 504.482 441.839, 508.428 441.252, 508.680 432.064, 512.626 422.875, 516.572 413.687, 520.518 404.498, 524.464 404.054, 524.654 394.865, 528.600 394.279, 528.852 " fill="none" stroke="rgb(0, 0, 0)" stroke-linecap="butt" stroke-linejoin="mitter" stroke-opacity="1.0" stroke-width="1.2000000476837158"/>
      <path d=" M 483.231, 395.829 492.307, 400.029 493.112, 400.401 502.188, 404.601 511.263, 408.800 520.339, 413.000 527.509, 416.318 " fill="none" stroke="rgb(0, 0, 0)" stroke-linecap="butt" stroke-linejoin="mitter" stroke-opacity="1.0" stroke-width="1.2000000476837158"/>
      <path d=" M 527.080, 380.764 527.158, 387.253 527.279, 397.253 527.400, 407.252 527.509, 416.318 " fill="none" stroke="rgb(0, 0, 0)" stroke-linecap="butt" stroke-linejoin="mitter" stroke-opacity="1.0" stroke-width="1.2000000476837158"/>
      <path d=" M 448.438, 553.912 457.626, 549.967 458.213, 549.715 458.841, 549.445 468.029, 545.499 477.218, 541.553 486.406, 537.607 495.411, 533.741 502.644, 530.635 505.186, 529.543 505.814, 529.273 512.419, 526.437 " fill="none" stroke="rgb(0, 0, 0)" stroke-linecap="butt" stroke-linejoin="mitter" stroke-opacity="1.0" stroke-width="1.2000000476837158"/>
      <path d=" M 483.225, 395.266 492.413, 391.320 501.602, 387.374 510.790, 383.428 519.979, 379.482 522.225, 378.518 " fill="none" stroke="rgb(0, 0, 0)" stroke-linecap="butt" stroke-linejoin="mitter" stroke-opacity="1.0" stroke-width="1.2000000476837158"/>
      <path d=" M 527.509, 416.318 536.698, 412.372 545.887, 408.426 550.130, 406.604 559.319, 402.658 559.905, 402.406 " fill="none" stroke="rgb(0, 0, 0)" stroke-linecap="butt" stroke-linejoin="mitter" stroke-opacity="1.0" stroke-width="1.2000000476837158"/>
      <path d=" M 458.260, 501.377 467.335, 505.576 468.141, 505.949 468.141, 505.949 477.216, 510.148 486.292, 514.347 495.367, 518.547 502.538, 521.865 505.743, 523.348 512.419, 526.437 512.419, 526.437 521.494, 530.636 530.570, 534.836 539.645, 539.035 548.721, 543.235 550.021, 543.836 " fill="none" stroke="rgb(0, 0, 0)" stroke-linecap="butt" stroke-linejoin="mitter" stroke-opacity="1.0" stroke-width="1.2000000476837158"/>
      <path d=" M 458.213, 549.715 467.288, 553.914 476.364, 558.114 485.439, 562.313 494.515, 566.512 503.590, 570.712 512.666, 574.911 521.741, 579.111 530.817, 583.310 539.892, 587.509 548.968, 591.709 558.043, 595.908 565.134, 599.189 " fill="none" stroke="rgb(0, 0, 0)" stroke-linecap="butt" stroke-linejoin="mitter" stroke-opacity="1.0" stroke-width="1.2000000476837158"/>
      <path d=" M 612.108, 579.018 602.919, 582.963 602.333, 583.215 593.144, 587.161 583.956, 591.107 574.767, 595.053 565.579, 598.999 565.134, 599.189 555.946, 603.135 555.359, 603.387 " fill="none" stroke="rgb(0, 0, 0)" stroke-linecap="butt" stroke-linejoin="mitter" stroke-opacity="1.0" stroke-width="1.2000000476837158"/>
      <path d=" M 621.914, 431.099 612.725, 435.044 612.139, 435.296 602.950, 439.242 593.762, 443.188 589.518, 445.010 580.330, 448.956 579.743, 449.208 " fill="none" stroke="rgb(0, 0, 0)" stroke-linecap="butt" stroke-linejoin="mitter" stroke-opacity="1.0" stroke-width="1.2000000476837158"/>
      <path d=" M 688.160, 455.300 688.239, 461.788 688.360, 471.788 688.480, 481.787 688.590, 490.853 " fill="none" stroke="rgb(0, 0, 0)" stroke-linecap="butt" stroke-linejoin="mitter" stroke-opacity="1.0" stroke-width="1.2000000476837158"/>
      <path d=" M 609.518, 628.447 618.707, 624.502 619.293, 624.250 619.921, 623.980 629.110, 620.034 638.298, 616.088 647.487, 612.142 656.492, 608.276 663.724, 605.170 666.267, 604.078 666.895, 603.808 676.083, 599.862 679.204, 598.522 688.393, 594.576 697.582, 590.630 706.770, 586.684 710.698, 584.998 " fill="none" stroke="rgb(0, 0, 0)" stroke-linecap="butt" stroke-linejoin="mitter" stroke-opacity="1.0" stroke-width="1.2000000476837158"/>
      <path d=" M 690.439, 633.767 699.627, 629.821 708.816, 625.875 711.180, 624.860 " fill="none" stroke="rgb(0, 0, 0)" stroke-linecap="butt" stroke-linejoin="mitter" stroke-opacity="1.0" stroke-width="1.2000000476837158"/>
      <path d=" M 633.902, 474.268 643.091, 470.322 643.677, 470.071 644.305, 469.801 653.494, 465.855 662.682, 461.909 666.298, 460.357 675.486, 456.411 676.073, 456.159 676.701, 455.889 683.305, 453.053 " fill="none" stroke="rgb(0, 0, 0)" stroke-linecap="butt" stroke-linejoin="mitter" stroke-opacity="1.0" stroke-width="1.2000000476837158"/>
      <path d=" M 629.146, 427.993 638.222, 432.192 639.027, 432.565 643.882, 434.811 652.958, 439.011 662.033, 443.210 671.109, 447.409 673.424, 448.481 676.629, 449.964 683.305, 453.053 688.160, 455.300 697.236, 459.499 706.311, 463.698 715.387, 467.898 720.907, 470.452 " fill="none" stroke="rgb(0, 0, 0)" stroke-linecap="butt" stroke-linejoin="mitter" stroke-opacity="1.0" stroke-width="1.2000000476837158"/>
      <path d=" M 782.994, 505.634 773.806, 509.579 773.219, 509.831 764.031, 513.777 754.842, 517.723 750.599, 519.545 741.410, 523.491 740.824, 523.743 " fill="none" stroke="rgb(0, 0, 0)" stroke-linecap="butt" stroke-linejoin="mitter" stroke-opacity="1.0" stroke-width="1.2000000476837158"/>
      <path d=" M 643.677, 470.071 644.312, 470.364 653.387, 474.564 662.463, 478.763 671.538, 482.963 680.614, 487.162 688.590, 490.853 697.665, 495.052 706.741, 499.251 715.816, 503.451 724.892, 507.650 733.968, 511.850 743.043, 516.049 750.599, 519.545 " fill="none" stroke="rgb(0, 0, 0)" stroke-linecap="butt" stroke-linejoin="mitter" stroke-opacity="1.0" stroke-width="1.2000000476837158"/>
      <path d=" M 527.509, 416.318 536.585, 420.517 545.660, 424.716 554.736, 428.916 563.811, 433.115 572.887, 437.315 581.962, 441.514 589.518, 445.010 " fill="none" stroke="rgb(0, 0, 0)" stroke-linecap="butt" stroke-linejoin="mitter" stroke-opacity="1.0" stroke-width="1.2000000476837158"/>
    </g>
  </g>
</svg>
