<?xml version="1.0" encoding="ascii"?>
<svg xmlns="http://www.w3.org/2000/svg" xmlns:inkscape="http://www.inkscape.org/namespaces/inkscape" height="1024" version="1.1" width="1024">
  <g id="RenderLayer_Contour" inkscape:groupmode="lineset" inkscape:label="RenderLayer_Contour">
    <g id="fills" inkscape:groupmode="layer" inkscape:label="fills">
      <path d=" M 513.351, 630.242 513.351, 630.242 z" fill="rgb(226, 226, 226)" fill-opacity="1.0" fill-rule="evenodd" stroke="none"/>
      <path d=" M 352.271, 555.707 352.271, 555.707 z" fill="rgb(226, 226, 226)" fill-opacity="1.0" fill-rule="evenodd" stroke="none"/>
      <path d=" M 810.557, 576.191 810.075, 536.329 810.075, 536.328 809.969, 527.560 809.969, 527.559 809.863, 518.789 456.860, 355.448 443.015, 355.400 403.169, 372.511 403.275, 381.281 399.282, 382.996 389.401, 378.424 357.005, 392.335 357.111, 401.105 353.928, 402.472 344.047, 397.900 297.074, 418.072 297.180, 426.841 293.996, 428.209 284.115, 423.637 251.720, 437.548 251.826, 446.318 247.832, 448.033 237.952, 443.461 198.105, 460.572 197.696, 466.741 197.802, 475.511 197.802, 475.511 197.908, 484.280 197.908, 484.280 198.390, 524.142 198.390, 524.143 198.496, 532.912 551.499, 696.254 565.344, 696.302 590.612, 685.451 590.506, 676.681 590.506, 676.681 590.506, 676.681 590.025, 636.819 590.025, 636.819 609.518, 628.447 664.312, 653.802 711.286, 633.630 711.180, 624.860 711.180, 624.860 711.180, 624.860 710.698, 584.998 710.698, 584.998 730.192, 576.627 784.985, 601.981 810.254, 591.130 810.663, 584.960 810.557, 576.191 810.557, 576.191 810.557, 576.191 z M 429.426, 602.146 429.426, 602.146 429.189, 582.578 513.245, 621.472 513.351, 630.242 513.351, 630.242 513.482, 641.040 429.426, 602.146 z  M 352.271, 555.707 352.401, 566.505 268.345, 527.611 268.109, 508.043 352.165, 546.937 352.271, 555.707 352.271, 555.707 z  M 388.975, 472.157 388.940, 469.301 458.260, 501.377 455.077, 502.744 388.975, 472.157 z  M 418.511, 429.516 418.546, 432.372 408.087, 427.532 411.270, 426.165 418.511, 429.516 z  M 495.079, 427.323 495.035, 423.740 564.355, 455.816 560.362, 457.531 495.079, 427.323 z  M 550.055, 546.692 550.021, 543.836 619.341, 575.912 616.157, 577.279 550.055, 546.692 z  M 656.159, 501.858 656.116, 498.275 725.436, 530.351 721.443, 532.066 656.159, 501.858 z" fill="rgb(226, 226, 226)" fill-opacity="1.0" fill-rule="evenodd" stroke="none"/>
    </g>
    <g id="strokes" inkscape:groupmode="layer" inkscape:label="strokes">
      <path d=" M 399.282, 382.996 389.401, 378.424 357.005, 392.335 357.111, 401.105 " fill="none" stroke="rgb(0, 0, 0)" stroke-linecap="butt" stroke-linejoin="round" stroke-opacity="1.0" stroke-width="3.0"/>
      <path d=" M 293.996, 428.209 284.115, 423.637 251.720, 437.548 251.826, 446.318 " fill="none" stroke="rgb(0, 0, 0)" stroke-linecap="butt" stroke-linejoin="round" stroke-opacity="1.0" stroke-width="3.0"/>
      <path d=" M 809.969, 527.560 809.969, 527.559 809.863, 518.789 719.108, 476.795 628.353, 434.801 537.598, 392.807 456.860, 355.448 443.015, 355.400 403.169, 372.511 403.275, 381.281 " fill="none" stroke="rgb(0, 0, 0)" stroke-linecap="butt" stroke-linejoin="round" stroke-opacity="1.0" stroke-width="3.0"/>
      <path d=" M 353.928, 402.472 344.047, 397.900 297.074, 418.072 297.180, 426.841 " fill="none" stroke="rgb(0, 0, 0)" stroke-linecap="butt" stroke-linejoin="round" stroke-opacity="1.0" stroke-width="3.0"/>
      <path d=" M 247.832, 448.033 237.952, 443.461 198.105, 460.572 197.696, 466.741 197.802, 475.511 197.802, 475.511 " fill="none" stroke="rgb(0, 0, 0)" stroke-linecap="butt" stroke-linejoin="round" stroke-opacity="1.0" stroke-width="3.0"/>
      <path d=" M 197.802, 475.511 197.908, 484.280 197.908, 484.280 " fill="none" stroke="rgb(0, 0, 0)" stroke-linecap="butt" stroke-linejoin="round" stroke-opacity="1.0" stroke-width="3.0"/>
      <path d=" M 429.426, 602.146 429.426, 602.146 429.189, 582.578 " fill="none" stroke="rgb(0, 0, 0)" stroke-linecap="butt" stroke-linejoin="round" stroke-opacity="1.0" stroke-width="3.0"/>
      <path d=" M 352.271, 555.707 352.271, 555.707 352.401, 566.505 " fill="none" stroke="rgb(0, 0, 0)" stroke-linecap="butt" stroke-linejoin="round" stroke-opacity="1.0" stroke-width="3.0"/>
      <path d=" M 730.192, 576.627 784.985, 601.981 810.254, 591.130 810.663, 584.960 810.557, 576.191 810.557, 576.191 " fill="none" stroke="rgb(0, 0, 0)" stroke-linecap="butt" stroke-linejoin="round" stroke-opacity="1.0" stroke-width="3.0"/>
      <path d=" M 810.557, 576.191 810.557, 576.191 810.075, 536.329 810.075, 536.328 " fill="none" stroke="rgb(0, 0, 0)" stroke-linecap="butt" stroke-linejoin="round" stroke-opacity="1.0" stroke-width="3.0"/>
      <path d=" M 609.518, 628.447 664.312, 653.802 711.286, 633.630 711.180, 624.860 711.180, 624.860 " fill="none" stroke="rgb(0, 0, 0)" stroke-linecap="butt" stroke-linejoin="round" stroke-opacity="1.0" stroke-width="3.0"/>
      <path d=" M 198.390, 524.142 198.390, 524.143 198.496, 532.912 289.251, 574.906 380.006, 616.901 470.761, 658.895 551.499, 696.254 565.344, 696.302 590.612, 685.451 590.506, 676.681 590.506, 676.681 " fill="none" stroke="rgb(0, 0, 0)" stroke-linecap="butt" stroke-linejoin="round" stroke-opacity="1.0" stroke-width="3.0"/>
      <path d=" M 590.506, 676.681 590.506, 676.681 590.025, 636.819 590.025, 636.819 " fill="none" stroke="rgb(0, 0, 0)" stroke-linecap="butt" stroke-linejoin="round" stroke-opacity="1.0" stroke-width="3.0"/>
      <path d=" M 513.351, 630.242 513.351, 630.242 513.482, 641.040 " fill="none" stroke="rgb(0, 0, 0)" stroke-linecap="butt" stroke-linejoin="round" stroke-opacity="1.0" stroke-width="3.0"/>
      <path d=" M 711.180, 624.860 711.180, 624.860 710.698, 584.998 710.698, 584.998 " fill="none" stroke="rgb(0, 0, 0)" stroke-linecap="butt" stroke-linejoin="round" stroke-opacity="1.0" stroke-width="3.0"/>
      <path d=" M 197.908, 484.280 198.390, 524.142 " fill="none" stroke="rgb(0, 0, 0)" stroke-linecap="butt" stroke-linejoin="round" stroke-opacity="1.0" stroke-width="3.0"/>
      <path d=" M 268.345, 527.611 268.109, 508.043 " fill="none" stroke="rgb(0, 0, 0)" stroke-linecap="butt" stroke-linejoin="round" stroke-opacity="1.0" stroke-width="3.0"/>
      <path d=" M 352.165, 546.937 352.271, 555.707 352.271, 555.707 " fill="none" stroke="rgb(0, 0, 0)" stroke-linecap="butt" stroke-linejoin="round" stroke-opacity="1.0" stroke-width="3.0"/>
      <path d=" M 388.975, 472.157 388.940, 469.301 " fill="none" stroke="rgb(0, 0, 0)" stroke-linecap="butt" stroke-linejoin="round" stroke-opacity="1.0" stroke-width="3.0"/>
      <path d=" M 418.511, 429.516 418.546, 432.372 " fill="none" stroke="rgb(0, 0, 0)" stroke-linecap="butt" stroke-linejoin="round" stroke-opacity="1.0" stroke-width="3.0"/>
      <path d=" M 251.826, 446.318 247.832, 448.033 " fill="none" stroke="rgb(0, 0, 0)" stroke-linecap="butt" stroke-linejoin="round" stroke-opacity="1.0" stroke-width="3.0"/>
      <path d=" M 297.180, 426.841 293.996, 428.209 " fill="none" stroke="rgb(0, 0, 0)" stroke-linecap="butt" stroke-linejoin="round" stroke-opacity="1.0" stroke-width="3.0"/>
      <path d=" M 357.111, 401.105 353.928, 402.472 " fill="none" stroke="rgb(0, 0, 0)" stroke-linecap="butt" stroke-linejoin="round" stroke-opacity="1.0" stroke-width="3.0"/>
      <path d=" M 403.275, 381.281 399.282, 382.996 " fill="none" stroke="rgb(0, 0, 0)" stroke-linecap="butt" stroke-linejoin="round" stroke-opacity="1.0" stroke-width="3.0"/>
      <path d=" M 408.087, 427.532 411.270, 426.165 " fill="none" stroke="rgb(0, 0, 0)" stroke-linecap="butt" stroke-linejoin="round" stroke-opacity="1.0" stroke-width="3.0"/>
      <path d=" M 495.079, 427.323 495.035, 423.740 " fill="none" stroke="rgb(0, 0, 0)" stroke-linecap="butt" stroke-linejoin="round" stroke-opacity="1.0" stroke-width="3.0"/>
      <path d=" M 513.245, 621.472 513.351, 630.242 513.351, 630.242 " fill="none" stroke="rgb(0, 0, 0)" stroke-linecap="butt" stroke-linejoin="round" stroke-opacity="1.0" stroke-width="3.0"/>
      <path d=" M 550.055, 546.692 550.021, 543.836 " fill="none" stroke="rgb(0, 0, 0)" stroke-linecap="butt" stroke-linejoin="round" stroke-opacity="1.0" stroke-width="3.0"/>
      <path d=" M 429.189, 582.578 513.245, 621.472 " fill="none" stroke="rgb(0, 0, 0)" stroke-linecap="butt" stroke-linejoin="round" stroke-opacity="1.0" stroke-width="3.0"/>
      <path d=" M 268.109, 508.043 352.165, 546.937 " fill="none" stroke="rgb(0, 0, 0)" stroke-linecap="butt" stroke-linejoin="round" stroke-opacity="1.0" stroke-width="3.0"/>
      <path d=" M 352.401, 566.505 268.345, 527.611 " fill="none" stroke="rgb(0, 0, 0)" stroke-linecap="butt" stroke-linejoin="round" stroke-opacity="1.0" stroke-width="3.0"/>
      <path d=" M 513.482, 641.040 429.426, 602.146 " fill="none" stroke="rgb(0, 0, 0)" stroke-linecap="butt" stroke-linejoin="round" stroke-opacity="1.0" stroke-width="3.0"/>
      <path d=" M 458.260, 501.377 455.077, 502.744 " fill="none" stroke="rgb(0, 0, 0)" stroke-linecap="butt" stroke-linejoin="round" stroke-opacity="1.0" stroke-width="3.0"/>
      <path d=" M 564.355, 455.816 560.362, 457.531 " fill="none" stroke="rgb(0, 0, 0)" stroke-linecap="butt" stroke-linejoin="round" stroke-opacity="1.0" stroke-width="3.0"/>
      <path d=" M 455.077, 502.744 388.975, 472.157 " fill="none" stroke="rgb(0, 0, 0)" stroke-linecap="butt" stroke-linejoin="round" stroke-opacity="1.0" stroke-width="3.0"/>
      <path d=" M 616.157, 577.279 550.055, 546.692 " fill="none" stroke="rgb(0, 0, 0)" stroke-linecap="butt" stroke-linejoin="round" stroke-opacity="1.0" stroke-width="3.0"/>
      <path d=" M 656.159, 501.858 656.116, 498.275 " fill="none" stroke="rgb(0, 0, 0)" stroke-linecap="butt" stroke-linejoin="round" stroke-opacity="1.0" stroke-width="3.0"/>
      <path d=" M 550.021, 543.836 619.341, 575.912 " fill="none" stroke="rgb(0, 0, 0)" stroke-linecap="butt" stroke-linejoin="round" stroke-opacity="1.0" stroke-width="3.0"/>
      <path d=" M 388.940, 469.301 458.260, 501.377 " fill="none" stroke="rgb(0, 0, 0)" stroke-linecap="butt" stroke-linejoin="round" stroke-opacity="1.0" stroke-width="3.0"/>
      <path d=" M 418.546, 432.372 408.087, 427.532 " fill="none" stroke="rgb(0, 0, 0)" stroke-linecap="butt" stroke-linejoin="round" stroke-opacity="1.0" stroke-width="3.0"/>
      <path d=" M 411.270, 426.165 418.511, 429.516 " fill="none" stroke="rgb(0, 0, 0)" stroke-linecap="butt" stroke-linejoin="round" stroke-opacity="1.0" stroke-width="3.0"/>
      <path d=" M 560.362, 457.531 495.079, 427.323 " fill="none" stroke="rgb(0, 0, 0)" stroke-linecap="butt" stroke-linejoin="round" stroke-opacity="1.0" stroke-width="3.0"/>
      <path d=" M 721.443, 532.066 656.159, 501.858 " fill="none" stroke="rgb(0, 0, 0)" stroke-linecap="butt" stroke-linejoin="round" stroke-opacity="1.0" stroke-width="3.0"/>
      <path d=" M 656.116, 498.275 725.436, 530.351 " fill="none" stroke="rgb(0, 0, 0)" stroke-linecap="butt" stroke-linejoin="round" stroke-opacity="1.0" stroke-width="3.0"/>
      <path d=" M 495.035, 423.740 564.355, 455.816 " fill="none" stroke="rgb(0, 0, 0)" stroke-linecap="butt" stroke-linejoin="round" stroke-opacity="1.0" stroke-width="3.0"/>
      <path d=" M 619.341, 575.912 616.157, 577.279 " fill="none" stroke="rgb(0, 0, 0)" stroke-linecap="butt" stroke-linejoin="round" stroke-opacity="1.0" stroke-width="3.0"/>
      <path d=" M 725.436, 530.351 721.443, 532.066 " fill="none" stroke="rgb(0, 0, 0)" stroke-linecap="butt" stroke-linejoin="round" stroke-opacity="1.0" stroke-width="3.0"/>
      <path d=" M 710.698, 584.998 730.192, 576.627 " fill="none" stroke="rgb(0, 0, 0)" stroke-linecap="butt" stroke-linejoin="round" stroke-opacity="1.0" stroke-width="3.0"/>
      <path d=" M 590.025, 636.819 609.518, 628.447 " fill="none" stroke="rgb(0, 0, 0)" stroke-linecap="butt" stroke-linejoin="round" stroke-opacity="1.0" stroke-width="3.0"/>
      <path d=" M 810.075, 536.328 809.969, 527.560 " fill="none" stroke="rgb(0, 0, 0)" stroke-linecap="butt" stroke-linejoin="round" stroke-opacity="1.0" stroke-width="3.0"/>
    </g>
  </g>
  <g id="RenderLayer_InLine" inkscape:groupmode="lineset" inkscape:label="RenderLayer_InLine">
    <g id="strokes" inkscape:groupmode="layer" inkscape:label="strokes">
      <path d=" M 723.550, 570.663 730.086, 567.857 739.274, 563.911 740.489, 563.390 749.677, 559.444 752.706, 558.143 755.946, 556.752 755.946, 556.752 755.875, 550.888 755.840, 547.982 746.764, 543.783 740.215, 540.752 731.323, 536.638 722.248, 532.438 721.443, 532.066 " fill="none" stroke="rgb(0, 0, 0)" stroke-linecap="butt" stroke-linejoin="round" stroke-opacity="1.0" stroke-width="1.2000000476837158"/>
      <path d=" M 357.111, 401.105 357.111, 401.105 366.187, 405.304 366.992, 405.677 376.067, 409.876 385.143, 414.076 394.219, 418.275 401.389, 421.593 410.465, 425.793 411.270, 426.165 " fill="none" stroke="rgb(0, 0, 0)" stroke-linecap="butt" stroke-linejoin="round" stroke-opacity="1.0" stroke-width="1.2000000476837158"/>
      <path d=" M 357.005, 392.335 366.081, 396.535 366.886, 396.907 375.962, 401.107 385.037, 405.306 394.113, 409.506 403.188, 413.705 412.264, 417.904 418.405, 420.746 421.045, 421.968 421.680, 422.261 430.755, 426.461 439.831, 430.660 448.906, 434.860 457.982, 439.059 465.958, 442.750 475.033, 446.949 484.109, 451.149 493.184, 455.348 502.260, 459.547 511.335, 463.747 520.411, 467.946 527.967, 471.442 537.042, 475.642 546.118, 479.841 555.193, 484.041 564.269, 488.240 573.344, 492.439 579.486, 495.281 582.125, 496.503 591.201, 500.702 600.276, 504.902 609.352, 509.101 618.427, 513.300 627.038, 517.285 636.114, 521.484 645.189, 525.684 654.265, 529.883 663.340, 534.082 672.416, 538.282 681.491, 542.481 689.047, 545.977 698.123, 550.177 707.198, 554.376 716.274, 558.576 723.444, 561.894 " fill="none" stroke="rgb(0, 0, 0)" stroke-linecap="butt" stroke-linejoin="round" stroke-opacity="1.0" stroke-width="1.2000000476837158"/>
      <path d=" M 723.550, 570.663 723.444, 561.894 732.633, 557.948 740.383, 554.620 749.571, 550.674 752.600, 549.373 755.840, 547.982 " fill="none" stroke="rgb(0, 0, 0)" stroke-linecap="butt" stroke-linejoin="round" stroke-opacity="1.0" stroke-width="1.2000000476837158"/>
      <path d=" M 251.826, 446.318 251.826, 446.318 260.901, 450.517 261.707, 450.890 270.782, 455.089 279.858, 459.289 288.933, 463.488 296.104, 466.806 297.671, 467.531 305.985, 471.378 306.619, 471.672 306.619, 471.672 315.695, 475.871 316.500, 476.244 325.576, 480.443 334.651, 484.643 341.949, 488.020 350.897, 492.160 359.973, 496.360 369.048, 500.559 378.124, 504.758 387.200, 508.958 396.275, 513.157 405.351, 517.357 412.906, 520.853 421.982, 525.052 422.787, 525.425 431.863, 529.624 440.938, 533.824 450.014, 538.023 457.184, 541.341 458.752, 542.066 467.065, 545.913 467.700, 546.207 476.775, 550.406 485.851, 554.606 494.927, 558.805 503.030, 562.555 511.978, 566.695 521.054, 570.895 530.129, 575.094 539.205, 579.294 548.280, 583.493 557.356, 587.692 566.431, 591.892 573.987, 595.388 583.062, 599.587 583.868, 599.960 592.943, 604.159 602.019, 608.359 611.094, 612.558 618.265, 615.876 618.265, 615.876 619.815, 615.210 629.004, 611.265 638.193, 607.319 646.611, 603.704 650.660, 601.965 650.660, 601.965 650.626, 599.109 650.598, 596.828 650.555, 593.195 641.479, 588.996 632.404, 584.796 626.038, 581.851 626.038, 581.851 616.963, 577.651 616.157, 577.279 " fill="none" stroke="rgb(0, 0, 0)" stroke-linecap="butt" stroke-linejoin="round" stroke-opacity="1.0" stroke-width="1.2000000476837158"/>
      <path d=" M 251.720, 437.548 260.795, 441.748 261.601, 442.120 270.676, 446.320 279.752, 450.519 288.827, 454.718 297.565, 458.762 306.641, 462.961 315.759, 467.181 316.394, 467.474 325.470, 471.674 334.545, 475.873 343.621, 480.073 352.696, 484.272 360.672, 487.963 369.748, 492.162 378.823, 496.361 387.899, 500.561 396.974, 504.760 406.050, 508.960 415.125, 513.159 422.681, 516.655 431.757, 520.855 440.832, 525.054 449.908, 529.253 458.646, 533.297 467.721, 537.496 476.840, 541.716 485.916, 545.915 494.991, 550.114 504.067, 554.314 513.142, 558.513 521.753, 562.498 530.828, 566.697 539.904, 570.896 548.979, 575.096 558.055, 579.295 567.130, 583.495 576.206, 587.694 583.762, 591.190 592.837, 595.390 601.913, 599.589 610.988, 603.789 618.159, 607.106 " fill="none" stroke="rgb(0, 0, 0)" stroke-linecap="butt" stroke-linejoin="round" stroke-opacity="1.0" stroke-width="1.2000000476837158"/>
      <path d=" M 618.265, 615.876 618.159, 607.106 619.709, 606.441 628.898, 602.495 638.087, 598.549 646.505, 594.934 650.555, 593.195 " fill="none" stroke="rgb(0, 0, 0)" stroke-linecap="butt" stroke-linejoin="round" stroke-opacity="1.0" stroke-width="1.2000000476837158"/>
      <path d=" M 403.275, 381.281 403.275, 381.281 412.350, 385.480 413.156, 385.853 418.011, 388.099 427.086, 392.299 436.162, 396.498 445.237, 400.698 447.553, 401.769 456.628, 405.969 457.434, 406.341 462.289, 408.588 471.364, 412.787 480.440, 416.987 489.515, 421.186 495.035, 423.740 " fill="none" stroke="rgb(0, 0, 0)" stroke-linecap="butt" stroke-linejoin="round" stroke-opacity="1.0" stroke-width="1.2000000476837158"/>
      <path d=" M 725.436, 530.351 734.511, 534.550 735.317, 534.923 740.172, 537.170 749.247, 541.369 758.323, 545.568 767.398, 549.768 769.714, 550.839 769.714, 550.839 772.884, 549.478 774.517, 548.777 783.706, 544.831 792.894, 540.885 802.083, 536.939 806.912, 534.865 806.912, 534.865 809.560, 533.728 809.969, 527.560 " fill="none" stroke="rgb(0, 0, 0)" stroke-linecap="butt" stroke-linejoin="round" stroke-opacity="1.0" stroke-width="1.2000000476837158"/>
      <path d=" M 769.608, 542.070 778.796, 538.124 787.985, 534.178 797.032, 530.293 806.220, 526.347 806.806, 526.095 809.454, 524.958 809.863, 518.789 " fill="none" stroke="rgb(0, 0, 0)" stroke-linecap="butt" stroke-linejoin="round" stroke-opacity="1.0" stroke-width="1.2000000476837158"/>
      <path d=" M 403.169, 372.511 412.244, 376.711 413.050, 377.083 422.125, 381.283 422.930, 381.655 432.006, 385.855 441.082, 390.054 450.157, 394.253 459.233, 398.453 467.209, 402.144 476.284, 406.343 485.360, 410.542 494.435, 414.742 494.929, 414.971 504.005, 419.170 513.081, 423.369 522.156, 427.569 531.232, 431.768 540.307, 435.968 549.383, 440.167 558.458, 444.366 567.534, 448.566 574.130, 451.618 583.206, 455.818 584.011, 456.190 593.087, 460.390 602.162, 464.589 611.238, 468.789 620.313, 472.988 628.289, 476.679 637.365, 480.878 646.440, 485.077 655.516, 489.277 656.010, 489.506 665.086, 493.705 674.161, 497.904 683.237, 502.104 692.312, 506.303 701.388, 510.503 710.463, 514.702 719.539, 518.902 728.614, 523.101 735.211, 526.153 744.286, 530.353 745.092, 530.725 754.167, 534.925 763.243, 539.124 769.608, 542.070 769.714, 550.839 " fill="none" stroke="rgb(0, 0, 0)" stroke-linecap="butt" stroke-linejoin="round" stroke-opacity="1.0" stroke-width="1.2000000476837158"/>
      <path d=" M 619.341, 575.912 628.416, 580.111 629.221, 580.484 629.221, 580.484 638.297, 584.683 647.372, 588.883 656.448, 593.082 663.619, 596.400 663.619, 596.400 666.789, 595.039 675.977, 591.093 685.166, 587.147 694.355, 583.201 700.817, 580.426 710.006, 576.480 710.592, 576.228 710.592, 576.228 710.487, 567.509 710.486, 567.458 701.411, 563.259 692.335, 559.060 685.970, 556.114 676.894, 551.915 676.089, 551.542 667.013, 547.343 657.938, 543.143 648.862, 538.944 639.787, 534.744 630.711, 530.545 621.636, 526.346 612.560, 522.146 603.485, 517.947 594.409, 513.747 585.334, 509.548 576.258, 505.349 569.167, 502.067 560.092, 497.868 559.286, 497.495 550.211, 493.296 541.135, 489.096 532.060, 484.897 524.889, 481.579 515.814, 477.380 515.008, 477.007 505.933, 472.808 496.857, 468.608 487.782, 464.409 478.706, 460.209 469.631, 456.010 460.555, 451.811 451.480, 447.611 442.404, 443.412 433.329, 439.212 424.253, 435.013 418.602, 432.398 418.546, 432.372 " fill="none" stroke="rgb(0, 0, 0)" stroke-linecap="butt" stroke-linejoin="round" stroke-opacity="1.0" stroke-width="1.2000000476837158"/>
      <path d=" M 297.180, 426.841 297.180, 426.842 306.255, 431.041 307.060, 431.414 307.060, 431.414 316.136, 435.613 325.211, 439.812 334.287, 444.012 341.457, 447.330 344.662, 448.813 351.338, 451.902 351.338, 451.902 360.414, 456.101 369.489, 460.301 378.565, 464.500 387.640, 468.700 388.940, 469.301 " fill="none" stroke="rgb(0, 0, 0)" stroke-linecap="butt" stroke-linejoin="round" stroke-opacity="1.0" stroke-width="1.2000000476837158"/>
      <path d=" M 297.074, 418.072 306.149, 422.271 306.954, 422.644 316.030, 426.843 316.835, 427.216 325.911, 431.415 334.986, 435.615 344.062, 439.814 353.137, 444.014 361.113, 447.704 370.189, 451.904 379.264, 456.103 388.340, 460.302 388.834, 460.531 397.910, 464.731 406.985, 468.930 416.061, 473.129 425.136, 477.329 434.212, 481.528 443.287, 485.728 452.363, 489.927 461.438, 494.127 468.035, 497.179 477.110, 501.378 477.916, 501.751 486.991, 505.950 496.067, 510.150 505.142, 514.349 514.218, 518.549 522.194, 522.239 531.269, 526.439 540.345, 530.638 549.420, 534.838 549.915, 535.066 558.990, 539.266 568.066, 543.465 577.141, 547.665 586.217, 551.864 595.292, 556.063 604.368, 560.263 613.443, 564.462 622.519, 568.662 629.115, 571.714 638.191, 575.913 638.996, 576.286 648.072, 580.485 657.147, 584.685 663.513, 587.630 " fill="none" stroke="rgb(0, 0, 0)" stroke-linecap="butt" stroke-linejoin="round" stroke-opacity="1.0" stroke-width="1.2000000476837158"/>
      <path d=" M 663.619, 596.400 663.513, 587.630 672.701, 583.684 681.890, 579.739 690.936, 575.854 700.125, 571.908 709.314, 567.962 710.430, 567.482 710.486, 567.458 " fill="none" stroke="rgb(0, 0, 0)" stroke-linecap="butt" stroke-linejoin="round" stroke-opacity="1.0" stroke-width="1.2000000476837158"/>
      <path d=" M 550.805, 638.852 560.805, 638.887 564.650, 638.900 573.839, 634.954 580.144, 632.247 589.332, 628.301 598.521, 624.355 599.638, 623.875 604.497, 621.789 604.497, 621.789 604.443, 617.379 604.391, 613.019 595.315, 608.820 586.240, 604.620 579.874, 601.675 570.799, 597.475 569.994, 597.103 560.918, 592.903 551.843, 588.704 542.767, 584.505 533.691, 580.305 524.616, 576.106 515.540, 571.906 507.985, 568.410 503.073, 566.137 493.997, 561.938 484.922, 557.738 475.846, 553.539 466.771, 549.340 463.707, 547.922 463.072, 547.628 458.795, 545.649 453.191, 543.056 444.116, 538.857 435.040, 534.657 425.965, 530.458 418.794, 527.140 409.718, 522.940 408.913, 522.568 399.837, 518.368 390.762, 514.169 381.686, 509.969 372.611, 505.770 363.535, 501.571 354.460, 497.371 346.904, 493.875 341.992, 491.602 332.917, 487.403 323.841, 483.203 314.766, 479.004 312.507, 477.959 303.432, 473.759 302.626, 473.387 302.626, 473.387 301.991, 473.093 297.714, 471.114 292.111, 468.521 283.035, 464.322 273.959, 460.122 264.884, 455.923 257.713, 452.605 248.638, 448.405 247.832, 448.033 " fill="none" stroke="rgb(0, 0, 0)" stroke-linecap="butt" stroke-linejoin="round" stroke-opacity="1.0" stroke-width="1.2000000476837158"/>
      <path d=" M 197.696, 466.741 200.859, 468.205 209.934, 472.404 210.740, 472.777 219.815, 476.976 228.891, 481.175 237.966, 485.375 247.042, 489.574 255.018, 493.265 264.093, 497.464 268.003, 499.273 277.078, 503.473 286.154, 507.672 295.229, 511.872 304.305, 516.071 313.380, 520.270 322.456, 524.470 331.531, 528.669 340.607, 532.869 349.682, 537.068 358.758, 541.267 361.940, 542.740 371.015, 546.939 371.820, 547.312 380.896, 551.511 389.971, 555.710 399.047, 559.910 408.122, 564.109 416.098, 567.800 425.174, 571.999 429.083, 573.808 438.159, 578.008 447.234, 582.207 456.310, 586.407 465.385, 590.606 474.461, 594.805 483.536, 599.005 492.612, 603.204 501.687, 607.404 510.763, 611.603 519.839, 615.802 523.020, 617.275 532.096, 621.474 532.901, 621.847 541.976, 626.046 550.699, 630.082 560.699, 630.117 564.544, 630.130 570.263, 627.675 579.452, 623.729 588.640, 619.783 589.757, 619.303 598.945, 615.358 604.391, 613.019 " fill="none" stroke="rgb(0, 0, 0)" stroke-linecap="butt" stroke-linejoin="round" stroke-opacity="1.0" stroke-width="1.2000000476837158"/>
      <path d=" M 235.468, 501.660 244.657, 497.714 245.243, 497.463 " fill="none" stroke="rgb(0, 0, 0)" stroke-linecap="butt" stroke-linejoin="round" stroke-opacity="1.0" stroke-width="1.2000000476837158"/>
      <path d=" M 235.362, 492.891 235.362, 492.890 " fill="none" stroke="rgb(0, 0, 0)" stroke-linecap="butt" stroke-linejoin="round" stroke-opacity="1.0" stroke-width="1.2000000476837158"/>
      <path d=" M 235.468, 501.660 235.362, 492.891 226.287, 488.691 217.215, 484.494 " fill="none" stroke="rgb(0, 0, 0)" stroke-linecap="butt" stroke-linejoin="round" stroke-opacity="1.0" stroke-width="1.2000000476837158"/>
      <path d=" M 352.271, 555.707 361.346, 559.906 370.422, 564.106 379.497, 568.305 385.017, 570.859 394.093, 575.059 396.549, 576.195 396.549, 576.195 405.737, 572.249 406.324, 571.998 " fill="none" stroke="rgb(0, 0, 0)" stroke-linecap="butt" stroke-linejoin="round" stroke-opacity="1.0" stroke-width="1.2000000476837158"/>
      <path d=" M 396.443, 567.426 396.443, 567.426 " fill="none" stroke="rgb(0, 0, 0)" stroke-linecap="butt" stroke-linejoin="round" stroke-opacity="1.0" stroke-width="1.2000000476837158"/>
      <path d=" M 396.549, 576.195 396.443, 567.426 387.367, 563.226 380.496, 560.047 " fill="none" stroke="rgb(0, 0, 0)" stroke-linecap="butt" stroke-linejoin="round" stroke-opacity="1.0" stroke-width="1.2000000476837158"/>
      <path d=" M 513.351, 630.242 522.427, 634.441 531.502, 638.641 540.578, 642.840 546.098, 645.394 550.911, 647.622 560.911, 647.656 564.756, 647.670 564.756, 647.670 572.128, 644.504 581.316, 640.558 590.025, 636.819 " fill="none" stroke="rgb(0, 0, 0)" stroke-linecap="butt" stroke-linejoin="round" stroke-opacity="1.0" stroke-width="1.2000000476837158"/>
      <path d=" M 730.192, 576.627 739.380, 572.681 739.967, 572.429 740.595, 572.159 749.783, 568.213 758.972, 564.267 762.587, 562.715 771.776, 558.769 772.362, 558.517 772.990, 558.248 782.179, 554.302 784.398, 553.349 793.586, 549.403 802.775, 545.457 809.666, 542.498 810.075, 536.329 810.075, 536.328 " fill="none" stroke="rgb(0, 0, 0)" stroke-linecap="butt" stroke-linejoin="round" stroke-opacity="1.0" stroke-width="1.2000000476837158"/>
      <path d=" M 541.342, 634.473 550.418, 638.673 550.805, 638.852 550.805, 638.852 560.805, 638.887 564.650, 638.900 573.839, 634.954 580.144, 632.247 589.332, 628.301 598.521, 624.355 599.638, 623.875 604.497, 621.789 613.685, 617.843 618.265, 615.876 619.815, 615.210 629.004, 611.265 638.193, 607.319 647.381, 603.373 650.660, 601.965 656.386, 599.506 663.619, 596.400 672.807, 592.454 681.996, 588.508 691.184, 584.562 700.373, 580.616 700.817, 580.426 710.006, 576.480 710.592, 576.228 719.781, 572.282 720.311, 572.054 723.550, 570.663 732.739, 566.717 740.489, 563.389 749.677, 559.444 755.946, 556.752 762.481, 553.945 769.714, 550.839 778.902, 546.893 788.091, 542.948 797.280, 539.002 806.468, 535.056 806.912, 534.865 809.560, 533.728 " fill="none" stroke="rgb(0, 0, 0)" stroke-linecap="butt" stroke-linejoin="round" stroke-opacity="1.0" stroke-width="1.2000000476837158"/>
      <path d=" M 198.390, 524.142 198.390, 524.143 201.553, 525.606 210.628, 529.806 219.704, 534.005 228.779, 538.204 235.950, 541.522 245.138, 537.577 254.327, 533.631 258.570, 531.808 267.759, 527.863 268.345, 527.611 268.345, 527.611 " fill="none" stroke="rgb(0, 0, 0)" stroke-linecap="butt" stroke-linejoin="round" stroke-opacity="1.0" stroke-width="1.2000000476837158"/>
      <path d=" M 197.908, 484.280 206.984, 488.480 216.059, 492.679 225.135, 496.879 226.187, 497.365 235.262, 501.565 235.468, 501.660 " fill="none" stroke="rgb(0, 0, 0)" stroke-linecap="butt" stroke-linejoin="round" stroke-opacity="1.0" stroke-width="1.2000000476837158"/>
      <path d=" M 235.950, 541.522 235.829, 531.523 235.708, 521.524 235.599, 512.458 235.478, 502.459 235.468, 501.660 235.468, 501.660 244.657, 497.714 245.243, 497.463 " fill="none" stroke="rgb(0, 0, 0)" stroke-linecap="butt" stroke-linejoin="round" stroke-opacity="1.0" stroke-width="1.2000000476837158"/>
      <path d=" M 197.908, 484.280 197.908, 484.280 " fill="none" stroke="rgb(0, 0, 0)" stroke-linecap="butt" stroke-linejoin="round" stroke-opacity="1.0" stroke-width="1.2000000476837158"/>
      <path d=" M 352.401, 566.505 352.507, 575.275 352.628, 585.274 352.749, 595.273 352.752, 595.569 361.828, 599.769 370.903, 603.968 379.979, 608.167 389.054, 612.367 397.030, 616.057 406.219, 612.112 415.407, 608.166 419.651, 606.343 428.839, 602.398 429.426, 602.146 " fill="none" stroke="rgb(0, 0, 0)" stroke-linecap="butt" stroke-linejoin="round" stroke-opacity="1.0" stroke-width="1.2000000476837158"/>
      <path d=" M 352.271, 555.707 361.346, 559.906 370.422, 564.106 379.497, 568.305 388.573, 572.505 396.549, 576.195 " fill="none" stroke="rgb(0, 0, 0)" stroke-linecap="butt" stroke-linejoin="round" stroke-opacity="1.0" stroke-width="1.2000000476837158"/>
      <path d=" M 397.030, 616.057 396.909, 606.058 396.789, 596.059 396.679, 586.993 396.558, 576.994 396.549, 576.195 396.549, 576.195 405.737, 572.249 406.324, 571.998 " fill="none" stroke="rgb(0, 0, 0)" stroke-linecap="butt" stroke-linejoin="round" stroke-opacity="1.0" stroke-width="1.2000000476837158"/>
      <path d=" M 804.659, 584.717 810.148, 582.360 810.557, 576.191 " fill="none" stroke="rgb(0, 0, 0)" stroke-linecap="butt" stroke-linejoin="round" stroke-opacity="1.0" stroke-width="1.2000000476837158"/>
      <path d=" M 784.985, 601.981 784.879, 593.211 784.879, 593.211 775.804, 589.011 766.728, 584.812 757.653, 580.613 748.577, 576.413 740.601, 572.723 739.967, 572.429 " fill="none" stroke="rgb(0, 0, 0)" stroke-linecap="butt" stroke-linejoin="round" stroke-opacity="1.0" stroke-width="1.2000000476837158"/>
      <path d=" M 740.595, 572.159 740.601, 572.723 740.601, 572.723 749.677, 576.922 758.752, 581.121 767.828, 585.321 776.903, 589.520 784.879, 593.211 784.879, 593.211 794.068, 589.265 803.257, 585.319 804.659, 584.717 807.500, 583.497 810.148, 582.360 810.557, 576.191 " fill="none" stroke="rgb(0, 0, 0)" stroke-linecap="butt" stroke-linejoin="round" stroke-opacity="1.0" stroke-width="1.2000000476837158"/>
      <path d=" M 784.398, 553.349 793.586, 549.403 802.775, 545.457 809.666, 542.498 810.075, 536.329 " fill="none" stroke="rgb(0, 0, 0)" stroke-linecap="butt" stroke-linejoin="round" stroke-opacity="1.0" stroke-width="1.2000000476837158"/>
      <path d=" M 784.879, 593.211 784.759, 583.212 784.638, 573.212 784.528, 564.147 784.407, 554.148 784.398, 553.349 784.398, 553.349 " fill="none" stroke="rgb(0, 0, 0)" stroke-linecap="butt" stroke-linejoin="round" stroke-opacity="1.0" stroke-width="1.2000000476837158"/>
      <path d=" M 664.206, 645.032 664.206, 645.032 " fill="none" stroke="rgb(0, 0, 0)" stroke-linecap="butt" stroke-linejoin="round" stroke-opacity="1.0" stroke-width="1.2000000476837158"/>
      <path d=" M 619.293, 624.250 628.369, 628.449 637.444, 632.649 646.520, 636.848 655.595, 641.047 664.206, 645.032 664.312, 653.802 " fill="none" stroke="rgb(0, 0, 0)" stroke-linecap="butt" stroke-linejoin="round" stroke-opacity="1.0" stroke-width="1.2000000476837158"/>
      <path d=" M 198.390, 524.143 207.465, 528.342 216.541, 532.541 225.616, 536.741 234.692, 540.940 243.767, 545.140 252.843, 549.339 261.918, 553.539 270.994, 557.738 280.069, 561.937 289.145, 566.137 298.220, 570.336 307.296, 574.536 316.371, 578.735 325.447, 582.934 334.522, 587.134 343.598, 591.333 352.673, 595.533 361.749, 599.732 370.824, 603.931 379.900, 608.131 388.975, 612.330 398.051, 616.530 407.126, 620.729 416.202, 624.929 425.277, 629.128 434.353, 633.327 443.428, 637.527 452.504, 641.726 461.579, 645.926 470.655, 650.125 479.730, 654.324 488.806, 658.524 497.882, 662.723 506.957, 666.923 516.033, 671.122 525.108, 675.322 534.184, 679.521 543.259, 683.720 551.393, 687.484 551.393, 687.484 " fill="none" stroke="rgb(0, 0, 0)" stroke-linecap="butt" stroke-linejoin="round" stroke-opacity="1.0" stroke-width="1.2000000476837158"/>
      <path d=" M 513.482, 641.040 513.588, 649.810 513.708, 659.809 513.829, 669.808 513.833, 670.104 522.908, 674.304 531.984, 678.503 541.059, 682.702 550.135, 686.902 551.393, 687.484 551.393, 687.484 561.393, 687.519 565.238, 687.532 572.104, 684.584 580.731, 680.879 589.920, 676.933 590.506, 676.681 " fill="none" stroke="rgb(0, 0, 0)" stroke-linecap="butt" stroke-linejoin="round" stroke-opacity="1.0" stroke-width="1.2000000476837158"/>
      <path d=" M 513.351, 630.242 522.427, 634.441 531.502, 638.641 540.578, 642.840 549.653, 647.040 550.911, 647.622 560.911, 647.656 564.757, 647.669 564.758, 647.669 572.128, 644.504 581.316, 640.558 590.025, 636.819 " fill="none" stroke="rgb(0, 0, 0)" stroke-linecap="butt" stroke-linejoin="round" stroke-opacity="1.0" stroke-width="1.2000000476837158"/>
      <path d=" M 619.921, 623.980 619.928, 624.544 629.004, 628.743 638.079, 632.942 647.155, 637.142 656.230, 641.341 664.206, 645.032 664.206, 645.032 673.395, 641.086 682.583, 637.140 690.439, 633.767 699.627, 629.821 701.405, 629.058 710.593, 625.112 711.180, 624.860 " fill="none" stroke="rgb(0, 0, 0)" stroke-linecap="butt" stroke-linejoin="round" stroke-opacity="1.0" stroke-width="1.2000000476837158"/>
      <path d=" M 664.206, 645.032 664.085, 635.033 663.964, 625.033 663.844, 615.034 663.724, 605.170 663.724, 605.170 666.267, 604.078 675.455, 600.132 676.645, 599.621 685.833, 595.675 695.022, 591.729 704.211, 587.784 710.698, 584.998 " fill="none" stroke="rgb(0, 0, 0)" stroke-linecap="butt" stroke-linejoin="round" stroke-opacity="1.0" stroke-width="1.2000000476837158"/>
      <path d=" M 226.187, 497.365 235.262, 501.565 235.468, 501.660 " fill="none" stroke="rgb(0, 0, 0)" stroke-linecap="butt" stroke-linejoin="round" stroke-opacity="1.0" stroke-width="1.2000000476837158"/>
      <path d=" M 341.949, 488.020 341.992, 491.602 " fill="none" stroke="rgb(0, 0, 0)" stroke-linecap="butt" stroke-linejoin="round" stroke-opacity="1.0" stroke-width="1.2000000476837158"/>
      <path d=" M 348.155, 453.269 351.338, 451.902 " fill="none" stroke="rgb(0, 0, 0)" stroke-linecap="butt" stroke-linejoin="round" stroke-opacity="1.0" stroke-width="1.2000000476837158"/>
      <path d=" M 346.904, 493.875 350.897, 492.160 " fill="none" stroke="rgb(0, 0, 0)" stroke-linecap="butt" stroke-linejoin="round" stroke-opacity="1.0" stroke-width="1.2000000476837158"/>
      <path d=" M 462.289, 408.588 462.332, 412.170 " fill="none" stroke="rgb(0, 0, 0)" stroke-linecap="butt" stroke-linejoin="round" stroke-opacity="1.0" stroke-width="1.2000000476837158"/>
      <path d=" M 443.560, 403.484 447.553, 401.769 " fill="none" stroke="rgb(0, 0, 0)" stroke-linecap="butt" stroke-linejoin="round" stroke-opacity="1.0" stroke-width="1.2000000476837158"/>
      <path d=" M 398.206, 422.960 401.389, 421.593 " fill="none" stroke="rgb(0, 0, 0)" stroke-linecap="butt" stroke-linejoin="round" stroke-opacity="1.0" stroke-width="1.2000000476837158"/>
      <path d=" M 338.274, 448.697 341.457, 447.330 " fill="none" stroke="rgb(0, 0, 0)" stroke-linecap="butt" stroke-linejoin="round" stroke-opacity="1.0" stroke-width="1.2000000476837158"/>
      <path d=" M 292.111, 468.521 296.104, 466.806 " fill="none" stroke="rgb(0, 0, 0)" stroke-linecap="butt" stroke-linejoin="round" stroke-opacity="1.0" stroke-width="1.2000000476837158"/>
      <path d=" M 453.440, 408.056 457.434, 406.341 " fill="none" stroke="rgb(0, 0, 0)" stroke-linecap="butt" stroke-linejoin="round" stroke-opacity="1.0" stroke-width="1.2000000476837158"/>
      <path d=" M 348.155, 453.269 351.338, 451.902 " fill="none" stroke="rgb(0, 0, 0)" stroke-linecap="butt" stroke-linejoin="round" stroke-opacity="1.0" stroke-width="1.2000000476837158"/>
      <path d=" M 301.991, 473.093 305.985, 471.378 " fill="none" stroke="rgb(0, 0, 0)" stroke-linecap="butt" stroke-linejoin="round" stroke-opacity="1.0" stroke-width="1.2000000476837158"/>
      <path d=" M 503.030, 562.555 503.073, 566.137 " fill="none" stroke="rgb(0, 0, 0)" stroke-linecap="butt" stroke-linejoin="round" stroke-opacity="1.0" stroke-width="1.2000000476837158"/>
      <path d=" M 509.236, 527.804 512.419, 526.437 " fill="none" stroke="rgb(0, 0, 0)" stroke-linecap="butt" stroke-linejoin="round" stroke-opacity="1.0" stroke-width="1.2000000476837158"/>
      <path d=" M 507.985, 568.410 511.978, 566.695 " fill="none" stroke="rgb(0, 0, 0)" stroke-linecap="butt" stroke-linejoin="round" stroke-opacity="1.0" stroke-width="1.2000000476837158"/>
      <path d=" M 513.245, 621.472 522.321, 625.672 523.126, 626.044 523.126, 626.044 532.202, 630.244 541.342, 634.473 545.992, 636.625 550.805, 638.852 " fill="none" stroke="rgb(0, 0, 0)" stroke-linecap="butt" stroke-linejoin="round" stroke-opacity="1.0" stroke-width="1.2000000476837158"/>
      <path d=" M 352.165, 546.937 361.240, 551.137 362.045, 551.509 362.045, 551.509 371.121, 555.709 380.197, 559.908 380.496, 560.047 384.911, 562.090 393.987, 566.289 396.443, 567.426 405.518, 571.625 406.324, 571.998 406.324, 571.998 415.399, 576.197 424.475, 580.396 429.189, 582.578 " fill="none" stroke="rgb(0, 0, 0)" stroke-linecap="butt" stroke-linejoin="round" stroke-opacity="1.0" stroke-width="1.2000000476837158"/>
      <path d=" M 197.802, 475.511 200.965, 476.974 200.965, 476.974 210.040, 481.174 217.215, 484.494 223.831, 487.555 232.906, 491.754 235.362, 492.890 244.438, 497.090 245.243, 497.463 245.243, 497.463 254.318, 501.662 263.394, 505.861 268.109, 508.043 " fill="none" stroke="rgb(0, 0, 0)" stroke-linecap="butt" stroke-linejoin="round" stroke-opacity="1.0" stroke-width="1.2000000476837158"/>
      <path d=" M 572.104, 684.584 581.292, 680.638 590.506, 676.681 " fill="none" stroke="rgb(0, 0, 0)" stroke-linecap="butt" stroke-linejoin="round" stroke-opacity="1.0" stroke-width="1.2000000476837158"/>
      <path d=" M 412.906, 520.853 408.913, 522.568 " fill="none" stroke="rgb(0, 0, 0)" stroke-linecap="butt" stroke-linejoin="round" stroke-opacity="1.0" stroke-width="1.2000000476837158"/>
      <path d=" M 518.192, 475.640 515.008, 477.007 " fill="none" stroke="rgb(0, 0, 0)" stroke-linecap="butt" stroke-linejoin="round" stroke-opacity="1.0" stroke-width="1.2000000476837158"/>
      <path d=" M 623.369, 483.123 623.413, 486.705 " fill="none" stroke="rgb(0, 0, 0)" stroke-linecap="butt" stroke-linejoin="round" stroke-opacity="1.0" stroke-width="1.2000000476837158"/>
      <path d=" M 388.975, 472.157 379.899, 467.958 370.824, 463.758 361.748, 459.559 352.673, 455.359 348.155, 453.269 348.155, 453.269 344.697, 451.669 338.274, 448.697 329.199, 444.497 320.123, 440.298 311.048, 436.099 303.877, 432.781 303.877, 432.781 294.801, 428.581 293.996, 428.209 " fill="none" stroke="rgb(0, 0, 0)" stroke-linecap="butt" stroke-linejoin="round" stroke-opacity="1.0" stroke-width="1.2000000476837158"/>
      <path d=" M 550.055, 546.692 540.980, 542.493 531.904, 538.293 522.829, 534.094 513.753, 529.894 509.236, 527.804 509.236, 527.804 505.777, 526.204 499.355, 523.232 490.279, 519.032 481.204, 514.833 472.128, 510.634 464.957, 507.316 464.957, 507.316 455.882, 503.116 455.077, 502.744 " fill="none" stroke="rgb(0, 0, 0)" stroke-linecap="butt" stroke-linejoin="round" stroke-opacity="1.0" stroke-width="1.2000000476837158"/>
      <path d=" M 604.640, 478.019 608.633, 476.304 " fill="none" stroke="rgb(0, 0, 0)" stroke-linecap="butt" stroke-linejoin="round" stroke-opacity="1.0" stroke-width="1.2000000476837158"/>
      <path d=" M 559.286, 497.495 562.470, 496.128 " fill="none" stroke="rgb(0, 0, 0)" stroke-linecap="butt" stroke-linejoin="round" stroke-opacity="1.0" stroke-width="1.2000000476837158"/>
      <path d=" M 499.355, 523.232 502.538, 521.865 " fill="none" stroke="rgb(0, 0, 0)" stroke-linecap="butt" stroke-linejoin="round" stroke-opacity="1.0" stroke-width="1.2000000476837158"/>
      <path d=" M 453.191, 543.056 457.184, 541.341 " fill="none" stroke="rgb(0, 0, 0)" stroke-linecap="butt" stroke-linejoin="round" stroke-opacity="1.0" stroke-width="1.2000000476837158"/>
      <path d=" M 614.521, 482.591 618.514, 480.876 " fill="none" stroke="rgb(0, 0, 0)" stroke-linecap="butt" stroke-linejoin="round" stroke-opacity="1.0" stroke-width="1.2000000476837158"/>
      <path d=" M 569.167, 502.067 572.351, 500.700 " fill="none" stroke="rgb(0, 0, 0)" stroke-linecap="butt" stroke-linejoin="round" stroke-opacity="1.0" stroke-width="1.2000000476837158"/>
      <path d=" M 509.236, 527.804 512.419, 526.437 " fill="none" stroke="rgb(0, 0, 0)" stroke-linecap="butt" stroke-linejoin="round" stroke-opacity="1.0" stroke-width="1.2000000476837158"/>
      <path d=" M 463.072, 547.628 467.065, 545.913 " fill="none" stroke="rgb(0, 0, 0)" stroke-linecap="butt" stroke-linejoin="round" stroke-opacity="1.0" stroke-width="1.2000000476837158"/>
      <path d=" M 458.260, 501.377 467.335, 505.576 468.141, 505.949 468.141, 505.949 477.216, 510.148 486.292, 514.347 495.367, 518.547 502.538, 521.865 505.743, 523.348 512.420, 526.437 512.421, 526.438 521.496, 530.637 530.572, 534.837 539.647, 539.036 548.723, 543.235 550.021, 543.836 " fill="none" stroke="rgb(0, 0, 0)" stroke-linecap="butt" stroke-linejoin="round" stroke-opacity="1.0" stroke-width="1.2000000476837158"/>
      <path d=" M 408.087, 427.532 399.011, 423.333 398.206, 422.960 389.130, 418.761 380.055, 414.561 370.979, 410.362 363.809, 407.044 354.733, 402.845 353.928, 402.472 " fill="none" stroke="rgb(0, 0, 0)" stroke-linecap="butt" stroke-linejoin="round" stroke-opacity="1.0" stroke-width="1.2000000476837158"/>
      <path d=" M 690.439, 633.767 699.627, 629.821 708.816, 625.875 711.180, 624.860 " fill="none" stroke="rgb(0, 0, 0)" stroke-linecap="butt" stroke-linejoin="round" stroke-opacity="1.0" stroke-width="1.2000000476837158"/>
      <path d=" M 418.511, 429.516 421.786, 431.031 430.861, 435.231 439.937, 439.430 449.012, 443.629 458.088, 447.829 467.163, 452.028 476.239, 456.228 485.314, 460.427 494.390, 464.626 503.465, 468.826 512.541, 473.025 518.192, 475.640 527.267, 479.839 528.073, 480.212 537.148, 484.411 546.224, 488.611 555.299, 492.810 562.470, 496.128 571.545, 500.328 572.351, 500.700 581.426, 504.900 590.502, 509.099 599.577, 513.299 608.653, 517.498 617.728, 521.697 626.804, 525.897 635.879, 530.096 644.955, 534.296 654.030, 538.495 663.106, 542.694 672.181, 546.894 679.272, 550.175 688.348, 554.374 689.153, 554.747 698.229, 558.947 707.304, 563.146 716.380, 567.345 723.550, 570.663 " fill="none" stroke="rgb(0, 0, 0)" stroke-linecap="butt" stroke-linejoin="round" stroke-opacity="1.0" stroke-width="1.2000000476837158"/>
      <path d=" M 495.079, 427.323 486.003, 423.123 476.928, 418.924 467.852, 414.725 462.332, 412.170 453.440, 408.056 444.365, 403.857 443.560, 403.484 434.484, 399.285 425.409, 395.085 418.054, 391.682 409.162, 387.568 400.087, 383.368 399.282, 382.996 " fill="none" stroke="rgb(0, 0, 0)" stroke-linecap="butt" stroke-linejoin="round" stroke-opacity="1.0" stroke-width="1.2000000476837158"/>
      <path d=" M 656.159, 501.858 647.084, 497.659 638.008, 493.459 628.933, 489.260 623.413, 486.705 614.521, 482.591 611.881, 481.370 604.640, 478.019 595.565, 473.820 586.489, 469.620 579.135, 466.217 570.243, 462.103 561.167, 457.903 560.362, 457.531 " fill="none" stroke="rgb(0, 0, 0)" stroke-linecap="butt" stroke-linejoin="round" stroke-opacity="1.0" stroke-width="1.2000000476837158"/>
      <path d=" M 564.355, 455.816 573.431, 460.015 574.236, 460.388 579.091, 462.635 588.167, 466.834 597.242, 471.033 606.318, 475.233 608.633, 476.304 611.838, 477.787 618.514, 480.876 623.369, 483.123 632.445, 487.322 641.520, 491.522 650.596, 495.721 656.116, 498.275 " fill="none" stroke="rgb(0, 0, 0)" stroke-linecap="butt" stroke-linejoin="round" stroke-opacity="1.0" stroke-width="1.2000000476837158"/>
      <path d=" M 573.987, 595.388 569.994, 597.103 " fill="none" stroke="rgb(0, 0, 0)" stroke-linecap="butt" stroke-linejoin="round" stroke-opacity="1.0" stroke-width="1.2000000476837158"/>
      <path d=" M 679.272, 550.175 676.089, 551.542 " fill="none" stroke="rgb(0, 0, 0)" stroke-linecap="butt" stroke-linejoin="round" stroke-opacity="1.0" stroke-width="1.2000000476837158"/>
      <path d=" M 609.518, 628.447 618.707, 624.502 619.293, 624.250 619.921, 623.980 629.110, 620.034 638.298, 616.088 647.487, 612.142 656.492, 608.276 663.724, 605.170 666.267, 604.078 666.895, 603.808 676.083, 599.862 676.645, 599.621 685.833, 595.675 695.022, 591.729 704.211, 587.784 710.698, 584.998 " fill="none" stroke="rgb(0, 0, 0)" stroke-linecap="butt" stroke-linejoin="round" stroke-opacity="1.0" stroke-width="1.2000000476837158"/>
    </g>
  </g>
</svg>
