<?xml version="1.0" encoding="ascii"?>
<svg xmlns="http://www.w3.org/2000/svg" xmlns:inkscape="http://www.inkscape.org/namespaces/inkscape" height="1024" version="1.1" width="1024">
  <g id="RenderLayer_Contour" inkscape:groupmode="lineset" inkscape:label="RenderLayer_Contour">
    <g id="fills" inkscape:groupmode="layer" inkscape:label="fills">
      <path d=" M 201.279, 763.316 554.282, 926.657 568.127, 926.705 593.396, 915.854 593.290, 907.085 226.851, 737.526 201.582, 748.377 201.173, 754.546 201.279, 763.316 z" fill="rgb(226, 226, 226)" fill-opacity="1.0" fill-rule="evenodd" stroke="none"/>
      <path d=" M 104.093, 805.051 457.096, 968.392 470.941, 968.440 510.787, 951.329 510.681, 942.559 144.242, 773.001 104.396, 790.112 103.987, 796.281 104.093, 805.051 z" fill="rgb(226, 226, 226)" fill-opacity="1.0" fill-rule="evenodd" stroke="none"/>
      <path d=" M 621.742, 903.682 654.137, 889.770 654.031, 881.000 287.592, 711.442 255.197, 725.353 255.303, 734.123 621.742, 903.682 z" fill="rgb(226, 226, 226)" fill-opacity="1.0" fill-rule="evenodd" stroke="none"/>
      <path d=" M 655.514, 666.796 655.514, 666.796 z" fill="rgb(226, 226, 226)" fill-opacity="1.0" fill-rule="evenodd" stroke="none"/>
      <path d=" M 656.985, 788.575 655.514, 666.796 687.910, 652.884 687.910, 652.884 695.037, 649.823 694.338, 592.023 327.899, 422.465 320.772, 425.525 320.772, 425.525 288.377, 439.437 288.377, 439.437 281.250, 442.497 281.250, 442.498 274.123, 445.558 274.821, 503.358 282.025, 506.692 283.419, 622.077 290.243, 633.955 327.803, 651.335 334.930, 648.274 333.507, 530.514 443.106, 581.227 444.606, 705.382 488.884, 725.870 496.011, 722.809 494.588, 605.049 604.186, 655.762 605.686, 779.917 643.246, 797.296 650.373, 794.236 656.985, 788.575 z" fill="rgb(226, 226, 226)" fill-opacity="1.0" fill-rule="evenodd" stroke="none"/>
      <path d=" M 800.183, 377.479 832.579, 363.567 832.473, 354.797 466.034, 185.239 433.638, 199.151 433.744, 207.920 800.183, 377.479 z" fill="rgb(226, 226, 226)" fill-opacity="1.0" fill-rule="evenodd" stroke="none"/>
      <path d=" M 874.866, 508.505 874.866, 508.505 874.866, 508.505 874.760, 499.736 874.760, 499.735 874.654, 490.966 521.651, 327.625 507.806, 327.577 467.960, 344.688 468.066, 353.458 408.944, 378.846 409.050, 387.616 453.328, 408.104 483.225, 395.266 483.231, 395.829 483.231, 395.829 483.337, 404.599 579.743, 449.208 570.024, 453.381 570.130, 462.151 614.409, 482.639 633.902, 474.268 740.824, 523.743 731.105, 527.916 731.211, 536.686 775.489, 557.174 794.983, 548.803 849.776, 574.157 875.045, 563.306 875.454, 557.137 875.348, 548.367 875.348, 548.367 874.866, 508.505 z M 720.985, 476.941 720.985, 476.941 720.907, 470.452 790.227, 502.528 782.994, 505.634 720.985, 476.941 z  M 559.905, 402.406 559.905, 402.406 559.826, 395.917 629.146, 427.993 621.914, 431.099 559.905, 402.406 z" fill="rgb(226, 226, 226)" fill-opacity="1.0" fill-rule="evenodd" stroke="none"/>
    </g>
    <g id="strokes" inkscape:groupmode="layer" inkscape:label="strokes">
      <path d=" M 875.348, 548.367 874.866, 508.505 874.866, 508.505 " fill="none" stroke="rgb(0, 0, 0)" stroke-linecap="butt" stroke-linejoin="mitter" stroke-opacity="1.0" stroke-width="3.0"/>
      <path d=" M 483.231, 395.829 483.337, 404.599 574.093, 446.593 579.743, 449.208 " fill="none" stroke="rgb(0, 0, 0)" stroke-linecap="butt" stroke-linejoin="mitter" stroke-opacity="1.0" stroke-width="3.0"/>
      <path d=" M 794.983, 548.803 849.776, 574.157 875.045, 563.306 875.454, 557.137 875.348, 548.367 875.348, 548.367 " fill="none" stroke="rgb(0, 0, 0)" stroke-linecap="butt" stroke-linejoin="mitter" stroke-opacity="1.0" stroke-width="3.0"/>
      <path d=" M 740.824, 523.743 731.105, 527.916 731.211, 536.686 775.489, 557.174 794.983, 548.803 " fill="none" stroke="rgb(0, 0, 0)" stroke-linecap="butt" stroke-linejoin="mitter" stroke-opacity="1.0" stroke-width="3.0"/>
      <path d=" M 874.866, 508.505 874.866, 508.505 874.760, 499.736 874.760, 499.735 " fill="none" stroke="rgb(0, 0, 0)" stroke-linecap="butt" stroke-linejoin="mitter" stroke-opacity="1.0" stroke-width="3.0"/>
      <path d=" M 800.183, 377.479 832.579, 363.567 832.473, 354.797 741.718, 312.803 650.962, 270.809 560.207, 228.815 466.034, 185.239 433.638, 199.151 433.744, 207.920 524.499, 249.914 615.254, 291.909 706.009, 333.903 800.183, 377.479 " fill="none" stroke="rgb(0, 0, 0)" stroke-linecap="butt" stroke-linejoin="mitter" stroke-opacity="1.0" stroke-width="3.0"/>
      <path d=" M 874.760, 499.735 874.654, 490.966 783.899, 448.972 693.144, 406.978 602.389, 364.983 521.651, 327.625 507.806, 327.577 467.960, 344.688 468.066, 353.458 " fill="none" stroke="rgb(0, 0, 0)" stroke-linecap="butt" stroke-linejoin="mitter" stroke-opacity="1.0" stroke-width="3.0"/>
      <path d=" M 579.743, 449.208 570.024, 453.381 570.130, 462.151 614.409, 482.639 633.902, 474.268 " fill="none" stroke="rgb(0, 0, 0)" stroke-linecap="butt" stroke-linejoin="mitter" stroke-opacity="1.0" stroke-width="3.0"/>
      <path d=" M 468.066, 353.458 408.944, 378.846 409.050, 387.616 453.328, 408.104 483.225, 395.266 " fill="none" stroke="rgb(0, 0, 0)" stroke-linecap="butt" stroke-linejoin="mitter" stroke-opacity="1.0" stroke-width="3.0"/>
      <path d=" M 720.985, 476.941 720.985, 476.941 720.907, 470.452 " fill="none" stroke="rgb(0, 0, 0)" stroke-linecap="butt" stroke-linejoin="mitter" stroke-opacity="1.0" stroke-width="3.0"/>
      <path d=" M 483.225, 395.266 483.231, 395.829 483.231, 395.829 " fill="none" stroke="rgb(0, 0, 0)" stroke-linecap="butt" stroke-linejoin="mitter" stroke-opacity="1.0" stroke-width="3.0"/>
      <path d=" M 559.905, 402.406 559.905, 402.406 559.826, 395.917 " fill="none" stroke="rgb(0, 0, 0)" stroke-linecap="butt" stroke-linejoin="mitter" stroke-opacity="1.0" stroke-width="3.0"/>
      <path d=" M 604.186, 655.762 605.394, 755.755 605.686, 779.917 643.246, 797.296 650.373, 794.236 656.985, 788.575 655.777, 688.582 655.514, 666.796 " fill="none" stroke="rgb(0, 0, 0)" stroke-linecap="butt" stroke-linejoin="mitter" stroke-opacity="1.0" stroke-width="3.0"/>
      <path d=" M 281.250, 442.498 274.123, 445.558 274.821, 503.358 282.025, 506.692 " fill="none" stroke="rgb(0, 0, 0)" stroke-linecap="butt" stroke-linejoin="mitter" stroke-opacity="1.0" stroke-width="3.0"/>
      <path d=" M 655.514, 666.796 655.514, 666.796 687.910, 652.884 687.910, 652.884 " fill="none" stroke="rgb(0, 0, 0)" stroke-linecap="butt" stroke-linejoin="mitter" stroke-opacity="1.0" stroke-width="3.0"/>
      <path d=" M 687.910, 652.884 695.037, 649.823 694.338, 592.023 603.583, 550.029 512.828, 508.035 422.073, 466.041 327.899, 422.465 320.774, 425.525 320.773, 425.525 " fill="none" stroke="rgb(0, 0, 0)" stroke-linecap="butt" stroke-linejoin="mitter" stroke-opacity="1.0" stroke-width="3.0"/>
      <path d=" M 443.106, 581.227 444.314, 681.220 444.606, 705.382 488.884, 725.870 496.011, 722.809 494.803, 622.817 494.588, 605.049 " fill="none" stroke="rgb(0, 0, 0)" stroke-linecap="butt" stroke-linejoin="mitter" stroke-opacity="1.0" stroke-width="3.0"/>
      <path d=" M 288.377, 439.437 288.377, 439.437 281.250, 442.497 281.250, 442.498 " fill="none" stroke="rgb(0, 0, 0)" stroke-linecap="butt" stroke-linejoin="mitter" stroke-opacity="1.0" stroke-width="3.0"/>
      <path d=" M 282.025, 506.692 283.233, 606.684 283.419, 622.077 290.243, 633.955 327.803, 651.335 334.930, 648.274 333.722, 548.282 333.507, 530.514 " fill="none" stroke="rgb(0, 0, 0)" stroke-linecap="butt" stroke-linejoin="mitter" stroke-opacity="1.0" stroke-width="3.0"/>
      <path d=" M 320.772, 425.525 320.772, 425.525 288.377, 439.437 " fill="none" stroke="rgb(0, 0, 0)" stroke-linecap="butt" stroke-linejoin="mitter" stroke-opacity="1.0" stroke-width="3.0"/>
      <path d=" M 621.742, 903.682 654.137, 889.770 654.031, 881.000 563.276, 839.006 472.521, 797.012 381.766, 755.018 287.592, 711.442 255.197, 725.353 255.303, 734.123 346.058, 776.117 436.813, 818.111 527.568, 860.106 621.742, 903.682 " fill="none" stroke="rgb(0, 0, 0)" stroke-linecap="butt" stroke-linejoin="mitter" stroke-opacity="1.0" stroke-width="3.0"/>
      <path d=" M 104.093, 805.051 194.848, 847.045 285.603, 889.039 376.358, 931.033 457.096, 968.392 470.941, 968.440 510.787, 951.329 510.681, 942.559 419.926, 900.565 329.171, 858.571 238.416, 816.577 144.242, 773.001 104.396, 790.112 103.987, 796.281 104.093, 805.051 " fill="none" stroke="rgb(0, 0, 0)" stroke-linecap="butt" stroke-linejoin="mitter" stroke-opacity="1.0" stroke-width="3.0"/>
      <path d=" M 201.279, 763.316 292.034, 805.310 382.789, 847.304 473.545, 889.298 554.282, 926.657 568.127, 926.705 593.396, 915.854 593.290, 907.085 502.535, 865.090 411.780, 823.096 321.025, 781.102 226.851, 737.526 201.582, 748.377 201.173, 754.546 201.279, 763.316 " fill="none" stroke="rgb(0, 0, 0)" stroke-linecap="butt" stroke-linejoin="mitter" stroke-opacity="1.0" stroke-width="3.0"/>
      <path d=" M 494.588, 605.049 585.343, 647.043 604.186, 655.762 " fill="none" stroke="rgb(0, 0, 0)" stroke-linecap="butt" stroke-linejoin="mitter" stroke-opacity="1.0" stroke-width="3.0"/>
      <path d=" M 333.507, 530.514 424.263, 572.508 443.106, 581.227 " fill="none" stroke="rgb(0, 0, 0)" stroke-linecap="butt" stroke-linejoin="mitter" stroke-opacity="1.0" stroke-width="3.0"/>
      <path d=" M 629.146, 427.993 621.914, 431.099 " fill="none" stroke="rgb(0, 0, 0)" stroke-linecap="butt" stroke-linejoin="mitter" stroke-opacity="1.0" stroke-width="3.0"/>
      <path d=" M 720.907, 470.452 790.227, 502.528 " fill="none" stroke="rgb(0, 0, 0)" stroke-linecap="butt" stroke-linejoin="mitter" stroke-opacity="1.0" stroke-width="3.0"/>
      <path d=" M 559.826, 395.917 629.146, 427.993 " fill="none" stroke="rgb(0, 0, 0)" stroke-linecap="butt" stroke-linejoin="mitter" stroke-opacity="1.0" stroke-width="3.0"/>
      <path d=" M 790.227, 502.528 782.994, 505.634 " fill="none" stroke="rgb(0, 0, 0)" stroke-linecap="butt" stroke-linejoin="mitter" stroke-opacity="1.0" stroke-width="3.0"/>
      <path d=" M 633.902, 474.268 724.657, 516.262 740.824, 523.743 " fill="none" stroke="rgb(0, 0, 0)" stroke-linecap="butt" stroke-linejoin="mitter" stroke-opacity="1.0" stroke-width="3.0"/>
      <path d=" M 621.914, 431.099 559.905, 402.406 " fill="none" stroke="rgb(0, 0, 0)" stroke-linecap="butt" stroke-linejoin="mitter" stroke-opacity="1.0" stroke-width="3.0"/>
      <path d=" M 782.994, 505.634 720.985, 476.941 " fill="none" stroke="rgb(0, 0, 0)" stroke-linecap="butt" stroke-linejoin="mitter" stroke-opacity="1.0" stroke-width="3.0"/>
    </g>
  </g>
  <g id="RenderLayer_InLine" inkscape:groupmode="lineset" inkscape:label="RenderLayer_InLine">
    <g id="strokes" inkscape:groupmode="layer" inkscape:label="strokes">
      <path d=" M 805.386, 544.336 805.392, 544.899 805.392, 544.899 814.468, 549.099 823.543, 553.298 832.619, 557.498 841.694, 561.697 849.670, 565.388 849.670, 565.388 858.859, 561.442 868.048, 557.496 869.854, 556.720 872.291, 555.674 874.939, 554.537 875.348, 548.367 875.348, 548.367 " fill="none" stroke="rgb(0, 0, 0)" stroke-linecap="butt" stroke-linejoin="mitter" stroke-opacity="1.0" stroke-width="1.2000000476837158"/>
      <path d=" M 849.670, 565.388 849.550, 555.388 849.429, 545.389 849.319, 536.324 849.198, 526.324 849.189, 525.525 849.189, 525.525 853.147, 523.826 862.336, 519.880 871.524, 515.934 874.457, 514.674 874.866, 508.505 " fill="none" stroke="rgb(0, 0, 0)" stroke-linecap="butt" stroke-linejoin="mitter" stroke-opacity="1.0" stroke-width="1.2000000476837158"/>
      <path d=" M 869.854, 556.720 874.939, 554.537 875.348, 548.367 " fill="none" stroke="rgb(0, 0, 0)" stroke-linecap="butt" stroke-linejoin="mitter" stroke-opacity="1.0" stroke-width="1.2000000476837158"/>
      <path d=" M 849.776, 574.157 849.670, 565.388 849.670, 565.388 840.595, 561.188 831.519, 556.989 822.444, 552.789 813.368, 548.590 805.392, 544.899 804.758, 544.606 " fill="none" stroke="rgb(0, 0, 0)" stroke-linecap="butt" stroke-linejoin="mitter" stroke-opacity="1.0" stroke-width="1.2000000476837158"/>
      <path d=" M 874.760, 499.736 874.351, 505.905 871.704, 507.042 862.515, 510.988 853.326, 514.933 844.138, 518.879 834.949, 522.825 827.272, 526.122 818.084, 530.068 808.895, 534.014 805.280, 535.566 796.091, 539.512 786.903, 543.458 785.102, 544.231 775.913, 548.177 775.383, 548.405 " fill="none" stroke="rgb(0, 0, 0)" stroke-linecap="butt" stroke-linejoin="mitter" stroke-opacity="1.0" stroke-width="1.2000000476837158"/>
      <path d=" M 731.105, 527.916 740.181, 532.116 749.256, 536.315 758.332, 540.515 767.407, 544.714 775.383, 548.405 775.489, 557.174 " fill="none" stroke="rgb(0, 0, 0)" stroke-linecap="butt" stroke-linejoin="mitter" stroke-opacity="1.0" stroke-width="1.2000000476837158"/>
      <path d=" M 794.983, 548.803 804.171, 544.857 804.758, 544.606 805.386, 544.336 814.574, 540.390 823.763, 536.444 827.378, 534.892 836.567, 530.946 837.153, 530.694 837.781, 530.424 846.970, 526.478 849.189, 525.525 853.147, 523.826 862.336, 519.880 871.524, 515.934 874.457, 514.674 874.866, 508.505 " fill="none" stroke="rgb(0, 0, 0)" stroke-linecap="butt" stroke-linejoin="mitter" stroke-opacity="1.0" stroke-width="1.2000000476837158"/>
      <path d=" M 433.638, 199.151 442.714, 203.350 451.789, 207.549 460.865, 211.749 469.940, 215.948 479.016, 220.148 488.091, 224.347 497.167, 228.546 506.242, 232.746 515.318, 236.945 524.393, 241.145 533.469, 245.344 542.544, 249.544 551.620, 253.743 560.695, 257.942 569.771, 262.142 578.846, 266.341 587.922, 270.541 596.997, 274.740 606.073, 278.939 615.148, 283.139 624.224, 287.338 633.299, 291.538 642.375, 295.737 651.450, 299.936 660.526, 304.136 669.601, 308.335 678.677, 312.535 687.752, 316.734 696.828, 320.934 705.903, 325.133 714.979, 329.332 724.054, 333.532 733.130, 337.731 742.205, 341.931 751.281, 346.130 760.356, 350.329 769.432, 354.529 778.508, 358.728 787.583, 362.928 800.077, 368.709 " fill="none" stroke="rgb(0, 0, 0)" stroke-linecap="butt" stroke-linejoin="mitter" stroke-opacity="1.0" stroke-width="1.2000000476837158"/>
      <path d=" M 800.183, 377.479 800.077, 368.709 809.266, 364.763 818.454, 360.817 827.643, 356.871 832.473, 354.797 " fill="none" stroke="rgb(0, 0, 0)" stroke-linecap="butt" stroke-linejoin="mitter" stroke-opacity="1.0" stroke-width="1.2000000476837158"/>
      <path d=" M 468.066, 353.458 468.066, 353.458 477.141, 357.657 477.947, 358.030 482.802, 360.276 491.877, 364.476 500.953, 368.675 510.028, 372.874 512.344, 373.946 521.419, 378.145 522.225, 378.518 527.080, 380.765 536.155, 384.964 545.231, 389.163 554.306, 393.363 559.826, 395.917 " fill="none" stroke="rgb(0, 0, 0)" stroke-linecap="butt" stroke-linejoin="mitter" stroke-opacity="1.0" stroke-width="1.2000000476837158"/>
      <path d=" M 790.227, 502.528 799.302, 506.727 800.108, 507.100 804.963, 509.346 814.038, 513.546 823.114, 517.745 832.189, 521.945 834.505, 523.016 837.675, 521.655 839.308, 520.953 848.497, 517.008 857.685, 513.062 866.874, 509.116 871.703, 507.042 871.704, 507.042 874.351, 505.905 874.760, 499.736 874.760, 499.735 " fill="none" stroke="rgb(0, 0, 0)" stroke-linecap="butt" stroke-linejoin="mitter" stroke-opacity="1.0" stroke-width="1.2000000476837158"/>
      <path d=" M 834.399, 514.246 843.587, 510.300 852.776, 506.355 861.823, 502.470 871.011, 498.524 871.598, 498.272 874.245, 497.135 874.654, 490.966 " fill="none" stroke="rgb(0, 0, 0)" stroke-linecap="butt" stroke-linejoin="mitter" stroke-opacity="1.0" stroke-width="1.2000000476837158"/>
      <path d=" M 467.960, 344.688 477.035, 348.887 477.841, 349.260 486.916, 353.459 487.721, 353.832 496.797, 358.031 505.873, 362.231 514.948, 366.430 524.024, 370.630 532.000, 374.320 541.075, 378.520 550.151, 382.719 559.226, 386.919 559.721, 387.147 568.796, 391.347 577.872, 395.546 586.947, 399.746 596.023, 403.945 605.098, 408.144 614.174, 412.344 623.249, 416.543 632.325, 420.743 638.921, 423.795 647.997, 427.994 648.802, 428.367 657.878, 432.566 666.953, 436.766 676.029, 440.965 685.104, 445.165 693.080, 448.855 702.156, 453.055 711.231, 457.254 720.307, 461.454 720.801, 461.682 729.877, 465.882 738.952, 470.081 748.028, 474.281 757.103, 478.480 766.179, 482.679 775.254, 486.879 784.330, 491.078 793.405, 495.278 800.002, 498.330 809.077, 502.529 809.883, 502.902 818.958, 507.102 828.034, 511.301 834.399, 514.246 834.505, 523.016 " fill="none" stroke="rgb(0, 0, 0)" stroke-linecap="butt" stroke-linejoin="mitter" stroke-opacity="1.0" stroke-width="1.2000000476837158"/>
      <path d=" M 614.303, 473.870 614.409, 482.639 " fill="none" stroke="rgb(0, 0, 0)" stroke-linecap="butt" stroke-linejoin="mitter" stroke-opacity="1.0" stroke-width="1.2000000476837158"/>
      <path d=" M 673.424, 448.481 666.192, 451.587 657.003, 455.533 647.815, 459.479 644.199, 461.031 635.011, 464.977 625.822, 468.923 624.021, 469.696 614.833, 473.642 614.303, 473.870 605.227, 469.670 596.152, 465.471 587.076, 461.271 578.000, 457.072 570.024, 453.381 " fill="none" stroke="rgb(0, 0, 0)" stroke-linecap="butt" stroke-linejoin="mitter" stroke-opacity="1.0" stroke-width="1.2000000476837158"/>
      <path d=" M 453.222, 399.335 453.328, 408.104 " fill="none" stroke="rgb(0, 0, 0)" stroke-linecap="butt" stroke-linejoin="mitter" stroke-opacity="1.0" stroke-width="1.2000000476837158"/>
      <path d=" M 512.344, 373.946 503.155, 377.892 493.967, 381.838 484.778, 385.783 483.119, 386.496 473.930, 390.442 464.741, 394.388 455.553, 398.334 453.222, 399.335 444.146, 395.135 435.071, 390.936 425.995, 386.736 416.920, 382.537 408.944, 378.846 " fill="none" stroke="rgb(0, 0, 0)" stroke-linecap="butt" stroke-linejoin="mitter" stroke-opacity="1.0" stroke-width="1.2000000476837158"/>
      <path d=" M 644.305, 469.801 644.312, 470.364 644.312, 470.364 653.387, 474.564 662.463, 478.763 671.538, 482.963 680.614, 487.162 688.590, 490.853 688.590, 490.853 697.779, 486.907 706.967, 482.961 711.211, 481.139 720.399, 477.193 720.985, 476.941 " fill="none" stroke="rgb(0, 0, 0)" stroke-linecap="butt" stroke-linejoin="mitter" stroke-opacity="1.0" stroke-width="1.2000000476837158"/>
      <path d=" M 655.514, 666.796 655.393, 656.796 655.351, 653.260 655.230, 643.261 655.163, 637.731 655.163, 637.731 655.086, 631.337 654.965, 621.338 654.844, 611.339 654.816, 608.995 654.816, 608.995 645.740, 604.796 643.284, 603.660 634.209, 599.460 625.133, 595.261 616.058, 591.061 610.538, 588.507 610.538, 588.507 603.411, 591.568 603.411, 591.568 " fill="none" stroke="rgb(0, 0, 0)" stroke-linecap="butt" stroke-linejoin="mitter" stroke-opacity="1.0" stroke-width="1.2000000476837158"/>
      <path d=" M 603.411, 591.568 610.615, 594.901 619.690, 599.101 628.766, 603.300 637.841, 607.499 646.917, 611.699 647.689, 612.056 " fill="none" stroke="rgb(0, 0, 0)" stroke-linecap="butt" stroke-linejoin="mitter" stroke-opacity="1.0" stroke-width="1.2000000476837158"/>
      <path d=" M 643.246, 797.296 649.858, 791.635 649.737, 781.636 649.617, 771.637 649.496, 761.637 649.375, 751.638 649.254, 741.639 649.133, 731.640 649.013, 721.640 648.892, 711.641 648.771, 701.642 648.650, 691.643 648.529, 681.643 648.409, 671.644 648.387, 669.856 648.310, 663.462 648.189, 653.463 648.068, 643.463 647.959, 634.398 647.838, 624.399 647.717, 614.399 647.689, 612.056 647.689, 612.056 654.816, 608.995 " fill="none" stroke="rgb(0, 0, 0)" stroke-linecap="butt" stroke-linejoin="mitter" stroke-opacity="1.0" stroke-width="1.2000000476837158"/>
      <path d=" M 604.186, 655.762 611.391, 659.095 620.466, 663.295 629.542, 667.494 638.617, 671.694 641.260, 672.917 648.387, 669.856 648.387, 669.856 648.310, 663.462 648.189, 653.463 648.068, 643.463 647.959, 634.398 647.959, 634.398 647.881, 628.004 647.761, 618.004 647.689, 612.056 647.689, 612.056 643.362, 610.054 634.286, 605.854 625.211, 601.655 616.135, 597.455 610.615, 594.901 610.615, 594.901 603.411, 591.568 594.335, 587.368 585.260, 583.169 576.184, 578.969 567.109, 574.770 558.033, 570.571 548.958, 566.371 539.882, 562.172 530.807, 557.972 526.559, 556.007 517.484, 551.807 508.408, 547.608 499.333, 543.409 493.812, 540.854 493.812, 540.854 486.608, 537.521 " fill="none" stroke="rgb(0, 0, 0)" stroke-linecap="butt" stroke-linejoin="mitter" stroke-opacity="1.0" stroke-width="1.2000000476837158"/>
      <path d=" M 640.562, 615.117 631.486, 610.917 622.411, 606.718 613.335, 602.518 610.692, 601.295 603.488, 597.962 594.412, 593.762 585.337, 589.563 576.261, 585.363 567.186, 581.164 558.110, 576.965 549.035, 572.765 539.959, 568.566 530.884, 564.366 526.636, 562.401 517.561, 558.202 508.485, 554.002 499.410, 549.803 493.890, 547.249 484.814, 543.049 475.739, 538.850 466.663, 534.650 457.588, 530.451 449.612, 526.760 442.407, 523.427 433.332, 519.227 424.256, 515.028 415.181, 510.828 406.105, 506.629 397.030, 502.430 387.954, 498.230 378.879, 494.031 369.803, 489.831 365.556, 487.866 356.480, 483.667 347.405, 479.467 338.329, 475.268 332.809, 472.713 323.734, 468.514 321.278, 467.378 312.202, 463.178 303.127, 458.979 294.051, 454.779 288.531, 452.225 281.327, 448.892 274.123, 445.558 " fill="none" stroke="rgb(0, 0, 0)" stroke-linecap="butt" stroke-linejoin="mitter" stroke-opacity="1.0" stroke-width="1.2000000476837158"/>
      <path d=" M 641.260, 672.917 641.139, 662.917 641.105, 660.128 640.985, 650.129 640.864, 640.130 640.754, 631.064 640.634, 621.065 640.562, 615.117 647.689, 612.056 " fill="none" stroke="rgb(0, 0, 0)" stroke-linecap="butt" stroke-linejoin="mitter" stroke-opacity="1.0" stroke-width="1.2000000476837158"/>
      <path d=" M 282.101, 442.891 281.250, 442.498 281.250, 442.498 281.250, 442.498 " fill="none" stroke="rgb(0, 0, 0)" stroke-linecap="butt" stroke-linejoin="mitter" stroke-opacity="1.0" stroke-width="1.2000000476837158"/>
      <path d=" M 687.910, 652.884 687.832, 646.490 687.712, 636.491 687.591, 626.491 687.504, 619.328 687.383, 609.329 687.263, 599.330 687.211, 595.084 687.211, 595.084 678.136, 590.884 669.060, 586.685 659.985, 582.485 650.909, 578.286 642.933, 574.595 642.933, 574.595 633.745, 578.541 624.556, 582.487 615.367, 586.433 610.538, 588.507 610.538, 588.507 " fill="none" stroke="rgb(0, 0, 0)" stroke-linecap="butt" stroke-linejoin="mitter" stroke-opacity="1.0" stroke-width="1.2000000476837158"/>
      <path d=" M 654.816, 608.995 654.816, 608.995 645.740, 604.796 636.665, 600.597 627.589, 596.397 618.514, 592.198 610.538, 588.507 " fill="none" stroke="rgb(0, 0, 0)" stroke-linecap="butt" stroke-linejoin="mitter" stroke-opacity="1.0" stroke-width="1.2000000476837158"/>
      <path d=" M 655.514, 666.796 655.393, 656.796 655.351, 653.260 655.230, 643.261 655.163, 637.731 655.042, 627.732 654.921, 617.733 654.816, 608.995 664.004, 605.049 673.193, 601.104 682.382, 597.158 687.211, 595.084 " fill="none" stroke="rgb(0, 0, 0)" stroke-linecap="butt" stroke-linejoin="mitter" stroke-opacity="1.0" stroke-width="1.2000000476837158"/>
      <path d=" M 687.211, 595.084 687.211, 595.084 678.136, 590.884 669.060, 586.685 659.985, 582.485 650.909, 578.286 642.933, 574.595 633.858, 570.396 624.782, 566.197 615.707, 561.997 606.631, 557.798 597.556, 553.598 588.480, 549.399 579.405, 545.199 570.329, 541.000 561.254, 536.801 552.178, 532.601 543.103, 528.402 534.027, 524.202 526.131, 520.549 517.055, 516.349 507.980, 512.150 498.904, 507.950 489.829, 503.751 481.853, 500.060 472.777, 495.861 463.702, 491.661 454.626, 487.462 445.551, 483.263 436.475, 479.063 427.400, 474.864 418.324, 470.664 409.249, 466.465 400.173, 462.266 391.098, 458.066 382.022, 453.867 372.947, 449.667 363.871, 445.468 354.796, 441.269 345.720, 437.069 336.644, 432.870 327.569, 428.670 321.738, 425.972 320.772, 425.525 " fill="none" stroke="rgb(0, 0, 0)" stroke-linecap="butt" stroke-linejoin="mitter" stroke-opacity="1.0" stroke-width="1.2000000476837158"/>
      <path d=" M 694.338, 592.023 687.211, 595.084 687.332, 605.083 687.453, 615.082 687.504, 619.328 " fill="none" stroke="rgb(0, 0, 0)" stroke-linecap="butt" stroke-linejoin="mitter" stroke-opacity="1.0" stroke-width="1.2000000476837158"/>
      <path d=" M 526.559, 556.007 526.438, 546.008 526.318, 536.008 526.197, 526.009 526.131, 520.549 526.131, 520.549 517.055, 516.349 507.980, 512.150 498.904, 507.950 489.829, 503.751 481.853, 500.060 481.853, 500.060 472.664, 504.006 463.475, 507.952 454.287, 511.898 449.457, 513.972 " fill="none" stroke="rgb(0, 0, 0)" stroke-linecap="butt" stroke-linejoin="mitter" stroke-opacity="1.0" stroke-width="1.2000000476837158"/>
      <path d=" M 493.735, 534.460 493.735, 534.460 " fill="none" stroke="rgb(0, 0, 0)" stroke-linecap="butt" stroke-linejoin="mitter" stroke-opacity="1.0" stroke-width="1.2000000476837158"/>
      <path d=" M 526.131, 520.549 516.942, 524.495 507.754, 528.440 498.565, 532.386 493.735, 534.460 493.812, 540.854 " fill="none" stroke="rgb(0, 0, 0)" stroke-linecap="butt" stroke-linejoin="mitter" stroke-opacity="1.0" stroke-width="1.2000000476837158"/>
      <path d=" M 493.812, 540.854 493.735, 534.460 493.735, 534.460 484.660, 530.261 482.204, 529.124 473.128, 524.925 464.053, 520.726 454.977, 516.526 449.457, 513.972 449.457, 513.972 442.330, 517.033 442.330, 517.033 " fill="none" stroke="rgb(0, 0, 0)" stroke-linecap="butt" stroke-linejoin="mitter" stroke-opacity="1.0" stroke-width="1.2000000476837158"/>
      <path d=" M 442.330, 517.033 449.534, 520.366 458.610, 524.565 467.685, 528.765 476.761, 532.964 485.836, 537.164 486.608, 537.521 " fill="none" stroke="rgb(0, 0, 0)" stroke-linecap="butt" stroke-linejoin="mitter" stroke-opacity="1.0" stroke-width="1.2000000476837158"/>
      <path d=" M 486.608, 537.521 486.608, 537.521 493.735, 534.460 " fill="none" stroke="rgb(0, 0, 0)" stroke-linecap="butt" stroke-linejoin="mitter" stroke-opacity="1.0" stroke-width="1.2000000476837158"/>
      <path d=" M 281.250, 442.497 281.250, 442.498 282.101, 442.891 288.454, 445.831 297.529, 450.030 306.605, 454.230 315.680, 458.429 321.201, 460.984 325.528, 462.986 " fill="none" stroke="rgb(0, 0, 0)" stroke-linecap="butt" stroke-linejoin="mitter" stroke-opacity="1.0" stroke-width="1.2000000476837158"/>
      <path d=" M 325.528, 462.986 325.528, 462.986 332.655, 459.925 " fill="none" stroke="rgb(0, 0, 0)" stroke-linecap="butt" stroke-linejoin="mitter" stroke-opacity="1.0" stroke-width="1.2000000476837158"/>
      <path d=" M 332.732, 466.319 332.655, 459.925 332.655, 459.925 328.328, 457.923 321.123, 454.589 321.123, 454.589 312.048, 450.390 302.972, 446.191 293.897, 441.991 288.377, 439.437 " fill="none" stroke="rgb(0, 0, 0)" stroke-linecap="butt" stroke-linejoin="mitter" stroke-opacity="1.0" stroke-width="1.2000000476837158"/>
      <path d=" M 365.479, 481.472 365.358, 471.473 365.237, 461.473 365.116, 451.474 365.050, 446.014 355.975, 441.814 346.899, 437.615 337.824, 433.415 328.748, 429.216 327.977, 428.859 321.738, 425.972 320.772, 425.525 " fill="none" stroke="rgb(0, 0, 0)" stroke-linecap="butt" stroke-linejoin="mitter" stroke-opacity="1.0" stroke-width="1.2000000476837158"/>
      <path d=" M 332.655, 459.925 332.655, 459.925 " fill="none" stroke="rgb(0, 0, 0)" stroke-linecap="butt" stroke-linejoin="mitter" stroke-opacity="1.0" stroke-width="1.2000000476837158"/>
      <path d=" M 365.050, 446.014 355.862, 449.959 346.673, 453.905 337.484, 457.851 332.655, 459.925 332.732, 466.319 " fill="none" stroke="rgb(0, 0, 0)" stroke-linecap="butt" stroke-linejoin="mitter" stroke-opacity="1.0" stroke-width="1.2000000476837158"/>
      <path d=" M 255.197, 725.353 264.272, 729.553 273.348, 733.752 282.423, 737.952 291.499, 742.151 300.574, 746.351 309.650, 750.550 318.725, 754.749 327.801, 758.949 336.876, 763.148 345.952, 767.348 355.027, 771.547 364.103, 775.746 373.178, 779.946 382.254, 784.145 391.329, 788.345 400.405, 792.544 409.481, 796.743 418.556, 800.943 427.632, 805.142 436.707, 809.342 445.783, 813.541 454.858, 817.741 463.934, 821.940 473.009, 826.139 482.085, 830.339 491.160, 834.538 500.236, 838.738 509.311, 842.937 518.387, 847.136 527.462, 851.336 536.538, 855.535 545.613, 859.735 554.689, 863.934 563.764, 868.134 572.840, 872.333 581.915, 876.532 590.991, 880.732 600.066, 884.931 609.142, 889.131 621.636, 894.912 " fill="none" stroke="rgb(0, 0, 0)" stroke-linecap="butt" stroke-linejoin="mitter" stroke-opacity="1.0" stroke-width="1.2000000476837158"/>
      <path d=" M 621.742, 903.682 621.636, 894.912 630.824, 890.966 640.013, 887.020 649.202, 883.074 654.031, 881.000 " fill="none" stroke="rgb(0, 0, 0)" stroke-linecap="butt" stroke-linejoin="mitter" stroke-opacity="1.0" stroke-width="1.2000000476837158"/>
      <path d=" M 103.987, 796.281 113.062, 800.481 122.138, 804.680 131.213, 808.880 140.289, 813.079 149.364, 817.278 158.440, 821.478 167.515, 825.677 176.591, 829.877 185.666, 834.076 194.742, 838.275 203.817, 842.475 212.893, 846.674 221.968, 850.874 231.044, 855.073 240.119, 859.273 249.195, 863.472 258.270, 867.671 267.346, 871.871 276.421, 876.070 285.497, 880.270 294.572, 884.469 303.648, 888.668 312.723, 892.868 321.799, 897.067 330.874, 901.267 339.950, 905.466 349.025, 909.665 358.101, 913.865 367.176, 918.064 376.252, 922.264 385.327, 926.463 394.403, 930.663 403.478, 934.862 412.554, 939.061 421.630, 943.261 430.705, 947.460 439.781, 951.660 448.856, 955.859 456.990, 959.623 466.990, 959.657 470.835, 959.671 480.023, 955.725 489.212, 951.779 498.401, 947.833 507.589, 943.887 510.681, 942.559 " fill="none" stroke="rgb(0, 0, 0)" stroke-linecap="butt" stroke-linejoin="mitter" stroke-opacity="1.0" stroke-width="1.2000000476837158"/>
      <path d=" M 201.173, 754.546 210.249, 758.746 219.324, 762.945 228.400, 767.145 237.475, 771.344 246.551, 775.543 255.626, 779.743 264.702, 783.942 273.777, 788.142 282.853, 792.341 291.928, 796.540 301.004, 800.740 310.079, 804.939 319.155, 809.139 328.230, 813.338 337.306, 817.538 346.381, 821.737 355.457, 825.936 364.532, 830.136 373.608, 834.335 382.683, 838.535 391.759, 842.734 400.834, 846.933 409.910, 851.133 418.985, 855.332 428.061, 859.532 437.136, 863.731 446.212, 867.930 455.287, 872.130 464.363, 876.329 473.439, 880.529 482.514, 884.728 491.590, 888.928 500.665, 893.127 509.741, 897.326 518.816, 901.526 527.892, 905.725 536.967, 909.925 546.043, 914.124 554.176, 917.888 564.176, 917.922 568.021, 917.936 577.210, 913.990 586.398, 910.044 593.290, 907.085 " fill="none" stroke="rgb(0, 0, 0)" stroke-linecap="butt" stroke-linejoin="mitter" stroke-opacity="1.0" stroke-width="1.2000000476837158"/>
      <path d=" M 326.303, 527.180 326.424, 537.179 326.545, 547.179 326.666, 557.178 326.786, 567.177 326.907, 577.176 327.028, 587.176 327.149, 597.175 327.270, 607.174 327.390, 617.174 327.511, 627.173 327.632, 637.172 327.753, 647.171 327.803, 651.335 " fill="none" stroke="rgb(0, 0, 0)" stroke-linecap="butt" stroke-linejoin="mitter" stroke-opacity="1.0" stroke-width="1.2000000476837158"/>
      <path d=" M 487.384, 601.715 487.505, 611.714 487.625, 621.714 487.746, 631.713 487.867, 641.712 487.988, 651.712 488.109, 661.711 488.229, 671.710 488.350, 681.709 488.471, 691.709 488.592, 701.708 488.713, 711.707 488.833, 721.706 488.884, 725.870 " fill="none" stroke="rgb(0, 0, 0)" stroke-linecap="butt" stroke-linejoin="mitter" stroke-opacity="1.0" stroke-width="1.2000000476837158"/>
      <path d=" M 483.231, 395.829 492.307, 400.029 493.112, 400.401 502.188, 404.601 511.263, 408.800 520.339, 413.000 527.509, 416.318 " fill="none" stroke="rgb(0, 0, 0)" stroke-linecap="butt" stroke-linejoin="mitter" stroke-opacity="1.0" stroke-width="1.2000000476837158"/>
      <path d=" M 527.080, 380.765 527.158, 387.253 527.279, 397.253 527.400, 407.252 527.509, 416.318 " fill="none" stroke="rgb(0, 0, 0)" stroke-linecap="butt" stroke-linejoin="mitter" stroke-opacity="1.0" stroke-width="1.2000000476837158"/>
      <path d=" M 483.225, 395.266 492.413, 391.320 501.602, 387.374 510.790, 383.428 519.979, 379.482 522.225, 378.518 " fill="none" stroke="rgb(0, 0, 0)" stroke-linecap="butt" stroke-linejoin="mitter" stroke-opacity="1.0" stroke-width="1.2000000476837158"/>
      <path d=" M 527.509, 416.318 536.698, 412.372 545.887, 408.426 550.130, 406.604 559.319, 402.658 559.905, 402.406 " fill="none" stroke="rgb(0, 0, 0)" stroke-linecap="butt" stroke-linejoin="mitter" stroke-opacity="1.0" stroke-width="1.2000000476837158"/>
      <path d=" M 443.106, 581.227 450.310, 584.560 459.385, 588.760 468.461, 592.959 477.536, 597.159 486.612, 601.358 487.384, 601.715 494.588, 605.049 " fill="none" stroke="rgb(0, 0, 0)" stroke-linecap="butt" stroke-linejoin="mitter" stroke-opacity="1.0" stroke-width="1.2000000476837158"/>
      <path d=" M 282.025, 506.692 289.229, 510.025 298.305, 514.225 307.380, 518.424 316.456, 522.624 325.531, 526.823 326.303, 527.180 333.507, 530.514 " fill="none" stroke="rgb(0, 0, 0)" stroke-linecap="butt" stroke-linejoin="mitter" stroke-opacity="1.0" stroke-width="1.2000000476837158"/>
      <path d=" M 449.534, 520.366 449.534, 520.366 442.330, 517.033 433.255, 512.833 424.179, 508.634 415.104, 504.434 406.028, 500.235 396.953, 496.035 387.877, 491.836 378.802, 487.637 369.726, 483.437 365.479, 481.472 356.403, 477.272 347.328, 473.073 338.252, 468.874 332.732, 466.319 332.732, 466.319 328.405, 464.317 325.528, 462.986 " fill="none" stroke="rgb(0, 0, 0)" stroke-linecap="butt" stroke-linejoin="mitter" stroke-opacity="1.0" stroke-width="1.2000000476837158"/>
      <path d=" M 621.914, 431.099 612.725, 435.044 612.139, 435.296 602.950, 439.242 593.762, 443.188 589.518, 445.010 580.330, 448.956 579.743, 449.208 " fill="none" stroke="rgb(0, 0, 0)" stroke-linecap="butt" stroke-linejoin="mitter" stroke-opacity="1.0" stroke-width="1.2000000476837158"/>
      <path d=" M 688.160, 455.300 688.239, 461.788 688.360, 471.788 688.480, 481.787 688.590, 490.853 " fill="none" stroke="rgb(0, 0, 0)" stroke-linecap="butt" stroke-linejoin="mitter" stroke-opacity="1.0" stroke-width="1.2000000476837158"/>
      <path d=" M 633.902, 474.268 643.091, 470.322 643.677, 470.071 644.305, 469.801 653.494, 465.855 662.682, 461.909 666.298, 460.357 675.486, 456.411 676.073, 456.159 676.701, 455.889 683.305, 453.053 " fill="none" stroke="rgb(0, 0, 0)" stroke-linecap="butt" stroke-linejoin="mitter" stroke-opacity="1.0" stroke-width="1.2000000476837158"/>
      <path d=" M 629.146, 427.993 638.222, 432.192 639.027, 432.565 643.882, 434.811 652.958, 439.011 662.033, 443.210 671.109, 447.409 673.424, 448.481 676.629, 449.964 683.305, 453.053 688.160, 455.300 697.236, 459.499 706.311, 463.698 715.387, 467.898 720.907, 470.452 " fill="none" stroke="rgb(0, 0, 0)" stroke-linecap="butt" stroke-linejoin="mitter" stroke-opacity="1.0" stroke-width="1.2000000476837158"/>
      <path d=" M 782.994, 505.634 773.806, 509.579 773.219, 509.831 764.031, 513.777 754.842, 517.723 750.599, 519.545 741.410, 523.491 740.824, 523.743 " fill="none" stroke="rgb(0, 0, 0)" stroke-linecap="butt" stroke-linejoin="mitter" stroke-opacity="1.0" stroke-width="1.2000000476837158"/>
      <path d=" M 643.677, 470.071 644.312, 470.364 653.387, 474.564 662.463, 478.763 671.538, 482.963 680.614, 487.162 688.590, 490.853 697.665, 495.052 706.741, 499.251 715.816, 503.451 724.892, 507.650 733.968, 511.850 743.043, 516.049 750.599, 519.545 " fill="none" stroke="rgb(0, 0, 0)" stroke-linecap="butt" stroke-linejoin="mitter" stroke-opacity="1.0" stroke-width="1.2000000476837158"/>
      <path d=" M 527.509, 416.318 536.585, 420.517 545.660, 424.716 554.736, 428.916 563.811, 433.115 572.887, 437.315 581.962, 441.514 589.518, 445.010 " fill="none" stroke="rgb(0, 0, 0)" stroke-linecap="butt" stroke-linejoin="mitter" stroke-opacity="1.0" stroke-width="1.2000000476837158"/>
    </g>
  </g>
</svg>
