<?xml version="1.0" encoding="ascii"?>
<svg xmlns="http://www.w3.org/2000/svg" xmlns:inkscape="http://www.inkscape.org/namespaces/inkscape" height="1024" version="1.1" width="1024">
  <g id="RenderLayer_Contour" inkscape:groupmode="lineset" inkscape:label="RenderLayer_Contour">
    <g id="fills" inkscape:groupmode="layer" inkscape:label="fills">
      <path d=" M 281.307, 442.473 281.307, 442.473 z" fill="rgb(226, 226, 226)" fill-opacity="1.0" fill-rule="evenodd" stroke="none"/>
      <path d=" M 747.017, 554.592 747.017, 554.592 z" fill="rgb(226, 226, 226)" fill-opacity="1.0" fill-rule="evenodd" stroke="none"/>
      <path d=" M 140.522, 496.865 258.944, 446.011 258.463, 406.149 251.745, 403.040 133.322, 453.894 133.804, 493.757 140.522, 496.865 z" fill="rgb(226, 226, 226)" fill-opacity="1.0" fill-rule="evenodd" stroke="none"/>
      <path d=" M 763.169, 784.312 881.591, 733.458 881.110, 693.596 874.392, 690.487 762.852, 738.386 760.741, 563.648 747.050, 557.313 747.017, 554.592 747.017, 554.592 746.911, 545.823 393.908, 382.481 380.064, 382.433 340.217, 399.545 340.217, 399.545 307.821, 413.456 307.824, 413.678 307.547, 413.549 282.278, 424.400 281.869, 430.569 281.903, 433.402 281.201, 433.703 281.307, 442.473 281.250, 442.497 281.250, 442.498 274.123, 445.558 274.821, 503.358 282.025, 506.692 283.419, 622.077 290.243, 633.955 327.803, 651.335 334.930, 648.274 333.507, 530.514 389.479, 556.413 389.724, 576.743 396.548, 588.621 434.108, 606.001 441.235, 602.941 440.961, 580.234 443.106, 581.227 444.606, 705.382 488.884, 725.870 496.011, 722.809 494.588, 605.049 604.186, 655.762 605.686, 779.917 643.246, 797.296 650.373, 794.236 656.985, 788.575 655.514, 666.796 687.910, 652.884 687.910, 652.884 695.037, 649.823 694.632, 616.335 710.270, 623.571 711.611, 734.569 755.889, 755.058 756.134, 754.952 756.452, 781.203 763.169, 784.312 z M 655.514, 666.796 655.514, 666.796 z" fill="rgb(226, 226, 226)" fill-opacity="1.0" fill-rule="evenodd" stroke="none"/>
    </g>
    <g id="strokes" inkscape:groupmode="layer" inkscape:label="strokes">
      <path d=" M 756.134, 754.952 756.452, 781.203 763.169, 784.312 855.055, 744.853 881.591, 733.458 881.110, 693.596 874.392, 690.487 782.506, 729.946 762.852, 738.386 " fill="none" stroke="rgb(0, 0, 0)" stroke-linecap="butt" stroke-linejoin="mitter" stroke-opacity="1.0" stroke-width="3.0"/>
      <path d=" M 140.522, 496.865 232.408, 457.407 258.944, 446.011 258.463, 406.149 251.745, 403.040 159.859, 442.499 133.322, 453.894 133.804, 493.757 140.522, 496.865 " fill="none" stroke="rgb(0, 0, 0)" stroke-linecap="butt" stroke-linejoin="mitter" stroke-opacity="1.0" stroke-width="3.0"/>
      <path d=" M 604.186, 655.762 605.394, 755.755 605.686, 779.917 643.246, 797.296 650.373, 794.236 656.985, 788.575 655.777, 688.582 655.514, 666.796 " fill="none" stroke="rgb(0, 0, 0)" stroke-linecap="butt" stroke-linejoin="mitter" stroke-opacity="1.0" stroke-width="3.0"/>
      <path d=" M 281.250, 442.498 274.123, 445.558 274.821, 503.358 282.025, 506.692 " fill="none" stroke="rgb(0, 0, 0)" stroke-linecap="butt" stroke-linejoin="mitter" stroke-opacity="1.0" stroke-width="3.0"/>
      <path d=" M 655.514, 666.796 655.514, 666.796 687.910, 652.884 687.910, 652.884 " fill="none" stroke="rgb(0, 0, 0)" stroke-linecap="butt" stroke-linejoin="mitter" stroke-opacity="1.0" stroke-width="3.0"/>
      <path d=" M 687.910, 652.884 695.037, 649.823 694.632, 616.335 " fill="none" stroke="rgb(0, 0, 0)" stroke-linecap="butt" stroke-linejoin="mitter" stroke-opacity="1.0" stroke-width="3.0"/>
      <path d=" M 443.106, 581.227 444.314, 681.220 444.606, 705.382 488.884, 725.870 496.011, 722.809 494.803, 622.817 494.588, 605.049 " fill="none" stroke="rgb(0, 0, 0)" stroke-linecap="butt" stroke-linejoin="mitter" stroke-opacity="1.0" stroke-width="3.0"/>
      <path d=" M 281.307, 442.473 281.250, 442.497 281.250, 442.498 " fill="none" stroke="rgb(0, 0, 0)" stroke-linecap="butt" stroke-linejoin="mitter" stroke-opacity="1.0" stroke-width="3.0"/>
      <path d=" M 282.025, 506.692 283.233, 606.684 283.419, 622.077 290.243, 633.955 327.803, 651.335 334.930, 648.274 333.722, 548.282 333.507, 530.514 " fill="none" stroke="rgb(0, 0, 0)" stroke-linecap="butt" stroke-linejoin="mitter" stroke-opacity="1.0" stroke-width="3.0"/>
      <path d=" M 747.050, 557.313 747.017, 554.592 747.017, 554.592 " fill="none" stroke="rgb(0, 0, 0)" stroke-linecap="butt" stroke-linejoin="mitter" stroke-opacity="1.0" stroke-width="3.0"/>
      <path d=" M 340.217, 399.545 307.821, 413.456 307.824, 413.678 " fill="none" stroke="rgb(0, 0, 0)" stroke-linecap="butt" stroke-linejoin="mitter" stroke-opacity="1.0" stroke-width="3.0"/>
      <path d=" M 747.017, 554.592 747.017, 554.592 746.911, 545.823 656.156, 503.829 565.401, 461.834 474.646, 419.840 393.908, 382.481 380.064, 382.433 340.217, 399.545 340.217, 399.545 " fill="none" stroke="rgb(0, 0, 0)" stroke-linecap="butt" stroke-linejoin="mitter" stroke-opacity="1.0" stroke-width="3.0"/>
      <path d=" M 281.903, 433.402 281.201, 433.703 281.307, 442.473 281.307, 442.473 " fill="none" stroke="rgb(0, 0, 0)" stroke-linecap="butt" stroke-linejoin="mitter" stroke-opacity="1.0" stroke-width="3.0"/>
      <path d=" M 710.270, 623.571 711.478, 723.564 711.611, 734.569 755.889, 755.058 756.134, 754.952 " fill="none" stroke="rgb(0, 0, 0)" stroke-linecap="butt" stroke-linejoin="mitter" stroke-opacity="1.0" stroke-width="3.0"/>
      <path d=" M 762.852, 738.386 761.644, 638.393 760.741, 563.648 747.050, 557.313 " fill="none" stroke="rgb(0, 0, 0)" stroke-linecap="butt" stroke-linejoin="mitter" stroke-opacity="1.0" stroke-width="3.0"/>
      <path d=" M 389.479, 556.413 389.724, 576.743 396.548, 588.621 434.108, 606.001 441.235, 602.941 440.961, 580.234 " fill="none" stroke="rgb(0, 0, 0)" stroke-linecap="butt" stroke-linejoin="mitter" stroke-opacity="1.0" stroke-width="3.0"/>
      <path d=" M 307.824, 413.678 307.547, 413.549 282.278, 424.400 281.869, 430.569 281.903, 433.402 " fill="none" stroke="rgb(0, 0, 0)" stroke-linecap="butt" stroke-linejoin="mitter" stroke-opacity="1.0" stroke-width="3.0"/>
      <path d=" M 494.588, 605.049 585.343, 647.043 604.186, 655.762 " fill="none" stroke="rgb(0, 0, 0)" stroke-linecap="butt" stroke-linejoin="mitter" stroke-opacity="1.0" stroke-width="3.0"/>
      <path d=" M 440.961, 580.234 443.106, 581.227 " fill="none" stroke="rgb(0, 0, 0)" stroke-linecap="butt" stroke-linejoin="mitter" stroke-opacity="1.0" stroke-width="3.0"/>
      <path d=" M 333.507, 530.514 389.479, 556.413 " fill="none" stroke="rgb(0, 0, 0)" stroke-linecap="butt" stroke-linejoin="mitter" stroke-opacity="1.0" stroke-width="3.0"/>
      <path d=" M 694.632, 616.335 710.270, 623.571 " fill="none" stroke="rgb(0, 0, 0)" stroke-linecap="butt" stroke-linejoin="mitter" stroke-opacity="1.0" stroke-width="3.0"/>
    </g>
  </g>
  <g id="RenderLayer_InLine" inkscape:groupmode="lineset" inkscape:label="RenderLayer_InLine">
    <g id="strokes" inkscape:groupmode="layer" inkscape:label="strokes">
      <path d=" M 762.688, 744.450 762.780, 752.098 762.901, 762.098 763.022, 772.097 763.143, 782.096 763.169, 784.312 " fill="none" stroke="rgb(0, 0, 0)" stroke-linecap="butt" stroke-linejoin="mitter" stroke-opacity="1.0" stroke-width="1.2000000476837158"/>
      <path d=" M 881.110, 693.596 871.921, 697.541 862.733, 701.487 853.544, 705.433 844.355, 709.379 835.167, 713.325 825.978, 717.271 816.790, 721.217 807.601, 725.163 798.413, 729.108 789.224, 733.054 780.035, 737.000 770.847, 740.946 762.924, 744.348 762.688, 744.450 755.970, 741.341 " fill="none" stroke="rgb(0, 0, 0)" stroke-linecap="butt" stroke-linejoin="mitter" stroke-opacity="1.0" stroke-width="1.2000000476837158"/>
      <path d=" M 762.852, 738.386 755.970, 741.341 756.060, 748.778 756.134, 754.952 " fill="none" stroke="rgb(0, 0, 0)" stroke-linecap="butt" stroke-linejoin="mitter" stroke-opacity="1.0" stroke-width="1.2000000476837158"/>
      <path d=" M 140.041, 457.003 140.161, 467.002 140.282, 477.001 140.403, 487.001 140.522, 496.865 " fill="none" stroke="rgb(0, 0, 0)" stroke-linecap="butt" stroke-linejoin="mitter" stroke-opacity="1.0" stroke-width="1.2000000476837158"/>
      <path d=" M 258.463, 406.149 249.274, 410.095 240.085, 414.041 230.897, 417.987 221.708, 421.932 212.520, 425.878 203.331, 429.824 194.142, 433.770 184.954, 437.716 175.765, 441.662 166.577, 445.608 157.388, 449.553 148.199, 453.499 140.041, 457.003 133.322, 453.894 " fill="none" stroke="rgb(0, 0, 0)" stroke-linecap="butt" stroke-linejoin="mitter" stroke-opacity="1.0" stroke-width="1.2000000476837158"/>
      <path d=" M 603.468, 591.543 603.411, 591.568 603.411, 591.568 " fill="none" stroke="rgb(0, 0, 0)" stroke-linecap="butt" stroke-linejoin="mitter" stroke-opacity="1.0" stroke-width="1.2000000476837158"/>
      <path d=" M 603.411, 591.568 610.615, 594.901 619.690, 599.101 628.766, 603.300 637.842, 607.499 646.917, 611.699 647.689, 612.056 " fill="none" stroke="rgb(0, 0, 0)" stroke-linecap="butt" stroke-linejoin="mitter" stroke-opacity="1.0" stroke-width="1.2000000476837158"/>
      <path d=" M 643.246, 797.296 649.858, 791.635 649.737, 781.636 649.617, 771.637 649.496, 761.637 649.375, 751.638 649.254, 741.639 649.133, 731.640 649.013, 721.640 648.892, 711.641 648.771, 701.642 648.650, 691.643 648.529, 681.643 648.409, 671.644 648.387, 669.856 648.310, 663.462 648.189, 653.463 648.068, 643.463 647.959, 634.398 647.838, 624.399 647.717, 614.399 647.689, 612.056 647.689, 612.056 648.611, 611.660 654.816, 608.995 654.816, 608.995 654.816, 608.995 654.937, 618.995 655.057, 628.994 655.086, 631.337 655.163, 637.731 655.163, 637.731 655.284, 647.731 655.405, 657.730 655.420, 659.026 655.514, 666.796 " fill="none" stroke="rgb(0, 0, 0)" stroke-linecap="butt" stroke-linejoin="mitter" stroke-opacity="1.0" stroke-width="1.2000000476837158"/>
      <path d=" M 604.186, 655.762 611.391, 659.095 620.466, 663.295 629.542, 667.494 638.617, 671.694 641.260, 672.917 648.387, 669.856 648.387, 669.856 648.310, 663.462 648.189, 653.463 648.068, 643.463 647.959, 634.398 647.959, 634.398 647.881, 628.004 647.761, 618.004 647.689, 612.056 647.689, 612.056 643.362, 610.054 634.286, 605.854 625.211, 601.655 616.135, 597.455 610.615, 594.901 610.615, 594.901 603.411, 591.568 594.335, 587.368 585.260, 583.169 576.184, 578.969 567.109, 574.770 558.033, 570.571 548.958, 566.371 539.882, 562.172 530.807, 557.972 526.559, 556.007 517.484, 551.807 508.408, 547.608 499.333, 543.409 493.812, 540.854 493.812, 540.854 486.608, 537.521 482.281, 535.519 473.206, 531.319 464.130, 527.120 455.055, 522.920 449.534, 520.366 449.534, 520.366 442.330, 517.033 440.185, 516.040 432.981, 512.707 423.906, 508.507 414.830, 504.308 405.755, 500.108 396.679, 495.909 395.907, 495.552 388.703, 492.218 379.628, 488.019 370.552, 483.819 365.479, 481.472 356.403, 477.272 347.328, 473.073 338.252, 468.874 332.732, 466.319 332.732, 466.319 328.405, 464.317 325.528, 462.986 321.201, 460.984 321.201, 460.984 312.125, 456.784 303.049, 452.585 293.974, 448.385 288.454, 445.831 288.454, 445.831 281.250, 442.498 281.250, 442.498 " fill="none" stroke="rgb(0, 0, 0)" stroke-linecap="butt" stroke-linejoin="mitter" stroke-opacity="1.0" stroke-width="1.2000000476837158"/>
      <path d=" M 640.562, 615.117 631.486, 610.917 622.411, 606.718 613.335, 602.518 610.692, 601.295 603.488, 597.962 594.412, 593.762 585.337, 589.563 576.261, 585.363 567.186, 581.164 558.110, 576.965 549.035, 572.765 539.959, 568.566 530.884, 564.366 526.636, 562.401 517.561, 558.202 508.485, 554.002 499.410, 549.803 493.890, 547.249 484.814, 543.049 475.739, 538.850 466.663, 534.650 457.588, 530.451 449.612, 526.760 442.407, 523.427 440.263, 522.434 431.187, 518.235 422.112, 514.035 413.036, 509.836 403.961, 505.637 394.885, 501.437 388.780, 498.612 379.705, 494.413 370.629, 490.214 365.556, 487.866 356.480, 483.667 347.405, 479.467 338.329, 475.268 332.809, 472.713 323.734, 468.514 321.278, 467.378 312.202, 463.178 303.127, 458.979 294.051, 454.779 288.531, 452.225 281.327, 448.892 274.123, 445.558 " fill="none" stroke="rgb(0, 0, 0)" stroke-linecap="butt" stroke-linejoin="mitter" stroke-opacity="1.0" stroke-width="1.2000000476837158"/>
      <path d=" M 641.260, 672.917 641.139, 662.917 641.105, 660.128 640.985, 650.129 640.864, 640.130 640.754, 631.064 640.634, 621.065 640.562, 615.117 647.689, 612.056 " fill="none" stroke="rgb(0, 0, 0)" stroke-linecap="butt" stroke-linejoin="mitter" stroke-opacity="1.0" stroke-width="1.2000000476837158"/>
      <path d=" M 687.910, 652.884 687.832, 646.490 687.712, 636.491 687.591, 626.491 687.470, 616.492 687.430, 613.207 687.428, 613.002 687.322, 604.232 687.322, 604.232 687.218, 595.647 687.211, 595.084 687.211, 595.084 687.211, 595.084 " fill="none" stroke="rgb(0, 0, 0)" stroke-linecap="butt" stroke-linejoin="mitter" stroke-opacity="1.0" stroke-width="1.2000000476837158"/>
      <path d=" M 654.816, 608.995 654.816, 608.995 " fill="none" stroke="rgb(0, 0, 0)" stroke-linecap="butt" stroke-linejoin="mitter" stroke-opacity="1.0" stroke-width="1.2000000476837158"/>
      <path d=" M 655.514, 666.796 655.420, 659.026 655.299, 649.027 655.179, 639.028 655.163, 637.731 655.042, 627.732 654.921, 617.733 654.816, 608.995 664.004, 605.049 667.240, 603.660 676.428, 599.714 677.643, 599.193 686.831, 595.247 687.211, 595.084 " fill="none" stroke="rgb(0, 0, 0)" stroke-linecap="butt" stroke-linejoin="mitter" stroke-opacity="1.0" stroke-width="1.2000000476837158"/>
      <path d=" M 694.632, 616.335 694.526, 607.565 694.526, 607.565 694.405, 597.566 694.345, 592.587 694.338, 592.023 694.338, 592.023 " fill="none" stroke="rgb(0, 0, 0)" stroke-linecap="butt" stroke-linejoin="mitter" stroke-opacity="1.0" stroke-width="1.2000000476837158"/>
      <path d=" M 687.211, 595.084 687.211, 595.084 " fill="none" stroke="rgb(0, 0, 0)" stroke-linecap="butt" stroke-linejoin="mitter" stroke-opacity="1.0" stroke-width="1.2000000476837158"/>
      <path d=" M 694.338, 592.023 687.211, 595.084 687.322, 604.232 687.428, 613.002 687.430, 613.207 " fill="none" stroke="rgb(0, 0, 0)" stroke-linecap="butt" stroke-linejoin="mitter" stroke-opacity="1.0" stroke-width="1.2000000476837158"/>
      <path d=" M 442.387, 517.008 442.330, 517.033 442.330, 517.033 " fill="none" stroke="rgb(0, 0, 0)" stroke-linecap="butt" stroke-linejoin="mitter" stroke-opacity="1.0" stroke-width="1.2000000476837158"/>
      <path d=" M 442.330, 517.033 449.534, 520.366 458.610, 524.565 467.685, 528.765 476.761, 532.964 485.836, 537.164 486.608, 537.521 " fill="none" stroke="rgb(0, 0, 0)" stroke-linecap="butt" stroke-linejoin="mitter" stroke-opacity="1.0" stroke-width="1.2000000476837158"/>
      <path d=" M 486.608, 537.521 486.608, 537.521 486.665, 537.496 490.525, 535.839 " fill="none" stroke="rgb(0, 0, 0)" stroke-linecap="butt" stroke-linejoin="mitter" stroke-opacity="1.0" stroke-width="1.2000000476837158"/>
      <path d=" M 281.250, 442.497 288.454, 445.831 297.529, 450.030 306.605, 454.230 315.680, 458.429 321.201, 460.984 325.528, 462.986 " fill="none" stroke="rgb(0, 0, 0)" stroke-linecap="butt" stroke-linejoin="mitter" stroke-opacity="1.0" stroke-width="1.2000000476837158"/>
      <path d=" M 325.528, 462.986 325.528, 462.986 325.585, 462.961 329.444, 461.304 " fill="none" stroke="rgb(0, 0, 0)" stroke-linecap="butt" stroke-linejoin="mitter" stroke-opacity="1.0" stroke-width="1.2000000476837158"/>
      <path d=" M 694.526, 607.565 703.602, 611.765 710.164, 614.802 717.369, 618.135 721.927, 620.244 721.927, 620.245 731.116, 616.299 740.305, 612.353 741.182, 611.976 744.548, 610.531 747.196, 609.393 747.605, 603.224 " fill="none" stroke="rgb(0, 0, 0)" stroke-linecap="butt" stroke-linejoin="mitter" stroke-opacity="1.0" stroke-width="1.2000000476837158"/>
      <path d=" M 746.714, 569.531 747.123, 563.362 " fill="none" stroke="rgb(0, 0, 0)" stroke-linecap="butt" stroke-linejoin="mitter" stroke-opacity="1.0" stroke-width="1.2000000476837158"/>
      <path d=" M 721.927, 620.245 721.807, 610.245 721.686, 600.246 721.576, 591.180 721.456, 581.181 721.446, 580.382 " fill="none" stroke="rgb(0, 0, 0)" stroke-linecap="butt" stroke-linejoin="mitter" stroke-opacity="1.0" stroke-width="1.2000000476837158"/>
      <path d=" M 710.270, 623.571 717.475, 626.905 722.033, 629.014 731.222, 625.068 740.411, 621.122 747.302, 618.163 747.711, 611.994 " fill="none" stroke="rgb(0, 0, 0)" stroke-linecap="butt" stroke-linejoin="mitter" stroke-opacity="1.0" stroke-width="1.2000000476837158"/>
      <path d=" M 721.927, 620.244 721.927, 620.244 " fill="none" stroke="rgb(0, 0, 0)" stroke-linecap="butt" stroke-linejoin="mitter" stroke-opacity="1.0" stroke-width="1.2000000476837158"/>
      <path d=" M 741.182, 611.976 747.196, 609.393 747.605, 603.224 " fill="none" stroke="rgb(0, 0, 0)" stroke-linecap="butt" stroke-linejoin="mitter" stroke-opacity="1.0" stroke-width="1.2000000476837158"/>
      <path d=" M 722.033, 629.014 721.927, 620.244 712.852, 616.045 710.164, 614.802 701.089, 610.602 694.526, 607.565 " fill="none" stroke="rgb(0, 0, 0)" stroke-linecap="butt" stroke-linejoin="mitter" stroke-opacity="1.0" stroke-width="1.2000000476837158"/>
      <path d=" M 603.426, 588.081 603.468, 591.543 603.468, 591.543 610.614, 594.850 610.614, 594.850 619.690, 599.049 628.765, 603.249 637.841, 607.448 643.361, 610.002 647.746, 612.031 648.611, 611.660 654.816, 608.995 654.816, 608.995 664.004, 605.049 667.240, 603.660 676.428, 599.714 677.015, 599.462 677.643, 599.193 686.831, 595.247 687.211, 595.084 687.211, 595.084 694.338, 592.023 699.635, 589.748 708.824, 585.803 709.410, 585.551 709.809, 585.380 710.038, 585.281 716.936, 582.319 721.446, 580.382 730.634, 576.436 739.823, 572.491 746.714, 569.531 747.101, 563.695 747.123, 563.363 747.123, 563.362 747.050, 557.313 " fill="none" stroke="rgb(0, 0, 0)" stroke-linecap="butt" stroke-linejoin="mitter" stroke-opacity="1.0" stroke-width="1.2000000476837158"/>
      <path d=" M 747.017, 554.592 746.843, 557.217 746.608, 560.762 743.961, 561.899 734.772, 565.844 725.583, 569.790 716.395, 573.736 709.703, 576.610 700.514, 580.556 699.529, 580.979 690.341, 584.925 684.457, 587.451 677.537, 590.423 677.330, 590.512 668.142, 594.457 658.953, 598.403 657.359, 599.088 648.170, 603.034 647.640, 603.262 " fill="none" stroke="rgb(0, 0, 0)" stroke-linecap="butt" stroke-linejoin="mitter" stroke-opacity="1.0" stroke-width="1.2000000476837158"/>
      <path d=" M 646.470, 602.720 647.640, 603.262 647.669, 605.689 647.746, 612.031 " fill="none" stroke="rgb(0, 0, 0)" stroke-linecap="butt" stroke-linejoin="mitter" stroke-opacity="1.0" stroke-width="1.2000000476837158"/>
      <path d=" M 674.089, 591.656 674.366, 591.784 677.330, 590.512 677.330, 590.512 677.537, 590.423 684.457, 587.451 689.754, 585.176 698.943, 581.231 699.529, 580.979 706.762, 577.873 706.710, 573.564 706.656, 569.103 706.656, 569.103 697.580, 564.904 688.505, 560.704 682.140, 557.759 682.140, 557.759 673.064, 553.560 672.259, 553.187 663.183, 548.987 654.108, 544.788 645.032, 540.589 635.957, 536.389 626.881, 532.190 617.806, 527.990 611.449, 525.049 602.373, 520.849 593.298, 516.650 593.058, 516.539 583.983, 512.340 574.907, 508.140 565.832, 503.941 565.337, 503.712 565.337, 503.712 556.262, 499.513 555.456, 499.140 548.780, 496.051 539.705, 491.852 530.629, 487.652 521.554, 483.453 521.059, 483.224 521.059, 483.224 511.984, 479.024 511.178, 478.652 502.103, 474.452 493.027, 470.253 483.952, 466.054 474.876, 461.854 465.801, 457.655 456.725, 453.455 447.650, 449.256 439.332, 445.407 432.128, 442.074 431.978, 442.004 422.902, 437.805 413.827, 433.605 404.751, 429.406 404.257, 429.177 404.257, 429.177 395.181, 424.978 395.054, 424.919 394.376, 424.605 387.850, 421.585 378.774, 417.386 369.699, 413.187 360.623, 408.987 359.979, 408.689 359.979, 408.689 350.903, 404.489 350.098, 404.117 350.098, 404.117 341.022, 399.917 340.217, 399.545 340.217, 399.545 " fill="none" stroke="rgb(0, 0, 0)" stroke-linecap="butt" stroke-linejoin="mitter" stroke-opacity="1.0" stroke-width="1.2000000476837158"/>
      <path d=" M 307.821, 413.456 316.897, 417.656 317.702, 418.028 326.778, 422.228 327.583, 422.601 336.659, 426.800 345.734, 430.999 354.810, 435.199 355.304, 435.427 364.379, 439.627 371.861, 443.089 372.496, 443.383 381.571, 447.582 388.201, 450.649 397.276, 454.849 406.352, 459.048 415.427, 463.248 416.774, 463.871 425.849, 468.070 434.925, 472.270 439.683, 474.471 448.759, 478.671 457.834, 482.870 466.910, 487.070 475.985, 491.269 478.783, 492.563 487.858, 496.763 496.934, 500.962 506.009, 505.162 515.085, 509.361 516.385, 509.963 525.460, 514.162 532.942, 517.624 542.017, 521.823 551.093, 526.023 560.168, 530.222 569.244, 534.421 577.854, 538.406 586.930, 542.605 596.006, 546.805 605.081, 551.004 614.157, 555.204 623.232, 559.403 632.308, 563.602 639.863, 567.099 648.939, 571.298 658.014, 575.497 667.090, 579.697 674.260, 583.015 " fill="none" stroke="rgb(0, 0, 0)" stroke-linecap="butt" stroke-linejoin="mitter" stroke-opacity="1.0" stroke-width="1.2000000476837158"/>
      <path d=" M 674.366, 591.784 674.334, 589.125 674.260, 583.015 674.576, 582.879 677.431, 581.653 686.619, 577.707 689.648, 576.407 696.881, 573.301 706.070, 569.355 706.656, 569.103 " fill="none" stroke="rgb(0, 0, 0)" stroke-linecap="butt" stroke-linejoin="mitter" stroke-opacity="1.0" stroke-width="1.2000000476837158"/>
      <path d=" M 706.762, 577.873 709.703, 576.610 709.932, 576.511 711.565, 575.810 716.830, 573.549 726.019, 569.603 735.207, 565.658 743.576, 562.064 743.961, 561.899 743.961, 561.899 746.608, 560.761 746.843, 557.217 747.017, 554.592 " fill="none" stroke="rgb(0, 0, 0)" stroke-linecap="butt" stroke-linejoin="mitter" stroke-opacity="1.0" stroke-width="1.2000000476837158"/>
      <path d=" M 340.217, 399.545 349.292, 403.744 350.098, 404.117 359.173, 408.316 359.979, 408.689 369.054, 412.888 378.130, 417.088 387.205, 421.287 387.850, 421.585 396.925, 425.785 404.257, 429.177 413.332, 433.377 422.408, 437.576 431.483, 441.775 431.978, 442.004 439.332, 445.407 448.408, 449.607 457.483, 453.806 466.559, 458.005 475.634, 462.205 484.710, 466.404 493.785, 470.604 502.861, 474.803 511.178, 478.652 520.254, 482.851 521.059, 483.224 530.135, 487.423 539.210, 491.623 548.286, 495.822 557.361, 500.022 565.337, 503.712 574.413, 507.912 583.488, 512.111 592.564, 516.310 593.058, 516.539 602.134, 520.739 611.209, 524.938 611.449, 525.049 620.524, 529.248 629.600, 533.448 638.675, 537.647 647.751, 541.846 656.826, 546.046 665.902, 550.245 672.259, 553.187 681.334, 557.386 682.140, 557.759 691.215, 561.958 700.291, 566.158 706.656, 569.103 706.656, 569.103 709.597, 567.840 718.786, 563.894 727.974, 559.948 734.080, 557.327 740.822, 554.431 743.855, 553.129 746.503, 551.992 746.911, 545.823 " fill="none" stroke="rgb(0, 0, 0)" stroke-linecap="butt" stroke-linejoin="mitter" stroke-opacity="1.0" stroke-width="1.2000000476837158"/>
      <path d=" M 442.346, 513.546 442.387, 517.008 442.387, 517.008 449.534, 520.315 449.534, 520.315 458.609, 524.514 467.685, 528.713 476.760, 532.913 482.280, 535.467 486.665, 537.496 486.666, 537.496 490.525, 535.839 " fill="none" stroke="rgb(0, 0, 0)" stroke-linecap="butt" stroke-linejoin="mitter" stroke-opacity="1.0" stroke-width="1.2000000476837158"/>
      <path d=" M 325.585, 462.961 328.374, 461.763 329.444, 461.304 " fill="none" stroke="rgb(0, 0, 0)" stroke-linecap="butt" stroke-linejoin="mitter" stroke-opacity="1.0" stroke-width="1.2000000476837158"/>
      <path d=" M 281.307, 442.473 288.453, 445.780 288.453, 445.780 297.529, 449.979 306.604, 454.178 315.680, 458.378 321.200, 460.932 " fill="none" stroke="rgb(0, 0, 0)" stroke-linecap="butt" stroke-linejoin="mitter" stroke-opacity="1.0" stroke-width="1.2000000476837158"/>
      <path d=" M 753.614, 566.708 753.735, 576.708 753.856, 586.707 753.976, 596.706 754.097, 606.706 754.218, 616.705 754.339, 626.704 754.460, 636.703 754.580, 646.703 754.701, 656.702 754.822, 666.701 754.943, 676.700 755.064, 686.700 755.184, 696.699 755.305, 706.698 755.426, 716.698 755.547, 726.697 755.668, 736.696 755.788, 746.695 755.889, 755.058 " fill="none" stroke="rgb(0, 0, 0)" stroke-linecap="butt" stroke-linejoin="mitter" stroke-opacity="1.0" stroke-width="1.2000000476837158"/>
      <path d=" M 760.741, 563.648 753.614, 566.708 747.128, 563.707 " fill="none" stroke="rgb(0, 0, 0)" stroke-linecap="butt" stroke-linejoin="mitter" stroke-opacity="1.0" stroke-width="1.2000000476837158"/>
      <path d=" M 281.903, 433.402 281.911, 434.032 281.975, 439.339 285.166, 440.816 285.166, 440.816 288.411, 442.317 288.411, 442.317 297.487, 446.517 306.562, 450.716 315.638, 454.916 321.158, 457.470 321.158, 457.470 325.543, 459.499 328.362, 460.804 329.444, 461.304 329.444, 461.304 332.689, 462.806 332.689, 462.806 341.765, 467.005 350.841, 471.205 359.916, 475.404 365.436, 477.958 374.512, 482.158 383.587, 486.357 388.661, 488.705 395.865, 492.038 404.940, 496.238 414.016, 500.437 423.091, 504.636 432.167, 508.836 432.939, 509.193 440.143, 512.526 442.346, 513.546 446.246, 515.351 446.246, 515.351 449.492, 516.852 449.492, 516.852 458.568, 521.052 467.643, 525.251 476.719, 529.451 482.239, 532.005 486.624, 534.034 490.525, 535.839 490.525, 535.839 493.770, 537.341 493.770, 537.341 502.846, 541.540 511.921, 545.740 520.997, 549.939 526.517, 552.493 535.592, 556.693 544.668, 560.892 553.743, 565.091 562.819, 569.291 571.894, 573.490 580.970, 577.690 590.045, 581.889 599.121, 586.089 603.426, 588.081 607.327, 589.886 607.327, 589.886 610.573, 591.388 610.573, 591.388 619.648, 595.587 628.724, 599.786 634.978, 602.681 641.215, 602.702 641.215, 602.702 643.273, 602.709 646.470, 602.720 648.823, 602.729 657.331, 599.075 666.519, 595.129 667.106, 594.877 674.092, 591.877 674.089, 591.656 674.057, 588.997 674.057, 588.997 673.986, 583.108 664.910, 578.908 655.835, 574.709 649.497, 571.776 640.422, 567.577 639.617, 567.204 630.541, 563.005 621.466, 558.806 612.390, 554.606 603.315, 550.407 594.239, 546.207 585.164, 542.008 577.608, 538.512 568.532, 534.312 560.665, 530.672 551.590, 526.473 542.514, 522.273 533.330, 518.023 532.695, 517.730 523.619, 513.530 522.814, 513.158 516.387, 510.184 507.312, 505.984 498.236, 501.785 489.161, 497.586 488.417, 497.241 479.341, 493.042 478.536, 492.669 469.461, 488.470 460.385, 484.271 451.310, 480.071 442.234, 475.872 439.686, 474.693 432.482, 471.359 423.406, 467.160 416.527, 463.977 407.452, 459.777 399.585, 456.137 395.408, 454.204 388.204, 450.871 383.325, 448.613 374.249, 444.414 372.249, 443.488 372.249, 443.488 371.614, 443.195 362.539, 438.995 361.734, 438.623 355.307, 435.649 346.231, 431.449 337.156, 427.250 327.905, 422.970 327.337, 422.706 327.336, 422.706 318.261, 418.507 317.456, 418.134 317.456, 418.134 308.380, 413.935 307.824, 413.678 " fill="none" stroke="rgb(0, 0, 0)" stroke-linecap="butt" stroke-linejoin="mitter" stroke-opacity="1.0" stroke-width="1.2000000476837158"/>
      <path d=" M 281.869, 430.569 285.060, 432.046 294.136, 436.245 294.941, 436.618 304.016, 440.817 313.092, 445.017 321.052, 448.700 330.128, 452.900 339.219, 457.106 348.294, 461.306 357.370, 465.505 365.330, 469.189 374.406, 473.388 383.481, 477.587 388.555, 479.935 397.630, 484.134 406.706, 488.334 415.781, 492.533 424.857, 496.733 433.932, 500.932 440.037, 503.757 446.141, 506.581 455.216, 510.780 456.021, 511.153 465.097, 515.353 474.172, 519.552 483.248, 523.751 492.323, 527.951 500.299, 531.641 509.375, 535.841 518.450, 540.040 526.411, 543.724 535.486, 547.923 544.562, 552.122 553.637, 556.322 562.713, 560.521 571.788, 564.721 580.864, 568.920 589.939, 573.119 599.015, 577.319 607.221, 581.116 616.297, 585.315 617.102, 585.688 626.177, 589.888 634.872, 593.911 644.872, 593.945 646.255, 593.950 648.717, 593.959 657.906, 590.013 664.458, 587.199 667.422, 585.927 673.986, 583.108 " fill="none" stroke="rgb(0, 0, 0)" stroke-linecap="butt" stroke-linejoin="mitter" stroke-opacity="1.0" stroke-width="1.2000000476837158"/>
      <path d=" M 281.911, 434.032 281.201, 433.703 " fill="none" stroke="rgb(0, 0, 0)" stroke-linecap="butt" stroke-linejoin="mitter" stroke-opacity="1.0" stroke-width="1.2000000476837158"/>
      <path d=" M 325.543, 459.499 325.585, 462.961 " fill="none" stroke="rgb(0, 0, 0)" stroke-linecap="butt" stroke-linejoin="mitter" stroke-opacity="1.0" stroke-width="1.2000000476837158"/>
      <path d=" M 326.303, 527.180 326.424, 537.179 326.545, 547.179 326.666, 557.178 326.786, 567.177 326.907, 577.176 327.028, 587.176 327.149, 597.175 327.270, 607.174 327.390, 617.174 327.511, 627.173 327.632, 637.172 327.753, 647.171 327.803, 651.335 " fill="none" stroke="rgb(0, 0, 0)" stroke-linecap="butt" stroke-linejoin="mitter" stroke-opacity="1.0" stroke-width="1.2000000476837158"/>
      <path d=" M 332.732, 466.319 332.689, 462.806 " fill="none" stroke="rgb(0, 0, 0)" stroke-linecap="butt" stroke-linejoin="mitter" stroke-opacity="1.0" stroke-width="1.2000000476837158"/>
      <path d=" M 332.732, 466.319 332.689, 462.806 " fill="none" stroke="rgb(0, 0, 0)" stroke-linecap="butt" stroke-linejoin="mitter" stroke-opacity="1.0" stroke-width="1.2000000476837158"/>
      <path d=" M 365.479, 481.472 365.436, 477.958 " fill="none" stroke="rgb(0, 0, 0)" stroke-linecap="butt" stroke-linejoin="mitter" stroke-opacity="1.0" stroke-width="1.2000000476837158"/>
      <path d=" M 433.757, 576.901 433.877, 586.900 433.998, 596.899 434.108, 606.001 " fill="none" stroke="rgb(0, 0, 0)" stroke-linecap="butt" stroke-linejoin="mitter" stroke-opacity="1.0" stroke-width="1.2000000476837158"/>
      <path d=" M 486.624, 534.034 486.666, 537.496 " fill="none" stroke="rgb(0, 0, 0)" stroke-linecap="butt" stroke-linejoin="mitter" stroke-opacity="1.0" stroke-width="1.2000000476837158"/>
      <path d=" M 487.384, 601.715 487.505, 611.714 487.625, 621.714 487.746, 631.713 487.867, 641.712 487.988, 651.712 488.109, 661.711 488.229, 671.710 488.350, 681.709 488.471, 691.709 488.592, 701.708 488.713, 711.707 488.833, 721.706 488.884, 725.870 " fill="none" stroke="rgb(0, 0, 0)" stroke-linecap="butt" stroke-linejoin="mitter" stroke-opacity="1.0" stroke-width="1.2000000476837158"/>
      <path d=" M 493.812, 540.854 493.770, 537.341 " fill="none" stroke="rgb(0, 0, 0)" stroke-linecap="butt" stroke-linejoin="mitter" stroke-opacity="1.0" stroke-width="1.2000000476837158"/>
      <path d=" M 526.559, 556.007 526.517, 552.493 " fill="none" stroke="rgb(0, 0, 0)" stroke-linecap="butt" stroke-linejoin="mitter" stroke-opacity="1.0" stroke-width="1.2000000476837158"/>
      <path d=" M 443.106, 581.227 450.310, 584.560 459.385, 588.760 468.461, 592.959 477.536, 597.159 486.612, 601.358 487.384, 601.715 494.588, 605.049 " fill="none" stroke="rgb(0, 0, 0)" stroke-linecap="butt" stroke-linejoin="mitter" stroke-opacity="1.0" stroke-width="1.2000000476837158"/>
      <path d=" M 389.479, 556.413 396.683, 559.746 405.758, 563.946 414.834, 568.145 423.909, 572.344 432.985, 576.544 433.757, 576.901 440.961, 580.234 " fill="none" stroke="rgb(0, 0, 0)" stroke-linecap="butt" stroke-linejoin="mitter" stroke-opacity="1.0" stroke-width="1.2000000476837158"/>
      <path d=" M 282.025, 506.692 289.229, 510.025 298.305, 514.225 307.380, 518.424 316.456, 522.624 325.531, 526.823 326.303, 527.180 333.507, 530.514 " fill="none" stroke="rgb(0, 0, 0)" stroke-linecap="butt" stroke-linejoin="mitter" stroke-opacity="1.0" stroke-width="1.2000000476837158"/>
      <path d=" M 747.128, 563.707 747.123, 563.363 " fill="none" stroke="rgb(0, 0, 0)" stroke-linecap="butt" stroke-linejoin="mitter" stroke-opacity="1.0" stroke-width="1.2000000476837158"/>
    </g>
  </g>
</svg>
