<?xml version="1.0" encoding="ascii"?>
<svg xmlns="http://www.w3.org/2000/svg" xmlns:inkscape="http://www.inkscape.org/namespaces/inkscape" height="1024" version="1.1" width="1024">
  <g id="RenderLayer_Contour" inkscape:groupmode="lineset" inkscape:label="RenderLayer_Contour">
    <g id="fills" inkscape:groupmode="layer" inkscape:label="fills">
      <path d=" M 427.791, 946.409 426.154, 954.075 494.360, 1009.259 508.004, 1011.471 547.850, 994.360 549.487, 986.693 474.764, 926.237 427.791, 946.409 z" fill="rgb(226, 226, 226)" fill-opacity="1.0" fill-rule="evenodd" stroke="none"/>
      <path d=" M 201.279, 763.316 554.282, 926.657 568.127, 926.705 593.396, 915.854 593.290, 907.085 226.851, 737.526 201.582, 748.377 201.173, 754.546 201.279, 763.316 z" fill="rgb(226, 226, 226)" fill-opacity="1.0" fill-rule="evenodd" stroke="none"/>
      <path d=" M 621.742, 903.682 654.137, 889.770 654.031, 881.000 287.592, 711.442 255.197, 725.353 255.303, 734.123 621.742, 903.682 z" fill="rgb(226, 226, 226)" fill-opacity="1.0" fill-rule="evenodd" stroke="none"/>
      <path d=" M 287.881, 839.465 143.596, 772.702 103.749, 789.813 103.340, 795.982 103.446, 804.752 241.014, 868.407 287.987, 848.235 287.881, 839.465 z" fill="rgb(226, 226, 226)" fill-opacity="1.0" fill-rule="evenodd" stroke="none"/>
      <path d=" M 454.192, 916.421 309.907, 849.657 262.933, 869.829 263.039, 878.599 407.324, 945.362 454.298, 925.190 454.192, 916.421 z" fill="rgb(226, 226, 226)" fill-opacity="1.0" fill-rule="evenodd" stroke="none"/>
      <path d=" M 655.514, 666.796 655.514, 666.796 z" fill="rgb(226, 226, 226)" fill-opacity="1.0" fill-rule="evenodd" stroke="none"/>
      <path d=" M 656.985, 788.575 655.514, 666.796 687.910, 652.884 687.910, 652.884 695.037, 649.823 694.338, 592.023 327.899, 422.465 320.772, 425.525 320.772, 425.525 288.377, 439.437 288.377, 439.437 281.250, 442.497 281.250, 442.498 274.123, 445.558 274.821, 503.358 282.025, 506.692 283.419, 622.077 290.243, 633.955 327.803, 651.335 334.930, 648.274 333.507, 530.514 443.106, 581.227 444.606, 705.382 488.884, 725.870 496.011, 722.809 494.588, 605.049 604.186, 655.762 605.686, 779.917 643.246, 797.296 650.373, 794.236 656.985, 788.575 z" fill="rgb(226, 226, 226)" fill-opacity="1.0" fill-rule="evenodd" stroke="none"/>
      <path d=" M 874.866, 508.505 874.866, 508.505 874.866, 508.505 874.760, 499.736 874.760, 499.735 874.654, 490.966 521.651, 327.625 507.806, 327.577 467.960, 344.688 467.960, 344.688 435.564, 358.600 435.670, 367.369 408.944, 378.846 409.050, 387.616 453.328, 408.104 483.225, 395.266 483.231, 395.829 483.231, 395.829 483.337, 404.599 579.743, 449.208 570.024, 453.381 570.130, 462.151 614.409, 482.639 633.902, 474.268 740.824, 523.743 731.105, 527.916 731.211, 536.686 775.489, 557.174 794.983, 548.803 849.776, 574.157 875.045, 563.306 875.454, 557.137 875.348, 548.367 875.348, 548.367 874.866, 508.505 z" fill="rgb(226, 226, 226)" fill-opacity="1.0" fill-rule="evenodd" stroke="none"/>
    </g>
    <g id="strokes" inkscape:groupmode="layer" inkscape:label="strokes">
      <path d=" M 875.348, 548.367 874.866, 508.505 874.866, 508.505 " fill="none" stroke="rgb(0, 0, 0)" stroke-linecap="butt" stroke-linejoin="mitter" stroke-opacity="1.0" stroke-width="3.0"/>
      <path d=" M 483.231, 395.829 483.337, 404.599 574.093, 446.593 579.743, 449.208 " fill="none" stroke="rgb(0, 0, 0)" stroke-linecap="butt" stroke-linejoin="mitter" stroke-opacity="1.0" stroke-width="3.0"/>
      <path d=" M 794.983, 548.803 849.776, 574.157 875.045, 563.306 875.454, 557.137 875.348, 548.367 875.348, 548.367 " fill="none" stroke="rgb(0, 0, 0)" stroke-linecap="butt" stroke-linejoin="mitter" stroke-opacity="1.0" stroke-width="3.0"/>
      <path d=" M 740.824, 523.743 731.105, 527.916 731.211, 536.686 775.489, 557.174 794.983, 548.803 " fill="none" stroke="rgb(0, 0, 0)" stroke-linecap="butt" stroke-linejoin="mitter" stroke-opacity="1.0" stroke-width="3.0"/>
      <path d=" M 874.866, 508.505 874.866, 508.505 874.760, 499.736 874.760, 499.735 " fill="none" stroke="rgb(0, 0, 0)" stroke-linecap="butt" stroke-linejoin="mitter" stroke-opacity="1.0" stroke-width="3.0"/>
      <path d=" M 467.960, 344.688 435.564, 358.600 435.670, 367.369 " fill="none" stroke="rgb(0, 0, 0)" stroke-linecap="butt" stroke-linejoin="mitter" stroke-opacity="1.0" stroke-width="3.0"/>
      <path d=" M 874.760, 499.735 874.654, 490.966 783.899, 448.972 693.144, 406.978 602.389, 364.983 521.651, 327.625 507.806, 327.577 467.960, 344.688 467.960, 344.688 " fill="none" stroke="rgb(0, 0, 0)" stroke-linecap="butt" stroke-linejoin="mitter" stroke-opacity="1.0" stroke-width="3.0"/>
      <path d=" M 579.743, 449.208 570.024, 453.381 570.130, 462.151 614.409, 482.639 633.902, 474.268 " fill="none" stroke="rgb(0, 0, 0)" stroke-linecap="butt" stroke-linejoin="mitter" stroke-opacity="1.0" stroke-width="3.0"/>
      <path d=" M 435.670, 367.369 408.944, 378.846 409.050, 387.616 453.328, 408.104 483.225, 395.266 " fill="none" stroke="rgb(0, 0, 0)" stroke-linecap="butt" stroke-linejoin="mitter" stroke-opacity="1.0" stroke-width="3.0"/>
      <path d=" M 483.225, 395.266 483.231, 395.829 483.231, 395.829 " fill="none" stroke="rgb(0, 0, 0)" stroke-linecap="butt" stroke-linejoin="mitter" stroke-opacity="1.0" stroke-width="3.0"/>
      <path d=" M 604.186, 655.762 605.394, 755.755 605.686, 779.917 643.246, 797.296 650.373, 794.236 656.985, 788.575 655.777, 688.582 655.514, 666.796 " fill="none" stroke="rgb(0, 0, 0)" stroke-linecap="butt" stroke-linejoin="mitter" stroke-opacity="1.0" stroke-width="3.0"/>
      <path d=" M 281.250, 442.498 274.123, 445.558 274.821, 503.358 282.025, 506.692 " fill="none" stroke="rgb(0, 0, 0)" stroke-linecap="butt" stroke-linejoin="mitter" stroke-opacity="1.0" stroke-width="3.0"/>
      <path d=" M 655.514, 666.796 655.514, 666.796 687.910, 652.884 687.910, 652.884 " fill="none" stroke="rgb(0, 0, 0)" stroke-linecap="butt" stroke-linejoin="mitter" stroke-opacity="1.0" stroke-width="3.0"/>
      <path d=" M 687.910, 652.884 695.037, 649.823 694.338, 592.023 603.583, 550.029 512.828, 508.035 422.073, 466.041 327.899, 422.465 320.774, 425.525 320.773, 425.525 " fill="none" stroke="rgb(0, 0, 0)" stroke-linecap="butt" stroke-linejoin="mitter" stroke-opacity="1.0" stroke-width="3.0"/>
      <path d=" M 443.106, 581.227 444.314, 681.220 444.606, 705.382 488.884, 725.870 496.011, 722.809 494.803, 622.817 494.588, 605.049 " fill="none" stroke="rgb(0, 0, 0)" stroke-linecap="butt" stroke-linejoin="mitter" stroke-opacity="1.0" stroke-width="3.0"/>
      <path d=" M 288.377, 439.437 288.377, 439.437 281.250, 442.497 281.250, 442.498 " fill="none" stroke="rgb(0, 0, 0)" stroke-linecap="butt" stroke-linejoin="mitter" stroke-opacity="1.0" stroke-width="3.0"/>
      <path d=" M 282.025, 506.692 283.233, 606.684 283.419, 622.077 290.243, 633.955 327.803, 651.335 334.930, 648.274 333.722, 548.282 333.507, 530.514 " fill="none" stroke="rgb(0, 0, 0)" stroke-linecap="butt" stroke-linejoin="mitter" stroke-opacity="1.0" stroke-width="3.0"/>
      <path d=" M 320.772, 425.525 320.772, 425.525 288.377, 439.437 " fill="none" stroke="rgb(0, 0, 0)" stroke-linecap="butt" stroke-linejoin="mitter" stroke-opacity="1.0" stroke-width="3.0"/>
      <path d=" M 454.192, 916.421 363.437, 874.427 309.907, 849.657 262.933, 869.829 263.039, 878.599 353.794, 920.593 407.324, 945.362 454.298, 925.190 454.192, 916.421 " fill="none" stroke="rgb(0, 0, 0)" stroke-linecap="butt" stroke-linejoin="mitter" stroke-opacity="1.0" stroke-width="3.0"/>
      <path d=" M 287.881, 839.465 197.126, 797.471 143.596, 772.702 103.749, 789.813 103.340, 795.982 103.446, 804.752 194.201, 846.746 241.014, 868.407 287.987, 848.235 287.881, 839.465 " fill="none" stroke="rgb(0, 0, 0)" stroke-linecap="butt" stroke-linejoin="mitter" stroke-opacity="1.0" stroke-width="3.0"/>
      <path d=" M 621.742, 903.682 654.137, 889.770 654.031, 881.000 563.276, 839.006 472.521, 797.012 381.766, 755.018 287.592, 711.442 255.197, 725.353 255.303, 734.123 346.058, 776.117 436.813, 818.111 527.568, 860.106 621.742, 903.682 " fill="none" stroke="rgb(0, 0, 0)" stroke-linecap="butt" stroke-linejoin="mitter" stroke-opacity="1.0" stroke-width="3.0"/>
      <path d=" M 201.279, 763.316 292.034, 805.310 382.789, 847.304 473.545, 889.298 554.282, 926.657 568.127, 926.705 593.396, 915.854 593.290, 907.085 502.535, 865.090 411.780, 823.096 321.025, 781.102 226.851, 737.526 201.582, 748.377 201.173, 754.546 201.279, 763.316 " fill="none" stroke="rgb(0, 0, 0)" stroke-linecap="butt" stroke-linejoin="mitter" stroke-opacity="1.0" stroke-width="3.0"/>
      <path d=" M 427.791, 946.409 426.154, 954.075 494.360, 1009.259 508.004, 1011.471 547.850, 994.360 549.487, 986.693 474.764, 926.237 427.791, 946.409 " fill="none" stroke="rgb(0, 0, 0)" stroke-linecap="butt" stroke-linejoin="mitter" stroke-opacity="1.0" stroke-width="3.0"/>
      <path d=" M 494.588, 605.049 585.343, 647.043 604.186, 655.762 " fill="none" stroke="rgb(0, 0, 0)" stroke-linecap="butt" stroke-linejoin="mitter" stroke-opacity="1.0" stroke-width="3.0"/>
      <path d=" M 333.507, 530.514 424.263, 572.508 443.106, 581.227 " fill="none" stroke="rgb(0, 0, 0)" stroke-linecap="butt" stroke-linejoin="mitter" stroke-opacity="1.0" stroke-width="3.0"/>
      <path d=" M 633.902, 474.268 724.657, 516.262 740.824, 523.743 " fill="none" stroke="rgb(0, 0, 0)" stroke-linecap="butt" stroke-linejoin="mitter" stroke-opacity="1.0" stroke-width="3.0"/>
    </g>
  </g>
  <g id="RenderLayer_InLine" inkscape:groupmode="lineset" inkscape:label="RenderLayer_InLine">
    <g id="strokes" inkscape:groupmode="layer" inkscape:label="strokes">
      <path d=" M 805.386, 544.336 805.392, 544.899 805.392, 544.899 814.468, 549.099 823.543, 553.298 832.619, 557.498 841.694, 561.697 849.670, 565.388 849.670, 565.388 858.859, 561.442 868.048, 557.496 869.854, 556.720 872.291, 555.674 874.939, 554.537 875.348, 548.367 875.348, 548.367 " fill="none" stroke="rgb(0, 0, 0)" stroke-linecap="butt" stroke-linejoin="mitter" stroke-opacity="1.0" stroke-width="1.2000000476837158"/>
      <path d=" M 849.670, 565.388 849.550, 555.388 849.429, 545.389 849.319, 536.324 849.198, 526.324 849.189, 525.525 849.189, 525.525 853.147, 523.826 862.336, 519.880 871.524, 515.934 874.457, 514.674 874.866, 508.505 " fill="none" stroke="rgb(0, 0, 0)" stroke-linecap="butt" stroke-linejoin="mitter" stroke-opacity="1.0" stroke-width="1.2000000476837158"/>
      <path d=" M 869.854, 556.720 874.939, 554.537 875.348, 548.367 " fill="none" stroke="rgb(0, 0, 0)" stroke-linecap="butt" stroke-linejoin="mitter" stroke-opacity="1.0" stroke-width="1.2000000476837158"/>
      <path d=" M 849.776, 574.157 849.670, 565.388 849.670, 565.388 840.595, 561.188 831.519, 556.989 822.444, 552.789 813.368, 548.590 805.392, 544.899 804.758, 544.606 " fill="none" stroke="rgb(0, 0, 0)" stroke-linecap="butt" stroke-linejoin="mitter" stroke-opacity="1.0" stroke-width="1.2000000476837158"/>
      <path d=" M 874.760, 499.736 874.351, 505.905 871.704, 507.042 862.515, 510.988 853.326, 514.933 844.138, 518.879 834.949, 522.825 827.272, 526.122 818.084, 530.068 808.895, 534.014 805.280, 535.566 796.091, 539.512 786.903, 543.458 785.102, 544.231 775.913, 548.177 775.383, 548.405 " fill="none" stroke="rgb(0, 0, 0)" stroke-linecap="butt" stroke-linejoin="mitter" stroke-opacity="1.0" stroke-width="1.2000000476837158"/>
      <path d=" M 731.105, 527.916 740.181, 532.116 749.256, 536.315 758.332, 540.515 767.407, 544.714 775.383, 548.405 775.489, 557.174 " fill="none" stroke="rgb(0, 0, 0)" stroke-linecap="butt" stroke-linejoin="mitter" stroke-opacity="1.0" stroke-width="1.2000000476837158"/>
      <path d=" M 794.983, 548.803 804.171, 544.857 804.758, 544.606 805.386, 544.336 814.574, 540.390 823.763, 536.444 827.378, 534.892 836.567, 530.946 837.153, 530.694 837.781, 530.424 846.970, 526.478 849.189, 525.525 853.147, 523.826 862.336, 519.880 871.524, 515.934 874.457, 514.674 874.866, 508.505 " fill="none" stroke="rgb(0, 0, 0)" stroke-linecap="butt" stroke-linejoin="mitter" stroke-opacity="1.0" stroke-width="1.2000000476837158"/>
      <path d=" M 435.670, 367.369 435.670, 367.369 444.746, 371.569 445.551, 371.941 454.627, 376.141 463.702, 380.340 472.778, 384.539 479.948, 387.857 483.153, 389.340 489.829, 392.430 490.464, 392.723 490.464, 392.723 499.540, 396.923 500.345, 397.295 509.420, 401.495 518.496, 405.694 527.431, 409.829 534.742, 413.212 543.818, 417.411 552.893, 421.610 561.969, 425.810 571.044, 430.009 580.120, 434.209 589.195, 438.408 596.751, 441.904 605.826, 446.104 606.632, 446.476 615.707, 450.676 624.783, 454.875 633.858, 459.075 641.029, 462.393 644.233, 463.875 650.910, 466.965 651.545, 467.258 660.620, 471.458 669.696, 475.657 678.771, 479.857 687.847, 484.056 688.512, 484.364 695.823, 487.747 704.898, 491.946 713.974, 496.146 723.049, 500.345 732.125, 504.544 741.200, 508.744 750.276, 512.943 757.831, 516.439 766.907, 520.639 767.712, 521.011 776.788, 525.211 785.863, 529.410 794.939, 533.610 802.109, 536.928 805.280, 535.566 814.468, 531.620 817.497, 530.320 826.686, 526.374 827.272, 526.122 834.505, 523.016 834.505, 523.015 834.505, 523.014 834.453, 518.707 834.399, 514.246 834.399, 514.246 825.323, 510.047 816.248, 505.847 809.883, 502.902 809.883, 502.902 800.807, 498.703 800.002, 498.330 790.926, 494.131 781.851, 489.931 772.775, 485.732 763.700, 481.532 754.624, 477.333 745.549, 473.134 736.473, 468.934 727.398, 464.735 720.801, 461.682 711.726, 457.483 702.650, 453.284 693.575, 449.084 693.080, 448.855 693.080, 448.855 684.005, 444.656 683.199, 444.283 676.523, 441.194 667.448, 436.995 658.372, 432.795 649.297, 428.596 648.802, 428.367 648.802, 428.367 639.727, 424.168 638.921, 423.795 629.846, 419.596 620.770, 415.396 611.695, 411.197 602.619, 406.997 593.544, 402.798 584.468, 398.599 575.393, 394.399 566.317, 390.200 559.721, 387.147 550.645, 382.948 541.570, 378.748 532.494, 374.549 532.000, 374.320 532.000, 374.320 522.924, 370.121 522.119, 369.748 513.043, 365.549 503.968, 361.349 494.892, 357.150 487.722, 353.832 487.721, 353.832 478.646, 349.633 477.841, 349.260 477.841, 349.260 468.765, 345.060 467.960, 344.688 467.960, 344.688 467.960, 344.688 " fill="none" stroke="rgb(0, 0, 0)" stroke-linecap="butt" stroke-linejoin="mitter" stroke-opacity="1.0" stroke-width="1.2000000476837158"/>
      <path d=" M 435.564, 358.600 444.640, 362.799 445.445, 363.172 454.521, 367.371 463.596, 371.570 472.672, 375.770 481.747, 379.969 483.047, 380.571 492.122, 384.770 499.604, 388.232 500.239, 388.526 509.314, 392.725 518.390, 396.924 527.465, 401.124 536.541, 405.323 544.517, 409.014 553.592, 413.213 562.668, 417.413 571.743, 421.612 580.819, 425.812 589.895, 430.011 598.970, 434.210 606.526, 437.707 615.601, 441.906 624.677, 446.105 633.752, 450.305 642.828, 454.504 644.128, 455.106 653.203, 459.305 660.685, 462.767 669.760, 466.966 678.836, 471.166 687.911, 475.365 696.987, 479.565 705.597, 483.549 714.673, 487.748 723.749, 491.948 732.824, 496.147 741.900, 500.347 750.975, 504.546 760.051, 508.746 767.606, 512.242 776.682, 516.441 785.757, 520.641 794.833, 524.840 802.003, 528.158 " fill="none" stroke="rgb(0, 0, 0)" stroke-linecap="butt" stroke-linejoin="mitter" stroke-opacity="1.0" stroke-width="1.2000000476837158"/>
      <path d=" M 802.109, 536.928 802.003, 528.158 805.174, 526.796 814.362, 522.851 817.391, 521.550 824.624, 518.444 833.813, 514.498 834.399, 514.246 " fill="none" stroke="rgb(0, 0, 0)" stroke-linecap="butt" stroke-linejoin="mitter" stroke-opacity="1.0" stroke-width="1.2000000476837158"/>
      <path d=" M 834.505, 523.016 834.505, 523.016 837.675, 521.655 839.308, 520.953 848.497, 517.008 857.685, 513.062 866.874, 509.116 871.703, 507.042 871.704, 507.042 874.351, 505.905 874.760, 499.736 874.760, 499.735 " fill="none" stroke="rgb(0, 0, 0)" stroke-linecap="butt" stroke-linejoin="mitter" stroke-opacity="1.0" stroke-width="1.2000000476837158"/>
      <path d=" M 638.921, 423.795 647.997, 427.994 648.802, 428.367 657.878, 432.566 666.953, 436.766 676.029, 440.965 685.104, 445.165 693.080, 448.855 702.156, 453.055 711.231, 457.254 720.307, 461.454 720.801, 461.682 729.877, 465.882 738.952, 470.081 748.028, 474.281 757.103, 478.480 766.179, 482.679 775.254, 486.879 784.330, 491.078 793.405, 495.278 800.002, 498.330 809.077, 502.529 809.883, 502.902 818.958, 507.102 828.034, 511.301 834.399, 514.246 834.399, 514.246 843.587, 510.300 852.776, 506.355 861.823, 502.470 871.011, 498.524 871.598, 498.272 874.245, 497.135 874.654, 490.966 " fill="none" stroke="rgb(0, 0, 0)" stroke-linecap="butt" stroke-linejoin="mitter" stroke-opacity="1.0" stroke-width="1.2000000476837158"/>
      <path d=" M 467.960, 344.688 467.960, 344.688 " fill="none" stroke="rgb(0, 0, 0)" stroke-linecap="butt" stroke-linejoin="mitter" stroke-opacity="1.0" stroke-width="1.2000000476837158"/>
      <path d=" M 834.505, 523.016 834.505, 523.016 " fill="none" stroke="rgb(0, 0, 0)" stroke-linecap="butt" stroke-linejoin="mitter" stroke-opacity="1.0" stroke-width="1.2000000476837158"/>
      <path d=" M 614.303, 473.870 614.409, 482.639 " fill="none" stroke="rgb(0, 0, 0)" stroke-linecap="butt" stroke-linejoin="mitter" stroke-opacity="1.0" stroke-width="1.2000000476837158"/>
      <path d=" M 641.029, 462.393 631.840, 466.338 624.021, 469.696 614.833, 473.642 614.303, 473.870 605.227, 469.670 596.152, 465.471 587.076, 461.271 578.000, 457.072 570.024, 453.381 " fill="none" stroke="rgb(0, 0, 0)" stroke-linecap="butt" stroke-linejoin="mitter" stroke-opacity="1.0" stroke-width="1.2000000476837158"/>
      <path d=" M 453.222, 399.335 453.328, 408.104 " fill="none" stroke="rgb(0, 0, 0)" stroke-linecap="butt" stroke-linejoin="mitter" stroke-opacity="1.0" stroke-width="1.2000000476837158"/>
      <path d=" M 479.948, 387.857 470.760, 391.803 461.571, 395.749 453.222, 399.335 444.146, 395.135 435.071, 390.936 425.995, 386.736 416.920, 382.537 408.944, 378.846 " fill="none" stroke="rgb(0, 0, 0)" stroke-linecap="butt" stroke-linejoin="mitter" stroke-opacity="1.0" stroke-width="1.2000000476837158"/>
      <path d=" M 644.305, 469.801 644.312, 470.364 644.312, 470.364 653.387, 474.564 662.463, 478.763 671.538, 482.963 680.614, 487.162 688.590, 490.853 688.590, 490.853 695.823, 487.747 " fill="none" stroke="rgb(0, 0, 0)" stroke-linecap="butt" stroke-linejoin="mitter" stroke-opacity="1.0" stroke-width="1.2000000476837158"/>
      <path d=" M 655.514, 666.796 655.393, 656.796 655.351, 653.260 655.230, 643.261 655.163, 637.731 655.163, 637.731 655.086, 631.337 654.965, 621.338 654.844, 611.339 654.816, 608.995 654.816, 608.995 645.740, 604.796 643.284, 603.660 634.209, 599.460 625.133, 595.261 616.058, 591.061 610.538, 588.507 610.538, 588.507 603.411, 591.568 603.411, 591.568 " fill="none" stroke="rgb(0, 0, 0)" stroke-linecap="butt" stroke-linejoin="mitter" stroke-opacity="1.0" stroke-width="1.2000000476837158"/>
      <path d=" M 603.411, 591.568 610.615, 594.901 619.690, 599.101 628.766, 603.300 637.841, 607.499 646.917, 611.699 647.689, 612.056 " fill="none" stroke="rgb(0, 0, 0)" stroke-linecap="butt" stroke-linejoin="mitter" stroke-opacity="1.0" stroke-width="1.2000000476837158"/>
      <path d=" M 643.246, 797.296 649.858, 791.635 649.737, 781.636 649.617, 771.637 649.496, 761.637 649.375, 751.638 649.254, 741.639 649.133, 731.640 649.013, 721.640 648.892, 711.641 648.771, 701.642 648.650, 691.643 648.529, 681.643 648.409, 671.644 648.387, 669.856 648.310, 663.462 648.189, 653.463 648.068, 643.463 647.959, 634.398 647.838, 624.399 647.717, 614.399 647.689, 612.056 647.689, 612.056 654.816, 608.995 " fill="none" stroke="rgb(0, 0, 0)" stroke-linecap="butt" stroke-linejoin="mitter" stroke-opacity="1.0" stroke-width="1.2000000476837158"/>
      <path d=" M 604.186, 655.762 611.391, 659.095 620.466, 663.295 629.542, 667.494 638.617, 671.694 641.260, 672.917 648.387, 669.856 648.387, 669.856 648.310, 663.462 648.189, 653.463 648.068, 643.463 647.959, 634.398 647.959, 634.398 647.881, 628.004 647.761, 618.004 647.689, 612.056 647.689, 612.056 643.362, 610.054 634.286, 605.854 625.211, 601.655 616.135, 597.455 610.615, 594.901 610.615, 594.901 603.411, 591.568 594.335, 587.368 585.260, 583.169 576.184, 578.969 567.109, 574.770 558.033, 570.571 548.958, 566.371 539.882, 562.172 530.807, 557.972 526.559, 556.007 517.484, 551.807 508.408, 547.608 499.333, 543.409 493.812, 540.854 493.812, 540.854 486.608, 537.521 " fill="none" stroke="rgb(0, 0, 0)" stroke-linecap="butt" stroke-linejoin="mitter" stroke-opacity="1.0" stroke-width="1.2000000476837158"/>
      <path d=" M 640.562, 615.117 631.486, 610.917 622.411, 606.718 613.335, 602.518 610.692, 601.295 603.488, 597.962 594.412, 593.762 585.337, 589.563 576.261, 585.363 567.186, 581.164 558.110, 576.965 549.035, 572.765 539.959, 568.566 530.884, 564.366 526.636, 562.401 517.561, 558.202 508.485, 554.002 499.410, 549.803 493.890, 547.249 484.814, 543.049 475.739, 538.850 466.663, 534.650 457.588, 530.451 449.612, 526.760 442.407, 523.427 433.332, 519.227 424.256, 515.028 415.181, 510.828 406.105, 506.629 397.030, 502.430 387.954, 498.230 378.879, 494.031 369.803, 489.831 365.556, 487.866 356.480, 483.667 347.405, 479.467 338.329, 475.268 332.809, 472.713 323.734, 468.514 321.278, 467.378 312.202, 463.178 303.127, 458.979 294.051, 454.779 288.531, 452.225 281.327, 448.892 274.123, 445.558 " fill="none" stroke="rgb(0, 0, 0)" stroke-linecap="butt" stroke-linejoin="mitter" stroke-opacity="1.0" stroke-width="1.2000000476837158"/>
      <path d=" M 641.260, 672.917 641.139, 662.917 641.105, 660.128 640.985, 650.129 640.864, 640.130 640.754, 631.064 640.634, 621.065 640.562, 615.117 647.689, 612.056 " fill="none" stroke="rgb(0, 0, 0)" stroke-linecap="butt" stroke-linejoin="mitter" stroke-opacity="1.0" stroke-width="1.2000000476837158"/>
      <path d=" M 282.101, 442.891 281.250, 442.498 281.250, 442.498 281.250, 442.498 " fill="none" stroke="rgb(0, 0, 0)" stroke-linecap="butt" stroke-linejoin="mitter" stroke-opacity="1.0" stroke-width="1.2000000476837158"/>
      <path d=" M 687.910, 652.884 687.832, 646.490 687.712, 636.491 687.591, 626.491 687.504, 619.328 687.383, 609.329 687.263, 599.330 687.211, 595.084 687.211, 595.084 678.136, 590.884 669.060, 586.685 659.985, 582.485 650.909, 578.286 642.933, 574.595 642.933, 574.595 633.745, 578.541 624.556, 582.487 615.367, 586.433 610.538, 588.507 610.538, 588.507 " fill="none" stroke="rgb(0, 0, 0)" stroke-linecap="butt" stroke-linejoin="mitter" stroke-opacity="1.0" stroke-width="1.2000000476837158"/>
      <path d=" M 654.816, 608.995 654.816, 608.995 645.740, 604.796 636.665, 600.597 627.589, 596.397 618.514, 592.198 610.538, 588.507 " fill="none" stroke="rgb(0, 0, 0)" stroke-linecap="butt" stroke-linejoin="mitter" stroke-opacity="1.0" stroke-width="1.2000000476837158"/>
      <path d=" M 655.514, 666.796 655.393, 656.796 655.351, 653.260 655.230, 643.261 655.163, 637.731 655.042, 627.732 654.921, 617.733 654.816, 608.995 664.004, 605.049 673.193, 601.104 682.382, 597.158 687.211, 595.084 " fill="none" stroke="rgb(0, 0, 0)" stroke-linecap="butt" stroke-linejoin="mitter" stroke-opacity="1.0" stroke-width="1.2000000476837158"/>
      <path d=" M 687.211, 595.084 687.211, 595.084 678.136, 590.884 669.060, 586.685 659.985, 582.485 650.909, 578.286 642.933, 574.595 633.858, 570.396 624.782, 566.197 615.707, 561.997 606.631, 557.798 597.556, 553.598 588.480, 549.399 579.405, 545.199 570.329, 541.000 561.254, 536.801 552.178, 532.601 543.103, 528.402 534.027, 524.202 526.131, 520.549 517.055, 516.349 507.980, 512.150 498.904, 507.950 489.829, 503.751 481.853, 500.060 472.777, 495.861 463.702, 491.661 454.626, 487.462 445.551, 483.263 436.475, 479.063 427.400, 474.864 418.324, 470.664 409.249, 466.465 400.173, 462.266 391.098, 458.066 382.022, 453.867 372.947, 449.667 363.871, 445.468 354.796, 441.269 345.720, 437.069 336.644, 432.870 327.569, 428.670 321.738, 425.972 320.772, 425.525 " fill="none" stroke="rgb(0, 0, 0)" stroke-linecap="butt" stroke-linejoin="mitter" stroke-opacity="1.0" stroke-width="1.2000000476837158"/>
      <path d=" M 694.338, 592.023 687.211, 595.084 687.332, 605.083 687.453, 615.082 687.504, 619.328 " fill="none" stroke="rgb(0, 0, 0)" stroke-linecap="butt" stroke-linejoin="mitter" stroke-opacity="1.0" stroke-width="1.2000000476837158"/>
      <path d=" M 526.559, 556.007 526.438, 546.008 526.318, 536.008 526.197, 526.009 526.131, 520.549 526.131, 520.549 517.055, 516.349 507.980, 512.150 498.904, 507.950 489.829, 503.751 481.853, 500.060 481.853, 500.060 472.664, 504.006 463.475, 507.952 454.287, 511.898 449.457, 513.972 " fill="none" stroke="rgb(0, 0, 0)" stroke-linecap="butt" stroke-linejoin="mitter" stroke-opacity="1.0" stroke-width="1.2000000476837158"/>
      <path d=" M 493.735, 534.460 493.735, 534.460 " fill="none" stroke="rgb(0, 0, 0)" stroke-linecap="butt" stroke-linejoin="mitter" stroke-opacity="1.0" stroke-width="1.2000000476837158"/>
      <path d=" M 526.131, 520.549 516.942, 524.495 507.754, 528.440 498.565, 532.386 493.735, 534.460 493.812, 540.854 " fill="none" stroke="rgb(0, 0, 0)" stroke-linecap="butt" stroke-linejoin="mitter" stroke-opacity="1.0" stroke-width="1.2000000476837158"/>
      <path d=" M 493.812, 540.854 493.735, 534.460 493.735, 534.460 484.660, 530.261 482.204, 529.124 473.128, 524.925 464.053, 520.726 454.977, 516.526 449.457, 513.972 449.457, 513.972 442.330, 517.033 442.330, 517.033 " fill="none" stroke="rgb(0, 0, 0)" stroke-linecap="butt" stroke-linejoin="mitter" stroke-opacity="1.0" stroke-width="1.2000000476837158"/>
      <path d=" M 442.330, 517.033 449.534, 520.366 458.610, 524.565 467.685, 528.765 476.761, 532.964 485.836, 537.164 486.608, 537.521 " fill="none" stroke="rgb(0, 0, 0)" stroke-linecap="butt" stroke-linejoin="mitter" stroke-opacity="1.0" stroke-width="1.2000000476837158"/>
      <path d=" M 486.608, 537.521 486.608, 537.521 493.735, 534.460 " fill="none" stroke="rgb(0, 0, 0)" stroke-linecap="butt" stroke-linejoin="mitter" stroke-opacity="1.0" stroke-width="1.2000000476837158"/>
      <path d=" M 281.250, 442.497 281.250, 442.498 282.101, 442.891 288.454, 445.831 297.529, 450.030 306.605, 454.230 315.680, 458.429 321.201, 460.984 325.528, 462.986 " fill="none" stroke="rgb(0, 0, 0)" stroke-linecap="butt" stroke-linejoin="mitter" stroke-opacity="1.0" stroke-width="1.2000000476837158"/>
      <path d=" M 325.528, 462.986 325.528, 462.986 332.655, 459.925 " fill="none" stroke="rgb(0, 0, 0)" stroke-linecap="butt" stroke-linejoin="mitter" stroke-opacity="1.0" stroke-width="1.2000000476837158"/>
      <path d=" M 332.732, 466.319 332.655, 459.925 332.655, 459.925 328.328, 457.923 321.123, 454.589 321.123, 454.589 312.048, 450.390 302.972, 446.191 293.897, 441.991 288.377, 439.437 " fill="none" stroke="rgb(0, 0, 0)" stroke-linecap="butt" stroke-linejoin="mitter" stroke-opacity="1.0" stroke-width="1.2000000476837158"/>
      <path d=" M 365.479, 481.472 365.358, 471.473 365.237, 461.473 365.116, 451.474 365.050, 446.014 355.975, 441.814 346.899, 437.615 337.824, 433.415 328.748, 429.216 327.977, 428.859 321.738, 425.972 320.772, 425.525 " fill="none" stroke="rgb(0, 0, 0)" stroke-linecap="butt" stroke-linejoin="mitter" stroke-opacity="1.0" stroke-width="1.2000000476837158"/>
      <path d=" M 332.655, 459.925 332.655, 459.925 " fill="none" stroke="rgb(0, 0, 0)" stroke-linecap="butt" stroke-linejoin="mitter" stroke-opacity="1.0" stroke-width="1.2000000476837158"/>
      <path d=" M 365.050, 446.014 355.862, 449.959 346.673, 453.905 337.484, 457.851 332.655, 459.925 332.732, 466.319 " fill="none" stroke="rgb(0, 0, 0)" stroke-linecap="butt" stroke-linejoin="mitter" stroke-opacity="1.0" stroke-width="1.2000000476837158"/>
      <path d=" M 454.192, 916.421 445.003, 920.367 435.815, 924.312 426.626, 928.258 417.438, 932.204 408.249, 936.150 407.219, 936.593 " fill="none" stroke="rgb(0, 0, 0)" stroke-linecap="butt" stroke-linejoin="mitter" stroke-opacity="1.0" stroke-width="1.2000000476837158"/>
      <path d=" M 262.933, 869.829 272.009, 874.028 281.084, 878.228 290.160, 882.427 299.235, 886.627 308.311, 890.826 317.386, 895.025 326.462, 899.225 335.537, 903.424 344.613, 907.624 353.688, 911.823 362.764, 916.022 371.839, 920.222 380.915, 924.421 389.990, 928.621 399.066, 932.820 407.219, 936.593 407.324, 945.362 " fill="none" stroke="rgb(0, 0, 0)" stroke-linecap="butt" stroke-linejoin="mitter" stroke-opacity="1.0" stroke-width="1.2000000476837158"/>
      <path d=" M 287.881, 839.465 278.693, 843.411 269.504, 847.357 260.316, 851.303 251.127, 855.249 241.938, 859.195 240.908, 859.637 " fill="none" stroke="rgb(0, 0, 0)" stroke-linecap="butt" stroke-linejoin="mitter" stroke-opacity="1.0" stroke-width="1.2000000476837158"/>
      <path d=" M 103.340, 795.982 112.416, 800.182 121.491, 804.381 130.567, 808.581 139.642, 812.780 148.718, 816.979 157.793, 821.179 166.869, 825.378 175.944, 829.578 185.020, 833.777 194.096, 837.976 203.171, 842.176 212.247, 846.375 221.322, 850.575 230.398, 854.774 239.473, 858.973 240.908, 859.637 241.014, 868.407 " fill="none" stroke="rgb(0, 0, 0)" stroke-linecap="butt" stroke-linejoin="mitter" stroke-opacity="1.0" stroke-width="1.2000000476837158"/>
      <path d=" M 255.197, 725.353 264.272, 729.553 273.348, 733.752 282.423, 737.952 291.499, 742.151 300.574, 746.351 309.650, 750.550 318.725, 754.749 327.801, 758.949 336.876, 763.148 345.952, 767.348 355.027, 771.547 364.103, 775.746 373.178, 779.946 382.254, 784.145 391.329, 788.345 400.405, 792.544 409.481, 796.743 418.556, 800.943 427.632, 805.142 436.707, 809.342 445.783, 813.541 454.858, 817.741 463.934, 821.940 473.009, 826.139 482.085, 830.339 491.160, 834.538 500.236, 838.738 509.311, 842.937 518.387, 847.136 527.462, 851.336 536.538, 855.535 545.613, 859.735 554.689, 863.934 563.764, 868.134 572.840, 872.333 581.915, 876.532 590.991, 880.732 600.066, 884.931 609.142, 889.131 621.636, 894.912 " fill="none" stroke="rgb(0, 0, 0)" stroke-linecap="butt" stroke-linejoin="mitter" stroke-opacity="1.0" stroke-width="1.2000000476837158"/>
      <path d=" M 621.742, 903.682 621.636, 894.912 630.824, 890.966 640.013, 887.020 649.202, 883.074 654.031, 881.000 " fill="none" stroke="rgb(0, 0, 0)" stroke-linecap="butt" stroke-linejoin="mitter" stroke-opacity="1.0" stroke-width="1.2000000476837158"/>
      <path d=" M 201.173, 754.546 210.249, 758.746 219.324, 762.945 228.400, 767.145 237.475, 771.344 246.551, 775.543 255.626, 779.743 264.702, 783.942 273.777, 788.142 282.853, 792.341 291.928, 796.540 301.004, 800.740 310.079, 804.939 319.155, 809.139 328.230, 813.338 337.306, 817.538 346.381, 821.737 355.457, 825.936 364.532, 830.136 373.608, 834.335 382.683, 838.535 391.759, 842.734 400.834, 846.933 409.910, 851.133 418.985, 855.332 428.061, 859.532 437.136, 863.731 446.212, 867.930 455.287, 872.130 464.363, 876.329 473.439, 880.529 482.514, 884.728 491.590, 888.928 500.665, 893.127 509.741, 897.326 518.816, 901.526 527.892, 905.725 536.967, 909.925 546.043, 914.124 554.176, 917.888 564.176, 917.922 568.021, 917.936 577.210, 913.990 586.398, 910.044 593.290, 907.085 " fill="none" stroke="rgb(0, 0, 0)" stroke-linecap="butt" stroke-linejoin="mitter" stroke-opacity="1.0" stroke-width="1.2000000476837158"/>
      <path d=" M 549.487, 986.693 540.298, 990.639 531.110, 994.585 521.921, 998.531 512.732, 1002.477 509.640, 1003.805 499.769, 1002.204 495.997, 1001.593 488.223, 995.303 480.448, 989.013 472.674, 982.723 464.900, 976.433 457.126, 970.143 449.352, 963.854 441.578, 957.564 433.804, 951.274 427.791, 946.409 " fill="none" stroke="rgb(0, 0, 0)" stroke-linecap="butt" stroke-linejoin="mitter" stroke-opacity="1.0" stroke-width="1.2000000476837158"/>
      <path d=" M 326.303, 527.180 326.424, 537.179 326.545, 547.179 326.666, 557.178 326.786, 567.177 326.907, 577.176 327.028, 587.176 327.149, 597.175 327.270, 607.174 327.390, 617.174 327.511, 627.173 327.632, 637.172 327.753, 647.171 327.803, 651.335 " fill="none" stroke="rgb(0, 0, 0)" stroke-linecap="butt" stroke-linejoin="mitter" stroke-opacity="1.0" stroke-width="1.2000000476837158"/>
      <path d=" M 487.384, 601.715 487.505, 611.714 487.625, 621.714 487.746, 631.713 487.867, 641.712 487.988, 651.712 488.109, 661.711 488.229, 671.710 488.350, 681.709 488.471, 691.709 488.592, 701.708 488.713, 711.707 488.833, 721.706 488.884, 725.870 " fill="none" stroke="rgb(0, 0, 0)" stroke-linecap="butt" stroke-linejoin="mitter" stroke-opacity="1.0" stroke-width="1.2000000476837158"/>
      <path d=" M 483.231, 395.829 492.307, 400.029 493.112, 400.401 502.188, 404.601 511.263, 408.800 520.339, 413.000 527.509, 416.318 " fill="none" stroke="rgb(0, 0, 0)" stroke-linecap="butt" stroke-linejoin="mitter" stroke-opacity="1.0" stroke-width="1.2000000476837158"/>
      <path d=" M 527.431, 409.829 527.509, 416.318 " fill="none" stroke="rgb(0, 0, 0)" stroke-linecap="butt" stroke-linejoin="mitter" stroke-opacity="1.0" stroke-width="1.2000000476837158"/>
      <path d=" M 483.225, 395.266 489.829, 392.430 " fill="none" stroke="rgb(0, 0, 0)" stroke-linecap="butt" stroke-linejoin="mitter" stroke-opacity="1.0" stroke-width="1.2000000476837158"/>
      <path d=" M 527.509, 416.318 534.742, 413.212 " fill="none" stroke="rgb(0, 0, 0)" stroke-linecap="butt" stroke-linejoin="mitter" stroke-opacity="1.0" stroke-width="1.2000000476837158"/>
      <path d=" M 443.106, 581.227 450.310, 584.560 459.385, 588.760 468.461, 592.959 477.536, 597.159 486.612, 601.358 487.384, 601.715 494.588, 605.049 " fill="none" stroke="rgb(0, 0, 0)" stroke-linecap="butt" stroke-linejoin="mitter" stroke-opacity="1.0" stroke-width="1.2000000476837158"/>
      <path d=" M 282.025, 506.692 289.229, 510.025 298.305, 514.225 307.380, 518.424 316.456, 522.624 325.531, 526.823 326.303, 527.180 333.507, 530.514 " fill="none" stroke="rgb(0, 0, 0)" stroke-linecap="butt" stroke-linejoin="mitter" stroke-opacity="1.0" stroke-width="1.2000000476837158"/>
      <path d=" M 449.534, 520.366 449.534, 520.366 442.330, 517.033 433.255, 512.833 424.179, 508.634 415.104, 504.434 406.028, 500.235 396.953, 496.035 387.877, 491.836 378.802, 487.637 369.726, 483.437 365.479, 481.472 356.403, 477.272 347.328, 473.073 338.252, 468.874 332.732, 466.319 332.732, 466.319 328.405, 464.317 325.528, 462.986 " fill="none" stroke="rgb(0, 0, 0)" stroke-linecap="butt" stroke-linejoin="mitter" stroke-opacity="1.0" stroke-width="1.2000000476837158"/>
      <path d=" M 596.751, 441.904 589.518, 445.010 580.330, 448.956 579.743, 449.208 " fill="none" stroke="rgb(0, 0, 0)" stroke-linecap="butt" stroke-linejoin="mitter" stroke-opacity="1.0" stroke-width="1.2000000476837158"/>
      <path d=" M 688.512, 484.364 688.590, 490.853 " fill="none" stroke="rgb(0, 0, 0)" stroke-linecap="butt" stroke-linejoin="mitter" stroke-opacity="1.0" stroke-width="1.2000000476837158"/>
      <path d=" M 633.902, 474.268 643.091, 470.322 643.677, 470.071 644.305, 469.801 650.910, 466.965 " fill="none" stroke="rgb(0, 0, 0)" stroke-linecap="butt" stroke-linejoin="mitter" stroke-opacity="1.0" stroke-width="1.2000000476837158"/>
      <path d=" M 757.831, 516.439 750.599, 519.545 741.410, 523.491 740.824, 523.743 " fill="none" stroke="rgb(0, 0, 0)" stroke-linecap="butt" stroke-linejoin="mitter" stroke-opacity="1.0" stroke-width="1.2000000476837158"/>
      <path d=" M 643.677, 470.071 644.312, 470.364 653.387, 474.564 662.463, 478.763 671.538, 482.963 680.614, 487.162 688.590, 490.853 697.665, 495.052 706.741, 499.251 715.816, 503.451 724.892, 507.650 733.968, 511.850 743.043, 516.049 750.599, 519.545 " fill="none" stroke="rgb(0, 0, 0)" stroke-linecap="butt" stroke-linejoin="mitter" stroke-opacity="1.0" stroke-width="1.2000000476837158"/>
      <path d=" M 527.509, 416.318 536.585, 420.517 545.660, 424.716 554.736, 428.916 563.811, 433.115 572.887, 437.315 581.962, 441.514 589.518, 445.010 " fill="none" stroke="rgb(0, 0, 0)" stroke-linecap="butt" stroke-linejoin="mitter" stroke-opacity="1.0" stroke-width="1.2000000476837158"/>
    </g>
  </g>
</svg>
