<?xml version="1.0" encoding="ascii"?>
<svg xmlns="http://www.w3.org/2000/svg" xmlns:inkscape="http://www.inkscape.org/namespaces/inkscape" height="1024" version="1.1" width="1024">
  <g id="RenderLayer_Contour" inkscape:groupmode="lineset" inkscape:label="RenderLayer_Contour">
    <g id="fills" inkscape:groupmode="layer" inkscape:label="fills">
      <path d=" M 281.307, 442.473 281.307, 442.473 z" fill="rgb(226, 226, 226)" fill-opacity="1.0" fill-rule="evenodd" stroke="none"/>
      <path d=" M 280.213, 293.443 633.216, 456.785 647.061, 456.833 672.329, 445.982 672.223, 437.212 305.784, 267.654 280.516, 278.505 280.107, 284.674 280.213, 293.443 z" fill="rgb(226, 226, 226)" fill-opacity="1.0" fill-rule="evenodd" stroke="none"/>
      <path d=" M 747.017, 554.592 747.017, 554.592 z" fill="rgb(226, 226, 226)" fill-opacity="1.0" fill-rule="evenodd" stroke="none"/>
      <path d=" M 656.985, 788.575 655.514, 666.796 687.910, 652.884 687.910, 652.884 695.037, 649.823 694.632, 616.335 710.270, 623.571 711.611, 734.569 755.889, 755.058 763.016, 751.997 760.741, 563.648 747.050, 557.313 747.017, 554.592 747.017, 554.592 746.911, 545.823 393.908, 382.481 380.064, 382.433 340.217, 399.545 340.217, 399.545 307.821, 413.456 307.927, 422.226 281.201, 433.703 281.307, 442.473 281.250, 442.497 281.250, 442.498 274.123, 445.558 274.821, 503.358 282.025, 506.692 283.419, 622.077 290.243, 633.955 327.803, 651.335 334.930, 648.274 333.507, 530.514 389.479, 556.413 389.724, 576.743 396.548, 588.621 434.108, 606.001 441.235, 602.941 440.961, 580.234 443.106, 581.227 444.606, 705.382 488.884, 725.870 496.011, 722.809 494.588, 605.049 604.186, 655.762 605.686, 779.917 643.246, 797.296 650.373, 794.236 656.985, 788.575 z M 655.514, 666.796 655.514, 666.796 z" fill="rgb(226, 226, 226)" fill-opacity="1.0" fill-rule="evenodd" stroke="none"/>
      <path d=" M 367.526, 785.519 399.921, 771.607 399.815, 762.838 288.189, 711.186 255.793, 725.097 255.899, 733.867 367.526, 785.519 z" fill="rgb(226, 226, 226)" fill-opacity="1.0" fill-rule="evenodd" stroke="none"/>
      <path d=" M 496.401, 845.152 528.797, 831.241 528.691, 822.471 417.064, 770.819 384.669, 784.731 384.775, 793.500 496.401, 845.152 z" fill="rgb(226, 226, 226)" fill-opacity="1.0" fill-rule="evenodd" stroke="none"/>
      <path d=" M 652.801, 965.618 685.196, 951.706 686.833, 944.040 547.969, 831.688 515.573, 845.600 513.937, 853.266 652.801, 965.618 z" fill="rgb(226, 226, 226)" fill-opacity="1.0" fill-rule="evenodd" stroke="none"/>
    </g>
    <g id="strokes" inkscape:groupmode="layer" inkscape:label="strokes">
      <path d=" M 652.801, 965.618 685.196, 951.706 686.833, 944.040 609.091, 881.141 547.969, 831.688 515.573, 845.600 513.937, 853.266 591.678, 916.165 652.801, 965.618 " fill="none" stroke="rgb(0, 0, 0)" stroke-linecap="butt" stroke-linejoin="mitter" stroke-opacity="1.0" stroke-width="3.0"/>
      <path d=" M 496.401, 845.152 528.797, 831.241 528.691, 822.471 437.936, 780.477 417.064, 770.819 384.669, 784.731 384.775, 793.500 475.530, 835.495 496.401, 845.152 " fill="none" stroke="rgb(0, 0, 0)" stroke-linecap="butt" stroke-linejoin="mitter" stroke-opacity="1.0" stroke-width="3.0"/>
      <path d=" M 367.526, 785.519 399.921, 771.607 399.815, 762.838 309.060, 720.843 288.189, 711.186 255.793, 725.097 255.899, 733.867 346.654, 775.861 367.526, 785.519 " fill="none" stroke="rgb(0, 0, 0)" stroke-linecap="butt" stroke-linejoin="mitter" stroke-opacity="1.0" stroke-width="3.0"/>
      <path d=" M 604.186, 655.762 605.394, 755.755 605.686, 779.917 643.246, 797.296 650.373, 794.236 656.985, 788.575 655.777, 688.582 655.514, 666.796 " fill="none" stroke="rgb(0, 0, 0)" stroke-linecap="butt" stroke-linejoin="mitter" stroke-opacity="1.0" stroke-width="3.0"/>
      <path d=" M 281.250, 442.498 274.123, 445.558 274.821, 503.358 282.025, 506.692 " fill="none" stroke="rgb(0, 0, 0)" stroke-linecap="butt" stroke-linejoin="mitter" stroke-opacity="1.0" stroke-width="3.0"/>
      <path d=" M 655.514, 666.796 655.514, 666.796 687.910, 652.884 687.910, 652.884 " fill="none" stroke="rgb(0, 0, 0)" stroke-linecap="butt" stroke-linejoin="mitter" stroke-opacity="1.0" stroke-width="3.0"/>
      <path d=" M 687.910, 652.884 695.037, 649.823 694.632, 616.335 " fill="none" stroke="rgb(0, 0, 0)" stroke-linecap="butt" stroke-linejoin="mitter" stroke-opacity="1.0" stroke-width="3.0"/>
      <path d=" M 443.106, 581.227 444.314, 681.220 444.606, 705.382 488.884, 725.870 496.011, 722.809 494.803, 622.817 494.588, 605.049 " fill="none" stroke="rgb(0, 0, 0)" stroke-linecap="butt" stroke-linejoin="mitter" stroke-opacity="1.0" stroke-width="3.0"/>
      <path d=" M 281.307, 442.473 281.250, 442.497 281.250, 442.498 " fill="none" stroke="rgb(0, 0, 0)" stroke-linecap="butt" stroke-linejoin="mitter" stroke-opacity="1.0" stroke-width="3.0"/>
      <path d=" M 282.025, 506.692 283.233, 606.684 283.419, 622.077 290.243, 633.955 327.803, 651.335 334.930, 648.274 333.722, 548.282 333.507, 530.514 " fill="none" stroke="rgb(0, 0, 0)" stroke-linecap="butt" stroke-linejoin="mitter" stroke-opacity="1.0" stroke-width="3.0"/>
      <path d=" M 747.050, 557.313 747.017, 554.592 747.017, 554.592 " fill="none" stroke="rgb(0, 0, 0)" stroke-linecap="butt" stroke-linejoin="mitter" stroke-opacity="1.0" stroke-width="3.0"/>
      <path d=" M 340.217, 399.545 307.821, 413.456 307.927, 422.226 " fill="none" stroke="rgb(0, 0, 0)" stroke-linecap="butt" stroke-linejoin="mitter" stroke-opacity="1.0" stroke-width="3.0"/>
      <path d=" M 747.017, 554.592 747.017, 554.592 746.911, 545.823 656.156, 503.829 565.401, 461.834 474.646, 419.840 393.908, 382.481 380.064, 382.433 340.217, 399.545 340.217, 399.545 " fill="none" stroke="rgb(0, 0, 0)" stroke-linecap="butt" stroke-linejoin="mitter" stroke-opacity="1.0" stroke-width="3.0"/>
      <path d=" M 307.927, 422.226 281.201, 433.703 281.307, 442.473 281.307, 442.473 " fill="none" stroke="rgb(0, 0, 0)" stroke-linecap="butt" stroke-linejoin="mitter" stroke-opacity="1.0" stroke-width="3.0"/>
      <path d=" M 710.270, 623.571 711.478, 723.564 711.611, 734.569 755.889, 755.058 763.016, 751.997 761.808, 652.004 760.741, 563.648 747.050, 557.313 " fill="none" stroke="rgb(0, 0, 0)" stroke-linecap="butt" stroke-linejoin="mitter" stroke-opacity="1.0" stroke-width="3.0"/>
      <path d=" M 389.479, 556.413 389.724, 576.743 396.548, 588.621 434.108, 606.001 441.235, 602.941 440.961, 580.234 " fill="none" stroke="rgb(0, 0, 0)" stroke-linecap="butt" stroke-linejoin="mitter" stroke-opacity="1.0" stroke-width="3.0"/>
      <path d=" M 280.213, 293.443 370.968, 335.438 461.723, 377.432 552.478, 419.426 633.216, 456.785 647.061, 456.833 672.329, 445.982 672.223, 437.212 581.468, 395.218 490.713, 353.224 399.958, 311.230 305.784, 267.654 280.516, 278.505 280.107, 284.674 280.213, 293.443 " fill="none" stroke="rgb(0, 0, 0)" stroke-linecap="butt" stroke-linejoin="mitter" stroke-opacity="1.0" stroke-width="3.0"/>
      <path d=" M 494.588, 605.049 585.343, 647.043 604.186, 655.762 " fill="none" stroke="rgb(0, 0, 0)" stroke-linecap="butt" stroke-linejoin="mitter" stroke-opacity="1.0" stroke-width="3.0"/>
      <path d=" M 440.961, 580.234 443.106, 581.227 " fill="none" stroke="rgb(0, 0, 0)" stroke-linecap="butt" stroke-linejoin="mitter" stroke-opacity="1.0" stroke-width="3.0"/>
      <path d=" M 333.507, 530.514 389.479, 556.413 " fill="none" stroke="rgb(0, 0, 0)" stroke-linecap="butt" stroke-linejoin="mitter" stroke-opacity="1.0" stroke-width="3.0"/>
      <path d=" M 694.632, 616.335 710.270, 623.571 " fill="none" stroke="rgb(0, 0, 0)" stroke-linecap="butt" stroke-linejoin="mitter" stroke-opacity="1.0" stroke-width="3.0"/>
    </g>
  </g>
  <g id="RenderLayer_InLine" inkscape:groupmode="lineset" inkscape:label="RenderLayer_InLine">
    <g id="strokes" inkscape:groupmode="layer" inkscape:label="strokes">
      <path d=" M 515.573, 845.600 523.347, 851.890 531.121, 858.180 538.895, 864.469 546.670, 870.759 554.444, 877.049 562.218, 883.339 569.992, 889.629 577.766, 895.919 585.540, 902.209 593.314, 908.499 601.089, 914.789 608.863, 921.078 616.637, 927.368 624.411, 933.658 632.185, 939.948 639.959, 946.238 647.733, 952.528 654.437, 957.952 " fill="none" stroke="rgb(0, 0, 0)" stroke-linecap="butt" stroke-linejoin="mitter" stroke-opacity="1.0" stroke-width="1.2000000476837158"/>
      <path d=" M 652.801, 965.618 654.437, 957.952 663.626, 954.006 672.814, 950.060 682.003, 946.114 686.833, 944.040 " fill="none" stroke="rgb(0, 0, 0)" stroke-linecap="butt" stroke-linejoin="mitter" stroke-opacity="1.0" stroke-width="1.2000000476837158"/>
      <path d=" M 384.669, 784.731 393.744, 788.930 402.820, 793.130 411.895, 797.329 420.971, 801.528 430.046, 805.728 439.122, 809.927 448.197, 814.127 457.273, 818.326 466.348, 822.525 475.424, 826.725 484.499, 830.924 493.575, 835.124 496.296, 836.383 " fill="none" stroke="rgb(0, 0, 0)" stroke-linecap="butt" stroke-linejoin="mitter" stroke-opacity="1.0" stroke-width="1.2000000476837158"/>
      <path d=" M 496.401, 845.152 496.296, 836.383 505.484, 832.437 514.673, 828.491 523.861, 824.545 528.691, 822.471 " fill="none" stroke="rgb(0, 0, 0)" stroke-linecap="butt" stroke-linejoin="mitter" stroke-opacity="1.0" stroke-width="1.2000000476837158"/>
      <path d=" M 255.793, 725.097 264.868, 729.297 273.944, 733.496 283.019, 737.696 292.095, 741.895 301.170, 746.094 310.246, 750.294 319.321, 754.493 328.397, 758.693 337.473, 762.892 346.548, 767.091 355.624, 771.291 364.699, 775.490 367.420, 776.749 " fill="none" stroke="rgb(0, 0, 0)" stroke-linecap="butt" stroke-linejoin="mitter" stroke-opacity="1.0" stroke-width="1.2000000476837158"/>
      <path d=" M 367.526, 785.519 367.420, 776.749 376.608, 772.803 385.797, 768.857 394.985, 764.912 399.815, 762.838 " fill="none" stroke="rgb(0, 0, 0)" stroke-linecap="butt" stroke-linejoin="mitter" stroke-opacity="1.0" stroke-width="1.2000000476837158"/>
      <path d=" M 603.468, 591.543 603.411, 591.568 603.411, 591.568 " fill="none" stroke="rgb(0, 0, 0)" stroke-linecap="butt" stroke-linejoin="mitter" stroke-opacity="1.0" stroke-width="1.2000000476837158"/>
      <path d=" M 603.411, 591.568 610.615, 594.901 619.690, 599.101 628.766, 603.300 637.842, 607.499 646.917, 611.699 647.689, 612.056 " fill="none" stroke="rgb(0, 0, 0)" stroke-linecap="butt" stroke-linejoin="mitter" stroke-opacity="1.0" stroke-width="1.2000000476837158"/>
      <path d=" M 643.246, 797.296 649.858, 791.635 649.737, 781.636 649.617, 771.637 649.496, 761.637 649.375, 751.638 649.254, 741.639 649.133, 731.640 649.013, 721.640 648.892, 711.641 648.771, 701.642 648.650, 691.643 648.529, 681.643 648.409, 671.644 648.387, 669.856 648.310, 663.462 648.189, 653.463 648.068, 643.463 647.959, 634.398 647.838, 624.399 647.717, 614.399 647.689, 612.056 647.689, 612.056 648.611, 611.660 654.816, 608.995 654.816, 608.995 654.816, 608.995 654.937, 618.995 655.057, 628.994 655.086, 631.337 655.163, 637.731 655.163, 637.731 655.284, 647.731 655.405, 657.730 655.420, 659.026 655.514, 666.796 " fill="none" stroke="rgb(0, 0, 0)" stroke-linecap="butt" stroke-linejoin="mitter" stroke-opacity="1.0" stroke-width="1.2000000476837158"/>
      <path d=" M 604.186, 655.762 611.391, 659.095 620.466, 663.295 629.542, 667.494 638.617, 671.694 641.260, 672.917 648.387, 669.856 648.387, 669.856 648.310, 663.462 648.189, 653.463 648.068, 643.463 647.959, 634.398 647.959, 634.398 647.881, 628.004 647.761, 618.004 647.689, 612.056 647.689, 612.056 643.362, 610.054 634.286, 605.854 625.211, 601.655 616.135, 597.455 610.615, 594.901 610.615, 594.901 603.411, 591.568 594.335, 587.368 585.260, 583.169 576.184, 578.969 567.109, 574.770 558.033, 570.571 548.958, 566.371 539.882, 562.172 530.807, 557.972 526.559, 556.007 517.484, 551.807 508.408, 547.608 499.333, 543.409 493.812, 540.854 493.812, 540.854 486.608, 537.521 482.281, 535.519 473.206, 531.319 464.130, 527.120 455.055, 522.920 449.534, 520.366 449.534, 520.366 442.330, 517.033 440.185, 516.040 432.981, 512.707 423.906, 508.507 414.830, 504.308 405.755, 500.108 396.679, 495.909 395.907, 495.552 388.703, 492.218 379.628, 488.019 370.552, 483.819 365.479, 481.472 356.403, 477.272 347.328, 473.073 338.252, 468.874 332.732, 466.319 332.732, 466.319 328.405, 464.317 325.528, 462.986 321.201, 460.984 321.201, 460.984 312.125, 456.784 303.049, 452.585 293.974, 448.385 288.454, 445.831 288.454, 445.831 281.250, 442.498 281.250, 442.498 " fill="none" stroke="rgb(0, 0, 0)" stroke-linecap="butt" stroke-linejoin="mitter" stroke-opacity="1.0" stroke-width="1.2000000476837158"/>
      <path d=" M 640.562, 615.117 631.486, 610.917 622.411, 606.718 613.335, 602.518 610.692, 601.295 603.488, 597.962 594.412, 593.762 585.337, 589.563 576.261, 585.363 567.186, 581.164 558.110, 576.965 549.035, 572.765 539.959, 568.566 530.884, 564.366 526.636, 562.401 517.561, 558.202 508.485, 554.002 499.410, 549.803 493.890, 547.249 484.814, 543.049 475.739, 538.850 466.663, 534.650 457.588, 530.451 449.612, 526.760 442.407, 523.427 440.263, 522.434 431.187, 518.235 422.112, 514.035 413.036, 509.836 403.961, 505.637 394.885, 501.437 388.780, 498.612 379.705, 494.413 370.629, 490.214 365.556, 487.866 356.480, 483.667 347.405, 479.467 338.329, 475.268 332.809, 472.713 323.734, 468.514 321.278, 467.378 312.202, 463.178 303.127, 458.979 294.051, 454.779 288.531, 452.225 281.327, 448.892 274.123, 445.558 " fill="none" stroke="rgb(0, 0, 0)" stroke-linecap="butt" stroke-linejoin="mitter" stroke-opacity="1.0" stroke-width="1.2000000476837158"/>
      <path d=" M 641.260, 672.917 641.139, 662.917 641.105, 660.128 640.985, 650.129 640.864, 640.130 640.754, 631.064 640.634, 621.065 640.562, 615.117 647.689, 612.056 " fill="none" stroke="rgb(0, 0, 0)" stroke-linecap="butt" stroke-linejoin="mitter" stroke-opacity="1.0" stroke-width="1.2000000476837158"/>
      <path d=" M 687.910, 652.884 687.832, 646.490 687.712, 636.491 687.591, 626.491 687.470, 616.492 687.430, 613.207 687.428, 613.002 687.322, 604.232 687.322, 604.232 687.218, 595.647 687.211, 595.084 687.211, 595.084 687.211, 595.084 " fill="none" stroke="rgb(0, 0, 0)" stroke-linecap="butt" stroke-linejoin="mitter" stroke-opacity="1.0" stroke-width="1.2000000476837158"/>
      <path d=" M 654.816, 608.995 654.816, 608.995 " fill="none" stroke="rgb(0, 0, 0)" stroke-linecap="butt" stroke-linejoin="mitter" stroke-opacity="1.0" stroke-width="1.2000000476837158"/>
      <path d=" M 655.514, 666.796 655.420, 659.026 655.299, 649.027 655.179, 639.028 655.163, 637.731 655.042, 627.732 654.921, 617.733 654.816, 608.995 664.004, 605.049 667.240, 603.660 676.428, 599.714 677.643, 599.193 686.831, 595.247 687.211, 595.084 " fill="none" stroke="rgb(0, 0, 0)" stroke-linecap="butt" stroke-linejoin="mitter" stroke-opacity="1.0" stroke-width="1.2000000476837158"/>
      <path d=" M 694.632, 616.335 694.526, 607.565 694.526, 607.565 694.405, 597.566 694.345, 592.587 694.338, 592.023 694.338, 592.023 " fill="none" stroke="rgb(0, 0, 0)" stroke-linecap="butt" stroke-linejoin="mitter" stroke-opacity="1.0" stroke-width="1.2000000476837158"/>
      <path d=" M 687.211, 595.084 687.211, 595.084 " fill="none" stroke="rgb(0, 0, 0)" stroke-linecap="butt" stroke-linejoin="mitter" stroke-opacity="1.0" stroke-width="1.2000000476837158"/>
      <path d=" M 694.338, 592.023 687.211, 595.084 687.322, 604.232 687.428, 613.002 687.430, 613.207 " fill="none" stroke="rgb(0, 0, 0)" stroke-linecap="butt" stroke-linejoin="mitter" stroke-opacity="1.0" stroke-width="1.2000000476837158"/>
      <path d=" M 493.735, 534.460 493.735, 534.460 493.735, 534.460 " fill="none" stroke="rgb(0, 0, 0)" stroke-linecap="butt" stroke-linejoin="mitter" stroke-opacity="1.0" stroke-width="1.2000000476837158"/>
      <path d=" M 442.387, 517.008 442.330, 517.033 442.330, 517.033 " fill="none" stroke="rgb(0, 0, 0)" stroke-linecap="butt" stroke-linejoin="mitter" stroke-opacity="1.0" stroke-width="1.2000000476837158"/>
      <path d=" M 442.330, 517.033 449.534, 520.366 458.610, 524.565 467.685, 528.765 476.761, 532.964 485.836, 537.164 486.608, 537.521 " fill="none" stroke="rgb(0, 0, 0)" stroke-linecap="butt" stroke-linejoin="mitter" stroke-opacity="1.0" stroke-width="1.2000000476837158"/>
      <path d=" M 486.608, 537.521 486.608, 537.521 486.665, 537.496 493.735, 534.460 493.735, 534.460 493.735, 534.460 " fill="none" stroke="rgb(0, 0, 0)" stroke-linecap="butt" stroke-linejoin="mitter" stroke-opacity="1.0" stroke-width="1.2000000476837158"/>
      <path d=" M 281.250, 442.497 288.454, 445.831 297.529, 450.030 306.605, 454.230 315.680, 458.429 321.201, 460.984 325.528, 462.986 " fill="none" stroke="rgb(0, 0, 0)" stroke-linecap="butt" stroke-linejoin="mitter" stroke-opacity="1.0" stroke-width="1.2000000476837158"/>
      <path d=" M 325.528, 462.986 325.528, 462.986 325.585, 462.961 332.655, 459.925 332.655, 459.925 332.655, 459.925 332.732, 466.319 " fill="none" stroke="rgb(0, 0, 0)" stroke-linecap="butt" stroke-linejoin="mitter" stroke-opacity="1.0" stroke-width="1.2000000476837158"/>
      <path d=" M 694.526, 607.565 703.602, 611.765 710.164, 614.802 717.369, 618.135 721.927, 620.244 721.927, 620.245 731.116, 616.299 740.305, 612.353 741.182, 611.976 744.548, 610.531 747.196, 609.393 747.605, 603.224 " fill="none" stroke="rgb(0, 0, 0)" stroke-linecap="butt" stroke-linejoin="mitter" stroke-opacity="1.0" stroke-width="1.2000000476837158"/>
      <path d=" M 746.714, 569.531 747.123, 563.362 " fill="none" stroke="rgb(0, 0, 0)" stroke-linecap="butt" stroke-linejoin="mitter" stroke-opacity="1.0" stroke-width="1.2000000476837158"/>
      <path d=" M 721.927, 620.245 721.807, 610.245 721.686, 600.246 721.576, 591.180 721.456, 581.181 721.446, 580.382 " fill="none" stroke="rgb(0, 0, 0)" stroke-linecap="butt" stroke-linejoin="mitter" stroke-opacity="1.0" stroke-width="1.2000000476837158"/>
      <path d=" M 710.270, 623.571 717.475, 626.905 722.033, 629.014 731.222, 625.068 740.411, 621.122 747.302, 618.163 747.711, 611.994 " fill="none" stroke="rgb(0, 0, 0)" stroke-linecap="butt" stroke-linejoin="mitter" stroke-opacity="1.0" stroke-width="1.2000000476837158"/>
      <path d=" M 721.927, 620.244 721.927, 620.244 " fill="none" stroke="rgb(0, 0, 0)" stroke-linecap="butt" stroke-linejoin="mitter" stroke-opacity="1.0" stroke-width="1.2000000476837158"/>
      <path d=" M 741.182, 611.976 747.196, 609.393 747.605, 603.224 " fill="none" stroke="rgb(0, 0, 0)" stroke-linecap="butt" stroke-linejoin="mitter" stroke-opacity="1.0" stroke-width="1.2000000476837158"/>
      <path d=" M 722.033, 629.014 721.927, 620.244 712.852, 616.045 710.164, 614.802 701.089, 610.602 694.526, 607.565 " fill="none" stroke="rgb(0, 0, 0)" stroke-linecap="butt" stroke-linejoin="mitter" stroke-opacity="1.0" stroke-width="1.2000000476837158"/>
      <path d=" M 630.088, 571.296 622.856, 574.402 613.667, 578.348 613.081, 578.600 603.892, 582.546 603.362, 582.773 603.468, 591.543 603.468, 591.543 610.614, 594.850 610.614, 594.850 619.690, 599.049 628.765, 603.249 637.841, 607.448 643.361, 610.002 647.746, 612.031 648.611, 611.660 654.816, 608.995 654.816, 608.995 664.004, 605.049 667.240, 603.660 676.428, 599.714 677.015, 599.462 677.643, 599.193 686.831, 595.247 687.211, 595.084 687.211, 595.084 694.338, 592.023 699.635, 589.748 708.824, 585.803 709.410, 585.551 709.809, 585.380 710.038, 585.281 716.936, 582.319 721.446, 580.382 730.634, 576.436 739.823, 572.491 746.714, 569.531 747.101, 563.695 747.123, 563.363 747.123, 563.362 747.050, 557.313 " fill="none" stroke="rgb(0, 0, 0)" stroke-linecap="butt" stroke-linejoin="mitter" stroke-opacity="1.0" stroke-width="1.2000000476837158"/>
      <path d=" M 747.017, 554.592 746.843, 557.217 746.608, 560.762 743.961, 561.899 734.772, 565.844 725.583, 569.790 716.395, 573.736 709.703, 576.610 700.514, 580.556 699.529, 580.979 690.341, 584.925 684.457, 587.451 677.537, 590.423 677.330, 590.512 668.142, 594.457 658.953, 598.403 657.359, 599.088 648.170, 603.034 647.640, 603.262 " fill="none" stroke="rgb(0, 0, 0)" stroke-linecap="butt" stroke-linejoin="mitter" stroke-opacity="1.0" stroke-width="1.2000000476837158"/>
      <path d=" M 603.362, 582.773 612.438, 586.973 613.243, 587.345 622.318, 591.545 631.394, 595.744 640.469, 599.944 647.640, 603.262 647.669, 605.689 647.746, 612.031 " fill="none" stroke="rgb(0, 0, 0)" stroke-linecap="butt" stroke-linejoin="mitter" stroke-opacity="1.0" stroke-width="1.2000000476837158"/>
      <path d=" M 307.927, 422.226 307.927, 422.226 317.003, 426.426 317.808, 426.798 317.808, 426.798 320.804, 428.185 320.804, 428.185 328.009, 431.518 337.084, 435.718 346.160, 439.917 352.205, 442.714 355.410, 444.197 362.086, 447.286 362.086, 447.286 362.722, 447.581 362.723, 447.581 365.082, 448.673 372.602, 452.152 381.677, 456.352 388.307, 459.419 395.511, 462.753 399.688, 464.685 406.999, 468.068 416.075, 472.268 425.150, 476.467 432.585, 479.907 439.789, 483.241 448.865, 487.440 457.940, 491.640 467.016, 495.839 469.008, 496.761 478.083, 500.961 478.889, 501.333 478.889, 501.333 481.885, 502.720 490.960, 506.919 500.036, 511.118 509.111, 515.318 513.286, 517.249 516.490, 518.732 523.167, 521.821 523.167, 521.821 523.802, 522.115 526.163, 523.208 535.238, 527.407 544.314, 531.607 553.389, 535.806 560.768, 539.221 568.080, 542.604 577.155, 546.803 586.231, 551.002 595.306, 555.202 604.382, 559.401 613.457, 563.601 622.533, 567.800 630.088, 571.296 639.164, 575.496 639.969, 575.868 639.969, 575.868 642.965, 577.255 652.041, 581.454 661.116, 585.653 670.192, 589.853 674.366, 591.784 677.330, 590.512 677.330, 590.512 677.537, 590.423 684.457, 587.451 689.754, 585.176 698.943, 581.231 699.529, 580.979 706.762, 577.873 706.710, 573.564 706.656, 569.103 706.656, 569.103 697.580, 564.904 688.505, 560.704 682.140, 557.759 682.140, 557.759 673.064, 553.560 672.259, 553.187 663.183, 548.987 654.108, 544.788 645.032, 540.589 635.957, 536.389 626.881, 532.190 617.806, 527.990 611.449, 525.049 602.373, 520.849 593.298, 516.650 593.058, 516.539 583.983, 512.340 574.907, 508.140 565.832, 503.941 565.337, 503.712 565.337, 503.712 556.262, 499.513 555.456, 499.140 548.780, 496.051 539.705, 491.852 530.629, 487.652 521.554, 483.453 521.059, 483.224 521.059, 483.224 511.984, 479.024 511.178, 478.652 502.103, 474.452 493.027, 470.253 483.952, 466.054 474.876, 461.854 465.801, 457.655 456.725, 453.455 447.650, 449.256 439.332, 445.407 432.128, 442.074 431.978, 442.004 422.902, 437.805 413.827, 433.605 404.751, 429.406 404.257, 429.177 404.257, 429.177 395.181, 424.978 395.054, 424.919 394.376, 424.605 387.850, 421.585 378.774, 417.386 369.699, 413.187 360.623, 408.987 359.979, 408.689 359.979, 408.689 350.903, 404.489 350.098, 404.117 350.098, 404.117 341.022, 399.917 340.217, 399.545 340.217, 399.545 " fill="none" stroke="rgb(0, 0, 0)" stroke-linecap="butt" stroke-linejoin="mitter" stroke-opacity="1.0" stroke-width="1.2000000476837158"/>
      <path d=" M 307.821, 413.456 316.897, 417.656 317.702, 418.028 326.778, 422.228 327.583, 422.601 336.659, 426.800 345.734, 430.999 354.810, 435.199 355.304, 435.427 364.379, 439.627 371.861, 443.089 372.496, 443.383 381.571, 447.582 388.201, 450.649 397.276, 454.849 406.352, 459.048 415.427, 463.248 416.774, 463.871 425.849, 468.070 434.925, 472.270 439.683, 474.471 448.759, 478.671 457.834, 482.870 466.910, 487.070 475.985, 491.269 478.783, 492.563 487.858, 496.763 496.934, 500.962 506.009, 505.162 515.085, 509.361 516.385, 509.963 525.460, 514.162 532.942, 517.624 542.017, 521.823 551.093, 526.023 560.168, 530.222 569.244, 534.421 577.854, 538.406 586.930, 542.605 596.006, 546.805 605.081, 551.004 614.157, 555.204 623.232, 559.403 632.308, 563.602 639.863, 567.099 648.939, 571.298 658.014, 575.497 667.090, 579.697 674.260, 583.015 " fill="none" stroke="rgb(0, 0, 0)" stroke-linecap="butt" stroke-linejoin="mitter" stroke-opacity="1.0" stroke-width="1.2000000476837158"/>
      <path d=" M 674.366, 591.784 674.334, 589.125 674.260, 583.015 674.576, 582.879 677.431, 581.653 686.619, 577.707 689.648, 576.407 696.881, 573.301 706.070, 569.355 706.656, 569.103 " fill="none" stroke="rgb(0, 0, 0)" stroke-linecap="butt" stroke-linejoin="mitter" stroke-opacity="1.0" stroke-width="1.2000000476837158"/>
      <path d=" M 706.762, 577.873 709.703, 576.610 709.932, 576.511 711.565, 575.810 716.830, 573.549 726.019, 569.603 735.207, 565.658 743.576, 562.064 743.961, 561.899 743.961, 561.899 746.608, 560.761 746.843, 557.217 747.017, 554.592 " fill="none" stroke="rgb(0, 0, 0)" stroke-linecap="butt" stroke-linejoin="mitter" stroke-opacity="1.0" stroke-width="1.2000000476837158"/>
      <path d=" M 340.217, 399.545 349.292, 403.744 350.098, 404.117 359.173, 408.316 359.979, 408.689 369.054, 412.888 378.130, 417.088 387.205, 421.287 387.850, 421.585 396.925, 425.785 404.257, 429.177 413.332, 433.377 422.408, 437.576 431.483, 441.775 431.978, 442.004 439.332, 445.407 448.408, 449.607 457.483, 453.806 466.559, 458.005 475.634, 462.205 484.710, 466.404 493.785, 470.604 502.861, 474.803 511.178, 478.652 520.254, 482.851 521.059, 483.224 530.135, 487.423 539.210, 491.623 548.286, 495.822 557.361, 500.022 565.337, 503.712 574.413, 507.912 583.488, 512.111 592.564, 516.310 593.058, 516.539 602.134, 520.739 611.209, 524.938 611.449, 525.049 620.524, 529.248 629.600, 533.448 638.675, 537.647 647.751, 541.846 656.826, 546.046 665.902, 550.245 672.259, 553.187 681.334, 557.386 682.140, 557.759 691.215, 561.958 700.291, 566.158 706.656, 569.103 706.656, 569.103 709.597, 567.840 718.786, 563.894 727.974, 559.948 734.080, 557.327 740.822, 554.431 743.855, 553.129 746.503, 551.992 746.911, 545.823 " fill="none" stroke="rgb(0, 0, 0)" stroke-linecap="butt" stroke-linejoin="mitter" stroke-opacity="1.0" stroke-width="1.2000000476837158"/>
      <path d=" M 469.008, 496.761 461.775, 499.867 452.587, 503.813 452.000, 504.065 442.812, 508.011 442.281, 508.238 442.387, 517.008 442.387, 517.008 449.534, 520.315 449.534, 520.315 458.609, 524.514 467.685, 528.713 476.760, 532.913 482.280, 535.467 486.665, 537.496 486.666, 537.496 493.735, 534.460 493.735, 534.460 502.924, 530.514 506.159, 529.125 515.348, 525.179 515.934, 524.927 516.562, 524.658 523.167, 521.821 " fill="none" stroke="rgb(0, 0, 0)" stroke-linecap="butt" stroke-linejoin="mitter" stroke-opacity="1.0" stroke-width="1.2000000476837158"/>
      <path d=" M 486.560, 528.727 486.589, 531.154 486.666, 537.496 " fill="none" stroke="rgb(0, 0, 0)" stroke-linecap="butt" stroke-linejoin="mitter" stroke-opacity="1.0" stroke-width="1.2000000476837158"/>
      <path d=" M 513.286, 517.249 504.097, 521.195 496.278, 524.553 487.090, 528.499 486.560, 528.727 477.484, 524.527 468.409, 520.328 459.333, 516.128 452.162, 512.810 443.087, 508.611 442.281, 508.238 " fill="none" stroke="rgb(0, 0, 0)" stroke-linecap="butt" stroke-linejoin="mitter" stroke-opacity="1.0" stroke-width="1.2000000476837158"/>
      <path d=" M 325.479, 454.191 325.508, 456.618 325.585, 462.961 328.374, 461.763 332.655, 459.925 " fill="none" stroke="rgb(0, 0, 0)" stroke-linecap="butt" stroke-linejoin="mitter" stroke-opacity="1.0" stroke-width="1.2000000476837158"/>
      <path d=" M 281.307, 442.473 288.453, 445.780 288.453, 445.780 297.529, 449.979 306.604, 454.178 315.680, 458.378 321.200, 460.932 " fill="none" stroke="rgb(0, 0, 0)" stroke-linecap="butt" stroke-linejoin="mitter" stroke-opacity="1.0" stroke-width="1.2000000476837158"/>
      <path d=" M 352.205, 442.714 343.017, 446.660 333.828, 450.606 325.479, 454.191 321.094, 452.162 312.019, 447.963 302.943, 443.764 293.868, 439.564 291.082, 438.275 282.006, 434.076 281.201, 433.703 " fill="none" stroke="rgb(0, 0, 0)" stroke-linecap="butt" stroke-linejoin="mitter" stroke-opacity="1.0" stroke-width="1.2000000476837158"/>
      <path d=" M 753.614, 566.708 753.735, 576.708 753.856, 586.707 753.976, 596.706 754.097, 606.706 754.218, 616.705 754.339, 626.704 754.460, 636.703 754.580, 646.703 754.701, 656.702 754.822, 666.701 754.943, 676.700 755.064, 686.700 755.184, 696.699 755.305, 706.698 755.426, 716.698 755.547, 726.697 755.668, 736.696 755.788, 746.695 755.889, 755.058 " fill="none" stroke="rgb(0, 0, 0)" stroke-linecap="butt" stroke-linejoin="mitter" stroke-opacity="1.0" stroke-width="1.2000000476837158"/>
      <path d=" M 760.741, 563.648 753.614, 566.708 747.128, 563.707 " fill="none" stroke="rgb(0, 0, 0)" stroke-linecap="butt" stroke-linejoin="mitter" stroke-opacity="1.0" stroke-width="1.2000000476837158"/>
      <path d=" M 280.107, 284.674 289.182, 288.873 298.258, 293.073 307.333, 297.272 316.409, 301.471 325.484, 305.671 334.560, 309.870 343.635, 314.070 352.711, 318.269 361.786, 322.468 370.862, 326.668 379.937, 330.867 389.013, 335.067 398.088, 339.266 407.164, 343.465 416.239, 347.665 425.315, 351.864 434.390, 356.064 443.466, 360.263 452.541, 364.463 461.617, 368.662 470.692, 372.861 479.768, 377.061 488.843, 381.260 497.919, 385.460 506.994, 389.659 516.070, 393.858 525.145, 398.058 534.221, 402.257 543.296, 406.457 552.372, 410.656 561.447, 414.856 570.523, 419.055 579.598, 423.254 588.674, 427.454 597.750, 431.653 606.825, 435.853 615.901, 440.052 624.976, 444.251 633.110, 448.015 643.110, 448.050 646.955, 448.063 656.143, 444.117 665.332, 440.171 672.223, 437.212 " fill="none" stroke="rgb(0, 0, 0)" stroke-linecap="butt" stroke-linejoin="mitter" stroke-opacity="1.0" stroke-width="1.2000000476837158"/>
      <path d=" M 326.303, 527.180 326.424, 537.179 326.545, 547.179 326.666, 557.178 326.786, 567.177 326.907, 577.176 327.028, 587.176 327.149, 597.175 327.270, 607.174 327.390, 617.174 327.511, 627.173 327.632, 637.172 327.753, 647.171 327.803, 651.335 " fill="none" stroke="rgb(0, 0, 0)" stroke-linecap="butt" stroke-linejoin="mitter" stroke-opacity="1.0" stroke-width="1.2000000476837158"/>
      <path d=" M 332.732, 466.319 332.656, 459.925 332.657, 459.924 341.845, 455.979 351.034, 452.033 355.482, 450.123 362.086, 447.286 " fill="none" stroke="rgb(0, 0, 0)" stroke-linecap="butt" stroke-linejoin="mitter" stroke-opacity="1.0" stroke-width="1.2000000476837158"/>
      <path d=" M 365.479, 481.472 365.358, 471.473 365.267, 463.931 " fill="none" stroke="rgb(0, 0, 0)" stroke-linecap="butt" stroke-linejoin="mitter" stroke-opacity="1.0" stroke-width="1.2000000476837158"/>
      <path d=" M 332.655, 459.925 341.843, 455.979 351.032, 452.033 355.482, 450.123 362.086, 447.286 " fill="none" stroke="rgb(0, 0, 0)" stroke-linecap="butt" stroke-linejoin="mitter" stroke-opacity="1.0" stroke-width="1.2000000476837158"/>
      <path d=" M 433.757, 576.901 433.877, 586.900 433.998, 596.899 434.108, 606.001 " fill="none" stroke="rgb(0, 0, 0)" stroke-linecap="butt" stroke-linejoin="mitter" stroke-opacity="1.0" stroke-width="1.2000000476837158"/>
      <path d=" M 487.384, 601.715 487.505, 611.714 487.625, 621.714 487.746, 631.713 487.867, 641.712 487.988, 651.712 488.109, 661.711 488.229, 671.710 488.350, 681.709 488.471, 691.709 488.592, 701.708 488.713, 711.707 488.833, 721.706 488.884, 725.870 " fill="none" stroke="rgb(0, 0, 0)" stroke-linecap="butt" stroke-linejoin="mitter" stroke-opacity="1.0" stroke-width="1.2000000476837158"/>
      <path d=" M 493.812, 540.854 493.735, 534.460 502.924, 530.514 506.159, 529.125 515.348, 525.179 516.562, 524.658 523.167, 521.821 " fill="none" stroke="rgb(0, 0, 0)" stroke-linecap="butt" stroke-linejoin="mitter" stroke-opacity="1.0" stroke-width="1.2000000476837158"/>
      <path d=" M 526.559, 556.007 526.438, 546.008 526.347, 538.466 526.241, 529.697 526.241, 529.697 526.163, 523.208 " fill="none" stroke="rgb(0, 0, 0)" stroke-linecap="butt" stroke-linejoin="mitter" stroke-opacity="1.0" stroke-width="1.2000000476837158"/>
      <path d=" M 443.106, 581.227 450.310, 584.560 459.385, 588.760 468.461, 592.959 477.536, 597.159 486.612, 601.358 487.384, 601.715 494.588, 605.049 " fill="none" stroke="rgb(0, 0, 0)" stroke-linecap="butt" stroke-linejoin="mitter" stroke-opacity="1.0" stroke-width="1.2000000476837158"/>
      <path d=" M 389.479, 556.413 396.683, 559.746 405.758, 563.946 414.834, 568.145 423.909, 572.344 432.985, 576.544 433.757, 576.901 440.961, 580.234 " fill="none" stroke="rgb(0, 0, 0)" stroke-linecap="butt" stroke-linejoin="mitter" stroke-opacity="1.0" stroke-width="1.2000000476837158"/>
      <path d=" M 282.025, 506.692 289.229, 510.025 298.305, 514.225 307.380, 518.424 316.456, 522.624 325.531, 526.823 326.303, 527.180 333.507, 530.514 " fill="none" stroke="rgb(0, 0, 0)" stroke-linecap="butt" stroke-linejoin="mitter" stroke-opacity="1.0" stroke-width="1.2000000476837158"/>
      <path d=" M 747.128, 563.707 747.123, 563.363 " fill="none" stroke="rgb(0, 0, 0)" stroke-linecap="butt" stroke-linejoin="mitter" stroke-opacity="1.0" stroke-width="1.2000000476837158"/>
    </g>
  </g>
</svg>
