<?xml version="1.0" encoding="ascii"?>
<svg xmlns="http://www.w3.org/2000/svg" xmlns:inkscape="http://www.inkscape.org/namespaces/inkscape" height="1024" version="1.1" width="1024">
  <g id="RenderLayer_Contour" inkscape:groupmode="lineset" inkscape:label="RenderLayer_Contour">
    <g id="fills" inkscape:groupmode="layer" inkscape:label="fills">
      <path d=" M 281.307, 442.473 281.307, 442.473 z" fill="rgb(226, 226, 226)" fill-opacity="1.0" fill-rule="evenodd" stroke="none"/>
      <path d=" M 201.279, 763.316 554.282, 926.657 568.127, 926.705 593.396, 915.854 593.290, 907.085 226.851, 737.526 201.582, 748.377 201.173, 754.546 201.279, 763.316 z" fill="rgb(226, 226, 226)" fill-opacity="1.0" fill-rule="evenodd" stroke="none"/>
      <path d=" M 621.742, 903.682 654.137, 889.770 654.031, 881.000 287.592, 711.442 255.197, 725.353 255.303, 734.123 621.742, 903.682 z" fill="rgb(226, 226, 226)" fill-opacity="1.0" fill-rule="evenodd" stroke="none"/>
      <path d=" M 858.423, 711.027 865.550, 707.966 863.274, 519.617 818.996, 499.129 811.869, 502.189 814.145, 690.538 858.423, 711.027 z" fill="rgb(226, 226, 226)" fill-opacity="1.0" fill-rule="evenodd" stroke="none"/>
      <path d=" M 747.017, 554.592 747.017, 554.592 z" fill="rgb(226, 226, 226)" fill-opacity="1.0" fill-rule="evenodd" stroke="none"/>
      <path d=" M 656.985, 788.575 655.514, 666.796 687.910, 652.884 687.910, 652.884 695.037, 649.823 694.632, 616.335 722.033, 629.014 747.302, 618.163 747.711, 611.994 747.605, 603.224 747.605, 603.224 747.605, 603.224 747.123, 563.363 747.123, 563.362 747.017, 554.592 747.017, 554.592 746.911, 545.823 540.662, 450.387 539.707, 371.328 495.429, 350.839 488.302, 353.900 489.180, 426.565 393.908, 382.481 380.064, 382.433 340.217, 399.545 340.217, 399.545 307.821, 413.456 307.927, 422.226 281.201, 433.703 281.307, 442.473 281.250, 442.497 281.250, 442.498 274.123, 445.558 274.821, 503.358 282.025, 506.692 283.419, 622.077 290.243, 633.955 327.803, 651.335 334.930, 648.274 333.507, 530.514 443.106, 581.227 444.606, 705.382 488.884, 725.870 496.011, 722.809 494.588, 605.049 604.186, 655.762 605.686, 779.917 643.246, 797.296 650.373, 794.236 656.985, 788.575 z M 655.514, 666.796 655.514, 666.796 z" fill="rgb(226, 226, 226)" fill-opacity="1.0" fill-rule="evenodd" stroke="none"/>
    </g>
    <g id="strokes" inkscape:groupmode="layer" inkscape:label="strokes">
      <path d=" M 604.186, 655.762 605.394, 755.755 605.686, 779.917 643.246, 797.296 650.373, 794.236 656.985, 788.575 655.777, 688.582 655.514, 666.796 " fill="none" stroke="rgb(0, 0, 0)" stroke-linecap="butt" stroke-linejoin="mitter" stroke-opacity="1.0" stroke-width="3.0"/>
      <path d=" M 281.250, 442.498 274.123, 445.558 274.821, 503.358 282.025, 506.692 " fill="none" stroke="rgb(0, 0, 0)" stroke-linecap="butt" stroke-linejoin="mitter" stroke-opacity="1.0" stroke-width="3.0"/>
      <path d=" M 655.514, 666.796 655.514, 666.796 687.910, 652.884 687.910, 652.884 " fill="none" stroke="rgb(0, 0, 0)" stroke-linecap="butt" stroke-linejoin="mitter" stroke-opacity="1.0" stroke-width="3.0"/>
      <path d=" M 687.910, 652.884 695.037, 649.823 694.632, 616.335 " fill="none" stroke="rgb(0, 0, 0)" stroke-linecap="butt" stroke-linejoin="mitter" stroke-opacity="1.0" stroke-width="3.0"/>
      <path d=" M 443.106, 581.227 444.314, 681.220 444.606, 705.382 488.884, 725.870 496.011, 722.809 494.803, 622.817 494.588, 605.049 " fill="none" stroke="rgb(0, 0, 0)" stroke-linecap="butt" stroke-linejoin="mitter" stroke-opacity="1.0" stroke-width="3.0"/>
      <path d=" M 281.307, 442.473 281.250, 442.497 281.250, 442.498 " fill="none" stroke="rgb(0, 0, 0)" stroke-linecap="butt" stroke-linejoin="mitter" stroke-opacity="1.0" stroke-width="3.0"/>
      <path d=" M 282.025, 506.692 283.233, 606.684 283.419, 622.077 290.243, 633.955 327.803, 651.335 334.930, 648.274 333.722, 548.282 333.507, 530.514 " fill="none" stroke="rgb(0, 0, 0)" stroke-linecap="butt" stroke-linejoin="mitter" stroke-opacity="1.0" stroke-width="3.0"/>
      <path d=" M 747.605, 603.224 747.605, 603.224 747.123, 563.363 " fill="none" stroke="rgb(0, 0, 0)" stroke-linecap="butt" stroke-linejoin="mitter" stroke-opacity="1.0" stroke-width="3.0"/>
      <path d=" M 694.632, 616.335 722.033, 629.014 747.302, 618.163 747.711, 611.994 747.605, 603.224 747.605, 603.224 " fill="none" stroke="rgb(0, 0, 0)" stroke-linecap="butt" stroke-linejoin="mitter" stroke-opacity="1.0" stroke-width="3.0"/>
      <path d=" M 747.123, 563.363 747.123, 563.362 747.017, 554.592 747.017, 554.592 " fill="none" stroke="rgb(0, 0, 0)" stroke-linecap="butt" stroke-linejoin="mitter" stroke-opacity="1.0" stroke-width="3.0"/>
      <path d=" M 340.217, 399.545 307.821, 413.456 307.927, 422.226 " fill="none" stroke="rgb(0, 0, 0)" stroke-linecap="butt" stroke-linejoin="mitter" stroke-opacity="1.0" stroke-width="3.0"/>
      <path d=" M 489.180, 426.565 398.424, 384.571 393.908, 382.481 380.064, 382.433 340.217, 399.545 340.217, 399.545 " fill="none" stroke="rgb(0, 0, 0)" stroke-linecap="butt" stroke-linejoin="mitter" stroke-opacity="1.0" stroke-width="3.0"/>
      <path d=" M 747.017, 554.592 747.017, 554.592 746.911, 545.823 656.156, 503.829 565.401, 461.834 540.662, 450.387 " fill="none" stroke="rgb(0, 0, 0)" stroke-linecap="butt" stroke-linejoin="mitter" stroke-opacity="1.0" stroke-width="3.0"/>
      <path d=" M 307.927, 422.226 281.201, 433.703 281.307, 442.473 281.307, 442.473 " fill="none" stroke="rgb(0, 0, 0)" stroke-linecap="butt" stroke-linejoin="mitter" stroke-opacity="1.0" stroke-width="3.0"/>
      <path d=" M 858.423, 711.027 865.550, 707.966 864.342, 607.973 863.274, 519.617 818.996, 499.129 811.869, 502.189 813.077, 602.182 814.145, 690.538 858.423, 711.027 " fill="none" stroke="rgb(0, 0, 0)" stroke-linecap="butt" stroke-linejoin="mitter" stroke-opacity="1.0" stroke-width="3.0"/>
      <path d=" M 540.662, 450.387 539.707, 371.328 495.429, 350.839 488.302, 353.900 489.180, 426.565 " fill="none" stroke="rgb(0, 0, 0)" stroke-linecap="butt" stroke-linejoin="mitter" stroke-opacity="1.0" stroke-width="3.0"/>
      <path d=" M 621.742, 903.682 654.137, 889.770 654.031, 881.000 563.276, 839.006 472.521, 797.012 381.766, 755.018 287.592, 711.442 255.197, 725.353 255.303, 734.123 346.058, 776.117 436.813, 818.111 527.568, 860.106 621.742, 903.682 " fill="none" stroke="rgb(0, 0, 0)" stroke-linecap="butt" stroke-linejoin="mitter" stroke-opacity="1.0" stroke-width="3.0"/>
      <path d=" M 201.279, 763.316 292.034, 805.310 382.789, 847.304 473.545, 889.298 554.282, 926.657 568.127, 926.705 593.396, 915.854 593.290, 907.085 502.535, 865.090 411.780, 823.096 321.025, 781.102 226.851, 737.526 201.582, 748.377 201.173, 754.546 201.279, 763.316 " fill="none" stroke="rgb(0, 0, 0)" stroke-linecap="butt" stroke-linejoin="mitter" stroke-opacity="1.0" stroke-width="3.0"/>
      <path d=" M 494.588, 605.049 585.343, 647.043 604.186, 655.762 " fill="none" stroke="rgb(0, 0, 0)" stroke-linecap="butt" stroke-linejoin="mitter" stroke-opacity="1.0" stroke-width="3.0"/>
      <path d=" M 333.507, 530.514 424.263, 572.508 443.106, 581.227 " fill="none" stroke="rgb(0, 0, 0)" stroke-linecap="butt" stroke-linejoin="mitter" stroke-opacity="1.0" stroke-width="3.0"/>
    </g>
  </g>
  <g id="RenderLayer_InLine" inkscape:groupmode="lineset" inkscape:label="RenderLayer_InLine">
    <g id="strokes" inkscape:groupmode="layer" inkscape:label="strokes">
      <path d=" M 603.468, 591.543 603.411, 591.568 603.411, 591.568 " fill="none" stroke="rgb(0, 0, 0)" stroke-linecap="butt" stroke-linejoin="mitter" stroke-opacity="1.0" stroke-width="1.2000000476837158"/>
      <path d=" M 603.411, 591.568 610.615, 594.901 619.690, 599.101 628.766, 603.300 637.842, 607.499 646.917, 611.699 647.689, 612.056 " fill="none" stroke="rgb(0, 0, 0)" stroke-linecap="butt" stroke-linejoin="mitter" stroke-opacity="1.0" stroke-width="1.2000000476837158"/>
      <path d=" M 643.246, 797.296 649.858, 791.635 649.737, 781.636 649.617, 771.637 649.496, 761.637 649.375, 751.638 649.254, 741.639 649.133, 731.640 649.013, 721.640 648.892, 711.641 648.771, 701.642 648.650, 691.643 648.529, 681.643 648.409, 671.644 648.387, 669.856 648.310, 663.462 648.189, 653.463 648.068, 643.463 647.959, 634.398 647.838, 624.399 647.717, 614.399 647.689, 612.056 647.689, 612.056 648.611, 611.660 654.816, 608.995 654.816, 608.995 654.816, 608.995 654.937, 618.995 655.057, 628.994 655.086, 631.337 655.163, 637.731 655.163, 637.731 655.284, 647.731 655.405, 657.730 655.420, 659.026 655.514, 666.796 " fill="none" stroke="rgb(0, 0, 0)" stroke-linecap="butt" stroke-linejoin="mitter" stroke-opacity="1.0" stroke-width="1.2000000476837158"/>
      <path d=" M 604.186, 655.762 611.391, 659.095 620.466, 663.295 629.542, 667.494 638.617, 671.694 641.260, 672.917 648.387, 669.856 648.387, 669.856 648.310, 663.462 648.189, 653.463 648.068, 643.463 647.959, 634.398 647.959, 634.398 647.881, 628.004 647.761, 618.004 647.689, 612.056 647.689, 612.056 643.362, 610.054 634.286, 605.854 625.211, 601.655 616.135, 597.455 610.615, 594.901 610.615, 594.901 603.411, 591.568 594.335, 587.368 585.260, 583.169 576.184, 578.969 567.109, 574.770 558.033, 570.571 548.958, 566.371 539.882, 562.172 538.096, 561.345 534.820, 559.829 526.559, 556.007 517.484, 551.807 508.408, 547.608 499.333, 543.409 495.032, 541.419 493.812, 540.854 493.812, 540.854 486.608, 537.521 482.281, 535.519 473.206, 531.319 464.130, 527.120 455.055, 522.920 449.534, 520.366 449.534, 520.366 442.330, 517.033 433.255, 512.833 424.179, 508.634 415.104, 504.434 406.028, 500.235 396.953, 496.035 387.877, 491.836 378.802, 487.637 369.726, 483.437 365.479, 481.472 356.403, 477.272 347.328, 473.073 338.252, 468.874 332.732, 466.319 332.732, 466.319 328.405, 464.317 325.528, 462.986 321.201, 460.984 321.201, 460.984 312.125, 456.784 303.049, 452.585 293.974, 448.385 288.454, 445.831 288.454, 445.831 281.250, 442.498 281.250, 442.498 " fill="none" stroke="rgb(0, 0, 0)" stroke-linecap="butt" stroke-linejoin="mitter" stroke-opacity="1.0" stroke-width="1.2000000476837158"/>
      <path d=" M 640.562, 615.117 631.486, 610.917 622.411, 606.718 613.335, 602.518 610.692, 601.295 603.488, 597.962 594.412, 593.762 585.337, 589.563 576.261, 585.363 567.186, 581.164 558.110, 576.965 549.035, 572.765 539.959, 568.566 530.884, 564.366 526.636, 562.401 517.561, 558.202 508.485, 554.002 499.410, 549.803 493.890, 547.249 484.814, 543.049 475.739, 538.850 466.663, 534.650 457.588, 530.451 449.612, 526.760 442.407, 523.427 433.332, 519.227 424.256, 515.028 415.181, 510.828 406.105, 506.629 397.030, 502.430 387.954, 498.230 378.879, 494.031 369.803, 489.831 365.556, 487.866 356.480, 483.667 347.405, 479.467 338.329, 475.268 332.809, 472.713 323.734, 468.514 321.278, 467.378 312.202, 463.178 303.127, 458.979 294.051, 454.779 288.531, 452.225 281.327, 448.892 274.123, 445.558 " fill="none" stroke="rgb(0, 0, 0)" stroke-linecap="butt" stroke-linejoin="mitter" stroke-opacity="1.0" stroke-width="1.2000000476837158"/>
      <path d=" M 641.260, 672.917 641.139, 662.917 641.105, 660.128 640.985, 650.129 640.864, 640.130 640.754, 631.064 640.634, 621.065 640.562, 615.117 647.689, 612.056 " fill="none" stroke="rgb(0, 0, 0)" stroke-linecap="butt" stroke-linejoin="mitter" stroke-opacity="1.0" stroke-width="1.2000000476837158"/>
      <path d=" M 687.910, 652.884 687.832, 646.490 687.712, 636.491 687.591, 626.491 687.470, 616.492 687.430, 613.207 687.428, 613.002 687.322, 604.232 687.322, 604.232 687.218, 595.647 687.211, 595.084 687.211, 595.084 687.211, 595.084 " fill="none" stroke="rgb(0, 0, 0)" stroke-linecap="butt" stroke-linejoin="mitter" stroke-opacity="1.0" stroke-width="1.2000000476837158"/>
      <path d=" M 654.816, 608.995 654.816, 608.995 " fill="none" stroke="rgb(0, 0, 0)" stroke-linecap="butt" stroke-linejoin="mitter" stroke-opacity="1.0" stroke-width="1.2000000476837158"/>
      <path d=" M 655.514, 666.796 655.420, 659.026 655.299, 649.027 655.179, 639.028 655.163, 637.731 655.042, 627.732 654.921, 617.733 654.816, 608.995 664.004, 605.049 667.240, 603.660 676.428, 599.714 677.643, 599.193 686.831, 595.247 687.211, 595.084 " fill="none" stroke="rgb(0, 0, 0)" stroke-linecap="butt" stroke-linejoin="mitter" stroke-opacity="1.0" stroke-width="1.2000000476837158"/>
      <path d=" M 694.632, 616.335 694.526, 607.565 694.526, 607.565 694.405, 597.566 694.345, 592.587 694.338, 592.023 694.338, 592.023 " fill="none" stroke="rgb(0, 0, 0)" stroke-linecap="butt" stroke-linejoin="mitter" stroke-opacity="1.0" stroke-width="1.2000000476837158"/>
      <path d=" M 687.211, 595.084 687.211, 595.084 " fill="none" stroke="rgb(0, 0, 0)" stroke-linecap="butt" stroke-linejoin="mitter" stroke-opacity="1.0" stroke-width="1.2000000476837158"/>
      <path d=" M 694.338, 592.023 687.211, 595.084 687.322, 604.232 687.428, 613.002 687.430, 613.207 " fill="none" stroke="rgb(0, 0, 0)" stroke-linecap="butt" stroke-linejoin="mitter" stroke-opacity="1.0" stroke-width="1.2000000476837158"/>
      <path d=" M 493.735, 534.460 493.735, 534.460 493.735, 534.460 " fill="none" stroke="rgb(0, 0, 0)" stroke-linecap="butt" stroke-linejoin="mitter" stroke-opacity="1.0" stroke-width="1.2000000476837158"/>
      <path d=" M 442.387, 517.008 442.330, 517.033 442.330, 517.033 " fill="none" stroke="rgb(0, 0, 0)" stroke-linecap="butt" stroke-linejoin="mitter" stroke-opacity="1.0" stroke-width="1.2000000476837158"/>
      <path d=" M 442.330, 517.033 449.534, 520.366 458.610, 524.565 467.685, 528.765 476.761, 532.964 485.836, 537.164 486.608, 537.521 " fill="none" stroke="rgb(0, 0, 0)" stroke-linecap="butt" stroke-linejoin="mitter" stroke-opacity="1.0" stroke-width="1.2000000476837158"/>
      <path d=" M 486.608, 537.521 486.608, 537.521 486.665, 537.496 491.569, 535.390 493.735, 534.460 493.735, 534.460 493.735, 534.460 " fill="none" stroke="rgb(0, 0, 0)" stroke-linecap="butt" stroke-linejoin="mitter" stroke-opacity="1.0" stroke-width="1.2000000476837158"/>
      <path d=" M 281.250, 442.497 288.454, 445.831 297.529, 450.030 306.605, 454.230 315.680, 458.429 321.201, 460.984 325.528, 462.986 " fill="none" stroke="rgb(0, 0, 0)" stroke-linecap="butt" stroke-linejoin="mitter" stroke-opacity="1.0" stroke-width="1.2000000476837158"/>
      <path d=" M 325.528, 462.986 325.528, 462.986 325.585, 462.961 332.655, 459.925 332.655, 459.925 332.655, 459.925 332.732, 466.319 " fill="none" stroke="rgb(0, 0, 0)" stroke-linecap="butt" stroke-linejoin="mitter" stroke-opacity="1.0" stroke-width="1.2000000476837158"/>
      <path d=" M 694.526, 607.565 703.602, 611.765 712.677, 615.964 721.927, 620.244 721.927, 620.245 731.116, 616.299 740.305, 612.353 743.286, 611.073 744.548, 610.531 747.196, 609.393 747.605, 603.224 " fill="none" stroke="rgb(0, 0, 0)" stroke-linecap="butt" stroke-linejoin="mitter" stroke-opacity="1.0" stroke-width="1.2000000476837158"/>
      <path d=" M 736.855, 573.765 746.043, 569.819 746.714, 569.531 746.721, 569.428 747.123, 563.362 " fill="none" stroke="rgb(0, 0, 0)" stroke-linecap="butt" stroke-linejoin="mitter" stroke-opacity="1.0" stroke-width="1.2000000476837158"/>
      <path d=" M 721.927, 620.245 721.807, 610.245 721.686, 600.246 721.576, 591.180 721.456, 581.181 721.446, 580.382 " fill="none" stroke="rgb(0, 0, 0)" stroke-linecap="butt" stroke-linejoin="mitter" stroke-opacity="1.0" stroke-width="1.2000000476837158"/>
      <path d=" M 721.927, 620.244 721.927, 620.244 " fill="none" stroke="rgb(0, 0, 0)" stroke-linecap="butt" stroke-linejoin="mitter" stroke-opacity="1.0" stroke-width="1.2000000476837158"/>
      <path d=" M 743.286, 611.073 747.196, 609.393 747.605, 603.224 " fill="none" stroke="rgb(0, 0, 0)" stroke-linecap="butt" stroke-linejoin="mitter" stroke-opacity="1.0" stroke-width="1.2000000476837158"/>
      <path d=" M 722.033, 629.014 721.927, 620.244 712.852, 616.045 703.776, 611.846 694.526, 607.565 " fill="none" stroke="rgb(0, 0, 0)" stroke-linecap="butt" stroke-linejoin="mitter" stroke-opacity="1.0" stroke-width="1.2000000476837158"/>
      <path d=" M 630.088, 571.296 622.856, 574.402 613.667, 578.348 613.081, 578.600 603.892, 582.546 603.362, 582.773 603.468, 591.543 603.468, 591.543 610.614, 594.850 610.614, 594.850 619.690, 599.049 628.765, 603.249 637.841, 607.448 643.361, 610.002 647.746, 612.031 648.611, 611.660 654.816, 608.995 654.816, 608.995 664.004, 605.049 667.240, 603.660 676.428, 599.714 677.015, 599.462 677.643, 599.193 686.831, 595.247 687.211, 595.084 687.211, 595.084 694.338, 592.023 699.635, 589.748 708.824, 585.803 709.410, 585.551 710.038, 585.281 719.227, 581.335 721.446, 580.382 730.634, 576.436 736.855, 573.765 746.043, 569.819 746.714, 569.531 746.721, 569.428 747.123, 563.363 " fill="none" stroke="rgb(0, 0, 0)" stroke-linecap="butt" stroke-linejoin="mitter" stroke-opacity="1.0" stroke-width="1.2000000476837158"/>
      <path d=" M 747.017, 554.592 746.608, 560.762 743.961, 561.899 734.772, 565.844 725.583, 569.790 716.395, 573.736 707.206, 577.682 699.529, 580.979 690.341, 584.925 684.457, 587.451 677.537, 590.423 677.330, 590.512 668.142, 594.457 658.953, 598.403 657.359, 599.088 648.170, 603.034 647.640, 603.262 " fill="none" stroke="rgb(0, 0, 0)" stroke-linecap="butt" stroke-linejoin="mitter" stroke-opacity="1.0" stroke-width="1.2000000476837158"/>
      <path d=" M 603.362, 582.773 612.438, 586.973 613.243, 587.345 622.318, 591.545 631.394, 595.744 640.469, 599.944 647.640, 603.262 647.669, 605.689 647.746, 612.031 " fill="none" stroke="rgb(0, 0, 0)" stroke-linecap="butt" stroke-linejoin="mitter" stroke-opacity="1.0" stroke-width="1.2000000476837158"/>
      <path d=" M 307.927, 422.226 307.927, 422.226 317.003, 426.426 317.808, 426.798 317.808, 426.798 320.804, 428.185 320.804, 428.185 328.009, 431.518 337.084, 435.718 346.160, 439.917 352.205, 442.714 355.410, 444.197 362.086, 447.286 362.086, 447.286 362.722, 447.581 362.723, 447.581 365.082, 448.673 372.602, 452.152 381.677, 456.352 390.753, 460.551 399.688, 464.685 406.999, 468.068 416.075, 472.268 425.150, 476.467 434.226, 480.667 443.301, 484.866 452.377, 489.065 461.452, 493.265 469.008, 496.761 478.083, 500.961 478.889, 501.333 478.889, 501.333 481.885, 502.720 490.146, 506.542 497.350, 509.876 506.426, 514.075 513.286, 517.249 516.490, 518.732 523.167, 521.821 523.167, 521.821 523.802, 522.115 526.163, 523.208 534.424, 527.030 541.628, 530.364 550.704, 534.563 559.779, 538.763 560.768, 539.221 568.080, 542.604 577.155, 546.803 586.231, 551.002 595.306, 555.202 604.382, 559.401 613.457, 563.601 622.533, 567.800 630.088, 571.296 639.164, 575.496 639.969, 575.868 639.969, 575.868 642.965, 577.255 652.041, 581.454 661.116, 585.653 670.192, 589.853 674.366, 591.784 677.330, 590.512 677.330, 590.512 677.537, 590.423 684.457, 587.451 689.754, 585.176 698.943, 581.231 699.529, 580.979 706.762, 577.873 706.710, 573.564 706.656, 569.103 706.656, 569.103 697.580, 564.904 688.505, 560.704 682.140, 557.759 682.140, 557.759 673.064, 553.560 672.259, 553.187 663.183, 548.987 654.108, 544.788 645.032, 540.589 635.957, 536.389 626.881, 532.190 617.806, 527.990 611.449, 525.049 602.373, 520.849 593.298, 516.650 593.058, 516.539 583.983, 512.340 574.907, 508.140 565.832, 503.941 565.337, 503.712 565.337, 503.712 556.262, 499.513 555.456, 499.140 548.780, 496.051 541.171, 492.530 533.967, 489.197 524.891, 484.997 521.059, 483.224 521.059, 483.224 511.984, 479.024 511.178, 478.652 502.103, 474.452 496.893, 472.042 489.689, 468.708 480.613, 464.509 471.538, 460.309 462.462, 456.110 453.387, 451.911 444.311, 447.711 435.236, 443.512 431.978, 442.004 422.902, 437.805 413.827, 433.605 404.751, 429.406 404.257, 429.177 404.257, 429.177 395.181, 424.978 394.376, 424.605 385.300, 420.406 376.225, 416.206 367.149, 412.007 359.979, 408.689 359.979, 408.689 350.903, 404.489 350.098, 404.117 350.098, 404.117 341.022, 399.917 340.217, 399.545 340.217, 399.545 " fill="none" stroke="rgb(0, 0, 0)" stroke-linecap="butt" stroke-linejoin="mitter" stroke-opacity="1.0" stroke-width="1.2000000476837158"/>
      <path d=" M 307.821, 413.456 316.897, 417.656 317.702, 418.028 326.778, 422.228 327.583, 422.601 336.659, 426.800 345.734, 430.999 354.810, 435.199 355.304, 435.427 364.379, 439.627 371.861, 443.089 372.496, 443.383 381.571, 447.582 390.647, 451.781 399.722, 455.981 408.798, 460.180 416.774, 463.871 425.849, 468.070 434.925, 472.270 444.001, 476.469 453.076, 480.668 462.152, 484.868 471.227, 489.067 478.783, 492.563 487.858, 496.763 490.040, 497.772 499.115, 501.972 508.191, 506.171 516.385, 509.963 525.460, 514.162 532.942, 517.624 541.522, 521.594 550.598, 525.794 559.673, 529.993 568.749, 534.192 577.854, 538.406 586.930, 542.605 596.006, 546.805 605.081, 551.004 614.157, 555.204 623.232, 559.403 632.308, 563.602 639.863, 567.099 648.939, 571.298 658.014, 575.497 667.090, 579.697 674.260, 583.015 " fill="none" stroke="rgb(0, 0, 0)" stroke-linecap="butt" stroke-linejoin="mitter" stroke-opacity="1.0" stroke-width="1.2000000476837158"/>
      <path d=" M 674.366, 591.784 674.334, 589.125 674.260, 583.015 674.576, 582.879 677.431, 581.653 686.619, 577.707 689.648, 576.407 696.881, 573.301 706.070, 569.355 706.656, 569.103 " fill="none" stroke="rgb(0, 0, 0)" stroke-linecap="butt" stroke-linejoin="mitter" stroke-opacity="1.0" stroke-width="1.2000000476837158"/>
      <path d=" M 706.762, 577.873 709.932, 576.511 711.565, 575.810 720.754, 571.864 729.942, 567.918 739.131, 563.973 743.961, 561.899 743.961, 561.899 746.608, 560.761 747.017, 554.592 " fill="none" stroke="rgb(0, 0, 0)" stroke-linecap="butt" stroke-linejoin="mitter" stroke-opacity="1.0" stroke-width="1.2000000476837158"/>
      <path d=" M 340.217, 399.545 349.292, 403.744 350.098, 404.117 359.173, 408.316 359.979, 408.689 369.054, 412.888 378.130, 417.088 387.205, 421.287 396.281, 425.486 404.257, 429.177 413.332, 433.377 422.408, 437.576 431.483, 441.775 431.978, 442.004 441.053, 446.204 450.129, 450.403 459.204, 454.602 468.280, 458.802 477.355, 463.001 486.431, 467.201 489.689, 468.708 498.764, 472.908 507.840, 477.107 511.178, 478.652 520.254, 482.851 521.059, 483.224 530.135, 487.423 539.210, 491.623 541.171, 492.530 550.247, 496.729 559.322, 500.929 565.337, 503.712 574.413, 507.912 583.488, 512.111 592.564, 516.310 593.058, 516.539 602.134, 520.739 611.209, 524.938 611.449, 525.049 620.524, 529.248 629.600, 533.448 638.675, 537.647 647.751, 541.846 656.826, 546.046 665.902, 550.245 672.259, 553.187 681.334, 557.386 682.140, 557.759 691.215, 561.958 700.291, 566.158 706.656, 569.103 706.656, 569.103 715.844, 565.157 725.033, 561.211 734.080, 557.327 743.268, 553.381 743.855, 553.129 746.503, 551.992 746.911, 545.823 " fill="none" stroke="rgb(0, 0, 0)" stroke-linecap="butt" stroke-linejoin="mitter" stroke-opacity="1.0" stroke-width="1.2000000476837158"/>
      <path d=" M 469.008, 496.761 461.775, 499.867 452.587, 503.813 452.000, 504.065 442.812, 508.011 442.281, 508.238 442.387, 517.008 442.387, 517.008 449.534, 520.315 449.534, 520.315 458.609, 524.514 467.685, 528.713 476.760, 532.913 482.280, 535.467 486.665, 537.496 486.666, 537.496 491.569, 535.390 493.735, 534.460 493.735, 534.460 498.696, 532.330 506.159, 529.125 515.348, 525.179 515.934, 524.927 516.562, 524.658 523.167, 521.821 " fill="none" stroke="rgb(0, 0, 0)" stroke-linecap="butt" stroke-linejoin="mitter" stroke-opacity="1.0" stroke-width="1.2000000476837158"/>
      <path d=" M 486.560, 528.727 486.589, 531.154 486.666, 537.496 " fill="none" stroke="rgb(0, 0, 0)" stroke-linecap="butt" stroke-linejoin="mitter" stroke-opacity="1.0" stroke-width="1.2000000476837158"/>
      <path d=" M 513.286, 517.249 504.097, 521.195 496.278, 524.553 490.394, 527.080 486.560, 528.727 477.484, 524.527 468.409, 520.328 459.333, 516.128 452.162, 512.810 443.087, 508.611 442.281, 508.238 " fill="none" stroke="rgb(0, 0, 0)" stroke-linecap="butt" stroke-linejoin="mitter" stroke-opacity="1.0" stroke-width="1.2000000476837158"/>
      <path d=" M 325.479, 454.191 325.508, 456.618 325.585, 462.961 328.374, 461.763 332.655, 459.925 " fill="none" stroke="rgb(0, 0, 0)" stroke-linecap="butt" stroke-linejoin="mitter" stroke-opacity="1.0" stroke-width="1.2000000476837158"/>
      <path d=" M 281.307, 442.473 288.453, 445.780 288.453, 445.780 297.529, 449.979 306.604, 454.178 315.680, 458.378 321.200, 460.932 " fill="none" stroke="rgb(0, 0, 0)" stroke-linecap="butt" stroke-linejoin="mitter" stroke-opacity="1.0" stroke-width="1.2000000476837158"/>
      <path d=" M 352.205, 442.714 343.017, 446.660 333.828, 450.606 325.479, 454.191 321.094, 452.162 312.019, 447.963 302.943, 443.764 293.868, 439.564 291.082, 438.275 282.006, 434.076 281.201, 433.703 " fill="none" stroke="rgb(0, 0, 0)" stroke-linecap="butt" stroke-linejoin="mitter" stroke-opacity="1.0" stroke-width="1.2000000476837158"/>
      <path d=" M 856.147, 522.677 856.268, 532.677 856.389, 542.676 856.510, 552.675 856.631, 562.675 856.751, 572.674 856.872, 582.673 856.993, 592.672 857.114, 602.672 857.235, 612.671 857.355, 622.670 857.476, 632.669 857.597, 642.669 857.718, 652.668 857.839, 662.667 857.959, 672.667 858.080, 682.666 858.201, 692.665 858.322, 702.664 858.423, 711.027 " fill="none" stroke="rgb(0, 0, 0)" stroke-linecap="butt" stroke-linejoin="mitter" stroke-opacity="1.0" stroke-width="1.2000000476837158"/>
      <path d=" M 863.274, 519.617 856.147, 522.677 847.072, 518.478 837.996, 514.279 828.921, 510.079 819.845, 505.880 811.869, 502.189 " fill="none" stroke="rgb(0, 0, 0)" stroke-linecap="butt" stroke-linejoin="mitter" stroke-opacity="1.0" stroke-width="1.2000000476837158"/>
      <path d=" M 532.580, 374.388 532.701, 384.388 532.821, 394.387 532.942, 404.386 533.063, 414.385 533.184, 424.385 533.305, 434.384 533.425, 444.383 533.458, 447.054 " fill="none" stroke="rgb(0, 0, 0)" stroke-linecap="butt" stroke-linejoin="mitter" stroke-opacity="1.0" stroke-width="1.2000000476837158"/>
      <path d=" M 539.707, 371.328 532.580, 374.388 523.504, 370.189 514.429, 365.989 505.353, 361.790 496.278, 357.591 488.302, 353.900 " fill="none" stroke="rgb(0, 0, 0)" stroke-linecap="butt" stroke-linejoin="mitter" stroke-opacity="1.0" stroke-width="1.2000000476837158"/>
      <path d=" M 255.197, 725.353 264.272, 729.553 273.348, 733.752 282.423, 737.952 291.499, 742.151 300.574, 746.351 309.650, 750.550 318.725, 754.749 327.801, 758.949 336.876, 763.148 345.952, 767.348 355.027, 771.547 364.103, 775.746 373.178, 779.946 382.254, 784.145 391.329, 788.345 400.405, 792.544 409.481, 796.743 418.556, 800.943 427.632, 805.142 436.707, 809.342 445.783, 813.541 454.858, 817.741 463.934, 821.940 473.009, 826.139 482.085, 830.339 491.160, 834.538 500.236, 838.738 509.311, 842.937 518.387, 847.136 527.462, 851.336 536.538, 855.535 545.613, 859.735 554.689, 863.934 563.764, 868.134 572.840, 872.333 581.915, 876.532 590.991, 880.732 600.066, 884.931 609.142, 889.131 621.636, 894.912 " fill="none" stroke="rgb(0, 0, 0)" stroke-linecap="butt" stroke-linejoin="mitter" stroke-opacity="1.0" stroke-width="1.2000000476837158"/>
      <path d=" M 621.742, 903.682 621.636, 894.912 630.824, 890.966 640.013, 887.020 649.202, 883.074 654.031, 881.000 " fill="none" stroke="rgb(0, 0, 0)" stroke-linecap="butt" stroke-linejoin="mitter" stroke-opacity="1.0" stroke-width="1.2000000476837158"/>
      <path d=" M 201.173, 754.546 210.249, 758.746 219.324, 762.945 228.400, 767.145 237.475, 771.344 246.551, 775.543 255.626, 779.743 264.702, 783.942 273.777, 788.142 282.853, 792.341 291.928, 796.540 301.004, 800.740 310.079, 804.939 319.155, 809.139 328.230, 813.338 337.306, 817.538 346.381, 821.737 355.457, 825.936 364.532, 830.136 373.608, 834.335 382.683, 838.535 391.759, 842.734 400.834, 846.933 409.910, 851.133 418.985, 855.332 428.061, 859.532 437.136, 863.731 446.212, 867.930 455.287, 872.130 464.363, 876.329 473.439, 880.529 482.514, 884.728 491.590, 888.928 500.665, 893.127 509.741, 897.326 518.816, 901.526 527.892, 905.725 536.967, 909.925 546.043, 914.124 554.176, 917.888 564.176, 917.922 568.021, 917.936 577.210, 913.990 586.398, 910.044 593.290, 907.085 " fill="none" stroke="rgb(0, 0, 0)" stroke-linecap="butt" stroke-linejoin="mitter" stroke-opacity="1.0" stroke-width="1.2000000476837158"/>
      <path d=" M 326.303, 527.180 326.424, 537.179 326.545, 547.179 326.666, 557.178 326.786, 567.177 326.907, 577.176 327.028, 587.176 327.149, 597.175 327.270, 607.174 327.390, 617.174 327.511, 627.173 327.632, 637.172 327.753, 647.171 327.803, 651.335 " fill="none" stroke="rgb(0, 0, 0)" stroke-linecap="butt" stroke-linejoin="mitter" stroke-opacity="1.0" stroke-width="1.2000000476837158"/>
      <path d=" M 332.732, 466.319 332.656, 459.925 332.657, 459.924 341.845, 455.979 351.034, 452.033 355.482, 450.123 362.086, 447.286 " fill="none" stroke="rgb(0, 0, 0)" stroke-linecap="butt" stroke-linejoin="mitter" stroke-opacity="1.0" stroke-width="1.2000000476837158"/>
      <path d=" M 365.479, 481.472 365.358, 471.473 365.267, 463.931 " fill="none" stroke="rgb(0, 0, 0)" stroke-linecap="butt" stroke-linejoin="mitter" stroke-opacity="1.0" stroke-width="1.2000000476837158"/>
      <path d=" M 332.655, 459.925 341.843, 455.979 351.032, 452.033 355.482, 450.123 362.086, 447.286 " fill="none" stroke="rgb(0, 0, 0)" stroke-linecap="butt" stroke-linejoin="mitter" stroke-opacity="1.0" stroke-width="1.2000000476837158"/>
      <path d=" M 487.384, 601.715 487.505, 611.714 487.625, 621.714 487.746, 631.713 487.867, 641.712 487.988, 651.712 488.109, 661.711 488.229, 671.710 488.350, 681.709 488.471, 691.709 488.592, 701.708 488.713, 711.707 488.833, 721.706 488.884, 725.870 " fill="none" stroke="rgb(0, 0, 0)" stroke-linecap="butt" stroke-linejoin="mitter" stroke-opacity="1.0" stroke-width="1.2000000476837158"/>
      <path d=" M 493.812, 540.854 493.793, 539.262 493.735, 534.460 502.924, 530.514 506.159, 529.125 515.348, 525.179 516.562, 524.658 523.167, 521.821 " fill="none" stroke="rgb(0, 0, 0)" stroke-linecap="butt" stroke-linejoin="mitter" stroke-opacity="1.0" stroke-width="1.2000000476837158"/>
      <path d=" M 526.559, 556.007 526.517, 552.521 526.396, 542.521 526.347, 538.466 526.241, 529.697 526.241, 529.697 526.163, 523.208 " fill="none" stroke="rgb(0, 0, 0)" stroke-linecap="butt" stroke-linejoin="mitter" stroke-opacity="1.0" stroke-width="1.2000000476837158"/>
      <path d=" M 443.106, 581.227 450.310, 584.560 459.385, 588.760 468.461, 592.959 477.536, 597.159 486.612, 601.358 487.384, 601.715 494.588, 605.049 " fill="none" stroke="rgb(0, 0, 0)" stroke-linecap="butt" stroke-linejoin="mitter" stroke-opacity="1.0" stroke-width="1.2000000476837158"/>
      <path d=" M 282.025, 506.692 289.229, 510.025 298.305, 514.225 307.380, 518.424 316.456, 522.624 325.531, 526.823 326.303, 527.180 333.507, 530.514 " fill="none" stroke="rgb(0, 0, 0)" stroke-linecap="butt" stroke-linejoin="mitter" stroke-opacity="1.0" stroke-width="1.2000000476837158"/>
      <path d=" M 540.662, 450.387 533.458, 447.054 524.382, 442.854 515.307, 438.655 506.231, 434.455 497.156, 430.256 496.384, 429.899 489.180, 426.565 " fill="none" stroke="rgb(0, 0, 0)" stroke-linecap="butt" stroke-linejoin="mitter" stroke-opacity="1.0" stroke-width="1.2000000476837158"/>
    </g>
  </g>
</svg>
