<?xml version="1.0" encoding="ascii"?>
<svg xmlns="http://www.w3.org/2000/svg" xmlns:inkscape="http://www.inkscape.org/namespaces/inkscape" height="1024" version="1.1" width="1024">
  <g id="RenderLayer_Contour" inkscape:groupmode="lineset" inkscape:label="RenderLayer_Contour">
    <g id="fills" inkscape:groupmode="layer" inkscape:label="fills">
      <path d=" M 429.426, 602.146 429.426, 602.146 z" fill="rgb(226, 226, 226)" fill-opacity="1.0" fill-rule="evenodd" stroke="none"/>
      <path d=" M 710.592, 576.228 710.592, 576.228 710.592, 576.228 z" fill="rgb(226, 226, 226)" fill-opacity="1.0" fill-rule="evenodd" stroke="none"/>
      <path d=" M 197.908, 484.280 197.908, 484.280 197.908, 484.280 198.390, 524.142 198.390, 524.143 198.496, 532.912 551.499, 696.254 565.344, 696.302 590.612, 685.451 590.506, 676.681 590.506, 676.681 590.506, 676.681 590.025, 636.819 590.025, 636.819 609.518, 628.447 664.312, 653.802 711.286, 633.630 711.180, 624.860 711.180, 624.860 711.180, 624.860 710.698, 584.998 710.698, 584.998 710.698, 584.998 710.592, 576.228 710.592, 576.228 710.486, 567.458 344.047, 397.900 297.074, 418.072 297.180, 426.841 293.996, 428.208 284.115, 423.637 251.720, 437.548 251.826, 446.318 247.832, 448.033 237.952, 443.461 198.105, 460.572 197.696, 466.741 197.802, 475.510 197.802, 475.511 197.908, 484.280 z M 352.165, 546.937 352.165, 546.937 352.271, 555.707 352.271, 555.707 352.271, 555.707 352.401, 566.505 268.345, 527.611 268.109, 508.043 352.165, 546.937 z  M 513.245, 621.472 513.245, 621.472 513.351, 630.242 513.351, 630.242 513.351, 630.242 513.482, 641.040 429.426, 602.146 429.189, 582.578 513.245, 621.472 z  M 388.975, 472.157 388.940, 469.301 458.260, 501.377 455.077, 502.744 388.975, 472.157 z  M 550.055, 546.692 550.021, 543.836 619.341, 575.912 616.157, 577.279 550.055, 546.692 z" fill="rgb(226, 226, 226)" fill-opacity="1.0" fill-rule="evenodd" stroke="none"/>
      <path d=" M 570.025, 453.381 570.130, 462.151 614.409, 482.639 633.902, 474.268 740.824, 523.743 731.105, 527.916 731.211, 536.686 775.489, 557.174 794.983, 548.803 849.776, 574.157 875.045, 563.306 875.454, 557.137 875.348, 548.367 875.348, 548.367 874.866, 508.506 874.866, 508.505 874.760, 499.736 874.760, 499.735 874.654, 490.966 521.651, 327.625 507.806, 327.577 467.960, 344.688 468.066, 353.458 464.073, 355.172 454.192, 350.600 421.796, 364.512 421.902, 373.282 408.944, 378.846 409.050, 387.616 453.328, 408.104 476.061, 398.342 483.302, 401.693 483.337, 404.599 579.743, 449.208 570.025, 453.381 z M 559.870, 399.500 559.826, 395.917 629.146, 427.993 625.153, 429.707 559.870, 399.500 z  M 720.950, 474.035 720.907, 470.452 790.227, 502.528 786.234, 504.242 720.950, 474.035 z" fill="rgb(226, 226, 226)" fill-opacity="1.0" fill-rule="evenodd" stroke="none"/>
    </g>
    <g id="strokes" inkscape:groupmode="layer" inkscape:label="strokes">
      <path d=" M 352.165, 546.937 352.165, 546.937 352.271, 555.707 352.271, 555.707 " fill="none" stroke="rgb(0, 0, 0)" stroke-linecap="butt" stroke-linejoin="mitter" stroke-opacity="1.0" stroke-width="3.0"/>
      <path d=" M 579.743, 449.208 570.025, 453.381 570.130, 462.151 614.409, 482.639 633.902, 474.268 " fill="none" stroke="rgb(0, 0, 0)" stroke-linecap="butt" stroke-linejoin="mitter" stroke-opacity="1.0" stroke-width="3.0"/>
      <path d=" M 421.902, 373.282 408.944, 378.846 409.050, 387.616 453.328, 408.104 476.061, 398.342 " fill="none" stroke="rgb(0, 0, 0)" stroke-linecap="butt" stroke-linejoin="mitter" stroke-opacity="1.0" stroke-width="3.0"/>
      <path d=" M 197.802, 475.510 197.802, 475.511 197.908, 484.278 197.908, 484.279 " fill="none" stroke="rgb(0, 0, 0)" stroke-linecap="butt" stroke-linejoin="mitter" stroke-opacity="1.0" stroke-width="3.0"/>
      <path d=" M 513.245, 621.472 513.245, 621.472 513.351, 630.242 513.351, 630.242 " fill="none" stroke="rgb(0, 0, 0)" stroke-linecap="butt" stroke-linejoin="mitter" stroke-opacity="1.0" stroke-width="3.0"/>
      <path d=" M 710.698, 584.998 710.698, 584.998 710.592, 576.228 710.592, 576.228 " fill="none" stroke="rgb(0, 0, 0)" stroke-linecap="butt" stroke-linejoin="mitter" stroke-opacity="1.0" stroke-width="3.0"/>
      <path d=" M 740.824, 523.743 731.105, 527.916 731.211, 536.686 775.489, 557.174 794.983, 548.803 " fill="none" stroke="rgb(0, 0, 0)" stroke-linecap="butt" stroke-linejoin="mitter" stroke-opacity="1.0" stroke-width="3.0"/>
      <path d=" M 874.866, 508.506 874.866, 508.505 874.760, 499.736 874.760, 499.735 " fill="none" stroke="rgb(0, 0, 0)" stroke-linecap="butt" stroke-linejoin="mitter" stroke-opacity="1.0" stroke-width="3.0"/>
      <path d=" M 464.073, 355.172 454.192, 350.600 421.796, 364.512 421.902, 373.282 " fill="none" stroke="rgb(0, 0, 0)" stroke-linecap="butt" stroke-linejoin="mitter" stroke-opacity="1.0" stroke-width="3.0"/>
      <path d=" M 293.996, 428.208 284.115, 423.637 251.720, 437.548 251.826, 446.318 " fill="none" stroke="rgb(0, 0, 0)" stroke-linecap="butt" stroke-linejoin="mitter" stroke-opacity="1.0" stroke-width="3.0"/>
      <path d=" M 874.760, 499.735 874.654, 490.966 783.899, 448.972 693.144, 406.978 602.389, 364.983 521.651, 327.625 507.806, 327.577 467.960, 344.688 468.066, 353.458 " fill="none" stroke="rgb(0, 0, 0)" stroke-linecap="butt" stroke-linejoin="mitter" stroke-opacity="1.0" stroke-width="3.0"/>
      <path d=" M 710.592, 576.228 710.592, 576.228 710.592, 576.228 710.486, 567.458 619.731, 525.464 528.976, 483.470 438.221, 441.476 344.047, 397.900 297.074, 418.072 297.180, 426.841 " fill="none" stroke="rgb(0, 0, 0)" stroke-linecap="butt" stroke-linejoin="mitter" stroke-opacity="1.0" stroke-width="3.0"/>
      <path d=" M 247.832, 448.033 237.952, 443.461 198.105, 460.572 197.696, 466.741 197.802, 475.510 " fill="none" stroke="rgb(0, 0, 0)" stroke-linecap="butt" stroke-linejoin="mitter" stroke-opacity="1.0" stroke-width="3.0"/>
      <path d=" M 197.908, 484.280 197.908, 484.280 198.390, 524.142 " fill="none" stroke="rgb(0, 0, 0)" stroke-linecap="butt" stroke-linejoin="mitter" stroke-opacity="1.0" stroke-width="3.0"/>
      <path d=" M 429.426, 602.146 429.426, 602.146 429.189, 582.578 " fill="none" stroke="rgb(0, 0, 0)" stroke-linecap="butt" stroke-linejoin="mitter" stroke-opacity="1.0" stroke-width="3.0"/>
      <path d=" M 352.271, 555.707 352.271, 555.707 352.401, 566.505 " fill="none" stroke="rgb(0, 0, 0)" stroke-linecap="butt" stroke-linejoin="mitter" stroke-opacity="1.0" stroke-width="3.0"/>
      <path d=" M 483.302, 401.693 483.337, 404.599 574.093, 446.593 579.743, 449.208 " fill="none" stroke="rgb(0, 0, 0)" stroke-linecap="butt" stroke-linejoin="mitter" stroke-opacity="1.0" stroke-width="3.0"/>
      <path d=" M 794.983, 548.803 849.776, 574.157 875.045, 563.306 875.454, 557.137 875.348, 548.367 875.348, 548.367 " fill="none" stroke="rgb(0, 0, 0)" stroke-linecap="butt" stroke-linejoin="mitter" stroke-opacity="1.0" stroke-width="3.0"/>
      <path d=" M 609.518, 628.447 664.312, 653.802 711.286, 633.630 711.180, 624.860 711.180, 624.860 " fill="none" stroke="rgb(0, 0, 0)" stroke-linecap="butt" stroke-linejoin="mitter" stroke-opacity="1.0" stroke-width="3.0"/>
      <path d=" M 198.390, 524.142 198.390, 524.143 198.496, 532.912 289.251, 574.906 380.006, 616.901 470.761, 658.895 551.499, 696.254 565.344, 696.302 590.612, 685.451 590.506, 676.681 590.506, 676.681 " fill="none" stroke="rgb(0, 0, 0)" stroke-linecap="butt" stroke-linejoin="mitter" stroke-opacity="1.0" stroke-width="3.0"/>
      <path d=" M 590.506, 676.681 590.506, 676.681 590.025, 636.819 590.025, 636.819 " fill="none" stroke="rgb(0, 0, 0)" stroke-linecap="butt" stroke-linejoin="mitter" stroke-opacity="1.0" stroke-width="3.0"/>
      <path d=" M 513.351, 630.242 513.351, 630.242 513.482, 641.040 " fill="none" stroke="rgb(0, 0, 0)" stroke-linecap="butt" stroke-linejoin="mitter" stroke-opacity="1.0" stroke-width="3.0"/>
      <path d=" M 711.180, 624.860 711.180, 624.860 710.698, 584.998 710.698, 584.998 " fill="none" stroke="rgb(0, 0, 0)" stroke-linecap="butt" stroke-linejoin="mitter" stroke-opacity="1.0" stroke-width="3.0"/>
      <path d=" M 268.345, 527.611 268.109, 508.043 " fill="none" stroke="rgb(0, 0, 0)" stroke-linecap="butt" stroke-linejoin="mitter" stroke-opacity="1.0" stroke-width="3.0"/>
      <path d=" M 251.826, 446.318 247.832, 448.033 " fill="none" stroke="rgb(0, 0, 0)" stroke-linecap="butt" stroke-linejoin="mitter" stroke-opacity="1.0" stroke-width="3.0"/>
      <path d=" M 297.180, 426.841 293.996, 428.208 " fill="none" stroke="rgb(0, 0, 0)" stroke-linecap="butt" stroke-linejoin="mitter" stroke-opacity="1.0" stroke-width="3.0"/>
      <path d=" M 388.975, 472.157 388.940, 469.301 " fill="none" stroke="rgb(0, 0, 0)" stroke-linecap="butt" stroke-linejoin="mitter" stroke-opacity="1.0" stroke-width="3.0"/>
      <path d=" M 458.260, 501.377 455.077, 502.744 " fill="none" stroke="rgb(0, 0, 0)" stroke-linecap="butt" stroke-linejoin="mitter" stroke-opacity="1.0" stroke-width="3.0"/>
      <path d=" M 468.066, 353.458 464.073, 355.172 " fill="none" stroke="rgb(0, 0, 0)" stroke-linecap="butt" stroke-linejoin="mitter" stroke-opacity="1.0" stroke-width="3.0"/>
      <path d=" M 550.055, 546.692 550.021, 543.836 " fill="none" stroke="rgb(0, 0, 0)" stroke-linecap="butt" stroke-linejoin="mitter" stroke-opacity="1.0" stroke-width="3.0"/>
      <path d=" M 429.189, 582.578 513.245, 621.472 " fill="none" stroke="rgb(0, 0, 0)" stroke-linecap="butt" stroke-linejoin="mitter" stroke-opacity="1.0" stroke-width="3.0"/>
      <path d=" M 268.109, 508.043 352.165, 546.937 " fill="none" stroke="rgb(0, 0, 0)" stroke-linecap="butt" stroke-linejoin="mitter" stroke-opacity="1.0" stroke-width="3.0"/>
      <path d=" M 559.870, 399.500 559.826, 395.917 " fill="none" stroke="rgb(0, 0, 0)" stroke-linecap="butt" stroke-linejoin="mitter" stroke-opacity="1.0" stroke-width="3.0"/>
      <path d=" M 352.401, 566.505 268.345, 527.611 " fill="none" stroke="rgb(0, 0, 0)" stroke-linecap="butt" stroke-linejoin="mitter" stroke-opacity="1.0" stroke-width="3.0"/>
      <path d=" M 513.482, 641.040 429.426, 602.146 " fill="none" stroke="rgb(0, 0, 0)" stroke-linecap="butt" stroke-linejoin="mitter" stroke-opacity="1.0" stroke-width="3.0"/>
      <path d=" M 455.077, 502.744 388.975, 472.157 " fill="none" stroke="rgb(0, 0, 0)" stroke-linecap="butt" stroke-linejoin="mitter" stroke-opacity="1.0" stroke-width="3.0"/>
      <path d=" M 616.157, 577.279 550.055, 546.692 " fill="none" stroke="rgb(0, 0, 0)" stroke-linecap="butt" stroke-linejoin="mitter" stroke-opacity="1.0" stroke-width="3.0"/>
      <path d=" M 550.021, 543.836 619.341, 575.912 " fill="none" stroke="rgb(0, 0, 0)" stroke-linecap="butt" stroke-linejoin="mitter" stroke-opacity="1.0" stroke-width="3.0"/>
      <path d=" M 388.940, 469.301 458.260, 501.377 " fill="none" stroke="rgb(0, 0, 0)" stroke-linecap="butt" stroke-linejoin="mitter" stroke-opacity="1.0" stroke-width="3.0"/>
      <path d=" M 619.341, 575.912 616.157, 577.279 " fill="none" stroke="rgb(0, 0, 0)" stroke-linecap="butt" stroke-linejoin="mitter" stroke-opacity="1.0" stroke-width="3.0"/>
      <path d=" M 629.146, 427.993 625.153, 429.707 " fill="none" stroke="rgb(0, 0, 0)" stroke-linecap="butt" stroke-linejoin="mitter" stroke-opacity="1.0" stroke-width="3.0"/>
      <path d=" M 590.025, 636.819 609.518, 628.447 " fill="none" stroke="rgb(0, 0, 0)" stroke-linecap="butt" stroke-linejoin="mitter" stroke-opacity="1.0" stroke-width="3.0"/>
      <path d=" M 720.950, 474.035 720.907, 470.452 " fill="none" stroke="rgb(0, 0, 0)" stroke-linecap="butt" stroke-linejoin="mitter" stroke-opacity="1.0" stroke-width="3.0"/>
      <path d=" M 476.061, 398.342 483.302, 401.693 " fill="none" stroke="rgb(0, 0, 0)" stroke-linecap="butt" stroke-linejoin="mitter" stroke-opacity="1.0" stroke-width="3.0"/>
      <path d=" M 625.153, 429.707 559.870, 399.500 " fill="none" stroke="rgb(0, 0, 0)" stroke-linecap="butt" stroke-linejoin="mitter" stroke-opacity="1.0" stroke-width="3.0"/>
      <path d=" M 786.234, 504.242 720.950, 474.035 " fill="none" stroke="rgb(0, 0, 0)" stroke-linecap="butt" stroke-linejoin="mitter" stroke-opacity="1.0" stroke-width="3.0"/>
      <path d=" M 720.907, 470.452 790.227, 502.528 " fill="none" stroke="rgb(0, 0, 0)" stroke-linecap="butt" stroke-linejoin="mitter" stroke-opacity="1.0" stroke-width="3.0"/>
      <path d=" M 559.826, 395.917 629.146, 427.993 " fill="none" stroke="rgb(0, 0, 0)" stroke-linecap="butt" stroke-linejoin="mitter" stroke-opacity="1.0" stroke-width="3.0"/>
      <path d=" M 790.227, 502.528 786.234, 504.242 " fill="none" stroke="rgb(0, 0, 0)" stroke-linecap="butt" stroke-linejoin="mitter" stroke-opacity="1.0" stroke-width="3.0"/>
      <path d=" M 633.902, 474.268 724.657, 516.262 740.824, 523.743 " fill="none" stroke="rgb(0, 0, 0)" stroke-linecap="butt" stroke-linejoin="mitter" stroke-opacity="1.0" stroke-width="3.0"/>
      <path d=" M 875.348, 548.367 874.866, 508.506 " fill="none" stroke="rgb(0, 0, 0)" stroke-linecap="butt" stroke-linejoin="mitter" stroke-opacity="1.0" stroke-width="3.0"/>
    </g>
  </g>
  <g id="RenderLayer_InLine" inkscape:groupmode="lineset" inkscape:label="RenderLayer_InLine">
    <g id="strokes" inkscape:groupmode="layer" inkscape:label="strokes">
      <path d=" M 352.165, 546.937 361.240, 551.137 362.045, 551.509 371.121, 555.709 380.197, 559.908 389.272, 564.107 396.443, 567.426 396.443, 567.426 396.549, 576.195 " fill="none" stroke="rgb(0, 0, 0)" stroke-linecap="butt" stroke-linejoin="mitter" stroke-opacity="1.0" stroke-width="1.2000000476837158"/>
      <path d=" M 352.271, 555.707 361.346, 559.906 370.422, 564.106 379.497, 568.305 385.017, 570.859 394.093, 575.059 396.549, 576.195 396.549, 576.195 400.630, 574.443 406.324, 571.998 " fill="none" stroke="rgb(0, 0, 0)" stroke-linecap="butt" stroke-linejoin="mitter" stroke-opacity="1.0" stroke-width="1.2000000476837158"/>
      <path d=" M 614.303, 473.870 614.409, 482.639 " fill="none" stroke="rgb(0, 0, 0)" stroke-linecap="butt" stroke-linejoin="mitter" stroke-opacity="1.0" stroke-width="1.2000000476837158"/>
      <path d=" M 627.261, 468.305 624.021, 469.696 614.833, 473.642 614.303, 473.870 605.227, 469.670 596.152, 465.471 587.076, 461.271 578.001, 457.072 570.025, 453.381 " fill="none" stroke="rgb(0, 0, 0)" stroke-linecap="butt" stroke-linejoin="mitter" stroke-opacity="1.0" stroke-width="1.2000000476837158"/>
      <path d=" M 453.222, 399.335 453.328, 408.104 " fill="none" stroke="rgb(0, 0, 0)" stroke-linecap="butt" stroke-linejoin="mitter" stroke-opacity="1.0" stroke-width="1.2000000476837158"/>
      <path d=" M 466.180, 393.770 456.992, 397.716 453.222, 399.335 444.147, 395.135 435.071, 390.936 425.995, 386.736 416.920, 382.537 408.944, 378.846 " fill="none" stroke="rgb(0, 0, 0)" stroke-linecap="butt" stroke-linejoin="mitter" stroke-opacity="1.0" stroke-width="1.2000000476837158"/>
      <path d=" M 235.468, 501.660 244.657, 497.714 245.243, 497.463 " fill="none" stroke="rgb(0, 0, 0)" stroke-linecap="butt" stroke-linejoin="mitter" stroke-opacity="1.0" stroke-width="1.2000000476837158"/>
      <path d=" M 710.592, 576.228 710.592, 576.228 701.403, 580.174 700.817, 580.426 691.629, 584.372 682.440, 588.317 673.251, 592.263 664.063, 596.209 663.619, 596.400 656.386, 599.506 650.660, 601.965 641.472, 605.910 632.283, 609.856 623.095, 613.802 619.815, 615.210 618.265, 615.876 609.076, 619.822 604.497, 621.789 599.638, 623.875 590.449, 627.821 581.260, 631.767 580.144, 632.247 570.955, 636.192 564.650, 638.900 " fill="none" stroke="rgb(0, 0, 0)" stroke-linecap="butt" stroke-linejoin="mitter" stroke-opacity="1.0" stroke-width="1.2000000476837158"/>
      <path d=" M 513.351, 630.242 522.427, 634.441 531.502, 638.641 540.578, 642.840 546.098, 645.394 550.911, 647.622 560.911, 647.656 564.756, 647.670 573.945, 643.724 583.133, 639.778 590.025, 636.819 " fill="none" stroke="rgb(0, 0, 0)" stroke-linecap="butt" stroke-linejoin="mitter" stroke-opacity="1.0" stroke-width="1.2000000476837158"/>
      <path d=" M 550.805, 638.852 541.730, 634.653 532.654, 630.453 523.579, 626.254 523.126, 626.044 514.051, 621.845 513.245, 621.472 " fill="none" stroke="rgb(0, 0, 0)" stroke-linecap="butt" stroke-linejoin="mitter" stroke-opacity="1.0" stroke-width="1.2000000476837158"/>
      <path d=" M 874.760, 499.736 874.352, 505.905 871.704, 507.042 862.515, 510.988 858.120, 512.875 848.931, 516.821 839.742, 520.767 834.505, 523.016 827.272, 526.122 818.084, 530.068 808.895, 534.014 805.280, 535.566 796.091, 539.512 786.903, 543.458 785.102, 544.231 775.913, 548.177 775.383, 548.405 " fill="none" stroke="rgb(0, 0, 0)" stroke-linecap="butt" stroke-linejoin="mitter" stroke-opacity="1.0" stroke-width="1.2000000476837158"/>
      <path d=" M 731.105, 527.916 740.181, 532.116 749.256, 536.315 758.332, 540.515 767.407, 544.714 775.383, 548.405 775.489, 557.174 " fill="none" stroke="rgb(0, 0, 0)" stroke-linecap="butt" stroke-linejoin="mitter" stroke-opacity="1.0" stroke-width="1.2000000476837158"/>
      <path d=" M 794.983, 548.803 804.171, 544.857 804.758, 544.606 805.386, 544.336 814.574, 540.390 823.763, 536.444 827.378, 534.892 836.567, 530.946 837.153, 530.694 837.781, 530.424 846.970, 526.478 849.189, 525.525 858.377, 521.580 867.566, 517.634 874.457, 514.674 874.473, 514.439 874.866, 508.506 " fill="none" stroke="rgb(0, 0, 0)" stroke-linecap="butt" stroke-linejoin="mitter" stroke-opacity="1.0" stroke-width="1.2000000476837158"/>
      <path d=" M 483.302, 401.693 486.577, 403.208 495.652, 407.407 504.728, 411.607 513.803, 415.806 522.879, 420.006 531.954, 424.205 541.030, 428.404 550.105, 432.604 559.181, 436.803 568.256, 441.003 577.332, 445.202 582.983, 447.817 592.058, 452.016 592.864, 452.389 601.939, 456.588 611.015, 460.788 620.090, 464.987 627.261, 468.305 636.336, 472.504 637.142, 472.877 646.217, 477.076 655.293, 481.276 664.368, 485.475 673.444, 489.675 682.519, 493.874 691.595, 498.074 700.670, 502.273 709.746, 506.472 718.821, 510.672 727.897, 514.871 736.972, 519.071 744.063, 522.352 753.139, 526.551 753.944, 526.924 763.020, 531.123 772.095, 535.323 781.171, 539.522 788.341, 542.840 794.877, 540.034 804.065, 536.088 805.280, 535.566 814.468, 531.620 817.497, 530.320 820.737, 528.928 820.666, 523.065 820.631, 520.159 811.555, 515.959 805.006, 512.929 796.115, 508.815 787.039, 504.615 786.234, 504.242 " fill="none" stroke="rgb(0, 0, 0)" stroke-linecap="butt" stroke-linejoin="mitter" stroke-opacity="1.0" stroke-width="1.2000000476837158"/>
      <path d=" M 421.902, 373.282 421.902, 373.282 430.978, 377.481 431.783, 377.854 440.858, 382.053 449.934, 386.253 459.010, 390.452 466.180, 393.770 475.256, 397.969 476.061, 398.342 " fill="none" stroke="rgb(0, 0, 0)" stroke-linecap="butt" stroke-linejoin="mitter" stroke-opacity="1.0" stroke-width="1.2000000476837158"/>
      <path d=" M 421.796, 364.512 430.872, 368.711 431.677, 369.084 440.753, 373.283 449.828, 377.483 458.904, 381.682 467.979, 385.882 477.055, 390.081 483.196, 392.923 485.836, 394.144 486.471, 394.438 495.546, 398.638 504.622, 402.837 513.697, 407.036 522.773, 411.236 530.749, 414.926 539.824, 419.126 548.900, 423.325 557.975, 427.525 567.051, 431.724 576.126, 435.924 585.202, 440.123 592.758, 443.619 601.833, 447.818 610.909, 452.018 619.984, 456.217 629.060, 460.417 638.135, 464.616 644.277, 467.458 646.917, 468.679 655.992, 472.879 665.068, 477.078 674.143, 481.278 683.219, 485.477 691.829, 489.461 700.905, 493.661 709.980, 497.860 719.056, 502.060 728.131, 506.259 737.207, 510.459 746.282, 514.658 753.838, 518.154 762.914, 522.354 771.989, 526.553 781.065, 530.752 788.235, 534.070 " fill="none" stroke="rgb(0, 0, 0)" stroke-linecap="butt" stroke-linejoin="mitter" stroke-opacity="1.0" stroke-width="1.2000000476837158"/>
      <path d=" M 788.341, 542.840 788.235, 534.070 797.424, 530.125 805.174, 526.797 814.362, 522.851 817.391, 521.550 820.631, 520.159 " fill="none" stroke="rgb(0, 0, 0)" stroke-linecap="butt" stroke-linejoin="mitter" stroke-opacity="1.0" stroke-width="1.2000000476837158"/>
      <path d=" M 251.826, 446.318 251.826, 446.318 260.901, 450.517 261.707, 450.890 270.782, 455.089 279.858, 459.289 288.933, 463.488 296.104, 466.806 297.671, 467.531 305.985, 471.378 306.619, 471.672 306.619, 471.672 315.695, 475.871 316.500, 476.244 325.576, 480.443 334.651, 484.643 341.949, 488.020 350.897, 492.160 359.973, 496.360 369.048, 500.559 378.124, 504.758 387.200, 508.958 396.275, 513.157 405.351, 517.357 412.906, 520.853 421.982, 525.052 422.787, 525.425 431.863, 529.624 440.938, 533.824 450.014, 538.023 457.184, 541.341 458.752, 542.066 467.065, 545.913 467.700, 546.207 476.775, 550.406 485.851, 554.606 494.927, 558.805 503.030, 562.555 511.978, 566.695 521.054, 570.895 530.129, 575.094 539.205, 579.294 548.280, 583.493 557.356, 587.692 566.431, 591.892 573.987, 595.388 583.062, 599.587 583.868, 599.960 592.943, 604.159 602.019, 608.359 611.094, 612.558 618.265, 615.876 618.265, 615.876 619.815, 615.210 629.004, 611.265 638.193, 607.319 646.611, 603.704 650.660, 601.965 650.660, 601.965 650.626, 599.109 650.598, 596.828 650.555, 593.195 641.479, 588.996 632.404, 584.796 626.038, 581.851 626.038, 581.851 616.962, 577.651 616.157, 577.279 " fill="none" stroke="rgb(0, 0, 0)" stroke-linecap="butt" stroke-linejoin="mitter" stroke-opacity="1.0" stroke-width="1.2000000476837158"/>
      <path d=" M 251.720, 437.548 260.795, 441.748 261.601, 442.120 270.676, 446.320 279.752, 450.519 288.827, 454.718 297.565, 458.762 306.641, 462.961 315.759, 467.181 316.394, 467.474 325.470, 471.674 334.545, 475.873 343.621, 480.073 352.696, 484.272 360.672, 487.963 369.748, 492.162 378.823, 496.361 387.899, 500.561 396.974, 504.760 406.050, 508.960 415.125, 513.159 422.681, 516.655 431.757, 520.855 440.832, 525.054 449.908, 529.253 458.646, 533.297 467.721, 537.496 476.840, 541.716 485.916, 545.915 494.991, 550.114 504.067, 554.314 513.142, 558.513 521.753, 562.498 530.828, 566.697 539.904, 570.896 548.979, 575.096 558.055, 579.295 567.130, 583.495 576.206, 587.694 583.762, 591.190 592.837, 595.390 601.913, 599.589 610.988, 603.789 618.159, 607.106 " fill="none" stroke="rgb(0, 0, 0)" stroke-linecap="butt" stroke-linejoin="mitter" stroke-opacity="1.0" stroke-width="1.2000000476837158"/>
      <path d=" M 618.265, 615.876 618.159, 607.106 619.709, 606.441 628.898, 602.495 638.087, 598.549 646.505, 594.934 650.555, 593.195 " fill="none" stroke="rgb(0, 0, 0)" stroke-linecap="butt" stroke-linejoin="mitter" stroke-opacity="1.0" stroke-width="1.2000000476837158"/>
      <path d=" M 468.066, 353.458 468.066, 353.458 477.141, 357.657 477.947, 358.030 482.802, 360.276 491.877, 364.476 500.953, 368.675 510.028, 372.874 512.344, 373.946 521.419, 378.145 522.225, 378.518 527.080, 380.764 536.155, 384.964 545.231, 389.163 554.306, 393.363 559.826, 395.917 " fill="none" stroke="rgb(0, 0, 0)" stroke-linecap="butt" stroke-linejoin="mitter" stroke-opacity="1.0" stroke-width="1.2000000476837158"/>
      <path d=" M 790.227, 502.528 799.302, 506.727 800.108, 507.100 804.963, 509.346 814.038, 513.546 823.114, 517.745 832.189, 521.945 834.505, 523.016 834.505, 523.016 837.675, 521.655 839.308, 520.953 848.497, 517.008 857.685, 513.062 858.120, 512.875 867.308, 508.929 871.704, 507.042 871.704, 507.042 874.351, 505.905 874.760, 499.736 874.760, 499.735 " fill="none" stroke="rgb(0, 0, 0)" stroke-linecap="butt" stroke-linejoin="mitter" stroke-opacity="1.0" stroke-width="1.2000000476837158"/>
      <path d=" M 834.399, 514.246 843.587, 510.300 852.776, 506.355 861.823, 502.470 871.011, 498.524 871.598, 498.272 874.246, 497.135 874.654, 490.966 " fill="none" stroke="rgb(0, 0, 0)" stroke-linecap="butt" stroke-linejoin="mitter" stroke-opacity="1.0" stroke-width="1.2000000476837158"/>
      <path d=" M 467.960, 344.688 477.035, 348.887 477.841, 349.260 486.916, 353.459 487.722, 353.832 496.797, 358.031 505.873, 362.231 514.948, 366.430 524.024, 370.630 532.000, 374.320 541.075, 378.520 550.151, 382.719 559.226, 386.919 559.721, 387.147 568.796, 391.347 577.872, 395.546 586.947, 399.746 596.023, 403.945 605.098, 408.144 614.174, 412.344 623.249, 416.543 632.325, 420.743 638.921, 423.795 647.997, 427.994 648.802, 428.367 657.878, 432.566 666.953, 436.766 676.029, 440.965 685.104, 445.165 693.080, 448.855 702.156, 453.055 711.231, 457.254 720.307, 461.454 720.801, 461.682 729.877, 465.882 738.952, 470.081 748.028, 474.281 757.103, 478.480 766.179, 482.679 775.254, 486.879 784.330, 491.078 793.405, 495.278 800.002, 498.330 809.077, 502.529 809.883, 502.902 818.958, 507.102 828.034, 511.301 834.399, 514.246 834.505, 523.016 " fill="none" stroke="rgb(0, 0, 0)" stroke-linecap="butt" stroke-linejoin="mitter" stroke-opacity="1.0" stroke-width="1.2000000476837158"/>
      <path d=" M 619.341, 575.912 628.416, 580.111 629.221, 580.484 629.221, 580.484 638.297, 584.683 647.372, 588.883 656.448, 593.082 663.619, 596.400 663.619, 596.400 666.789, 595.039 675.977, 591.093 685.166, 587.147 694.355, 583.201 700.817, 580.426 700.817, 580.426 710.006, 576.480 710.592, 576.228 " fill="none" stroke="rgb(0, 0, 0)" stroke-linecap="butt" stroke-linejoin="mitter" stroke-opacity="1.0" stroke-width="1.2000000476837158"/>
      <path d=" M 297.180, 426.841 297.180, 426.842 306.255, 431.041 307.060, 431.414 307.060, 431.414 316.136, 435.613 325.211, 439.812 334.287, 444.012 341.457, 447.330 344.662, 448.813 351.338, 451.902 351.338, 451.902 360.414, 456.101 369.489, 460.301 378.565, 464.500 387.640, 468.700 388.940, 469.301 " fill="none" stroke="rgb(0, 0, 0)" stroke-linecap="butt" stroke-linejoin="mitter" stroke-opacity="1.0" stroke-width="1.2000000476837158"/>
      <path d=" M 297.074, 418.072 306.149, 422.271 306.954, 422.644 316.030, 426.843 316.835, 427.216 325.911, 431.415 334.986, 435.615 344.062, 439.814 353.137, 444.014 361.113, 447.704 370.189, 451.904 379.264, 456.103 388.340, 460.302 388.834, 460.531 397.910, 464.731 406.985, 468.930 416.061, 473.129 425.136, 477.329 434.212, 481.528 443.287, 485.728 452.363, 489.927 461.438, 494.127 468.035, 497.179 477.110, 501.378 477.916, 501.751 486.991, 505.950 496.067, 510.150 505.142, 514.349 514.218, 518.549 522.194, 522.239 531.269, 526.439 540.345, 530.638 549.420, 534.838 549.915, 535.066 558.990, 539.266 568.066, 543.465 577.141, 547.665 586.217, 551.864 595.292, 556.063 604.368, 560.263 613.443, 564.462 622.519, 568.662 629.115, 571.714 638.191, 575.913 638.996, 576.286 648.072, 580.485 657.147, 584.685 663.513, 587.630 " fill="none" stroke="rgb(0, 0, 0)" stroke-linecap="butt" stroke-linejoin="mitter" stroke-opacity="1.0" stroke-width="1.2000000476837158"/>
      <path d=" M 663.619, 596.400 663.513, 587.630 672.701, 583.684 681.890, 579.739 690.936, 575.854 700.125, 571.908 700.711, 571.656 709.900, 567.710 710.486, 567.458 " fill="none" stroke="rgb(0, 0, 0)" stroke-linecap="butt" stroke-linejoin="mitter" stroke-opacity="1.0" stroke-width="1.2000000476837158"/>
      <path d=" M 197.802, 475.510 197.802, 475.511 197.802, 475.511 200.965, 476.974 200.965, 476.974 210.040, 481.174 219.116, 485.373 223.831, 487.555 232.906, 491.754 235.362, 492.891 244.438, 497.090 245.243, 497.463 245.243, 497.463 254.318, 501.662 263.394, 505.861 268.109, 508.043 " fill="none" stroke="rgb(0, 0, 0)" stroke-linecap="butt" stroke-linejoin="mitter" stroke-opacity="1.0" stroke-width="1.2000000476837158"/>
      <path d=" M 513.245, 621.472 522.321, 625.672 523.126, 626.044 523.126, 626.044 532.202, 630.244 541.277, 634.443 545.992, 636.625 550.805, 638.852 560.805, 638.887 564.650, 638.900 573.839, 634.954 580.144, 632.247 589.332, 628.301 598.521, 624.355 599.638, 623.875 604.497, 621.789 604.497, 621.789 604.443, 617.379 604.391, 613.019 595.315, 608.820 586.240, 604.620 579.874, 601.675 570.799, 597.475 569.994, 597.103 560.918, 592.903 551.842, 588.704 542.767, 584.505 533.691, 580.305 524.616, 576.106 515.540, 571.906 507.985, 568.410 503.073, 566.137 493.997, 561.938 484.922, 557.738 475.846, 553.539 466.771, 549.340 463.707, 547.922 463.072, 547.628 458.795, 545.649 453.191, 543.056 444.116, 538.857 435.040, 534.657 425.965, 530.458 418.794, 527.140 409.718, 522.940 408.913, 522.568 399.837, 518.368 390.762, 514.169 381.686, 509.969 372.611, 505.770 363.535, 501.571 354.460, 497.371 346.904, 493.875 341.992, 491.602 332.917, 487.403 323.841, 483.203 314.766, 479.004 312.507, 477.959 303.432, 473.759 302.626, 473.387 302.626, 473.387 301.991, 473.093 297.714, 471.114 292.111, 468.521 283.035, 464.322 273.959, 460.122 264.884, 455.923 257.713, 452.605 248.638, 448.405 247.832, 448.033 " fill="none" stroke="rgb(0, 0, 0)" stroke-linecap="butt" stroke-linejoin="mitter" stroke-opacity="1.0" stroke-width="1.2000000476837158"/>
      <path d=" M 197.696, 466.741 200.859, 468.205 209.934, 472.404 210.740, 472.777 219.815, 476.976 228.891, 481.175 237.966, 485.375 247.042, 489.574 255.018, 493.265 264.093, 497.464 268.003, 499.273 277.078, 503.473 286.154, 507.672 295.229, 511.872 304.305, 516.071 313.380, 520.270 322.456, 524.470 331.531, 528.669 340.607, 532.869 349.682, 537.068 358.758, 541.267 361.939, 542.740 371.015, 546.939 371.820, 547.312 380.896, 551.511 389.971, 555.710 399.047, 559.910 408.122, 564.109 416.098, 567.800 425.174, 571.999 429.083, 573.808 438.159, 578.008 447.234, 582.207 456.310, 586.407 465.385, 590.606 474.461, 594.805 483.536, 599.005 492.612, 603.204 501.687, 607.404 510.763, 611.603 519.839, 615.802 523.020, 617.275 532.096, 621.474 532.901, 621.847 541.976, 626.046 550.699, 630.082 560.699, 630.117 564.544, 630.130 570.263, 627.675 579.452, 623.729 588.640, 619.783 589.757, 619.303 598.945, 615.358 604.391, 613.019 " fill="none" stroke="rgb(0, 0, 0)" stroke-linecap="butt" stroke-linejoin="mitter" stroke-opacity="1.0" stroke-width="1.2000000476837158"/>
      <path d=" M 198.390, 524.142 198.390, 524.143 201.553, 525.606 210.628, 529.806 219.704, 534.005 228.779, 538.204 235.950, 541.522 245.138, 537.577 254.327, 533.631 258.570, 531.808 267.759, 527.863 268.345, 527.611 268.345, 527.611 " fill="none" stroke="rgb(0, 0, 0)" stroke-linecap="butt" stroke-linejoin="mitter" stroke-opacity="1.0" stroke-width="1.2000000476837158"/>
      <path d=" M 197.908, 484.280 206.984, 488.480 216.059, 492.679 225.135, 496.879 234.210, 501.078 235.468, 501.660 " fill="none" stroke="rgb(0, 0, 0)" stroke-linecap="butt" stroke-linejoin="mitter" stroke-opacity="1.0" stroke-width="1.2000000476837158"/>
      <path d=" M 235.950, 541.522 235.829, 531.523 235.708, 521.524 235.599, 512.458 235.478, 502.459 235.468, 501.660 235.468, 501.660 244.657, 497.714 245.243, 497.463 " fill="none" stroke="rgb(0, 0, 0)" stroke-linecap="butt" stroke-linejoin="mitter" stroke-opacity="1.0" stroke-width="1.2000000476837158"/>
      <path d=" M 352.401, 566.505 352.507, 575.275 352.628, 585.274 352.749, 595.273 352.752, 595.569 361.828, 599.769 370.903, 603.968 379.979, 608.167 389.054, 612.367 397.030, 616.057 406.219, 612.112 415.407, 608.166 419.651, 606.343 428.839, 602.398 429.426, 602.146 " fill="none" stroke="rgb(0, 0, 0)" stroke-linecap="butt" stroke-linejoin="mitter" stroke-opacity="1.0" stroke-width="1.2000000476837158"/>
      <path d=" M 352.271, 555.707 361.346, 559.906 370.422, 564.106 379.497, 568.305 388.573, 572.505 396.549, 576.195 " fill="none" stroke="rgb(0, 0, 0)" stroke-linecap="butt" stroke-linejoin="mitter" stroke-opacity="1.0" stroke-width="1.2000000476837158"/>
      <path d=" M 397.030, 616.057 396.909, 606.058 396.789, 596.059 396.679, 586.993 396.558, 576.994 396.549, 576.195 396.549, 576.195 " fill="none" stroke="rgb(0, 0, 0)" stroke-linecap="butt" stroke-linejoin="mitter" stroke-opacity="1.0" stroke-width="1.2000000476837158"/>
      <path d=" M 869.854, 556.720 874.939, 554.537 875.348, 548.367 " fill="none" stroke="rgb(0, 0, 0)" stroke-linecap="butt" stroke-linejoin="mitter" stroke-opacity="1.0" stroke-width="1.2000000476837158"/>
      <path d=" M 849.776, 574.157 849.670, 565.388 849.670, 565.388 840.595, 561.188 831.519, 556.989 822.444, 552.789 813.368, 548.590 805.392, 544.899 804.758, 544.606 " fill="none" stroke="rgb(0, 0, 0)" stroke-linecap="butt" stroke-linejoin="mitter" stroke-opacity="1.0" stroke-width="1.2000000476837158"/>
      <path d=" M 805.386, 544.336 805.392, 544.899 805.392, 544.899 814.468, 549.099 823.543, 553.298 832.619, 557.498 841.694, 561.697 849.670, 565.388 849.670, 565.388 858.859, 561.442 868.048, 557.496 869.854, 556.720 872.291, 555.674 874.939, 554.537 875.348, 548.367 875.348, 548.367 " fill="none" stroke="rgb(0, 0, 0)" stroke-linecap="butt" stroke-linejoin="mitter" stroke-opacity="1.0" stroke-width="1.2000000476837158"/>
      <path d=" M 849.189, 525.525 858.377, 521.580 867.566, 517.634 874.457, 514.674 874.473, 514.439 874.866, 508.505 " fill="none" stroke="rgb(0, 0, 0)" stroke-linecap="butt" stroke-linejoin="mitter" stroke-opacity="1.0" stroke-width="1.2000000476837158"/>
      <path d=" M 849.670, 565.388 849.550, 555.388 849.429, 545.389 849.319, 536.324 849.198, 526.324 849.189, 525.525 849.189, 525.525 " fill="none" stroke="rgb(0, 0, 0)" stroke-linecap="butt" stroke-linejoin="mitter" stroke-opacity="1.0" stroke-width="1.2000000476837158"/>
      <path d=" M 664.206, 645.032 664.206, 645.032 " fill="none" stroke="rgb(0, 0, 0)" stroke-linecap="butt" stroke-linejoin="mitter" stroke-opacity="1.0" stroke-width="1.2000000476837158"/>
      <path d=" M 619.293, 624.250 628.369, 628.449 637.444, 632.649 646.520, 636.848 655.595, 641.047 664.206, 645.032 664.312, 653.802 " fill="none" stroke="rgb(0, 0, 0)" stroke-linecap="butt" stroke-linejoin="mitter" stroke-opacity="1.0" stroke-width="1.2000000476837158"/>
      <path d=" M 198.390, 524.143 207.465, 528.342 216.541, 532.541 225.616, 536.741 234.692, 540.940 243.767, 545.140 252.843, 549.339 261.918, 553.539 270.994, 557.738 280.069, 561.937 289.145, 566.137 298.220, 570.336 307.296, 574.536 316.371, 578.735 325.447, 582.934 334.522, 587.134 343.598, 591.333 352.673, 595.533 361.749, 599.732 370.824, 603.931 379.900, 608.131 388.975, 612.330 398.051, 616.530 407.126, 620.729 416.202, 624.929 425.277, 629.128 434.353, 633.327 443.428, 637.527 452.504, 641.726 461.579, 645.926 470.655, 650.125 479.730, 654.324 488.806, 658.524 497.882, 662.723 506.957, 666.923 516.033, 671.122 525.108, 675.322 534.184, 679.521 543.259, 683.720 551.393, 687.484 551.393, 687.484 " fill="none" stroke="rgb(0, 0, 0)" stroke-linecap="butt" stroke-linejoin="mitter" stroke-opacity="1.0" stroke-width="1.2000000476837158"/>
      <path d=" M 513.482, 641.040 513.588, 649.810 513.708, 659.809 513.829, 669.808 513.833, 670.104 522.908, 674.304 531.984, 678.503 541.059, 682.702 550.135, 686.902 551.393, 687.484 551.393, 687.484 561.393, 687.519 565.238, 687.532 572.104, 684.584 580.731, 680.879 589.920, 676.933 590.506, 676.681 " fill="none" stroke="rgb(0, 0, 0)" stroke-linecap="butt" stroke-linejoin="mitter" stroke-opacity="1.0" stroke-width="1.2000000476837158"/>
      <path d=" M 513.351, 630.242 522.427, 634.441 531.502, 638.641 540.578, 642.840 549.653, 647.040 550.911, 647.622 560.911, 647.656 564.756, 647.670 573.945, 643.724 583.133, 639.778 590.025, 636.819 " fill="none" stroke="rgb(0, 0, 0)" stroke-linecap="butt" stroke-linejoin="mitter" stroke-opacity="1.0" stroke-width="1.2000000476837158"/>
      <path d=" M 619.921, 623.980 619.928, 624.544 629.004, 628.743 638.079, 632.942 647.155, 637.142 656.230, 641.341 664.206, 645.032 664.206, 645.032 673.395, 641.086 682.583, 637.140 690.439, 633.767 699.627, 629.821 701.405, 629.058 710.593, 625.112 711.180, 624.860 " fill="none" stroke="rgb(0, 0, 0)" stroke-linecap="butt" stroke-linejoin="mitter" stroke-opacity="1.0" stroke-width="1.2000000476837158"/>
      <path d=" M 664.206, 645.032 664.085, 635.033 663.964, 625.033 663.844, 615.034 663.724, 605.170 663.724, 605.170 666.267, 604.078 675.455, 600.132 679.204, 598.522 688.393, 594.576 697.582, 590.630 706.770, 586.684 710.698, 584.998 " fill="none" stroke="rgb(0, 0, 0)" stroke-linecap="butt" stroke-linejoin="mitter" stroke-opacity="1.0" stroke-width="1.2000000476837158"/>
      <path d=" M 197.802, 475.511 197.802, 475.511 " fill="none" stroke="rgb(0, 0, 0)" stroke-linecap="butt" stroke-linejoin="mitter" stroke-opacity="1.0" stroke-width="1.2000000476837158"/>
      <path d=" M 235.362, 492.891 235.468, 501.660 " fill="none" stroke="rgb(0, 0, 0)" stroke-linecap="butt" stroke-linejoin="mitter" stroke-opacity="1.0" stroke-width="1.2000000476837158"/>
      <path d=" M 197.908, 484.280 206.984, 488.480 216.059, 492.679 223.937, 496.324 233.012, 500.524 235.468, 501.660 " fill="none" stroke="rgb(0, 0, 0)" stroke-linecap="butt" stroke-linejoin="mitter" stroke-opacity="1.0" stroke-width="1.2000000476837158"/>
      <path d=" M 341.949, 488.020 341.992, 491.602 " fill="none" stroke="rgb(0, 0, 0)" stroke-linecap="butt" stroke-linejoin="mitter" stroke-opacity="1.0" stroke-width="1.2000000476837158"/>
      <path d=" M 296.104, 466.806 292.111, 468.521 " fill="none" stroke="rgb(0, 0, 0)" stroke-linecap="butt" stroke-linejoin="mitter" stroke-opacity="1.0" stroke-width="1.2000000476837158"/>
      <path d=" M 341.457, 447.330 338.274, 448.697 " fill="none" stroke="rgb(0, 0, 0)" stroke-linecap="butt" stroke-linejoin="mitter" stroke-opacity="1.0" stroke-width="1.2000000476837158"/>
      <path d=" M 348.155, 453.269 351.338, 451.902 " fill="none" stroke="rgb(0, 0, 0)" stroke-linecap="butt" stroke-linejoin="mitter" stroke-opacity="1.0" stroke-width="1.2000000476837158"/>
      <path d=" M 348.155, 453.269 351.338, 451.902 " fill="none" stroke="rgb(0, 0, 0)" stroke-linecap="butt" stroke-linejoin="mitter" stroke-opacity="1.0" stroke-width="1.2000000476837158"/>
      <path d=" M 301.991, 473.093 305.985, 471.378 " fill="none" stroke="rgb(0, 0, 0)" stroke-linecap="butt" stroke-linejoin="mitter" stroke-opacity="1.0" stroke-width="1.2000000476837158"/>
      <path d=" M 346.904, 493.875 350.897, 492.160 " fill="none" stroke="rgb(0, 0, 0)" stroke-linecap="butt" stroke-linejoin="mitter" stroke-opacity="1.0" stroke-width="1.2000000476837158"/>
      <path d=" M 400.630, 574.443 406.324, 571.998 " fill="none" stroke="rgb(0, 0, 0)" stroke-linecap="butt" stroke-linejoin="mitter" stroke-opacity="1.0" stroke-width="1.2000000476837158"/>
      <path d=" M 503.030, 562.555 503.073, 566.137 " fill="none" stroke="rgb(0, 0, 0)" stroke-linecap="butt" stroke-linejoin="mitter" stroke-opacity="1.0" stroke-width="1.2000000476837158"/>
      <path d=" M 412.906, 520.853 408.913, 522.568 " fill="none" stroke="rgb(0, 0, 0)" stroke-linecap="butt" stroke-linejoin="mitter" stroke-opacity="1.0" stroke-width="1.2000000476837158"/>
      <path d=" M 527.080, 380.764 527.123, 384.347 " fill="none" stroke="rgb(0, 0, 0)" stroke-linecap="butt" stroke-linejoin="mitter" stroke-opacity="1.0" stroke-width="1.2000000476837158"/>
      <path d=" M 457.184, 541.341 453.191, 543.056 " fill="none" stroke="rgb(0, 0, 0)" stroke-linecap="butt" stroke-linejoin="mitter" stroke-opacity="1.0" stroke-width="1.2000000476837158"/>
      <path d=" M 502.538, 521.865 499.355, 523.232 " fill="none" stroke="rgb(0, 0, 0)" stroke-linecap="butt" stroke-linejoin="mitter" stroke-opacity="1.0" stroke-width="1.2000000476837158"/>
      <path d=" M 509.236, 527.804 512.419, 526.437 " fill="none" stroke="rgb(0, 0, 0)" stroke-linecap="butt" stroke-linejoin="mitter" stroke-opacity="1.0" stroke-width="1.2000000476837158"/>
      <path d=" M 509.236, 527.804 512.419, 526.437 " fill="none" stroke="rgb(0, 0, 0)" stroke-linecap="butt" stroke-linejoin="mitter" stroke-opacity="1.0" stroke-width="1.2000000476837158"/>
      <path d=" M 463.072, 547.628 467.065, 545.913 " fill="none" stroke="rgb(0, 0, 0)" stroke-linecap="butt" stroke-linejoin="mitter" stroke-opacity="1.0" stroke-width="1.2000000476837158"/>
      <path d=" M 507.985, 568.410 511.978, 566.695 " fill="none" stroke="rgb(0, 0, 0)" stroke-linecap="butt" stroke-linejoin="mitter" stroke-opacity="1.0" stroke-width="1.2000000476837158"/>
      <path d=" M 352.165, 546.937 361.240, 551.137 362.045, 551.509 362.045, 551.509 371.121, 555.709 380.197, 559.908 384.911, 562.090 393.987, 566.289 396.443, 567.426 405.518, 571.625 406.324, 571.998 406.324, 571.998 415.399, 576.197 424.475, 580.396 429.189, 582.578 " fill="none" stroke="rgb(0, 0, 0)" stroke-linecap="butt" stroke-linejoin="mitter" stroke-opacity="1.0" stroke-width="1.2000000476837158"/>
      <path d=" M 512.344, 373.946 508.351, 375.661 " fill="none" stroke="rgb(0, 0, 0)" stroke-linecap="butt" stroke-linejoin="mitter" stroke-opacity="1.0" stroke-width="1.2000000476837158"/>
      <path d=" M 518.231, 380.233 522.225, 378.518 " fill="none" stroke="rgb(0, 0, 0)" stroke-linecap="butt" stroke-linejoin="mitter" stroke-opacity="1.0" stroke-width="1.2000000476837158"/>
      <path d=" M 572.104, 684.584 581.292, 680.638 590.506, 676.681 " fill="none" stroke="rgb(0, 0, 0)" stroke-linecap="butt" stroke-linejoin="mitter" stroke-opacity="1.0" stroke-width="1.2000000476837158"/>
      <path d=" M 388.975, 472.157 379.899, 467.958 370.824, 463.758 361.748, 459.559 352.673, 455.359 348.155, 453.269 348.155, 453.269 344.697, 451.669 338.274, 448.697 329.199, 444.497 320.123, 440.298 311.048, 436.099 303.877, 432.781 303.877, 432.781 294.801, 428.581 293.996, 428.208 " fill="none" stroke="rgb(0, 0, 0)" stroke-linecap="butt" stroke-linejoin="mitter" stroke-opacity="1.0" stroke-width="1.2000000476837158"/>
      <path d=" M 550.055, 546.692 540.980, 542.493 531.904, 538.293 522.829, 534.094 513.753, 529.894 509.236, 527.804 509.236, 527.804 505.777, 526.204 499.355, 523.232 490.279, 519.032 481.204, 514.833 472.128, 510.634 464.957, 507.316 464.957, 507.316 455.882, 503.116 455.077, 502.744 " fill="none" stroke="rgb(0, 0, 0)" stroke-linecap="butt" stroke-linejoin="mitter" stroke-opacity="1.0" stroke-width="1.2000000476837158"/>
      <path d=" M 458.260, 501.377 467.335, 505.576 468.141, 505.949 468.141, 505.949 477.216, 510.148 486.292, 514.347 495.367, 518.547 502.538, 521.865 505.743, 523.348 512.419, 526.437 512.419, 526.437 521.494, 530.636 530.570, 534.836 539.645, 539.035 548.721, 543.235 550.021, 543.836 " fill="none" stroke="rgb(0, 0, 0)" stroke-linecap="butt" stroke-linejoin="mitter" stroke-opacity="1.0" stroke-width="1.2000000476837158"/>
      <path d=" M 573.987, 595.388 569.994, 597.103 " fill="none" stroke="rgb(0, 0, 0)" stroke-linecap="butt" stroke-linejoin="mitter" stroke-opacity="1.0" stroke-width="1.2000000476837158"/>
      <path d=" M 582.983, 447.817 579.743, 449.208 " fill="none" stroke="rgb(0, 0, 0)" stroke-linecap="butt" stroke-linejoin="mitter" stroke-opacity="1.0" stroke-width="1.2000000476837158"/>
      <path d=" M 688.160, 455.300 688.204, 458.882 " fill="none" stroke="rgb(0, 0, 0)" stroke-linecap="butt" stroke-linejoin="mitter" stroke-opacity="1.0" stroke-width="1.2000000476837158"/>
      <path d=" M 609.518, 628.447 618.707, 624.502 619.293, 624.250 619.921, 623.980 629.110, 620.034 638.298, 616.088 647.487, 612.142 656.492, 608.276 663.724, 605.170 666.267, 604.078 666.895, 603.808 676.083, 599.862 679.204, 598.522 688.393, 594.576 697.582, 590.630 706.770, 586.684 710.698, 584.998 " fill="none" stroke="rgb(0, 0, 0)" stroke-linecap="butt" stroke-linejoin="mitter" stroke-opacity="1.0" stroke-width="1.2000000476837158"/>
      <path d=" M 690.439, 633.767 699.627, 629.821 708.816, 625.875 711.180, 624.860 " fill="none" stroke="rgb(0, 0, 0)" stroke-linecap="butt" stroke-linejoin="mitter" stroke-opacity="1.0" stroke-width="1.2000000476837158"/>
      <path d=" M 673.424, 448.481 669.431, 450.196 " fill="none" stroke="rgb(0, 0, 0)" stroke-linecap="butt" stroke-linejoin="mitter" stroke-opacity="1.0" stroke-width="1.2000000476837158"/>
      <path d=" M 679.312, 454.768 683.305, 453.053 " fill="none" stroke="rgb(0, 0, 0)" stroke-linecap="butt" stroke-linejoin="mitter" stroke-opacity="1.0" stroke-width="1.2000000476837158"/>
      <path d=" M 633.902, 474.268 637.142, 472.877 " fill="none" stroke="rgb(0, 0, 0)" stroke-linecap="butt" stroke-linejoin="mitter" stroke-opacity="1.0" stroke-width="1.2000000476837158"/>
      <path d=" M 559.870, 399.500 550.794, 395.300 541.719, 391.101 532.643, 386.901 527.123, 384.347 518.231, 380.233 509.156, 376.033 508.351, 375.661 499.275, 371.461 490.200, 367.262 482.845, 363.859 473.953, 359.744 464.878, 355.545 464.073, 355.172 " fill="none" stroke="rgb(0, 0, 0)" stroke-linecap="butt" stroke-linejoin="mitter" stroke-opacity="1.0" stroke-width="1.2000000476837158"/>
      <path d=" M 720.950, 474.035 711.875, 469.835 702.799, 465.636 693.724, 461.436 688.204, 458.882 679.312, 454.768 676.672, 453.546 669.431, 450.196 660.356, 445.996 651.280, 441.797 643.926, 438.394 635.034, 434.279 625.958, 430.080 625.153, 429.707 " fill="none" stroke="rgb(0, 0, 0)" stroke-linecap="butt" stroke-linejoin="mitter" stroke-opacity="1.0" stroke-width="1.2000000476837158"/>
      <path d=" M 629.146, 427.993 638.222, 432.192 639.027, 432.565 643.882, 434.811 652.958, 439.011 662.033, 443.210 671.109, 447.409 673.424, 448.481 676.629, 449.964 683.305, 453.053 688.160, 455.300 697.236, 459.499 706.311, 463.698 715.387, 467.898 720.907, 470.452 " fill="none" stroke="rgb(0, 0, 0)" stroke-linecap="butt" stroke-linejoin="mitter" stroke-opacity="1.0" stroke-width="1.2000000476837158"/>
      <path d=" M 744.063, 522.352 740.824, 523.743 " fill="none" stroke="rgb(0, 0, 0)" stroke-linecap="butt" stroke-linejoin="mitter" stroke-opacity="1.0" stroke-width="1.2000000476837158"/>
    </g>
  </g>
</svg>
