<?xml version="1.0" encoding="UTF-8" standalone="no"?>
<!-- Created with Inkscape (http://www.inkscape.org/) -->

<svg
   xmlns:dc="http://purl.org/dc/elements/1.1/"
   xmlns:cc="http://creativecommons.org/ns#"
   xmlns:rdf="http://www.w3.org/1999/02/22-rdf-syntax-ns#"
   xmlns:svg="http://www.w3.org/2000/svg"
   xmlns="http://www.w3.org/2000/svg"
   xmlns:sodipodi="http://sodipodi.sourceforge.net/DTD/sodipodi-0.dtd"
   xmlns:inkscape="http://www.inkscape.org/namespaces/inkscape"
   width="2125.9841"
   height="2125.9841"
   id="svg9912"
   version="1.1"
   inkscape:version="0.47 r22583"
   sodipodi:docname="boukje-pilipili-coupe.svg">
  <defs
     id="defs9914">
    <inkscape:perspective
       sodipodi:type="inkscape:persp3d"
       inkscape:vp_x="0 : 526.18109 : 1"
       inkscape:vp_y="0 : 1000 : 0"
       inkscape:vp_z="744.09448 : 526.18109 : 1"
       inkscape:persp3d-origin="372.04724 : 350.78739 : 1"
       id="perspective9920" />
    <inkscape:perspective
       id="perspective9930"
       inkscape:persp3d-origin="0.5 : 0.33333333 : 1"
       inkscape:vp_z="1 : 0.5 : 1"
       inkscape:vp_y="0 : 1000 : 0"
       inkscape:vp_x="0 : 0.5 : 1"
       sodipodi:type="inkscape:persp3d" />
    <inkscape:perspective
       id="perspective9973"
       inkscape:persp3d-origin="0.5 : 0.33333333 : 1"
       inkscape:vp_z="1 : 0.5 : 1"
       inkscape:vp_y="0 : 1000 : 0"
       inkscape:vp_x="0 : 0.5 : 1"
       sodipodi:type="inkscape:persp3d" />
    <inkscape:perspective
       id="perspective2841"
       inkscape:persp3d-origin="0.5 : 0.33333333 : 1"
       inkscape:vp_z="1 : 0.5 : 1"
       inkscape:vp_y="0 : 1000 : 0"
       inkscape:vp_x="0 : 0.5 : 1"
       sodipodi:type="inkscape:persp3d" />
    <inkscape:perspective
       id="perspective2841-3"
       inkscape:persp3d-origin="0.5 : 0.33333333 : 1"
       inkscape:vp_z="1 : 0.5 : 1"
       inkscape:vp_y="0 : 1000 : 0"
       inkscape:vp_x="0 : 0.5 : 1"
       sodipodi:type="inkscape:persp3d" />
    <inkscape:perspective
       id="perspective2841-0"
       inkscape:persp3d-origin="0.5 : 0.33333333 : 1"
       inkscape:vp_z="1 : 0.5 : 1"
       inkscape:vp_y="0 : 1000 : 0"
       inkscape:vp_x="0 : 0.5 : 1"
       sodipodi:type="inkscape:persp3d" />
    <inkscape:perspective
       id="perspective2885"
       inkscape:persp3d-origin="0.5 : 0.33333333 : 1"
       inkscape:vp_z="1 : 0.5 : 1"
       inkscape:vp_y="0 : 1000 : 0"
       inkscape:vp_x="0 : 0.5 : 1"
       sodipodi:type="inkscape:persp3d" />
    <inkscape:perspective
       id="perspective3018"
       inkscape:persp3d-origin="0.5 : 0.33333333 : 1"
       inkscape:vp_z="1 : 0.5 : 1"
       inkscape:vp_y="0 : 1000 : 0"
       inkscape:vp_x="0 : 0.5 : 1"
       sodipodi:type="inkscape:persp3d" />
  </defs>
  <sodipodi:namedview
     id="base"
     pagecolor="#ffffff"
     bordercolor="#666666"
     borderopacity="1.0"
     inkscape:pageopacity="0.0"
     inkscape:pageshadow="2"
     inkscape:zoom="0.12996038"
     inkscape:cx="1757.8425"
     inkscape:cy="1054.2677"
     inkscape:document-units="mm"
     inkscape:current-layer="layer1"
     showgrid="false"
     units="mm"
     inkscape:object-paths="true"
     inkscape:object-nodes="true"
     inkscape:snap-intersection-paths="true"
     inkscape:window-width="1024"
     inkscape:window-height="539"
     inkscape:window-x="0"
     inkscape:window-y="20"
     inkscape:window-maximized="1"
     showguides="true"
     inkscape:guide-bbox="true" />
  <metadata
     id="metadata9917">
    <rdf:RDF>
      <cc:Work
         rdf:about="">
        <dc:format>image/svg+xml</dc:format>
        <dc:type
           rdf:resource="http://purl.org/dc/dcmitype/StillImage" />
      </cc:Work>
    </rdf:RDF>
  </metadata>
  <g
     inkscape:label="Calque 1"
     inkscape:groupmode="layer"
     id="layer1"
     transform="translate(0,1073.6221)">
    <path
       id="path4293-4-6"
       style="opacity:0.67094014000000002;fill:#cccccc;stroke:#000000;stroke-width:3.54330707000000000;stroke-miterlimit:4;stroke-opacity:1;stroke-dasharray:none"
       d="m 939.18032,1039.7918 0,-151.96874 -78.125,-0.062 -0.031,-39 155.90618,0.031 0.031,38.9687 0,0.062 184.4375,0 0,-744.24995 -262.24998,0 0,-77.875003 -0.1563,0 0,0.031 -77.9687,-0.031 0.031,-38.9687 77.9375,0 0.1562,0 0.031,-308.031307 -0.031,-0.031 -131.125,0 0,77.9688 -38.9687,0 0,-77.9375 -529.53106,917.15601 699.65616,403.93749 z m -63.6875,-87.90624 c -7.3385,0 -13.2813,-5.9428 -13.2813,-13.2812 0,-7.3385 5.9428,-13.2813 13.2813,-13.2813 7.3384,0 13.2812,5.9428 13.2812,13.2813 0,7.3384 -5.9428,13.2812 -13.2812,13.2812 z m -159.7188,-195.25 -39,0 0.031,-155.90625 38.9688,0.0312 0,155.875 0,5e-5 z m -75.75,-226.84375 c -7.3384,0 -13.2812,-5.94282 -13.2812,-13.28125 0,-7.33843 5.9428,-13.28125 13.2812,-13.28125 7.3384,0 13.2813,5.94282 13.2813,13.28125 0,7.33843 -5.9429,13.28125 -13.2813,13.28125 z m 75.75,-99.125 -39,0 0,-155.90625 38.9688,0 0.031,155.90625 0,0 z M 640.05532,71.729357 c -7.3385,0 -13.2813,-5.9429 -13.2813,-13.2813 0,-7.3384 5.9428,-13.281299 13.2813,-13.281299 7.3384,0 13.2812,5.942899 13.2812,13.281299 0,7.3384 -5.9428,13.2813 -13.2812,13.2813 z m 167.8437,-6 -39,0 0,-39 39,0 0,39 z m 0,-92.156297 -39,0 0,-77.93746 39,0 0,77.93746 z m -521.25181,-1034.62486 0,151.96867 78.12495,0.0625 0.0312,39 -155.90615,-0.0312 -0.0312,-38.96875 0,-0.0625 -184.4375,0 0,744.25 262.25,0 0,77.875 0.15625,0 0,-0.031 77.96875,0.031 -0.0312,38.968705 -77.9375,0 -0.15625,0 -0.0312,308.031295 0.0312,0.031 131.125,0 0,-77.9688 38.96875,0 0,77.9375 529.53111,-917.15595 -699.65616,-403.93737 z m 63.6875,87.90617 c 7.33843,0 13.28125,5.9428 13.28125,13.2813 0,7.3384 -5.94282,13.2812 -13.28125,13.2812 -7.33843,0 -13.28125,-5.9428 -13.28125,-13.2812 0,-7.3385 5.94282,-13.2813 13.28125,-13.2813 z m 159.71875,195.25 39,0 -0.0312,155.90625 -38.96875,-0.0312 0,-155.875 -5e-5,-5e-5 z m 75.75,226.84375 c 7.33843,0 13.28125,5.94282 13.28125,13.28125 0,7.33843 -5.94282,13.28125 -13.28125,13.28125 -7.33843,0 -13.28125,-5.94282 -13.28125,-13.28125 0,-7.33843 5.94282,-13.28125 13.28125,-13.28125 z m -75.75,99.125 39,0 0,155.90625 -38.96875,0 -0.0312,-155.90625 -5e-5,0 z m 75.71875,358.93745 c 7.33843,0 13.28125,5.9429 13.28125,13.2813 0,7.3384 -5.94282,13.2813 -13.28125,13.2813 -7.33843,0 -13.28125,-5.9429 -13.28125,-13.2813 0,-7.3384 5.94282,-13.2813 13.28125,-13.2813 z m -167.84375,6 39,0 0,39.000005 -39,0 0,-39.000005 z m 0,92.1563064 39,0 0,77.9374996 -39,0 0,-77.9374996 z m 783.68964,-896.1562064 0,-38.9687 39.0625,0 0,-53.1563 -39.0625,0 0,-77.93747 899.9375,0 0,77.93747 -39.0313,0 0,53.1563 39.0313,0 0,38.9687 -184.1875,0 0,-38.9687 -155.9062,0 0,38.9687 -219.7188,0 0,-38.9687 -155.9062,0 0,38.9687 -184.2188,0 z m 0,701.5627 0,-393.50005 0,-77.9688 39.0625,0 0,-99 -39.0625,0 0,-77.9375 39.0625,0 0,-53.1563 145.1563,0 0,-38.99996 155.9062,0 0,38.99996 219.7188,0 0,-38.99996 155.9062,0 0,38.99996 145.1562,0 0,53.1563 39.0313,0 0,77.9375 -39.0313,0 0,99 39.0313,0 0,77.9688 0,393.50005 -899.9375,0 z m 899.7187,889.12498 -38.875,0 0,-184.5313 -0.1875,0 -145.1563,0 0,39.5 -155.9062,0 0,-39.5 -219.7188,0 0,39.5 -155.9062,0 0,-0.5625 0,-38.9375 -145.1563,0 -0.094,0.062 0,184.4688 -38.9375,0 0,155.90619 39.4687,0 0,184.18756 821,0 0,-184.18756 39.4688,0 0,-155.90619 0,5e-4 z m -860.7187,-889.125 0,130.5624 -39.0625,0 0,155.875 39.0625,0 0,170.0938 -39.0625,0 0,155.9062 39.0625,0 0,92.1563 145.1563,0 0,39.5 155.9062,0 0,-39.5 219.7188,0 0,39.5 155.9062,0 0,-0.5625 0,-38.9375 145.1562,0 0,-92.1563 39.0938,0 0,-155.9062 -0.062,0 -39.0313,0 0,-170.0938 39.0313,0 0.062,0 0,-155.875 -39.0938,0 0,-130.5624 -821.8437,0 z" />
  </g>
</svg>
