<?xml version="1.0" encoding="UTF-8" standalone="no"?>
<!-- Created with Inkscape (http://www.inkscape.org/) -->

<svg
   xmlns:dc="http://purl.org/dc/elements/1.1/"
   xmlns:cc="http://creativecommons.org/ns#"
   xmlns:rdf="http://www.w3.org/1999/02/22-rdf-syntax-ns#"
   xmlns:svg="http://www.w3.org/2000/svg"
   xmlns="http://www.w3.org/2000/svg"
   xmlns:sodipodi="http://sodipodi.sourceforge.net/DTD/sodipodi-0.dtd"
   xmlns:inkscape="http://www.inkscape.org/namespaces/inkscape"
   width="213"
   height="33.197788"
   id="svg2"
   version="1.1"
   inkscape:version="0.48.3.1 r9886"
   sodipodi:docname="logo.svg">
  <defs
     id="defs4" />
  <sodipodi:namedview
     id="base"
     pagecolor="#ffffff"
     bordercolor="#666666"
     borderopacity="1.0"
     inkscape:pageopacity="0.0"
     inkscape:pageshadow="2"
     inkscape:zoom="1.0994648"
     inkscape:cx="513.08958"
     inkscape:cy="29.713169"
     inkscape:document-units="px"
     inkscape:current-layer="layer1"
     showgrid="false"
     showguides="true"
     inkscape:guide-bbox="true"
     inkscape:window-width="1438"
     inkscape:window-height="837"
     inkscape:window-x="0"
     inkscape:window-y="27"
     inkscape:window-maximized="1"
     inkscape:snap-grids="true"
     inkscape:snap-to-guides="false"
     fit-margin-top="0"
     fit-margin-left="0"
     fit-margin-right="0"
     fit-margin-bottom="0">
    <sodipodi:guide
       orientation="0,1"
       position="2485.0795,8403.527"
       id="guide3025" />
    <inkscape:grid
       type="xygrid"
       id="grid3177"
       empspacing="5"
       visible="true"
       enabled="true"
       snapvisiblegridlinesonly="true"
       originx="3126.8652px"
       originy="8060.4913px" />
  </sodipodi:namedview>
  <metadata
     id="metadata7">
    <rdf:RDF>
      <cc:Work
         rdf:about="">
        <dc:format>image/svg+xml</dc:format>
        <dc:type
           rdf:resource="http://purl.org/dc/dcmitype/StillImage" />
        <dc:title />
      </cc:Work>
    </rdf:RDF>
  </metadata>
  <g
     inkscape:label="Calque 1"
     inkscape:groupmode="layer"
     id="layer1"
     transform="translate(3126.8652,-9079.6557)">
    <path
       inkscape:export-ydpi="22.209999"
       inkscape:export-xdpi="22.209999"
       inkscape:export-filename="/home/raphael/Bureau/libreobjet-logo.png"
       inkscape:connector-curvature="0"
       id="path4220"
       d="m -3073.5638,9088.4107 0,1.648 3.296,1.648 0,9.888 -3.296,1.6479 0,1.648 11.536,0 0,-1.648 -3.2961,-1.6479 0,-9.888 0,-3.296 z"
       style="fill:#1a1a1a;stroke:none"
       sodipodi:nodetypes="cccccccccccc" />
    <path
       inkscape:export-ydpi="22.209999"
       inkscape:export-xdpi="22.209999"
       inkscape:export-filename="/home/raphael/Bureau/libreobjet-logo.png"
       sodipodi:nodetypes="ccccccsssccczzszz"
       inkscape:connector-curvature="0"
       style="fill:#1a1a1a;stroke:none"
       d="m -3062.5223,9080.1708 -0.01,1.6995 3.3042,1.5965 0,21.4238 1.648,0 1.648,-1.648 c 0,0 1.648,1.907 4.944,1.907 3.296,0 7.4159,-1.8554 7.4159,-8.4474 0,-6.592 -4.1199,-8.2915 -5.7679,-8.2915 -3.296,0 -4.944,1.648 -4.944,1.648 l 0,-9.8879 z m 10.712,10.7634 c 2.472,0 3.296,2.472 3.296,5.768 0,3.296 -0.824,6.592 -3.296,6.592 -2.472,0 -2.8016,-3.296 -2.8016,-6.592 0,-3.296 0.3296,-5.768 2.8016,-5.768 z"
       id="path4222" />
    <path
       inkscape:connector-curvature="0"
       id="path4224"
       d="m -3029.3899,9088.3592 c -2.5258,0.5461 -3.743,2.0438 -4.9517,3.3192 l 0,-3.2677 -8.24,0 0,1.648 3.296,1.648 0,9.888 -3.296,1.6479 0,1.648 11.536,0 0,-1.648 -3.296,-1.6479 0,-5.2247 0.01,0.2292 c 0,-2.8423 1.3448,-4.3095 2.8892,-5.5208 0,0.054 -0.01,0.1097 -0.01,0.1648 0,1.5928 1.2912,2.884 2.884,2.884 1.5928,0 2.884,-1.2912 2.884,-2.884 0,-1.4613 -1.0858,-2.6688 -2.4952,-2.8582 0.01,-0.01 0.016,-0.017 0.023,-0.026 l -0.412,0 -0.824,0 z"
       style="fill:#1a1a1a;stroke:none" />
    <g
       inkscape:export-ydpi="22.209999"
       inkscape:export-xdpi="22.209999"
       inkscape:export-filename="/home/raphael/Bureau/libreobjet-logo.png"
       style="fill:#1a1a1a"
       id="g4226"
       transform="matrix(0.08239955,0,0,0.08239955,-2874.9726,8838.5455)">
      <path
         sodipodi:nodetypes="sssccsccccssccs"
         inkscape:connector-curvature="0"
         id="path4228"
         d="m -1722.0068,3023.7372 c -55.2285,0 -100.0001,48.3532 -100,108 0,59.6468 44.7714,108 100,108 80.8755,0 96,-58 96,-58 l -21,-9.375 c 0,0 -28.0923,51.9439 -75,39.375 -34.4024,-9.2181 -35.9511,-41.7473 -35.9688,-75.375 l 130.9688,0 -0.031,-0.062 5.0313,0.062 c 0,-75 -44.7715,-112.625 -100,-112.625 z m 0,21.5938 c 27.3715,0.1421 34.2456,28.384 35.6562,66.4374 l -71.0938,0.5626 c 1.7875,-31.4737 9.1361,-67.1367 35.4376,-67 z"
         style="fill:#1a1a1a;stroke:none" />
    </g>
    <path
       inkscape:export-ydpi="22.209999"
       inkscape:export-xdpi="22.209999"
       inkscape:export-filename="/home/raphael/Bureau/libreobjet-logo.png"
       sodipodi:nodetypes="szszs"
       inkscape:connector-curvature="0"
       id="path4230"
       d="m -3067.7875,9079.6558 c 1.5927,0 2.884,0.7798 2.884,2.7295 0,1.9496 -1.2913,2.7294 -2.884,2.7294 -1.5928,0 -2.884,-0.7798 -2.884,-2.7294 0,-1.9497 1.2912,-2.7295 2.884,-2.7295 z"
       style="fill:#1a1a1a;fill-opacity:1;stroke:none" />
    <g
       inkscape:export-ydpi="22.209999"
       inkscape:export-xdpi="22.209999"
       inkscape:export-filename="/home/raphael/Bureau/libreobjet-logo.png"
       style="fill:#1a1a1a"
       transform="matrix(0.08239955,0,0,0.08239955,-2794.0588,8838.5455)"
       id="g4232">
      <path
         style="fill:#1a1a1a;stroke:none"
         d="m -1720,3023.7372 c -55.2285,0 -100,48.3532 -100,108 0,59.6468 44.7715,108 100,108 80.8755,0 96,-58.0128 96,-58.0128 l -21,-9.3622 c 0,0 -28.0922,51.9311 -75,39.3622 -34.6144,-9.2749 -35.9688,-46.1892 -35.9688,-79.9872 0,-33.798 3.9881,-86.5723 35.9688,-86.4062 31.9807,0.1661 35.9688,38.6888 35.9688,86.4062 l 64.0312,0.625 c 0,-75 -44.7715,-108.625 -100,-108.625 z"
         id="path4234"
         inkscape:connector-curvature="0"
         sodipodi:nodetypes="sssccszzccs" />
      <path
         style="fill:#1a1a1a;fill-opacity:1;stroke:none"
         d="m -1625,3132.3622 -5,-10.6378 -50,-10 -80,0.6378 0,20 z"
         id="path4236"
         inkscape:connector-curvature="0"
         sodipodi:nodetypes="cccccc" />
    </g>
    <path
       inkscape:export-ydpi="22.209999"
       inkscape:export-xdpi="22.209999"
       inkscape:export-filename="/home/raphael/Bureau/libreobjet-logo.png"
       sodipodi:nodetypes="cccccccsccsccccc"
       inkscape:connector-curvature="0"
       id="path4238"
       d="m -2920.4571,9081.8188 1.648,0 0,6.5919 4.1199,0 0,1.648 -4.1199,0 0,9.888 c 0,0 0,3.2959 1.6479,3.2959 1.648,0 2.06,-2.06 2.06,-2.06 l 1.236,0.4121 c 0,0 -0.412,3.7079 -4.9439,3.7079 -4.944,0 -4.944,-5.3559 -4.944,-5.3559 l 0,-9.888 -1.648,0 0,-1.648 c 3.296,0 4.944,-5.7679 4.944,-6.5919 z"
       style="fill:#1a1a1a;fill-opacity:1;stroke:none" />
    <g
       transform="matrix(0.08239955,0,0,0.08239955,-2869.8721,8429.7911)"
       id="g4240">
      <path
         inkscape:connector-curvature="0"
         id="path4242"
         d="m -1038,7993 0,20 40,20 c 0,0 0,108.9877 0,160.0001 0,51.0124 -55.4053,76.6378 -55.4053,76.6378 l 5,20 c 0,0 110.4053,-16.6291 110.4053,-90.6378 0,-63.5832 0,-166.0001 0,-166.0001 l 0,-40 z"
         style="fill:#1a1a1a;stroke:none"
         sodipodi:nodetypes="ccczccsccc"
         inkscape:export-filename="/home/raphael/Bureau/libreobjet-logo.png"
         inkscape:export-xdpi="22.209999"
         inkscape:export-ydpi="22.209999" />
      <path
         sodipodi:nodetypes="szszs"
         inkscape:connector-curvature="0"
         id="path4244"
         d="m -963.8994,7886.7499 c 19.3299,0 35,9.4643 35,33.125 0,23.6608 -15.6701,33.1251 -35,33.1251 -19.33,0 -35,-9.4643 -35,-33.1251 0,-23.6607 15.67,-33.125 35,-33.125 z"
         style="fill:#1a1a1a;fill-opacity:1;stroke:none"
         inkscape:export-filename="/home/raphael/Bureau/libreobjet-logo.png"
         inkscape:export-xdpi="22.209999"
         inkscape:export-ydpi="22.209999" />
    </g>
    <path
       style="fill:#1a1a1a;fill-opacity:1;stroke:none"
       d="m -3094.0585,9104.8381 0,-1.648 3.296,-1.648 0,-18.1279 -3.296,-1.648 0,-1.648 11.5359,0 0,1.648 -3.296,1.648 0,18.1279 6.592,0 1.648,-3.296 1.648,0 0,6.592 z"
       id="path4246"
       inkscape:connector-curvature="0"
       sodipodi:nodetypes="ccccccccccccccc" />
    <path
       sodipodi:nodetypes="ssssszszsz"
       style="fill:#1a1a1a;fill-opacity:1;stroke:none"
       d="m -2986.7147,9079.6686 c -7.1269,0 -11.0862,5.4056 -11.0862,12.3548 0,6.9493 2.3756,13.1273 11.0862,13.1273 8.7107,0 11.0863,-6.178 11.0863,-13.1273 0,-6.9492 -3.9594,-12.3548 -11.0863,-12.3548 z m 0,1.6867 c 3.6534,0 5.1279,4.5549 5.1279,10.7119 0,6.1571 -0.9012,11.3711 -5.1279,11.3711 -4.2266,0 -5.1279,-5.214 -5.1279,-11.3711 0,-6.157 1.4746,-10.7119 5.1279,-10.7119 z"
       id="path4248"
       inkscape:connector-curvature="0" />
    <path
       id="path4250"
       d="m -2975.5083,9080.1182 -0.01,1.6995 3.3042,1.5965 0,21.4239 1.6481,0 1.648,-1.648 c 0,0 1.6479,1.9069 4.9439,1.9069 3.296,0 7.416,-1.8554 7.416,-8.4474 0,-6.5919 -4.12,-8.2914 -5.768,-8.2914 -3.296,0 -4.944,1.648 -4.944,1.648 l 0,-9.888 z m 10.7119,10.7634 c 2.472,0 3.296,2.4721 3.296,5.768 0,3.296 -0.824,6.592 -3.296,6.592 -2.472,0 -2.8016,-3.296 -2.8016,-6.592 0,-3.2959 0.3296,-5.768 2.8016,-5.768 z"
       style="fill:#1a1a1a;stroke:none"
       inkscape:connector-curvature="0"
       sodipodi:nodetypes="ccccccsssccczzszz"
       inkscape:export-filename="/home/raphael/Bureau/libreobjet-logo.png"
       inkscape:export-xdpi="22.209999"
       inkscape:export-ydpi="22.209999" />
    <path
       style="fill:#00bd00;fill-opacity:1;stroke:none"
       d="m -3126.8652,9084.4061 0,20.432 20.432,0 0,-4.3783 -16.0537,0 0,-16.0537 -4.3783,0 z"
       id="path4252"
       inkscape:connector-curvature="0" />
    <path
       style="fill:#00bd00;fill-opacity:1;stroke:none"
       d="m -3118.199,9080.1491 0,16.0538 16.0537,0 0,-16.0538 -16.0537,0 z m 4.3782,4.3783 7.2972,0 0,7.2972 -7.2972,0 0,-7.2972 z"
       id="path4254"
       inkscape:connector-curvature="0" />
  </g>
</svg>
